0
SECTION
2
HEADER
9
$INSUNITS
70
4
0
ENDSEC
0
SECTION
2
TABLES
0
TABLE
2
LTYPE
0
LTYPE
72
65
70
64
2
CONTINUOUS
3
______
73
0
40
0
0
ENDTAB
0
TABLE
2
LAYER
0
ENDTAB
0
ENDSEC
0
SECTION
2
ENTITIES
0
LINE
8
0
10
82.3489303
20
-60.3628994
11
91.1192975
21
-110.1021231
0
LINE
8
0
10
102.5357847
20
-54.8741018
11
83.8901335
21
-58.1618332
0
LINE
8
0
10
109.2185198
20
-50.8843601
11
125.829096
21
-50.304306
0
LINE
8
0
10
107.3859863
20
-52.8495117
11
107.3870594
21
-52.8802436
0
LINE
8
0
10
148.6627869
20
-47.9973764
11
148.6627869
21
-46.7973764
0
LINE
8
0
10
146.7627869
20
-44.8973764
11
129.5627869
21
-44.8973764
0
LINE
8
0
10
127.6627869
20
-46.7973764
11
127.6627869
21
-48.4054634
0
LINE
8
0
10
166.6627869
20
-52.9782215
11
166.6627869
21
-51.7973764
0
LINE
8
0
10
150.5627869
20
-49.8973764
11
164.7627869
21
-49.8973764
0
LINE
8
0
10
144.562787
20
-125.8973763
11
160.2925778
21
-125.8973763
0
LINE
8
0
10
142.662787
20
-113.5964133
11
142.662787
21
-123.9973763
0
LINE
8
0
10
160.68761
20
-125.9388959
11
180.1408502
21
-130.0738097
0
LINE
8
0
10
180.5186175
20
-130.1965537
11
196.8196312
21
-137.4542326
0
LINE
8
0
10
199.3281672
20
-136.4912957
11
206.5259775
21
-120.3247489
0
LINE
8
0
10
102.8666703
20
-54.8452367
11
105.4872628
21
-54.8465525
0
LINE
8
0
10
168.5618329
20
-54.8782213
11
204.8130786
21
-54.8964225
0
LINE
8
0
10
206.7121246
20
-56.7970848
11
206.690241
21
-119.5526119
0
LINE
8
0
10
140.7637503
20
-111.6964135
11
92.9894689
21
-111.6721913
0
ARC
8
0
10
92.9904322
20
-109.7721915
40
1.9
50
190.0000008
51
269.970951
0
ARC
8
0
10
140.762787
20
-113.5964133
40
1.9
50
0
51
89.970951
0
ARC
8
0
10
144.562787
20
-123.9973763
40
1.9
50
180
51
270
0
ARC
8
0
10
160.2925778
20
-127.7973763
40
1.9
50
77.9999995
51
90
0
ARC
8
0
10
179.745818
20
-131.9322901
40
1.9
50
66.0000032
51
77.9999995
0
ARC
8
0
10
197.5924307
20
-135.7184962
40
1.9
50
246.0000032
51
336.0000032
0
ARC
8
0
10
204.7902411
20
-119.5519493
40
1.9
50
336.0000032
51
359.980021
0
ARC
8
0
10
204.8121247
20
-56.7964223
40
1.9
50
359.980021
51
89.9712318
0
ARC
8
0
10
168.5627869
20
-52.9782215
40
1.9
50
180
51
269.9712318
0
ARC
8
0
10
164.7627869
20
-51.7973764
40
1.9
50
0
51
90
0
ARC
8
0
10
150.5627869
20
-47.9973764
40
1.9
50
180
51
270
0
ARC
8
0
10
146.7627869
20
-46.7973764
40
1.9
50
0
51
90
0
ARC
8
0
10
129.5627869
20
-46.7973764
40
1.9
50
90
51
180
0
ARC
8
0
10
125.7627869
20
-48.4054634
40
1.9
50
272.0000002
51
0
0
ARC
8
0
10
109.2848288
20
-52.7832027
40
1.9
50
92.0000002
51
182.0000002
0
ARC
8
0
10
105.4882168
20
-52.9465527
40
1.9
50
269.9712318
51
2.0000002
0
ARC
8
0
10
102.8657163
20
-56.7452365
40
1.9
50
89.9712318
51
100.0000008
0
ARC
8
0
10
84.220065
20
-60.0329679
40
1.9
50
100.0000008
51
190.0000008
0
ENDSEC
0
EOF