0
SECTION
2
HEADER
9
$INSUNITS
70
4
0
ENDSEC
0
SECTION
2
TABLES
0
TABLE
2
LTYPE
0
LTYPE
72
65
70
64
2
CONTINUOUS
3
______
73
0
40
0
0
ENDTAB
0
TABLE
2
LAYER
0
ENDTAB
0
ENDSEC
0
SECTION
2
ENTITIES
0
LINE
8
0
10
82.3489303
20
-60.3628994
11
91.1192975
21
-110.1021231
0
LINE
8
0
10
102.5357847
20
-54.8741018
11
83.8901335
21
-58.1618332
0
LINE
8
0
10
109.2185198
20
-50.8843601
11
125.829096
21
-50.304306
0
LINE
8
0
10
107.3859863
20
-52.8495117
11
107.3870594
21
-52.8802436
0
LINE
8
0
10
148.6627869
20
-47.9973764
11
148.6627869
21
-46.7973764
0
LINE
8
0
10
146.7627869
20
-44.8973764
11
129.5627869
21
-44.8973764
0
LINE
8
0
10
127.6627869
20
-46.7973764
11
127.6627869
21
-48.4054634
0
LINE
8
0
10
166.6627869
20
-52.9782215
11
166.6627869
21
-51.7973764
0
LINE
8
0
10
150.5627869
20
-49.8973764
11
164.7627869
21
-49.8973764
0
LINE
8
0
10
144.562787
20
-125.8973763
11
160.2925778
21
-125.8973763
0
LINE
8
0
10
142.662787
20
-113.5964133
11
142.662787
21
-123.9973763
0
LINE
8
0
10
160.68761
20
-125.9388959
11
180.1408502
21
-130.0738097
0
LINE
8
0
10
180.5186175
20
-130.1965537
11
196.8196312
21
-137.4542326
0
LINE
8
0
10
199.3281672
20
-136.4912957
11
206.5259775
21
-120.3247489
0
LINE
8
0
10
102.8666703
20
-54.8452367
11
105.4872628
21
-54.8465525
0
LINE
8
0
10
168.5618329
20
-54.8782213
11
204.8130786
21
-54.8964225
0
LINE
8
0
10
206.7121246
20
-56.7970848
11
206.690241
21
-119.5526119
0
LINE
8
0
10
140.7637503
20
-111.6964135
11
92.9894689
21
-111.6721913
0
ARC
8
0
10
92.9904322
20
-109.7721915
40
1.9
50
190.0000008
51
269.970951
0
ARC
8
0
10
140.762787
20
-113.5964133
40
1.9
50
0
51
89.970951
0
ARC
8
0
10
144.562787
20
-123.9973763
40
1.9
50
180
51
270
0
ARC
8
0
10
160.2925778
20
-127.7973763
40
1.9
50
77.9999995
51
90
0
ARC
8
0
10
179.745818
20
-131.9322901
40
1.9
50
66.0000032
51
77.9999995
0
ARC
8
0
10
197.5924307
20
-135.7184962
40
1.9
50
246.0000032
51
336.0000032
0
ARC
8
0
10
204.7902411
20
-119.5519493
40
1.9
50
336.0000032
51
359.980021
0
ARC
8
0
10
204.8121247
20
-56.7964223
40
1.9
50
359.980021
51
89.9712318
0
ARC
8
0
10
168.5627869
20
-52.9782215
40
1.9
50
180
51
269.9712318
0
ARC
8
0
10
164.7627869
20
-51.7973764
40
1.9
50
0
51
90
0
ARC
8
0
10
150.5627869
20
-47.9973764
40
1.9
50
180
51
270
0
ARC
8
0
10
146.7627869
20
-46.7973764
40
1.9
50
0
51
90
0
ARC
8
0
10
129.5627869
20
-46.7973764
40
1.9
50
90
51
180
0
ARC
8
0
10
125.7627869
20
-48.4054634
40
1.9
50
272.0000002
51
0
0
ARC
8
0
10
109.2848288
20
-52.7832027
40
1.9
50
92.0000002
51
182.0000002
0
ARC
8
0
10
105.4882168
20
-52.9465527
40
1.9
50
269.9712318
51
2.0000002
0
ARC
8
0
10
102.8657163
20
-56.7452365
40
1.9
50
89.9712318
51
100.0000008
0
ARC
8
0
10
84.220065
20
-60.0329679
40
1.9
50
100.0000008
51
190.0000008
0
LINE
8
0
10
94.342162
20
-108.0802301
11
108.0802301
21
-105.657838
0
LINE
8
0
10
108.0802301
20
-105.657838
11
105.657838
21
-91.9197699
0
LINE
8
0
10
105.657838
20
-91.9197699
11
91.9197699
21
-94.342162
0
LINE
8
0
10
91.9197699
20
-94.342162
11
94.342162
21
-108.0802301
0
LINE
8
0
10
91.390143
20
-91.3384983
11
105.1282111
21
-88.9161062
0
LINE
8
0
10
105.1282111
20
-88.9161062
11
102.705819
21
-75.1780381
0
LINE
8
0
10
102.705819
20
-75.1780381
11
88.9677509
21
-77.6004302
0
LINE
8
0
10
88.9677509
20
-77.6004302
11
91.390143
21
-91.3384983
0
LINE
8
0
10
88.438124
20
-74.5967665
11
102.1761921
21
-72.1743744
0
LINE
8
0
10
102.1761921
20
-72.1743744
11
99.7538
21
-58.4363063
0
LINE
8
0
10
99.7538
20
-58.4363063
11
86.0157319
21
-60.8586984
0
LINE
8
0
10
86.0157319
20
-60.8586984
11
88.438124
21
-74.5967665
0
LINE
8
0
10
112.6215317
20
-101.7715959
11
126.5630337
21
-101.2847479
0
LINE
8
0
10
126.5630337
20
-101.2847479
11
126.0761857
21
-87.3432459
0
LINE
8
0
10
126.0761857
20
-87.3432459
11
112.1346837
21
-87.8300939
0
LINE
8
0
10
112.1346837
20
-87.8300939
11
112.6215317
21
-101.7715959
0
LINE
8
0
10
112.0282403
20
-84.7819518
11
125.9697423
21
-84.2951038
0
LINE
8
0
10
125.9697423
20
-84.2951038
11
125.4828943
21
-70.3536018
0
LINE
8
0
10
125.4828943
20
-70.3536018
11
111.5413923
21
-70.8404498
0
LINE
8
0
10
111.5413923
20
-70.8404498
11
112.0282403
21
-84.7819518
0
LINE
8
0
10
111.4349489
20
-67.7923077
11
125.3764509
21
-67.3054597
0
LINE
8
0
10
125.3764509
20
-67.3054597
11
124.8896029
21
-53.3639577
0
LINE
8
0
10
124.8896029
20
-53.3639577
11
110.9481009
21
-53.8508057
0
LINE
8
0
10
110.9481009
20
-53.8508057
11
111.4349489
21
-67.7923077
0
LINE
8
0
10
131.1877869
20
-95.8723764
11
145.1377869
21
-95.8723764
0
LINE
8
0
10
145.1377869
20
-95.8723764
11
145.1377869
21
-81.9223764
0
LINE
8
0
10
145.1377869
20
-81.9223764
11
131.1877869
21
-81.9223764
0
LINE
8
0
10
131.1877869
20
-81.9223764
11
131.1877869
21
-95.8723764
0
LINE
8
0
10
131.1877869
20
-78.8723764
11
145.1377869
21
-78.8723764
0
LINE
8
0
10
145.1377869
20
-78.8723764
11
145.1377869
21
-64.9223764
0
LINE
8
0
10
145.1377869
20
-64.9223764
11
131.1877869
21
-64.9223764
0
LINE
8
0
10
131.1877869
20
-64.9223764
11
131.1877869
21
-78.8723764
0
LINE
8
0
10
131.1877869
20
-61.8723764
11
145.1377869
21
-61.8723764
0
LINE
8
0
10
145.1377869
20
-61.8723764
11
145.1377869
21
-47.9223764
0
LINE
8
0
10
145.1377869
20
-47.9223764
11
131.1877869
21
-47.9223764
0
LINE
8
0
10
131.1877869
20
-47.9223764
11
131.1877869
21
-61.8723764
0
LINE
8
0
10
149.1877869
20
-100.8723764
11
163.1377869
21
-100.8723764
0
LINE
8
0
10
163.1377869
20
-100.8723764
11
163.1377869
21
-86.9223764
0
LINE
8
0
10
163.1377869
20
-86.9223764
11
149.1877869
21
-86.9223764
0
LINE
8
0
10
149.1877869
20
-86.9223764
11
149.1877869
21
-100.8723764
0
LINE
8
0
10
149.1877869
20
-83.8723764
11
163.1377869
21
-83.8723764
0
LINE
8
0
10
163.1377869
20
-83.8723764
11
163.1377869
21
-69.9223764
0
LINE
8
0
10
163.1377869
20
-69.9223764
11
149.1877869
21
-69.9223764
0
LINE
8
0
10
149.1877869
20
-69.9223764
11
149.1877869
21
-83.8723764
0
LINE
8
0
10
149.1877869
20
-66.8723764
11
163.1377869
21
-66.8723764
0
LINE
8
0
10
163.1377869
20
-66.8723764
11
163.1377869
21
-52.9223764
0
LINE
8
0
10
163.1377869
20
-52.9223764
11
149.1877869
21
-52.9223764
0
LINE
8
0
10
149.1877869
20
-52.9223764
11
149.1877869
21
-66.8723764
0
LINE
8
0
10
167.187787
20
-105.8723763
11
181.137787
21
-105.8723763
0
LINE
8
0
10
181.137787
20
-105.8723763
11
181.137787
21
-91.9223763
0
LINE
8
0
10
181.137787
20
-91.9223763
11
167.187787
21
-91.9223763
0
LINE
8
0
10
167.187787
20
-91.9223763
11
167.187787
21
-105.8723763
0
LINE
8
0
10
167.187787
20
-88.8723763
11
181.137787
21
-88.8723763
0
LINE
8
0
10
181.137787
20
-88.8723763
11
181.137787
21
-74.9223763
0
LINE
8
0
10
181.137787
20
-74.9223763
11
167.187787
21
-74.9223763
0
LINE
8
0
10
167.187787
20
-74.9223763
11
167.187787
21
-88.8723763
0
LINE
8
0
10
167.187787
20
-71.8723763
11
181.137787
21
-71.8723763
0
LINE
8
0
10
181.137787
20
-71.8723763
11
181.137787
21
-57.9223763
0
LINE
8
0
10
181.137787
20
-57.9223763
11
167.187787
21
-57.9223763
0
LINE
8
0
10
167.187787
20
-57.9223763
11
167.187787
21
-71.8723763
0
LINE
8
0
10
146.187787
20
-122.8723763
11
160.137787
21
-122.8723763
0
LINE
8
0
10
160.137787
20
-122.8723763
11
160.137787
21
-108.9223763
0
LINE
8
0
10
160.137787
20
-108.9223763
11
146.187787
21
-108.9223763
0
LINE
8
0
10
146.187787
20
-108.9223763
11
146.187787
21
-122.8723763
0
LINE
8
0
10
165.4086428
20
-123.8498021
11
179.0538019
21
-126.7501702
0
LINE
8
0
10
179.0538019
20
-126.7501702
11
181.95417
21
-113.1050111
0
LINE
8
0
10
181.95417
20
-113.1050111
11
168.3090109
21
-110.204643
0
LINE
8
0
10
168.3090109
20
-110.204643
11
165.4086428
21
-123.8498021
0
LINE
8
0
10
183.8215389
20
-128.3558344
11
196.5654981
21
-134.0298106
0
LINE
8
0
10
196.5654981
20
-134.0298106
11
202.2394743
21
-121.2858514
0
LINE
8
0
10
202.2394743
20
-121.2858514
11
189.4955151
21
-115.6118752
0
LINE
8
0
10
189.4955151
20
-115.6118752
11
183.8215389
21
-128.3558344
0
ENDSEC
0
EOF