0
SECTION
2
HEADER
9
$INSUNITS
70
4
0
ENDSEC
0
SECTION
2
TABLES
0
TABLE
2
LTYPE
0
LTYPE
72
65
70
64
2
CONTINUOUS
3
______
73
0
40
0
0
ENDTAB
0
TABLE
2
LAYER
0
ENDTAB
0
ENDSEC
0
SECTION
2
ENTITIES
0
LINE
8
0
10
91.3960004
20
-111.6713834
11
112.0769632
21
-108.0247717
0
LINE
8
0
10
112.0769632
20
-108.0247717
11
111.514888
21
-104.8370846
0
LINE
8
0
10
82.0189988
20
-58.4917647
11
91.3960004
21
-111.6713834
0
LINE
8
0
10
103.2732162
20
-58.0962415
11
102.6999616
21
-54.845153
0
LINE
8
0
10
102.6999616
20
-54.845153
11
82.0189988
21
-58.4917647
0
LINE
8
0
10
111.514888
20
-104.8370846
11
130.1914574
21
-104.1848845
0
LINE
8
0
10
130.1914574
20
-104.1848845
11
130.0068135
21
-98.8973764
0
LINE
8
0
10
103.2732162
20
-58.0962415
11
107.5639737
21
-57.946405
0
LINE
8
0
10
107.3196772
20
-50.9506691
11
127.6627869
21
-50.2402721
0
LINE
8
0
10
107.3196772
20
-50.9506691
11
107.5639737
21
-57.946405
0
LINE
8
0
10
130.0068135
20
-98.8973764
11
145.6627869
21
-98.8973764
0
LINE
8
0
10
148.6627869
20
-49.8973764
11
148.6627869
21
-44.8973764
0
LINE
8
0
10
148.6627869
20
-44.8973764
11
127.6627869
21
-44.8973764
0
LINE
8
0
10
127.6627869
20
-44.8973764
11
127.6627869
21
-50.2402721
0
LINE
8
0
10
145.6627869
20
-103.8973764
11
163.662787
21
-103.8973764
0
LINE
8
0
10
145.6627869
20
-98.8973764
11
145.6627869
21
-103.8973764
0
LINE
8
0
10
166.6627869
20
-54.8973763
11
166.6627869
21
-49.8973764
0
LINE
8
0
10
148.6627869
20
-49.8973764
11
166.6627869
21
-49.8973764
0
LINE
8
0
10
176.7082508
20
-108.8973763
11
184.662787
21
-108.8973763
0
LINE
8
0
10
184.662787
20
-108.8973763
11
184.662787
21
-54.8973763
0
LINE
8
0
10
163.662787
20
-103.8973764
11
163.662787
21
-105.8973763
0
LINE
8
0
10
166.6627869
20
-54.8973763
11
184.662787
21
-54.8973763
0
LINE
8
0
10
142.662787
20
-125.8973763
11
160.4922757
21
-125.8973763
0
LINE
8
0
10
163.662787
20
-105.8973763
11
162.5943604
21
-105.8973763
0
LINE
8
0
10
162.5537764
20
-105.8973763
11
142.662787
21
-105.8973763
0
LINE
8
0
10
142.662787
20
-105.8973763
11
142.662787
21
-125.8973763
0
LINE
8
0
10
160.4922757
20
-125.8973763
11
180.3361846
21
-130.1153294
0
LINE
8
0
10
184.4661154
20
-118.2415504
11
186.0310731
21
-110.8790033
0
LINE
8
0
10
186.0310731
20
-110.8790033
11
176.7082508
21
-108.8973763
0
LINE
8
0
10
162.5555307
20
-105.8891228
11
162.5943604
21
-105.8973763
0
LINE
8
0
10
162.5537764
20
-105.8973763
11
162.5555307
21
-105.8891228
0
LINE
8
0
10
180.3361846
20
-130.1153294
11
198.5553675
21
-138.2270322
0
LINE
8
0
10
198.5553675
20
-138.2270322
11
206.6901003
21
-119.9561231
0
LINE
8
0
10
206.6901003
20
-119.9561231
11
187.5056457
21
-111.4146536
0
LINE
8
0
10
187.5056457
20
-111.4146536
11
184.4661154
21
-118.2415504
0
ENDSEC
0
EOF