0
SECTION
2
HEADER
9
$INSUNITS
70
4
0
ENDSEC
0
SECTION
2
TABLES
0
TABLE
2
LTYPE
0
LTYPE
72
65
70
64
2
CONTINUOUS
3
______
73
0
40
0
0
ENDTAB
0
TABLE
2
LAYER
0
ENDTAB
0
ENDSEC
0
SECTION
2
ENTITIES
0
LINE
8
0
10
92.6127397
20
-109.9336995
11
110.3392793
21
-106.8080323
0
LINE
8
0
10
101.4832223
20
-56.5828369
11
110.3392793
21
-106.8080323
0
LINE
8
0
10
83.7566827
20
-59.7085041
11
92.6127397
21
-109.9336995
0
LINE
8
0
10
101.4832223
20
-56.5828369
11
83.7566827
21
-59.7085041
0
LINE
8
0
10
110.650987
20
-103.3663384
11
128.6400219
21
-102.7381475
0
LINE
8
0
10
126.8601476
20
-51.7692152
11
128.6400219
21
-102.7381475
0
LINE
8
0
10
108.8711127
20
-52.3974061
11
110.650987
21
-103.3663384
0
LINE
8
0
10
126.8601476
20
-51.7692152
11
108.8711127
21
-52.3974061
0
LINE
8
0
10
129.1627869
20
-97.3973764
11
147.1627869
21
-97.3973764
0
LINE
8
0
10
129.1627869
20
-97.3973764
11
129.1627869
21
-46.3973764
0
LINE
8
0
10
147.1627869
20
-51.3973764
11
147.1627869
21
-46.3973764
0
LINE
8
0
10
147.1627869
20
-46.3973764
11
129.1627869
21
-46.3973764
0
LINE
8
0
10
147.1627869
20
-102.3973764
11
165.1627869
21
-102.3973764
0
LINE
8
0
10
165.1627869
20
-102.3973764
11
165.1627869
21
-51.3973764
0
LINE
8
0
10
147.1627869
20
-97.3973764
11
147.1627869
21
-102.3973764
0
LINE
8
0
10
165.1627869
20
-51.3973764
11
147.1627869
21
-51.3973764
0
LINE
8
0
10
165.162787
20
-107.3973763
11
183.162787
21
-107.3973763
0
LINE
8
0
10
183.162787
20
-107.3973763
11
183.162787
21
-56.3973763
0
LINE
8
0
10
165.162787
20
-107.3973763
11
165.162787
21
-56.3973763
0
LINE
8
0
10
183.162787
20
-56.3973763
11
165.162787
21
-56.3973763
0
LINE
8
0
10
144.162787
20
-124.3973763
11
162.162787
21
-124.3973763
0
LINE
8
0
10
162.162787
20
-124.3973763
11
162.162787
21
-107.3973763
0
LINE
8
0
10
162.162787
20
-107.3973763
11
144.162787
21
-107.3973763
0
LINE
8
0
10
144.162787
20
-107.3973763
11
144.162787
21
-124.3973763
0
LINE
8
0
10
163.1108286
20
-124.920456
11
180.7174854
21
-128.6628664
0
LINE
8
0
10
180.7174854
20
-128.6628664
11
184.2519842
21
-112.0343572
0
LINE
8
0
10
184.2519842
20
-112.0343572
11
166.6453274
21
-108.2919468
0
LINE
8
0
10
166.6453274
20
-108.2919468
11
163.1108286
21
-124.920456
0
LINE
8
0
10
181.351336
20
-128.9253495
11
197.7951543
21
-136.2466091
0
LINE
8
0
10
197.7951543
20
-136.2466091
11
204.7096772
21
-120.7163363
0
LINE
8
0
10
204.7096772
20
-120.7163363
11
188.2658589
21
-113.3950767
0
LINE
8
0
10
188.2658589
20
-113.3950767
11
181.351336
21
-128.9253495
0
ENDSEC
0
EOF