%TF.GenerationSoftware,KiCad,Pcbnew,8.0.1*%
%TF.CreationDate,2024-05-06T23:29:14+03:00*%
%TF.ProjectId,new_ready_splayer_pcb,6e65775f-7265-4616-9479-5f73706c6179,v1.0.0*%
%TF.SameCoordinates,Original*%
%TF.FileFunction,Copper,L2,Bot*%
%TF.FilePolarity,Positive*%
%FSLAX46Y46*%
G04 Gerber Fmt 4.6, Leading zero omitted, Abs format (unit mm)*
G04 Created by KiCad (PCBNEW 8.0.1) date 2024-05-06 23:29:14*
%MOMM*%
%LPD*%
G01*
G04 APERTURE LIST*
G04 Aperture macros list*
%AMRotRect*
0 Rectangle, with rotation*
0 The origin of the aperture is its center*
0 $1 length*
0 $2 width*
0 $3 Rotation angle, in degrees counterclockwise*
0 Add horizontal line*
21,1,$1,$2,0,0,$3*%
%AMFreePoly0*
4,1,6,0.500000,-0.625000,-0.650000,-0.625000,-0.150000,0.000000,-0.650000,0.625000,0.500000,0.625000,0.500000,-0.625000,0.500000,-0.625000,$1*%
%AMFreePoly1*
4,1,6,0.250000,0.000000,-0.250000,-0.625000,-0.500000,-0.625000,-0.500000,0.625000,-0.250000,0.625000,0.250000,0.000000,0.250000,0.000000,$1*%
%AMFreePoly2*
4,1,6,0.600000,-1.000000,0.000000,-0.400000,-0.600000,-1.000000,-0.600000,0.250000,0.600000,0.250000,0.600000,-1.000000,0.600000,-1.000000,$1*%
%AMFreePoly3*
4,1,6,0.600000,-0.200000,0.600000,-0.400000,-0.600000,-0.400000,-0.600000,-0.200000,0.000000,0.400000,0.600000,-0.200000,0.600000,-0.200000,$1*%
%AMFreePoly4*
4,1,6,1.300000,-1.300000,-0.050000,-1.299999,-1.300000,-0.250000,-1.300000,1.300000,1.300000,1.300000,1.300000,-1.300000,1.300000,-1.300000,$1*%
G04 Aperture macros list end*
%TA.AperFunction,SMDPad,CuDef*%
%ADD10R,1.000000X1.550000*%
%TD*%
%TA.AperFunction,ComponentPad*%
%ADD11C,0.600000*%
%TD*%
%TA.AperFunction,SMDPad,CuDef*%
%ADD12FreePoly0,0.000000*%
%TD*%
%TA.AperFunction,ComponentPad*%
%ADD13C,0.800000*%
%TD*%
%TA.AperFunction,SMDPad,CuDef*%
%ADD14FreePoly1,180.000000*%
%TD*%
%TA.AperFunction,ComponentPad*%
%ADD15C,1.700000*%
%TD*%
%TA.AperFunction,SMDPad,CuDef*%
%ADD16FreePoly1,0.000000*%
%TD*%
%TA.AperFunction,SMDPad,CuDef*%
%ADD17FreePoly0,180.000000*%
%TD*%
%TA.AperFunction,SMDPad,CuDef*%
%ADD18R,0.800000X1.000000*%
%TD*%
%TA.AperFunction,SMDPad,CuDef*%
%ADD19R,1.500000X0.700000*%
%TD*%
%TA.AperFunction,SMDPad,CuDef*%
%ADD20FreePoly2,90.000000*%
%TD*%
%TA.AperFunction,ComponentPad*%
%ADD21O,1.750000X1.200000*%
%TD*%
%TA.AperFunction,SMDPad,CuDef*%
%ADD22FreePoly3,90.000000*%
%TD*%
%TA.AperFunction,ComponentPad*%
%ADD23C,2.032000*%
%TD*%
%TA.AperFunction,SMDPad,CuDef*%
%ADD24FreePoly4,10.000000*%
%TD*%
%TA.AperFunction,SMDPad,CuDef*%
%ADD25RotRect,2.600000X2.600000X10.000000*%
%TD*%
%TA.AperFunction,SMDPad,CuDef*%
%ADD26FreePoly4,0.000000*%
%TD*%
%TA.AperFunction,SMDPad,CuDef*%
%ADD27R,2.600000X2.600000*%
%TD*%
%TA.AperFunction,SMDPad,CuDef*%
%ADD28FreePoly4,348.000000*%
%TD*%
%TA.AperFunction,SMDPad,CuDef*%
%ADD29RotRect,2.600000X2.600000X348.000000*%
%TD*%
%TA.AperFunction,SMDPad,CuDef*%
%ADD30FreePoly4,2.000000*%
%TD*%
%TA.AperFunction,SMDPad,CuDef*%
%ADD31RotRect,2.600000X2.600000X2.000000*%
%TD*%
%TA.AperFunction,SMDPad,CuDef*%
%ADD32FreePoly4,336.000000*%
%TD*%
%TA.AperFunction,SMDPad,CuDef*%
%ADD33RotRect,2.600000X2.600000X336.000000*%
%TD*%
%TA.AperFunction,Conductor*%
%ADD34C,0.250000*%
%TD*%
G04 APERTURE END LIST*
D10*
%TO.P,RST1,1*%
%TO.N,GND*%
X272009009Y-131280853D03*
%TO.P,RST1,2*%
%TO.N,RST*%
X270309009Y-131280853D03*
%TO.P,RST1,3*%
%TO.N,GND*%
X272009009Y-136530853D03*
%TO.P,RST1,4*%
%TO.N,RST*%
X270309009Y-136530853D03*
%TD*%
D11*
%TO.P,REF\u002A\u002A,1*%
%TO.N,GND*%
X271159010Y-128905852D03*
%TD*%
%TO.P,REF\u002A\u002A,1*%
%TO.N,BAT_P*%
X257159008Y-132905853D03*
%TD*%
%TO.P,REF\u002A\u002A,1*%
%TO.N,GND*%
X264159007Y-128905855D03*
%TD*%
%TO.P,REF\u002A\u002A,1*%
%TO.N,RAW*%
X267159010Y-144905855D03*
%TD*%
D12*
%TO.P,MCU1,1*%
%TO.N,P1*%
X257134000Y-95715000D03*
D13*
X265309000Y-95715000D03*
D14*
%TO.N,MCU1_1*%
X267409000Y-95715000D03*
D15*
X269529000Y-95715000D03*
D12*
%TO.P,MCU1,2*%
%TO.N,P0*%
X257134000Y-98255000D03*
D13*
X265309000Y-98255000D03*
D14*
%TO.N,MCU1_2*%
X267409000Y-98255000D03*
D15*
X269529000Y-98255000D03*
D12*
%TO.P,MCU1,3*%
%TO.N,GND*%
X257134000Y-100795000D03*
D13*
X265309000Y-100795000D03*
D14*
%TO.N,MCU1_3*%
X267409000Y-100795000D03*
D15*
X269529000Y-100795000D03*
D12*
%TO.P,MCU1,4*%
%TO.N,GND*%
X257134000Y-103335000D03*
D13*
X265309000Y-103335000D03*
D14*
%TO.N,MCU1_4*%
X267409000Y-103335000D03*
D15*
X269529000Y-103335000D03*
%TO.P,MCU1,5*%
%TO.N,P21*%
X269529000Y-105875000D03*
%TO.P,MCU1,6*%
%TO.N,P20*%
X269529000Y-108415000D03*
%TO.P,MCU1,7*%
%TO.N,P19*%
X269529000Y-110955000D03*
%TO.P,MCU1,8*%
%TO.N,P18*%
X269529000Y-113495000D03*
%TO.P,MCU1,9*%
%TO.N,P15*%
X269529000Y-116035000D03*
%TO.P,MCU1,10*%
%TO.N,P14*%
X269529000Y-118575000D03*
%TO.P,MCU1,11*%
%TO.N,P16*%
X269529000Y-121115000D03*
%TO.P,MCU1,12*%
%TO.N,P10*%
X269529000Y-123655000D03*
%TO.P,MCU1,13*%
%TO.N,P9*%
X254289000Y-123655000D03*
%TO.P,MCU1,14*%
%TO.N,P8*%
X254289000Y-121115000D03*
%TO.P,MCU1,15*%
%TO.N,P7*%
X254289000Y-118575000D03*
%TO.P,MCU1,16*%
%TO.N,P6*%
X254289000Y-116035000D03*
%TO.P,MCU1,17*%
%TO.N,P5*%
X254289000Y-113495000D03*
%TO.P,MCU1,18*%
%TO.N,P4*%
X254289000Y-110955000D03*
%TO.P,MCU1,19*%
%TO.N,P3*%
X254289000Y-108415000D03*
%TO.P,MCU1,20*%
%TO.N,P2*%
X254289000Y-105875000D03*
%TO.P,MCU1,21*%
%TO.N,MCU1_21*%
X254289000Y-103335000D03*
D16*
X256409000Y-103335000D03*
D15*
%TO.P,MCU1,22*%
%TO.N,MCU1_22*%
X254289000Y-100795000D03*
D16*
X256409000Y-100795000D03*
D15*
%TO.P,MCU1,23*%
%TO.N,MCU1_23*%
X254289000Y-98255000D03*
D16*
X256409000Y-98255000D03*
D15*
%TO.P,MCU1,24*%
%TO.N,MCU1_24*%
X254289000Y-95715000D03*
D16*
X256409000Y-95715000D03*
D13*
%TO.P,MCU1,121*%
%TO.N,VCC*%
X258509000Y-103335000D03*
D17*
X266684000Y-103335000D03*
D13*
%TO.P,MCU1,122*%
%TO.N,RST*%
X258509000Y-100795000D03*
D17*
X266684000Y-100795000D03*
D13*
%TO.P,MCU1,123*%
%TO.N,GND*%
X258509000Y-98255000D03*
D17*
X266684000Y-98255000D03*
D13*
%TO.P,MCU1,124*%
%TO.N,RAW*%
X258509000Y-95715000D03*
D17*
X266684000Y-95715000D03*
%TD*%
D18*
%TO.P,PWR1,*%
%TO.N,*%
X270074008Y-147555851D03*
X270074009Y-140255851D03*
X272284008Y-140255852D03*
X272284009Y-147555852D03*
D19*
%TO.P,PWR1,1*%
%TO.N,BAT_P*%
X269424009Y-141655852D03*
%TO.P,PWR1,2*%
%TO.N,RAW*%
X269424009Y-144655853D03*
%TO.P,PWR1,3*%
%TO.N,N/C*%
X269424008Y-146155852D03*
%TD*%
D20*
%TO.P,JST1,1*%
%TO.N,BAT_P*%
X258343007Y-129905850D03*
%TO.P,JST1,2*%
%TO.N,GND*%
X258343007Y-127905850D03*
D21*
%TO.P,JST1,11*%
%TO.N,JST1_1*%
X261159006Y-127905850D03*
%TO.P,JST1,12*%
%TO.N,JST1_2*%
X261159008Y-129905850D03*
D22*
%TO.P,JST1,31*%
%TO.N,JST1_1*%
X259359006Y-127905851D03*
%TO.P,JST1,32*%
%TO.N,JST1_2*%
X259359007Y-129905850D03*
%TD*%
D11*
%TO.P,REF\u002A\u002A,1*%
%TO.N,BAT_P*%
X267159009Y-141905852D03*
%TD*%
D23*
%TO.P,S1,1*%
%TO.N,GND*%
X162232044Y-141618983D03*
D24*
%TO.N,P16*%
X162237768Y-131717565D03*
D23*
%TO.N,GND*%
X172080122Y-139882502D03*
%TO.P,S1,2*%
%TO.N,P16*%
X167520744Y-142818839D03*
D25*
%TO.N,GND*%
X173994323Y-131878505D03*
%TD*%
D23*
%TO.P,S15,1*%
%TO.N,GND*%
X235659009Y-105705854D03*
D26*
%TO.N,P3*%
X237384009Y-95955854D03*
D23*
%TO.N,GND*%
X245659009Y-105705854D03*
%TO.P,S15,2*%
%TO.N,P3*%
X240659009Y-107805854D03*
D27*
%TO.N,GND*%
X248934009Y-98155854D03*
%TD*%
D23*
%TO.P,S3,1*%
%TO.N,GND*%
X156328007Y-108135522D03*
D24*
%TO.N,P21*%
X156333731Y-98234104D03*
D23*
%TO.N,GND*%
X166176085Y-106399041D03*
%TO.P,S3,2*%
%TO.N,P21*%
X161616707Y-109335378D03*
D25*
%TO.N,GND*%
X168090286Y-98395044D03*
%TD*%
D23*
%TO.P,S13,1*%
%TO.N,GND*%
X235659006Y-139705853D03*
D26*
%TO.N,P7*%
X237384006Y-129955853D03*
D23*
%TO.N,GND*%
X245659006Y-139705853D03*
%TO.P,S13,2*%
%TO.N,P7*%
X240659006Y-141805853D03*
D27*
%TO.N,GND*%
X248934006Y-132155853D03*
%TD*%
D23*
%TO.P,S8,1*%
%TO.N,GND*%
X199659010Y-112705851D03*
D26*
%TO.N,P20*%
X201384010Y-102955851D03*
D23*
%TO.N,GND*%
X209659010Y-112705851D03*
%TO.P,S8,2*%
%TO.N,P20*%
X204659010Y-114805851D03*
D27*
%TO.N,GND*%
X212934010Y-105155851D03*
%TD*%
D23*
%TO.P,S17,1*%
%TO.N,GND*%
X234496827Y-158163283D03*
D28*
%TO.N,P8*%
X238211270Y-148984992D03*
D23*
%TO.N,GND*%
X244278303Y-160242401D03*
%TO.P,S17,2*%
%TO.N,P8*%
X238950950Y-161256953D03*
D29*
%TO.N,GND*%
X249051469Y-153538298D03*
%TD*%
D23*
%TO.P,S5,1*%
%TO.N,GND*%
X180387454Y-118548436D03*
D30*
%TO.N,P18*%
X181771133Y-108744173D03*
D23*
%TO.N,GND*%
X190381362Y-118199441D03*
%TO.P,S5,2*%
%TO.N,P18*%
X185457696Y-120472659D03*
D31*
%TO.N,GND*%
X193390876Y-110539744D03*
%TD*%
D23*
%TO.P,S9,1*%
%TO.N,GND*%
X199659008Y-95705853D03*
D26*
%TO.N,P1*%
X201384008Y-85955853D03*
D23*
%TO.N,GND*%
X209659008Y-95705853D03*
%TO.P,S9,2*%
%TO.N,P1*%
X204659008Y-97805853D03*
D27*
%TO.N,GND*%
X212934008Y-88155853D03*
%TD*%
D23*
%TO.P,S14,1*%
%TO.N,GND*%
X235659011Y-122705855D03*
D26*
%TO.N,P5*%
X237384011Y-112955855D03*
D23*
%TO.N,GND*%
X245659011Y-122705855D03*
%TO.P,S14,2*%
%TO.N,P5*%
X240659011Y-124805855D03*
D27*
%TO.N,GND*%
X248934011Y-115155855D03*
%TD*%
D23*
%TO.P,S7,1*%
%TO.N,GND*%
X199659009Y-129705852D03*
D26*
%TO.N,P19*%
X201384009Y-119955852D03*
D23*
%TO.N,GND*%
X209659009Y-129705852D03*
%TO.P,S7,2*%
%TO.N,P19*%
X204659009Y-131805852D03*
D27*
%TO.N,GND*%
X212934009Y-122155852D03*
%TD*%
D23*
%TO.P,S12,1*%
%TO.N,GND*%
X217659012Y-100705853D03*
D26*
%TO.N,P2*%
X219384012Y-90955853D03*
D23*
%TO.N,GND*%
X227659012Y-100705853D03*
%TO.P,S12,2*%
%TO.N,P2*%
X222659012Y-102805853D03*
D27*
%TO.N,GND*%
X230934012Y-93155853D03*
%TD*%
D23*
%TO.P,S2,1*%
%TO.N,GND*%
X159280029Y-124877254D03*
D24*
%TO.N,P15*%
X159285753Y-114975836D03*
D23*
%TO.N,GND*%
X169128107Y-123140773D03*
%TO.P,S2,2*%
%TO.N,P15*%
X164568729Y-126077110D03*
D25*
%TO.N,GND*%
X171042308Y-115136776D03*
%TD*%
D23*
%TO.P,S11,1*%
%TO.N,GND*%
X217659006Y-117705854D03*
D26*
%TO.N,P4*%
X219384006Y-107955854D03*
D23*
%TO.N,GND*%
X227659006Y-117705854D03*
%TO.P,S11,2*%
%TO.N,P4*%
X222659006Y-119805854D03*
D27*
%TO.N,GND*%
X230934006Y-110155854D03*
%TD*%
D23*
%TO.P,S18,1*%
%TO.N,GND*%
X253413402Y-163267109D03*
D32*
%TO.N,P10*%
X258954951Y-155061661D03*
D23*
%TO.N,GND*%
X262548857Y-167334475D03*
%TO.P,S18,2*%
%TO.N,P10*%
X257126983Y-167219237D03*
D33*
%TO.N,GND*%
X268611580Y-161769269D03*
%TD*%
D23*
%TO.P,S16,1*%
%TO.N,GND*%
X214659008Y-156705851D03*
D26*
%TO.N,P9*%
X216384008Y-146955851D03*
D23*
%TO.N,GND*%
X224659008Y-156705851D03*
%TO.P,S16,2*%
%TO.N,P9*%
X219659008Y-158805851D03*
D27*
%TO.N,GND*%
X227934008Y-149155851D03*
%TD*%
D23*
%TO.P,S6,1*%
%TO.N,GND*%
X179794164Y-101558794D03*
D30*
%TO.N,P0*%
X181177843Y-91754531D03*
D23*
%TO.N,GND*%
X189788072Y-101209799D03*
%TO.P,S6,2*%
%TO.N,P0*%
X184864406Y-103483017D03*
D31*
%TO.N,GND*%
X192797586Y-93550102D03*
%TD*%
D23*
%TO.P,S10,1*%
%TO.N,GND*%
X217659009Y-134705852D03*
D26*
%TO.N,P6*%
X219384009Y-124955852D03*
D23*
%TO.N,GND*%
X227659009Y-134705852D03*
%TO.P,S10,2*%
%TO.N,P6*%
X222659009Y-136805852D03*
D27*
%TO.N,GND*%
X230934009Y-127155852D03*
%TD*%
D23*
%TO.P,S4,1*%
%TO.N,GND*%
X180980745Y-135538080D03*
D30*
%TO.N,P14*%
X182364424Y-125733817D03*
D23*
%TO.N,GND*%
X190974653Y-135189085D03*
%TO.P,S4,2*%
%TO.N,P14*%
X186050987Y-137462303D03*
D31*
%TO.N,GND*%
X193984167Y-127529388D03*
%TD*%
D34*
%TO.N,RST*%
X271000000Y-135839862D02*
X270309009Y-136530853D01*
X270309009Y-131280853D02*
X271000000Y-131971844D01*
X271000000Y-131971844D02*
X271000000Y-135839862D01*
%TO.N,GND*%
X271500000Y-136021844D02*
X272009009Y-136530853D01*
X271500000Y-131789862D02*
X271500000Y-136021844D01*
X272009009Y-131280853D02*
X271500000Y-131789862D01*
%TO.N,P16*%
X163900571Y-140283968D02*
X167520744Y-142818841D01*
X162411538Y-131839243D02*
X163900571Y-140283968D01*
X162237768Y-131717567D02*
X162411538Y-131839243D01*
%TO.N,GND*%
X266684009Y-98254851D02*
X266334315Y-98254852D01*
X186469258Y-104768792D02*
X183353158Y-104877608D01*
X168090287Y-98395043D02*
X168832631Y-102605096D01*
X212784009Y-147215991D02*
X220294147Y-139705853D01*
X264159007Y-128905855D02*
X262234002Y-126980850D01*
X227659012Y-100705853D02*
X227659012Y-106880860D01*
X221100009Y-138146852D02*
X224218009Y-138146852D01*
X272009009Y-131280853D02*
X272009009Y-129755851D01*
X268611580Y-161769270D02*
X266872783Y-165674676D01*
X203100008Y-99146853D02*
X206218008Y-99146853D01*
X239100011Y-126146855D02*
X242218011Y-126146855D01*
X187655837Y-138748078D02*
X190974651Y-135189085D01*
X239100006Y-143146853D02*
X235659006Y-139705853D01*
X248934011Y-115155855D02*
X248934011Y-119430855D01*
X203100009Y-133146852D02*
X199659009Y-129705852D01*
X160314257Y-110926723D02*
X156328007Y-108135520D01*
X166176085Y-106399040D02*
X163384883Y-110385288D01*
X227659006Y-117705854D02*
X224218006Y-121146854D01*
X218100008Y-160146851D02*
X221218008Y-160146851D01*
X248934006Y-136430853D02*
X245659006Y-139705853D01*
X242218009Y-109146854D02*
X245659009Y-105705854D01*
X230934012Y-97430853D02*
X227659012Y-100705853D01*
X224218012Y-104146853D02*
X221100012Y-104146853D01*
X190003578Y-107381038D02*
X193390876Y-110539744D01*
X171784654Y-119346830D02*
X169128106Y-123140775D01*
X270704000Y-95228299D02*
X270704000Y-96296000D01*
X244438482Y-159488804D02*
X244278299Y-160242403D01*
X257134000Y-103335000D02*
X257134000Y-100795000D01*
X271159010Y-128905852D02*
X264159010Y-128905852D01*
X272009009Y-129755851D02*
X271159010Y-128905852D01*
X258208703Y-101519852D02*
X258809319Y-101519852D01*
X245659009Y-105705854D02*
X245659009Y-111880853D01*
X258208703Y-104059852D02*
X258809312Y-104059852D01*
X220294147Y-139705853D02*
X235659006Y-139705853D01*
X257134009Y-103334852D02*
X257483705Y-103334853D01*
X235659011Y-122705855D02*
X239100011Y-126146855D01*
X248934009Y-98155854D02*
X252999863Y-94090000D01*
X248934009Y-102430854D02*
X245659009Y-105705854D01*
X227659012Y-106880860D02*
X230934006Y-110155854D01*
X187062546Y-121758434D02*
X183946445Y-121867251D01*
X212934009Y-126430852D02*
X209659009Y-129705852D01*
X221218008Y-160146851D02*
X224659008Y-156705851D01*
X224218006Y-121146854D02*
X221100006Y-121146854D01*
X189788073Y-101209799D02*
X190003578Y-107381038D01*
X197492903Y-110539744D02*
X199659010Y-112705851D01*
X193390876Y-110539744D02*
X197492903Y-110539744D01*
X193390876Y-110539744D02*
X193540071Y-114812140D01*
X249051470Y-153538301D02*
X248322829Y-156966280D01*
X169288923Y-143868750D02*
X172080122Y-139882505D01*
X214659008Y-156705851D02*
X218100008Y-160146851D01*
X269565701Y-94090000D02*
X270704000Y-95228299D01*
X212934008Y-92430853D02*
X209659008Y-95705853D01*
X234496824Y-158163284D02*
X237147208Y-162244518D01*
X173994325Y-131878507D02*
X174736670Y-136088560D01*
X264159010Y-128905852D02*
X264159007Y-128905855D01*
X259304315Y-101024853D02*
X265079006Y-101024850D01*
X266684000Y-98138353D02*
X266684000Y-98255000D01*
X193984167Y-127529388D02*
X194133359Y-131801784D01*
X163266279Y-127668456D02*
X166336905Y-127127022D01*
X221100006Y-121146854D02*
X217659006Y-117705854D01*
X212934010Y-109430851D02*
X209659010Y-112705851D01*
X212934009Y-122155852D02*
X213209008Y-122155852D01*
X190381361Y-118199441D02*
X187062546Y-121758434D01*
X257483705Y-103334853D02*
X258208703Y-104059852D01*
X230934009Y-127155852D02*
X231209014Y-127155852D01*
X227659012Y-100705853D02*
X224218012Y-104146853D01*
X248934009Y-98155854D02*
X248934009Y-102430854D01*
X245659009Y-111880853D02*
X248934011Y-115155855D01*
X166218295Y-144410185D02*
X169288923Y-143868750D01*
X174736670Y-136088560D02*
X172080122Y-139882505D01*
X166176085Y-106399040D02*
X167248361Y-112480226D01*
X240197068Y-162892784D02*
X244278299Y-160242403D01*
X258429000Y-99500000D02*
X265439000Y-99500000D01*
X242218011Y-126146855D02*
X245659011Y-122705855D01*
X173994323Y-131878505D02*
X177321170Y-131878505D01*
X199659010Y-112705851D02*
X203100010Y-116146851D01*
X269920000Y-97080000D02*
X267742353Y-97080000D01*
X257134010Y-100794851D02*
X257483706Y-100794854D01*
X230934006Y-110155854D02*
X230934006Y-114430854D01*
X247303011Y-163267109D02*
X253413402Y-163267109D01*
X212934010Y-105155851D02*
X212934010Y-109430851D01*
X171042308Y-115136776D02*
X171784654Y-119346830D01*
X209659010Y-118880853D02*
X212934009Y-122155852D01*
X168832631Y-102605096D02*
X166176085Y-106399040D01*
X162232046Y-141618983D02*
X166218295Y-144410185D01*
X258005763Y-169078404D02*
X262548854Y-167334475D01*
X257134000Y-100795000D02*
X258429000Y-99500000D01*
X214659008Y-156705851D02*
X212784009Y-154830852D01*
X233039395Y-156705851D02*
X234496827Y-158163283D01*
X235659009Y-105705854D02*
X239100009Y-109146854D01*
X192797587Y-93550101D02*
X192946783Y-97822498D01*
X231209014Y-127155852D02*
X235659011Y-122705855D01*
X193540071Y-114812140D02*
X190381361Y-118199441D01*
X183946445Y-121867251D02*
X180387453Y-118548436D01*
X227934008Y-149155851D02*
X227934008Y-153430851D01*
X230934006Y-114430854D02*
X227659006Y-117705854D01*
X270704000Y-96296000D02*
X269920000Y-97080000D01*
X248322829Y-156966280D02*
X244438482Y-159488804D01*
X209659008Y-101880849D02*
X212934010Y-105155851D01*
X209659009Y-129705852D02*
X206218009Y-133146852D01*
X230934009Y-131430852D02*
X227659009Y-134705852D01*
X242218006Y-143146853D02*
X239100006Y-143146853D01*
X194133359Y-131801784D02*
X190974651Y-135189085D01*
X257483706Y-100794854D02*
X258208703Y-101519852D01*
X259304314Y-103564853D02*
X265079013Y-103564851D01*
X212784009Y-154830852D02*
X212784009Y-147215991D01*
X224659008Y-156705851D02*
X233039395Y-156705851D01*
X163384883Y-110385288D02*
X160314257Y-110926723D01*
X248934011Y-119430855D02*
X245659011Y-122705855D01*
X227934008Y-153430851D02*
X224659008Y-156705851D01*
X265609312Y-97529852D02*
X265008704Y-97529850D01*
X183353158Y-104877608D02*
X179794165Y-101558793D01*
X190381361Y-118199441D02*
X190596865Y-124370680D01*
X169128106Y-123140775D02*
X170200382Y-129221959D01*
X190596865Y-124370680D02*
X193984167Y-127529388D01*
X206218008Y-99146853D02*
X209659008Y-95705853D01*
X258809319Y-101519852D02*
X259304315Y-101024853D01*
X192946783Y-97822498D02*
X189788073Y-101209799D01*
X237147208Y-162244518D02*
X240197068Y-162892784D01*
X221100012Y-104146853D02*
X217659012Y-100705853D01*
X258809312Y-104059852D02*
X259304314Y-103564853D01*
X265008704Y-97529850D02*
X264503703Y-98034852D01*
X203100010Y-116146851D02*
X206218010Y-116146851D01*
X227659006Y-117705854D02*
X227659006Y-123880849D01*
X184539738Y-138856894D02*
X187655837Y-138748078D01*
X245659011Y-128880858D02*
X248934006Y-132155853D01*
X248934006Y-132155853D02*
X248934006Y-136430853D01*
X244278303Y-160242401D02*
X247303011Y-163267109D01*
X170200382Y-129221959D02*
X173994325Y-131878507D01*
X189788073Y-101209799D02*
X186469258Y-104768792D01*
X159280028Y-124877254D02*
X163266279Y-127668456D01*
X245659006Y-139705853D02*
X242218006Y-143146853D01*
X212934008Y-88155853D02*
X212934008Y-92430853D01*
X266872783Y-165674676D02*
X262548854Y-167334475D01*
X180980743Y-135538080D02*
X184539738Y-138856894D01*
X266334315Y-98254852D02*
X265609312Y-97529852D01*
X209659008Y-95705853D02*
X209659008Y-101880849D01*
X255157334Y-167810202D02*
X258005763Y-169078404D01*
X230934009Y-127155852D02*
X230934009Y-131430852D01*
X166336905Y-127127022D02*
X169128106Y-123140775D01*
X199659008Y-95705853D02*
X203100008Y-99146853D01*
X213209008Y-122155852D02*
X217659006Y-117705854D01*
X262234002Y-126980850D02*
X259268007Y-126980850D01*
X206218009Y-133146852D02*
X203100009Y-133146852D01*
X267742353Y-97080000D02*
X266684000Y-98138353D01*
X265439000Y-99500000D02*
X266684000Y-98255000D01*
X239100009Y-109146854D02*
X242218009Y-109146854D01*
X227659006Y-123880849D02*
X230934009Y-127155852D01*
X259268007Y-126980850D02*
X258343007Y-127905850D01*
X252999863Y-94090000D02*
X269565701Y-94090000D01*
X217659009Y-134705852D02*
X221100009Y-138146852D01*
X264503703Y-98034852D02*
X258729010Y-98034851D01*
X245659011Y-122705855D02*
X245659011Y-128880858D01*
X177321170Y-131878505D02*
X180980745Y-135538080D01*
X253413405Y-163267112D02*
X255157334Y-167810202D01*
X209659010Y-112705851D02*
X209659010Y-118880853D01*
X167248361Y-112480226D02*
X171042308Y-115136776D01*
X230934012Y-93155853D02*
X230934012Y-97430853D01*
X212934009Y-122155852D02*
X212934009Y-126430852D01*
X224218009Y-138146852D02*
X227659009Y-134705852D01*
X206218010Y-116146851D02*
X209659010Y-112705851D01*
%TO.N,P15*%
X159459521Y-115097512D02*
X160948553Y-123542238D01*
X160948553Y-123542238D02*
X164568730Y-126077111D01*
X159285752Y-114975837D02*
X159459521Y-115097512D01*
%TO.N,P21*%
X156333731Y-98234105D02*
X156507500Y-98355778D01*
X157996533Y-106800504D02*
X161616708Y-109335378D01*
X156507500Y-98355778D02*
X157996533Y-106800504D01*
%TO.N,P14*%
X182519566Y-125878491D02*
X182818829Y-134448269D01*
X182818829Y-134448269D02*
X186050985Y-137462303D01*
X182364423Y-125733818D02*
X182519566Y-125878491D01*
%TO.N,P18*%
X181926276Y-108888847D02*
X182225538Y-117458625D01*
X182225538Y-117458625D02*
X185457695Y-120472658D01*
X181771132Y-108744174D02*
X181926276Y-108888847D01*
%TO.N,P0*%
X258809314Y-98979854D02*
X259304315Y-98484851D01*
X181332988Y-91899205D02*
X181632253Y-100468981D01*
X258208703Y-98979852D02*
X258809314Y-98979854D01*
X181632253Y-100468981D02*
X184864406Y-103483016D01*
X181177843Y-91754531D02*
X181332988Y-91899205D01*
X259304315Y-98484851D02*
X265079007Y-98484852D01*
X257483704Y-98254853D02*
X258208703Y-98979852D01*
X257134008Y-98254852D02*
X257483704Y-98254853D01*
%TO.N,P19*%
X201534010Y-120105853D02*
X201534010Y-128680853D01*
X201534010Y-128680853D02*
X204659009Y-131805852D01*
X201384009Y-119955852D02*
X201534010Y-120105853D01*
%TO.N,P20*%
X201534011Y-103105852D02*
X201534011Y-111680852D01*
X201534011Y-111680852D02*
X204659010Y-114805851D01*
X201384010Y-102955851D02*
X201534011Y-103105852D01*
%TO.N,P1*%
X258208703Y-96439854D02*
X258809314Y-96439853D01*
X201643501Y-86215346D02*
X201643501Y-94790346D01*
X201643501Y-94790346D02*
X204659008Y-97805853D01*
X201384008Y-85955853D02*
X201643501Y-86215346D01*
X258809314Y-96439853D02*
X259304314Y-95944853D01*
X257483701Y-95714852D02*
X258208703Y-96439854D01*
X259304314Y-95944853D02*
X265079013Y-95944853D01*
X257134008Y-95714851D02*
X257483701Y-95714852D01*
%TO.N,P6*%
X219534010Y-125105853D02*
X219534010Y-133680853D01*
X219384009Y-124955852D02*
X219534010Y-125105853D01*
X219534010Y-133680853D02*
X222659009Y-136805852D01*
%TO.N,P4*%
X219534007Y-116680855D02*
X222659006Y-119805854D01*
X219384006Y-107955854D02*
X219534007Y-108105855D01*
X219534007Y-108105855D02*
X219534007Y-116680855D01*
%TO.N,P2*%
X219643505Y-91215346D02*
X219643505Y-99790346D01*
X219643505Y-99790346D02*
X222659012Y-102805853D01*
X219384012Y-90955853D02*
X219643505Y-91215346D01*
%TO.N,P7*%
X237643499Y-130215346D02*
X237643499Y-138790346D01*
X237643499Y-138790346D02*
X240659006Y-141805853D01*
X237384006Y-129955853D02*
X237643499Y-130215346D01*
%TO.N,P5*%
X237384011Y-112955855D02*
X237534012Y-113105856D01*
X237534012Y-121680856D02*
X240659011Y-124805855D01*
X237534012Y-113105856D02*
X237534012Y-121680856D01*
%TO.N,P3*%
X237534010Y-96105855D02*
X237534010Y-104680855D01*
X237384009Y-95955854D02*
X237534010Y-96105855D01*
X237534010Y-104680855D02*
X240659009Y-107805854D01*
%TO.N,P9*%
X246919149Y-145080851D02*
X254289000Y-137711000D01*
X216384008Y-146955851D02*
X218259008Y-145080851D01*
X218259008Y-145080851D02*
X246919149Y-145080851D01*
X216384008Y-146955851D02*
X216534009Y-147105852D01*
X216534009Y-155680852D02*
X219659008Y-158805851D01*
X254289000Y-137711000D02*
X254289000Y-123655000D01*
X216534009Y-147105852D02*
X216534009Y-155680852D01*
%TO.N,P8*%
X238211268Y-148984992D02*
X238326804Y-149162904D01*
X236543959Y-157550519D02*
X238950947Y-161256957D01*
X238211270Y-148984992D02*
X239405358Y-147790904D01*
X245709096Y-147790904D02*
X255500000Y-138000000D01*
X238326804Y-149162904D02*
X236543959Y-157550519D01*
X255500000Y-138000000D02*
X255500000Y-122326000D01*
X255500000Y-122326000D02*
X254289000Y-121115000D01*
X239405358Y-147790904D02*
X245709096Y-147790904D01*
%TO.N,P10*%
X259030971Y-155259699D02*
X255543201Y-163093357D01*
X255543201Y-163093357D02*
X257126982Y-167219239D01*
X258954950Y-155061661D02*
X259030971Y-155259699D01*
%TO.N,RAW*%
X266334313Y-95714852D02*
X265609314Y-94989854D01*
X265609314Y-94989854D02*
X265008705Y-94989852D01*
X258509000Y-95498308D02*
X258509000Y-95715000D01*
X266684010Y-95714853D02*
X266334313Y-95714852D01*
X267159010Y-143789739D02*
X256500000Y-133130729D01*
X265008705Y-94989852D02*
X264503702Y-95494853D01*
X255210001Y-117210000D02*
X253802299Y-117210000D01*
X267409012Y-144655853D02*
X267159010Y-144905855D01*
X256500000Y-133130729D02*
X256500000Y-118499999D01*
X253000000Y-95342299D02*
X253802299Y-94540000D01*
X257550692Y-94540000D02*
X258509000Y-95498308D01*
X253802299Y-117210000D02*
X253000000Y-116407701D01*
X264503702Y-95494853D02*
X258729007Y-95494854D01*
X267159010Y-144905855D02*
X267159010Y-143789739D01*
X253802299Y-94540000D02*
X257550692Y-94540000D01*
X256500000Y-118499999D02*
X255210001Y-117210000D01*
X253000000Y-116407701D02*
X253000000Y-95342299D01*
X269424009Y-144655853D02*
X267409012Y-144655853D01*
%TO.N,RST*%
X270015701Y-99620000D02*
X267229000Y-99620000D01*
X270704000Y-100308299D02*
X270015701Y-99620000D01*
X263200118Y-128830850D02*
X258092737Y-128830850D01*
X258092737Y-128830850D02*
X257500000Y-128238113D01*
X270015701Y-104510000D02*
X270704000Y-103821701D01*
X267229000Y-99620000D02*
X266684000Y-100165000D01*
X270704000Y-103821701D02*
X270704000Y-100308299D01*
X266684000Y-100165000D02*
X266684000Y-100795000D01*
X270309009Y-131280853D02*
X265650121Y-131280853D01*
X257500000Y-115000000D02*
X267990000Y-104510000D01*
X257500000Y-128238113D02*
X257500000Y-115000000D01*
X264503706Y-100574852D02*
X258729008Y-100574853D01*
X266334313Y-100794852D02*
X265609317Y-100069851D01*
X267990000Y-104510000D02*
X270015701Y-104510000D01*
X266684009Y-100794855D02*
X266334313Y-100794852D01*
X265650121Y-131280853D02*
X263200118Y-128830850D01*
X265609317Y-100069851D02*
X265008705Y-100069851D01*
X265008705Y-100069851D02*
X264503706Y-100574852D01*
%TO.N,VCC*%
X265609316Y-102609854D02*
X265008703Y-102609854D01*
X264503703Y-103114852D02*
X258729009Y-103114852D01*
X265008703Y-102609854D02*
X264503703Y-103114852D01*
X266684009Y-103334852D02*
X266334315Y-103334853D01*
X266334315Y-103334853D02*
X265609316Y-102609854D01*
%TO.N,MCU1_24*%
X254289009Y-95714853D02*
X256409008Y-95714851D01*
%TO.N,MCU1_1*%
X269529009Y-95714852D02*
X267409009Y-95714851D01*
%TO.N,MCU1_23*%
X254289008Y-98254852D02*
X256409011Y-98254853D01*
%TO.N,MCU1_2*%
X269529011Y-98254853D02*
X267409010Y-98254851D01*
%TO.N,MCU1_22*%
X254289011Y-100794851D02*
X256409010Y-100794851D01*
%TO.N,MCU1_3*%
X269529009Y-100794851D02*
X267409009Y-100794853D01*
%TO.N,MCU1_21*%
X254289011Y-103334852D02*
X256409009Y-103334851D01*
%TO.N,MCU1_4*%
X269529008Y-103334853D02*
X267409008Y-103334852D01*
%TO.N,BAT_P*%
X266159007Y-141905852D02*
X257159008Y-132905853D01*
X267159009Y-141905852D02*
X266159007Y-141905852D01*
X267409009Y-141655852D02*
X267159009Y-141905852D01*
X257159008Y-131089849D02*
X258343007Y-129905850D01*
X257159008Y-132905853D02*
X257159008Y-131089849D01*
X269424009Y-141655852D02*
X267409009Y-141655852D01*
%TO.N,JST1_1*%
X259359011Y-127905852D02*
X261159008Y-127905854D01*
%TO.N,JST1_2*%
X259359013Y-129905853D02*
X261159007Y-129905850D01*
%TD*%
M02*
