%TF.GenerationSoftware,KiCad,Pcbnew,8.0.1*%
%TF.CreationDate,2024-05-06T23:29:14+03:00*%
%TF.ProjectId,new_ready_splayer_pcb,6e65775f-7265-4616-9479-5f73706c6179,v1.0.0*%
%TF.SameCoordinates,Original*%
%TF.FileFunction,Legend,Top*%
%TF.FilePolarity,Positive*%
%FSLAX46Y46*%
G04 Gerber Fmt 4.6, Leading zero omitted, Abs format (unit mm)*
G04 Created by KiCad (PCBNEW 8.0.1) date 2024-05-06 23:29:14*
%MOMM*%
%LPD*%
G01*
G04 APERTURE LIST*
%ADD10C,0.150000*%
%ADD11C,0.100000*%
%ADD12C,0.000000*%
%ADD13C,0.120000*%
G04 APERTURE END LIST*
D10*
X259817207Y-101249819D02*
X259483874Y-100773628D01*
X259245779Y-101249819D02*
X259245779Y-100249819D01*
X259245779Y-100249819D02*
X259626731Y-100249819D01*
X259626731Y-100249819D02*
X259721969Y-100297438D01*
X259721969Y-100297438D02*
X259769588Y-100345057D01*
X259769588Y-100345057D02*
X259817207Y-100440295D01*
X259817207Y-100440295D02*
X259817207Y-100583152D01*
X259817207Y-100583152D02*
X259769588Y-100678390D01*
X259769588Y-100678390D02*
X259721969Y-100726009D01*
X259721969Y-100726009D02*
X259626731Y-100773628D01*
X259626731Y-100773628D02*
X259245779Y-100773628D01*
X260198160Y-101202200D02*
X260341017Y-101249819D01*
X260341017Y-101249819D02*
X260579112Y-101249819D01*
X260579112Y-101249819D02*
X260674350Y-101202200D01*
X260674350Y-101202200D02*
X260721969Y-101154580D01*
X260721969Y-101154580D02*
X260769588Y-101059342D01*
X260769588Y-101059342D02*
X260769588Y-100964104D01*
X260769588Y-100964104D02*
X260721969Y-100868866D01*
X260721969Y-100868866D02*
X260674350Y-100821247D01*
X260674350Y-100821247D02*
X260579112Y-100773628D01*
X260579112Y-100773628D02*
X260388636Y-100726009D01*
X260388636Y-100726009D02*
X260293398Y-100678390D01*
X260293398Y-100678390D02*
X260245779Y-100630771D01*
X260245779Y-100630771D02*
X260198160Y-100535533D01*
X260198160Y-100535533D02*
X260198160Y-100440295D01*
X260198160Y-100440295D02*
X260245779Y-100345057D01*
X260245779Y-100345057D02*
X260293398Y-100297438D01*
X260293398Y-100297438D02*
X260388636Y-100249819D01*
X260388636Y-100249819D02*
X260626731Y-100249819D01*
X260626731Y-100249819D02*
X260769588Y-100297438D01*
X261055303Y-100249819D02*
X261626731Y-100249819D01*
X261341017Y-101249819D02*
X261341017Y-100249819D01*
X259769588Y-97757438D02*
X259674350Y-97709819D01*
X259674350Y-97709819D02*
X259531493Y-97709819D01*
X259531493Y-97709819D02*
X259388636Y-97757438D01*
X259388636Y-97757438D02*
X259293398Y-97852676D01*
X259293398Y-97852676D02*
X259245779Y-97947914D01*
X259245779Y-97947914D02*
X259198160Y-98138390D01*
X259198160Y-98138390D02*
X259198160Y-98281247D01*
X259198160Y-98281247D02*
X259245779Y-98471723D01*
X259245779Y-98471723D02*
X259293398Y-98566961D01*
X259293398Y-98566961D02*
X259388636Y-98662200D01*
X259388636Y-98662200D02*
X259531493Y-98709819D01*
X259531493Y-98709819D02*
X259626731Y-98709819D01*
X259626731Y-98709819D02*
X259769588Y-98662200D01*
X259769588Y-98662200D02*
X259817207Y-98614580D01*
X259817207Y-98614580D02*
X259817207Y-98281247D01*
X259817207Y-98281247D02*
X259626731Y-98281247D01*
X260245779Y-98709819D02*
X260245779Y-97709819D01*
X260245779Y-97709819D02*
X260817207Y-98709819D01*
X260817207Y-98709819D02*
X260817207Y-97709819D01*
X261293398Y-98709819D02*
X261293398Y-97709819D01*
X261293398Y-97709819D02*
X261531493Y-97709819D01*
X261531493Y-97709819D02*
X261674350Y-97757438D01*
X261674350Y-97757438D02*
X261769588Y-97852676D01*
X261769588Y-97852676D02*
X261817207Y-97947914D01*
X261817207Y-97947914D02*
X261864826Y-98138390D01*
X261864826Y-98138390D02*
X261864826Y-98281247D01*
X261864826Y-98281247D02*
X261817207Y-98471723D01*
X261817207Y-98471723D02*
X261769588Y-98566961D01*
X261769588Y-98566961D02*
X261674350Y-98662200D01*
X261674350Y-98662200D02*
X261531493Y-98709819D01*
X261531493Y-98709819D02*
X261293398Y-98709819D01*
X265143649Y-111409819D02*
X265143649Y-110409819D01*
X265143649Y-110409819D02*
X265524601Y-110409819D01*
X265524601Y-110409819D02*
X265619839Y-110457438D01*
X265619839Y-110457438D02*
X265667458Y-110505057D01*
X265667458Y-110505057D02*
X265715077Y-110600295D01*
X265715077Y-110600295D02*
X265715077Y-110743152D01*
X265715077Y-110743152D02*
X265667458Y-110838390D01*
X265667458Y-110838390D02*
X265619839Y-110886009D01*
X265619839Y-110886009D02*
X265524601Y-110933628D01*
X265524601Y-110933628D02*
X265143649Y-110933628D01*
X266667458Y-111409819D02*
X266096030Y-111409819D01*
X266381744Y-111409819D02*
X266381744Y-110409819D01*
X266381744Y-110409819D02*
X266286506Y-110552676D01*
X266286506Y-110552676D02*
X266191268Y-110647914D01*
X266191268Y-110647914D02*
X266096030Y-110695533D01*
X267143649Y-111409819D02*
X267334125Y-111409819D01*
X267334125Y-111409819D02*
X267429363Y-111362200D01*
X267429363Y-111362200D02*
X267476982Y-111314580D01*
X267476982Y-111314580D02*
X267572220Y-111171723D01*
X267572220Y-111171723D02*
X267619839Y-110981247D01*
X267619839Y-110981247D02*
X267619839Y-110600295D01*
X267619839Y-110600295D02*
X267572220Y-110505057D01*
X267572220Y-110505057D02*
X267524601Y-110457438D01*
X267524601Y-110457438D02*
X267429363Y-110409819D01*
X267429363Y-110409819D02*
X267238887Y-110409819D01*
X267238887Y-110409819D02*
X267143649Y-110457438D01*
X267143649Y-110457438D02*
X267096030Y-110505057D01*
X267096030Y-110505057D02*
X267048411Y-110600295D01*
X267048411Y-110600295D02*
X267048411Y-110838390D01*
X267048411Y-110838390D02*
X267096030Y-110933628D01*
X267096030Y-110933628D02*
X267143649Y-110981247D01*
X267143649Y-110981247D02*
X267238887Y-111028866D01*
X267238887Y-111028866D02*
X267429363Y-111028866D01*
X267429363Y-111028866D02*
X267524601Y-110981247D01*
X267524601Y-110981247D02*
X267572220Y-110933628D01*
X267572220Y-110933628D02*
X267619839Y-110838390D01*
X256245779Y-121569819D02*
X256245779Y-120569819D01*
X256245779Y-120569819D02*
X256626731Y-120569819D01*
X256626731Y-120569819D02*
X256721969Y-120617438D01*
X256721969Y-120617438D02*
X256769588Y-120665057D01*
X256769588Y-120665057D02*
X256817207Y-120760295D01*
X256817207Y-120760295D02*
X256817207Y-120903152D01*
X256817207Y-120903152D02*
X256769588Y-120998390D01*
X256769588Y-120998390D02*
X256721969Y-121046009D01*
X256721969Y-121046009D02*
X256626731Y-121093628D01*
X256626731Y-121093628D02*
X256245779Y-121093628D01*
X257388636Y-120998390D02*
X257293398Y-120950771D01*
X257293398Y-120950771D02*
X257245779Y-120903152D01*
X257245779Y-120903152D02*
X257198160Y-120807914D01*
X257198160Y-120807914D02*
X257198160Y-120760295D01*
X257198160Y-120760295D02*
X257245779Y-120665057D01*
X257245779Y-120665057D02*
X257293398Y-120617438D01*
X257293398Y-120617438D02*
X257388636Y-120569819D01*
X257388636Y-120569819D02*
X257579112Y-120569819D01*
X257579112Y-120569819D02*
X257674350Y-120617438D01*
X257674350Y-120617438D02*
X257721969Y-120665057D01*
X257721969Y-120665057D02*
X257769588Y-120760295D01*
X257769588Y-120760295D02*
X257769588Y-120807914D01*
X257769588Y-120807914D02*
X257721969Y-120903152D01*
X257721969Y-120903152D02*
X257674350Y-120950771D01*
X257674350Y-120950771D02*
X257579112Y-120998390D01*
X257579112Y-120998390D02*
X257388636Y-120998390D01*
X257388636Y-120998390D02*
X257293398Y-121046009D01*
X257293398Y-121046009D02*
X257245779Y-121093628D01*
X257245779Y-121093628D02*
X257198160Y-121188866D01*
X257198160Y-121188866D02*
X257198160Y-121379342D01*
X257198160Y-121379342D02*
X257245779Y-121474580D01*
X257245779Y-121474580D02*
X257293398Y-121522200D01*
X257293398Y-121522200D02*
X257388636Y-121569819D01*
X257388636Y-121569819D02*
X257579112Y-121569819D01*
X257579112Y-121569819D02*
X257674350Y-121522200D01*
X257674350Y-121522200D02*
X257721969Y-121474580D01*
X257721969Y-121474580D02*
X257769588Y-121379342D01*
X257769588Y-121379342D02*
X257769588Y-121188866D01*
X257769588Y-121188866D02*
X257721969Y-121093628D01*
X257721969Y-121093628D02*
X257674350Y-121046009D01*
X257674350Y-121046009D02*
X257579112Y-120998390D01*
X265143649Y-116489819D02*
X265143649Y-115489819D01*
X265143649Y-115489819D02*
X265524601Y-115489819D01*
X265524601Y-115489819D02*
X265619839Y-115537438D01*
X265619839Y-115537438D02*
X265667458Y-115585057D01*
X265667458Y-115585057D02*
X265715077Y-115680295D01*
X265715077Y-115680295D02*
X265715077Y-115823152D01*
X265715077Y-115823152D02*
X265667458Y-115918390D01*
X265667458Y-115918390D02*
X265619839Y-115966009D01*
X265619839Y-115966009D02*
X265524601Y-116013628D01*
X265524601Y-116013628D02*
X265143649Y-116013628D01*
X266667458Y-116489819D02*
X266096030Y-116489819D01*
X266381744Y-116489819D02*
X266381744Y-115489819D01*
X266381744Y-115489819D02*
X266286506Y-115632676D01*
X266286506Y-115632676D02*
X266191268Y-115727914D01*
X266191268Y-115727914D02*
X266096030Y-115775533D01*
X267572220Y-115489819D02*
X267096030Y-115489819D01*
X267096030Y-115489819D02*
X267048411Y-115966009D01*
X267048411Y-115966009D02*
X267096030Y-115918390D01*
X267096030Y-115918390D02*
X267191268Y-115870771D01*
X267191268Y-115870771D02*
X267429363Y-115870771D01*
X267429363Y-115870771D02*
X267524601Y-115918390D01*
X267524601Y-115918390D02*
X267572220Y-115966009D01*
X267572220Y-115966009D02*
X267619839Y-116061247D01*
X267619839Y-116061247D02*
X267619839Y-116299342D01*
X267619839Y-116299342D02*
X267572220Y-116394580D01*
X267572220Y-116394580D02*
X267524601Y-116442200D01*
X267524601Y-116442200D02*
X267429363Y-116489819D01*
X267429363Y-116489819D02*
X267191268Y-116489819D01*
X267191268Y-116489819D02*
X267096030Y-116442200D01*
X267096030Y-116442200D02*
X267048411Y-116394580D01*
X255170904Y-93624819D02*
X254837571Y-93148628D01*
X254599476Y-93624819D02*
X254599476Y-92624819D01*
X254599476Y-92624819D02*
X254980428Y-92624819D01*
X254980428Y-92624819D02*
X255075666Y-92672438D01*
X255075666Y-92672438D02*
X255123285Y-92720057D01*
X255123285Y-92720057D02*
X255170904Y-92815295D01*
X255170904Y-92815295D02*
X255170904Y-92958152D01*
X255170904Y-92958152D02*
X255123285Y-93053390D01*
X255123285Y-93053390D02*
X255075666Y-93101009D01*
X255075666Y-93101009D02*
X254980428Y-93148628D01*
X254980428Y-93148628D02*
X254599476Y-93148628D01*
X256647095Y-92624819D02*
X256647095Y-93339104D01*
X256647095Y-93339104D02*
X256599476Y-93481961D01*
X256599476Y-93481961D02*
X256504238Y-93577200D01*
X256504238Y-93577200D02*
X256361381Y-93624819D01*
X256361381Y-93624819D02*
X256266143Y-93624819D01*
X257551857Y-92958152D02*
X257551857Y-93624819D01*
X257123286Y-92958152D02*
X257123286Y-93481961D01*
X257123286Y-93481961D02*
X257170905Y-93577200D01*
X257170905Y-93577200D02*
X257266143Y-93624819D01*
X257266143Y-93624819D02*
X257409000Y-93624819D01*
X257409000Y-93624819D02*
X257504238Y-93577200D01*
X257504238Y-93577200D02*
X257551857Y-93529580D01*
X258028048Y-93624819D02*
X258028048Y-92958152D01*
X258028048Y-93053390D02*
X258075667Y-93005771D01*
X258075667Y-93005771D02*
X258170905Y-92958152D01*
X258170905Y-92958152D02*
X258313762Y-92958152D01*
X258313762Y-92958152D02*
X258409000Y-93005771D01*
X258409000Y-93005771D02*
X258456619Y-93101009D01*
X258456619Y-93101009D02*
X258456619Y-93624819D01*
X258456619Y-93101009D02*
X258504238Y-93005771D01*
X258504238Y-93005771D02*
X258599476Y-92958152D01*
X258599476Y-92958152D02*
X258742333Y-92958152D01*
X258742333Y-92958152D02*
X258837572Y-93005771D01*
X258837572Y-93005771D02*
X258885191Y-93101009D01*
X258885191Y-93101009D02*
X258885191Y-93624819D01*
X259361381Y-92958152D02*
X259361381Y-93958152D01*
X259361381Y-93005771D02*
X259456619Y-92958152D01*
X259456619Y-92958152D02*
X259647095Y-92958152D01*
X259647095Y-92958152D02*
X259742333Y-93005771D01*
X259742333Y-93005771D02*
X259789952Y-93053390D01*
X259789952Y-93053390D02*
X259837571Y-93148628D01*
X259837571Y-93148628D02*
X259837571Y-93434342D01*
X259837571Y-93434342D02*
X259789952Y-93529580D01*
X259789952Y-93529580D02*
X259742333Y-93577200D01*
X259742333Y-93577200D02*
X259647095Y-93624819D01*
X259647095Y-93624819D02*
X259456619Y-93624819D01*
X259456619Y-93624819D02*
X259361381Y-93577200D01*
X260647095Y-93577200D02*
X260551857Y-93624819D01*
X260551857Y-93624819D02*
X260361381Y-93624819D01*
X260361381Y-93624819D02*
X260266143Y-93577200D01*
X260266143Y-93577200D02*
X260218524Y-93481961D01*
X260218524Y-93481961D02*
X260218524Y-93101009D01*
X260218524Y-93101009D02*
X260266143Y-93005771D01*
X260266143Y-93005771D02*
X260361381Y-92958152D01*
X260361381Y-92958152D02*
X260551857Y-92958152D01*
X260551857Y-92958152D02*
X260647095Y-93005771D01*
X260647095Y-93005771D02*
X260694714Y-93101009D01*
X260694714Y-93101009D02*
X260694714Y-93196247D01*
X260694714Y-93196247D02*
X260218524Y-93291485D01*
X261123286Y-93624819D02*
X261123286Y-92958152D01*
X261123286Y-93148628D02*
X261170905Y-93053390D01*
X261170905Y-93053390D02*
X261218524Y-93005771D01*
X261218524Y-93005771D02*
X261313762Y-92958152D01*
X261313762Y-92958152D02*
X261409000Y-92958152D01*
X261694715Y-93577200D02*
X261789953Y-93624819D01*
X261789953Y-93624819D02*
X261980429Y-93624819D01*
X261980429Y-93624819D02*
X262075667Y-93577200D01*
X262075667Y-93577200D02*
X262123286Y-93481961D01*
X262123286Y-93481961D02*
X262123286Y-93434342D01*
X262123286Y-93434342D02*
X262075667Y-93339104D01*
X262075667Y-93339104D02*
X261980429Y-93291485D01*
X261980429Y-93291485D02*
X261837572Y-93291485D01*
X261837572Y-93291485D02*
X261742334Y-93243866D01*
X261742334Y-93243866D02*
X261694715Y-93148628D01*
X261694715Y-93148628D02*
X261694715Y-93101009D01*
X261694715Y-93101009D02*
X261742334Y-93005771D01*
X261742334Y-93005771D02*
X261837572Y-92958152D01*
X261837572Y-92958152D02*
X261980429Y-92958152D01*
X261980429Y-92958152D02*
X262075667Y-93005771D01*
X262599477Y-93577200D02*
X262599477Y-93624819D01*
X262599477Y-93624819D02*
X262551858Y-93720057D01*
X262551858Y-93720057D02*
X262504239Y-93767676D01*
X263789953Y-93624819D02*
X263789953Y-92624819D01*
X263789953Y-92624819D02*
X264123286Y-93339104D01*
X264123286Y-93339104D02*
X264456619Y-92624819D01*
X264456619Y-92624819D02*
X264456619Y-93624819D01*
X265504238Y-93529580D02*
X265456619Y-93577200D01*
X265456619Y-93577200D02*
X265313762Y-93624819D01*
X265313762Y-93624819D02*
X265218524Y-93624819D01*
X265218524Y-93624819D02*
X265075667Y-93577200D01*
X265075667Y-93577200D02*
X264980429Y-93481961D01*
X264980429Y-93481961D02*
X264932810Y-93386723D01*
X264932810Y-93386723D02*
X264885191Y-93196247D01*
X264885191Y-93196247D02*
X264885191Y-93053390D01*
X264885191Y-93053390D02*
X264932810Y-92862914D01*
X264932810Y-92862914D02*
X264980429Y-92767676D01*
X264980429Y-92767676D02*
X265075667Y-92672438D01*
X265075667Y-92672438D02*
X265218524Y-92624819D01*
X265218524Y-92624819D02*
X265313762Y-92624819D01*
X265313762Y-92624819D02*
X265456619Y-92672438D01*
X265456619Y-92672438D02*
X265504238Y-92720057D01*
X265932810Y-92624819D02*
X265932810Y-93434342D01*
X265932810Y-93434342D02*
X265980429Y-93529580D01*
X265980429Y-93529580D02*
X266028048Y-93577200D01*
X266028048Y-93577200D02*
X266123286Y-93624819D01*
X266123286Y-93624819D02*
X266313762Y-93624819D01*
X266313762Y-93624819D02*
X266409000Y-93577200D01*
X266409000Y-93577200D02*
X266456619Y-93529580D01*
X266456619Y-93529580D02*
X266504238Y-93434342D01*
X266504238Y-93434342D02*
X266504238Y-92624819D01*
X267742334Y-92624819D02*
X267742334Y-93434342D01*
X267742334Y-93434342D02*
X267789953Y-93529580D01*
X267789953Y-93529580D02*
X267837572Y-93577200D01*
X267837572Y-93577200D02*
X267932810Y-93624819D01*
X267932810Y-93624819D02*
X268123286Y-93624819D01*
X268123286Y-93624819D02*
X268218524Y-93577200D01*
X268218524Y-93577200D02*
X268266143Y-93529580D01*
X268266143Y-93529580D02*
X268313762Y-93434342D01*
X268313762Y-93434342D02*
X268313762Y-92624819D01*
X268789953Y-92958152D02*
X268789953Y-93958152D01*
X268789953Y-93005771D02*
X268885191Y-92958152D01*
X268885191Y-92958152D02*
X269075667Y-92958152D01*
X269075667Y-92958152D02*
X269170905Y-93005771D01*
X269170905Y-93005771D02*
X269218524Y-93053390D01*
X269218524Y-93053390D02*
X269266143Y-93148628D01*
X269266143Y-93148628D02*
X269266143Y-93434342D01*
X269266143Y-93434342D02*
X269218524Y-93529580D01*
X269218524Y-93529580D02*
X269170905Y-93577200D01*
X269170905Y-93577200D02*
X269075667Y-93624819D01*
X269075667Y-93624819D02*
X268885191Y-93624819D01*
X268885191Y-93624819D02*
X268789953Y-93577200D01*
X259102922Y-102789819D02*
X259436255Y-103789819D01*
X259436255Y-103789819D02*
X259769588Y-102789819D01*
X260674350Y-103694580D02*
X260626731Y-103742200D01*
X260626731Y-103742200D02*
X260483874Y-103789819D01*
X260483874Y-103789819D02*
X260388636Y-103789819D01*
X260388636Y-103789819D02*
X260245779Y-103742200D01*
X260245779Y-103742200D02*
X260150541Y-103646961D01*
X260150541Y-103646961D02*
X260102922Y-103551723D01*
X260102922Y-103551723D02*
X260055303Y-103361247D01*
X260055303Y-103361247D02*
X260055303Y-103218390D01*
X260055303Y-103218390D02*
X260102922Y-103027914D01*
X260102922Y-103027914D02*
X260150541Y-102932676D01*
X260150541Y-102932676D02*
X260245779Y-102837438D01*
X260245779Y-102837438D02*
X260388636Y-102789819D01*
X260388636Y-102789819D02*
X260483874Y-102789819D01*
X260483874Y-102789819D02*
X260626731Y-102837438D01*
X260626731Y-102837438D02*
X260674350Y-102885057D01*
X261674350Y-103694580D02*
X261626731Y-103742200D01*
X261626731Y-103742200D02*
X261483874Y-103789819D01*
X261483874Y-103789819D02*
X261388636Y-103789819D01*
X261388636Y-103789819D02*
X261245779Y-103742200D01*
X261245779Y-103742200D02*
X261150541Y-103646961D01*
X261150541Y-103646961D02*
X261102922Y-103551723D01*
X261102922Y-103551723D02*
X261055303Y-103361247D01*
X261055303Y-103361247D02*
X261055303Y-103218390D01*
X261055303Y-103218390D02*
X261102922Y-103027914D01*
X261102922Y-103027914D02*
X261150541Y-102932676D01*
X261150541Y-102932676D02*
X261245779Y-102837438D01*
X261245779Y-102837438D02*
X261388636Y-102789819D01*
X261388636Y-102789819D02*
X261483874Y-102789819D01*
X261483874Y-102789819D02*
X261626731Y-102837438D01*
X261626731Y-102837438D02*
X261674350Y-102885057D01*
X265143649Y-108869819D02*
X265143649Y-107869819D01*
X265143649Y-107869819D02*
X265524601Y-107869819D01*
X265524601Y-107869819D02*
X265619839Y-107917438D01*
X265619839Y-107917438D02*
X265667458Y-107965057D01*
X265667458Y-107965057D02*
X265715077Y-108060295D01*
X265715077Y-108060295D02*
X265715077Y-108203152D01*
X265715077Y-108203152D02*
X265667458Y-108298390D01*
X265667458Y-108298390D02*
X265619839Y-108346009D01*
X265619839Y-108346009D02*
X265524601Y-108393628D01*
X265524601Y-108393628D02*
X265143649Y-108393628D01*
X266096030Y-107965057D02*
X266143649Y-107917438D01*
X266143649Y-107917438D02*
X266238887Y-107869819D01*
X266238887Y-107869819D02*
X266476982Y-107869819D01*
X266476982Y-107869819D02*
X266572220Y-107917438D01*
X266572220Y-107917438D02*
X266619839Y-107965057D01*
X266619839Y-107965057D02*
X266667458Y-108060295D01*
X266667458Y-108060295D02*
X266667458Y-108155533D01*
X266667458Y-108155533D02*
X266619839Y-108298390D01*
X266619839Y-108298390D02*
X266048411Y-108869819D01*
X266048411Y-108869819D02*
X266667458Y-108869819D01*
X267286506Y-107869819D02*
X267381744Y-107869819D01*
X267381744Y-107869819D02*
X267476982Y-107917438D01*
X267476982Y-107917438D02*
X267524601Y-107965057D01*
X267524601Y-107965057D02*
X267572220Y-108060295D01*
X267572220Y-108060295D02*
X267619839Y-108250771D01*
X267619839Y-108250771D02*
X267619839Y-108488866D01*
X267619839Y-108488866D02*
X267572220Y-108679342D01*
X267572220Y-108679342D02*
X267524601Y-108774580D01*
X267524601Y-108774580D02*
X267476982Y-108822200D01*
X267476982Y-108822200D02*
X267381744Y-108869819D01*
X267381744Y-108869819D02*
X267286506Y-108869819D01*
X267286506Y-108869819D02*
X267191268Y-108822200D01*
X267191268Y-108822200D02*
X267143649Y-108774580D01*
X267143649Y-108774580D02*
X267096030Y-108679342D01*
X267096030Y-108679342D02*
X267048411Y-108488866D01*
X267048411Y-108488866D02*
X267048411Y-108250771D01*
X267048411Y-108250771D02*
X267096030Y-108060295D01*
X267096030Y-108060295D02*
X267143649Y-107965057D01*
X267143649Y-107965057D02*
X267191268Y-107917438D01*
X267191268Y-107917438D02*
X267286506Y-107869819D01*
X256245779Y-106329819D02*
X256245779Y-105329819D01*
X256245779Y-105329819D02*
X256626731Y-105329819D01*
X256626731Y-105329819D02*
X256721969Y-105377438D01*
X256721969Y-105377438D02*
X256769588Y-105425057D01*
X256769588Y-105425057D02*
X256817207Y-105520295D01*
X256817207Y-105520295D02*
X256817207Y-105663152D01*
X256817207Y-105663152D02*
X256769588Y-105758390D01*
X256769588Y-105758390D02*
X256721969Y-105806009D01*
X256721969Y-105806009D02*
X256626731Y-105853628D01*
X256626731Y-105853628D02*
X256245779Y-105853628D01*
X257198160Y-105425057D02*
X257245779Y-105377438D01*
X257245779Y-105377438D02*
X257341017Y-105329819D01*
X257341017Y-105329819D02*
X257579112Y-105329819D01*
X257579112Y-105329819D02*
X257674350Y-105377438D01*
X257674350Y-105377438D02*
X257721969Y-105425057D01*
X257721969Y-105425057D02*
X257769588Y-105520295D01*
X257769588Y-105520295D02*
X257769588Y-105615533D01*
X257769588Y-105615533D02*
X257721969Y-105758390D01*
X257721969Y-105758390D02*
X257150541Y-106329819D01*
X257150541Y-106329819D02*
X257769588Y-106329819D01*
X265143649Y-121569819D02*
X265143649Y-120569819D01*
X265143649Y-120569819D02*
X265524601Y-120569819D01*
X265524601Y-120569819D02*
X265619839Y-120617438D01*
X265619839Y-120617438D02*
X265667458Y-120665057D01*
X265667458Y-120665057D02*
X265715077Y-120760295D01*
X265715077Y-120760295D02*
X265715077Y-120903152D01*
X265715077Y-120903152D02*
X265667458Y-120998390D01*
X265667458Y-120998390D02*
X265619839Y-121046009D01*
X265619839Y-121046009D02*
X265524601Y-121093628D01*
X265524601Y-121093628D02*
X265143649Y-121093628D01*
X266667458Y-121569819D02*
X266096030Y-121569819D01*
X266381744Y-121569819D02*
X266381744Y-120569819D01*
X266381744Y-120569819D02*
X266286506Y-120712676D01*
X266286506Y-120712676D02*
X266191268Y-120807914D01*
X266191268Y-120807914D02*
X266096030Y-120855533D01*
X267524601Y-120569819D02*
X267334125Y-120569819D01*
X267334125Y-120569819D02*
X267238887Y-120617438D01*
X267238887Y-120617438D02*
X267191268Y-120665057D01*
X267191268Y-120665057D02*
X267096030Y-120807914D01*
X267096030Y-120807914D02*
X267048411Y-120998390D01*
X267048411Y-120998390D02*
X267048411Y-121379342D01*
X267048411Y-121379342D02*
X267096030Y-121474580D01*
X267096030Y-121474580D02*
X267143649Y-121522200D01*
X267143649Y-121522200D02*
X267238887Y-121569819D01*
X267238887Y-121569819D02*
X267429363Y-121569819D01*
X267429363Y-121569819D02*
X267524601Y-121522200D01*
X267524601Y-121522200D02*
X267572220Y-121474580D01*
X267572220Y-121474580D02*
X267619839Y-121379342D01*
X267619839Y-121379342D02*
X267619839Y-121141247D01*
X267619839Y-121141247D02*
X267572220Y-121046009D01*
X267572220Y-121046009D02*
X267524601Y-120998390D01*
X267524601Y-120998390D02*
X267429363Y-120950771D01*
X267429363Y-120950771D02*
X267238887Y-120950771D01*
X267238887Y-120950771D02*
X267143649Y-120998390D01*
X267143649Y-120998390D02*
X267096030Y-121046009D01*
X267096030Y-121046009D02*
X267048411Y-121141247D01*
X259817207Y-96169819D02*
X259483874Y-95693628D01*
X259245779Y-96169819D02*
X259245779Y-95169819D01*
X259245779Y-95169819D02*
X259626731Y-95169819D01*
X259626731Y-95169819D02*
X259721969Y-95217438D01*
X259721969Y-95217438D02*
X259769588Y-95265057D01*
X259769588Y-95265057D02*
X259817207Y-95360295D01*
X259817207Y-95360295D02*
X259817207Y-95503152D01*
X259817207Y-95503152D02*
X259769588Y-95598390D01*
X259769588Y-95598390D02*
X259721969Y-95646009D01*
X259721969Y-95646009D02*
X259626731Y-95693628D01*
X259626731Y-95693628D02*
X259245779Y-95693628D01*
X260198160Y-95884104D02*
X260674350Y-95884104D01*
X260102922Y-96169819D02*
X260436255Y-95169819D01*
X260436255Y-95169819D02*
X260769588Y-96169819D01*
X261007684Y-95169819D02*
X261245779Y-96169819D01*
X261245779Y-96169819D02*
X261436255Y-95455533D01*
X261436255Y-95455533D02*
X261626731Y-96169819D01*
X261626731Y-96169819D02*
X261864827Y-95169819D01*
X262524601Y-100297438D02*
X262429363Y-100249819D01*
X262429363Y-100249819D02*
X262286506Y-100249819D01*
X262286506Y-100249819D02*
X262143649Y-100297438D01*
X262143649Y-100297438D02*
X262048411Y-100392676D01*
X262048411Y-100392676D02*
X262000792Y-100487914D01*
X262000792Y-100487914D02*
X261953173Y-100678390D01*
X261953173Y-100678390D02*
X261953173Y-100821247D01*
X261953173Y-100821247D02*
X262000792Y-101011723D01*
X262000792Y-101011723D02*
X262048411Y-101106961D01*
X262048411Y-101106961D02*
X262143649Y-101202200D01*
X262143649Y-101202200D02*
X262286506Y-101249819D01*
X262286506Y-101249819D02*
X262381744Y-101249819D01*
X262381744Y-101249819D02*
X262524601Y-101202200D01*
X262524601Y-101202200D02*
X262572220Y-101154580D01*
X262572220Y-101154580D02*
X262572220Y-100821247D01*
X262572220Y-100821247D02*
X262381744Y-100821247D01*
X263000792Y-101249819D02*
X263000792Y-100249819D01*
X263000792Y-100249819D02*
X263572220Y-101249819D01*
X263572220Y-101249819D02*
X263572220Y-100249819D01*
X264048411Y-101249819D02*
X264048411Y-100249819D01*
X264048411Y-100249819D02*
X264286506Y-100249819D01*
X264286506Y-100249819D02*
X264429363Y-100297438D01*
X264429363Y-100297438D02*
X264524601Y-100392676D01*
X264524601Y-100392676D02*
X264572220Y-100487914D01*
X264572220Y-100487914D02*
X264619839Y-100678390D01*
X264619839Y-100678390D02*
X264619839Y-100821247D01*
X264619839Y-100821247D02*
X264572220Y-101011723D01*
X264572220Y-101011723D02*
X264524601Y-101106961D01*
X264524601Y-101106961D02*
X264429363Y-101202200D01*
X264429363Y-101202200D02*
X264286506Y-101249819D01*
X264286506Y-101249819D02*
X264048411Y-101249819D01*
X256245779Y-116489819D02*
X256245779Y-115489819D01*
X256245779Y-115489819D02*
X256626731Y-115489819D01*
X256626731Y-115489819D02*
X256721969Y-115537438D01*
X256721969Y-115537438D02*
X256769588Y-115585057D01*
X256769588Y-115585057D02*
X256817207Y-115680295D01*
X256817207Y-115680295D02*
X256817207Y-115823152D01*
X256817207Y-115823152D02*
X256769588Y-115918390D01*
X256769588Y-115918390D02*
X256721969Y-115966009D01*
X256721969Y-115966009D02*
X256626731Y-116013628D01*
X256626731Y-116013628D02*
X256245779Y-116013628D01*
X257674350Y-115489819D02*
X257483874Y-115489819D01*
X257483874Y-115489819D02*
X257388636Y-115537438D01*
X257388636Y-115537438D02*
X257341017Y-115585057D01*
X257341017Y-115585057D02*
X257245779Y-115727914D01*
X257245779Y-115727914D02*
X257198160Y-115918390D01*
X257198160Y-115918390D02*
X257198160Y-116299342D01*
X257198160Y-116299342D02*
X257245779Y-116394580D01*
X257245779Y-116394580D02*
X257293398Y-116442200D01*
X257293398Y-116442200D02*
X257388636Y-116489819D01*
X257388636Y-116489819D02*
X257579112Y-116489819D01*
X257579112Y-116489819D02*
X257674350Y-116442200D01*
X257674350Y-116442200D02*
X257721969Y-116394580D01*
X257721969Y-116394580D02*
X257769588Y-116299342D01*
X257769588Y-116299342D02*
X257769588Y-116061247D01*
X257769588Y-116061247D02*
X257721969Y-115966009D01*
X257721969Y-115966009D02*
X257674350Y-115918390D01*
X257674350Y-115918390D02*
X257579112Y-115870771D01*
X257579112Y-115870771D02*
X257388636Y-115870771D01*
X257388636Y-115870771D02*
X257293398Y-115918390D01*
X257293398Y-115918390D02*
X257245779Y-115966009D01*
X257245779Y-115966009D02*
X257198160Y-116061247D01*
X263096030Y-98709819D02*
X263096030Y-97709819D01*
X263096030Y-97709819D02*
X263476982Y-97709819D01*
X263476982Y-97709819D02*
X263572220Y-97757438D01*
X263572220Y-97757438D02*
X263619839Y-97805057D01*
X263619839Y-97805057D02*
X263667458Y-97900295D01*
X263667458Y-97900295D02*
X263667458Y-98043152D01*
X263667458Y-98043152D02*
X263619839Y-98138390D01*
X263619839Y-98138390D02*
X263572220Y-98186009D01*
X263572220Y-98186009D02*
X263476982Y-98233628D01*
X263476982Y-98233628D02*
X263096030Y-98233628D01*
X264286506Y-97709819D02*
X264381744Y-97709819D01*
X264381744Y-97709819D02*
X264476982Y-97757438D01*
X264476982Y-97757438D02*
X264524601Y-97805057D01*
X264524601Y-97805057D02*
X264572220Y-97900295D01*
X264572220Y-97900295D02*
X264619839Y-98090771D01*
X264619839Y-98090771D02*
X264619839Y-98328866D01*
X264619839Y-98328866D02*
X264572220Y-98519342D01*
X264572220Y-98519342D02*
X264524601Y-98614580D01*
X264524601Y-98614580D02*
X264476982Y-98662200D01*
X264476982Y-98662200D02*
X264381744Y-98709819D01*
X264381744Y-98709819D02*
X264286506Y-98709819D01*
X264286506Y-98709819D02*
X264191268Y-98662200D01*
X264191268Y-98662200D02*
X264143649Y-98614580D01*
X264143649Y-98614580D02*
X264096030Y-98519342D01*
X264096030Y-98519342D02*
X264048411Y-98328866D01*
X264048411Y-98328866D02*
X264048411Y-98090771D01*
X264048411Y-98090771D02*
X264096030Y-97900295D01*
X264096030Y-97900295D02*
X264143649Y-97805057D01*
X264143649Y-97805057D02*
X264191268Y-97757438D01*
X264191268Y-97757438D02*
X264286506Y-97709819D01*
X265143649Y-119029819D02*
X265143649Y-118029819D01*
X265143649Y-118029819D02*
X265524601Y-118029819D01*
X265524601Y-118029819D02*
X265619839Y-118077438D01*
X265619839Y-118077438D02*
X265667458Y-118125057D01*
X265667458Y-118125057D02*
X265715077Y-118220295D01*
X265715077Y-118220295D02*
X265715077Y-118363152D01*
X265715077Y-118363152D02*
X265667458Y-118458390D01*
X265667458Y-118458390D02*
X265619839Y-118506009D01*
X265619839Y-118506009D02*
X265524601Y-118553628D01*
X265524601Y-118553628D02*
X265143649Y-118553628D01*
X266667458Y-119029819D02*
X266096030Y-119029819D01*
X266381744Y-119029819D02*
X266381744Y-118029819D01*
X266381744Y-118029819D02*
X266286506Y-118172676D01*
X266286506Y-118172676D02*
X266191268Y-118267914D01*
X266191268Y-118267914D02*
X266096030Y-118315533D01*
X267524601Y-118363152D02*
X267524601Y-119029819D01*
X267286506Y-117982200D02*
X267048411Y-118696485D01*
X267048411Y-118696485D02*
X267667458Y-118696485D01*
X262524601Y-102837438D02*
X262429363Y-102789819D01*
X262429363Y-102789819D02*
X262286506Y-102789819D01*
X262286506Y-102789819D02*
X262143649Y-102837438D01*
X262143649Y-102837438D02*
X262048411Y-102932676D01*
X262048411Y-102932676D02*
X262000792Y-103027914D01*
X262000792Y-103027914D02*
X261953173Y-103218390D01*
X261953173Y-103218390D02*
X261953173Y-103361247D01*
X261953173Y-103361247D02*
X262000792Y-103551723D01*
X262000792Y-103551723D02*
X262048411Y-103646961D01*
X262048411Y-103646961D02*
X262143649Y-103742200D01*
X262143649Y-103742200D02*
X262286506Y-103789819D01*
X262286506Y-103789819D02*
X262381744Y-103789819D01*
X262381744Y-103789819D02*
X262524601Y-103742200D01*
X262524601Y-103742200D02*
X262572220Y-103694580D01*
X262572220Y-103694580D02*
X262572220Y-103361247D01*
X262572220Y-103361247D02*
X262381744Y-103361247D01*
X263000792Y-103789819D02*
X263000792Y-102789819D01*
X263000792Y-102789819D02*
X263572220Y-103789819D01*
X263572220Y-103789819D02*
X263572220Y-102789819D01*
X264048411Y-103789819D02*
X264048411Y-102789819D01*
X264048411Y-102789819D02*
X264286506Y-102789819D01*
X264286506Y-102789819D02*
X264429363Y-102837438D01*
X264429363Y-102837438D02*
X264524601Y-102932676D01*
X264524601Y-102932676D02*
X264572220Y-103027914D01*
X264572220Y-103027914D02*
X264619839Y-103218390D01*
X264619839Y-103218390D02*
X264619839Y-103361247D01*
X264619839Y-103361247D02*
X264572220Y-103551723D01*
X264572220Y-103551723D02*
X264524601Y-103646961D01*
X264524601Y-103646961D02*
X264429363Y-103742200D01*
X264429363Y-103742200D02*
X264286506Y-103789819D01*
X264286506Y-103789819D02*
X264048411Y-103789819D01*
X265143649Y-113949819D02*
X265143649Y-112949819D01*
X265143649Y-112949819D02*
X265524601Y-112949819D01*
X265524601Y-112949819D02*
X265619839Y-112997438D01*
X265619839Y-112997438D02*
X265667458Y-113045057D01*
X265667458Y-113045057D02*
X265715077Y-113140295D01*
X265715077Y-113140295D02*
X265715077Y-113283152D01*
X265715077Y-113283152D02*
X265667458Y-113378390D01*
X265667458Y-113378390D02*
X265619839Y-113426009D01*
X265619839Y-113426009D02*
X265524601Y-113473628D01*
X265524601Y-113473628D02*
X265143649Y-113473628D01*
X266667458Y-113949819D02*
X266096030Y-113949819D01*
X266381744Y-113949819D02*
X266381744Y-112949819D01*
X266381744Y-112949819D02*
X266286506Y-113092676D01*
X266286506Y-113092676D02*
X266191268Y-113187914D01*
X266191268Y-113187914D02*
X266096030Y-113235533D01*
X267238887Y-113378390D02*
X267143649Y-113330771D01*
X267143649Y-113330771D02*
X267096030Y-113283152D01*
X267096030Y-113283152D02*
X267048411Y-113187914D01*
X267048411Y-113187914D02*
X267048411Y-113140295D01*
X267048411Y-113140295D02*
X267096030Y-113045057D01*
X267096030Y-113045057D02*
X267143649Y-112997438D01*
X267143649Y-112997438D02*
X267238887Y-112949819D01*
X267238887Y-112949819D02*
X267429363Y-112949819D01*
X267429363Y-112949819D02*
X267524601Y-112997438D01*
X267524601Y-112997438D02*
X267572220Y-113045057D01*
X267572220Y-113045057D02*
X267619839Y-113140295D01*
X267619839Y-113140295D02*
X267619839Y-113187914D01*
X267619839Y-113187914D02*
X267572220Y-113283152D01*
X267572220Y-113283152D02*
X267524601Y-113330771D01*
X267524601Y-113330771D02*
X267429363Y-113378390D01*
X267429363Y-113378390D02*
X267238887Y-113378390D01*
X267238887Y-113378390D02*
X267143649Y-113426009D01*
X267143649Y-113426009D02*
X267096030Y-113473628D01*
X267096030Y-113473628D02*
X267048411Y-113568866D01*
X267048411Y-113568866D02*
X267048411Y-113759342D01*
X267048411Y-113759342D02*
X267096030Y-113854580D01*
X267096030Y-113854580D02*
X267143649Y-113902200D01*
X267143649Y-113902200D02*
X267238887Y-113949819D01*
X267238887Y-113949819D02*
X267429363Y-113949819D01*
X267429363Y-113949819D02*
X267524601Y-113902200D01*
X267524601Y-113902200D02*
X267572220Y-113854580D01*
X267572220Y-113854580D02*
X267619839Y-113759342D01*
X267619839Y-113759342D02*
X267619839Y-113568866D01*
X267619839Y-113568866D02*
X267572220Y-113473628D01*
X267572220Y-113473628D02*
X267524601Y-113426009D01*
X267524601Y-113426009D02*
X267429363Y-113378390D01*
X256245779Y-124109819D02*
X256245779Y-123109819D01*
X256245779Y-123109819D02*
X256626731Y-123109819D01*
X256626731Y-123109819D02*
X256721969Y-123157438D01*
X256721969Y-123157438D02*
X256769588Y-123205057D01*
X256769588Y-123205057D02*
X256817207Y-123300295D01*
X256817207Y-123300295D02*
X256817207Y-123443152D01*
X256817207Y-123443152D02*
X256769588Y-123538390D01*
X256769588Y-123538390D02*
X256721969Y-123586009D01*
X256721969Y-123586009D02*
X256626731Y-123633628D01*
X256626731Y-123633628D02*
X256245779Y-123633628D01*
X257293398Y-124109819D02*
X257483874Y-124109819D01*
X257483874Y-124109819D02*
X257579112Y-124062200D01*
X257579112Y-124062200D02*
X257626731Y-124014580D01*
X257626731Y-124014580D02*
X257721969Y-123871723D01*
X257721969Y-123871723D02*
X257769588Y-123681247D01*
X257769588Y-123681247D02*
X257769588Y-123300295D01*
X257769588Y-123300295D02*
X257721969Y-123205057D01*
X257721969Y-123205057D02*
X257674350Y-123157438D01*
X257674350Y-123157438D02*
X257579112Y-123109819D01*
X257579112Y-123109819D02*
X257388636Y-123109819D01*
X257388636Y-123109819D02*
X257293398Y-123157438D01*
X257293398Y-123157438D02*
X257245779Y-123205057D01*
X257245779Y-123205057D02*
X257198160Y-123300295D01*
X257198160Y-123300295D02*
X257198160Y-123538390D01*
X257198160Y-123538390D02*
X257245779Y-123633628D01*
X257245779Y-123633628D02*
X257293398Y-123681247D01*
X257293398Y-123681247D02*
X257388636Y-123728866D01*
X257388636Y-123728866D02*
X257579112Y-123728866D01*
X257579112Y-123728866D02*
X257674350Y-123681247D01*
X257674350Y-123681247D02*
X257721969Y-123633628D01*
X257721969Y-123633628D02*
X257769588Y-123538390D01*
X256245779Y-111409819D02*
X256245779Y-110409819D01*
X256245779Y-110409819D02*
X256626731Y-110409819D01*
X256626731Y-110409819D02*
X256721969Y-110457438D01*
X256721969Y-110457438D02*
X256769588Y-110505057D01*
X256769588Y-110505057D02*
X256817207Y-110600295D01*
X256817207Y-110600295D02*
X256817207Y-110743152D01*
X256817207Y-110743152D02*
X256769588Y-110838390D01*
X256769588Y-110838390D02*
X256721969Y-110886009D01*
X256721969Y-110886009D02*
X256626731Y-110933628D01*
X256626731Y-110933628D02*
X256245779Y-110933628D01*
X257674350Y-110743152D02*
X257674350Y-111409819D01*
X257436255Y-110362200D02*
X257198160Y-111076485D01*
X257198160Y-111076485D02*
X257817207Y-111076485D01*
X265143649Y-124109819D02*
X265143649Y-123109819D01*
X265143649Y-123109819D02*
X265524601Y-123109819D01*
X265524601Y-123109819D02*
X265619839Y-123157438D01*
X265619839Y-123157438D02*
X265667458Y-123205057D01*
X265667458Y-123205057D02*
X265715077Y-123300295D01*
X265715077Y-123300295D02*
X265715077Y-123443152D01*
X265715077Y-123443152D02*
X265667458Y-123538390D01*
X265667458Y-123538390D02*
X265619839Y-123586009D01*
X265619839Y-123586009D02*
X265524601Y-123633628D01*
X265524601Y-123633628D02*
X265143649Y-123633628D01*
X266667458Y-124109819D02*
X266096030Y-124109819D01*
X266381744Y-124109819D02*
X266381744Y-123109819D01*
X266381744Y-123109819D02*
X266286506Y-123252676D01*
X266286506Y-123252676D02*
X266191268Y-123347914D01*
X266191268Y-123347914D02*
X266096030Y-123395533D01*
X267286506Y-123109819D02*
X267381744Y-123109819D01*
X267381744Y-123109819D02*
X267476982Y-123157438D01*
X267476982Y-123157438D02*
X267524601Y-123205057D01*
X267524601Y-123205057D02*
X267572220Y-123300295D01*
X267572220Y-123300295D02*
X267619839Y-123490771D01*
X267619839Y-123490771D02*
X267619839Y-123728866D01*
X267619839Y-123728866D02*
X267572220Y-123919342D01*
X267572220Y-123919342D02*
X267524601Y-124014580D01*
X267524601Y-124014580D02*
X267476982Y-124062200D01*
X267476982Y-124062200D02*
X267381744Y-124109819D01*
X267381744Y-124109819D02*
X267286506Y-124109819D01*
X267286506Y-124109819D02*
X267191268Y-124062200D01*
X267191268Y-124062200D02*
X267143649Y-124014580D01*
X267143649Y-124014580D02*
X267096030Y-123919342D01*
X267096030Y-123919342D02*
X267048411Y-123728866D01*
X267048411Y-123728866D02*
X267048411Y-123490771D01*
X267048411Y-123490771D02*
X267096030Y-123300295D01*
X267096030Y-123300295D02*
X267143649Y-123205057D01*
X267143649Y-123205057D02*
X267191268Y-123157438D01*
X267191268Y-123157438D02*
X267286506Y-123109819D01*
X256245779Y-108869819D02*
X256245779Y-107869819D01*
X256245779Y-107869819D02*
X256626731Y-107869819D01*
X256626731Y-107869819D02*
X256721969Y-107917438D01*
X256721969Y-107917438D02*
X256769588Y-107965057D01*
X256769588Y-107965057D02*
X256817207Y-108060295D01*
X256817207Y-108060295D02*
X256817207Y-108203152D01*
X256817207Y-108203152D02*
X256769588Y-108298390D01*
X256769588Y-108298390D02*
X256721969Y-108346009D01*
X256721969Y-108346009D02*
X256626731Y-108393628D01*
X256626731Y-108393628D02*
X256245779Y-108393628D01*
X257150541Y-107869819D02*
X257769588Y-107869819D01*
X257769588Y-107869819D02*
X257436255Y-108250771D01*
X257436255Y-108250771D02*
X257579112Y-108250771D01*
X257579112Y-108250771D02*
X257674350Y-108298390D01*
X257674350Y-108298390D02*
X257721969Y-108346009D01*
X257721969Y-108346009D02*
X257769588Y-108441247D01*
X257769588Y-108441247D02*
X257769588Y-108679342D01*
X257769588Y-108679342D02*
X257721969Y-108774580D01*
X257721969Y-108774580D02*
X257674350Y-108822200D01*
X257674350Y-108822200D02*
X257579112Y-108869819D01*
X257579112Y-108869819D02*
X257293398Y-108869819D01*
X257293398Y-108869819D02*
X257198160Y-108822200D01*
X257198160Y-108822200D02*
X257150541Y-108774580D01*
X263096030Y-96169819D02*
X263096030Y-95169819D01*
X263096030Y-95169819D02*
X263476982Y-95169819D01*
X263476982Y-95169819D02*
X263572220Y-95217438D01*
X263572220Y-95217438D02*
X263619839Y-95265057D01*
X263619839Y-95265057D02*
X263667458Y-95360295D01*
X263667458Y-95360295D02*
X263667458Y-95503152D01*
X263667458Y-95503152D02*
X263619839Y-95598390D01*
X263619839Y-95598390D02*
X263572220Y-95646009D01*
X263572220Y-95646009D02*
X263476982Y-95693628D01*
X263476982Y-95693628D02*
X263096030Y-95693628D01*
X264619839Y-96169819D02*
X264048411Y-96169819D01*
X264334125Y-96169819D02*
X264334125Y-95169819D01*
X264334125Y-95169819D02*
X264238887Y-95312676D01*
X264238887Y-95312676D02*
X264143649Y-95407914D01*
X264143649Y-95407914D02*
X264048411Y-95455533D01*
X256245779Y-119029819D02*
X256245779Y-118029819D01*
X256245779Y-118029819D02*
X256626731Y-118029819D01*
X256626731Y-118029819D02*
X256721969Y-118077438D01*
X256721969Y-118077438D02*
X256769588Y-118125057D01*
X256769588Y-118125057D02*
X256817207Y-118220295D01*
X256817207Y-118220295D02*
X256817207Y-118363152D01*
X256817207Y-118363152D02*
X256769588Y-118458390D01*
X256769588Y-118458390D02*
X256721969Y-118506009D01*
X256721969Y-118506009D02*
X256626731Y-118553628D01*
X256626731Y-118553628D02*
X256245779Y-118553628D01*
X257150541Y-118029819D02*
X257817207Y-118029819D01*
X257817207Y-118029819D02*
X257388636Y-119029819D01*
X265143649Y-106329819D02*
X265143649Y-105329819D01*
X265143649Y-105329819D02*
X265524601Y-105329819D01*
X265524601Y-105329819D02*
X265619839Y-105377438D01*
X265619839Y-105377438D02*
X265667458Y-105425057D01*
X265667458Y-105425057D02*
X265715077Y-105520295D01*
X265715077Y-105520295D02*
X265715077Y-105663152D01*
X265715077Y-105663152D02*
X265667458Y-105758390D01*
X265667458Y-105758390D02*
X265619839Y-105806009D01*
X265619839Y-105806009D02*
X265524601Y-105853628D01*
X265524601Y-105853628D02*
X265143649Y-105853628D01*
X266096030Y-105425057D02*
X266143649Y-105377438D01*
X266143649Y-105377438D02*
X266238887Y-105329819D01*
X266238887Y-105329819D02*
X266476982Y-105329819D01*
X266476982Y-105329819D02*
X266572220Y-105377438D01*
X266572220Y-105377438D02*
X266619839Y-105425057D01*
X266619839Y-105425057D02*
X266667458Y-105520295D01*
X266667458Y-105520295D02*
X266667458Y-105615533D01*
X266667458Y-105615533D02*
X266619839Y-105758390D01*
X266619839Y-105758390D02*
X266048411Y-106329819D01*
X266048411Y-106329819D02*
X266667458Y-106329819D01*
X267619839Y-106329819D02*
X267048411Y-106329819D01*
X267334125Y-106329819D02*
X267334125Y-105329819D01*
X267334125Y-105329819D02*
X267238887Y-105472676D01*
X267238887Y-105472676D02*
X267143649Y-105567914D01*
X267143649Y-105567914D02*
X267048411Y-105615533D01*
X256245779Y-113949819D02*
X256245779Y-112949819D01*
X256245779Y-112949819D02*
X256626731Y-112949819D01*
X256626731Y-112949819D02*
X256721969Y-112997438D01*
X256721969Y-112997438D02*
X256769588Y-113045057D01*
X256769588Y-113045057D02*
X256817207Y-113140295D01*
X256817207Y-113140295D02*
X256817207Y-113283152D01*
X256817207Y-113283152D02*
X256769588Y-113378390D01*
X256769588Y-113378390D02*
X256721969Y-113426009D01*
X256721969Y-113426009D02*
X256626731Y-113473628D01*
X256626731Y-113473628D02*
X256245779Y-113473628D01*
X257721969Y-112949819D02*
X257245779Y-112949819D01*
X257245779Y-112949819D02*
X257198160Y-113426009D01*
X257198160Y-113426009D02*
X257245779Y-113378390D01*
X257245779Y-113378390D02*
X257341017Y-113330771D01*
X257341017Y-113330771D02*
X257579112Y-113330771D01*
X257579112Y-113330771D02*
X257674350Y-113378390D01*
X257674350Y-113378390D02*
X257721969Y-113426009D01*
X257721969Y-113426009D02*
X257769588Y-113521247D01*
X257769588Y-113521247D02*
X257769588Y-113759342D01*
X257769588Y-113759342D02*
X257721969Y-113854580D01*
X257721969Y-113854580D02*
X257674350Y-113902200D01*
X257674350Y-113902200D02*
X257579112Y-113949819D01*
X257579112Y-113949819D02*
X257341017Y-113949819D01*
X257341017Y-113949819D02*
X257245779Y-113902200D01*
X257245779Y-113902200D02*
X257198160Y-113854580D01*
X270206628Y-148445669D02*
X270397104Y-148445669D01*
X270397104Y-148445669D02*
X270492342Y-148493288D01*
X270492342Y-148493288D02*
X270587580Y-148588526D01*
X270587580Y-148588526D02*
X270635199Y-148779002D01*
X270635199Y-148779002D02*
X270635199Y-149112335D01*
X270635199Y-149112335D02*
X270587580Y-149302811D01*
X270587580Y-149302811D02*
X270492342Y-149398050D01*
X270492342Y-149398050D02*
X270397104Y-149445669D01*
X270397104Y-149445669D02*
X270206628Y-149445669D01*
X270206628Y-149445669D02*
X270111390Y-149398050D01*
X270111390Y-149398050D02*
X270016152Y-149302811D01*
X270016152Y-149302811D02*
X269968533Y-149112335D01*
X269968533Y-149112335D02*
X269968533Y-148779002D01*
X269968533Y-148779002D02*
X270016152Y-148588526D01*
X270016152Y-148588526D02*
X270111390Y-148493288D01*
X270111390Y-148493288D02*
X270206628Y-148445669D01*
X271397104Y-148921859D02*
X271063771Y-148921859D01*
X271063771Y-149445669D02*
X271063771Y-148445669D01*
X271063771Y-148445669D02*
X271539961Y-148445669D01*
X272254247Y-148921859D02*
X271920914Y-148921859D01*
X271920914Y-149445669D02*
X271920914Y-148445669D01*
X271920914Y-148445669D02*
X272397104Y-148445669D01*
X270539961Y-138275673D02*
X270730437Y-138275673D01*
X270730437Y-138275673D02*
X270825675Y-138323292D01*
X270825675Y-138323292D02*
X270920913Y-138418530D01*
X270920913Y-138418530D02*
X270968532Y-138609006D01*
X270968532Y-138609006D02*
X270968532Y-138942339D01*
X270968532Y-138942339D02*
X270920913Y-139132815D01*
X270920913Y-139132815D02*
X270825675Y-139228054D01*
X270825675Y-139228054D02*
X270730437Y-139275673D01*
X270730437Y-139275673D02*
X270539961Y-139275673D01*
X270539961Y-139275673D02*
X270444723Y-139228054D01*
X270444723Y-139228054D02*
X270349485Y-139132815D01*
X270349485Y-139132815D02*
X270301866Y-138942339D01*
X270301866Y-138942339D02*
X270301866Y-138609006D01*
X270301866Y-138609006D02*
X270349485Y-138418530D01*
X270349485Y-138418530D02*
X270444723Y-138323292D01*
X270444723Y-138323292D02*
X270539961Y-138275673D01*
X271397104Y-139275673D02*
X271397104Y-138275673D01*
X271397104Y-138275673D02*
X271968532Y-139275673D01*
X271968532Y-139275673D02*
X271968532Y-138275673D01*
D11*
%TO.C,RST1*%
X269409010Y-131805853D02*
X269409008Y-131555853D01*
X269409010Y-136005853D02*
X269409009Y-136255853D01*
X269659009Y-131555853D02*
X269409008Y-131555853D01*
X269659009Y-136255853D02*
X269409009Y-136255853D01*
X272659009Y-131555853D02*
X272909009Y-131555853D01*
X272659009Y-136255853D02*
X272909010Y-136255853D01*
X272909008Y-131805853D02*
X272909009Y-131555853D01*
X272909008Y-136005853D02*
X272909010Y-136255853D01*
D12*
%TO.C,G\u002A\u002A\u002A*%
G36*
X185997046Y-146101034D02*
G01*
X185997046Y-146401181D01*
X185896997Y-146401181D01*
X185796947Y-146401181D01*
X185796947Y-146101034D01*
X185796947Y-145800886D01*
X185896997Y-145800886D01*
X185997046Y-145800886D01*
X185997046Y-146101034D01*
G37*
G36*
X189198622Y-146801378D02*
G01*
X189198622Y-147201575D01*
X189098572Y-147201575D01*
X188998523Y-147201575D01*
X188998523Y-146801378D01*
X188998523Y-146401181D01*
X189098572Y-146401181D01*
X189198622Y-146401181D01*
X189198622Y-146801378D01*
G37*
G36*
X190199114Y-146301132D02*
G01*
X190199114Y-146401181D01*
X189898966Y-146401181D01*
X189598818Y-146401181D01*
X189598818Y-146301132D01*
X189598818Y-146201083D01*
X189898966Y-146201083D01*
X190199114Y-146201083D01*
X190199114Y-146301132D01*
G37*
G36*
X191399705Y-147101526D02*
G01*
X191399705Y-147201575D01*
X191199606Y-147201575D01*
X190999508Y-147201575D01*
X190999508Y-147101526D01*
X190999508Y-147001477D01*
X191199606Y-147001477D01*
X191399705Y-147001477D01*
X191399705Y-147101526D01*
G37*
G36*
X192400197Y-146301132D02*
G01*
X192400197Y-146401181D01*
X192100049Y-146401181D01*
X191799902Y-146401181D01*
X191799902Y-146301132D01*
X191799902Y-146201083D01*
X192100049Y-146201083D01*
X192400197Y-146201083D01*
X192400197Y-146301132D01*
G37*
G36*
X193800886Y-146801378D02*
G01*
X193800886Y-147201575D01*
X193700837Y-147201575D01*
X193600788Y-147201575D01*
X193600788Y-146801378D01*
X193600788Y-146401181D01*
X193700837Y-146401181D01*
X193800886Y-146401181D01*
X193800886Y-146801378D01*
G37*
G36*
X195201576Y-142699360D02*
G01*
X195201576Y-142799409D01*
X195101527Y-142799409D01*
X195001477Y-142799409D01*
X195001477Y-142699360D01*
X195001477Y-142599310D01*
X195101527Y-142599310D01*
X195201576Y-142599310D01*
X195201576Y-142699360D01*
G37*
G36*
X195201576Y-146501231D02*
G01*
X195201576Y-146601280D01*
X194901428Y-146601280D01*
X194601280Y-146601280D01*
X194601280Y-146501231D01*
X194601280Y-146401181D01*
X194901428Y-146401181D01*
X195201576Y-146401181D01*
X195201576Y-146501231D01*
G37*
G36*
X196402167Y-147101526D02*
G01*
X196402167Y-147201575D01*
X196202068Y-147201575D01*
X196001970Y-147201575D01*
X196001970Y-147101526D01*
X196001970Y-147001477D01*
X196202068Y-147001477D01*
X196402167Y-147001477D01*
X196402167Y-147101526D01*
G37*
G36*
X197002462Y-145900935D02*
G01*
X197002462Y-146000984D01*
X196902413Y-146000984D01*
X196802364Y-146000984D01*
X196802364Y-145900935D01*
X196802364Y-145800886D01*
X196902413Y-145800886D01*
X197002462Y-145800886D01*
X197002462Y-145900935D01*
G37*
G36*
X197402659Y-142899458D02*
G01*
X197402659Y-142999507D01*
X197202560Y-142999507D01*
X197002462Y-142999507D01*
X197002462Y-142899458D01*
X197002462Y-142799409D01*
X197202560Y-142799409D01*
X197402659Y-142799409D01*
X197402659Y-142899458D01*
G37*
G36*
X198002954Y-147101526D02*
G01*
X198002954Y-147201575D01*
X197702807Y-147201575D01*
X197402659Y-147201575D01*
X197402659Y-147101526D01*
X197402659Y-147001477D01*
X197702807Y-147001477D01*
X198002954Y-147001477D01*
X198002954Y-147101526D01*
G37*
G36*
X200404136Y-147101526D02*
G01*
X200404136Y-147201575D01*
X200103988Y-147201575D01*
X199803841Y-147201575D01*
X199803841Y-147101526D01*
X199803841Y-147001477D01*
X200103988Y-147001477D01*
X200404136Y-147001477D01*
X200404136Y-147101526D01*
G37*
G36*
X201004431Y-146401181D02*
G01*
X201004431Y-147001477D01*
X200904382Y-147001477D01*
X200804333Y-147001477D01*
X200804333Y-146401181D01*
X200804333Y-145800886D01*
X200904382Y-145800886D01*
X201004431Y-145800886D01*
X201004431Y-146401181D01*
G37*
G36*
X201204530Y-147101526D02*
G01*
X201204530Y-147201575D01*
X201104481Y-147201575D01*
X201004431Y-147201575D01*
X201004431Y-147101526D01*
X201004431Y-147001477D01*
X201104481Y-147001477D01*
X201204530Y-147001477D01*
X201204530Y-147101526D01*
G37*
G36*
X197002462Y-146701329D02*
G01*
X197002462Y-147201575D01*
X196902413Y-147201575D01*
X196802364Y-147201575D01*
X196802364Y-146801378D01*
X196802364Y-146401181D01*
X196702314Y-146401181D01*
X196602265Y-146401181D01*
X196602265Y-146301132D01*
X196602265Y-146201083D01*
X196802364Y-146201083D01*
X197002462Y-146201083D01*
X197002462Y-146701329D01*
G37*
G36*
X198803348Y-142099064D02*
G01*
X198803348Y-142399212D01*
X198603250Y-142399212D01*
X198403151Y-142399212D01*
X198403151Y-142299163D01*
X198403151Y-142199113D01*
X198503201Y-142199113D01*
X198603250Y-142199113D01*
X198603250Y-141999015D01*
X198603250Y-141798916D01*
X198703299Y-141798916D01*
X198803348Y-141798916D01*
X198803348Y-142099064D01*
G37*
G36*
X186197144Y-142899458D02*
G01*
X186197144Y-143599803D01*
X186297194Y-143599803D01*
X186397243Y-143599803D01*
X186397243Y-143699852D01*
X186397243Y-143799901D01*
X186197144Y-143799901D01*
X185997046Y-143799901D01*
X185997046Y-143699852D01*
X185997046Y-143599803D01*
X185896997Y-143599803D01*
X185796947Y-143599803D01*
X185796947Y-142899458D01*
X185796947Y-142199113D01*
X185997046Y-142199113D01*
X186197144Y-142199113D01*
X186197144Y-142899458D01*
G37*
G36*
X195401674Y-142099064D02*
G01*
X195401674Y-142199113D01*
X195201576Y-142199113D01*
X195001477Y-142199113D01*
X195001477Y-142399212D01*
X195001477Y-142599310D01*
X194901428Y-142599310D01*
X194801379Y-142599310D01*
X194801379Y-142399212D01*
X194801379Y-142199113D01*
X194901428Y-142199113D01*
X195001477Y-142199113D01*
X195001477Y-142099064D01*
X195001477Y-141999015D01*
X195201576Y-141999015D01*
X195401674Y-141999015D01*
X195401674Y-142099064D01*
G37*
G36*
X195401674Y-145900935D02*
G01*
X195401674Y-146000984D01*
X195001477Y-146000984D01*
X194601280Y-146000984D01*
X194601280Y-146201083D01*
X194601280Y-146401181D01*
X194501231Y-146401181D01*
X194401182Y-146401181D01*
X194401182Y-146201083D01*
X194401182Y-146000984D01*
X194501231Y-146000984D01*
X194601280Y-146000984D01*
X194601280Y-145900935D01*
X194601280Y-145800886D01*
X195001477Y-145800886D01*
X195401674Y-145800886D01*
X195401674Y-145900935D01*
G37*
G36*
X195401674Y-146801378D02*
G01*
X195401674Y-147001477D01*
X195301625Y-147001477D01*
X195201576Y-147001477D01*
X195201576Y-147101526D01*
X195201576Y-147201575D01*
X194801379Y-147201575D01*
X194401182Y-147201575D01*
X194401182Y-147101526D01*
X194401182Y-147001477D01*
X194801379Y-147001477D01*
X195201576Y-147001477D01*
X195201576Y-146801378D01*
X195201576Y-146601280D01*
X195301625Y-146601280D01*
X195401674Y-146601280D01*
X195401674Y-146801378D01*
G37*
G36*
X197602757Y-143399704D02*
G01*
X197602757Y-143599803D01*
X197702807Y-143599803D01*
X197802856Y-143599803D01*
X197802856Y-143899950D01*
X197802856Y-144200098D01*
X197902905Y-144200098D01*
X198002954Y-144200098D01*
X198002954Y-144300147D01*
X198002954Y-144400197D01*
X197702807Y-144400197D01*
X197402659Y-144400197D01*
X197402659Y-143799901D01*
X197402659Y-143199606D01*
X197502708Y-143199606D01*
X197602757Y-143199606D01*
X197602757Y-143399704D01*
G37*
G36*
X198403151Y-143099557D02*
G01*
X198403151Y-143199606D01*
X198603250Y-143199606D01*
X198803348Y-143199606D01*
X198803348Y-143299655D01*
X198803348Y-143399704D01*
X198403151Y-143399704D01*
X198002954Y-143399704D01*
X198002954Y-143299655D01*
X198002954Y-143199606D01*
X198103004Y-143199606D01*
X198203053Y-143199606D01*
X198203053Y-143099557D01*
X198203053Y-142999507D01*
X198303102Y-142999507D01*
X198403151Y-142999507D01*
X198403151Y-143099557D01*
G37*
G36*
X199003447Y-142499261D02*
G01*
X199003447Y-142599310D01*
X198903398Y-142599310D01*
X198803348Y-142599310D01*
X198803348Y-142699360D01*
X198803348Y-142799409D01*
X198703299Y-142799409D01*
X198603250Y-142799409D01*
X198603250Y-142699360D01*
X198603250Y-142599310D01*
X198703299Y-142599310D01*
X198803348Y-142599310D01*
X198803348Y-142499261D01*
X198803348Y-142399212D01*
X198903398Y-142399212D01*
X199003447Y-142399212D01*
X199003447Y-142499261D01*
G37*
G36*
X188398228Y-146301132D02*
G01*
X188398228Y-146401181D01*
X188498277Y-146401181D01*
X188598326Y-146401181D01*
X188598326Y-146301132D01*
X188598326Y-146201083D01*
X188798425Y-146201083D01*
X188998523Y-146201083D01*
X188998523Y-146301132D01*
X188998523Y-146401181D01*
X188798425Y-146401181D01*
X188598326Y-146401181D01*
X188598326Y-146501231D01*
X188598326Y-146601280D01*
X188498277Y-146601280D01*
X188398228Y-146601280D01*
X188398228Y-146901428D01*
X188398228Y-147201575D01*
X188298178Y-147201575D01*
X188198129Y-147201575D01*
X188198129Y-146701329D01*
X188198129Y-146201083D01*
X188298178Y-146201083D01*
X188398228Y-146201083D01*
X188398228Y-146301132D01*
G37*
G36*
X190999508Y-146000984D02*
G01*
X190999508Y-146201083D01*
X191199606Y-146201083D01*
X191399705Y-146201083D01*
X191399705Y-146301132D01*
X191399705Y-146401181D01*
X191199606Y-146401181D01*
X190999508Y-146401181D01*
X190999508Y-146701329D01*
X190999508Y-147001477D01*
X190899459Y-147001477D01*
X190799409Y-147001477D01*
X190799409Y-146701329D01*
X190799409Y-146401181D01*
X190699360Y-146401181D01*
X190599311Y-146401181D01*
X190599311Y-146301132D01*
X190599311Y-146201083D01*
X190699360Y-146201083D01*
X190799409Y-146201083D01*
X190799409Y-146000984D01*
X190799409Y-145800886D01*
X190899459Y-145800886D01*
X190999508Y-145800886D01*
X190999508Y-146000984D01*
G37*
G36*
X191599803Y-142699360D02*
G01*
X191599803Y-142799409D01*
X191699852Y-142799409D01*
X191799902Y-142799409D01*
X191799902Y-142999507D01*
X191799902Y-143199606D01*
X191599803Y-143199606D01*
X191399705Y-143199606D01*
X191399705Y-143099557D01*
X191399705Y-142999507D01*
X191299656Y-142999507D01*
X191199606Y-142999507D01*
X191199606Y-143399704D01*
X191199606Y-143799901D01*
X190999508Y-143799901D01*
X190799409Y-143799901D01*
X190799409Y-143299655D01*
X190799409Y-142799409D01*
X190899459Y-142799409D01*
X190999508Y-142799409D01*
X190999508Y-142699360D01*
X190999508Y-142599310D01*
X191299656Y-142599310D01*
X191599803Y-142599310D01*
X191599803Y-142699360D01*
G37*
G36*
X193000493Y-146301132D02*
G01*
X193000493Y-146401181D01*
X193100542Y-146401181D01*
X193200591Y-146401181D01*
X193200591Y-146301132D01*
X193200591Y-146201083D01*
X193400689Y-146201083D01*
X193600788Y-146201083D01*
X193600788Y-146301132D01*
X193600788Y-146401181D01*
X193400689Y-146401181D01*
X193200591Y-146401181D01*
X193200591Y-146501231D01*
X193200591Y-146601280D01*
X193100542Y-146601280D01*
X193000493Y-146601280D01*
X193000493Y-146901428D01*
X193000493Y-147201575D01*
X192900443Y-147201575D01*
X192800394Y-147201575D01*
X192800394Y-146701329D01*
X192800394Y-146201083D01*
X192900443Y-146201083D01*
X193000493Y-146201083D01*
X193000493Y-146301132D01*
G37*
G36*
X196001970Y-146000984D02*
G01*
X196001970Y-146201083D01*
X196202068Y-146201083D01*
X196402167Y-146201083D01*
X196402167Y-146301132D01*
X196402167Y-146401181D01*
X196202068Y-146401181D01*
X196001970Y-146401181D01*
X196001970Y-146701329D01*
X196001970Y-147001477D01*
X195901920Y-147001477D01*
X195801871Y-147001477D01*
X195801871Y-146701329D01*
X195801871Y-146401181D01*
X195701822Y-146401181D01*
X195601773Y-146401181D01*
X195601773Y-146301132D01*
X195601773Y-146201083D01*
X195701822Y-146201083D01*
X195801871Y-146201083D01*
X195801871Y-146000984D01*
X195801871Y-145800886D01*
X195901920Y-145800886D01*
X196001970Y-145800886D01*
X196001970Y-146000984D01*
G37*
G36*
X197602757Y-141598818D02*
G01*
X197602757Y-141798916D01*
X197502708Y-141798916D01*
X197402659Y-141798916D01*
X197402659Y-141999015D01*
X197402659Y-142199113D01*
X197202560Y-142199113D01*
X197002462Y-142199113D01*
X197002462Y-142099064D01*
X197002462Y-141999015D01*
X197102511Y-141999015D01*
X197202560Y-141999015D01*
X197202560Y-141898966D01*
X197202560Y-141798916D01*
X196902413Y-141798916D01*
X196602265Y-141798916D01*
X196602265Y-141698867D01*
X196602265Y-141598818D01*
X196702314Y-141598818D01*
X196802364Y-141598818D01*
X196802364Y-141498769D01*
X196802364Y-141398720D01*
X197202560Y-141398720D01*
X197602757Y-141398720D01*
X197602757Y-141598818D01*
G37*
G36*
X190399212Y-146801378D02*
G01*
X190399212Y-147201575D01*
X189999015Y-147201575D01*
X189598818Y-147201575D01*
X189598818Y-147101526D01*
X189598818Y-147001477D01*
X189498769Y-147001477D01*
X189398720Y-147001477D01*
X189398720Y-146901428D01*
X189398720Y-146801378D01*
X189498769Y-146801378D01*
X189598818Y-146801378D01*
X189598818Y-146901428D01*
X189598818Y-147001477D01*
X189898966Y-147001477D01*
X190199114Y-147001477D01*
X190199114Y-146901428D01*
X190199114Y-146801378D01*
X189898966Y-146801378D01*
X189598818Y-146801378D01*
X189598818Y-146701329D01*
X189598818Y-146601280D01*
X189898966Y-146601280D01*
X190199114Y-146601280D01*
X190199114Y-146501231D01*
X190199114Y-146401181D01*
X190299163Y-146401181D01*
X190399212Y-146401181D01*
X190399212Y-146801378D01*
G37*
G36*
X192600296Y-146801378D02*
G01*
X192600296Y-147201575D01*
X192200099Y-147201575D01*
X191799902Y-147201575D01*
X191799902Y-147101526D01*
X191799902Y-147001477D01*
X191699852Y-147001477D01*
X191599803Y-147001477D01*
X191599803Y-146901428D01*
X191599803Y-146801378D01*
X191699852Y-146801378D01*
X191799902Y-146801378D01*
X191799902Y-146901428D01*
X191799902Y-147001477D01*
X192100049Y-147001477D01*
X192400197Y-147001477D01*
X192400197Y-146901428D01*
X192400197Y-146801378D01*
X192100049Y-146801378D01*
X191799902Y-146801378D01*
X191799902Y-146701329D01*
X191799902Y-146601280D01*
X192100049Y-146601280D01*
X192400197Y-146601280D01*
X192400197Y-146501231D01*
X192400197Y-146401181D01*
X192500246Y-146401181D01*
X192600296Y-146401181D01*
X192600296Y-146801378D01*
G37*
G36*
X193000493Y-142799409D02*
G01*
X193000493Y-143399704D01*
X193200591Y-143399704D01*
X193400689Y-143399704D01*
X193400689Y-143599803D01*
X193400689Y-143799901D01*
X192800394Y-143799901D01*
X192200099Y-143799901D01*
X192200099Y-143599803D01*
X192200099Y-143399704D01*
X192400197Y-143399704D01*
X192600296Y-143399704D01*
X192600296Y-143099557D01*
X192600296Y-142799409D01*
X192400197Y-142799409D01*
X192200099Y-142799409D01*
X192200099Y-142699360D01*
X192200099Y-142599310D01*
X192300148Y-142599310D01*
X192400197Y-142599310D01*
X192400197Y-142499261D01*
X192400197Y-142399212D01*
X192500246Y-142399212D01*
X192600296Y-142399212D01*
X192600296Y-142299163D01*
X192600296Y-142199113D01*
X192800394Y-142199113D01*
X193000493Y-142199113D01*
X193000493Y-142799409D01*
G37*
G36*
X198002954Y-146301132D02*
G01*
X198002954Y-146401181D01*
X197702807Y-146401181D01*
X197402659Y-146401181D01*
X197402659Y-146501231D01*
X197402659Y-146601280D01*
X197702807Y-146601280D01*
X198002954Y-146601280D01*
X198002954Y-146501231D01*
X198002954Y-146401181D01*
X198103004Y-146401181D01*
X198203053Y-146401181D01*
X198203053Y-146601280D01*
X198203053Y-146801378D01*
X197802856Y-146801378D01*
X197402659Y-146801378D01*
X197402659Y-146901428D01*
X197402659Y-147001477D01*
X197302610Y-147001477D01*
X197202560Y-147001477D01*
X197202560Y-146701329D01*
X197202560Y-146401181D01*
X197302610Y-146401181D01*
X197402659Y-146401181D01*
X197402659Y-146301132D01*
X197402659Y-146201083D01*
X197702807Y-146201083D01*
X198002954Y-146201083D01*
X198002954Y-146301132D01*
G37*
G36*
X198603250Y-146000984D02*
G01*
X198603250Y-146201083D01*
X198903398Y-146201083D01*
X199203545Y-146201083D01*
X199203545Y-146301132D01*
X199203545Y-146401181D01*
X198903398Y-146401181D01*
X198603250Y-146401181D01*
X198603250Y-146701329D01*
X198603250Y-147001477D01*
X198903398Y-147001477D01*
X199203545Y-147001477D01*
X199203545Y-146701329D01*
X199203545Y-146401181D01*
X199303594Y-146401181D01*
X199403644Y-146401181D01*
X199403644Y-146701329D01*
X199403644Y-147001477D01*
X199303594Y-147001477D01*
X199203545Y-147001477D01*
X199203545Y-147101526D01*
X199203545Y-147201575D01*
X198803348Y-147201575D01*
X198403151Y-147201575D01*
X198403151Y-146501231D01*
X198403151Y-145800886D01*
X198503201Y-145800886D01*
X198603250Y-145800886D01*
X198603250Y-146000984D01*
G37*
G36*
X200404136Y-146301132D02*
G01*
X200404136Y-146401181D01*
X200103988Y-146401181D01*
X199803841Y-146401181D01*
X199803841Y-146501231D01*
X199803841Y-146601280D01*
X200103988Y-146601280D01*
X200404136Y-146601280D01*
X200404136Y-146501231D01*
X200404136Y-146401181D01*
X200504185Y-146401181D01*
X200604235Y-146401181D01*
X200604235Y-146601280D01*
X200604235Y-146801378D01*
X200204038Y-146801378D01*
X199803841Y-146801378D01*
X199803841Y-146901428D01*
X199803841Y-147001477D01*
X199703791Y-147001477D01*
X199603742Y-147001477D01*
X199603742Y-146701329D01*
X199603742Y-146401181D01*
X199703791Y-146401181D01*
X199803841Y-146401181D01*
X199803841Y-146301132D01*
X199803841Y-146201083D01*
X200103988Y-146201083D01*
X200404136Y-146201083D01*
X200404136Y-146301132D01*
G37*
G36*
X185396751Y-142699360D02*
G01*
X185396751Y-142799409D01*
X185496800Y-142799409D01*
X185596849Y-142799409D01*
X185596849Y-143099557D01*
X185596849Y-143399704D01*
X185496800Y-143399704D01*
X185396751Y-143399704D01*
X185396751Y-143499754D01*
X185396751Y-143599803D01*
X185096603Y-143599803D01*
X184796455Y-143599803D01*
X184796455Y-143899950D01*
X184796455Y-144200098D01*
X184596357Y-144200098D01*
X184396258Y-144200098D01*
X184396258Y-143399704D01*
X184396258Y-142999507D01*
X184796455Y-142999507D01*
X184796455Y-143099557D01*
X184796455Y-143199606D01*
X184996554Y-143199606D01*
X185196652Y-143199606D01*
X185196652Y-143099557D01*
X185196652Y-142999507D01*
X184996554Y-142999507D01*
X184796455Y-142999507D01*
X184396258Y-142999507D01*
X184396258Y-142599310D01*
X184896504Y-142599310D01*
X185396751Y-142599310D01*
X185396751Y-142699360D01*
G37*
G36*
X184396258Y-146601280D02*
G01*
X184396258Y-147001477D01*
X184696406Y-147001477D01*
X184996554Y-147001477D01*
X184996554Y-146601280D01*
X184996554Y-146201083D01*
X185096603Y-146201083D01*
X185196652Y-146201083D01*
X185196652Y-146801378D01*
X185196652Y-147401674D01*
X185096603Y-147401674D01*
X184996554Y-147401674D01*
X184996554Y-147501723D01*
X184996554Y-147601772D01*
X184696406Y-147601772D01*
X184396258Y-147601772D01*
X184396258Y-147501723D01*
X184396258Y-147401674D01*
X184696406Y-147401674D01*
X184996554Y-147401674D01*
X184996554Y-147301625D01*
X184996554Y-147201575D01*
X184696406Y-147201575D01*
X184396258Y-147201575D01*
X184396258Y-147101526D01*
X184396258Y-147001477D01*
X184296209Y-147001477D01*
X184196160Y-147001477D01*
X184196160Y-146601280D01*
X184196160Y-146201083D01*
X184296209Y-146201083D01*
X184396258Y-146201083D01*
X184396258Y-146601280D01*
G37*
G36*
X186797440Y-146101034D02*
G01*
X186797440Y-146401181D01*
X186697391Y-146401181D01*
X186597341Y-146401181D01*
X186597341Y-146501231D01*
X186597341Y-146601280D01*
X186497292Y-146601280D01*
X186397243Y-146601280D01*
X186397243Y-146901428D01*
X186397243Y-147201575D01*
X186297194Y-147201575D01*
X186197144Y-147201575D01*
X186197144Y-146901428D01*
X186197144Y-146601280D01*
X186097095Y-146601280D01*
X185997046Y-146601280D01*
X185997046Y-146501231D01*
X185997046Y-146401181D01*
X186097095Y-146401181D01*
X186197144Y-146401181D01*
X186197144Y-146501231D01*
X186197144Y-146601280D01*
X186297194Y-146601280D01*
X186397243Y-146601280D01*
X186397243Y-146501231D01*
X186397243Y-146401181D01*
X186497292Y-146401181D01*
X186597341Y-146401181D01*
X186597341Y-146101034D01*
X186597341Y-145800886D01*
X186697391Y-145800886D01*
X186797440Y-145800886D01*
X186797440Y-146101034D01*
G37*
G36*
X187797932Y-146301132D02*
G01*
X187797932Y-146401181D01*
X187497785Y-146401181D01*
X187197637Y-146401181D01*
X187197637Y-146701329D01*
X187197637Y-147001477D01*
X187497785Y-147001477D01*
X187797932Y-147001477D01*
X187797932Y-146701329D01*
X187797932Y-146401181D01*
X187897981Y-146401181D01*
X187998031Y-146401181D01*
X187998031Y-146701329D01*
X187998031Y-147001477D01*
X187897981Y-147001477D01*
X187797932Y-147001477D01*
X187797932Y-147101526D01*
X187797932Y-147201575D01*
X187497785Y-147201575D01*
X187197637Y-147201575D01*
X187197637Y-147101526D01*
X187197637Y-147001477D01*
X187097588Y-147001477D01*
X186997538Y-147001477D01*
X186997538Y-146701329D01*
X186997538Y-146401181D01*
X187097588Y-146401181D01*
X187197637Y-146401181D01*
X187197637Y-146301132D01*
X187197637Y-146201083D01*
X187497785Y-146201083D01*
X187797932Y-146201083D01*
X187797932Y-146301132D01*
G37*
G36*
X188398228Y-142899458D02*
G01*
X188398228Y-143199606D01*
X188598326Y-143199606D01*
X188798425Y-143199606D01*
X188798425Y-142899458D01*
X188798425Y-142599310D01*
X188998523Y-142599310D01*
X189198622Y-142599310D01*
X189198622Y-143299655D01*
X189198622Y-144000000D01*
X189098572Y-144000000D01*
X188998523Y-144000000D01*
X188998523Y-144100049D01*
X188998523Y-144200098D01*
X188498277Y-144200098D01*
X187998031Y-144200098D01*
X187998031Y-144000000D01*
X187998031Y-143799901D01*
X188398228Y-143799901D01*
X188798425Y-143799901D01*
X188798425Y-143699852D01*
X188798425Y-143599803D01*
X188498277Y-143599803D01*
X188198129Y-143599803D01*
X188198129Y-143499754D01*
X188198129Y-143399704D01*
X188098080Y-143399704D01*
X187998031Y-143399704D01*
X187998031Y-142999507D01*
X187998031Y-142599310D01*
X188198129Y-142599310D01*
X188398228Y-142599310D01*
X188398228Y-142899458D01*
G37*
G36*
X195601773Y-142599310D02*
G01*
X195601773Y-142999507D01*
X195501723Y-142999507D01*
X195401674Y-142999507D01*
X195401674Y-143099557D01*
X195401674Y-143199606D01*
X195601773Y-143199606D01*
X195801871Y-143199606D01*
X195801871Y-143299655D01*
X195801871Y-143399704D01*
X195701822Y-143399704D01*
X195601773Y-143399704D01*
X195601773Y-143499754D01*
X195601773Y-143599803D01*
X195501723Y-143599803D01*
X195401674Y-143599803D01*
X195401674Y-144000000D01*
X195401674Y-144400197D01*
X195301625Y-144400197D01*
X195201576Y-144400197D01*
X195201576Y-144000000D01*
X195201576Y-143599803D01*
X195101527Y-143599803D01*
X195001477Y-143599803D01*
X195001477Y-143399704D01*
X195001477Y-143199606D01*
X195101527Y-143199606D01*
X195201576Y-143199606D01*
X195201576Y-143099557D01*
X195201576Y-142999507D01*
X195301625Y-142999507D01*
X195401674Y-142999507D01*
X195401674Y-142599310D01*
X195401674Y-142199113D01*
X195501723Y-142199113D01*
X195601773Y-142199113D01*
X195601773Y-142599310D01*
G37*
G36*
X183795963Y-145900935D02*
G01*
X183795963Y-146000984D01*
X183495815Y-146000984D01*
X183195667Y-146000984D01*
X183195667Y-146101034D01*
X183195667Y-146201083D01*
X183495815Y-146201083D01*
X183795963Y-146201083D01*
X183795963Y-146101034D01*
X183795963Y-146000984D01*
X183896012Y-146000984D01*
X183996061Y-146000984D01*
X183996061Y-146101034D01*
X183996061Y-146201083D01*
X183896012Y-146201083D01*
X183795963Y-146201083D01*
X183795963Y-146301132D01*
X183795963Y-146401181D01*
X183495815Y-146401181D01*
X183195667Y-146401181D01*
X183195667Y-146701329D01*
X183195667Y-147001477D01*
X183495815Y-147001477D01*
X183795963Y-147001477D01*
X183795963Y-146701329D01*
X183795963Y-146401181D01*
X183896012Y-146401181D01*
X183996061Y-146401181D01*
X183996061Y-146701329D01*
X183996061Y-147001477D01*
X183896012Y-147001477D01*
X183795963Y-147001477D01*
X183795963Y-147101526D01*
X183795963Y-147201575D01*
X183395766Y-147201575D01*
X182995569Y-147201575D01*
X182995569Y-146501231D01*
X182995569Y-145800886D01*
X183395766Y-145800886D01*
X183795963Y-145800886D01*
X183795963Y-145900935D01*
G37*
G36*
X184196160Y-142399212D02*
G01*
X184196160Y-142599310D01*
X183795963Y-142599310D01*
X183395766Y-142599310D01*
X183395766Y-142699360D01*
X183395766Y-142799409D01*
X183695914Y-142799409D01*
X183996061Y-142799409D01*
X183996061Y-142899458D01*
X183996061Y-142999507D01*
X184096110Y-142999507D01*
X184196160Y-142999507D01*
X184196160Y-143299655D01*
X184196160Y-143599803D01*
X184096110Y-143599803D01*
X183996061Y-143599803D01*
X183996061Y-143699852D01*
X183996061Y-143799901D01*
X183495815Y-143799901D01*
X182995569Y-143799901D01*
X182995569Y-143599803D01*
X182995569Y-143399704D01*
X183395766Y-143399704D01*
X183795963Y-143399704D01*
X183795963Y-143299655D01*
X183795963Y-143199606D01*
X183495815Y-143199606D01*
X183195667Y-143199606D01*
X183195667Y-143099557D01*
X183195667Y-142999507D01*
X183095618Y-142999507D01*
X182995569Y-142999507D01*
X182995569Y-142699360D01*
X182995569Y-142399212D01*
X183095618Y-142399212D01*
X183195667Y-142399212D01*
X183195667Y-142299163D01*
X183195667Y-142199113D01*
X183695914Y-142199113D01*
X184196160Y-142199113D01*
X184196160Y-142399212D01*
G37*
G36*
X187597834Y-142699360D02*
G01*
X187597834Y-142799409D01*
X187697883Y-142799409D01*
X187797932Y-142799409D01*
X187797932Y-143199606D01*
X187797932Y-143599803D01*
X187697883Y-143599803D01*
X187597834Y-143599803D01*
X187597834Y-143699852D01*
X187597834Y-143799901D01*
X187197637Y-143799901D01*
X186797440Y-143799901D01*
X186797440Y-143699852D01*
X186797440Y-143599803D01*
X186697391Y-143599803D01*
X186597341Y-143599803D01*
X186597341Y-143399704D01*
X186597341Y-143199606D01*
X186697391Y-143199606D01*
X186797440Y-143199606D01*
X186997538Y-143199606D01*
X186997538Y-143299655D01*
X186997538Y-143399704D01*
X187197637Y-143399704D01*
X187397735Y-143399704D01*
X187397735Y-143299655D01*
X187397735Y-143199606D01*
X187197637Y-143199606D01*
X186997538Y-143199606D01*
X186797440Y-143199606D01*
X186797440Y-143099557D01*
X186797440Y-142999507D01*
X186997538Y-142999507D01*
X187197637Y-142999507D01*
X187197637Y-142899458D01*
X187197637Y-142799409D01*
X187097588Y-142799409D01*
X186997538Y-142799409D01*
X186997538Y-142699360D01*
X186997538Y-142599310D01*
X187297686Y-142599310D01*
X187597834Y-142599310D01*
X187597834Y-142699360D01*
G37*
G36*
X190399212Y-142699360D02*
G01*
X190399212Y-142799409D01*
X190499262Y-142799409D01*
X190599311Y-142799409D01*
X190599311Y-142999507D01*
X190599311Y-143199606D01*
X190199114Y-143199606D01*
X189798917Y-143199606D01*
X189798917Y-143299655D01*
X189798917Y-143399704D01*
X190199114Y-143399704D01*
X190599311Y-143399704D01*
X190599311Y-143499754D01*
X190599311Y-143599803D01*
X190499262Y-143599803D01*
X190399212Y-143599803D01*
X190399212Y-143699852D01*
X190399212Y-143799901D01*
X189999015Y-143799901D01*
X189598818Y-143799901D01*
X189598818Y-143699852D01*
X189598818Y-143599803D01*
X189498769Y-143599803D01*
X189398720Y-143599803D01*
X189398720Y-143199606D01*
X189398720Y-142799409D01*
X189498769Y-142799409D01*
X189598818Y-142799409D01*
X189798917Y-142799409D01*
X189798917Y-142899458D01*
X189798917Y-142999507D01*
X189999015Y-142999507D01*
X190199114Y-142999507D01*
X190199114Y-142899458D01*
X190199114Y-142799409D01*
X189999015Y-142799409D01*
X189798917Y-142799409D01*
X189598818Y-142799409D01*
X189598818Y-142699360D01*
X189598818Y-142599310D01*
X189999015Y-142599310D01*
X190399212Y-142599310D01*
X190399212Y-142699360D01*
G37*
G36*
X196602265Y-143099557D02*
G01*
X196602265Y-143199606D01*
X196402167Y-143199606D01*
X196202068Y-143199606D01*
X196202068Y-143699852D01*
X196202068Y-144200098D01*
X196302117Y-144200098D01*
X196402167Y-144200098D01*
X196402167Y-143799901D01*
X196402167Y-143399704D01*
X196502216Y-143399704D01*
X196602265Y-143399704D01*
X196602265Y-143299655D01*
X196602265Y-143199606D01*
X196902413Y-143199606D01*
X197202560Y-143199606D01*
X197202560Y-143299655D01*
X197202560Y-143399704D01*
X197102511Y-143399704D01*
X197002462Y-143399704D01*
X197002462Y-143499754D01*
X197002462Y-143599803D01*
X197102511Y-143599803D01*
X197202560Y-143599803D01*
X197202560Y-143699852D01*
X197202560Y-143799901D01*
X197102511Y-143799901D01*
X197002462Y-143799901D01*
X197002462Y-143899950D01*
X197002462Y-144000000D01*
X197102511Y-144000000D01*
X197202560Y-144000000D01*
X197202560Y-144200098D01*
X197202560Y-144400197D01*
X196702314Y-144400197D01*
X196202068Y-144400197D01*
X196202068Y-144300147D01*
X196202068Y-144200098D01*
X196102019Y-144200098D01*
X196001970Y-144200098D01*
X196001970Y-144300147D01*
X196001970Y-144400197D01*
X195801871Y-144400197D01*
X195601773Y-144400197D01*
X195601773Y-144300147D01*
X195601773Y-144200098D01*
X195701822Y-144200098D01*
X195801871Y-144200098D01*
X195801871Y-143899950D01*
X195801871Y-143599803D01*
X195901920Y-143599803D01*
X196001970Y-143599803D01*
X196001970Y-143399704D01*
X196001970Y-143199606D01*
X196102019Y-143199606D01*
X196202068Y-143199606D01*
X196202068Y-143099557D01*
X196202068Y-142999507D01*
X196402167Y-142999507D01*
X196602265Y-142999507D01*
X196602265Y-143099557D01*
G37*
G36*
X197802856Y-138897489D02*
G01*
X197802856Y-138997538D01*
X197902905Y-138997538D01*
X198002954Y-138997538D01*
X198002954Y-139497784D01*
X198002954Y-139998030D01*
X197902905Y-139998030D01*
X197802856Y-139998030D01*
X197802856Y-140098079D01*
X197802856Y-140198129D01*
X196902413Y-140198129D01*
X196001970Y-140198129D01*
X196001970Y-140098079D01*
X196001970Y-139998030D01*
X196202068Y-139998030D01*
X196402167Y-139998030D01*
X196602265Y-139998030D01*
X197002462Y-139998030D01*
X197302610Y-139998030D01*
X197602757Y-139998030D01*
X197602757Y-139897981D01*
X197602757Y-139797932D01*
X197502708Y-139797932D01*
X197402659Y-139797932D01*
X197402659Y-139397735D01*
X197402659Y-138997538D01*
X197302610Y-138997538D01*
X197202560Y-138997538D01*
X197202560Y-139097587D01*
X197202560Y-139197636D01*
X197102511Y-139197636D01*
X197002462Y-139197636D01*
X197002462Y-139297686D01*
X197002462Y-139397735D01*
X197102511Y-139397735D01*
X197202560Y-139397735D01*
X197202560Y-139597833D01*
X197202560Y-139797932D01*
X197102511Y-139797932D01*
X197002462Y-139797932D01*
X197002462Y-139897981D01*
X197002462Y-139998030D01*
X196602265Y-139998030D01*
X196602265Y-139897981D01*
X196602265Y-139797932D01*
X196702314Y-139797932D01*
X196802364Y-139797932D01*
X196802364Y-139597833D01*
X196802364Y-139397735D01*
X196602265Y-139397735D01*
X196402167Y-139397735D01*
X196402167Y-139297686D01*
X196402167Y-139197636D01*
X196602265Y-139197636D01*
X196802364Y-139197636D01*
X196802364Y-139097587D01*
X196802364Y-138997538D01*
X196602265Y-138997538D01*
X196402167Y-138997538D01*
X196402167Y-139097587D01*
X196402167Y-139197636D01*
X196302117Y-139197636D01*
X196202068Y-139197636D01*
X196202068Y-139397735D01*
X196202068Y-139597833D01*
X196402167Y-139597833D01*
X196602265Y-139597833D01*
X196602265Y-139697883D01*
X196602265Y-139797932D01*
X196402167Y-139797932D01*
X196202068Y-139797932D01*
X196202068Y-139897981D01*
X196202068Y-139998030D01*
X196001970Y-139998030D01*
X195901920Y-139998030D01*
X195801871Y-139998030D01*
X195801871Y-139497784D01*
X195801871Y-138997538D01*
X195901920Y-138997538D01*
X196001970Y-138997538D01*
X196001970Y-138897489D01*
X196001970Y-138797439D01*
X196902413Y-138797439D01*
X197802856Y-138797439D01*
X197802856Y-138897489D01*
G37*
G36*
X197602757Y-140898473D02*
G01*
X197602757Y-140998523D01*
X197702807Y-140998523D01*
X197802856Y-140998523D01*
X197802856Y-141098572D01*
X197802856Y-141198621D01*
X197902905Y-141198621D01*
X198002954Y-141198621D01*
X198002954Y-141999015D01*
X198002954Y-142799409D01*
X197802856Y-142799409D01*
X197602757Y-142799409D01*
X197602757Y-142699360D01*
X197602757Y-142599310D01*
X197202560Y-142599310D01*
X196802364Y-142599310D01*
X196802364Y-142699360D01*
X196802364Y-142799409D01*
X196402167Y-142799409D01*
X196001970Y-142799409D01*
X196001970Y-142699360D01*
X196001970Y-142599310D01*
X195901920Y-142599310D01*
X195801871Y-142599310D01*
X195801871Y-142399212D01*
X196202068Y-142399212D01*
X196302117Y-142399212D01*
X196402167Y-142399212D01*
X196402167Y-142499261D01*
X196402167Y-142599310D01*
X196602265Y-142599310D01*
X196802364Y-142599310D01*
X196802364Y-142499261D01*
X196802364Y-142399212D01*
X196702314Y-142399212D01*
X196602265Y-142399212D01*
X196602265Y-142199113D01*
X196602265Y-141999015D01*
X196702314Y-141999015D01*
X196802364Y-141999015D01*
X196802364Y-142099064D01*
X196802364Y-142199113D01*
X196902413Y-142199113D01*
X197002462Y-142199113D01*
X197002462Y-142299163D01*
X197002462Y-142399212D01*
X197202560Y-142399212D01*
X197402659Y-142399212D01*
X197402659Y-142299163D01*
X197402659Y-142199113D01*
X197502708Y-142199113D01*
X197602757Y-142199113D01*
X197602757Y-142399212D01*
X197602757Y-142599310D01*
X197702807Y-142599310D01*
X197802856Y-142599310D01*
X197802856Y-141999015D01*
X197802856Y-141398720D01*
X197702807Y-141398720D01*
X197602757Y-141398720D01*
X197602757Y-141298670D01*
X197602757Y-141198621D01*
X197202560Y-141198621D01*
X196802364Y-141198621D01*
X196802364Y-141298670D01*
X196802364Y-141398720D01*
X196702314Y-141398720D01*
X196602265Y-141398720D01*
X196602265Y-141498769D01*
X196602265Y-141598818D01*
X196502216Y-141598818D01*
X196402167Y-141598818D01*
X196402167Y-141798916D01*
X196402167Y-141999015D01*
X196302117Y-141999015D01*
X196202068Y-141999015D01*
X196202068Y-142199113D01*
X196202068Y-142399212D01*
X195801871Y-142399212D01*
X195801871Y-142099064D01*
X195801871Y-141598818D01*
X195901920Y-141598818D01*
X196001970Y-141598818D01*
X196001970Y-141398720D01*
X196001970Y-141198621D01*
X196102019Y-141198621D01*
X196202068Y-141198621D01*
X196202068Y-141098572D01*
X196202068Y-140998523D01*
X196302117Y-140998523D01*
X196402167Y-140998523D01*
X196402167Y-140898473D01*
X196402167Y-140798424D01*
X197002462Y-140798424D01*
X197602757Y-140798424D01*
X197602757Y-140898473D01*
G37*
D13*
%TO.C,MCU1*%
X252959000Y-94385000D02*
X252959000Y-124985000D01*
X252959000Y-94385000D02*
X255619000Y-94385000D01*
X252959000Y-124985000D02*
X255619000Y-124985000D01*
X255619000Y-94385000D02*
X255619000Y-124985000D01*
X255619000Y-96985000D02*
X252959000Y-96985000D01*
X268199000Y-94385000D02*
X268199000Y-124985000D01*
X268199000Y-94385000D02*
X270859000Y-94385000D01*
X268199000Y-124985000D02*
X270859000Y-124985000D01*
X270859000Y-94385000D02*
X270859000Y-124985000D01*
%TO.C,PWR1*%
X269734009Y-142505852D02*
X269734009Y-142305852D01*
X269734009Y-145505852D02*
X269734009Y-143805852D01*
X270784009Y-147355852D02*
X271574009Y-147355852D01*
X271574009Y-140455852D02*
X270784009Y-140455852D01*
X272584008Y-146755853D02*
X272584009Y-141055851D01*
D11*
%TO.C,JST1*%
X253759007Y-127405850D02*
X253759007Y-128405850D01*
X253759007Y-130405850D02*
X253759007Y-129405850D01*
X254259007Y-129905850D02*
X253259007Y-129905850D01*
D13*
X254799007Y-125845850D02*
X255799007Y-125845850D01*
X254799007Y-126765850D02*
X254799007Y-125845850D01*
X254799007Y-131045850D02*
X254799007Y-131965850D01*
X254799007Y-131965850D02*
X255799007Y-131965850D01*
X262619007Y-125845850D02*
X261619007Y-125845850D01*
X262619007Y-126845850D02*
X262619007Y-125845850D01*
X262619007Y-131045849D02*
X262619009Y-131965850D01*
X262619009Y-131965850D02*
X261619007Y-131965850D01*
D10*
%TO.C,S1*%
X158525946Y-132118202D02*
X162937886Y-131340258D01*
X158630136Y-132709087D02*
X158525946Y-132118202D01*
X159342091Y-136746799D02*
X159255268Y-136254396D01*
X163349270Y-130678772D02*
X163189514Y-129772750D01*
X163595093Y-129193522D02*
X163189514Y-129772750D01*
X163652175Y-135276016D02*
X163773726Y-135965382D01*
X163773726Y-135965382D02*
X159342091Y-136746799D01*
X166549517Y-128672577D02*
X163595093Y-129193522D01*
X167128745Y-129078157D02*
X166549517Y-128672577D01*
X167330934Y-133104212D02*
X165065876Y-133503603D01*
X167736513Y-132524984D02*
X167330934Y-133104212D01*
X163349270Y-130678772D02*
G75*
G02*
X162937886Y-131340258I-536432J-125053D01*
G01*
X163648703Y-135256320D02*
G75*
G02*
X165065876Y-133503604I1584945J167771D01*
G01*
%TO.C,S15*%
X233659008Y-95705854D02*
X238139009Y-95705854D01*
X233659009Y-96305854D02*
X233659008Y-95705854D01*
X233659009Y-100405854D02*
X233659009Y-99905854D01*
X238159007Y-100405854D02*
X233659009Y-100405854D01*
X238159009Y-99705854D02*
X238159007Y-100405854D01*
X238659009Y-95125853D02*
X238659009Y-94205854D01*
X239159009Y-93705853D02*
X238659009Y-94205854D01*
X242159009Y-93705854D02*
X239159009Y-93705853D01*
X242159009Y-98205854D02*
X239859009Y-98205854D01*
X242659009Y-94205854D02*
X242159009Y-93705854D01*
X242659009Y-97705853D02*
X242159009Y-98205854D01*
X238159010Y-99685854D02*
G75*
G02*
X239859009Y-98205854I1590000J-110001D01*
G01*
X238659008Y-95125853D02*
G75*
G02*
X238139009Y-95705853I-549996J-30003D01*
G01*
%TO.C,S3*%
X152621909Y-98634741D02*
X157033849Y-97856797D01*
X152726099Y-99225626D02*
X152621909Y-98634741D01*
X153438054Y-103263338D02*
X153351231Y-102770935D01*
X157445233Y-97195311D02*
X157285477Y-96289289D01*
X157691056Y-95710061D02*
X157285477Y-96289289D01*
X157748138Y-101792555D02*
X157869689Y-102481921D01*
X157869689Y-102481921D02*
X153438054Y-103263338D01*
X160645480Y-95189116D02*
X157691056Y-95710061D01*
X161224708Y-95594696D02*
X160645480Y-95189116D01*
X161426897Y-99620751D02*
X159161839Y-100020142D01*
X161832476Y-99041523D02*
X161426897Y-99620751D01*
X157445233Y-97195311D02*
G75*
G02*
X157033849Y-97856797I-536432J-125053D01*
G01*
X157744666Y-101772859D02*
G75*
G02*
X159161839Y-100020143I1584945J167771D01*
G01*
%TO.C,S13*%
X233659005Y-129705853D02*
X238139006Y-129705853D01*
X233659006Y-130305853D02*
X233659005Y-129705853D01*
X233659006Y-134405853D02*
X233659006Y-133905853D01*
X238159004Y-134405853D02*
X233659006Y-134405853D01*
X238159006Y-133705853D02*
X238159004Y-134405853D01*
X238659006Y-129125852D02*
X238659006Y-128205853D01*
X239159006Y-127705852D02*
X238659006Y-128205853D01*
X242159006Y-127705853D02*
X239159006Y-127705852D01*
X242159006Y-132205853D02*
X239859006Y-132205853D01*
X242659006Y-128205853D02*
X242159006Y-127705853D01*
X242659006Y-131705852D02*
X242159006Y-132205853D01*
X238159007Y-133685853D02*
G75*
G02*
X239859006Y-132205853I1590000J-110001D01*
G01*
X238659005Y-129125852D02*
G75*
G02*
X238139006Y-129705852I-549996J-30003D01*
G01*
%TO.C,S8*%
X197659009Y-102705851D02*
X202139010Y-102705851D01*
X197659010Y-103305851D02*
X197659009Y-102705851D01*
X197659010Y-107405851D02*
X197659010Y-106905851D01*
X202159008Y-107405851D02*
X197659010Y-107405851D01*
X202159010Y-106705851D02*
X202159008Y-107405851D01*
X202659010Y-102125850D02*
X202659010Y-101205851D01*
X203159010Y-100705850D02*
X202659010Y-101205851D01*
X206159010Y-100705851D02*
X203159010Y-100705850D01*
X206159010Y-105205851D02*
X203859010Y-105205851D01*
X206659010Y-101205851D02*
X206159010Y-100705851D01*
X206659010Y-104705850D02*
X206159010Y-105205851D01*
X202159011Y-106685851D02*
G75*
G02*
X203859010Y-105205851I1590000J-110001D01*
G01*
X202659009Y-102125850D02*
G75*
G02*
X202139010Y-102705850I-549996J-30003D01*
G01*
%TO.C,S17*%
X233642463Y-152563279D02*
X233746419Y-152074205D01*
X234494901Y-148552874D02*
X234619648Y-147965985D01*
X234619648Y-147965985D02*
X239001750Y-148897428D01*
X238044128Y-153498881D02*
X233642463Y-152563279D01*
X238189666Y-152814178D02*
X238044128Y-153498881D01*
X239630975Y-148438218D02*
X239822254Y-147538322D01*
X240415283Y-147153204D02*
X239822254Y-147538322D01*
X242414124Y-152178603D02*
X240164384Y-151700408D01*
X243007154Y-151793484D02*
X242414124Y-152178603D01*
X243349725Y-147776938D02*
X240415283Y-147153204D01*
X243734842Y-148369969D02*
X243349725Y-147776938D01*
X238193825Y-152794615D02*
G75*
G02*
X240164384Y-151700408I1532382J-438174D01*
G01*
X239630975Y-148438218D02*
G75*
G02*
X239001750Y-148897428I-544217J85007D01*
G01*
%TO.C,S5*%
X178039676Y-108624326D02*
X182516948Y-108467977D01*
X178060617Y-109223961D02*
X178039676Y-108624326D01*
X178203705Y-113321463D02*
X178186255Y-112821768D01*
X182676534Y-112464842D02*
X182700964Y-113164418D01*
X182700964Y-113164418D02*
X178203705Y-113321463D01*
X183016390Y-107870181D02*
X182984282Y-106950743D01*
X183466528Y-106433596D02*
X182984282Y-106950743D01*
X186464700Y-106328899D02*
X183466528Y-106433596D01*
X186621748Y-110826158D02*
X184323148Y-110906427D01*
X186981846Y-106811145D02*
X186464700Y-106328899D01*
X187103994Y-110309012D02*
X186621748Y-110826158D01*
X182675836Y-112444854D02*
G75*
G02*
X184323148Y-110906427I1592871J-54444D01*
G01*
X183016390Y-107870181D02*
G75*
G02*
X182516948Y-108467976I-548613J-49181D01*
G01*
%TO.C,S9*%
X197659007Y-85705853D02*
X202139008Y-85705853D01*
X197659008Y-86305853D02*
X197659007Y-85705853D01*
X197659008Y-90405853D02*
X197659008Y-89905853D01*
X202159006Y-90405853D02*
X197659008Y-90405853D01*
X202159008Y-89705853D02*
X202159006Y-90405853D01*
X202659008Y-85125852D02*
X202659008Y-84205853D01*
X203159008Y-83705852D02*
X202659008Y-84205853D01*
X206159008Y-83705853D02*
X203159008Y-83705852D01*
X206159008Y-88205853D02*
X203859008Y-88205853D01*
X206659008Y-84205853D02*
X206159008Y-83705853D01*
X206659008Y-87705852D02*
X206159008Y-88205853D01*
X202159009Y-89685853D02*
G75*
G02*
X203859008Y-88205853I1590000J-110001D01*
G01*
X202659007Y-85125852D02*
G75*
G02*
X202139008Y-85705852I-549996J-30003D01*
G01*
%TO.C,S14*%
X233659010Y-112705855D02*
X238139011Y-112705855D01*
X233659011Y-113305855D02*
X233659010Y-112705855D01*
X233659011Y-117405855D02*
X233659011Y-116905855D01*
X238159009Y-117405855D02*
X233659011Y-117405855D01*
X238159011Y-116705855D02*
X238159009Y-117405855D01*
X238659011Y-112125854D02*
X238659011Y-111205855D01*
X239159011Y-110705854D02*
X238659011Y-111205855D01*
X242159011Y-110705855D02*
X239159011Y-110705854D01*
X242159011Y-115205855D02*
X239859011Y-115205855D01*
X242659011Y-111205855D02*
X242159011Y-110705855D01*
X242659011Y-114705854D02*
X242159011Y-115205855D01*
X238159012Y-116685855D02*
G75*
G02*
X239859011Y-115205855I1590000J-110001D01*
G01*
X238659010Y-112125854D02*
G75*
G02*
X238139011Y-112705854I-549996J-30003D01*
G01*
%TO.C,S7*%
X197659008Y-119705852D02*
X202139009Y-119705852D01*
X197659009Y-120305852D02*
X197659008Y-119705852D01*
X197659009Y-124405852D02*
X197659009Y-123905852D01*
X202159007Y-124405852D02*
X197659009Y-124405852D01*
X202159009Y-123705852D02*
X202159007Y-124405852D01*
X202659009Y-119125851D02*
X202659009Y-118205852D01*
X203159009Y-117705851D02*
X202659009Y-118205852D01*
X206159009Y-117705852D02*
X203159009Y-117705851D01*
X206159009Y-122205852D02*
X203859009Y-122205852D01*
X206659009Y-118205852D02*
X206159009Y-117705852D01*
X206659009Y-121705851D02*
X206159009Y-122205852D01*
X202159010Y-123685852D02*
G75*
G02*
X203859009Y-122205852I1590000J-110001D01*
G01*
X202659008Y-119125851D02*
G75*
G02*
X202139009Y-119705851I-549996J-30003D01*
G01*
%TO.C,S12*%
X215659011Y-90705853D02*
X220139012Y-90705853D01*
X215659012Y-91305853D02*
X215659011Y-90705853D01*
X215659012Y-95405853D02*
X215659012Y-94905853D01*
X220159010Y-95405853D02*
X215659012Y-95405853D01*
X220159012Y-94705853D02*
X220159010Y-95405853D01*
X220659012Y-90125852D02*
X220659012Y-89205853D01*
X221159012Y-88705852D02*
X220659012Y-89205853D01*
X224159012Y-88705853D02*
X221159012Y-88705852D01*
X224159012Y-93205853D02*
X221859012Y-93205853D01*
X224659012Y-89205853D02*
X224159012Y-88705853D01*
X224659012Y-92705852D02*
X224159012Y-93205853D01*
X220159013Y-94685853D02*
G75*
G02*
X221859012Y-93205853I1590000J-110001D01*
G01*
X220659011Y-90125852D02*
G75*
G02*
X220139012Y-90705852I-549996J-30003D01*
G01*
%TO.C,S2*%
X155573931Y-115376473D02*
X159985871Y-114598529D01*
X155678121Y-115967358D02*
X155573931Y-115376473D01*
X156390076Y-120005070D02*
X156303253Y-119512667D01*
X160397255Y-113937043D02*
X160237499Y-113031021D01*
X160643078Y-112451793D02*
X160237499Y-113031021D01*
X160700160Y-118534287D02*
X160821711Y-119223653D01*
X160821711Y-119223653D02*
X156390076Y-120005070D01*
X163597502Y-111930848D02*
X160643078Y-112451793D01*
X164176730Y-112336428D02*
X163597502Y-111930848D01*
X164378919Y-116362483D02*
X162113861Y-116761874D01*
X164784498Y-115783255D02*
X164378919Y-116362483D01*
X160397255Y-113937043D02*
G75*
G02*
X159985871Y-114598529I-536432J-125053D01*
G01*
X160696688Y-118514591D02*
G75*
G02*
X162113861Y-116761875I1584945J167771D01*
G01*
%TO.C,S11*%
X215659005Y-107705854D02*
X220139006Y-107705854D01*
X215659006Y-108305854D02*
X215659005Y-107705854D01*
X215659006Y-112405854D02*
X215659006Y-111905854D01*
X220159004Y-112405854D02*
X215659006Y-112405854D01*
X220159006Y-111705854D02*
X220159004Y-112405854D01*
X220659006Y-107125853D02*
X220659006Y-106205854D01*
X221159006Y-105705853D02*
X220659006Y-106205854D01*
X224159006Y-105705854D02*
X221159006Y-105705853D01*
X224159006Y-110205854D02*
X221859006Y-110205854D01*
X224659006Y-106205854D02*
X224159006Y-105705854D01*
X224659006Y-109705853D02*
X224159006Y-110205854D01*
X220159007Y-111685854D02*
G75*
G02*
X221859006Y-110205854I1590000J-110001D01*
G01*
X220659005Y-107125853D02*
G75*
G02*
X220139006Y-107705853I-549996J-30003D01*
G01*
%TO.C,S18*%
X253742016Y-157611844D02*
X253945384Y-157155072D01*
X255409636Y-153866308D02*
X255653678Y-153318180D01*
X255653678Y-153318180D02*
X259746362Y-155140361D01*
X257852970Y-159442159D02*
X253742016Y-157611844D01*
X258137686Y-158802677D02*
X257852970Y-159442159D01*
X260457313Y-154822008D02*
X260831511Y-153981546D01*
X261491651Y-153728141D02*
X260831511Y-153981546D01*
X262401973Y-159059306D02*
X260300818Y-158123811D01*
X263062114Y-158805901D02*
X262401973Y-159059306D01*
X264232288Y-154948349D02*
X261491651Y-153728141D01*
X264485692Y-155608492D02*
X264232288Y-154948349D01*
X258145822Y-158784406D02*
G75*
G02*
X260300817Y-158123813I1407794J-747200D01*
G01*
X260457312Y-154822008D02*
G75*
G02*
X259746363Y-155140360I-514651J196300D01*
G01*
%TO.C,S16*%
X212659007Y-146705851D02*
X217139008Y-146705851D01*
X212659008Y-147305851D02*
X212659007Y-146705851D01*
X212659008Y-151405851D02*
X212659008Y-150905851D01*
X217159006Y-151405851D02*
X212659008Y-151405851D01*
X217159008Y-150705851D02*
X217159006Y-151405851D01*
X217659008Y-146125850D02*
X217659008Y-145205851D01*
X218159008Y-144705850D02*
X217659008Y-145205851D01*
X221159008Y-144705851D02*
X218159008Y-144705850D01*
X221159008Y-149205851D02*
X218859008Y-149205851D01*
X221659008Y-145205851D02*
X221159008Y-144705851D01*
X221659008Y-148705850D02*
X221159008Y-149205851D01*
X217159009Y-150685851D02*
G75*
G02*
X218859008Y-149205851I1590000J-110001D01*
G01*
X217659007Y-146125850D02*
G75*
G02*
X217139008Y-146705850I-549996J-30003D01*
G01*
%TO.C,S6*%
X177446386Y-91634684D02*
X181923658Y-91478335D01*
X177467327Y-92234319D02*
X177446386Y-91634684D01*
X177610415Y-96331821D02*
X177592965Y-95832126D01*
X182083244Y-95475200D02*
X182107674Y-96174776D01*
X182107674Y-96174776D02*
X177610415Y-96331821D01*
X182423100Y-90880539D02*
X182390992Y-89961101D01*
X182873238Y-89443954D02*
X182390992Y-89961101D01*
X185871410Y-89339257D02*
X182873238Y-89443954D01*
X186028458Y-93836516D02*
X183729858Y-93916785D01*
X186388556Y-89821503D02*
X185871410Y-89339257D01*
X186510704Y-93319370D02*
X186028458Y-93836516D01*
X182082546Y-95455212D02*
G75*
G02*
X183729858Y-93916785I1592871J-54444D01*
G01*
X182423100Y-90880539D02*
G75*
G02*
X181923658Y-91478334I-548613J-49181D01*
G01*
%TO.C,S10*%
X215659008Y-124705852D02*
X220139009Y-124705852D01*
X215659009Y-125305852D02*
X215659008Y-124705852D01*
X215659009Y-129405852D02*
X215659009Y-128905852D01*
X220159007Y-129405852D02*
X215659009Y-129405852D01*
X220159009Y-128705852D02*
X220159007Y-129405852D01*
X220659009Y-124125851D02*
X220659009Y-123205852D01*
X221159009Y-122705851D02*
X220659009Y-123205852D01*
X224159009Y-122705852D02*
X221159009Y-122705851D01*
X224159009Y-127205852D02*
X221859009Y-127205852D01*
X224659009Y-123205852D02*
X224159009Y-122705852D01*
X224659009Y-126705851D02*
X224159009Y-127205852D01*
X220159010Y-128685852D02*
G75*
G02*
X221859009Y-127205852I1590000J-110001D01*
G01*
X220659008Y-124125851D02*
G75*
G02*
X220139009Y-124705851I-549996J-30003D01*
G01*
%TO.C,S4*%
X178632967Y-125613970D02*
X183110239Y-125457621D01*
X178653908Y-126213605D02*
X178632967Y-125613970D01*
X178796996Y-130311107D02*
X178779546Y-129811412D01*
X183269825Y-129454486D02*
X183294255Y-130154062D01*
X183294255Y-130154062D02*
X178796996Y-130311107D01*
X183609681Y-124859825D02*
X183577573Y-123940387D01*
X184059819Y-123423240D02*
X183577573Y-123940387D01*
X187057991Y-123318543D02*
X184059819Y-123423240D01*
X187215039Y-127815802D02*
X184916439Y-127896071D01*
X187575137Y-123800789D02*
X187057991Y-123318543D01*
X187697285Y-127298656D02*
X187215039Y-127815802D01*
X183269127Y-129434498D02*
G75*
G02*
X184916439Y-127896071I1592871J-54444D01*
G01*
X183609681Y-124859825D02*
G75*
G02*
X183110239Y-125457620I-548613J-49181D01*
G01*
%TD*%
M02*
