%TF.GenerationSoftware,KiCad,Pcbnew,8.0.1*%
%TF.CreationDate,2024-05-06T14:57:41+03:00*%
%TF.ProjectId,new_ready_splayer_pcb,6e65775f-7265-4616-9479-5f73706c6179,v1.0.0*%
%TF.SameCoordinates,Original*%
%TF.FileFunction,Paste,Top*%
%TF.FilePolarity,Positive*%
%FSLAX46Y46*%
G04 Gerber Fmt 4.6, Leading zero omitted, Abs format (unit mm)*
G04 Created by KiCad (PCBNEW 8.0.1) date 2024-05-06 14:57:41*
%MOMM*%
%LPD*%
G01*
G04 APERTURE LIST*
G04 Aperture macros list*
%AMRotRect*
0 Rectangle, with rotation*
0 The origin of the aperture is its center*
0 $1 length*
0 $2 width*
0 $3 Rotation angle, in degrees counterclockwise*
0 Add horizontal line*
21,1,$1,$2,0,0,$3*%
%AMFreePoly0*
4,1,6,1.300000,-0.250000,0.050000,-1.300000,-1.300000,-1.300000,-1.300000,1.300000,1.300000,1.300000,1.300000,-0.250000,1.300000,-0.250000,$1*%
%AMFreePoly1*
4,1,6,0.500000,-0.625000,-0.650000,-0.625000,-0.150000,0.000000,-0.650000,0.625000,0.500000,0.625000,0.500000,-0.625000,0.500000,-0.625000,$1*%
%AMFreePoly2*
4,1,6,0.250000,0.000000,-0.250000,-0.625000,-0.500000,-0.625000,-0.500000,0.625000,-0.250000,0.625000,0.250000,0.000000,0.250000,0.000000,$1*%
%AMFreePoly3*
4,1,6,0.600000,-1.000000,0.000000,-0.400000,-0.600000,-1.000000,-0.600000,0.250000,0.600000,0.250000,0.600000,-1.000000,0.600000,-1.000000,$1*%
%AMFreePoly4*
4,1,6,0.600000,-0.200000,0.600000,-0.400000,-0.600000,-0.400000,-0.600000,-0.200000,0.000000,0.400000,0.600000,-0.200000,0.600000,-0.200000,$1*%
G04 Aperture macros list end*
%ADD10FreePoly0,0.000000*%
%ADD11R,2.600000X2.600000*%
%ADD12FreePoly1,180.000000*%
%ADD13FreePoly2,180.000000*%
%ADD14FreePoly2,0.000000*%
%ADD15FreePoly1,0.000000*%
%ADD16R,1.000000X1.550000*%
%ADD17R,0.800000X1.000000*%
%ADD18R,1.500000X0.700000*%
%ADD19FreePoly3,90.000000*%
%ADD20FreePoly4,90.000000*%
%ADD21FreePoly0,10.000000*%
%ADD22RotRect,2.600000X2.600000X10.000000*%
%ADD23FreePoly0,348.000000*%
%ADD24RotRect,2.600000X2.600000X348.000000*%
%ADD25FreePoly0,2.000000*%
%ADD26RotRect,2.600000X2.600000X2.000000*%
%ADD27FreePoly0,336.000000*%
%ADD28RotRect,2.600000X2.600000X336.000000*%
G04 APERTURE END LIST*
D10*
%TO.C,S13*%
X243934006Y-129955852D03*
D11*
X232384006Y-132155853D03*
%TD*%
D12*
%TO.C,MCU1*%
X266684000Y-95715000D03*
D13*
X267409000Y-95715000D03*
D12*
X266684000Y-98255000D03*
D13*
X267409000Y-98255000D03*
D12*
X266684000Y-100795000D03*
D13*
X267409000Y-100795000D03*
D12*
X266684000Y-103335000D03*
D13*
X267409000Y-103335000D03*
D14*
X256409000Y-103335000D03*
X256409000Y-100795000D03*
X256409000Y-98255000D03*
X256409000Y-95715000D03*
D15*
X257134000Y-103335000D03*
X257134000Y-100795000D03*
X257134000Y-98255000D03*
X257134000Y-95715000D03*
%TD*%
D16*
%TO.C,RST1*%
X272009009Y-136530853D03*
X270309009Y-136530853D03*
X272009009Y-131280853D03*
X270309009Y-131280853D03*
%TD*%
D17*
%TO.C,PWR1*%
X270074008Y-147555851D03*
X270074009Y-140255851D03*
X272284008Y-140255852D03*
X272284009Y-147555852D03*
D18*
X269424008Y-146155852D03*
X269424009Y-143155851D03*
X269424009Y-141655852D03*
%TD*%
D19*
%TO.C,JST1*%
X258343007Y-127905850D03*
X258343007Y-129905850D03*
D20*
X259359006Y-127905851D03*
X259359007Y-129905850D03*
%TD*%
D21*
%TO.C,S1*%
X168688259Y-130580168D03*
D22*
X157695755Y-134752383D03*
%TD*%
D10*
%TO.C,S15*%
X243934009Y-95955853D03*
D11*
X232384009Y-98155854D03*
%TD*%
D21*
%TO.C,S3*%
X162784222Y-97096707D03*
D22*
X151791718Y-101268922D03*
%TD*%
D10*
%TO.C,S8*%
X207934010Y-102955850D03*
D11*
X196384010Y-105155851D03*
%TD*%
D23*
%TO.C,S17*%
X244618137Y-150346815D03*
D24*
X232863126Y-150097359D03*
%TD*%
D25*
%TO.C,S5*%
X188317143Y-108515581D03*
D26*
X176850958Y-111117331D03*
%TD*%
D10*
%TO.C,S9*%
X207934008Y-85955852D03*
D11*
X196384008Y-88155853D03*
%TD*%
D10*
%TO.C,S14*%
X243934011Y-112955854D03*
D11*
X232384011Y-115155855D03*
%TD*%
D10*
%TO.C,S7*%
X207934009Y-119955851D03*
D11*
X196384009Y-122155852D03*
%TD*%
D10*
%TO.C,S12*%
X225934012Y-90955852D03*
D11*
X214384012Y-93155853D03*
%TD*%
D21*
%TO.C,S2*%
X165736244Y-113838439D03*
D22*
X154743740Y-118010654D03*
%TD*%
D10*
%TO.C,S11*%
X225934006Y-107955853D03*
D11*
X214384006Y-110155854D03*
%TD*%
D27*
%TO.C,S18*%
X264938673Y-157725786D03*
D28*
X253492403Y-155037778D03*
%TD*%
D10*
%TO.C,S16*%
X222934008Y-146955850D03*
D11*
X211384008Y-149155851D03*
%TD*%
D25*
%TO.C,S6*%
X187723853Y-91525939D03*
D26*
X176257668Y-94127689D03*
%TD*%
D10*
%TO.C,S10*%
X225934009Y-124955851D03*
D11*
X214384009Y-127155852D03*
%TD*%
D25*
%TO.C,S4*%
X188910434Y-125505225D03*
D26*
X177444249Y-128106975D03*
%TD*%
M02*
