%TF.GenerationSoftware,KiCad,Pcbnew,8.0.1*%
%TF.CreationDate,2024-05-06T23:29:14+03:00*%
%TF.ProjectId,new_ready_splayer_pcb,6e65775f-7265-4616-9479-5f73706c6179,v1.0.0*%
%TF.SameCoordinates,Original*%
%TF.FileFunction,Soldermask,Top*%
%TF.FilePolarity,Negative*%
%FSLAX46Y46*%
G04 Gerber Fmt 4.6, Leading zero omitted, Abs format (unit mm)*
G04 Created by KiCad (PCBNEW 8.0.1) date 2024-05-06 23:29:14*
%MOMM*%
%LPD*%
G01*
G04 APERTURE LIST*
G04 Aperture macros list*
%AMRoundRect*
0 Rectangle with rounded corners*
0 $1 Rounding radius*
0 $2 $3 $4 $5 $6 $7 $8 $9 X,Y pos of 4 corners*
0 Add a 4 corners polygon primitive as box body*
4,1,4,$2,$3,$4,$5,$6,$7,$8,$9,$2,$3,0*
0 Add four circle primitives for the rounded corners*
1,1,$1+$1,$2,$3*
1,1,$1+$1,$4,$5*
1,1,$1+$1,$6,$7*
1,1,$1+$1,$8,$9*
0 Add four rect primitives between the rounded corners*
20,1,$1+$1,$2,$3,$4,$5,0*
20,1,$1+$1,$4,$5,$6,$7,0*
20,1,$1+$1,$6,$7,$8,$9,0*
20,1,$1+$1,$8,$9,$2,$3,0*%
%AMFreePoly0*
4,1,16,0.535355,0.660355,0.550000,0.625000,0.550000,-0.625000,0.535355,-0.660355,0.500000,-0.675000,-0.650000,-0.675000,-0.685355,-0.660355,-0.700000,-0.625000,-0.689043,-0.593765,-0.214031,0.000000,-0.689043,0.593765,-0.699694,0.630522,-0.681235,0.664043,-0.650000,0.675000,0.500000,0.675000,0.535355,0.660355,0.535355,0.660355,$1*%
%AMFreePoly1*
4,1,16,-0.214645,0.660355,-0.210957,0.656235,0.289043,0.031235,0.299694,-0.005522,0.289043,-0.031235,-0.210957,-0.656235,-0.244478,-0.674694,-0.250000,-0.675000,-0.500000,-0.675000,-0.535355,-0.660355,-0.550000,-0.625000,-0.550000,0.625000,-0.535355,0.660355,-0.500000,0.675000,-0.250000,0.675000,-0.214645,0.660355,-0.214645,0.660355,$1*%
%AMFreePoly2*
4,1,16,0.635355,0.285355,0.650000,0.250000,0.650000,-1.000000,0.635355,-1.035355,0.600000,-1.050000,0.564645,-1.035355,0.000000,-0.470710,-0.564645,-1.035355,-0.600000,-1.050000,-0.635355,-1.035355,-0.650000,-1.000000,-0.650000,0.250000,-0.635355,0.285355,-0.600000,0.300000,0.600000,0.300000,0.635355,0.285355,0.635355,0.285355,$1*%
%AMFreePoly3*
4,1,14,0.035355,0.435355,0.635355,-0.164645,0.650000,-0.200000,0.650000,-0.400000,0.635355,-0.435355,0.600000,-0.450000,-0.600000,-0.450000,-0.635355,-0.435355,-0.650000,-0.400000,-0.650000,-0.200000,-0.635355,-0.164645,-0.035355,0.435355,0.000000,0.450000,0.035355,0.435355,0.035355,0.435355,$1*%
%AMFreePoly4*
4,1,15,1.335355,1.335355,1.350000,1.300000,1.350000,-0.250000,1.335355,-0.285355,1.332160,-0.288285,0.082160,-1.338286,0.050000,-1.350000,-1.300000,-1.350000,-1.335355,-1.335355,-1.350000,-1.300000,-1.350000,1.300000,-1.335355,1.335355,-1.300000,1.350000,1.300000,1.350000,1.335355,1.335355,1.335355,1.335355,$1*%
G04 Aperture macros list end*
%ADD10C,0.850000*%
%ADD11RoundRect,0.050000X0.500000X-0.775000X0.500000X0.775000X-0.500000X0.775000X-0.500000X-0.775000X0*%
%ADD12C,5.100000*%
%ADD13C,2.300000*%
%ADD14C,0.900000*%
%ADD15FreePoly0,180.000000*%
%ADD16FreePoly1,180.000000*%
%ADD17C,1.800000*%
%ADD18FreePoly1,0.000000*%
%ADD19FreePoly0,0.000000*%
%ADD20RoundRect,0.050000X0.400000X-0.500000X0.400000X0.500000X-0.400000X0.500000X-0.400000X-0.500000X0*%
%ADD21C,1.000000*%
%ADD22RoundRect,0.050000X0.750000X-0.350000X0.750000X0.350000X-0.750000X0.350000X-0.750000X-0.350000X0*%
%ADD23FreePoly2,90.000000*%
%ADD24O,1.850000X1.300000*%
%ADD25FreePoly3,90.000000*%
%ADD26C,2.000000*%
%ADD27C,3.100000*%
%ADD28C,3.500000*%
%ADD29C,2.132000*%
%ADD30FreePoly4,10.000000*%
%ADD31RoundRect,0.050000X-1.054507X-1.505993X1.505993X-1.054507X1.054507X1.505993X-1.505993X1.054507X0*%
%ADD32FreePoly4,0.000000*%
%ADD33RoundRect,0.050000X-1.300000X-1.300000X1.300000X-1.300000X1.300000X1.300000X-1.300000X1.300000X0*%
%ADD34FreePoly4,348.000000*%
%ADD35RoundRect,0.050000X-1.541877X-1.001307X1.001307X-1.541877X1.541877X1.001307X-1.001307X1.541877X0*%
%ADD36FreePoly4,2.000000*%
%ADD37RoundRect,0.050000X-1.253839X-1.344577X1.344577X-1.253839X1.253839X1.344577X-1.344577X1.253839X0*%
%ADD38FreePoly4,336.000000*%
%ADD39RoundRect,0.050000X-1.716367X-0.658851X0.658851X-1.716367X1.716367X0.658851X-0.658851X1.716367X0*%
G04 APERTURE END LIST*
D10*
%TO.C,RST1*%
X269784009Y-133905853D03*
X272534009Y-133905853D03*
D11*
X272009009Y-136530853D03*
X270309009Y-136530853D03*
X272009009Y-131280853D03*
X270309009Y-131280853D03*
%TD*%
D12*
%TO.C,MH7*%
X249927216Y-159398435D03*
%TD*%
D13*
%TO.C,MH1*%
X269991491Y-151601480D03*
%TD*%
D12*
%TO.C,MH3*%
X172557597Y-101415189D03*
%TD*%
%TO.C,MH5*%
X174829857Y-120003004D03*
%TD*%
D14*
%TO.C,MCU1*%
X265309000Y-95715000D03*
D15*
X266684000Y-95715000D03*
D16*
X267409000Y-95715000D03*
D17*
X269529000Y-95715000D03*
D14*
X265309000Y-98255000D03*
D15*
X266684000Y-98255000D03*
D16*
X267409000Y-98255000D03*
D17*
X269529000Y-98255000D03*
D14*
X265309000Y-100795000D03*
D15*
X266684000Y-100795000D03*
D16*
X267409000Y-100795000D03*
D17*
X269529000Y-100795000D03*
D14*
X265309000Y-103335000D03*
D15*
X266684000Y-103335000D03*
D16*
X267409000Y-103335000D03*
D17*
X269529000Y-103335000D03*
X269529000Y-105875000D03*
X269529000Y-108415000D03*
X269529000Y-110955000D03*
X269529000Y-113495000D03*
X269529000Y-116035000D03*
X269529000Y-118575000D03*
X269529000Y-121115000D03*
X269529000Y-123655000D03*
X254289000Y-123655000D03*
X254289000Y-121115000D03*
X254289000Y-118575000D03*
X254289000Y-116035000D03*
X254289000Y-113495000D03*
X254289000Y-110955000D03*
X254289000Y-108415000D03*
X254289000Y-105875000D03*
X254289000Y-103335000D03*
D18*
X256409000Y-103335000D03*
D17*
X254289000Y-100795000D03*
D18*
X256409000Y-100795000D03*
D17*
X254289000Y-98255000D03*
D18*
X256409000Y-98255000D03*
D17*
X254289000Y-95715000D03*
D18*
X256409000Y-95715000D03*
D19*
X257134000Y-103335000D03*
D14*
X258509000Y-103335000D03*
D19*
X257134000Y-100795000D03*
D14*
X258509000Y-100795000D03*
D19*
X257134000Y-98255000D03*
D14*
X258509000Y-98255000D03*
D19*
X257134000Y-95715000D03*
D14*
X258509000Y-95715000D03*
%TD*%
D12*
%TO.C,MH4*%
X231659009Y-105405854D03*
%TD*%
D20*
%TO.C,PWR1*%
X270074008Y-147555851D03*
X270074009Y-140255851D03*
D21*
X271184009Y-142405852D03*
X271184009Y-145405852D03*
D20*
X272284008Y-140255852D03*
X272284009Y-147555852D03*
D22*
X269424008Y-146155852D03*
X269424009Y-143155851D03*
X269424009Y-141655852D03*
%TD*%
D23*
%TO.C,JST1*%
X258343007Y-127905850D03*
X258343007Y-129905850D03*
D24*
X261159006Y-127905850D03*
X261159008Y-129905850D03*
D25*
X259359006Y-127905851D03*
X259359007Y-129905850D03*
%TD*%
D12*
%TO.C,MH6*%
X204659011Y-144605852D03*
%TD*%
D13*
%TO.C,MH2*%
X253547674Y-144280218D03*
%TD*%
D26*
%TO.C,S1*%
X161079777Y-137963538D03*
D27*
X160921001Y-134183685D03*
X165463013Y-131148867D03*
D28*
X166496220Y-137008473D03*
D27*
X170769078Y-132447202D03*
D26*
X171912663Y-136053408D03*
D29*
X162232044Y-141618983D03*
D30*
X168688259Y-130580168D03*
D29*
X172080122Y-139882502D03*
D31*
X157695755Y-134752383D03*
D29*
X167520744Y-142818839D03*
%TD*%
D26*
%TO.C,S15*%
X235159009Y-101905854D03*
D27*
X235659010Y-98155854D03*
X240659009Y-95955854D03*
D28*
X240659009Y-101905854D03*
D27*
X245659008Y-98155854D03*
D26*
X246159009Y-101905854D03*
D29*
X235659009Y-105705854D03*
D32*
X243934009Y-95955853D03*
D29*
X245659009Y-105705854D03*
D33*
X232384009Y-98155854D03*
D29*
X240659009Y-107805854D03*
%TD*%
D26*
%TO.C,S3*%
X155175740Y-104480077D03*
D27*
X155016964Y-100700224D03*
X159558976Y-97665406D03*
D28*
X160592183Y-103525012D03*
D27*
X164865041Y-98963741D03*
D26*
X166008626Y-102569947D03*
D29*
X156328007Y-108135522D03*
D30*
X162784222Y-97096707D03*
D29*
X166176085Y-106399041D03*
D31*
X151791718Y-101268922D03*
D29*
X161616707Y-109335378D03*
%TD*%
D26*
%TO.C,S13*%
X235159006Y-135905853D03*
D27*
X235659007Y-132155853D03*
X240659006Y-129955853D03*
D28*
X240659006Y-135905853D03*
D27*
X245659005Y-132155853D03*
D26*
X246159006Y-135905853D03*
D29*
X235659006Y-139705853D03*
D32*
X243934006Y-129955852D03*
D29*
X245659006Y-139705853D03*
D33*
X232384006Y-132155853D03*
D29*
X240659006Y-141805853D03*
%TD*%
D26*
%TO.C,S8*%
X199159010Y-108905851D03*
D27*
X199659011Y-105155851D03*
X204659010Y-102955851D03*
D28*
X204659010Y-108905851D03*
D27*
X209659009Y-105155851D03*
D26*
X210159010Y-108905851D03*
D29*
X199659010Y-112705851D03*
D32*
X207934010Y-102955850D03*
D29*
X209659010Y-112705851D03*
D33*
X196384010Y-105155851D03*
D29*
X204659010Y-114805851D03*
%TD*%
D26*
%TO.C,S17*%
X234797817Y-154342368D03*
D27*
X236066560Y-150778269D03*
X241414704Y-149665904D03*
D28*
X240177629Y-155485882D03*
D27*
X245848036Y-152857386D03*
D26*
X245557441Y-156629396D03*
D29*
X234496827Y-158163283D03*
D34*
X244618137Y-150346815D03*
D29*
X244278303Y-160242401D03*
D35*
X232863126Y-150097359D03*
D29*
X238950950Y-161256953D03*
%TD*%
D26*
%TO.C,S5*%
X179755140Y-114768200D03*
D27*
X180123964Y-111003035D03*
X185044138Y-108629878D03*
D28*
X185251790Y-114576253D03*
D27*
X190117870Y-110654040D03*
D26*
X190748440Y-114384306D03*
D29*
X180387454Y-118548436D03*
D36*
X188317143Y-108515581D03*
D29*
X190381362Y-118199441D03*
D37*
X176850958Y-111117331D03*
D29*
X185457696Y-120472659D03*
%TD*%
D26*
%TO.C,S9*%
X199159008Y-91905853D03*
D27*
X199659009Y-88155853D03*
X204659008Y-85955853D03*
D28*
X204659008Y-91905853D03*
D27*
X209659007Y-88155853D03*
D26*
X210159008Y-91905853D03*
D29*
X199659008Y-95705853D03*
D32*
X207934008Y-85955852D03*
D29*
X209659008Y-95705853D03*
D33*
X196384008Y-88155853D03*
D29*
X204659008Y-97805853D03*
%TD*%
D26*
%TO.C,S14*%
X235159011Y-118905855D03*
D27*
X235659012Y-115155855D03*
X240659011Y-112955855D03*
D28*
X240659011Y-118905855D03*
D27*
X245659010Y-115155855D03*
D26*
X246159011Y-118905855D03*
D29*
X235659011Y-122705855D03*
D32*
X243934011Y-112955854D03*
D29*
X245659011Y-122705855D03*
D33*
X232384011Y-115155855D03*
D29*
X240659011Y-124805855D03*
%TD*%
D26*
%TO.C,S7*%
X199159009Y-125905852D03*
D27*
X199659010Y-122155852D03*
X204659009Y-119955852D03*
D28*
X204659009Y-125905852D03*
D27*
X209659008Y-122155852D03*
D26*
X210159009Y-125905852D03*
D29*
X199659009Y-129705852D03*
D32*
X207934009Y-119955851D03*
D29*
X209659009Y-129705852D03*
D33*
X196384009Y-122155852D03*
D29*
X204659009Y-131805852D03*
%TD*%
D26*
%TO.C,S12*%
X217159012Y-96905853D03*
D27*
X217659013Y-93155853D03*
X222659012Y-90955853D03*
D28*
X222659012Y-96905853D03*
D27*
X227659011Y-93155853D03*
D26*
X228159012Y-96905853D03*
D29*
X217659012Y-100705853D03*
D32*
X225934012Y-90955852D03*
D29*
X227659012Y-100705853D03*
D33*
X214384012Y-93155853D03*
D29*
X222659012Y-102805853D03*
%TD*%
D26*
%TO.C,S2*%
X158127762Y-121221809D03*
D27*
X157968986Y-117441956D03*
X162510998Y-114407138D03*
D28*
X163544205Y-120266744D03*
D27*
X167817063Y-115705473D03*
D26*
X168960648Y-119311679D03*
D29*
X159280029Y-124877254D03*
D30*
X165736244Y-113838439D03*
D29*
X169128107Y-123140773D03*
D31*
X154743740Y-118010654D03*
D29*
X164568729Y-126077110D03*
%TD*%
D26*
%TO.C,S11*%
X217159006Y-113905854D03*
D27*
X217659007Y-110155854D03*
X222659006Y-107955854D03*
D28*
X222659006Y-113905854D03*
D27*
X227659005Y-110155854D03*
D26*
X228159006Y-113905854D03*
D29*
X217659006Y-117705854D03*
D32*
X225934006Y-107955853D03*
D29*
X227659006Y-117705854D03*
D33*
X214384006Y-110155854D03*
D29*
X222659006Y-119805854D03*
%TD*%
D26*
%TO.C,S18*%
X254502229Y-159592267D03*
D27*
X256484264Y-156369840D03*
X261946812Y-156393724D03*
D28*
X259526729Y-161829319D03*
D27*
X265619719Y-160437207D03*
D26*
X264551229Y-164066371D03*
D29*
X253413402Y-163267109D03*
D38*
X264938673Y-157725786D03*
D29*
X262548857Y-167334475D03*
D39*
X253492403Y-155037778D03*
D29*
X257126983Y-167219237D03*
%TD*%
D26*
%TO.C,S16*%
X214159008Y-152905851D03*
D27*
X214659009Y-149155851D03*
X219659008Y-146955851D03*
D28*
X219659008Y-152905851D03*
D27*
X224659007Y-149155851D03*
D26*
X225159008Y-152905851D03*
D29*
X214659008Y-156705851D03*
D32*
X222934008Y-146955850D03*
D29*
X224659008Y-156705851D03*
D33*
X211384008Y-149155851D03*
D29*
X219659008Y-158805851D03*
%TD*%
D26*
%TO.C,S6*%
X179161850Y-97778558D03*
D27*
X179530674Y-94013393D03*
X184450848Y-91640236D03*
D28*
X184658500Y-97586611D03*
D27*
X189524580Y-93664398D03*
D26*
X190155150Y-97394664D03*
D29*
X179794164Y-101558794D03*
D36*
X187723853Y-91525939D03*
D29*
X189788072Y-101209799D03*
D37*
X176257668Y-94127689D03*
D29*
X184864406Y-103483017D03*
%TD*%
D26*
%TO.C,S10*%
X217159009Y-130905852D03*
D27*
X217659010Y-127155852D03*
X222659009Y-124955852D03*
D28*
X222659009Y-130905852D03*
D27*
X227659008Y-127155852D03*
D26*
X228159009Y-130905852D03*
D29*
X217659009Y-134705852D03*
D32*
X225934009Y-124955851D03*
D29*
X227659009Y-134705852D03*
D33*
X214384009Y-127155852D03*
D29*
X222659009Y-136805852D03*
%TD*%
D26*
%TO.C,S4*%
X180348431Y-131757844D03*
D27*
X180717255Y-127992679D03*
X185637429Y-125619522D03*
D28*
X185845081Y-131565897D03*
D27*
X190711161Y-127643684D03*
D26*
X191341731Y-131373950D03*
D29*
X180980745Y-135538080D03*
D36*
X188910434Y-125505225D03*
D29*
X190974653Y-135189085D03*
D37*
X177444249Y-128106975D03*
D29*
X186050987Y-137462303D03*
%TD*%
M02*
