M48
; DRILL file {KiCad 8.0.1} date 2024-05-06T14:57:38+0300
; FORMAT={-:-/ absolute / inch / decimal}
; #@! TF.CreationDate,2024-05-06T14:57:38+03:00
; #@! TF.GenerationSoftware,Kicad,Pcbnew,8.0.1
; #@! TF.FileFunction,NonPlated,1,2,NPTH
FMAT,2
INCH
; #@! TA.AperFunction,NonPlated,NPTH,ComponentDrill
T1C0.0354
; #@! TA.AperFunction,NonPlated,NPTH,ComponentDrill
T2C0.0748
; #@! TA.AperFunction,NonPlated,NPTH,ComponentDrill
T3C0.0866
; #@! TA.AperFunction,NonPlated,NPTH,ComponentDrill
T4C0.1181
; #@! TA.AperFunction,NonPlated,NPTH,ComponentDrill
T5C0.1339
; #@! TA.AperFunction,NonPlated,NPTH,ComponentDrill
T6C0.1969
%
G90
G05
T1
X10.6765Y-5.6065
X10.6765Y-5.7246
T2
X6.1093Y-4.1134
X6.2255Y-4.7725
X6.3417Y-5.4316
X6.5358Y-4.0382
X6.652Y-4.6973
X6.7682Y-5.3564
X7.0536Y-3.8495
X7.077Y-4.5184
X7.1003Y-5.1873
X7.4864Y-3.8344
X7.5098Y-4.5033
X7.5331Y-5.1722
X7.8409Y-3.6183
X7.8409Y-4.9569
X7.8409Y-4.2876
X8.274Y-3.6183
X8.274Y-4.9569
X8.274Y-4.2876
X8.4315Y-6.0199
X8.5496Y-4.4845
X8.5496Y-5.1538
X8.5496Y-3.8152
X8.8645Y-6.0199
X8.9826Y-4.4845
X8.9826Y-5.1538
X8.9826Y-3.8152
X9.244Y-6.0765
X9.2582Y-5.3506
X9.2582Y-4.012
X9.2582Y-4.6813
X9.6676Y-6.1665
X9.6913Y-5.3506
X9.6913Y-4.012
X9.6913Y-4.6813
X10.0198Y-6.2832
X10.4154Y-6.4593
T3
X9.9822Y-5.6803
X10.6296Y-5.9686
T4
X6.103Y-3.9646
X6.2193Y-4.6237
X6.2818Y-3.8451
X6.3355Y-5.2828
X6.3981Y-4.5042
X6.4907Y-3.8962
X6.5143Y-5.1633
X6.607Y-4.5553
X6.7232Y-5.2145
X7.0681Y-3.7013
X7.0915Y-4.3702
X7.1149Y-5.0391
X7.2618Y-3.6079
X7.2852Y-4.2768
X7.3086Y-4.9457
X7.4616Y-3.6876
X7.485Y-4.3565
X7.5083Y-5.0253
X7.8606Y-3.4707
X7.8606Y-4.8093
X7.8606Y-4.14
X8.0574Y-3.3841
X8.0574Y-4.7227
X8.0574Y-4.0534
X8.2543Y-3.4707
X8.2543Y-4.8093
X8.2543Y-4.14
X8.4511Y-5.8723
X8.5693Y-4.3368
X8.5693Y-5.0061
X8.5693Y-3.6676
X8.648Y-5.7857
X8.7661Y-4.2502
X8.7661Y-4.9195
X8.7661Y-3.5809
X8.8448Y-5.8723
X8.963Y-4.3368
X8.963Y-5.0061
X8.963Y-3.6676
X9.2779Y-5.203
X9.2779Y-3.8644
X9.2779Y-4.5337
X9.294Y-5.9362
X9.4748Y-5.1164
X9.4748Y-3.7778
X9.4748Y-4.4471
X9.5045Y-5.8924
X9.6716Y-5.203
X9.6716Y-3.8644
X9.6716Y-4.5337
X9.6791Y-6.018
X10.0978Y-6.1563
X10.3129Y-6.1572
X10.4575Y-6.3164
T5
X6.3225Y-4.0758
X6.4387Y-4.7349
X6.555Y-5.394
X7.27Y-3.842
X7.2934Y-4.5109
X7.3167Y-5.1798
X8.0574Y-3.6183
X8.0574Y-4.9569
X8.0574Y-4.2876
X8.648Y-6.0199
X8.7661Y-4.4845
X8.7661Y-5.1538
X8.7661Y-3.8152
X9.4558Y-6.1215
X9.4748Y-5.3506
X9.4748Y-4.012
X9.4748Y-4.6813
X10.2176Y-6.3712
T6
X6.7936Y-3.9927
X6.8831Y-4.7245
X8.0574Y-5.6931
X9.1204Y-4.1498
X9.8397Y-6.2755
M30
