M48
; DRILL file {KiCad 8.0.1} date 2024-05-06T14:57:38+0300
; FORMAT={-:-/ absolute / inch / decimal}
; #@! TF.CreationDate,2024-05-06T14:57:38+03:00
; #@! TF.GenerationSoftware,Kicad,Pcbnew,8.0.1
; #@! TF.FileFunction,Plated,1,2,PTH
FMAT,2
INCH
; #@! TA.AperFunction,Plated,PTH,ComponentDrill
T1C0.0118
; #@! TA.AperFunction,Plated,PTH,ComponentDrill
T2C0.0157
; #@! TA.AperFunction,Plated,PTH,ComponentDrill
T3C0.0295
; #@! TA.AperFunction,Plated,PTH,ComponentDrill
T4C0.0394
; #@! TA.AperFunction,Plated,PTH,ComponentDrill
T5C0.0500
%
G90
G05
T1
X10.1244Y-5.2325
X10.4Y-5.075
X10.5181Y-5.5868
X10.5181Y-5.705
X10.6756Y-5.075
T2
X10.1775Y-3.7683
X10.1775Y-3.8683
X10.1775Y-3.9683
X10.1775Y-4.0683
X10.4452Y-3.7683
X10.4452Y-3.8683
X10.4452Y-3.9683
X10.4452Y-4.0683
T3
X10.2819Y-5.0357
X10.2819Y-5.1144
T4
X10.0114Y-3.7683
X10.0114Y-3.8683
X10.0114Y-3.9683
X10.0114Y-4.0683
X10.0114Y-4.1683
X10.0114Y-4.2683
X10.0114Y-4.3683
X10.0114Y-4.4683
X10.0114Y-4.5683
X10.0114Y-4.6683
X10.0114Y-4.7683
X10.0114Y-4.8683
X10.6114Y-3.7683
X10.6114Y-3.8683
X10.6114Y-3.9683
X10.6114Y-4.0683
X10.6114Y-4.1683
X10.6114Y-4.2683
X10.6114Y-4.3683
X10.6114Y-4.4683
X10.6114Y-4.5683
X10.6114Y-4.6683
X10.6114Y-4.7683
X10.6114Y-4.8683
T5
X6.1546Y-4.2573
X6.2709Y-4.9164
X6.3629Y-4.3045
X6.3871Y-5.5756
X6.4791Y-4.9637
X6.5424Y-4.1889
X6.5953Y-5.6228
X6.6586Y-4.8481
X6.7748Y-5.5072
X7.0785Y-3.9984
X7.1019Y-4.6673
X7.1252Y-5.3361
X7.2781Y-4.0741
X7.3015Y-4.743
X7.3248Y-5.4119
X7.472Y-3.9846
X7.4953Y-4.6535
X7.5187Y-5.3224
X7.8606Y-3.7679
X7.8606Y-5.1065
X7.8606Y-4.4372
X8.0574Y-3.8506
X8.0574Y-5.1892
X8.0574Y-4.5199
X8.2543Y-3.7679
X8.2543Y-5.1065
X8.2543Y-4.4372
X8.4511Y-6.1695
X8.5693Y-4.6341
X8.5693Y-5.3034
X8.5693Y-3.9648
X8.648Y-6.2522
X8.7661Y-4.7168
X8.7661Y-5.3861
X8.7661Y-4.0475
X8.8448Y-6.1695
X8.963Y-4.6341
X8.963Y-5.3034
X8.963Y-3.9648
X9.2322Y-6.2269
X9.2779Y-5.5002
X9.2779Y-4.1616
X9.2779Y-4.8309
X9.4075Y-6.3487
X9.4748Y-5.5829
X9.4748Y-4.2443
X9.4748Y-4.9136
X9.6173Y-6.3088
X9.6716Y-5.5002
X9.6716Y-4.1616
X9.6716Y-4.8309
X9.9769Y-6.4278
X10.1231Y-6.5834
X10.3366Y-6.588
M30
