%TF.GenerationSoftware,KiCad,Pcbnew,8.0.1*%
%TF.CreationDate,2024-04-29T16:42:10+03:00*%
%TF.ProjectId,ready_splayer_pcb,72656164-795f-4737-906c-617965725f70,v1.0.0*%
%TF.SameCoordinates,Original*%
%TF.FileFunction,Legend,Top*%
%TF.FilePolarity,Positive*%
%FSLAX46Y46*%
G04 Gerber Fmt 4.6, Leading zero omitted, Abs format (unit mm)*
G04 Created by KiCad (PCBNEW 8.0.1) date 2024-04-29 16:42:10*
%MOMM*%
%LPD*%
G01*
G04 APERTURE LIST*
%ADD10C,0.150000*%
%ADD11C,0.000000*%
%ADD12C,0.120000*%
%ADD13C,0.100000*%
G04 APERTURE END LIST*
D10*
X196434404Y-105577379D02*
X196624880Y-105577379D01*
X196624880Y-105577379D02*
X196720118Y-105624998D01*
X196720118Y-105624998D02*
X196815356Y-105720236D01*
X196815356Y-105720236D02*
X196862975Y-105910712D01*
X196862975Y-105910712D02*
X196862975Y-106244045D01*
X196862975Y-106244045D02*
X196815356Y-106434521D01*
X196815356Y-106434521D02*
X196720118Y-106529760D01*
X196720118Y-106529760D02*
X196624880Y-106577379D01*
X196624880Y-106577379D02*
X196434404Y-106577379D01*
X196434404Y-106577379D02*
X196339166Y-106529760D01*
X196339166Y-106529760D02*
X196243928Y-106434521D01*
X196243928Y-106434521D02*
X196196309Y-106244045D01*
X196196309Y-106244045D02*
X196196309Y-105910712D01*
X196196309Y-105910712D02*
X196243928Y-105720236D01*
X196243928Y-105720236D02*
X196339166Y-105624998D01*
X196339166Y-105624998D02*
X196434404Y-105577379D01*
X197291547Y-106577379D02*
X197291547Y-105577379D01*
X197291547Y-105577379D02*
X197862975Y-106577379D01*
X197862975Y-106577379D02*
X197862975Y-105577379D01*
X196101071Y-115747379D02*
X196291547Y-115747379D01*
X196291547Y-115747379D02*
X196386785Y-115794998D01*
X196386785Y-115794998D02*
X196482023Y-115890236D01*
X196482023Y-115890236D02*
X196529642Y-116080712D01*
X196529642Y-116080712D02*
X196529642Y-116414045D01*
X196529642Y-116414045D02*
X196482023Y-116604521D01*
X196482023Y-116604521D02*
X196386785Y-116699760D01*
X196386785Y-116699760D02*
X196291547Y-116747379D01*
X196291547Y-116747379D02*
X196101071Y-116747379D01*
X196101071Y-116747379D02*
X196005833Y-116699760D01*
X196005833Y-116699760D02*
X195910595Y-116604521D01*
X195910595Y-116604521D02*
X195862976Y-116414045D01*
X195862976Y-116414045D02*
X195862976Y-116080712D01*
X195862976Y-116080712D02*
X195910595Y-115890236D01*
X195910595Y-115890236D02*
X196005833Y-115794998D01*
X196005833Y-115794998D02*
X196101071Y-115747379D01*
X197291547Y-116223569D02*
X196958214Y-116223569D01*
X196958214Y-116747379D02*
X196958214Y-115747379D01*
X196958214Y-115747379D02*
X197434404Y-115747379D01*
X198148690Y-116223569D02*
X197815357Y-116223569D01*
X197815357Y-116747379D02*
X197815357Y-115747379D01*
X197815357Y-115747379D02*
X198291547Y-115747379D01*
X187942865Y-70091381D02*
X188276198Y-71091381D01*
X188276198Y-71091381D02*
X188609531Y-70091381D01*
X189514293Y-70996142D02*
X189466674Y-71043762D01*
X189466674Y-71043762D02*
X189323817Y-71091381D01*
X189323817Y-71091381D02*
X189228579Y-71091381D01*
X189228579Y-71091381D02*
X189085722Y-71043762D01*
X189085722Y-71043762D02*
X188990484Y-70948523D01*
X188990484Y-70948523D02*
X188942865Y-70853285D01*
X188942865Y-70853285D02*
X188895246Y-70662809D01*
X188895246Y-70662809D02*
X188895246Y-70519952D01*
X188895246Y-70519952D02*
X188942865Y-70329476D01*
X188942865Y-70329476D02*
X188990484Y-70234238D01*
X188990484Y-70234238D02*
X189085722Y-70139000D01*
X189085722Y-70139000D02*
X189228579Y-70091381D01*
X189228579Y-70091381D02*
X189323817Y-70091381D01*
X189323817Y-70091381D02*
X189466674Y-70139000D01*
X189466674Y-70139000D02*
X189514293Y-70186619D01*
X190514293Y-70996142D02*
X190466674Y-71043762D01*
X190466674Y-71043762D02*
X190323817Y-71091381D01*
X190323817Y-71091381D02*
X190228579Y-71091381D01*
X190228579Y-71091381D02*
X190085722Y-71043762D01*
X190085722Y-71043762D02*
X189990484Y-70948523D01*
X189990484Y-70948523D02*
X189942865Y-70853285D01*
X189942865Y-70853285D02*
X189895246Y-70662809D01*
X189895246Y-70662809D02*
X189895246Y-70519952D01*
X189895246Y-70519952D02*
X189942865Y-70329476D01*
X189942865Y-70329476D02*
X189990484Y-70234238D01*
X189990484Y-70234238D02*
X190085722Y-70139000D01*
X190085722Y-70139000D02*
X190228579Y-70091381D01*
X190228579Y-70091381D02*
X190323817Y-70091381D01*
X190323817Y-70091381D02*
X190466674Y-70139000D01*
X190466674Y-70139000D02*
X190514293Y-70186619D01*
X188514293Y-63471381D02*
X188180960Y-62995190D01*
X187942865Y-63471381D02*
X187942865Y-62471381D01*
X187942865Y-62471381D02*
X188323817Y-62471381D01*
X188323817Y-62471381D02*
X188419055Y-62519000D01*
X188419055Y-62519000D02*
X188466674Y-62566619D01*
X188466674Y-62566619D02*
X188514293Y-62661857D01*
X188514293Y-62661857D02*
X188514293Y-62804714D01*
X188514293Y-62804714D02*
X188466674Y-62899952D01*
X188466674Y-62899952D02*
X188419055Y-62947571D01*
X188419055Y-62947571D02*
X188323817Y-62995190D01*
X188323817Y-62995190D02*
X187942865Y-62995190D01*
X188895246Y-63185666D02*
X189371436Y-63185666D01*
X188800008Y-63471381D02*
X189133341Y-62471381D01*
X189133341Y-62471381D02*
X189466674Y-63471381D01*
X189704770Y-62471381D02*
X189942865Y-63471381D01*
X189942865Y-63471381D02*
X190133341Y-62757095D01*
X190133341Y-62757095D02*
X190323817Y-63471381D01*
X190323817Y-63471381D02*
X190561913Y-62471381D01*
X182140234Y-81251383D02*
X182140234Y-80251383D01*
X182140234Y-80251383D02*
X182521186Y-80251383D01*
X182521186Y-80251383D02*
X182616424Y-80299002D01*
X182616424Y-80299002D02*
X182664043Y-80346621D01*
X182664043Y-80346621D02*
X182711662Y-80441859D01*
X182711662Y-80441859D02*
X182711662Y-80584716D01*
X182711662Y-80584716D02*
X182664043Y-80679954D01*
X182664043Y-80679954D02*
X182616424Y-80727573D01*
X182616424Y-80727573D02*
X182521186Y-80775192D01*
X182521186Y-80775192D02*
X182140234Y-80775192D01*
X183664043Y-81251383D02*
X183092615Y-81251383D01*
X183378329Y-81251383D02*
X183378329Y-80251383D01*
X183378329Y-80251383D02*
X183283091Y-80394240D01*
X183283091Y-80394240D02*
X183187853Y-80489478D01*
X183187853Y-80489478D02*
X183092615Y-80537097D01*
X184235472Y-80679954D02*
X184140234Y-80632335D01*
X184140234Y-80632335D02*
X184092615Y-80584716D01*
X184092615Y-80584716D02*
X184044996Y-80489478D01*
X184044996Y-80489478D02*
X184044996Y-80441859D01*
X184044996Y-80441859D02*
X184092615Y-80346621D01*
X184092615Y-80346621D02*
X184140234Y-80299002D01*
X184140234Y-80299002D02*
X184235472Y-80251383D01*
X184235472Y-80251383D02*
X184425948Y-80251383D01*
X184425948Y-80251383D02*
X184521186Y-80299002D01*
X184521186Y-80299002D02*
X184568805Y-80346621D01*
X184568805Y-80346621D02*
X184616424Y-80441859D01*
X184616424Y-80441859D02*
X184616424Y-80489478D01*
X184616424Y-80489478D02*
X184568805Y-80584716D01*
X184568805Y-80584716D02*
X184521186Y-80632335D01*
X184521186Y-80632335D02*
X184425948Y-80679954D01*
X184425948Y-80679954D02*
X184235472Y-80679954D01*
X184235472Y-80679954D02*
X184140234Y-80727573D01*
X184140234Y-80727573D02*
X184092615Y-80775192D01*
X184092615Y-80775192D02*
X184044996Y-80870430D01*
X184044996Y-80870430D02*
X184044996Y-81060906D01*
X184044996Y-81060906D02*
X184092615Y-81156144D01*
X184092615Y-81156144D02*
X184140234Y-81203764D01*
X184140234Y-81203764D02*
X184235472Y-81251383D01*
X184235472Y-81251383D02*
X184425948Y-81251383D01*
X184425948Y-81251383D02*
X184521186Y-81203764D01*
X184521186Y-81203764D02*
X184568805Y-81156144D01*
X184568805Y-81156144D02*
X184616424Y-81060906D01*
X184616424Y-81060906D02*
X184616424Y-80870430D01*
X184616424Y-80870430D02*
X184568805Y-80775192D01*
X184568805Y-80775192D02*
X184521186Y-80727573D01*
X184521186Y-80727573D02*
X184425948Y-80679954D01*
X182140233Y-73631381D02*
X182140233Y-72631381D01*
X182140233Y-72631381D02*
X182521185Y-72631381D01*
X182521185Y-72631381D02*
X182616423Y-72679000D01*
X182616423Y-72679000D02*
X182664042Y-72726619D01*
X182664042Y-72726619D02*
X182711661Y-72821857D01*
X182711661Y-72821857D02*
X182711661Y-72964714D01*
X182711661Y-72964714D02*
X182664042Y-73059952D01*
X182664042Y-73059952D02*
X182616423Y-73107571D01*
X182616423Y-73107571D02*
X182521185Y-73155190D01*
X182521185Y-73155190D02*
X182140233Y-73155190D01*
X183092614Y-72726619D02*
X183140233Y-72679000D01*
X183140233Y-72679000D02*
X183235471Y-72631381D01*
X183235471Y-72631381D02*
X183473566Y-72631381D01*
X183473566Y-72631381D02*
X183568804Y-72679000D01*
X183568804Y-72679000D02*
X183616423Y-72726619D01*
X183616423Y-72726619D02*
X183664042Y-72821857D01*
X183664042Y-72821857D02*
X183664042Y-72917095D01*
X183664042Y-72917095D02*
X183616423Y-73059952D01*
X183616423Y-73059952D02*
X183044995Y-73631381D01*
X183044995Y-73631381D02*
X183664042Y-73631381D01*
X184616423Y-73631381D02*
X184044995Y-73631381D01*
X184330709Y-73631381D02*
X184330709Y-72631381D01*
X184330709Y-72631381D02*
X184235471Y-72774238D01*
X184235471Y-72774238D02*
X184140233Y-72869476D01*
X184140233Y-72869476D02*
X184044995Y-72917095D01*
X182140233Y-86331380D02*
X182140233Y-85331380D01*
X182140233Y-85331380D02*
X182521185Y-85331380D01*
X182521185Y-85331380D02*
X182616423Y-85378999D01*
X182616423Y-85378999D02*
X182664042Y-85426618D01*
X182664042Y-85426618D02*
X182711661Y-85521856D01*
X182711661Y-85521856D02*
X182711661Y-85664713D01*
X182711661Y-85664713D02*
X182664042Y-85759951D01*
X182664042Y-85759951D02*
X182616423Y-85807570D01*
X182616423Y-85807570D02*
X182521185Y-85855189D01*
X182521185Y-85855189D02*
X182140233Y-85855189D01*
X183664042Y-86331380D02*
X183092614Y-86331380D01*
X183378328Y-86331380D02*
X183378328Y-85331380D01*
X183378328Y-85331380D02*
X183283090Y-85474237D01*
X183283090Y-85474237D02*
X183187852Y-85569475D01*
X183187852Y-85569475D02*
X183092614Y-85617094D01*
X184521185Y-85664713D02*
X184521185Y-86331380D01*
X184283090Y-85283761D02*
X184044995Y-85998046D01*
X184044995Y-85998046D02*
X184664042Y-85998046D01*
X191990484Y-73631381D02*
X191990484Y-72631381D01*
X191990484Y-72631381D02*
X192371436Y-72631381D01*
X192371436Y-72631381D02*
X192466674Y-72679000D01*
X192466674Y-72679000D02*
X192514293Y-72726619D01*
X192514293Y-72726619D02*
X192561912Y-72821857D01*
X192561912Y-72821857D02*
X192561912Y-72964714D01*
X192561912Y-72964714D02*
X192514293Y-73059952D01*
X192514293Y-73059952D02*
X192466674Y-73107571D01*
X192466674Y-73107571D02*
X192371436Y-73155190D01*
X192371436Y-73155190D02*
X191990484Y-73155190D01*
X192942865Y-72726619D02*
X192990484Y-72679000D01*
X192990484Y-72679000D02*
X193085722Y-72631381D01*
X193085722Y-72631381D02*
X193323817Y-72631381D01*
X193323817Y-72631381D02*
X193419055Y-72679000D01*
X193419055Y-72679000D02*
X193466674Y-72726619D01*
X193466674Y-72726619D02*
X193514293Y-72821857D01*
X193514293Y-72821857D02*
X193514293Y-72917095D01*
X193514293Y-72917095D02*
X193466674Y-73059952D01*
X193466674Y-73059952D02*
X192895246Y-73631381D01*
X192895246Y-73631381D02*
X193514293Y-73631381D01*
X191990484Y-86331380D02*
X191990484Y-85331380D01*
X191990484Y-85331380D02*
X192371436Y-85331380D01*
X192371436Y-85331380D02*
X192466674Y-85378999D01*
X192466674Y-85378999D02*
X192514293Y-85426618D01*
X192514293Y-85426618D02*
X192561912Y-85521856D01*
X192561912Y-85521856D02*
X192561912Y-85664713D01*
X192561912Y-85664713D02*
X192514293Y-85759951D01*
X192514293Y-85759951D02*
X192466674Y-85807570D01*
X192466674Y-85807570D02*
X192371436Y-85855189D01*
X192371436Y-85855189D02*
X191990484Y-85855189D01*
X192895246Y-85331380D02*
X193561912Y-85331380D01*
X193561912Y-85331380D02*
X193133341Y-86331380D01*
X191990484Y-76171381D02*
X191990484Y-75171381D01*
X191990484Y-75171381D02*
X192371436Y-75171381D01*
X192371436Y-75171381D02*
X192466674Y-75219000D01*
X192466674Y-75219000D02*
X192514293Y-75266619D01*
X192514293Y-75266619D02*
X192561912Y-75361857D01*
X192561912Y-75361857D02*
X192561912Y-75504714D01*
X192561912Y-75504714D02*
X192514293Y-75599952D01*
X192514293Y-75599952D02*
X192466674Y-75647571D01*
X192466674Y-75647571D02*
X192371436Y-75695190D01*
X192371436Y-75695190D02*
X191990484Y-75695190D01*
X192895246Y-75171381D02*
X193514293Y-75171381D01*
X193514293Y-75171381D02*
X193180960Y-75552333D01*
X193180960Y-75552333D02*
X193323817Y-75552333D01*
X193323817Y-75552333D02*
X193419055Y-75599952D01*
X193419055Y-75599952D02*
X193466674Y-75647571D01*
X193466674Y-75647571D02*
X193514293Y-75742809D01*
X193514293Y-75742809D02*
X193514293Y-75980904D01*
X193514293Y-75980904D02*
X193466674Y-76076142D01*
X193466674Y-76076142D02*
X193419055Y-76123762D01*
X193419055Y-76123762D02*
X193323817Y-76171381D01*
X193323817Y-76171381D02*
X193038103Y-76171381D01*
X193038103Y-76171381D02*
X192942865Y-76123762D01*
X192942865Y-76123762D02*
X192895246Y-76076142D01*
X191990484Y-83791381D02*
X191990484Y-82791381D01*
X191990484Y-82791381D02*
X192371436Y-82791381D01*
X192371436Y-82791381D02*
X192466674Y-82839000D01*
X192466674Y-82839000D02*
X192514293Y-82886619D01*
X192514293Y-82886619D02*
X192561912Y-82981857D01*
X192561912Y-82981857D02*
X192561912Y-83124714D01*
X192561912Y-83124714D02*
X192514293Y-83219952D01*
X192514293Y-83219952D02*
X192466674Y-83267571D01*
X192466674Y-83267571D02*
X192371436Y-83315190D01*
X192371436Y-83315190D02*
X191990484Y-83315190D01*
X193419055Y-82791381D02*
X193228579Y-82791381D01*
X193228579Y-82791381D02*
X193133341Y-82839000D01*
X193133341Y-82839000D02*
X193085722Y-82886619D01*
X193085722Y-82886619D02*
X192990484Y-83029476D01*
X192990484Y-83029476D02*
X192942865Y-83219952D01*
X192942865Y-83219952D02*
X192942865Y-83600904D01*
X192942865Y-83600904D02*
X192990484Y-83696142D01*
X192990484Y-83696142D02*
X193038103Y-83743762D01*
X193038103Y-83743762D02*
X193133341Y-83791381D01*
X193133341Y-83791381D02*
X193323817Y-83791381D01*
X193323817Y-83791381D02*
X193419055Y-83743762D01*
X193419055Y-83743762D02*
X193466674Y-83696142D01*
X193466674Y-83696142D02*
X193514293Y-83600904D01*
X193514293Y-83600904D02*
X193514293Y-83362809D01*
X193514293Y-83362809D02*
X193466674Y-83267571D01*
X193466674Y-83267571D02*
X193419055Y-83219952D01*
X193419055Y-83219952D02*
X193323817Y-83172333D01*
X193323817Y-83172333D02*
X193133341Y-83172333D01*
X193133341Y-83172333D02*
X193038103Y-83219952D01*
X193038103Y-83219952D02*
X192990484Y-83267571D01*
X192990484Y-83267571D02*
X192942865Y-83362809D01*
X185664042Y-67599000D02*
X185568804Y-67551381D01*
X185568804Y-67551381D02*
X185425947Y-67551381D01*
X185425947Y-67551381D02*
X185283090Y-67599000D01*
X185283090Y-67599000D02*
X185187852Y-67694238D01*
X185187852Y-67694238D02*
X185140233Y-67789476D01*
X185140233Y-67789476D02*
X185092614Y-67979952D01*
X185092614Y-67979952D02*
X185092614Y-68122809D01*
X185092614Y-68122809D02*
X185140233Y-68313285D01*
X185140233Y-68313285D02*
X185187852Y-68408523D01*
X185187852Y-68408523D02*
X185283090Y-68503762D01*
X185283090Y-68503762D02*
X185425947Y-68551381D01*
X185425947Y-68551381D02*
X185521185Y-68551381D01*
X185521185Y-68551381D02*
X185664042Y-68503762D01*
X185664042Y-68503762D02*
X185711661Y-68456142D01*
X185711661Y-68456142D02*
X185711661Y-68122809D01*
X185711661Y-68122809D02*
X185521185Y-68122809D01*
X186140233Y-68551381D02*
X186140233Y-67551381D01*
X186140233Y-67551381D02*
X186711661Y-68551381D01*
X186711661Y-68551381D02*
X186711661Y-67551381D01*
X187187852Y-68551381D02*
X187187852Y-67551381D01*
X187187852Y-67551381D02*
X187425947Y-67551381D01*
X187425947Y-67551381D02*
X187568804Y-67599000D01*
X187568804Y-67599000D02*
X187664042Y-67694238D01*
X187664042Y-67694238D02*
X187711661Y-67789476D01*
X187711661Y-67789476D02*
X187759280Y-67979952D01*
X187759280Y-67979952D02*
X187759280Y-68122809D01*
X187759280Y-68122809D02*
X187711661Y-68313285D01*
X187711661Y-68313285D02*
X187664042Y-68408523D01*
X187664042Y-68408523D02*
X187568804Y-68503762D01*
X187568804Y-68503762D02*
X187425947Y-68551381D01*
X187425947Y-68551381D02*
X187187852Y-68551381D01*
X191990484Y-78711381D02*
X191990484Y-77711381D01*
X191990484Y-77711381D02*
X192371436Y-77711381D01*
X192371436Y-77711381D02*
X192466674Y-77759000D01*
X192466674Y-77759000D02*
X192514293Y-77806619D01*
X192514293Y-77806619D02*
X192561912Y-77901857D01*
X192561912Y-77901857D02*
X192561912Y-78044714D01*
X192561912Y-78044714D02*
X192514293Y-78139952D01*
X192514293Y-78139952D02*
X192466674Y-78187571D01*
X192466674Y-78187571D02*
X192371436Y-78235190D01*
X192371436Y-78235190D02*
X191990484Y-78235190D01*
X193419055Y-78044714D02*
X193419055Y-78711381D01*
X193180960Y-77663762D02*
X192942865Y-78378047D01*
X192942865Y-78378047D02*
X193561912Y-78378047D01*
X182140234Y-83791381D02*
X182140234Y-82791381D01*
X182140234Y-82791381D02*
X182521186Y-82791381D01*
X182521186Y-82791381D02*
X182616424Y-82839000D01*
X182616424Y-82839000D02*
X182664043Y-82886619D01*
X182664043Y-82886619D02*
X182711662Y-82981857D01*
X182711662Y-82981857D02*
X182711662Y-83124714D01*
X182711662Y-83124714D02*
X182664043Y-83219952D01*
X182664043Y-83219952D02*
X182616424Y-83267571D01*
X182616424Y-83267571D02*
X182521186Y-83315190D01*
X182521186Y-83315190D02*
X182140234Y-83315190D01*
X183664043Y-83791381D02*
X183092615Y-83791381D01*
X183378329Y-83791381D02*
X183378329Y-82791381D01*
X183378329Y-82791381D02*
X183283091Y-82934238D01*
X183283091Y-82934238D02*
X183187853Y-83029476D01*
X183187853Y-83029476D02*
X183092615Y-83077095D01*
X184568805Y-82791381D02*
X184092615Y-82791381D01*
X184092615Y-82791381D02*
X184044996Y-83267571D01*
X184044996Y-83267571D02*
X184092615Y-83219952D01*
X184092615Y-83219952D02*
X184187853Y-83172333D01*
X184187853Y-83172333D02*
X184425948Y-83172333D01*
X184425948Y-83172333D02*
X184521186Y-83219952D01*
X184521186Y-83219952D02*
X184568805Y-83267571D01*
X184568805Y-83267571D02*
X184616424Y-83362809D01*
X184616424Y-83362809D02*
X184616424Y-83600904D01*
X184616424Y-83600904D02*
X184568805Y-83696142D01*
X184568805Y-83696142D02*
X184521186Y-83743762D01*
X184521186Y-83743762D02*
X184425948Y-83791381D01*
X184425948Y-83791381D02*
X184187853Y-83791381D01*
X184187853Y-83791381D02*
X184092615Y-83743762D01*
X184092615Y-83743762D02*
X184044996Y-83696142D01*
X188419055Y-65059000D02*
X188323817Y-65011381D01*
X188323817Y-65011381D02*
X188180960Y-65011381D01*
X188180960Y-65011381D02*
X188038103Y-65059000D01*
X188038103Y-65059000D02*
X187942865Y-65154238D01*
X187942865Y-65154238D02*
X187895246Y-65249476D01*
X187895246Y-65249476D02*
X187847627Y-65439952D01*
X187847627Y-65439952D02*
X187847627Y-65582809D01*
X187847627Y-65582809D02*
X187895246Y-65773285D01*
X187895246Y-65773285D02*
X187942865Y-65868523D01*
X187942865Y-65868523D02*
X188038103Y-65963762D01*
X188038103Y-65963762D02*
X188180960Y-66011381D01*
X188180960Y-66011381D02*
X188276198Y-66011381D01*
X188276198Y-66011381D02*
X188419055Y-65963762D01*
X188419055Y-65963762D02*
X188466674Y-65916142D01*
X188466674Y-65916142D02*
X188466674Y-65582809D01*
X188466674Y-65582809D02*
X188276198Y-65582809D01*
X188895246Y-66011381D02*
X188895246Y-65011381D01*
X188895246Y-65011381D02*
X189466674Y-66011381D01*
X189466674Y-66011381D02*
X189466674Y-65011381D01*
X189942865Y-66011381D02*
X189942865Y-65011381D01*
X189942865Y-65011381D02*
X190180960Y-65011381D01*
X190180960Y-65011381D02*
X190323817Y-65059000D01*
X190323817Y-65059000D02*
X190419055Y-65154238D01*
X190419055Y-65154238D02*
X190466674Y-65249476D01*
X190466674Y-65249476D02*
X190514293Y-65439952D01*
X190514293Y-65439952D02*
X190514293Y-65582809D01*
X190514293Y-65582809D02*
X190466674Y-65773285D01*
X190466674Y-65773285D02*
X190419055Y-65868523D01*
X190419055Y-65868523D02*
X190323817Y-65963762D01*
X190323817Y-65963762D02*
X190180960Y-66011381D01*
X190180960Y-66011381D02*
X189942865Y-66011381D01*
X191990484Y-81251381D02*
X191990484Y-80251381D01*
X191990484Y-80251381D02*
X192371436Y-80251381D01*
X192371436Y-80251381D02*
X192466674Y-80299000D01*
X192466674Y-80299000D02*
X192514293Y-80346619D01*
X192514293Y-80346619D02*
X192561912Y-80441857D01*
X192561912Y-80441857D02*
X192561912Y-80584714D01*
X192561912Y-80584714D02*
X192514293Y-80679952D01*
X192514293Y-80679952D02*
X192466674Y-80727571D01*
X192466674Y-80727571D02*
X192371436Y-80775190D01*
X192371436Y-80775190D02*
X191990484Y-80775190D01*
X193466674Y-80251381D02*
X192990484Y-80251381D01*
X192990484Y-80251381D02*
X192942865Y-80727571D01*
X192942865Y-80727571D02*
X192990484Y-80679952D01*
X192990484Y-80679952D02*
X193085722Y-80632333D01*
X193085722Y-80632333D02*
X193323817Y-80632333D01*
X193323817Y-80632333D02*
X193419055Y-80679952D01*
X193419055Y-80679952D02*
X193466674Y-80727571D01*
X193466674Y-80727571D02*
X193514293Y-80822809D01*
X193514293Y-80822809D02*
X193514293Y-81060904D01*
X193514293Y-81060904D02*
X193466674Y-81156142D01*
X193466674Y-81156142D02*
X193419055Y-81203762D01*
X193419055Y-81203762D02*
X193323817Y-81251381D01*
X193323817Y-81251381D02*
X193085722Y-81251381D01*
X193085722Y-81251381D02*
X192990484Y-81203762D01*
X192990484Y-81203762D02*
X192942865Y-81156142D01*
X180112977Y-60926381D02*
X179779644Y-60450190D01*
X179541549Y-60926381D02*
X179541549Y-59926381D01*
X179541549Y-59926381D02*
X179922501Y-59926381D01*
X179922501Y-59926381D02*
X180017739Y-59974000D01*
X180017739Y-59974000D02*
X180065358Y-60021619D01*
X180065358Y-60021619D02*
X180112977Y-60116857D01*
X180112977Y-60116857D02*
X180112977Y-60259714D01*
X180112977Y-60259714D02*
X180065358Y-60354952D01*
X180065358Y-60354952D02*
X180017739Y-60402571D01*
X180017739Y-60402571D02*
X179922501Y-60450190D01*
X179922501Y-60450190D02*
X179541549Y-60450190D01*
X181589168Y-59926381D02*
X181589168Y-60640666D01*
X181589168Y-60640666D02*
X181541549Y-60783523D01*
X181541549Y-60783523D02*
X181446311Y-60878762D01*
X181446311Y-60878762D02*
X181303454Y-60926381D01*
X181303454Y-60926381D02*
X181208216Y-60926381D01*
X182493930Y-60259714D02*
X182493930Y-60926381D01*
X182065359Y-60259714D02*
X182065359Y-60783523D01*
X182065359Y-60783523D02*
X182112978Y-60878762D01*
X182112978Y-60878762D02*
X182208216Y-60926381D01*
X182208216Y-60926381D02*
X182351073Y-60926381D01*
X182351073Y-60926381D02*
X182446311Y-60878762D01*
X182446311Y-60878762D02*
X182493930Y-60831142D01*
X182970121Y-60926381D02*
X182970121Y-60259714D01*
X182970121Y-60354952D02*
X183017740Y-60307333D01*
X183017740Y-60307333D02*
X183112978Y-60259714D01*
X183112978Y-60259714D02*
X183255835Y-60259714D01*
X183255835Y-60259714D02*
X183351073Y-60307333D01*
X183351073Y-60307333D02*
X183398692Y-60402571D01*
X183398692Y-60402571D02*
X183398692Y-60926381D01*
X183398692Y-60402571D02*
X183446311Y-60307333D01*
X183446311Y-60307333D02*
X183541549Y-60259714D01*
X183541549Y-60259714D02*
X183684406Y-60259714D01*
X183684406Y-60259714D02*
X183779645Y-60307333D01*
X183779645Y-60307333D02*
X183827264Y-60402571D01*
X183827264Y-60402571D02*
X183827264Y-60926381D01*
X184303454Y-60259714D02*
X184303454Y-61259714D01*
X184303454Y-60307333D02*
X184398692Y-60259714D01*
X184398692Y-60259714D02*
X184589168Y-60259714D01*
X184589168Y-60259714D02*
X184684406Y-60307333D01*
X184684406Y-60307333D02*
X184732025Y-60354952D01*
X184732025Y-60354952D02*
X184779644Y-60450190D01*
X184779644Y-60450190D02*
X184779644Y-60735904D01*
X184779644Y-60735904D02*
X184732025Y-60831142D01*
X184732025Y-60831142D02*
X184684406Y-60878762D01*
X184684406Y-60878762D02*
X184589168Y-60926381D01*
X184589168Y-60926381D02*
X184398692Y-60926381D01*
X184398692Y-60926381D02*
X184303454Y-60878762D01*
X185589168Y-60878762D02*
X185493930Y-60926381D01*
X185493930Y-60926381D02*
X185303454Y-60926381D01*
X185303454Y-60926381D02*
X185208216Y-60878762D01*
X185208216Y-60878762D02*
X185160597Y-60783523D01*
X185160597Y-60783523D02*
X185160597Y-60402571D01*
X185160597Y-60402571D02*
X185208216Y-60307333D01*
X185208216Y-60307333D02*
X185303454Y-60259714D01*
X185303454Y-60259714D02*
X185493930Y-60259714D01*
X185493930Y-60259714D02*
X185589168Y-60307333D01*
X185589168Y-60307333D02*
X185636787Y-60402571D01*
X185636787Y-60402571D02*
X185636787Y-60497809D01*
X185636787Y-60497809D02*
X185160597Y-60593047D01*
X186065359Y-60926381D02*
X186065359Y-60259714D01*
X186065359Y-60450190D02*
X186112978Y-60354952D01*
X186112978Y-60354952D02*
X186160597Y-60307333D01*
X186160597Y-60307333D02*
X186255835Y-60259714D01*
X186255835Y-60259714D02*
X186351073Y-60259714D01*
X186636788Y-60878762D02*
X186732026Y-60926381D01*
X186732026Y-60926381D02*
X186922502Y-60926381D01*
X186922502Y-60926381D02*
X187017740Y-60878762D01*
X187017740Y-60878762D02*
X187065359Y-60783523D01*
X187065359Y-60783523D02*
X187065359Y-60735904D01*
X187065359Y-60735904D02*
X187017740Y-60640666D01*
X187017740Y-60640666D02*
X186922502Y-60593047D01*
X186922502Y-60593047D02*
X186779645Y-60593047D01*
X186779645Y-60593047D02*
X186684407Y-60545428D01*
X186684407Y-60545428D02*
X186636788Y-60450190D01*
X186636788Y-60450190D02*
X186636788Y-60402571D01*
X186636788Y-60402571D02*
X186684407Y-60307333D01*
X186684407Y-60307333D02*
X186779645Y-60259714D01*
X186779645Y-60259714D02*
X186922502Y-60259714D01*
X186922502Y-60259714D02*
X187017740Y-60307333D01*
X187541550Y-60878762D02*
X187541550Y-60926381D01*
X187541550Y-60926381D02*
X187493931Y-61021619D01*
X187493931Y-61021619D02*
X187446312Y-61069238D01*
X188732026Y-60926381D02*
X188732026Y-59926381D01*
X188732026Y-59926381D02*
X189065359Y-60640666D01*
X189065359Y-60640666D02*
X189398692Y-59926381D01*
X189398692Y-59926381D02*
X189398692Y-60926381D01*
X190446311Y-60831142D02*
X190398692Y-60878762D01*
X190398692Y-60878762D02*
X190255835Y-60926381D01*
X190255835Y-60926381D02*
X190160597Y-60926381D01*
X190160597Y-60926381D02*
X190017740Y-60878762D01*
X190017740Y-60878762D02*
X189922502Y-60783523D01*
X189922502Y-60783523D02*
X189874883Y-60688285D01*
X189874883Y-60688285D02*
X189827264Y-60497809D01*
X189827264Y-60497809D02*
X189827264Y-60354952D01*
X189827264Y-60354952D02*
X189874883Y-60164476D01*
X189874883Y-60164476D02*
X189922502Y-60069238D01*
X189922502Y-60069238D02*
X190017740Y-59974000D01*
X190017740Y-59974000D02*
X190160597Y-59926381D01*
X190160597Y-59926381D02*
X190255835Y-59926381D01*
X190255835Y-59926381D02*
X190398692Y-59974000D01*
X190398692Y-59974000D02*
X190446311Y-60021619D01*
X190874883Y-59926381D02*
X190874883Y-60735904D01*
X190874883Y-60735904D02*
X190922502Y-60831142D01*
X190922502Y-60831142D02*
X190970121Y-60878762D01*
X190970121Y-60878762D02*
X191065359Y-60926381D01*
X191065359Y-60926381D02*
X191255835Y-60926381D01*
X191255835Y-60926381D02*
X191351073Y-60878762D01*
X191351073Y-60878762D02*
X191398692Y-60831142D01*
X191398692Y-60831142D02*
X191446311Y-60735904D01*
X191446311Y-60735904D02*
X191446311Y-59926381D01*
X192684407Y-60926381D02*
X192684407Y-59926381D01*
X192684407Y-59926381D02*
X192922502Y-59926381D01*
X192922502Y-59926381D02*
X193065359Y-59974000D01*
X193065359Y-59974000D02*
X193160597Y-60069238D01*
X193160597Y-60069238D02*
X193208216Y-60164476D01*
X193208216Y-60164476D02*
X193255835Y-60354952D01*
X193255835Y-60354952D02*
X193255835Y-60497809D01*
X193255835Y-60497809D02*
X193208216Y-60688285D01*
X193208216Y-60688285D02*
X193160597Y-60783523D01*
X193160597Y-60783523D02*
X193065359Y-60878762D01*
X193065359Y-60878762D02*
X192922502Y-60926381D01*
X192922502Y-60926381D02*
X192684407Y-60926381D01*
X193827264Y-60926381D02*
X193732026Y-60878762D01*
X193732026Y-60878762D02*
X193684407Y-60831142D01*
X193684407Y-60831142D02*
X193636788Y-60735904D01*
X193636788Y-60735904D02*
X193636788Y-60450190D01*
X193636788Y-60450190D02*
X193684407Y-60354952D01*
X193684407Y-60354952D02*
X193732026Y-60307333D01*
X193732026Y-60307333D02*
X193827264Y-60259714D01*
X193827264Y-60259714D02*
X193970121Y-60259714D01*
X193970121Y-60259714D02*
X194065359Y-60307333D01*
X194065359Y-60307333D02*
X194112978Y-60354952D01*
X194112978Y-60354952D02*
X194160597Y-60450190D01*
X194160597Y-60450190D02*
X194160597Y-60735904D01*
X194160597Y-60735904D02*
X194112978Y-60831142D01*
X194112978Y-60831142D02*
X194065359Y-60878762D01*
X194065359Y-60878762D02*
X193970121Y-60926381D01*
X193970121Y-60926381D02*
X193827264Y-60926381D01*
X194493931Y-60259714D02*
X194684407Y-60926381D01*
X194684407Y-60926381D02*
X194874883Y-60450190D01*
X194874883Y-60450190D02*
X195065359Y-60926381D01*
X195065359Y-60926381D02*
X195255835Y-60259714D01*
X195636788Y-60259714D02*
X195636788Y-60926381D01*
X195636788Y-60354952D02*
X195684407Y-60307333D01*
X195684407Y-60307333D02*
X195779645Y-60259714D01*
X195779645Y-60259714D02*
X195922502Y-60259714D01*
X195922502Y-60259714D02*
X196017740Y-60307333D01*
X196017740Y-60307333D02*
X196065359Y-60402571D01*
X196065359Y-60402571D02*
X196065359Y-60926381D01*
X191990483Y-91411381D02*
X191990483Y-90411381D01*
X191990483Y-90411381D02*
X192371435Y-90411381D01*
X192371435Y-90411381D02*
X192466673Y-90459000D01*
X192466673Y-90459000D02*
X192514292Y-90506619D01*
X192514292Y-90506619D02*
X192561911Y-90601857D01*
X192561911Y-90601857D02*
X192561911Y-90744714D01*
X192561911Y-90744714D02*
X192514292Y-90839952D01*
X192514292Y-90839952D02*
X192466673Y-90887571D01*
X192466673Y-90887571D02*
X192371435Y-90935190D01*
X192371435Y-90935190D02*
X191990483Y-90935190D01*
X193038102Y-91411381D02*
X193228578Y-91411381D01*
X193228578Y-91411381D02*
X193323816Y-91363762D01*
X193323816Y-91363762D02*
X193371435Y-91316142D01*
X193371435Y-91316142D02*
X193466673Y-91173285D01*
X193466673Y-91173285D02*
X193514292Y-90982809D01*
X193514292Y-90982809D02*
X193514292Y-90601857D01*
X193514292Y-90601857D02*
X193466673Y-90506619D01*
X193466673Y-90506619D02*
X193419054Y-90459000D01*
X193419054Y-90459000D02*
X193323816Y-90411381D01*
X193323816Y-90411381D02*
X193133340Y-90411381D01*
X193133340Y-90411381D02*
X193038102Y-90459000D01*
X193038102Y-90459000D02*
X192990483Y-90506619D01*
X192990483Y-90506619D02*
X192942864Y-90601857D01*
X192942864Y-90601857D02*
X192942864Y-90839952D01*
X192942864Y-90839952D02*
X192990483Y-90935190D01*
X192990483Y-90935190D02*
X193038102Y-90982809D01*
X193038102Y-90982809D02*
X193133340Y-91030428D01*
X193133340Y-91030428D02*
X193323816Y-91030428D01*
X193323816Y-91030428D02*
X193419054Y-90982809D01*
X193419054Y-90982809D02*
X193466673Y-90935190D01*
X193466673Y-90935190D02*
X193514292Y-90839952D01*
X182140233Y-88871381D02*
X182140233Y-87871381D01*
X182140233Y-87871381D02*
X182521185Y-87871381D01*
X182521185Y-87871381D02*
X182616423Y-87919000D01*
X182616423Y-87919000D02*
X182664042Y-87966619D01*
X182664042Y-87966619D02*
X182711661Y-88061857D01*
X182711661Y-88061857D02*
X182711661Y-88204714D01*
X182711661Y-88204714D02*
X182664042Y-88299952D01*
X182664042Y-88299952D02*
X182616423Y-88347571D01*
X182616423Y-88347571D02*
X182521185Y-88395190D01*
X182521185Y-88395190D02*
X182140233Y-88395190D01*
X183664042Y-88871381D02*
X183092614Y-88871381D01*
X183378328Y-88871381D02*
X183378328Y-87871381D01*
X183378328Y-87871381D02*
X183283090Y-88014238D01*
X183283090Y-88014238D02*
X183187852Y-88109476D01*
X183187852Y-88109476D02*
X183092614Y-88157095D01*
X184521185Y-87871381D02*
X184330709Y-87871381D01*
X184330709Y-87871381D02*
X184235471Y-87919000D01*
X184235471Y-87919000D02*
X184187852Y-87966619D01*
X184187852Y-87966619D02*
X184092614Y-88109476D01*
X184092614Y-88109476D02*
X184044995Y-88299952D01*
X184044995Y-88299952D02*
X184044995Y-88680904D01*
X184044995Y-88680904D02*
X184092614Y-88776142D01*
X184092614Y-88776142D02*
X184140233Y-88823762D01*
X184140233Y-88823762D02*
X184235471Y-88871381D01*
X184235471Y-88871381D02*
X184425947Y-88871381D01*
X184425947Y-88871381D02*
X184521185Y-88823762D01*
X184521185Y-88823762D02*
X184568804Y-88776142D01*
X184568804Y-88776142D02*
X184616423Y-88680904D01*
X184616423Y-88680904D02*
X184616423Y-88442809D01*
X184616423Y-88442809D02*
X184568804Y-88347571D01*
X184568804Y-88347571D02*
X184521185Y-88299952D01*
X184521185Y-88299952D02*
X184425947Y-88252333D01*
X184425947Y-88252333D02*
X184235471Y-88252333D01*
X184235471Y-88252333D02*
X184140233Y-88299952D01*
X184140233Y-88299952D02*
X184092614Y-88347571D01*
X184092614Y-88347571D02*
X184044995Y-88442809D01*
X185140233Y-66011379D02*
X185140233Y-65011379D01*
X185140233Y-65011379D02*
X185521185Y-65011379D01*
X185521185Y-65011379D02*
X185616423Y-65058998D01*
X185616423Y-65058998D02*
X185664042Y-65106617D01*
X185664042Y-65106617D02*
X185711661Y-65201855D01*
X185711661Y-65201855D02*
X185711661Y-65344712D01*
X185711661Y-65344712D02*
X185664042Y-65439950D01*
X185664042Y-65439950D02*
X185616423Y-65487569D01*
X185616423Y-65487569D02*
X185521185Y-65535188D01*
X185521185Y-65535188D02*
X185140233Y-65535188D01*
X186330709Y-65011379D02*
X186425947Y-65011379D01*
X186425947Y-65011379D02*
X186521185Y-65058998D01*
X186521185Y-65058998D02*
X186568804Y-65106617D01*
X186568804Y-65106617D02*
X186616423Y-65201855D01*
X186616423Y-65201855D02*
X186664042Y-65392331D01*
X186664042Y-65392331D02*
X186664042Y-65630426D01*
X186664042Y-65630426D02*
X186616423Y-65820902D01*
X186616423Y-65820902D02*
X186568804Y-65916140D01*
X186568804Y-65916140D02*
X186521185Y-65963760D01*
X186521185Y-65963760D02*
X186425947Y-66011379D01*
X186425947Y-66011379D02*
X186330709Y-66011379D01*
X186330709Y-66011379D02*
X186235471Y-65963760D01*
X186235471Y-65963760D02*
X186187852Y-65916140D01*
X186187852Y-65916140D02*
X186140233Y-65820902D01*
X186140233Y-65820902D02*
X186092614Y-65630426D01*
X186092614Y-65630426D02*
X186092614Y-65392331D01*
X186092614Y-65392331D02*
X186140233Y-65201855D01*
X186140233Y-65201855D02*
X186187852Y-65106617D01*
X186187852Y-65106617D02*
X186235471Y-65058998D01*
X186235471Y-65058998D02*
X186330709Y-65011379D01*
X182140233Y-91411382D02*
X182140233Y-90411382D01*
X182140233Y-90411382D02*
X182521185Y-90411382D01*
X182521185Y-90411382D02*
X182616423Y-90459001D01*
X182616423Y-90459001D02*
X182664042Y-90506620D01*
X182664042Y-90506620D02*
X182711661Y-90601858D01*
X182711661Y-90601858D02*
X182711661Y-90744715D01*
X182711661Y-90744715D02*
X182664042Y-90839953D01*
X182664042Y-90839953D02*
X182616423Y-90887572D01*
X182616423Y-90887572D02*
X182521185Y-90935191D01*
X182521185Y-90935191D02*
X182140233Y-90935191D01*
X183664042Y-91411382D02*
X183092614Y-91411382D01*
X183378328Y-91411382D02*
X183378328Y-90411382D01*
X183378328Y-90411382D02*
X183283090Y-90554239D01*
X183283090Y-90554239D02*
X183187852Y-90649477D01*
X183187852Y-90649477D02*
X183092614Y-90697096D01*
X184283090Y-90411382D02*
X184378328Y-90411382D01*
X184378328Y-90411382D02*
X184473566Y-90459001D01*
X184473566Y-90459001D02*
X184521185Y-90506620D01*
X184521185Y-90506620D02*
X184568804Y-90601858D01*
X184568804Y-90601858D02*
X184616423Y-90792334D01*
X184616423Y-90792334D02*
X184616423Y-91030429D01*
X184616423Y-91030429D02*
X184568804Y-91220905D01*
X184568804Y-91220905D02*
X184521185Y-91316143D01*
X184521185Y-91316143D02*
X184473566Y-91363763D01*
X184473566Y-91363763D02*
X184378328Y-91411382D01*
X184378328Y-91411382D02*
X184283090Y-91411382D01*
X184283090Y-91411382D02*
X184187852Y-91363763D01*
X184187852Y-91363763D02*
X184140233Y-91316143D01*
X184140233Y-91316143D02*
X184092614Y-91220905D01*
X184092614Y-91220905D02*
X184044995Y-91030429D01*
X184044995Y-91030429D02*
X184044995Y-90792334D01*
X184044995Y-90792334D02*
X184092614Y-90601858D01*
X184092614Y-90601858D02*
X184140233Y-90506620D01*
X184140233Y-90506620D02*
X184187852Y-90459001D01*
X184187852Y-90459001D02*
X184283090Y-90411382D01*
X185664042Y-70139000D02*
X185568804Y-70091381D01*
X185568804Y-70091381D02*
X185425947Y-70091381D01*
X185425947Y-70091381D02*
X185283090Y-70139000D01*
X185283090Y-70139000D02*
X185187852Y-70234238D01*
X185187852Y-70234238D02*
X185140233Y-70329476D01*
X185140233Y-70329476D02*
X185092614Y-70519952D01*
X185092614Y-70519952D02*
X185092614Y-70662809D01*
X185092614Y-70662809D02*
X185140233Y-70853285D01*
X185140233Y-70853285D02*
X185187852Y-70948523D01*
X185187852Y-70948523D02*
X185283090Y-71043762D01*
X185283090Y-71043762D02*
X185425947Y-71091381D01*
X185425947Y-71091381D02*
X185521185Y-71091381D01*
X185521185Y-71091381D02*
X185664042Y-71043762D01*
X185664042Y-71043762D02*
X185711661Y-70996142D01*
X185711661Y-70996142D02*
X185711661Y-70662809D01*
X185711661Y-70662809D02*
X185521185Y-70662809D01*
X186140233Y-71091381D02*
X186140233Y-70091381D01*
X186140233Y-70091381D02*
X186711661Y-71091381D01*
X186711661Y-71091381D02*
X186711661Y-70091381D01*
X187187852Y-71091381D02*
X187187852Y-70091381D01*
X187187852Y-70091381D02*
X187425947Y-70091381D01*
X187425947Y-70091381D02*
X187568804Y-70139000D01*
X187568804Y-70139000D02*
X187664042Y-70234238D01*
X187664042Y-70234238D02*
X187711661Y-70329476D01*
X187711661Y-70329476D02*
X187759280Y-70519952D01*
X187759280Y-70519952D02*
X187759280Y-70662809D01*
X187759280Y-70662809D02*
X187711661Y-70853285D01*
X187711661Y-70853285D02*
X187664042Y-70948523D01*
X187664042Y-70948523D02*
X187568804Y-71043762D01*
X187568804Y-71043762D02*
X187425947Y-71091381D01*
X187425947Y-71091381D02*
X187187852Y-71091381D01*
X182140233Y-76171381D02*
X182140233Y-75171381D01*
X182140233Y-75171381D02*
X182521185Y-75171381D01*
X182521185Y-75171381D02*
X182616423Y-75219000D01*
X182616423Y-75219000D02*
X182664042Y-75266619D01*
X182664042Y-75266619D02*
X182711661Y-75361857D01*
X182711661Y-75361857D02*
X182711661Y-75504714D01*
X182711661Y-75504714D02*
X182664042Y-75599952D01*
X182664042Y-75599952D02*
X182616423Y-75647571D01*
X182616423Y-75647571D02*
X182521185Y-75695190D01*
X182521185Y-75695190D02*
X182140233Y-75695190D01*
X183092614Y-75266619D02*
X183140233Y-75219000D01*
X183140233Y-75219000D02*
X183235471Y-75171381D01*
X183235471Y-75171381D02*
X183473566Y-75171381D01*
X183473566Y-75171381D02*
X183568804Y-75219000D01*
X183568804Y-75219000D02*
X183616423Y-75266619D01*
X183616423Y-75266619D02*
X183664042Y-75361857D01*
X183664042Y-75361857D02*
X183664042Y-75457095D01*
X183664042Y-75457095D02*
X183616423Y-75599952D01*
X183616423Y-75599952D02*
X183044995Y-76171381D01*
X183044995Y-76171381D02*
X183664042Y-76171381D01*
X184283090Y-75171381D02*
X184378328Y-75171381D01*
X184378328Y-75171381D02*
X184473566Y-75219000D01*
X184473566Y-75219000D02*
X184521185Y-75266619D01*
X184521185Y-75266619D02*
X184568804Y-75361857D01*
X184568804Y-75361857D02*
X184616423Y-75552333D01*
X184616423Y-75552333D02*
X184616423Y-75790428D01*
X184616423Y-75790428D02*
X184568804Y-75980904D01*
X184568804Y-75980904D02*
X184521185Y-76076142D01*
X184521185Y-76076142D02*
X184473566Y-76123762D01*
X184473566Y-76123762D02*
X184378328Y-76171381D01*
X184378328Y-76171381D02*
X184283090Y-76171381D01*
X184283090Y-76171381D02*
X184187852Y-76123762D01*
X184187852Y-76123762D02*
X184140233Y-76076142D01*
X184140233Y-76076142D02*
X184092614Y-75980904D01*
X184092614Y-75980904D02*
X184044995Y-75790428D01*
X184044995Y-75790428D02*
X184044995Y-75552333D01*
X184044995Y-75552333D02*
X184092614Y-75361857D01*
X184092614Y-75361857D02*
X184140233Y-75266619D01*
X184140233Y-75266619D02*
X184187852Y-75219000D01*
X184187852Y-75219000D02*
X184283090Y-75171381D01*
X185140233Y-63471382D02*
X185140233Y-62471382D01*
X185140233Y-62471382D02*
X185521185Y-62471382D01*
X185521185Y-62471382D02*
X185616423Y-62519001D01*
X185616423Y-62519001D02*
X185664042Y-62566620D01*
X185664042Y-62566620D02*
X185711661Y-62661858D01*
X185711661Y-62661858D02*
X185711661Y-62804715D01*
X185711661Y-62804715D02*
X185664042Y-62899953D01*
X185664042Y-62899953D02*
X185616423Y-62947572D01*
X185616423Y-62947572D02*
X185521185Y-62995191D01*
X185521185Y-62995191D02*
X185140233Y-62995191D01*
X186664042Y-63471382D02*
X186092614Y-63471382D01*
X186378328Y-63471382D02*
X186378328Y-62471382D01*
X186378328Y-62471382D02*
X186283090Y-62614239D01*
X186283090Y-62614239D02*
X186187852Y-62709477D01*
X186187852Y-62709477D02*
X186092614Y-62757096D01*
X191990484Y-88871381D02*
X191990484Y-87871381D01*
X191990484Y-87871381D02*
X192371436Y-87871381D01*
X192371436Y-87871381D02*
X192466674Y-87919000D01*
X192466674Y-87919000D02*
X192514293Y-87966619D01*
X192514293Y-87966619D02*
X192561912Y-88061857D01*
X192561912Y-88061857D02*
X192561912Y-88204714D01*
X192561912Y-88204714D02*
X192514293Y-88299952D01*
X192514293Y-88299952D02*
X192466674Y-88347571D01*
X192466674Y-88347571D02*
X192371436Y-88395190D01*
X192371436Y-88395190D02*
X191990484Y-88395190D01*
X193133341Y-88299952D02*
X193038103Y-88252333D01*
X193038103Y-88252333D02*
X192990484Y-88204714D01*
X192990484Y-88204714D02*
X192942865Y-88109476D01*
X192942865Y-88109476D02*
X192942865Y-88061857D01*
X192942865Y-88061857D02*
X192990484Y-87966619D01*
X192990484Y-87966619D02*
X193038103Y-87919000D01*
X193038103Y-87919000D02*
X193133341Y-87871381D01*
X193133341Y-87871381D02*
X193323817Y-87871381D01*
X193323817Y-87871381D02*
X193419055Y-87919000D01*
X193419055Y-87919000D02*
X193466674Y-87966619D01*
X193466674Y-87966619D02*
X193514293Y-88061857D01*
X193514293Y-88061857D02*
X193514293Y-88109476D01*
X193514293Y-88109476D02*
X193466674Y-88204714D01*
X193466674Y-88204714D02*
X193419055Y-88252333D01*
X193419055Y-88252333D02*
X193323817Y-88299952D01*
X193323817Y-88299952D02*
X193133341Y-88299952D01*
X193133341Y-88299952D02*
X193038103Y-88347571D01*
X193038103Y-88347571D02*
X192990484Y-88395190D01*
X192990484Y-88395190D02*
X192942865Y-88490428D01*
X192942865Y-88490428D02*
X192942865Y-88680904D01*
X192942865Y-88680904D02*
X192990484Y-88776142D01*
X192990484Y-88776142D02*
X193038103Y-88823762D01*
X193038103Y-88823762D02*
X193133341Y-88871381D01*
X193133341Y-88871381D02*
X193323817Y-88871381D01*
X193323817Y-88871381D02*
X193419055Y-88823762D01*
X193419055Y-88823762D02*
X193466674Y-88776142D01*
X193466674Y-88776142D02*
X193514293Y-88680904D01*
X193514293Y-88680904D02*
X193514293Y-88490428D01*
X193514293Y-88490428D02*
X193466674Y-88395190D01*
X193466674Y-88395190D02*
X193419055Y-88347571D01*
X193419055Y-88347571D02*
X193323817Y-88299952D01*
X182140233Y-78711381D02*
X182140233Y-77711381D01*
X182140233Y-77711381D02*
X182521185Y-77711381D01*
X182521185Y-77711381D02*
X182616423Y-77759000D01*
X182616423Y-77759000D02*
X182664042Y-77806619D01*
X182664042Y-77806619D02*
X182711661Y-77901857D01*
X182711661Y-77901857D02*
X182711661Y-78044714D01*
X182711661Y-78044714D02*
X182664042Y-78139952D01*
X182664042Y-78139952D02*
X182616423Y-78187571D01*
X182616423Y-78187571D02*
X182521185Y-78235190D01*
X182521185Y-78235190D02*
X182140233Y-78235190D01*
X183664042Y-78711381D02*
X183092614Y-78711381D01*
X183378328Y-78711381D02*
X183378328Y-77711381D01*
X183378328Y-77711381D02*
X183283090Y-77854238D01*
X183283090Y-77854238D02*
X183187852Y-77949476D01*
X183187852Y-77949476D02*
X183092614Y-77997095D01*
X184140233Y-78711381D02*
X184330709Y-78711381D01*
X184330709Y-78711381D02*
X184425947Y-78663762D01*
X184425947Y-78663762D02*
X184473566Y-78616142D01*
X184473566Y-78616142D02*
X184568804Y-78473285D01*
X184568804Y-78473285D02*
X184616423Y-78282809D01*
X184616423Y-78282809D02*
X184616423Y-77901857D01*
X184616423Y-77901857D02*
X184568804Y-77806619D01*
X184568804Y-77806619D02*
X184521185Y-77759000D01*
X184521185Y-77759000D02*
X184425947Y-77711381D01*
X184425947Y-77711381D02*
X184235471Y-77711381D01*
X184235471Y-77711381D02*
X184140233Y-77759000D01*
X184140233Y-77759000D02*
X184092614Y-77806619D01*
X184092614Y-77806619D02*
X184044995Y-77901857D01*
X184044995Y-77901857D02*
X184044995Y-78139952D01*
X184044995Y-78139952D02*
X184092614Y-78235190D01*
X184092614Y-78235190D02*
X184140233Y-78282809D01*
X184140233Y-78282809D02*
X184235471Y-78330428D01*
X184235471Y-78330428D02*
X184425947Y-78330428D01*
X184425947Y-78330428D02*
X184521185Y-78282809D01*
X184521185Y-78282809D02*
X184568804Y-78235190D01*
X184568804Y-78235190D02*
X184616423Y-78139952D01*
X188800007Y-68551381D02*
X188466674Y-68075190D01*
X188228579Y-68551381D02*
X188228579Y-67551381D01*
X188228579Y-67551381D02*
X188609531Y-67551381D01*
X188609531Y-67551381D02*
X188704769Y-67599000D01*
X188704769Y-67599000D02*
X188752388Y-67646619D01*
X188752388Y-67646619D02*
X188800007Y-67741857D01*
X188800007Y-67741857D02*
X188800007Y-67884714D01*
X188800007Y-67884714D02*
X188752388Y-67979952D01*
X188752388Y-67979952D02*
X188704769Y-68027571D01*
X188704769Y-68027571D02*
X188609531Y-68075190D01*
X188609531Y-68075190D02*
X188228579Y-68075190D01*
X189180960Y-68503762D02*
X189323817Y-68551381D01*
X189323817Y-68551381D02*
X189561912Y-68551381D01*
X189561912Y-68551381D02*
X189657150Y-68503762D01*
X189657150Y-68503762D02*
X189704769Y-68456142D01*
X189704769Y-68456142D02*
X189752388Y-68360904D01*
X189752388Y-68360904D02*
X189752388Y-68265666D01*
X189752388Y-68265666D02*
X189704769Y-68170428D01*
X189704769Y-68170428D02*
X189657150Y-68122809D01*
X189657150Y-68122809D02*
X189561912Y-68075190D01*
X189561912Y-68075190D02*
X189371436Y-68027571D01*
X189371436Y-68027571D02*
X189276198Y-67979952D01*
X189276198Y-67979952D02*
X189228579Y-67932333D01*
X189228579Y-67932333D02*
X189180960Y-67837095D01*
X189180960Y-67837095D02*
X189180960Y-67741857D01*
X189180960Y-67741857D02*
X189228579Y-67646619D01*
X189228579Y-67646619D02*
X189276198Y-67599000D01*
X189276198Y-67599000D02*
X189371436Y-67551381D01*
X189371436Y-67551381D02*
X189609531Y-67551381D01*
X189609531Y-67551381D02*
X189752388Y-67599000D01*
X190038103Y-67551381D02*
X190609531Y-67551381D01*
X190323817Y-68551381D02*
X190323817Y-67551381D01*
D11*
%TO.C,G\u002A\u002A\u002A*%
G36*
X111896997Y-113901429D02*
G01*
X111896997Y-114201576D01*
X111796948Y-114201576D01*
X111696898Y-114201576D01*
X111696898Y-113901429D01*
X111696898Y-113601281D01*
X111796948Y-113601281D01*
X111896997Y-113601281D01*
X111896997Y-113901429D01*
G37*
G36*
X115098573Y-114601773D02*
G01*
X115098573Y-115001970D01*
X114998523Y-115001970D01*
X114898474Y-115001970D01*
X114898474Y-114601773D01*
X114898474Y-114201576D01*
X114998523Y-114201576D01*
X115098573Y-114201576D01*
X115098573Y-114601773D01*
G37*
G36*
X116099065Y-114101527D02*
G01*
X116099065Y-114201576D01*
X115798917Y-114201576D01*
X115498769Y-114201576D01*
X115498769Y-114101527D01*
X115498769Y-114001478D01*
X115798917Y-114001478D01*
X116099065Y-114001478D01*
X116099065Y-114101527D01*
G37*
G36*
X117299656Y-114901921D02*
G01*
X117299656Y-115001970D01*
X117099557Y-115001970D01*
X116899459Y-115001970D01*
X116899459Y-114901921D01*
X116899459Y-114801872D01*
X117099557Y-114801872D01*
X117299656Y-114801872D01*
X117299656Y-114901921D01*
G37*
G36*
X118300148Y-114101527D02*
G01*
X118300148Y-114201576D01*
X118000000Y-114201576D01*
X117699853Y-114201576D01*
X117699853Y-114101527D01*
X117699853Y-114001478D01*
X118000000Y-114001478D01*
X118300148Y-114001478D01*
X118300148Y-114101527D01*
G37*
G36*
X119700837Y-114601773D02*
G01*
X119700837Y-115001970D01*
X119600788Y-115001970D01*
X119500739Y-115001970D01*
X119500739Y-114601773D01*
X119500739Y-114201576D01*
X119600788Y-114201576D01*
X119700837Y-114201576D01*
X119700837Y-114601773D01*
G37*
G36*
X121101527Y-110499755D02*
G01*
X121101527Y-110599804D01*
X121001478Y-110599804D01*
X120901428Y-110599804D01*
X120901428Y-110499755D01*
X120901428Y-110399705D01*
X121001478Y-110399705D01*
X121101527Y-110399705D01*
X121101527Y-110499755D01*
G37*
G36*
X121101527Y-114301626D02*
G01*
X121101527Y-114401675D01*
X120801379Y-114401675D01*
X120501231Y-114401675D01*
X120501231Y-114301626D01*
X120501231Y-114201576D01*
X120801379Y-114201576D01*
X121101527Y-114201576D01*
X121101527Y-114301626D01*
G37*
G36*
X122302118Y-114901921D02*
G01*
X122302118Y-115001970D01*
X122102019Y-115001970D01*
X121901921Y-115001970D01*
X121901921Y-114901921D01*
X121901921Y-114801872D01*
X122102019Y-114801872D01*
X122302118Y-114801872D01*
X122302118Y-114901921D01*
G37*
G36*
X122902413Y-113701330D02*
G01*
X122902413Y-113801379D01*
X122802364Y-113801379D01*
X122702315Y-113801379D01*
X122702315Y-113701330D01*
X122702315Y-113601281D01*
X122802364Y-113601281D01*
X122902413Y-113601281D01*
X122902413Y-113701330D01*
G37*
G36*
X123302610Y-110699853D02*
G01*
X123302610Y-110799902D01*
X123102511Y-110799902D01*
X122902413Y-110799902D01*
X122902413Y-110699853D01*
X122902413Y-110599804D01*
X123102511Y-110599804D01*
X123302610Y-110599804D01*
X123302610Y-110699853D01*
G37*
G36*
X123902905Y-114901921D02*
G01*
X123902905Y-115001970D01*
X123602758Y-115001970D01*
X123302610Y-115001970D01*
X123302610Y-114901921D01*
X123302610Y-114801872D01*
X123602758Y-114801872D01*
X123902905Y-114801872D01*
X123902905Y-114901921D01*
G37*
G36*
X126304087Y-114901921D02*
G01*
X126304087Y-115001970D01*
X126003939Y-115001970D01*
X125703792Y-115001970D01*
X125703792Y-114901921D01*
X125703792Y-114801872D01*
X126003939Y-114801872D01*
X126304087Y-114801872D01*
X126304087Y-114901921D01*
G37*
G36*
X126904382Y-114201576D02*
G01*
X126904382Y-114801872D01*
X126804333Y-114801872D01*
X126704284Y-114801872D01*
X126704284Y-114201576D01*
X126704284Y-113601281D01*
X126804333Y-113601281D01*
X126904382Y-113601281D01*
X126904382Y-114201576D01*
G37*
G36*
X127104481Y-114901921D02*
G01*
X127104481Y-115001970D01*
X127004432Y-115001970D01*
X126904382Y-115001970D01*
X126904382Y-114901921D01*
X126904382Y-114801872D01*
X127004432Y-114801872D01*
X127104481Y-114801872D01*
X127104481Y-114901921D01*
G37*
G36*
X122902413Y-114501724D02*
G01*
X122902413Y-115001970D01*
X122802364Y-115001970D01*
X122702315Y-115001970D01*
X122702315Y-114601773D01*
X122702315Y-114201576D01*
X122602265Y-114201576D01*
X122502216Y-114201576D01*
X122502216Y-114101527D01*
X122502216Y-114001478D01*
X122702315Y-114001478D01*
X122902413Y-114001478D01*
X122902413Y-114501724D01*
G37*
G36*
X124703299Y-109899459D02*
G01*
X124703299Y-110199607D01*
X124503201Y-110199607D01*
X124303102Y-110199607D01*
X124303102Y-110099558D01*
X124303102Y-109999508D01*
X124403152Y-109999508D01*
X124503201Y-109999508D01*
X124503201Y-109799410D01*
X124503201Y-109599311D01*
X124603250Y-109599311D01*
X124703299Y-109599311D01*
X124703299Y-109899459D01*
G37*
G36*
X112097095Y-110699853D02*
G01*
X112097095Y-111400198D01*
X112197145Y-111400198D01*
X112297194Y-111400198D01*
X112297194Y-111500247D01*
X112297194Y-111600296D01*
X112097095Y-111600296D01*
X111896997Y-111600296D01*
X111896997Y-111500247D01*
X111896997Y-111400198D01*
X111796948Y-111400198D01*
X111696898Y-111400198D01*
X111696898Y-110699853D01*
X111696898Y-109999508D01*
X111896997Y-109999508D01*
X112097095Y-109999508D01*
X112097095Y-110699853D01*
G37*
G36*
X121301625Y-109899459D02*
G01*
X121301625Y-109999508D01*
X121101527Y-109999508D01*
X120901428Y-109999508D01*
X120901428Y-110199607D01*
X120901428Y-110399705D01*
X120801379Y-110399705D01*
X120701330Y-110399705D01*
X120701330Y-110199607D01*
X120701330Y-109999508D01*
X120801379Y-109999508D01*
X120901428Y-109999508D01*
X120901428Y-109899459D01*
X120901428Y-109799410D01*
X121101527Y-109799410D01*
X121301625Y-109799410D01*
X121301625Y-109899459D01*
G37*
G36*
X121301625Y-113701330D02*
G01*
X121301625Y-113801379D01*
X120901428Y-113801379D01*
X120501231Y-113801379D01*
X120501231Y-114001478D01*
X120501231Y-114201576D01*
X120401182Y-114201576D01*
X120301133Y-114201576D01*
X120301133Y-114001478D01*
X120301133Y-113801379D01*
X120401182Y-113801379D01*
X120501231Y-113801379D01*
X120501231Y-113701330D01*
X120501231Y-113601281D01*
X120901428Y-113601281D01*
X121301625Y-113601281D01*
X121301625Y-113701330D01*
G37*
G36*
X121301625Y-114601773D02*
G01*
X121301625Y-114801872D01*
X121201576Y-114801872D01*
X121101527Y-114801872D01*
X121101527Y-114901921D01*
X121101527Y-115001970D01*
X120701330Y-115001970D01*
X120301133Y-115001970D01*
X120301133Y-114901921D01*
X120301133Y-114801872D01*
X120701330Y-114801872D01*
X121101527Y-114801872D01*
X121101527Y-114601773D01*
X121101527Y-114401675D01*
X121201576Y-114401675D01*
X121301625Y-114401675D01*
X121301625Y-114601773D01*
G37*
G36*
X123502708Y-111200099D02*
G01*
X123502708Y-111400198D01*
X123602758Y-111400198D01*
X123702807Y-111400198D01*
X123702807Y-111700345D01*
X123702807Y-112000493D01*
X123802856Y-112000493D01*
X123902905Y-112000493D01*
X123902905Y-112100542D01*
X123902905Y-112200592D01*
X123602758Y-112200592D01*
X123302610Y-112200592D01*
X123302610Y-111600296D01*
X123302610Y-111000001D01*
X123402659Y-111000001D01*
X123502708Y-111000001D01*
X123502708Y-111200099D01*
G37*
G36*
X124303102Y-110899952D02*
G01*
X124303102Y-111000001D01*
X124503201Y-111000001D01*
X124703299Y-111000001D01*
X124703299Y-111100050D01*
X124703299Y-111200099D01*
X124303102Y-111200099D01*
X123902905Y-111200099D01*
X123902905Y-111100050D01*
X123902905Y-111000001D01*
X124002955Y-111000001D01*
X124103004Y-111000001D01*
X124103004Y-110899952D01*
X124103004Y-110799902D01*
X124203053Y-110799902D01*
X124303102Y-110799902D01*
X124303102Y-110899952D01*
G37*
G36*
X124903398Y-110299656D02*
G01*
X124903398Y-110399705D01*
X124803349Y-110399705D01*
X124703299Y-110399705D01*
X124703299Y-110499755D01*
X124703299Y-110599804D01*
X124603250Y-110599804D01*
X124503201Y-110599804D01*
X124503201Y-110499755D01*
X124503201Y-110399705D01*
X124603250Y-110399705D01*
X124703299Y-110399705D01*
X124703299Y-110299656D01*
X124703299Y-110199607D01*
X124803349Y-110199607D01*
X124903398Y-110199607D01*
X124903398Y-110299656D01*
G37*
G36*
X114298179Y-114101527D02*
G01*
X114298179Y-114201576D01*
X114398228Y-114201576D01*
X114498277Y-114201576D01*
X114498277Y-114101527D01*
X114498277Y-114001478D01*
X114698376Y-114001478D01*
X114898474Y-114001478D01*
X114898474Y-114101527D01*
X114898474Y-114201576D01*
X114698376Y-114201576D01*
X114498277Y-114201576D01*
X114498277Y-114301626D01*
X114498277Y-114401675D01*
X114398228Y-114401675D01*
X114298179Y-114401675D01*
X114298179Y-114701823D01*
X114298179Y-115001970D01*
X114198129Y-115001970D01*
X114098080Y-115001970D01*
X114098080Y-114501724D01*
X114098080Y-114001478D01*
X114198129Y-114001478D01*
X114298179Y-114001478D01*
X114298179Y-114101527D01*
G37*
G36*
X116899459Y-113801379D02*
G01*
X116899459Y-114001478D01*
X117099557Y-114001478D01*
X117299656Y-114001478D01*
X117299656Y-114101527D01*
X117299656Y-114201576D01*
X117099557Y-114201576D01*
X116899459Y-114201576D01*
X116899459Y-114501724D01*
X116899459Y-114801872D01*
X116799410Y-114801872D01*
X116699360Y-114801872D01*
X116699360Y-114501724D01*
X116699360Y-114201576D01*
X116599311Y-114201576D01*
X116499262Y-114201576D01*
X116499262Y-114101527D01*
X116499262Y-114001478D01*
X116599311Y-114001478D01*
X116699360Y-114001478D01*
X116699360Y-113801379D01*
X116699360Y-113601281D01*
X116799410Y-113601281D01*
X116899459Y-113601281D01*
X116899459Y-113801379D01*
G37*
G36*
X117499754Y-110499755D02*
G01*
X117499754Y-110599804D01*
X117599803Y-110599804D01*
X117699853Y-110599804D01*
X117699853Y-110799902D01*
X117699853Y-111000001D01*
X117499754Y-111000001D01*
X117299656Y-111000001D01*
X117299656Y-110899952D01*
X117299656Y-110799902D01*
X117199607Y-110799902D01*
X117099557Y-110799902D01*
X117099557Y-111200099D01*
X117099557Y-111600296D01*
X116899459Y-111600296D01*
X116699360Y-111600296D01*
X116699360Y-111100050D01*
X116699360Y-110599804D01*
X116799410Y-110599804D01*
X116899459Y-110599804D01*
X116899459Y-110499755D01*
X116899459Y-110399705D01*
X117199607Y-110399705D01*
X117499754Y-110399705D01*
X117499754Y-110499755D01*
G37*
G36*
X118900444Y-114101527D02*
G01*
X118900444Y-114201576D01*
X119000493Y-114201576D01*
X119100542Y-114201576D01*
X119100542Y-114101527D01*
X119100542Y-114001478D01*
X119300640Y-114001478D01*
X119500739Y-114001478D01*
X119500739Y-114101527D01*
X119500739Y-114201576D01*
X119300640Y-114201576D01*
X119100542Y-114201576D01*
X119100542Y-114301626D01*
X119100542Y-114401675D01*
X119000493Y-114401675D01*
X118900444Y-114401675D01*
X118900444Y-114701823D01*
X118900444Y-115001970D01*
X118800394Y-115001970D01*
X118700345Y-115001970D01*
X118700345Y-114501724D01*
X118700345Y-114001478D01*
X118800394Y-114001478D01*
X118900444Y-114001478D01*
X118900444Y-114101527D01*
G37*
G36*
X121901921Y-113801379D02*
G01*
X121901921Y-114001478D01*
X122102019Y-114001478D01*
X122302118Y-114001478D01*
X122302118Y-114101527D01*
X122302118Y-114201576D01*
X122102019Y-114201576D01*
X121901921Y-114201576D01*
X121901921Y-114501724D01*
X121901921Y-114801872D01*
X121801871Y-114801872D01*
X121701822Y-114801872D01*
X121701822Y-114501724D01*
X121701822Y-114201576D01*
X121601773Y-114201576D01*
X121501724Y-114201576D01*
X121501724Y-114101527D01*
X121501724Y-114001478D01*
X121601773Y-114001478D01*
X121701822Y-114001478D01*
X121701822Y-113801379D01*
X121701822Y-113601281D01*
X121801871Y-113601281D01*
X121901921Y-113601281D01*
X121901921Y-113801379D01*
G37*
G36*
X123502708Y-109399213D02*
G01*
X123502708Y-109599311D01*
X123402659Y-109599311D01*
X123302610Y-109599311D01*
X123302610Y-109799410D01*
X123302610Y-109999508D01*
X123102511Y-109999508D01*
X122902413Y-109999508D01*
X122902413Y-109899459D01*
X122902413Y-109799410D01*
X123002462Y-109799410D01*
X123102511Y-109799410D01*
X123102511Y-109699361D01*
X123102511Y-109599311D01*
X122802364Y-109599311D01*
X122502216Y-109599311D01*
X122502216Y-109499262D01*
X122502216Y-109399213D01*
X122602265Y-109399213D01*
X122702315Y-109399213D01*
X122702315Y-109299164D01*
X122702315Y-109199115D01*
X123102511Y-109199115D01*
X123502708Y-109199115D01*
X123502708Y-109399213D01*
G37*
G36*
X116299163Y-114601773D02*
G01*
X116299163Y-115001970D01*
X115898966Y-115001970D01*
X115498769Y-115001970D01*
X115498769Y-114901921D01*
X115498769Y-114801872D01*
X115398720Y-114801872D01*
X115298671Y-114801872D01*
X115298671Y-114701823D01*
X115298671Y-114601773D01*
X115398720Y-114601773D01*
X115498769Y-114601773D01*
X115498769Y-114701823D01*
X115498769Y-114801872D01*
X115798917Y-114801872D01*
X116099065Y-114801872D01*
X116099065Y-114701823D01*
X116099065Y-114601773D01*
X115798917Y-114601773D01*
X115498769Y-114601773D01*
X115498769Y-114501724D01*
X115498769Y-114401675D01*
X115798917Y-114401675D01*
X116099065Y-114401675D01*
X116099065Y-114301626D01*
X116099065Y-114201576D01*
X116199114Y-114201576D01*
X116299163Y-114201576D01*
X116299163Y-114601773D01*
G37*
G36*
X118500247Y-114601773D02*
G01*
X118500247Y-115001970D01*
X118100050Y-115001970D01*
X117699853Y-115001970D01*
X117699853Y-114901921D01*
X117699853Y-114801872D01*
X117599803Y-114801872D01*
X117499754Y-114801872D01*
X117499754Y-114701823D01*
X117499754Y-114601773D01*
X117599803Y-114601773D01*
X117699853Y-114601773D01*
X117699853Y-114701823D01*
X117699853Y-114801872D01*
X118000000Y-114801872D01*
X118300148Y-114801872D01*
X118300148Y-114701823D01*
X118300148Y-114601773D01*
X118000000Y-114601773D01*
X117699853Y-114601773D01*
X117699853Y-114501724D01*
X117699853Y-114401675D01*
X118000000Y-114401675D01*
X118300148Y-114401675D01*
X118300148Y-114301626D01*
X118300148Y-114201576D01*
X118400197Y-114201576D01*
X118500247Y-114201576D01*
X118500247Y-114601773D01*
G37*
G36*
X118900444Y-110599804D02*
G01*
X118900444Y-111200099D01*
X119100542Y-111200099D01*
X119300640Y-111200099D01*
X119300640Y-111400198D01*
X119300640Y-111600296D01*
X118700345Y-111600296D01*
X118100050Y-111600296D01*
X118100050Y-111400198D01*
X118100050Y-111200099D01*
X118300148Y-111200099D01*
X118500247Y-111200099D01*
X118500247Y-110899952D01*
X118500247Y-110599804D01*
X118300148Y-110599804D01*
X118100050Y-110599804D01*
X118100050Y-110499755D01*
X118100050Y-110399705D01*
X118200099Y-110399705D01*
X118300148Y-110399705D01*
X118300148Y-110299656D01*
X118300148Y-110199607D01*
X118400197Y-110199607D01*
X118500247Y-110199607D01*
X118500247Y-110099558D01*
X118500247Y-109999508D01*
X118700345Y-109999508D01*
X118900444Y-109999508D01*
X118900444Y-110599804D01*
G37*
G36*
X123902905Y-114101527D02*
G01*
X123902905Y-114201576D01*
X123602758Y-114201576D01*
X123302610Y-114201576D01*
X123302610Y-114301626D01*
X123302610Y-114401675D01*
X123602758Y-114401675D01*
X123902905Y-114401675D01*
X123902905Y-114301626D01*
X123902905Y-114201576D01*
X124002955Y-114201576D01*
X124103004Y-114201576D01*
X124103004Y-114401675D01*
X124103004Y-114601773D01*
X123702807Y-114601773D01*
X123302610Y-114601773D01*
X123302610Y-114701823D01*
X123302610Y-114801872D01*
X123202561Y-114801872D01*
X123102511Y-114801872D01*
X123102511Y-114501724D01*
X123102511Y-114201576D01*
X123202561Y-114201576D01*
X123302610Y-114201576D01*
X123302610Y-114101527D01*
X123302610Y-114001478D01*
X123602758Y-114001478D01*
X123902905Y-114001478D01*
X123902905Y-114101527D01*
G37*
G36*
X124503201Y-113801379D02*
G01*
X124503201Y-114001478D01*
X124803349Y-114001478D01*
X125103496Y-114001478D01*
X125103496Y-114101527D01*
X125103496Y-114201576D01*
X124803349Y-114201576D01*
X124503201Y-114201576D01*
X124503201Y-114501724D01*
X124503201Y-114801872D01*
X124803349Y-114801872D01*
X125103496Y-114801872D01*
X125103496Y-114501724D01*
X125103496Y-114201576D01*
X125203545Y-114201576D01*
X125303595Y-114201576D01*
X125303595Y-114501724D01*
X125303595Y-114801872D01*
X125203545Y-114801872D01*
X125103496Y-114801872D01*
X125103496Y-114901921D01*
X125103496Y-115001970D01*
X124703299Y-115001970D01*
X124303102Y-115001970D01*
X124303102Y-114301626D01*
X124303102Y-113601281D01*
X124403152Y-113601281D01*
X124503201Y-113601281D01*
X124503201Y-113801379D01*
G37*
G36*
X126304087Y-114101527D02*
G01*
X126304087Y-114201576D01*
X126003939Y-114201576D01*
X125703792Y-114201576D01*
X125703792Y-114301626D01*
X125703792Y-114401675D01*
X126003939Y-114401675D01*
X126304087Y-114401675D01*
X126304087Y-114301626D01*
X126304087Y-114201576D01*
X126404136Y-114201576D01*
X126504186Y-114201576D01*
X126504186Y-114401675D01*
X126504186Y-114601773D01*
X126103989Y-114601773D01*
X125703792Y-114601773D01*
X125703792Y-114701823D01*
X125703792Y-114801872D01*
X125603742Y-114801872D01*
X125503693Y-114801872D01*
X125503693Y-114501724D01*
X125503693Y-114201576D01*
X125603742Y-114201576D01*
X125703792Y-114201576D01*
X125703792Y-114101527D01*
X125703792Y-114001478D01*
X126003939Y-114001478D01*
X126304087Y-114001478D01*
X126304087Y-114101527D01*
G37*
G36*
X111296702Y-110499755D02*
G01*
X111296702Y-110599804D01*
X111396751Y-110599804D01*
X111496800Y-110599804D01*
X111496800Y-110899952D01*
X111496800Y-111200099D01*
X111396751Y-111200099D01*
X111296702Y-111200099D01*
X111296702Y-111300149D01*
X111296702Y-111400198D01*
X110996554Y-111400198D01*
X110696406Y-111400198D01*
X110696406Y-111700345D01*
X110696406Y-112000493D01*
X110496308Y-112000493D01*
X110296209Y-112000493D01*
X110296209Y-111200099D01*
X110296209Y-110799902D01*
X110696406Y-110799902D01*
X110696406Y-110899952D01*
X110696406Y-111000001D01*
X110896505Y-111000001D01*
X111096603Y-111000001D01*
X111096603Y-110899952D01*
X111096603Y-110799902D01*
X110896505Y-110799902D01*
X110696406Y-110799902D01*
X110296209Y-110799902D01*
X110296209Y-110399705D01*
X110796455Y-110399705D01*
X111296702Y-110399705D01*
X111296702Y-110499755D01*
G37*
G36*
X110296209Y-114401675D02*
G01*
X110296209Y-114801872D01*
X110596357Y-114801872D01*
X110896505Y-114801872D01*
X110896505Y-114401675D01*
X110896505Y-114001478D01*
X110996554Y-114001478D01*
X111096603Y-114001478D01*
X111096603Y-114601773D01*
X111096603Y-115202069D01*
X110996554Y-115202069D01*
X110896505Y-115202069D01*
X110896505Y-115302118D01*
X110896505Y-115402167D01*
X110596357Y-115402167D01*
X110296209Y-115402167D01*
X110296209Y-115302118D01*
X110296209Y-115202069D01*
X110596357Y-115202069D01*
X110896505Y-115202069D01*
X110896505Y-115102020D01*
X110896505Y-115001970D01*
X110596357Y-115001970D01*
X110296209Y-115001970D01*
X110296209Y-114901921D01*
X110296209Y-114801872D01*
X110196160Y-114801872D01*
X110096111Y-114801872D01*
X110096111Y-114401675D01*
X110096111Y-114001478D01*
X110196160Y-114001478D01*
X110296209Y-114001478D01*
X110296209Y-114401675D01*
G37*
G36*
X112697391Y-113901429D02*
G01*
X112697391Y-114201576D01*
X112597342Y-114201576D01*
X112497292Y-114201576D01*
X112497292Y-114301626D01*
X112497292Y-114401675D01*
X112397243Y-114401675D01*
X112297194Y-114401675D01*
X112297194Y-114701823D01*
X112297194Y-115001970D01*
X112197145Y-115001970D01*
X112097095Y-115001970D01*
X112097095Y-114701823D01*
X112097095Y-114401675D01*
X111997046Y-114401675D01*
X111896997Y-114401675D01*
X111896997Y-114301626D01*
X111896997Y-114201576D01*
X111997046Y-114201576D01*
X112097095Y-114201576D01*
X112097095Y-114301626D01*
X112097095Y-114401675D01*
X112197145Y-114401675D01*
X112297194Y-114401675D01*
X112297194Y-114301626D01*
X112297194Y-114201576D01*
X112397243Y-114201576D01*
X112497292Y-114201576D01*
X112497292Y-113901429D01*
X112497292Y-113601281D01*
X112597342Y-113601281D01*
X112697391Y-113601281D01*
X112697391Y-113901429D01*
G37*
G36*
X113697883Y-114101527D02*
G01*
X113697883Y-114201576D01*
X113397736Y-114201576D01*
X113097588Y-114201576D01*
X113097588Y-114501724D01*
X113097588Y-114801872D01*
X113397736Y-114801872D01*
X113697883Y-114801872D01*
X113697883Y-114501724D01*
X113697883Y-114201576D01*
X113797932Y-114201576D01*
X113897982Y-114201576D01*
X113897982Y-114501724D01*
X113897982Y-114801872D01*
X113797932Y-114801872D01*
X113697883Y-114801872D01*
X113697883Y-114901921D01*
X113697883Y-115001970D01*
X113397736Y-115001970D01*
X113097588Y-115001970D01*
X113097588Y-114901921D01*
X113097588Y-114801872D01*
X112997539Y-114801872D01*
X112897489Y-114801872D01*
X112897489Y-114501724D01*
X112897489Y-114201576D01*
X112997539Y-114201576D01*
X113097588Y-114201576D01*
X113097588Y-114101527D01*
X113097588Y-114001478D01*
X113397736Y-114001478D01*
X113697883Y-114001478D01*
X113697883Y-114101527D01*
G37*
G36*
X114298179Y-110699853D02*
G01*
X114298179Y-111000001D01*
X114498277Y-111000001D01*
X114698376Y-111000001D01*
X114698376Y-110699853D01*
X114698376Y-110399705D01*
X114898474Y-110399705D01*
X115098573Y-110399705D01*
X115098573Y-111100050D01*
X115098573Y-111800395D01*
X114998523Y-111800395D01*
X114898474Y-111800395D01*
X114898474Y-111900444D01*
X114898474Y-112000493D01*
X114398228Y-112000493D01*
X113897982Y-112000493D01*
X113897982Y-111800395D01*
X113897982Y-111600296D01*
X114298179Y-111600296D01*
X114698376Y-111600296D01*
X114698376Y-111500247D01*
X114698376Y-111400198D01*
X114398228Y-111400198D01*
X114098080Y-111400198D01*
X114098080Y-111300149D01*
X114098080Y-111200099D01*
X113998031Y-111200099D01*
X113897982Y-111200099D01*
X113897982Y-110799902D01*
X113897982Y-110399705D01*
X114098080Y-110399705D01*
X114298179Y-110399705D01*
X114298179Y-110699853D01*
G37*
G36*
X121501724Y-110399705D02*
G01*
X121501724Y-110799902D01*
X121401674Y-110799902D01*
X121301625Y-110799902D01*
X121301625Y-110899952D01*
X121301625Y-111000001D01*
X121501724Y-111000001D01*
X121701822Y-111000001D01*
X121701822Y-111100050D01*
X121701822Y-111200099D01*
X121601773Y-111200099D01*
X121501724Y-111200099D01*
X121501724Y-111300149D01*
X121501724Y-111400198D01*
X121401674Y-111400198D01*
X121301625Y-111400198D01*
X121301625Y-111800395D01*
X121301625Y-112200592D01*
X121201576Y-112200592D01*
X121101527Y-112200592D01*
X121101527Y-111800395D01*
X121101527Y-111400198D01*
X121001478Y-111400198D01*
X120901428Y-111400198D01*
X120901428Y-111200099D01*
X120901428Y-111000001D01*
X121001478Y-111000001D01*
X121101527Y-111000001D01*
X121101527Y-110899952D01*
X121101527Y-110799902D01*
X121201576Y-110799902D01*
X121301625Y-110799902D01*
X121301625Y-110399705D01*
X121301625Y-109999508D01*
X121401674Y-109999508D01*
X121501724Y-109999508D01*
X121501724Y-110399705D01*
G37*
G36*
X109695914Y-113701330D02*
G01*
X109695914Y-113801379D01*
X109395766Y-113801379D01*
X109095618Y-113801379D01*
X109095618Y-113901429D01*
X109095618Y-114001478D01*
X109395766Y-114001478D01*
X109695914Y-114001478D01*
X109695914Y-113901429D01*
X109695914Y-113801379D01*
X109795963Y-113801379D01*
X109896012Y-113801379D01*
X109896012Y-113901429D01*
X109896012Y-114001478D01*
X109795963Y-114001478D01*
X109695914Y-114001478D01*
X109695914Y-114101527D01*
X109695914Y-114201576D01*
X109395766Y-114201576D01*
X109095618Y-114201576D01*
X109095618Y-114501724D01*
X109095618Y-114801872D01*
X109395766Y-114801872D01*
X109695914Y-114801872D01*
X109695914Y-114501724D01*
X109695914Y-114201576D01*
X109795963Y-114201576D01*
X109896012Y-114201576D01*
X109896012Y-114501724D01*
X109896012Y-114801872D01*
X109795963Y-114801872D01*
X109695914Y-114801872D01*
X109695914Y-114901921D01*
X109695914Y-115001970D01*
X109295717Y-115001970D01*
X108895520Y-115001970D01*
X108895520Y-114301626D01*
X108895520Y-113601281D01*
X109295717Y-113601281D01*
X109695914Y-113601281D01*
X109695914Y-113701330D01*
G37*
G36*
X110096111Y-110199607D02*
G01*
X110096111Y-110399705D01*
X109695914Y-110399705D01*
X109295717Y-110399705D01*
X109295717Y-110499755D01*
X109295717Y-110599804D01*
X109595865Y-110599804D01*
X109896012Y-110599804D01*
X109896012Y-110699853D01*
X109896012Y-110799902D01*
X109996061Y-110799902D01*
X110096111Y-110799902D01*
X110096111Y-111100050D01*
X110096111Y-111400198D01*
X109996061Y-111400198D01*
X109896012Y-111400198D01*
X109896012Y-111500247D01*
X109896012Y-111600296D01*
X109395766Y-111600296D01*
X108895520Y-111600296D01*
X108895520Y-111400198D01*
X108895520Y-111200099D01*
X109295717Y-111200099D01*
X109695914Y-111200099D01*
X109695914Y-111100050D01*
X109695914Y-111000001D01*
X109395766Y-111000001D01*
X109095618Y-111000001D01*
X109095618Y-110899952D01*
X109095618Y-110799902D01*
X108995569Y-110799902D01*
X108895520Y-110799902D01*
X108895520Y-110499755D01*
X108895520Y-110199607D01*
X108995569Y-110199607D01*
X109095618Y-110199607D01*
X109095618Y-110099558D01*
X109095618Y-109999508D01*
X109595865Y-109999508D01*
X110096111Y-109999508D01*
X110096111Y-110199607D01*
G37*
G36*
X113497785Y-110499755D02*
G01*
X113497785Y-110599804D01*
X113597834Y-110599804D01*
X113697883Y-110599804D01*
X113697883Y-111000001D01*
X113697883Y-111400198D01*
X113597834Y-111400198D01*
X113497785Y-111400198D01*
X113497785Y-111500247D01*
X113497785Y-111600296D01*
X113097588Y-111600296D01*
X112697391Y-111600296D01*
X112697391Y-111500247D01*
X112697391Y-111400198D01*
X112597342Y-111400198D01*
X112497292Y-111400198D01*
X112497292Y-111200099D01*
X112497292Y-111000001D01*
X112597342Y-111000001D01*
X112697391Y-111000001D01*
X112897489Y-111000001D01*
X112897489Y-111100050D01*
X112897489Y-111200099D01*
X113097588Y-111200099D01*
X113297686Y-111200099D01*
X113297686Y-111100050D01*
X113297686Y-111000001D01*
X113097588Y-111000001D01*
X112897489Y-111000001D01*
X112697391Y-111000001D01*
X112697391Y-110899952D01*
X112697391Y-110799902D01*
X112897489Y-110799902D01*
X113097588Y-110799902D01*
X113097588Y-110699853D01*
X113097588Y-110599804D01*
X112997539Y-110599804D01*
X112897489Y-110599804D01*
X112897489Y-110499755D01*
X112897489Y-110399705D01*
X113197637Y-110399705D01*
X113497785Y-110399705D01*
X113497785Y-110499755D01*
G37*
G36*
X116299163Y-110499755D02*
G01*
X116299163Y-110599804D01*
X116399213Y-110599804D01*
X116499262Y-110599804D01*
X116499262Y-110799902D01*
X116499262Y-111000001D01*
X116099065Y-111000001D01*
X115698868Y-111000001D01*
X115698868Y-111100050D01*
X115698868Y-111200099D01*
X116099065Y-111200099D01*
X116499262Y-111200099D01*
X116499262Y-111300149D01*
X116499262Y-111400198D01*
X116399213Y-111400198D01*
X116299163Y-111400198D01*
X116299163Y-111500247D01*
X116299163Y-111600296D01*
X115898966Y-111600296D01*
X115498769Y-111600296D01*
X115498769Y-111500247D01*
X115498769Y-111400198D01*
X115398720Y-111400198D01*
X115298671Y-111400198D01*
X115298671Y-111000001D01*
X115298671Y-110599804D01*
X115398720Y-110599804D01*
X115498769Y-110599804D01*
X115698868Y-110599804D01*
X115698868Y-110699853D01*
X115698868Y-110799902D01*
X115898966Y-110799902D01*
X116099065Y-110799902D01*
X116099065Y-110699853D01*
X116099065Y-110599804D01*
X115898966Y-110599804D01*
X115698868Y-110599804D01*
X115498769Y-110599804D01*
X115498769Y-110499755D01*
X115498769Y-110399705D01*
X115898966Y-110399705D01*
X116299163Y-110399705D01*
X116299163Y-110499755D01*
G37*
G36*
X122502216Y-110899952D02*
G01*
X122502216Y-111000001D01*
X122302118Y-111000001D01*
X122102019Y-111000001D01*
X122102019Y-111500247D01*
X122102019Y-112000493D01*
X122202068Y-112000493D01*
X122302118Y-112000493D01*
X122302118Y-111600296D01*
X122302118Y-111200099D01*
X122402167Y-111200099D01*
X122502216Y-111200099D01*
X122502216Y-111100050D01*
X122502216Y-111000001D01*
X122802364Y-111000001D01*
X123102511Y-111000001D01*
X123102511Y-111100050D01*
X123102511Y-111200099D01*
X123002462Y-111200099D01*
X122902413Y-111200099D01*
X122902413Y-111300149D01*
X122902413Y-111400198D01*
X123002462Y-111400198D01*
X123102511Y-111400198D01*
X123102511Y-111500247D01*
X123102511Y-111600296D01*
X123002462Y-111600296D01*
X122902413Y-111600296D01*
X122902413Y-111700345D01*
X122902413Y-111800395D01*
X123002462Y-111800395D01*
X123102511Y-111800395D01*
X123102511Y-112000493D01*
X123102511Y-112200592D01*
X122602265Y-112200592D01*
X122102019Y-112200592D01*
X122102019Y-112100542D01*
X122102019Y-112000493D01*
X122001970Y-112000493D01*
X121901921Y-112000493D01*
X121901921Y-112100542D01*
X121901921Y-112200592D01*
X121701822Y-112200592D01*
X121501724Y-112200592D01*
X121501724Y-112100542D01*
X121501724Y-112000493D01*
X121601773Y-112000493D01*
X121701822Y-112000493D01*
X121701822Y-111700345D01*
X121701822Y-111400198D01*
X121801871Y-111400198D01*
X121901921Y-111400198D01*
X121901921Y-111200099D01*
X121901921Y-111000001D01*
X122001970Y-111000001D01*
X122102019Y-111000001D01*
X122102019Y-110899952D01*
X122102019Y-110799902D01*
X122302118Y-110799902D01*
X122502216Y-110799902D01*
X122502216Y-110899952D01*
G37*
G36*
X123702807Y-106697884D02*
G01*
X123702807Y-106797933D01*
X123802856Y-106797933D01*
X123902905Y-106797933D01*
X123902905Y-107298179D01*
X123902905Y-107798425D01*
X123802856Y-107798425D01*
X123702807Y-107798425D01*
X123702807Y-107898474D01*
X123702807Y-107998524D01*
X122802364Y-107998524D01*
X121901921Y-107998524D01*
X121901921Y-107898474D01*
X121901921Y-107798425D01*
X122102019Y-107798425D01*
X122302118Y-107798425D01*
X122502216Y-107798425D01*
X122902413Y-107798425D01*
X123202561Y-107798425D01*
X123502708Y-107798425D01*
X123502708Y-107698376D01*
X123502708Y-107598327D01*
X123402659Y-107598327D01*
X123302610Y-107598327D01*
X123302610Y-107198130D01*
X123302610Y-106797933D01*
X123202561Y-106797933D01*
X123102511Y-106797933D01*
X123102511Y-106897982D01*
X123102511Y-106998031D01*
X123002462Y-106998031D01*
X122902413Y-106998031D01*
X122902413Y-107098081D01*
X122902413Y-107198130D01*
X123002462Y-107198130D01*
X123102511Y-107198130D01*
X123102511Y-107398228D01*
X123102511Y-107598327D01*
X123002462Y-107598327D01*
X122902413Y-107598327D01*
X122902413Y-107698376D01*
X122902413Y-107798425D01*
X122502216Y-107798425D01*
X122502216Y-107698376D01*
X122502216Y-107598327D01*
X122602265Y-107598327D01*
X122702315Y-107598327D01*
X122702315Y-107398228D01*
X122702315Y-107198130D01*
X122502216Y-107198130D01*
X122302118Y-107198130D01*
X122302118Y-107098081D01*
X122302118Y-106998031D01*
X122502216Y-106998031D01*
X122702315Y-106998031D01*
X122702315Y-106897982D01*
X122702315Y-106797933D01*
X122502216Y-106797933D01*
X122302118Y-106797933D01*
X122302118Y-106897982D01*
X122302118Y-106998031D01*
X122202068Y-106998031D01*
X122102019Y-106998031D01*
X122102019Y-107198130D01*
X122102019Y-107398228D01*
X122302118Y-107398228D01*
X122502216Y-107398228D01*
X122502216Y-107498278D01*
X122502216Y-107598327D01*
X122302118Y-107598327D01*
X122102019Y-107598327D01*
X122102019Y-107698376D01*
X122102019Y-107798425D01*
X121901921Y-107798425D01*
X121801871Y-107798425D01*
X121701822Y-107798425D01*
X121701822Y-107298179D01*
X121701822Y-106797933D01*
X121801871Y-106797933D01*
X121901921Y-106797933D01*
X121901921Y-106697884D01*
X121901921Y-106597834D01*
X122802364Y-106597834D01*
X123702807Y-106597834D01*
X123702807Y-106697884D01*
G37*
G36*
X123502708Y-108698868D02*
G01*
X123502708Y-108798918D01*
X123602758Y-108798918D01*
X123702807Y-108798918D01*
X123702807Y-108898967D01*
X123702807Y-108999016D01*
X123802856Y-108999016D01*
X123902905Y-108999016D01*
X123902905Y-109799410D01*
X123902905Y-110599804D01*
X123702807Y-110599804D01*
X123502708Y-110599804D01*
X123502708Y-110499755D01*
X123502708Y-110399705D01*
X123102511Y-110399705D01*
X122702315Y-110399705D01*
X122702315Y-110499755D01*
X122702315Y-110599804D01*
X122302118Y-110599804D01*
X121901921Y-110599804D01*
X121901921Y-110499755D01*
X121901921Y-110399705D01*
X121801871Y-110399705D01*
X121701822Y-110399705D01*
X121701822Y-110199607D01*
X122102019Y-110199607D01*
X122202068Y-110199607D01*
X122302118Y-110199607D01*
X122302118Y-110299656D01*
X122302118Y-110399705D01*
X122502216Y-110399705D01*
X122702315Y-110399705D01*
X122702315Y-110299656D01*
X122702315Y-110199607D01*
X122602265Y-110199607D01*
X122502216Y-110199607D01*
X122502216Y-109999508D01*
X122502216Y-109799410D01*
X122602265Y-109799410D01*
X122702315Y-109799410D01*
X122702315Y-109899459D01*
X122702315Y-109999508D01*
X122802364Y-109999508D01*
X122902413Y-109999508D01*
X122902413Y-110099558D01*
X122902413Y-110199607D01*
X123102511Y-110199607D01*
X123302610Y-110199607D01*
X123302610Y-110099558D01*
X123302610Y-109999508D01*
X123402659Y-109999508D01*
X123502708Y-109999508D01*
X123502708Y-110199607D01*
X123502708Y-110399705D01*
X123602758Y-110399705D01*
X123702807Y-110399705D01*
X123702807Y-109799410D01*
X123702807Y-109199115D01*
X123602758Y-109199115D01*
X123502708Y-109199115D01*
X123502708Y-109099065D01*
X123502708Y-108999016D01*
X123102511Y-108999016D01*
X122702315Y-108999016D01*
X122702315Y-109099065D01*
X122702315Y-109199115D01*
X122602265Y-109199115D01*
X122502216Y-109199115D01*
X122502216Y-109299164D01*
X122502216Y-109399213D01*
X122402167Y-109399213D01*
X122302118Y-109399213D01*
X122302118Y-109599311D01*
X122302118Y-109799410D01*
X122202068Y-109799410D01*
X122102019Y-109799410D01*
X122102019Y-109999508D01*
X122102019Y-110199607D01*
X121701822Y-110199607D01*
X121701822Y-109899459D01*
X121701822Y-109399213D01*
X121801871Y-109399213D01*
X121901921Y-109399213D01*
X121901921Y-109199115D01*
X121901921Y-108999016D01*
X122001970Y-108999016D01*
X122102019Y-108999016D01*
X122102019Y-108898967D01*
X122102019Y-108798918D01*
X122202068Y-108798918D01*
X122302118Y-108798918D01*
X122302118Y-108698868D01*
X122302118Y-108598819D01*
X122902413Y-108598819D01*
X123502708Y-108598819D01*
X123502708Y-108698868D01*
G37*
D12*
%TO.C,PWR1*%
X195628452Y-109807560D02*
X195628453Y-109607560D01*
X195628452Y-112807560D02*
X195628451Y-111107559D01*
X196678452Y-114657560D02*
X197468452Y-114657560D01*
X197468453Y-107757560D02*
X196678452Y-107757560D01*
X198478452Y-114057561D02*
X198478452Y-108357560D01*
D13*
%TO.C,RST1*%
X195303454Y-99107559D02*
X195303454Y-98857558D01*
X195303454Y-103307560D02*
X195303454Y-103557561D01*
X195553454Y-98857560D02*
X195303454Y-98857558D01*
X195553454Y-103557559D02*
X195303454Y-103557561D01*
X198553454Y-98857561D02*
X198803454Y-98857559D01*
X198553454Y-103557560D02*
X198803454Y-103557562D01*
X198803454Y-99107560D02*
X198803454Y-98857559D01*
X198803454Y-103307561D02*
X198803454Y-103557562D01*
D12*
%TO.C,MCU1*%
X178853454Y-61686562D02*
X178853454Y-92286562D01*
X178853454Y-61686562D02*
X181513454Y-61686562D01*
X178853454Y-92286562D02*
X181513455Y-92286563D01*
X181513454Y-61686562D02*
X181513455Y-92286563D01*
X194093451Y-64286562D02*
X196753454Y-64286562D01*
X194093454Y-92286563D02*
X196753454Y-92286562D01*
X194093455Y-61686562D02*
X194093454Y-92286563D01*
X194093455Y-61686562D02*
X196753454Y-61686562D01*
X196753454Y-61686562D02*
X196753454Y-92286562D01*
D13*
%TO.C,JST1*%
X179653455Y-94707557D02*
X179653455Y-95707557D01*
X179653455Y-97707556D02*
X179653456Y-96707556D01*
X180153455Y-97207557D02*
X179153455Y-97207557D01*
D12*
X180693453Y-93147557D02*
X181693455Y-93147557D01*
X180693455Y-94067556D02*
X180693453Y-93147557D01*
X180693455Y-98347557D02*
X180693455Y-99267557D01*
X180693455Y-99267557D02*
X181693455Y-99267557D01*
X188513454Y-98347557D02*
X188513455Y-99267557D01*
X188513455Y-93147557D02*
X187513455Y-93147557D01*
X188513455Y-94147557D02*
X188513455Y-93147557D01*
X188513455Y-99267557D02*
X187513455Y-99267557D01*
D10*
%TO.C,S10*%
X141553455Y-96707560D02*
X141553456Y-96207559D01*
X141553456Y-92007560D02*
X146033456Y-92007560D01*
X141553456Y-92607560D02*
X141553456Y-92007560D01*
X146053456Y-96007560D02*
X146053456Y-96707560D01*
X146053456Y-96707560D02*
X141553455Y-96707560D01*
X146553456Y-91427560D02*
X146553456Y-90507561D01*
X147053456Y-90007560D02*
X146553456Y-90507561D01*
X150053455Y-90007560D02*
X147053456Y-90007560D01*
X150053457Y-94507560D02*
X147753455Y-94507560D01*
X150553456Y-90507560D02*
X150053455Y-90007560D01*
X150553456Y-94007560D02*
X150053457Y-94507560D01*
X146053456Y-95987560D02*
G75*
G02*
X147753455Y-94507560I1589999J-109999D01*
G01*
X146553455Y-91427560D02*
G75*
G02*
X146033456Y-92007559I-549998J-30001D01*
G01*
%TO.C,S14*%
X159553453Y-84707561D02*
X159553454Y-84207560D01*
X159553454Y-80007561D02*
X164033454Y-80007561D01*
X159553454Y-80607561D02*
X159553454Y-80007561D01*
X164053454Y-84007561D02*
X164053454Y-84707561D01*
X164053454Y-84707561D02*
X159553453Y-84707561D01*
X164553454Y-79427561D02*
X164553454Y-78507562D01*
X165053454Y-78007561D02*
X164553454Y-78507562D01*
X168053453Y-78007561D02*
X165053454Y-78007561D01*
X168053455Y-82507561D02*
X165753453Y-82507561D01*
X168553454Y-78507561D02*
X168053453Y-78007561D01*
X168553454Y-82007561D02*
X168053455Y-82507561D01*
X164053454Y-83987561D02*
G75*
G02*
X165753453Y-82507561I1589999J-109999D01*
G01*
X164553453Y-79427561D02*
G75*
G02*
X164033454Y-80007560I-549998J-30001D01*
G01*
%TO.C,S18*%
X179636461Y-124913553D02*
X179839828Y-124456781D01*
X181304080Y-121168017D02*
X181548122Y-120619890D01*
X181548122Y-120619890D02*
X185640806Y-122442071D01*
X183747414Y-126743868D02*
X179636461Y-124913553D01*
X184032131Y-126104387D02*
X183747414Y-126743868D01*
X186351757Y-122123717D02*
X186725954Y-121283255D01*
X187386095Y-121029849D02*
X186725954Y-121283255D01*
X188296415Y-126361015D02*
X186195264Y-125425519D01*
X188956559Y-126107610D02*
X188296415Y-126361015D01*
X190126732Y-122250060D02*
X187386095Y-121029849D01*
X190380135Y-122910201D02*
X190126732Y-122250060D01*
X184040265Y-126086117D02*
G75*
G02*
X186195264Y-125425519I1407799J-747202D01*
G01*
X186351757Y-122123717D02*
G75*
G02*
X185640806Y-122442071I-514653J196299D01*
G01*
%TO.C,S8*%
X123553454Y-74707560D02*
X123553455Y-74207559D01*
X123553455Y-70007560D02*
X128033455Y-70007560D01*
X123553455Y-70607560D02*
X123553455Y-70007560D01*
X128053455Y-74007560D02*
X128053455Y-74707560D01*
X128053455Y-74707560D02*
X123553454Y-74707560D01*
X128553455Y-69427560D02*
X128553455Y-68507561D01*
X129053455Y-68007560D02*
X128553455Y-68507561D01*
X132053454Y-68007560D02*
X129053455Y-68007560D01*
X132053456Y-72507560D02*
X129753454Y-72507560D01*
X132553455Y-68507560D02*
X132053454Y-68007560D01*
X132553455Y-72007560D02*
X132053456Y-72507560D01*
X128053455Y-73987560D02*
G75*
G02*
X129753454Y-72507560I1589999J-109999D01*
G01*
X128553454Y-69427560D02*
G75*
G02*
X128033455Y-70007559I-549998J-30001D01*
G01*
%TO.C,S5*%
X103934121Y-75926033D02*
X108411392Y-75769684D01*
X103955061Y-76525667D02*
X103934121Y-75926033D01*
X104098149Y-80623170D02*
X104080697Y-80123475D01*
X108570979Y-79766548D02*
X108595407Y-80466122D01*
X108595407Y-80466122D02*
X104098149Y-80623170D01*
X108910833Y-75171889D02*
X108878726Y-74252450D01*
X109360972Y-73735303D02*
X108878726Y-74252450D01*
X112359144Y-73630605D02*
X109360972Y-73735303D01*
X112516193Y-78127865D02*
X110217593Y-78208134D01*
X112876290Y-74112853D02*
X112359144Y-73630605D01*
X112998438Y-77610720D02*
X112516193Y-78127865D01*
X108570280Y-79746561D02*
G75*
G02*
X110217593Y-78208134I1592871J-54444D01*
G01*
X108910832Y-75171889D02*
G75*
G02*
X108411392Y-75769683I-548616J-49178D01*
G01*
%TO.C,S13*%
X159553453Y-101707560D02*
X159553454Y-101207559D01*
X159553454Y-97007560D02*
X164033454Y-97007560D01*
X159553454Y-97607560D02*
X159553454Y-97007560D01*
X164053454Y-101007560D02*
X164053454Y-101707560D01*
X164053454Y-101707560D02*
X159553453Y-101707560D01*
X164553454Y-96427560D02*
X164553454Y-95507561D01*
X165053454Y-95007560D02*
X164553454Y-95507561D01*
X168053453Y-95007560D02*
X165053454Y-95007560D01*
X168053455Y-99507560D02*
X165753453Y-99507560D01*
X168553454Y-95507560D02*
X168053453Y-95007560D01*
X168553454Y-99007560D02*
X168053455Y-99507560D01*
X164053454Y-100987560D02*
G75*
G02*
X165753453Y-99507560I1589999J-109999D01*
G01*
X164553453Y-96427560D02*
G75*
G02*
X164033454Y-97007559I-549998J-30001D01*
G01*
%TO.C,S6*%
X103340829Y-58936389D02*
X107818100Y-58780040D01*
X103361769Y-59536023D02*
X103340829Y-58936389D01*
X103504857Y-63633526D02*
X103487405Y-63133831D01*
X107977687Y-62776904D02*
X108002115Y-63476478D01*
X108002115Y-63476478D02*
X103504857Y-63633526D01*
X108317541Y-58182245D02*
X108285434Y-57262806D01*
X108767680Y-56745659D02*
X108285434Y-57262806D01*
X111765852Y-56640961D02*
X108767680Y-56745659D01*
X111922901Y-61138221D02*
X109624301Y-61218490D01*
X112282998Y-57123209D02*
X111765852Y-56640961D01*
X112405146Y-60621076D02*
X111922901Y-61138221D01*
X107976988Y-62756917D02*
G75*
G02*
X109624301Y-61218490I1592871J-54444D01*
G01*
X108317540Y-58182245D02*
G75*
G02*
X107818100Y-58780039I-548616J-49178D01*
G01*
%TO.C,S7*%
X123553453Y-91707561D02*
X123553454Y-91207560D01*
X123553454Y-87007561D02*
X128033454Y-87007561D01*
X123553454Y-87607561D02*
X123553454Y-87007561D01*
X128053454Y-91007561D02*
X128053454Y-91707561D01*
X128053454Y-91707561D02*
X123553453Y-91707561D01*
X128553454Y-86427561D02*
X128553454Y-85507562D01*
X129053454Y-85007561D02*
X128553454Y-85507562D01*
X132053453Y-85007561D02*
X129053454Y-85007561D01*
X132053455Y-89507561D02*
X129753453Y-89507561D01*
X132553454Y-85507561D02*
X132053453Y-85007561D01*
X132553454Y-89007561D02*
X132053455Y-89507561D01*
X128053454Y-90987561D02*
G75*
G02*
X129753453Y-89507561I1589999J-109999D01*
G01*
X128553453Y-86427561D02*
G75*
G02*
X128033454Y-87007560I-549998J-30001D01*
G01*
%TO.C,S1*%
X84420394Y-99419913D02*
X88832333Y-98641969D01*
X84524583Y-100010798D02*
X84420394Y-99419913D01*
X85236538Y-104048510D02*
X85149715Y-103556106D01*
X89243717Y-97980483D02*
X89083961Y-97074461D01*
X89489539Y-96495231D02*
X89083961Y-97074461D01*
X89546621Y-102577726D02*
X89668175Y-103267093D01*
X89668175Y-103267093D02*
X85236538Y-104048510D01*
X92443964Y-95974288D02*
X89489539Y-96495231D01*
X93023192Y-96379869D02*
X92443964Y-95974288D01*
X93225380Y-100405923D02*
X90960323Y-100805314D01*
X93630959Y-99826695D02*
X93225380Y-100405923D01*
X89243717Y-97980483D02*
G75*
G02*
X88832333Y-98641969I-536432J-125053D01*
G01*
X89543150Y-102558031D02*
G75*
G02*
X90960323Y-100805316I1584943J167772D01*
G01*
%TO.C,S17*%
X159536907Y-119864987D02*
X159640863Y-119375913D01*
X160389345Y-115854582D02*
X160514092Y-115267693D01*
X160514092Y-115267693D02*
X164896194Y-116199136D01*
X163938572Y-120800589D02*
X159536907Y-119864987D01*
X164084110Y-120115886D02*
X163938572Y-120800589D01*
X165525419Y-115739926D02*
X165716698Y-114840031D01*
X166309727Y-114454912D02*
X165716698Y-114840031D01*
X168308568Y-119480311D02*
X166058828Y-119002116D01*
X168901597Y-119095193D02*
X168308568Y-119480311D01*
X169244170Y-115078647D02*
X166309727Y-114454912D01*
X169629288Y-115671677D02*
X169244170Y-115078647D01*
X164088268Y-120096324D02*
G75*
G02*
X166058828Y-119002116I1532383J-438173D01*
G01*
X165525419Y-115739926D02*
G75*
G02*
X164896194Y-116199136I-544217J85007D01*
G01*
%TO.C,S2*%
X81468376Y-82678180D02*
X85880315Y-81900236D01*
X81572565Y-83269065D02*
X81468376Y-82678180D01*
X82284520Y-87306777D02*
X82197697Y-86814373D01*
X86291699Y-81238750D02*
X86131943Y-80332728D01*
X86537521Y-79753498D02*
X86131943Y-80332728D01*
X86594603Y-85835993D02*
X86716157Y-86525360D01*
X86716157Y-86525360D02*
X82284520Y-87306777D01*
X89491946Y-79232555D02*
X86537521Y-79753498D01*
X90071174Y-79638136D02*
X89491946Y-79232555D01*
X90273362Y-83664190D02*
X88008305Y-84063581D01*
X90678941Y-83084962D02*
X90273362Y-83664190D01*
X86291699Y-81238750D02*
G75*
G02*
X85880315Y-81900236I-536432J-125053D01*
G01*
X86591132Y-85816298D02*
G75*
G02*
X88008305Y-84063583I1584943J167772D01*
G01*
%TO.C,S12*%
X141553451Y-62707558D02*
X141553452Y-62207557D01*
X141553452Y-58007558D02*
X146033452Y-58007558D01*
X141553452Y-58607558D02*
X141553452Y-58007558D01*
X146053452Y-62007558D02*
X146053452Y-62707558D01*
X146053452Y-62707558D02*
X141553451Y-62707558D01*
X146553452Y-57427558D02*
X146553452Y-56507559D01*
X147053452Y-56007558D02*
X146553452Y-56507559D01*
X150053451Y-56007558D02*
X147053452Y-56007558D01*
X150053453Y-60507558D02*
X147753451Y-60507558D01*
X150553452Y-56507558D02*
X150053451Y-56007558D01*
X150553452Y-60007558D02*
X150053453Y-60507558D01*
X146053452Y-61987558D02*
G75*
G02*
X147753451Y-60507558I1589999J-109999D01*
G01*
X146553451Y-57427558D02*
G75*
G02*
X146033452Y-58007557I-549998J-30001D01*
G01*
%TO.C,S4*%
X104527415Y-92915679D02*
X109004686Y-92759330D01*
X104548355Y-93515313D02*
X104527415Y-92915679D01*
X104691443Y-97612816D02*
X104673991Y-97113121D01*
X109164273Y-96756194D02*
X109188701Y-97455768D01*
X109188701Y-97455768D02*
X104691443Y-97612816D01*
X109504127Y-92161535D02*
X109472020Y-91242096D01*
X109954266Y-90724949D02*
X109472020Y-91242096D01*
X112952438Y-90620251D02*
X109954266Y-90724949D01*
X113109487Y-95117511D02*
X110810887Y-95197780D01*
X113469584Y-91102499D02*
X112952438Y-90620251D01*
X113591732Y-94600366D02*
X113109487Y-95117511D01*
X109163574Y-96736207D02*
G75*
G02*
X110810887Y-95197780I1592871J-54444D01*
G01*
X109504126Y-92161535D02*
G75*
G02*
X109004686Y-92759329I-548616J-49178D01*
G01*
%TO.C,S16*%
X138553450Y-118707560D02*
X138553451Y-118207559D01*
X138553451Y-114007560D02*
X143033451Y-114007560D01*
X138553451Y-114607560D02*
X138553451Y-114007560D01*
X143053451Y-118007560D02*
X143053451Y-118707560D01*
X143053451Y-118707560D02*
X138553450Y-118707560D01*
X143553451Y-113427560D02*
X143553451Y-112507561D01*
X144053451Y-112007560D02*
X143553451Y-112507561D01*
X147053450Y-112007560D02*
X144053451Y-112007560D01*
X147053452Y-116507560D02*
X144753450Y-116507560D01*
X147553451Y-112507560D02*
X147053450Y-112007560D01*
X147553451Y-116007560D02*
X147053452Y-116507560D01*
X143053451Y-117987560D02*
G75*
G02*
X144753450Y-116507560I1589999J-109999D01*
G01*
X143553450Y-113427560D02*
G75*
G02*
X143033451Y-114007559I-549998J-30001D01*
G01*
%TO.C,S9*%
X123553455Y-57707558D02*
X123553456Y-57207557D01*
X123553456Y-53007558D02*
X128033456Y-53007558D01*
X123553456Y-53607558D02*
X123553456Y-53007558D01*
X128053456Y-57007558D02*
X128053456Y-57707558D01*
X128053456Y-57707558D02*
X123553455Y-57707558D01*
X128553456Y-52427558D02*
X128553456Y-51507559D01*
X129053456Y-51007558D02*
X128553456Y-51507559D01*
X132053455Y-51007558D02*
X129053456Y-51007558D01*
X132053457Y-55507558D02*
X129753455Y-55507558D01*
X132553456Y-51507558D02*
X132053455Y-51007558D01*
X132553456Y-55007558D02*
X132053457Y-55507558D01*
X128053456Y-56987558D02*
G75*
G02*
X129753455Y-55507558I1589999J-109999D01*
G01*
X128553455Y-52427558D02*
G75*
G02*
X128033456Y-53007557I-549998J-30001D01*
G01*
%TO.C,S3*%
X78516355Y-65936451D02*
X82928294Y-65158507D01*
X78620544Y-66527336D02*
X78516355Y-65936451D01*
X79332499Y-70565048D02*
X79245676Y-70072644D01*
X83339678Y-64497021D02*
X83179922Y-63590999D01*
X83585500Y-63011769D02*
X83179922Y-63590999D01*
X83642582Y-69094264D02*
X83764136Y-69783631D01*
X83764136Y-69783631D02*
X79332499Y-70565048D01*
X86539925Y-62490826D02*
X83585500Y-63011769D01*
X87119153Y-62896407D02*
X86539925Y-62490826D01*
X87321341Y-66922461D02*
X85056284Y-67321852D01*
X87726920Y-66343233D02*
X87321341Y-66922461D01*
X83339678Y-64497021D02*
G75*
G02*
X82928294Y-65158507I-536432J-125053D01*
G01*
X83639111Y-69074569D02*
G75*
G02*
X85056284Y-67321854I1584943J167772D01*
G01*
%TO.C,S15*%
X159553452Y-67707561D02*
X159553453Y-67207560D01*
X159553453Y-63007561D02*
X164033453Y-63007561D01*
X159553453Y-63607561D02*
X159553453Y-63007561D01*
X164053453Y-67007561D02*
X164053453Y-67707561D01*
X164053453Y-67707561D02*
X159553452Y-67707561D01*
X164553453Y-62427561D02*
X164553453Y-61507562D01*
X165053453Y-61007561D02*
X164553453Y-61507562D01*
X168053452Y-61007561D02*
X165053453Y-61007561D01*
X168053454Y-65507561D02*
X165753452Y-65507561D01*
X168553453Y-61507561D02*
X168053452Y-61007561D01*
X168553453Y-65007561D02*
X168053454Y-65507561D01*
X164053453Y-66987561D02*
G75*
G02*
X165753452Y-65507561I1589999J-109999D01*
G01*
X164553452Y-62427561D02*
G75*
G02*
X164033453Y-63007560I-549998J-30001D01*
G01*
%TO.C,S11*%
X141553454Y-79707562D02*
X141553455Y-79207561D01*
X141553455Y-75007562D02*
X146033455Y-75007562D01*
X141553455Y-75607562D02*
X141553455Y-75007562D01*
X146053455Y-79007562D02*
X146053455Y-79707562D01*
X146053455Y-79707562D02*
X141553454Y-79707562D01*
X146553455Y-74427562D02*
X146553455Y-73507563D01*
X147053455Y-73007562D02*
X146553455Y-73507563D01*
X150053454Y-73007562D02*
X147053455Y-73007562D01*
X150053456Y-77507562D02*
X147753454Y-77507562D01*
X150553455Y-73507562D02*
X150053454Y-73007562D01*
X150553455Y-77007562D02*
X150053456Y-77507562D01*
X146053455Y-78987562D02*
G75*
G02*
X147753454Y-77507562I1589999J-109999D01*
G01*
X146553454Y-74427562D02*
G75*
G02*
X146033455Y-75007561I-549998J-30001D01*
G01*
%TD*%
M02*
