%TF.GenerationSoftware,KiCad,Pcbnew,8.0.1*%
%TF.CreationDate,2024-04-29T16:42:10+03:00*%
%TF.ProjectId,ready_splayer_pcb,72656164-795f-4737-906c-617965725f70,v1.0.0*%
%TF.SameCoordinates,Original*%
%TF.FileFunction,Copper,L2,Bot*%
%TF.FilePolarity,Positive*%
%FSLAX46Y46*%
G04 Gerber Fmt 4.6, Leading zero omitted, Abs format (unit mm)*
G04 Created by KiCad (PCBNEW 8.0.1) date 2024-04-29 16:42:10*
%MOMM*%
%LPD*%
G01*
G04 APERTURE LIST*
G04 Aperture macros list*
%AMRotRect*
0 Rectangle, with rotation*
0 The origin of the aperture is its center*
0 $1 length*
0 $2 width*
0 $3 Rotation angle, in degrees counterclockwise*
0 Add horizontal line*
21,1,$1,$2,0,0,$3*%
%AMFreePoly0*
4,1,6,0.500000,-0.625000,-0.650000,-0.625000,-0.150000,0.000000,-0.650000,0.625000,0.500000,0.625000,0.500000,-0.625000,0.500000,-0.625000,$1*%
%AMFreePoly1*
4,1,6,0.250000,0.000000,-0.250000,-0.625000,-0.500000,-0.625000,-0.500000,0.625000,-0.250000,0.625000,0.250000,0.000000,0.250000,0.000000,$1*%
%AMFreePoly2*
4,1,6,0.600000,-1.000000,0.000000,-0.400000,-0.600000,-1.000000,-0.600000,0.250000,0.600000,0.250000,0.600000,-1.000000,0.600000,-1.000000,$1*%
%AMFreePoly3*
4,1,6,0.600000,-0.200000,0.600000,-0.400000,-0.600000,-0.400000,-0.600000,-0.200000,0.000000,0.400000,0.600000,-0.200000,0.600000,-0.200000,$1*%
%AMFreePoly4*
4,1,6,1.300000,-1.300000,-0.050000,-1.300000,-1.300000,-0.250000,-1.300000,1.300000,1.300000,1.300000,1.300000,-1.300000,1.300000,-1.300000,$1*%
G04 Aperture macros list end*
%TA.AperFunction,ComponentPad*%
%ADD10C,0.600000*%
%TD*%
%TA.AperFunction,SMDPad,CuDef*%
%ADD11R,0.800000X1.000000*%
%TD*%
%TA.AperFunction,SMDPad,CuDef*%
%ADD12R,1.500000X0.700000*%
%TD*%
%TA.AperFunction,SMDPad,CuDef*%
%ADD13R,1.000000X1.550000*%
%TD*%
%TA.AperFunction,SMDPad,CuDef*%
%ADD14FreePoly0,0.000000*%
%TD*%
%TA.AperFunction,ComponentPad*%
%ADD15C,0.800000*%
%TD*%
%TA.AperFunction,SMDPad,CuDef*%
%ADD16FreePoly1,180.000000*%
%TD*%
%TA.AperFunction,ComponentPad*%
%ADD17C,1.700000*%
%TD*%
%TA.AperFunction,SMDPad,CuDef*%
%ADD18FreePoly1,0.000000*%
%TD*%
%TA.AperFunction,SMDPad,CuDef*%
%ADD19FreePoly0,180.000000*%
%TD*%
%TA.AperFunction,SMDPad,CuDef*%
%ADD20FreePoly2,90.000000*%
%TD*%
%TA.AperFunction,ComponentPad*%
%ADD21O,1.750000X1.200000*%
%TD*%
%TA.AperFunction,SMDPad,CuDef*%
%ADD22FreePoly3,90.000000*%
%TD*%
%TA.AperFunction,ComponentPad*%
%ADD23C,1.900000*%
%TD*%
%TA.AperFunction,ComponentPad*%
%ADD24C,2.032000*%
%TD*%
%TA.AperFunction,SMDPad,CuDef*%
%ADD25FreePoly4,0.000000*%
%TD*%
%TA.AperFunction,SMDPad,CuDef*%
%ADD26R,2.600000X2.600000*%
%TD*%
%TA.AperFunction,SMDPad,CuDef*%
%ADD27FreePoly4,336.000000*%
%TD*%
%TA.AperFunction,SMDPad,CuDef*%
%ADD28RotRect,2.600000X2.600000X336.000000*%
%TD*%
%TA.AperFunction,SMDPad,CuDef*%
%ADD29FreePoly4,2.000000*%
%TD*%
%TA.AperFunction,SMDPad,CuDef*%
%ADD30RotRect,2.600000X2.600000X2.000000*%
%TD*%
%TA.AperFunction,SMDPad,CuDef*%
%ADD31FreePoly4,10.000000*%
%TD*%
%TA.AperFunction,SMDPad,CuDef*%
%ADD32RotRect,2.600000X2.600000X10.000000*%
%TD*%
%TA.AperFunction,SMDPad,CuDef*%
%ADD33FreePoly4,348.000000*%
%TD*%
%TA.AperFunction,SMDPad,CuDef*%
%ADD34RotRect,2.600000X2.600000X348.000000*%
%TD*%
%TA.AperFunction,Conductor*%
%ADD35C,0.250000*%
%TD*%
G04 APERTURE END LIST*
D10*
%TO.P,REF\u002A\u002A,1*%
%TO.N,BAT_P*%
X183053453Y-100207563D03*
%TD*%
%TO.P,REF\u002A\u002A,1*%
%TO.N,RAW*%
X193053454Y-112207558D03*
%TD*%
%TO.P,REF\u002A\u002A,1*%
%TO.N,GND*%
X197053453Y-96207559D03*
%TD*%
D11*
%TO.P,PWR1,*%
%TO.N,*%
X195968451Y-107557560D03*
X195968451Y-114857560D03*
X198178452Y-107557561D03*
X198178452Y-114857559D03*
D12*
%TO.P,PWR1,1*%
%TO.N,BAT_P*%
X195318452Y-108957560D03*
%TO.P,PWR1,2*%
%TO.N,RAW*%
X195318452Y-111957560D03*
%TO.P,PWR1,3*%
%TO.N,N/C*%
X195318454Y-113457560D03*
%TD*%
D10*
%TO.P,REF\u002A\u002A,1*%
%TO.N,GND*%
X190053456Y-96207559D03*
%TD*%
D13*
%TO.P,RST1,1*%
%TO.N,GND*%
X197903453Y-98582561D03*
%TO.P,RST1,2*%
%TO.N,RST*%
X196203454Y-98582559D03*
%TO.P,RST1,3*%
%TO.N,GND*%
X197903454Y-103832561D03*
%TO.P,RST1,4*%
%TO.N,RST*%
X196203455Y-103832559D03*
%TD*%
D10*
%TO.P,REF\u002A\u002A,1*%
%TO.N,BAT_P*%
X193053453Y-109207559D03*
%TD*%
D14*
%TO.P,MCU1,1*%
%TO.N,P1*%
X183028454Y-63016561D03*
D15*
X191203454Y-63016562D03*
D16*
%TO.N,MCU1_1*%
X193303454Y-63016563D03*
D17*
X195423454Y-63016562D03*
D14*
%TO.P,MCU1,2*%
%TO.N,P0*%
X183028454Y-65556562D03*
D15*
X191203454Y-65556562D03*
D16*
%TO.N,MCU1_2*%
X193303454Y-65556563D03*
D17*
X195423454Y-65556562D03*
D14*
%TO.P,MCU1,3*%
%TO.N,GND*%
X183028454Y-68096561D03*
D15*
X191203454Y-68096564D03*
D16*
%TO.N,MCU1_3*%
X193303454Y-68096562D03*
D17*
X195423454Y-68096562D03*
D14*
%TO.P,MCU1,4*%
%TO.N,GND*%
X183028455Y-70636563D03*
D15*
X191203454Y-70636562D03*
D16*
%TO.N,MCU1_4*%
X193303454Y-70636561D03*
D17*
X195423454Y-70636562D03*
%TO.P,MCU1,5*%
%TO.N,P2*%
X195423452Y-73176562D03*
%TO.P,MCU1,6*%
%TO.N,P3*%
X195423454Y-75716562D03*
%TO.P,MCU1,7*%
%TO.N,P4*%
X195423453Y-78256562D03*
%TO.P,MCU1,8*%
%TO.N,P5*%
X195423454Y-80796562D03*
%TO.P,MCU1,9*%
%TO.N,P6*%
X195423454Y-83336562D03*
%TO.P,MCU1,10*%
%TO.N,P7*%
X195423454Y-85876562D03*
%TO.P,MCU1,11*%
%TO.N,P8*%
X195423453Y-88416561D03*
%TO.P,MCU1,12*%
%TO.N,P9*%
X195423454Y-90956562D03*
%TO.P,MCU1,13*%
%TO.N,P10*%
X180183452Y-90956562D03*
%TO.P,MCU1,14*%
%TO.N,P16*%
X180183454Y-88416562D03*
%TO.P,MCU1,15*%
%TO.N,P14*%
X180183454Y-85876562D03*
%TO.P,MCU1,16*%
%TO.N,P15*%
X180183454Y-83336562D03*
%TO.P,MCU1,17*%
%TO.N,P18*%
X180183454Y-80796562D03*
%TO.P,MCU1,18*%
%TO.N,P19*%
X180183456Y-78256562D03*
%TO.P,MCU1,19*%
%TO.N,P20*%
X180183454Y-75716562D03*
%TO.P,MCU1,20*%
%TO.N,P21*%
X180183455Y-73176562D03*
%TO.P,MCU1,21*%
%TO.N,MCU1_21*%
X180183454Y-70636562D03*
D18*
X182303454Y-70636562D03*
D17*
%TO.P,MCU1,22*%
%TO.N,MCU1_22*%
X180183454Y-68096562D03*
D18*
X182303454Y-68096562D03*
D17*
%TO.P,MCU1,23*%
%TO.N,MCU1_23*%
X180183454Y-65556562D03*
D18*
X182303454Y-65556562D03*
D17*
%TO.P,MCU1,24*%
%TO.N,MCU1_24*%
X180183455Y-63016563D03*
D18*
X182303454Y-63016563D03*
D15*
%TO.P,MCU1,121*%
%TO.N,VCC*%
X184403454Y-70636562D03*
D19*
X192578454Y-70636562D03*
D15*
%TO.P,MCU1,122*%
%TO.N,RST*%
X184403454Y-68096562D03*
D19*
X192578454Y-68096562D03*
D15*
%TO.P,MCU1,123*%
%TO.N,GND*%
X184403454Y-65556563D03*
D19*
X192578454Y-65556562D03*
D15*
%TO.P,MCU1,124*%
%TO.N,RAW*%
X184403454Y-63016562D03*
D19*
X192578454Y-63016561D03*
%TD*%
D20*
%TO.P,JST1,1*%
%TO.N,BAT_P*%
X184237455Y-97207557D03*
%TO.P,JST1,2*%
%TO.N,GND*%
X184237455Y-95207557D03*
D21*
%TO.P,JST1,11*%
%TO.N,JST1_1*%
X187053455Y-95207557D03*
%TO.P,JST1,12*%
%TO.N,JST1_2*%
X187053455Y-97207557D03*
D22*
%TO.P,JST1,31*%
%TO.N,JST1_1*%
X185253455Y-95207558D03*
%TO.P,JST1,32*%
%TO.N,JST1_2*%
X185253454Y-97207556D03*
%TD*%
D23*
%TO.P,S10,*%
%TO.N,GND*%
X143553456Y-103357560D03*
X153553456Y-103357560D03*
D24*
%TO.P,S10,1*%
X143553454Y-102007559D03*
D25*
%TO.N,P15*%
X145278456Y-92257560D03*
D24*
%TO.N,GND*%
X153553457Y-102007559D03*
%TO.P,S10,2*%
%TO.N,P15*%
X148553456Y-104107560D03*
D26*
%TO.N,GND*%
X156828456Y-94457560D03*
%TD*%
D23*
%TO.P,S14,*%
%TO.N,GND*%
X161553454Y-91357561D03*
X171553454Y-91357561D03*
D24*
%TO.P,S14,1*%
X161553452Y-90007560D03*
D25*
%TO.N,P18*%
X163278454Y-80257561D03*
D24*
%TO.N,GND*%
X171553455Y-90007560D03*
%TO.P,S14,2*%
%TO.N,P18*%
X166553454Y-92107561D03*
D26*
%TO.N,GND*%
X174828454Y-82457561D03*
%TD*%
D23*
%TO.P,S18,*%
%TO.N,GND*%
X178758752Y-131802104D03*
X187894207Y-135869470D03*
D24*
%TO.P,S18,1*%
X179307846Y-130568818D03*
D27*
%TO.N,P9*%
X184849395Y-122363370D03*
D24*
%TO.N,GND*%
X188443303Y-134636184D03*
%TO.P,S18,2*%
%TO.N,P9*%
X183021427Y-134520946D03*
D28*
%TO.N,GND*%
X194506024Y-129070978D03*
%TD*%
D23*
%TO.P,S8,*%
%TO.N,GND*%
X125553455Y-81357560D03*
X135553455Y-81357560D03*
D24*
%TO.P,S8,1*%
X125553453Y-80007559D03*
D25*
%TO.N,P3*%
X127278455Y-70257560D03*
D24*
%TO.N,GND*%
X135553456Y-80007559D03*
%TO.P,S8,2*%
%TO.N,P3*%
X130553455Y-82107560D03*
D26*
%TO.N,GND*%
X138828455Y-72457560D03*
%TD*%
D23*
%TO.P,S5,*%
%TO.N,GND*%
X106329012Y-87199320D03*
X116322921Y-86850325D03*
D24*
%TO.P,S5,1*%
X106281898Y-85850143D03*
D29*
%TO.N,P5*%
X107665577Y-76045880D03*
D24*
%TO.N,GND*%
X116275805Y-85501148D03*
%TO.P,S5,2*%
%TO.N,P5*%
X111352141Y-87774366D03*
D30*
%TO.N,GND*%
X119285320Y-77841451D03*
%TD*%
D23*
%TO.P,S13,*%
%TO.N,GND*%
X161553454Y-108357560D03*
X171553454Y-108357560D03*
D24*
%TO.P,S13,1*%
X161553452Y-107007559D03*
D25*
%TO.N,P14*%
X163278454Y-97257560D03*
D24*
%TO.N,GND*%
X171553455Y-107007559D03*
%TO.P,S13,2*%
%TO.N,P14*%
X166553454Y-109107560D03*
D26*
%TO.N,GND*%
X174828454Y-99457560D03*
%TD*%
D23*
%TO.P,S6,*%
%TO.N,GND*%
X105735720Y-70209676D03*
X115729629Y-69860681D03*
D24*
%TO.P,S6,1*%
X105688606Y-68860499D03*
D29*
%TO.N,P0*%
X107072285Y-59056236D03*
D24*
%TO.N,GND*%
X115682513Y-68511504D03*
%TO.P,S6,2*%
%TO.N,P0*%
X110758849Y-70784722D03*
D30*
%TO.N,GND*%
X118692028Y-60851807D03*
%TD*%
D23*
%TO.P,S7,*%
%TO.N,GND*%
X125553454Y-98357561D03*
X135553454Y-98357561D03*
D24*
%TO.P,S7,1*%
X125553452Y-97007560D03*
D25*
%TO.N,P4*%
X127278454Y-87257561D03*
D24*
%TO.N,GND*%
X135553455Y-97007560D03*
%TO.P,S7,2*%
%TO.N,P4*%
X130553454Y-99107561D03*
D26*
%TO.N,GND*%
X138828454Y-89457561D03*
%TD*%
D23*
%TO.P,S1,*%
%TO.N,GND*%
X88360916Y-110250185D03*
X98208994Y-108513703D03*
D24*
%TO.P,S1,1*%
X88126491Y-108920694D03*
D31*
%TO.N,P8*%
X88132215Y-99019276D03*
D24*
%TO.N,GND*%
X97974569Y-107184213D03*
%TO.P,S1,2*%
%TO.N,P8*%
X93415191Y-110120550D03*
D32*
%TO.N,GND*%
X99888770Y-99180216D03*
%TD*%
D23*
%TO.P,S17,*%
%TO.N,GND*%
X160110591Y-126785492D03*
X169892066Y-128864609D03*
D24*
%TO.P,S17,1*%
X160391271Y-125464991D03*
D33*
%TO.N,P16*%
X164105714Y-116286701D03*
D24*
%TO.N,GND*%
X170172747Y-127544108D03*
%TO.P,S17,2*%
%TO.N,P16*%
X164845394Y-128558661D03*
D34*
%TO.N,GND*%
X174945913Y-120840006D03*
%TD*%
D23*
%TO.P,S2,*%
%TO.N,GND*%
X85408898Y-93508452D03*
X95256976Y-91771970D03*
D24*
%TO.P,S2,1*%
X85174473Y-92178961D03*
D31*
%TO.N,P6*%
X85180197Y-82277543D03*
D24*
%TO.N,GND*%
X95022551Y-90442480D03*
%TO.P,S2,2*%
%TO.N,P6*%
X90463173Y-93378817D03*
D32*
%TO.N,GND*%
X96936752Y-82438483D03*
%TD*%
D23*
%TO.P,S12,*%
%TO.N,GND*%
X143553452Y-69357558D03*
X153553452Y-69357558D03*
D24*
%TO.P,S12,1*%
X143553450Y-68007557D03*
D25*
%TO.N,P21*%
X145278452Y-58257558D03*
D24*
%TO.N,GND*%
X153553453Y-68007557D03*
%TO.P,S12,2*%
%TO.N,P21*%
X148553452Y-70107558D03*
D26*
%TO.N,GND*%
X156828452Y-60457558D03*
%TD*%
D23*
%TO.P,S4,*%
%TO.N,GND*%
X106922306Y-104188966D03*
X116916215Y-103839971D03*
D24*
%TO.P,S4,1*%
X106875192Y-102839789D03*
D29*
%TO.N,P7*%
X108258871Y-93035526D03*
D24*
%TO.N,GND*%
X116869099Y-102490794D03*
%TO.P,S4,2*%
%TO.N,P7*%
X111945435Y-104764012D03*
D30*
%TO.N,GND*%
X119878614Y-94831097D03*
%TD*%
D23*
%TO.P,S16,*%
%TO.N,GND*%
X140553451Y-125357560D03*
X150553451Y-125357560D03*
D24*
%TO.P,S16,1*%
X140553449Y-124007559D03*
D25*
%TO.N,P10*%
X142278451Y-114257560D03*
D24*
%TO.N,GND*%
X150553452Y-124007559D03*
%TO.P,S16,2*%
%TO.N,P10*%
X145553451Y-126107560D03*
D26*
%TO.N,GND*%
X153828451Y-116457560D03*
%TD*%
D23*
%TO.P,S9,*%
%TO.N,GND*%
X125553456Y-64357558D03*
X135553456Y-64357558D03*
D24*
%TO.P,S9,1*%
X125553454Y-63007557D03*
D25*
%TO.N,P1*%
X127278456Y-53257558D03*
D24*
%TO.N,GND*%
X135553457Y-63007557D03*
%TO.P,S9,2*%
%TO.N,P1*%
X130553456Y-65107558D03*
D26*
%TO.N,GND*%
X138828456Y-55457558D03*
%TD*%
D23*
%TO.P,S3,*%
%TO.N,GND*%
X82456877Y-76766723D03*
X92304955Y-75030241D03*
D24*
%TO.P,S3,1*%
X82222452Y-75437232D03*
D31*
%TO.N,P2*%
X82228176Y-65535814D03*
D24*
%TO.N,GND*%
X92070530Y-73700751D03*
%TO.P,S3,2*%
%TO.N,P2*%
X87511152Y-76637088D03*
D32*
%TO.N,GND*%
X93984731Y-65696754D03*
%TD*%
D23*
%TO.P,S15,*%
%TO.N,GND*%
X161553453Y-74357561D03*
X171553453Y-74357561D03*
D24*
%TO.P,S15,1*%
X161553451Y-73007560D03*
D25*
%TO.N,P20*%
X163278453Y-63257561D03*
D24*
%TO.N,GND*%
X171553454Y-73007560D03*
%TO.P,S15,2*%
%TO.N,P20*%
X166553453Y-75107561D03*
D26*
%TO.N,GND*%
X174828453Y-65457561D03*
%TD*%
D23*
%TO.P,S11,*%
%TO.N,GND*%
X143553455Y-86357562D03*
X153553455Y-86357562D03*
D24*
%TO.P,S11,1*%
X143553453Y-85007561D03*
D25*
%TO.N,P19*%
X145278455Y-75257562D03*
D24*
%TO.N,GND*%
X153553456Y-85007561D03*
%TO.P,S11,2*%
%TO.N,P19*%
X148553455Y-87107562D03*
D26*
%TO.N,GND*%
X156828455Y-77457562D03*
%TD*%
D35*
%TO.N,P8*%
X89795015Y-107585674D02*
X93415189Y-110120552D01*
X88132217Y-99019275D02*
X88305984Y-99140949D01*
X88305984Y-99140949D02*
X89795015Y-107585674D01*
%TO.N,GND*%
X106329010Y-87199321D02*
X108491714Y-89216074D01*
X185162455Y-94282557D02*
X184237455Y-95207557D01*
X173108242Y-125637774D02*
X170172745Y-127544112D01*
X105735720Y-70209679D02*
X107898421Y-72226428D01*
X138828455Y-72457564D02*
X138828454Y-76732561D01*
X179818491Y-134562812D02*
X178758754Y-131802102D01*
X183378147Y-68096560D02*
X184103151Y-68821560D01*
X183028455Y-70636558D02*
X183378149Y-70636561D01*
X188128454Y-94282557D02*
X185162455Y-94282557D01*
X192228762Y-65556559D02*
X191503756Y-64831562D01*
X178963080Y-130792711D02*
X179307847Y-130568817D01*
X169892066Y-128864607D02*
X167412017Y-130475171D01*
X169462452Y-93448561D02*
X171553455Y-91357561D01*
X184103151Y-68821560D02*
X184703757Y-68821559D01*
X143553452Y-103357560D02*
X145644455Y-105448558D01*
X145644452Y-88448561D02*
X151462453Y-88448560D01*
X190053456Y-96207559D02*
X188128454Y-94282557D01*
X107898421Y-72226428D02*
X113712875Y-72023385D01*
X174828454Y-99457559D02*
X174828455Y-103732559D01*
X119434514Y-82113848D02*
X116275804Y-85501149D01*
X84879212Y-78462854D02*
X82456878Y-76766721D01*
X100631118Y-103390270D02*
X97974571Y-107184211D01*
X156828454Y-94457561D02*
X156828454Y-98732561D01*
X123387349Y-77841451D02*
X125553455Y-80007558D01*
X127644453Y-83448563D02*
X133462456Y-83448561D01*
X197903453Y-97057561D02*
X197053453Y-96207559D01*
X148462451Y-127448562D02*
X150553453Y-125357562D01*
X119710224Y-90009036D02*
X116322921Y-86850325D01*
X133462456Y-83448561D02*
X135553454Y-81357562D01*
X118692029Y-60851808D02*
X118841224Y-65124202D01*
X195910156Y-64381562D02*
X185578454Y-64381561D01*
X178894452Y-61391559D02*
X195460152Y-61391559D01*
X197053453Y-96207559D02*
X190053456Y-96207559D01*
X185133496Y-136929205D02*
X179818491Y-134562812D01*
X90608822Y-77452570D02*
X84879212Y-78462854D01*
X156828451Y-89632557D02*
X153553455Y-86357561D01*
X196598454Y-63693263D02*
X195910156Y-64381562D01*
X138828454Y-76732561D02*
X135553455Y-80007559D01*
X138828455Y-93732559D02*
X135553451Y-97007560D01*
X94727076Y-69906806D02*
X92070528Y-73700749D01*
X185198759Y-70866561D02*
X190973456Y-70866562D01*
X183028455Y-68096560D02*
X183028454Y-70636562D01*
X174828453Y-82457560D02*
X174828456Y-86732560D01*
X88360917Y-110250185D02*
X90783249Y-111946324D01*
X151462456Y-105448559D02*
X153553454Y-103357562D01*
X138828454Y-84632562D02*
X135553455Y-81357560D01*
X140453450Y-72457559D02*
X143553451Y-69357558D01*
X156828452Y-81732562D02*
X153553453Y-85007562D01*
X92304956Y-75030240D02*
X90608822Y-77452570D01*
X102294106Y-91526228D02*
X106329012Y-87199320D01*
X163644455Y-93448560D02*
X169462452Y-93448561D01*
X196598454Y-62529860D02*
X196598454Y-63693263D01*
X142644451Y-127448559D02*
X148462451Y-127448562D01*
X114306169Y-89013028D02*
X116322919Y-86850326D01*
X143553452Y-86357558D02*
X145644452Y-88448561D01*
X197903453Y-98582562D02*
X197903454Y-103832560D01*
X184103148Y-71361559D02*
X184703758Y-71361559D01*
X109085005Y-106205716D02*
X114899462Y-106002673D01*
X183378149Y-70636561D02*
X184103148Y-71361559D01*
X87831229Y-95204585D02*
X93560841Y-94194302D01*
X174828453Y-65457559D02*
X178894452Y-61391559D01*
X153553454Y-69357561D02*
X151462454Y-71448561D01*
X106922306Y-104188965D02*
X109085005Y-106205716D01*
X95256976Y-91771971D02*
X102294106Y-91526228D01*
X156828452Y-94457561D02*
X156828451Y-89632557D01*
X95022551Y-90442481D02*
X97679098Y-86648536D01*
X133462454Y-66448559D02*
X135553453Y-64357559D01*
X161553453Y-108357560D02*
X163644452Y-110448559D01*
X93560841Y-94194302D02*
X95256973Y-91771970D01*
X125553453Y-98357558D02*
X127644454Y-100448558D01*
X174945914Y-120840005D02*
X173997064Y-121456195D01*
X138500000Y-121954109D02*
X138500000Y-114500000D01*
X174828454Y-94632561D02*
X171553455Y-91357559D01*
X138828457Y-59732558D02*
X135553453Y-63007559D01*
X85408900Y-93508451D02*
X87831229Y-95204585D01*
X156828451Y-64732558D02*
X153553455Y-68007559D01*
X118841224Y-65124202D02*
X115682515Y-68511504D01*
X153553453Y-74182556D02*
X153553451Y-69357558D01*
X173997064Y-121456195D02*
X173108242Y-125637774D01*
X156828452Y-77457562D02*
X156828452Y-81732562D01*
X174828455Y-103732559D02*
X171553454Y-107007559D01*
X183028454Y-68096561D02*
X184393453Y-66731562D01*
X93984732Y-65696754D02*
X94727076Y-69906806D01*
X138828456Y-55457563D02*
X138828457Y-59732558D01*
X169462455Y-110448559D02*
X171553453Y-108357560D01*
X174828456Y-86732560D02*
X171553454Y-90007559D01*
X150553453Y-125357559D02*
X160283839Y-125357559D01*
X138828452Y-89457561D02*
X138828455Y-93732559D01*
X151462454Y-71448561D02*
X145644452Y-71448559D01*
X90783249Y-111946324D02*
X96512858Y-110936037D01*
X191503756Y-64831562D02*
X190903149Y-64831559D01*
X138828455Y-72457560D02*
X138828453Y-67632561D01*
X185578454Y-64381561D02*
X184403454Y-65556564D01*
X174828454Y-82457560D02*
X174828453Y-77632563D01*
X120027806Y-99103493D02*
X116869098Y-102490796D01*
X156828453Y-60457557D02*
X156828451Y-64732558D01*
X144642440Y-108357560D02*
X161553453Y-108357560D01*
X192578452Y-65556559D02*
X192228762Y-65556559D01*
X113712875Y-72023385D02*
X115729630Y-69860682D01*
X99888771Y-99180216D02*
X100631118Y-103390270D01*
X153828452Y-116457562D02*
X153828451Y-120732560D01*
X114899462Y-106002673D02*
X116916213Y-103839970D01*
X174828453Y-77632563D02*
X171553454Y-74357560D01*
X138828453Y-89457559D02*
X138828454Y-84632562D01*
X156828454Y-77457559D02*
X158453453Y-77457560D01*
X184393453Y-66731562D02*
X191403454Y-66731562D01*
X190398150Y-65336556D02*
X184623453Y-65336559D01*
X195460152Y-61391559D02*
X196598454Y-62529860D01*
X145644452Y-71448559D02*
X143553454Y-69357560D01*
X138828455Y-72457560D02*
X140453450Y-72457559D01*
X191403454Y-66731562D02*
X192578454Y-65556562D01*
X108491714Y-89216074D02*
X114306169Y-89013028D01*
X138828453Y-67632561D02*
X135553454Y-64357560D01*
X119878612Y-94831095D02*
X120027806Y-99103493D01*
X119285319Y-77841451D02*
X123387349Y-77841451D01*
X119878613Y-94831097D02*
X119710224Y-90009036D01*
X96512858Y-110936037D02*
X98208994Y-108513702D01*
X138500000Y-114500000D02*
X144642440Y-108357560D01*
X153828451Y-120732560D02*
X150553452Y-124007559D01*
X127644454Y-66448560D02*
X133462454Y-66448559D01*
X161553451Y-74357557D02*
X163644452Y-76448561D01*
X185198758Y-68326560D02*
X190973453Y-68326561D01*
X163644452Y-110448559D02*
X169462455Y-110448559D01*
X127644454Y-100448558D02*
X133462454Y-100448559D01*
X190903149Y-64831559D02*
X190398150Y-65336556D01*
X169462454Y-76448560D02*
X171553455Y-74357560D01*
X99050918Y-94428517D02*
X95256975Y-91771970D01*
X174828456Y-99457560D02*
X174828454Y-94632561D01*
X197903453Y-98582562D02*
X197903453Y-97057561D01*
X119285320Y-77841451D02*
X119116931Y-73019391D01*
X140553452Y-125357561D02*
X142644451Y-127448559D01*
X97679098Y-86648536D02*
X96936754Y-82438482D01*
X156828454Y-77457559D02*
X153553453Y-74182556D01*
X125553456Y-64357561D02*
X127644454Y-66448560D01*
X151462453Y-88448560D02*
X153553456Y-86357562D01*
X158453453Y-77457560D02*
X161553454Y-74357559D01*
X187894207Y-135869469D02*
X185133496Y-136929205D01*
X174828456Y-69732561D02*
X171553455Y-73007561D01*
X174828457Y-65457558D02*
X174828456Y-69732561D01*
X163644452Y-76448561D02*
X169462454Y-76448560D01*
X119285322Y-77841453D02*
X119434514Y-82113848D01*
X160283839Y-125357559D02*
X160391270Y-125464990D01*
X161721153Y-129265541D02*
X160110590Y-126785491D01*
X96936752Y-82438483D02*
X96098900Y-77686789D01*
X96098900Y-77686789D02*
X92304955Y-75030240D01*
X156828454Y-98732561D02*
X153553455Y-102007562D01*
X119116931Y-73019391D02*
X115729629Y-69860682D01*
X184703757Y-68821559D02*
X185198758Y-68326560D01*
X167412017Y-130475171D02*
X161721153Y-129265541D01*
X194506025Y-129070977D02*
X192767225Y-132976385D01*
X125553458Y-81357559D02*
X127644453Y-83448563D01*
X133462454Y-100448559D02*
X135553450Y-98357562D01*
X183028455Y-68096560D02*
X183378147Y-68096560D01*
X99888771Y-99180216D02*
X99050918Y-94428517D01*
X140553450Y-124007559D02*
X138500000Y-121954109D01*
X169892065Y-128864608D02*
X178963080Y-130792711D01*
X161553453Y-91357558D02*
X163644455Y-93448560D01*
X184703758Y-71361559D02*
X185198759Y-70866561D01*
X145644455Y-105448558D02*
X151462456Y-105448559D01*
X192767225Y-132976385D02*
X188443303Y-134636184D01*
%TO.N,P6*%
X85180198Y-82277544D02*
X85353966Y-82399217D01*
X85353966Y-82399217D02*
X86842996Y-90843944D01*
X86842996Y-90843944D02*
X90463173Y-93378814D01*
%TO.N,P2*%
X82401943Y-65657486D02*
X83890979Y-74102215D01*
X83890979Y-74102215D02*
X87511151Y-76637085D01*
X82228178Y-65535812D02*
X82401943Y-65657486D01*
%TO.N,P7*%
X108258869Y-93035528D02*
X108414014Y-93180199D01*
X108713277Y-101749974D02*
X111945431Y-104764012D01*
X108414014Y-93180199D02*
X108713277Y-101749974D01*
%TO.N,P5*%
X108119981Y-84760333D02*
X111352141Y-87774367D01*
X107665576Y-76045881D02*
X107820721Y-76190554D01*
X107820721Y-76190554D02*
X108119981Y-84760333D01*
%TO.N,P0*%
X107227431Y-59200912D02*
X107526691Y-67770689D01*
X184703759Y-66281561D02*
X185198758Y-65786561D01*
X107526691Y-67770689D02*
X110758851Y-70784722D01*
X184103149Y-66281558D02*
X184703759Y-66281561D01*
X107072284Y-59056239D02*
X107227431Y-59200912D01*
X185198758Y-65786561D02*
X190973454Y-65786558D01*
X183378149Y-65556560D02*
X184103149Y-66281558D01*
X183028455Y-65556561D02*
X183378149Y-65556560D01*
%TO.N,P4*%
X127428456Y-87407561D02*
X127428454Y-95982561D01*
X127278453Y-87257559D02*
X127428456Y-87407561D01*
X127428454Y-95982561D02*
X130553455Y-99107560D01*
%TO.N,P3*%
X127278453Y-70257559D02*
X127428454Y-70407559D01*
X127428454Y-78982561D02*
X130553452Y-82107562D01*
X127428454Y-70407559D02*
X127428454Y-78982561D01*
%TO.N,P1*%
X127428453Y-53407559D02*
X127428454Y-61982560D01*
X127428454Y-61982560D02*
X130553455Y-65107559D01*
X183378149Y-63016559D02*
X184103147Y-63741560D01*
X184103147Y-63741560D02*
X184703757Y-63741560D01*
X185198757Y-63246560D02*
X190973454Y-63246561D01*
X184703757Y-63741560D02*
X185198757Y-63246560D01*
X183028453Y-63016561D02*
X183378149Y-63016559D01*
X127278455Y-53257562D02*
X127428453Y-53407559D01*
%TO.N,P15*%
X145428455Y-92407558D02*
X145428454Y-100982560D01*
X145428454Y-100982560D02*
X148553455Y-104107561D01*
X145278453Y-92257557D02*
X145428455Y-92407558D01*
%TO.N,P19*%
X145428455Y-75407558D02*
X145428454Y-83982563D01*
X145278457Y-75257558D02*
X145428455Y-75407558D01*
X145428454Y-83982563D02*
X148553450Y-87107560D01*
%TO.N,P21*%
X145278453Y-58257560D02*
X145428454Y-58407557D01*
X145428450Y-66982556D02*
X148553454Y-70107562D01*
X145428454Y-58407557D02*
X145428450Y-66982556D01*
%TO.N,P14*%
X163278450Y-97257560D02*
X163428454Y-97407558D01*
X163428455Y-105982559D02*
X166553454Y-109107558D01*
X163428454Y-97407558D02*
X163428455Y-105982559D01*
%TO.N,P18*%
X163428453Y-88982560D02*
X166553454Y-92107559D01*
X163428454Y-80407563D02*
X163428453Y-88982560D01*
X163278452Y-80257560D02*
X163428454Y-80407563D01*
%TO.N,P20*%
X163428455Y-71982560D02*
X166553452Y-75107557D01*
X163278453Y-63257560D02*
X163428453Y-63407561D01*
X163428453Y-63407561D02*
X163428455Y-71982560D01*
%TO.N,P10*%
X180183453Y-105776604D02*
X180183453Y-90956561D01*
X144153451Y-112382559D02*
X173577499Y-112382560D01*
X142428453Y-122982561D02*
X145553454Y-126107561D01*
X142278452Y-114257559D02*
X142428453Y-114407559D01*
X142428453Y-114407559D02*
X142428453Y-122982561D01*
X142278452Y-114257559D02*
X144153451Y-112382559D01*
X173577499Y-112382560D02*
X180183453Y-105776604D01*
%TO.N,P16*%
X181358453Y-105601604D02*
X181358452Y-89591562D01*
X164105713Y-116286700D02*
X165299804Y-115092613D01*
X164105713Y-116286700D02*
X164221250Y-116464609D01*
X181358452Y-89591562D02*
X180183453Y-88416561D01*
X162438407Y-124852225D02*
X164845393Y-128558661D01*
X171867447Y-115092611D02*
X181358453Y-105601604D01*
X165299804Y-115092613D02*
X171867447Y-115092611D01*
X164221250Y-116464609D02*
X162438407Y-124852225D01*
%TO.N,P9*%
X181437649Y-130395064D02*
X183021427Y-134520946D01*
X184925417Y-122561411D02*
X181437649Y-130395064D01*
X184849395Y-122363370D02*
X184925417Y-122561411D01*
%TO.N,RAW*%
X179696755Y-87051562D02*
X179008455Y-86363263D01*
X193303454Y-111957561D02*
X193053454Y-112207558D01*
X192228760Y-63016562D02*
X191503760Y-62291562D01*
X184403454Y-62322973D02*
X184403455Y-63016559D01*
X182428451Y-100466444D02*
X182428452Y-88785831D01*
X192578458Y-63016561D02*
X192228760Y-63016562D01*
X183922045Y-61841558D02*
X184403454Y-62322973D01*
X193053454Y-112207558D02*
X193053456Y-111091446D01*
X179008455Y-86363263D02*
X179008455Y-62192398D01*
X180670155Y-87051563D02*
X179696755Y-87051562D01*
X179008455Y-62192398D02*
X179359293Y-61841560D01*
X179359293Y-61841560D02*
X183922045Y-61841558D01*
X180682169Y-87039548D02*
X180670155Y-87051563D01*
X191503760Y-62291562D02*
X190903148Y-62291559D01*
X195318451Y-111957560D02*
X193303454Y-111957561D01*
X190903148Y-62291559D02*
X190398147Y-62796561D01*
X193053456Y-111091446D02*
X182428451Y-100466444D01*
X190398147Y-62796561D02*
X184623455Y-62796558D01*
X182428452Y-88785831D02*
X180682169Y-87039548D01*
%TO.N,RST*%
X190398148Y-67876559D02*
X184623455Y-67876559D01*
X192578454Y-67421546D02*
X192578454Y-68096562D01*
X196203454Y-98582559D02*
X196203455Y-103832559D01*
X192228757Y-68096561D02*
X191503761Y-67371561D01*
X190903152Y-67371558D02*
X190398148Y-67876559D01*
X183000000Y-83938313D02*
X194938313Y-72000000D01*
X195910155Y-66921562D02*
X193078438Y-66921562D01*
X192578455Y-68096560D02*
X192228757Y-68096561D01*
X183000000Y-95500000D02*
X183000000Y-83938313D01*
X187632557Y-96132557D02*
X183632557Y-96132557D01*
X190082559Y-98582559D02*
X187632557Y-96132557D01*
X196598454Y-71123263D02*
X196598454Y-67609861D01*
X193078438Y-66921562D02*
X192578454Y-67421546D01*
X191503761Y-67371561D02*
X190903152Y-67371558D01*
X194938313Y-72000000D02*
X195721717Y-72000000D01*
X183632557Y-96132557D02*
X183000000Y-95500000D01*
X196203453Y-98582560D02*
X196203455Y-103832561D01*
X195721717Y-72000000D02*
X196598454Y-71123263D01*
X196203454Y-98582559D02*
X190082559Y-98582559D01*
X193123454Y-66921562D02*
X192578454Y-67466562D01*
X195910155Y-66921562D02*
X193123454Y-66921562D01*
X192578454Y-67466562D02*
X192578454Y-68096562D01*
X196203455Y-103832559D02*
X196203455Y-104107559D01*
X196598454Y-67609861D02*
X195910155Y-66921562D01*
%TO.N,VCC*%
X190903149Y-69911560D02*
X190398148Y-70416559D01*
X192578452Y-70636560D02*
X192228761Y-70636558D01*
X191503761Y-69911563D02*
X190903149Y-69911560D01*
X192228761Y-70636558D02*
X191503761Y-69911563D01*
X190398148Y-70416559D02*
X184623453Y-70416559D01*
%TO.N,MCU1_24*%
X180183453Y-63016559D02*
X182303454Y-63016561D01*
%TO.N,MCU1_1*%
X195423451Y-63016558D02*
X193303453Y-63016560D01*
%TO.N,MCU1_23*%
X180183454Y-65556557D02*
X182303455Y-65556560D01*
%TO.N,MCU1_2*%
X195423452Y-65556559D02*
X193303456Y-65556562D01*
%TO.N,MCU1_22*%
X180183455Y-68096560D02*
X182303451Y-68096563D01*
%TO.N,MCU1_3*%
X195423453Y-68096558D02*
X193303454Y-68096561D01*
%TO.N,MCU1_21*%
X180183452Y-70636559D02*
X182303456Y-70636558D01*
%TO.N,MCU1_4*%
X195423453Y-70636560D02*
X193303452Y-70636557D01*
%TO.N,BAT_P*%
X193303452Y-108957558D02*
X193053453Y-109207559D01*
X195318452Y-108957558D02*
X193303452Y-108957558D01*
X192053455Y-109207561D02*
X183053453Y-100207563D01*
X193053453Y-109207559D02*
X192053455Y-109207561D01*
X184237452Y-97207559D02*
X184237453Y-99023560D01*
X184237453Y-99023560D02*
X183053453Y-100207563D01*
%TO.N,JST1_1*%
X185253451Y-95207561D02*
X187053455Y-95207559D01*
%TO.N,JST1_2*%
X185253457Y-97207560D02*
X187053454Y-97207560D01*
%TD*%
M02*
