%TF.GenerationSoftware,KiCad,Pcbnew,8.0.1*%
%TF.CreationDate,2024-04-29T16:42:10+03:00*%
%TF.ProjectId,ready_splayer_pcb,72656164-795f-4737-906c-617965725f70,v1.0.0*%
%TF.SameCoordinates,Original*%
%TF.FileFunction,Paste,Bot*%
%TF.FilePolarity,Positive*%
%FSLAX46Y46*%
G04 Gerber Fmt 4.6, Leading zero omitted, Abs format (unit mm)*
G04 Created by KiCad (PCBNEW 8.0.1) date 2024-04-29 16:42:10*
%MOMM*%
%LPD*%
G01*
G04 APERTURE LIST*
G04 Aperture macros list*
%AMRotRect*
0 Rectangle, with rotation*
0 The origin of the aperture is its center*
0 $1 length*
0 $2 width*
0 $3 Rotation angle, in degrees counterclockwise*
0 Add horizontal line*
21,1,$1,$2,0,0,$3*%
%AMFreePoly0*
4,1,6,0.500000,-0.625000,-0.650000,-0.625000,-0.150000,0.000000,-0.650000,0.625000,0.500000,0.625000,0.500000,-0.625000,0.500000,-0.625000,$1*%
%AMFreePoly1*
4,1,6,0.250000,0.000000,-0.250000,-0.625000,-0.500000,-0.625000,-0.500000,0.625000,-0.250000,0.625000,0.250000,0.000000,0.250000,0.000000,$1*%
%AMFreePoly2*
4,1,6,0.600000,-1.000000,0.000000,-0.400000,-0.600000,-1.000000,-0.600000,0.250000,0.600000,0.250000,0.600000,-1.000000,0.600000,-1.000000,$1*%
%AMFreePoly3*
4,1,6,0.600000,-0.200000,0.600000,-0.400000,-0.600000,-0.400000,-0.600000,-0.200000,0.000000,0.400000,0.600000,-0.200000,0.600000,-0.200000,$1*%
%AMFreePoly4*
4,1,6,1.300000,-1.300000,-0.050000,-1.300000,-1.300000,-0.250000,-1.300000,1.300000,1.300000,1.300000,1.300000,-1.300000,1.300000,-1.300000,$1*%
G04 Aperture macros list end*
%ADD10R,0.800000X1.000000*%
%ADD11R,1.500000X0.700000*%
%ADD12R,1.000000X1.550000*%
%ADD13FreePoly0,0.000000*%
%ADD14FreePoly1,180.000000*%
%ADD15FreePoly1,0.000000*%
%ADD16FreePoly0,180.000000*%
%ADD17FreePoly2,90.000000*%
%ADD18FreePoly3,90.000000*%
%ADD19FreePoly4,0.000000*%
%ADD20R,2.600000X2.600000*%
%ADD21FreePoly4,336.000000*%
%ADD22RotRect,2.600000X2.600000X336.000000*%
%ADD23FreePoly4,2.000000*%
%ADD24RotRect,2.600000X2.600000X2.000000*%
%ADD25FreePoly4,10.000000*%
%ADD26RotRect,2.600000X2.600000X10.000000*%
%ADD27FreePoly4,348.000000*%
%ADD28RotRect,2.600000X2.600000X348.000000*%
G04 APERTURE END LIST*
D10*
%TO.C,PWR1*%
X195968451Y-107557560D03*
X195968451Y-114857560D03*
X198178452Y-107557561D03*
X198178452Y-114857559D03*
D11*
X195318452Y-108957560D03*
X195318452Y-111957560D03*
X195318454Y-113457560D03*
%TD*%
D12*
%TO.C,RST1*%
X197903453Y-98582561D03*
X196203454Y-98582559D03*
X197903454Y-103832561D03*
X196203455Y-103832559D03*
%TD*%
D13*
%TO.C,MCU1*%
X183028454Y-63016561D03*
D14*
X193303454Y-63016563D03*
D13*
X183028454Y-65556562D03*
D14*
X193303454Y-65556563D03*
D13*
X183028454Y-68096561D03*
D14*
X193303454Y-68096562D03*
D13*
X183028455Y-70636563D03*
D14*
X193303454Y-70636561D03*
D15*
X182303454Y-70636562D03*
X182303454Y-68096562D03*
X182303454Y-65556562D03*
X182303454Y-63016563D03*
D16*
X192578454Y-70636562D03*
X192578454Y-68096562D03*
X192578454Y-65556562D03*
X192578454Y-63016561D03*
%TD*%
D17*
%TO.C,JST1*%
X184237455Y-97207557D03*
X184237455Y-95207557D03*
D18*
X185253455Y-95207558D03*
X185253454Y-97207556D03*
%TD*%
D19*
%TO.C,S10*%
X145278456Y-92257560D03*
D20*
X156828456Y-94457560D03*
%TD*%
D19*
%TO.C,S14*%
X163278454Y-80257561D03*
D20*
X174828454Y-82457561D03*
%TD*%
D21*
%TO.C,S18*%
X184849395Y-122363370D03*
D22*
X194506024Y-129070978D03*
%TD*%
D19*
%TO.C,S8*%
X127278455Y-70257560D03*
D20*
X138828455Y-72457560D03*
%TD*%
D23*
%TO.C,S5*%
X107665577Y-76045880D03*
D24*
X119285320Y-77841451D03*
%TD*%
D19*
%TO.C,S13*%
X163278454Y-97257560D03*
D20*
X174828454Y-99457560D03*
%TD*%
D23*
%TO.C,S6*%
X107072285Y-59056236D03*
D24*
X118692028Y-60851807D03*
%TD*%
D19*
%TO.C,S7*%
X127278454Y-87257561D03*
D20*
X138828454Y-89457561D03*
%TD*%
D25*
%TO.C,S1*%
X88132215Y-99019276D03*
D26*
X99888770Y-99180216D03*
%TD*%
D27*
%TO.C,S17*%
X164105714Y-116286701D03*
D28*
X174945913Y-120840006D03*
%TD*%
D25*
%TO.C,S2*%
X85180197Y-82277543D03*
D26*
X96936752Y-82438483D03*
%TD*%
D19*
%TO.C,S12*%
X145278452Y-58257558D03*
D20*
X156828452Y-60457558D03*
%TD*%
D23*
%TO.C,S4*%
X108258871Y-93035526D03*
D24*
X119878614Y-94831097D03*
%TD*%
D19*
%TO.C,S16*%
X142278451Y-114257560D03*
D20*
X153828451Y-116457560D03*
%TD*%
D19*
%TO.C,S9*%
X127278456Y-53257558D03*
D20*
X138828456Y-55457558D03*
%TD*%
D25*
%TO.C,S3*%
X82228176Y-65535814D03*
D26*
X93984731Y-65696754D03*
%TD*%
D19*
%TO.C,S15*%
X163278453Y-63257561D03*
D20*
X174828453Y-65457561D03*
%TD*%
D19*
%TO.C,S11*%
X145278455Y-75257562D03*
D20*
X156828455Y-77457562D03*
%TD*%
M02*
