M48
; DRILL file {KiCad 8.0.1} date 2024-04-29T16:41:51+0300
; FORMAT={-:-/ absolute / inch / decimal}
; #@! TF.CreationDate,2024-04-29T16:41:51+03:00
; #@! TF.GenerationSoftware,Kicad,Pcbnew,8.0.1
; #@! TF.FileFunction,NonPlated,1,2,NPTH
FMAT,2
INCH
; #@! TA.AperFunction,NonPlated,NPTH,ComponentDrill
T1C0.0354
; #@! TA.AperFunction,NonPlated,NPTH,ComponentDrill
T2C0.0748
; #@! TA.AperFunction,NonPlated,NPTH,ComponentDrill
T3C0.0866
; #@! TA.AperFunction,NonPlated,NPTH,ComponentDrill
T4C0.1181
; #@! TA.AperFunction,NonPlated,NPTH,ComponentDrill
T5C0.1969
%
G90
G05
T1
X7.759Y-4.3192
X7.759Y-4.4373
T2
X3.1917Y-2.8261
X3.308Y-3.4852
X3.4242Y-4.1443
X3.6182Y-2.7509
X3.7345Y-3.41
X3.8507Y-4.0691
X4.1361Y-2.5622
X4.1594Y-3.2311
X4.1828Y-3.9
X4.5689Y-2.5471
X4.5922Y-3.216
X4.6156Y-3.8849
X4.9234Y-3.6696
X4.9234Y-3.0003
X4.9234Y-2.331
X5.3564Y-3.6696
X5.3564Y-3.0003
X5.3564Y-2.331
X5.5139Y-4.7326
X5.632Y-2.5279
X5.632Y-3.1971
X5.632Y-3.8664
X5.947Y-4.7326
X6.0651Y-2.5279
X6.0651Y-3.1971
X6.0651Y-3.8664
X6.3265Y-4.7891
X6.3407Y-2.7247
X6.3407Y-3.394
X6.3407Y-4.0633
X6.7501Y-4.8792
X6.7738Y-2.7247
X6.7738Y-3.394
X6.7738Y-4.0633
X7.1022Y-4.9958
X7.4979Y-5.172
T3
X7.0647Y-4.393
X7.712Y-4.6812
T4
X3.1855Y-2.6772
X3.3017Y-3.3364
X3.3643Y-2.5578
X3.4179Y-3.9955
X3.4805Y-3.2169
X3.5732Y-2.6089
X3.5968Y-3.876
X3.6894Y-3.268
X3.8057Y-3.9271
X4.1506Y-2.414
X4.174Y-3.0829
X4.1973Y-3.7517
X4.3443Y-2.3205
X4.3677Y-2.9894
X4.391Y-3.6583
X4.5441Y-2.4002
X4.5674Y-3.0691
X4.5908Y-3.738
X4.943Y-3.522
X4.943Y-2.8527
X4.943Y-2.1834
X5.1399Y-3.4353
X5.1399Y-2.766
X5.1399Y-2.0968
X5.3368Y-3.522
X5.3368Y-2.8527
X5.3368Y-2.1834
X5.5336Y-4.5849
X5.6517Y-2.3802
X5.6517Y-3.0495
X5.6517Y-3.7188
X5.7305Y-4.4983
X5.8486Y-2.2936
X5.8486Y-2.9629
X5.8486Y-3.6322
X5.9273Y-4.5849
X6.0454Y-2.3802
X6.0454Y-3.0495
X6.0454Y-3.7188
X6.3604Y-2.5771
X6.3604Y-3.2464
X6.3604Y-3.9157
X6.3764Y-4.6488
X6.5572Y-2.4905
X6.5572Y-3.1597
X6.5572Y-3.829
X6.587Y-4.605
X6.7541Y-2.5771
X6.7541Y-3.2464
X6.7541Y-3.9157
X6.7615Y-4.7307
X7.1803Y-4.869
X7.3953Y-4.8699
X7.5399Y-5.0291
T5
X3.405Y-2.7885
X3.5212Y-3.4476
X3.6374Y-4.1067
X3.8761Y-2.7054
X3.9655Y-3.4372
X4.3525Y-2.5547
X4.3758Y-3.2235
X4.3992Y-3.8924
X5.1399Y-4.4058
X5.1399Y-3.6696
X5.1399Y-3.0003
X5.1399Y-2.331
X5.7305Y-4.7326
X5.8486Y-2.5279
X5.8486Y-3.1971
X5.8486Y-3.8664
X6.2029Y-2.8625
X6.5383Y-4.8342
X6.5572Y-2.7247
X6.5572Y-3.394
X6.5572Y-4.0633
X6.9221Y-4.9882
X7.3Y-5.0839
M30
