%TF.GenerationSoftware,KiCad,Pcbnew,8.0.1*%
%TF.CreationDate,2024-04-29T16:42:10+03:00*%
%TF.ProjectId,ready_splayer_pcb,72656164-795f-4737-906c-617965725f70,v1.0.0*%
%TF.SameCoordinates,Original*%
%TF.FileFunction,Legend,Bot*%
%TF.FilePolarity,Positive*%
%FSLAX46Y46*%
G04 Gerber Fmt 4.6, Leading zero omitted, Abs format (unit mm)*
G04 Created by KiCad (PCBNEW 8.0.1) date 2024-04-29 16:42:10*
%MOMM*%
%LPD*%
G01*
G04 APERTURE LIST*
%ADD10C,0.150000*%
%ADD11C,0.120000*%
%ADD12C,0.100000*%
%ADD13C,0.000000*%
G04 APERTURE END LIST*
D10*
X197672499Y-105577379D02*
X197482023Y-105577379D01*
X197482023Y-105577379D02*
X197386785Y-105624998D01*
X197386785Y-105624998D02*
X197291547Y-105720236D01*
X197291547Y-105720236D02*
X197243928Y-105910712D01*
X197243928Y-105910712D02*
X197243928Y-106244045D01*
X197243928Y-106244045D02*
X197291547Y-106434521D01*
X197291547Y-106434521D02*
X197386785Y-106529760D01*
X197386785Y-106529760D02*
X197482023Y-106577379D01*
X197482023Y-106577379D02*
X197672499Y-106577379D01*
X197672499Y-106577379D02*
X197767737Y-106529760D01*
X197767737Y-106529760D02*
X197862975Y-106434521D01*
X197862975Y-106434521D02*
X197910594Y-106244045D01*
X197910594Y-106244045D02*
X197910594Y-105910712D01*
X197910594Y-105910712D02*
X197862975Y-105720236D01*
X197862975Y-105720236D02*
X197767737Y-105624998D01*
X197767737Y-105624998D02*
X197672499Y-105577379D01*
X196815356Y-106577379D02*
X196815356Y-105577379D01*
X196815356Y-105577379D02*
X196243928Y-106577379D01*
X196243928Y-106577379D02*
X196243928Y-105577379D01*
X198005832Y-115747379D02*
X197815356Y-115747379D01*
X197815356Y-115747379D02*
X197720118Y-115794998D01*
X197720118Y-115794998D02*
X197624880Y-115890236D01*
X197624880Y-115890236D02*
X197577261Y-116080712D01*
X197577261Y-116080712D02*
X197577261Y-116414045D01*
X197577261Y-116414045D02*
X197624880Y-116604521D01*
X197624880Y-116604521D02*
X197720118Y-116699760D01*
X197720118Y-116699760D02*
X197815356Y-116747379D01*
X197815356Y-116747379D02*
X198005832Y-116747379D01*
X198005832Y-116747379D02*
X198101070Y-116699760D01*
X198101070Y-116699760D02*
X198196308Y-116604521D01*
X198196308Y-116604521D02*
X198243927Y-116414045D01*
X198243927Y-116414045D02*
X198243927Y-116080712D01*
X198243927Y-116080712D02*
X198196308Y-115890236D01*
X198196308Y-115890236D02*
X198101070Y-115794998D01*
X198101070Y-115794998D02*
X198005832Y-115747379D01*
X196815356Y-116223569D02*
X197148689Y-116223569D01*
X197148689Y-116747379D02*
X197148689Y-115747379D01*
X197148689Y-115747379D02*
X196672499Y-115747379D01*
X195958213Y-116223569D02*
X196291546Y-116223569D01*
X196291546Y-116747379D02*
X196291546Y-115747379D01*
X196291546Y-115747379D02*
X195815356Y-115747379D01*
X195616423Y-86331380D02*
X195616423Y-85331380D01*
X195616423Y-85331380D02*
X195235471Y-85331380D01*
X195235471Y-85331380D02*
X195140233Y-85378999D01*
X195140233Y-85378999D02*
X195092614Y-85426618D01*
X195092614Y-85426618D02*
X195044995Y-85521856D01*
X195044995Y-85521856D02*
X195044995Y-85664713D01*
X195044995Y-85664713D02*
X195092614Y-85759951D01*
X195092614Y-85759951D02*
X195140233Y-85807570D01*
X195140233Y-85807570D02*
X195235471Y-85855189D01*
X195235471Y-85855189D02*
X195616423Y-85855189D01*
X194711661Y-85331380D02*
X194044995Y-85331380D01*
X194044995Y-85331380D02*
X194473566Y-86331380D01*
X181466674Y-91411382D02*
X181466674Y-90411382D01*
X181466674Y-90411382D02*
X181085722Y-90411382D01*
X181085722Y-90411382D02*
X180990484Y-90459001D01*
X180990484Y-90459001D02*
X180942865Y-90506620D01*
X180942865Y-90506620D02*
X180895246Y-90601858D01*
X180895246Y-90601858D02*
X180895246Y-90744715D01*
X180895246Y-90744715D02*
X180942865Y-90839953D01*
X180942865Y-90839953D02*
X180990484Y-90887572D01*
X180990484Y-90887572D02*
X181085722Y-90935191D01*
X181085722Y-90935191D02*
X181466674Y-90935191D01*
X179942865Y-91411382D02*
X180514293Y-91411382D01*
X180228579Y-91411382D02*
X180228579Y-90411382D01*
X180228579Y-90411382D02*
X180323817Y-90554239D01*
X180323817Y-90554239D02*
X180419055Y-90649477D01*
X180419055Y-90649477D02*
X180514293Y-90697096D01*
X179323817Y-90411382D02*
X179228579Y-90411382D01*
X179228579Y-90411382D02*
X179133341Y-90459001D01*
X179133341Y-90459001D02*
X179085722Y-90506620D01*
X179085722Y-90506620D02*
X179038103Y-90601858D01*
X179038103Y-90601858D02*
X178990484Y-90792334D01*
X178990484Y-90792334D02*
X178990484Y-91030429D01*
X178990484Y-91030429D02*
X179038103Y-91220905D01*
X179038103Y-91220905D02*
X179085722Y-91316143D01*
X179085722Y-91316143D02*
X179133341Y-91363763D01*
X179133341Y-91363763D02*
X179228579Y-91411382D01*
X179228579Y-91411382D02*
X179323817Y-91411382D01*
X179323817Y-91411382D02*
X179419055Y-91363763D01*
X179419055Y-91363763D02*
X179466674Y-91316143D01*
X179466674Y-91316143D02*
X179514293Y-91220905D01*
X179514293Y-91220905D02*
X179561912Y-91030429D01*
X179561912Y-91030429D02*
X179561912Y-90792334D01*
X179561912Y-90792334D02*
X179514293Y-90601858D01*
X179514293Y-90601858D02*
X179466674Y-90506620D01*
X179466674Y-90506620D02*
X179419055Y-90459001D01*
X179419055Y-90459001D02*
X179323817Y-90411382D01*
X195493930Y-60926381D02*
X195970120Y-60926381D01*
X195970120Y-60926381D02*
X195970120Y-59926381D01*
X194112977Y-59926381D02*
X194112977Y-60640666D01*
X194112977Y-60640666D02*
X194160596Y-60783523D01*
X194160596Y-60783523D02*
X194255834Y-60878762D01*
X194255834Y-60878762D02*
X194398691Y-60926381D01*
X194398691Y-60926381D02*
X194493929Y-60926381D01*
X193208215Y-60259714D02*
X193208215Y-60926381D01*
X193636786Y-60259714D02*
X193636786Y-60783523D01*
X193636786Y-60783523D02*
X193589167Y-60878762D01*
X193589167Y-60878762D02*
X193493929Y-60926381D01*
X193493929Y-60926381D02*
X193351072Y-60926381D01*
X193351072Y-60926381D02*
X193255834Y-60878762D01*
X193255834Y-60878762D02*
X193208215Y-60831142D01*
X192732024Y-60926381D02*
X192732024Y-60259714D01*
X192732024Y-60354952D02*
X192684405Y-60307333D01*
X192684405Y-60307333D02*
X192589167Y-60259714D01*
X192589167Y-60259714D02*
X192446310Y-60259714D01*
X192446310Y-60259714D02*
X192351072Y-60307333D01*
X192351072Y-60307333D02*
X192303453Y-60402571D01*
X192303453Y-60402571D02*
X192303453Y-60926381D01*
X192303453Y-60402571D02*
X192255834Y-60307333D01*
X192255834Y-60307333D02*
X192160596Y-60259714D01*
X192160596Y-60259714D02*
X192017739Y-60259714D01*
X192017739Y-60259714D02*
X191922500Y-60307333D01*
X191922500Y-60307333D02*
X191874881Y-60402571D01*
X191874881Y-60402571D02*
X191874881Y-60926381D01*
X191398691Y-60259714D02*
X191398691Y-61259714D01*
X191398691Y-60307333D02*
X191303453Y-60259714D01*
X191303453Y-60259714D02*
X191112977Y-60259714D01*
X191112977Y-60259714D02*
X191017739Y-60307333D01*
X191017739Y-60307333D02*
X190970120Y-60354952D01*
X190970120Y-60354952D02*
X190922501Y-60450190D01*
X190922501Y-60450190D02*
X190922501Y-60735904D01*
X190922501Y-60735904D02*
X190970120Y-60831142D01*
X190970120Y-60831142D02*
X191017739Y-60878762D01*
X191017739Y-60878762D02*
X191112977Y-60926381D01*
X191112977Y-60926381D02*
X191303453Y-60926381D01*
X191303453Y-60926381D02*
X191398691Y-60878762D01*
X190112977Y-60878762D02*
X190208215Y-60926381D01*
X190208215Y-60926381D02*
X190398691Y-60926381D01*
X190398691Y-60926381D02*
X190493929Y-60878762D01*
X190493929Y-60878762D02*
X190541548Y-60783523D01*
X190541548Y-60783523D02*
X190541548Y-60402571D01*
X190541548Y-60402571D02*
X190493929Y-60307333D01*
X190493929Y-60307333D02*
X190398691Y-60259714D01*
X190398691Y-60259714D02*
X190208215Y-60259714D01*
X190208215Y-60259714D02*
X190112977Y-60307333D01*
X190112977Y-60307333D02*
X190065358Y-60402571D01*
X190065358Y-60402571D02*
X190065358Y-60497809D01*
X190065358Y-60497809D02*
X190541548Y-60593047D01*
X189636786Y-60926381D02*
X189636786Y-60259714D01*
X189636786Y-60450190D02*
X189589167Y-60354952D01*
X189589167Y-60354952D02*
X189541548Y-60307333D01*
X189541548Y-60307333D02*
X189446310Y-60259714D01*
X189446310Y-60259714D02*
X189351072Y-60259714D01*
X189065357Y-60878762D02*
X188970119Y-60926381D01*
X188970119Y-60926381D02*
X188779643Y-60926381D01*
X188779643Y-60926381D02*
X188684405Y-60878762D01*
X188684405Y-60878762D02*
X188636786Y-60783523D01*
X188636786Y-60783523D02*
X188636786Y-60735904D01*
X188636786Y-60735904D02*
X188684405Y-60640666D01*
X188684405Y-60640666D02*
X188779643Y-60593047D01*
X188779643Y-60593047D02*
X188922500Y-60593047D01*
X188922500Y-60593047D02*
X189017738Y-60545428D01*
X189017738Y-60545428D02*
X189065357Y-60450190D01*
X189065357Y-60450190D02*
X189065357Y-60402571D01*
X189065357Y-60402571D02*
X189017738Y-60307333D01*
X189017738Y-60307333D02*
X188922500Y-60259714D01*
X188922500Y-60259714D02*
X188779643Y-60259714D01*
X188779643Y-60259714D02*
X188684405Y-60307333D01*
X188160595Y-60878762D02*
X188160595Y-60926381D01*
X188160595Y-60926381D02*
X188208214Y-61021619D01*
X188208214Y-61021619D02*
X188255833Y-61069238D01*
X186970119Y-60926381D02*
X186970119Y-59926381D01*
X186970119Y-59926381D02*
X186636786Y-60640666D01*
X186636786Y-60640666D02*
X186303453Y-59926381D01*
X186303453Y-59926381D02*
X186303453Y-60926381D01*
X185255834Y-60831142D02*
X185303453Y-60878762D01*
X185303453Y-60878762D02*
X185446310Y-60926381D01*
X185446310Y-60926381D02*
X185541548Y-60926381D01*
X185541548Y-60926381D02*
X185684405Y-60878762D01*
X185684405Y-60878762D02*
X185779643Y-60783523D01*
X185779643Y-60783523D02*
X185827262Y-60688285D01*
X185827262Y-60688285D02*
X185874881Y-60497809D01*
X185874881Y-60497809D02*
X185874881Y-60354952D01*
X185874881Y-60354952D02*
X185827262Y-60164476D01*
X185827262Y-60164476D02*
X185779643Y-60069238D01*
X185779643Y-60069238D02*
X185684405Y-59974000D01*
X185684405Y-59974000D02*
X185541548Y-59926381D01*
X185541548Y-59926381D02*
X185446310Y-59926381D01*
X185446310Y-59926381D02*
X185303453Y-59974000D01*
X185303453Y-59974000D02*
X185255834Y-60021619D01*
X184827262Y-59926381D02*
X184827262Y-60735904D01*
X184827262Y-60735904D02*
X184779643Y-60831142D01*
X184779643Y-60831142D02*
X184732024Y-60878762D01*
X184732024Y-60878762D02*
X184636786Y-60926381D01*
X184636786Y-60926381D02*
X184446310Y-60926381D01*
X184446310Y-60926381D02*
X184351072Y-60878762D01*
X184351072Y-60878762D02*
X184303453Y-60831142D01*
X184303453Y-60831142D02*
X184255834Y-60735904D01*
X184255834Y-60735904D02*
X184255834Y-59926381D01*
X183017738Y-60926381D02*
X183017738Y-59926381D01*
X183017738Y-59926381D02*
X182779643Y-59926381D01*
X182779643Y-59926381D02*
X182636786Y-59974000D01*
X182636786Y-59974000D02*
X182541548Y-60069238D01*
X182541548Y-60069238D02*
X182493929Y-60164476D01*
X182493929Y-60164476D02*
X182446310Y-60354952D01*
X182446310Y-60354952D02*
X182446310Y-60497809D01*
X182446310Y-60497809D02*
X182493929Y-60688285D01*
X182493929Y-60688285D02*
X182541548Y-60783523D01*
X182541548Y-60783523D02*
X182636786Y-60878762D01*
X182636786Y-60878762D02*
X182779643Y-60926381D01*
X182779643Y-60926381D02*
X183017738Y-60926381D01*
X181874881Y-60926381D02*
X181970119Y-60878762D01*
X181970119Y-60878762D02*
X182017738Y-60831142D01*
X182017738Y-60831142D02*
X182065357Y-60735904D01*
X182065357Y-60735904D02*
X182065357Y-60450190D01*
X182065357Y-60450190D02*
X182017738Y-60354952D01*
X182017738Y-60354952D02*
X181970119Y-60307333D01*
X181970119Y-60307333D02*
X181874881Y-60259714D01*
X181874881Y-60259714D02*
X181732024Y-60259714D01*
X181732024Y-60259714D02*
X181636786Y-60307333D01*
X181636786Y-60307333D02*
X181589167Y-60354952D01*
X181589167Y-60354952D02*
X181541548Y-60450190D01*
X181541548Y-60450190D02*
X181541548Y-60735904D01*
X181541548Y-60735904D02*
X181589167Y-60831142D01*
X181589167Y-60831142D02*
X181636786Y-60878762D01*
X181636786Y-60878762D02*
X181732024Y-60926381D01*
X181732024Y-60926381D02*
X181874881Y-60926381D01*
X181208214Y-60259714D02*
X181017738Y-60926381D01*
X181017738Y-60926381D02*
X180827262Y-60450190D01*
X180827262Y-60450190D02*
X180636786Y-60926381D01*
X180636786Y-60926381D02*
X180446310Y-60259714D01*
X180065357Y-60259714D02*
X180065357Y-60926381D01*
X180065357Y-60354952D02*
X180017738Y-60307333D01*
X180017738Y-60307333D02*
X179922500Y-60259714D01*
X179922500Y-60259714D02*
X179779643Y-60259714D01*
X179779643Y-60259714D02*
X179684405Y-60307333D01*
X179684405Y-60307333D02*
X179636786Y-60402571D01*
X179636786Y-60402571D02*
X179636786Y-60926381D01*
X184466674Y-66011379D02*
X184466674Y-65011379D01*
X184466674Y-65011379D02*
X184085722Y-65011379D01*
X184085722Y-65011379D02*
X183990484Y-65058998D01*
X183990484Y-65058998D02*
X183942865Y-65106617D01*
X183942865Y-65106617D02*
X183895246Y-65201855D01*
X183895246Y-65201855D02*
X183895246Y-65344712D01*
X183895246Y-65344712D02*
X183942865Y-65439950D01*
X183942865Y-65439950D02*
X183990484Y-65487569D01*
X183990484Y-65487569D02*
X184085722Y-65535188D01*
X184085722Y-65535188D02*
X184466674Y-65535188D01*
X183276198Y-65011379D02*
X183180960Y-65011379D01*
X183180960Y-65011379D02*
X183085722Y-65058998D01*
X183085722Y-65058998D02*
X183038103Y-65106617D01*
X183038103Y-65106617D02*
X182990484Y-65201855D01*
X182990484Y-65201855D02*
X182942865Y-65392331D01*
X182942865Y-65392331D02*
X182942865Y-65630426D01*
X182942865Y-65630426D02*
X182990484Y-65820902D01*
X182990484Y-65820902D02*
X183038103Y-65916140D01*
X183038103Y-65916140D02*
X183085722Y-65963760D01*
X183085722Y-65963760D02*
X183180960Y-66011379D01*
X183180960Y-66011379D02*
X183276198Y-66011379D01*
X183276198Y-66011379D02*
X183371436Y-65963760D01*
X183371436Y-65963760D02*
X183419055Y-65916140D01*
X183419055Y-65916140D02*
X183466674Y-65820902D01*
X183466674Y-65820902D02*
X183514293Y-65630426D01*
X183514293Y-65630426D02*
X183514293Y-65392331D01*
X183514293Y-65392331D02*
X183466674Y-65201855D01*
X183466674Y-65201855D02*
X183419055Y-65106617D01*
X183419055Y-65106617D02*
X183371436Y-65058998D01*
X183371436Y-65058998D02*
X183276198Y-65011379D01*
X184466674Y-63471382D02*
X184466674Y-62471382D01*
X184466674Y-62471382D02*
X184085722Y-62471382D01*
X184085722Y-62471382D02*
X183990484Y-62519001D01*
X183990484Y-62519001D02*
X183942865Y-62566620D01*
X183942865Y-62566620D02*
X183895246Y-62661858D01*
X183895246Y-62661858D02*
X183895246Y-62804715D01*
X183895246Y-62804715D02*
X183942865Y-62899953D01*
X183942865Y-62899953D02*
X183990484Y-62947572D01*
X183990484Y-62947572D02*
X184085722Y-62995191D01*
X184085722Y-62995191D02*
X184466674Y-62995191D01*
X182942865Y-63471382D02*
X183514293Y-63471382D01*
X183228579Y-63471382D02*
X183228579Y-62471382D01*
X183228579Y-62471382D02*
X183323817Y-62614239D01*
X183323817Y-62614239D02*
X183419055Y-62709477D01*
X183419055Y-62709477D02*
X183514293Y-62757096D01*
X195616423Y-83791381D02*
X195616423Y-82791381D01*
X195616423Y-82791381D02*
X195235471Y-82791381D01*
X195235471Y-82791381D02*
X195140233Y-82839000D01*
X195140233Y-82839000D02*
X195092614Y-82886619D01*
X195092614Y-82886619D02*
X195044995Y-82981857D01*
X195044995Y-82981857D02*
X195044995Y-83124714D01*
X195044995Y-83124714D02*
X195092614Y-83219952D01*
X195092614Y-83219952D02*
X195140233Y-83267571D01*
X195140233Y-83267571D02*
X195235471Y-83315190D01*
X195235471Y-83315190D02*
X195616423Y-83315190D01*
X194187852Y-82791381D02*
X194378328Y-82791381D01*
X194378328Y-82791381D02*
X194473566Y-82839000D01*
X194473566Y-82839000D02*
X194521185Y-82886619D01*
X194521185Y-82886619D02*
X194616423Y-83029476D01*
X194616423Y-83029476D02*
X194664042Y-83219952D01*
X194664042Y-83219952D02*
X194664042Y-83600904D01*
X194664042Y-83600904D02*
X194616423Y-83696142D01*
X194616423Y-83696142D02*
X194568804Y-83743762D01*
X194568804Y-83743762D02*
X194473566Y-83791381D01*
X194473566Y-83791381D02*
X194283090Y-83791381D01*
X194283090Y-83791381D02*
X194187852Y-83743762D01*
X194187852Y-83743762D02*
X194140233Y-83696142D01*
X194140233Y-83696142D02*
X194092614Y-83600904D01*
X194092614Y-83600904D02*
X194092614Y-83362809D01*
X194092614Y-83362809D02*
X194140233Y-83267571D01*
X194140233Y-83267571D02*
X194187852Y-83219952D01*
X194187852Y-83219952D02*
X194283090Y-83172333D01*
X194283090Y-83172333D02*
X194473566Y-83172333D01*
X194473566Y-83172333D02*
X194568804Y-83219952D01*
X194568804Y-83219952D02*
X194616423Y-83267571D01*
X194616423Y-83267571D02*
X194664042Y-83362809D01*
X193092614Y-63471381D02*
X193425947Y-62995190D01*
X193664042Y-63471381D02*
X193664042Y-62471381D01*
X193664042Y-62471381D02*
X193283090Y-62471381D01*
X193283090Y-62471381D02*
X193187852Y-62519000D01*
X193187852Y-62519000D02*
X193140233Y-62566619D01*
X193140233Y-62566619D02*
X193092614Y-62661857D01*
X193092614Y-62661857D02*
X193092614Y-62804714D01*
X193092614Y-62804714D02*
X193140233Y-62899952D01*
X193140233Y-62899952D02*
X193187852Y-62947571D01*
X193187852Y-62947571D02*
X193283090Y-62995190D01*
X193283090Y-62995190D02*
X193664042Y-62995190D01*
X192711661Y-63185666D02*
X192235471Y-63185666D01*
X192806899Y-63471381D02*
X192473566Y-62471381D01*
X192473566Y-62471381D02*
X192140233Y-63471381D01*
X191902137Y-62471381D02*
X191664042Y-63471381D01*
X191664042Y-63471381D02*
X191473566Y-62757095D01*
X191473566Y-62757095D02*
X191283090Y-63471381D01*
X191283090Y-63471381D02*
X191044995Y-62471381D01*
X181466675Y-81251383D02*
X181466675Y-80251383D01*
X181466675Y-80251383D02*
X181085723Y-80251383D01*
X181085723Y-80251383D02*
X180990485Y-80299002D01*
X180990485Y-80299002D02*
X180942866Y-80346621D01*
X180942866Y-80346621D02*
X180895247Y-80441859D01*
X180895247Y-80441859D02*
X180895247Y-80584716D01*
X180895247Y-80584716D02*
X180942866Y-80679954D01*
X180942866Y-80679954D02*
X180990485Y-80727573D01*
X180990485Y-80727573D02*
X181085723Y-80775192D01*
X181085723Y-80775192D02*
X181466675Y-80775192D01*
X179942866Y-81251383D02*
X180514294Y-81251383D01*
X180228580Y-81251383D02*
X180228580Y-80251383D01*
X180228580Y-80251383D02*
X180323818Y-80394240D01*
X180323818Y-80394240D02*
X180419056Y-80489478D01*
X180419056Y-80489478D02*
X180514294Y-80537097D01*
X179371437Y-80679954D02*
X179466675Y-80632335D01*
X179466675Y-80632335D02*
X179514294Y-80584716D01*
X179514294Y-80584716D02*
X179561913Y-80489478D01*
X179561913Y-80489478D02*
X179561913Y-80441859D01*
X179561913Y-80441859D02*
X179514294Y-80346621D01*
X179514294Y-80346621D02*
X179466675Y-80299002D01*
X179466675Y-80299002D02*
X179371437Y-80251383D01*
X179371437Y-80251383D02*
X179180961Y-80251383D01*
X179180961Y-80251383D02*
X179085723Y-80299002D01*
X179085723Y-80299002D02*
X179038104Y-80346621D01*
X179038104Y-80346621D02*
X178990485Y-80441859D01*
X178990485Y-80441859D02*
X178990485Y-80489478D01*
X178990485Y-80489478D02*
X179038104Y-80584716D01*
X179038104Y-80584716D02*
X179085723Y-80632335D01*
X179085723Y-80632335D02*
X179180961Y-80679954D01*
X179180961Y-80679954D02*
X179371437Y-80679954D01*
X179371437Y-80679954D02*
X179466675Y-80727573D01*
X179466675Y-80727573D02*
X179514294Y-80775192D01*
X179514294Y-80775192D02*
X179561913Y-80870430D01*
X179561913Y-80870430D02*
X179561913Y-81060906D01*
X179561913Y-81060906D02*
X179514294Y-81156144D01*
X179514294Y-81156144D02*
X179466675Y-81203764D01*
X179466675Y-81203764D02*
X179371437Y-81251383D01*
X179371437Y-81251383D02*
X179180961Y-81251383D01*
X179180961Y-81251383D02*
X179085723Y-81203764D01*
X179085723Y-81203764D02*
X179038104Y-81156144D01*
X179038104Y-81156144D02*
X178990485Y-81060906D01*
X178990485Y-81060906D02*
X178990485Y-80870430D01*
X178990485Y-80870430D02*
X179038104Y-80775192D01*
X179038104Y-80775192D02*
X179085723Y-80727573D01*
X179085723Y-80727573D02*
X179180961Y-80679954D01*
X193664042Y-70091381D02*
X193330709Y-71091381D01*
X193330709Y-71091381D02*
X192997376Y-70091381D01*
X192092614Y-70996142D02*
X192140233Y-71043762D01*
X192140233Y-71043762D02*
X192283090Y-71091381D01*
X192283090Y-71091381D02*
X192378328Y-71091381D01*
X192378328Y-71091381D02*
X192521185Y-71043762D01*
X192521185Y-71043762D02*
X192616423Y-70948523D01*
X192616423Y-70948523D02*
X192664042Y-70853285D01*
X192664042Y-70853285D02*
X192711661Y-70662809D01*
X192711661Y-70662809D02*
X192711661Y-70519952D01*
X192711661Y-70519952D02*
X192664042Y-70329476D01*
X192664042Y-70329476D02*
X192616423Y-70234238D01*
X192616423Y-70234238D02*
X192521185Y-70139000D01*
X192521185Y-70139000D02*
X192378328Y-70091381D01*
X192378328Y-70091381D02*
X192283090Y-70091381D01*
X192283090Y-70091381D02*
X192140233Y-70139000D01*
X192140233Y-70139000D02*
X192092614Y-70186619D01*
X191092614Y-70996142D02*
X191140233Y-71043762D01*
X191140233Y-71043762D02*
X191283090Y-71091381D01*
X191283090Y-71091381D02*
X191378328Y-71091381D01*
X191378328Y-71091381D02*
X191521185Y-71043762D01*
X191521185Y-71043762D02*
X191616423Y-70948523D01*
X191616423Y-70948523D02*
X191664042Y-70853285D01*
X191664042Y-70853285D02*
X191711661Y-70662809D01*
X191711661Y-70662809D02*
X191711661Y-70519952D01*
X191711661Y-70519952D02*
X191664042Y-70329476D01*
X191664042Y-70329476D02*
X191616423Y-70234238D01*
X191616423Y-70234238D02*
X191521185Y-70139000D01*
X191521185Y-70139000D02*
X191378328Y-70091381D01*
X191378328Y-70091381D02*
X191283090Y-70091381D01*
X191283090Y-70091381D02*
X191140233Y-70139000D01*
X191140233Y-70139000D02*
X191092614Y-70186619D01*
X181466675Y-83791381D02*
X181466675Y-82791381D01*
X181466675Y-82791381D02*
X181085723Y-82791381D01*
X181085723Y-82791381D02*
X180990485Y-82839000D01*
X180990485Y-82839000D02*
X180942866Y-82886619D01*
X180942866Y-82886619D02*
X180895247Y-82981857D01*
X180895247Y-82981857D02*
X180895247Y-83124714D01*
X180895247Y-83124714D02*
X180942866Y-83219952D01*
X180942866Y-83219952D02*
X180990485Y-83267571D01*
X180990485Y-83267571D02*
X181085723Y-83315190D01*
X181085723Y-83315190D02*
X181466675Y-83315190D01*
X179942866Y-83791381D02*
X180514294Y-83791381D01*
X180228580Y-83791381D02*
X180228580Y-82791381D01*
X180228580Y-82791381D02*
X180323818Y-82934238D01*
X180323818Y-82934238D02*
X180419056Y-83029476D01*
X180419056Y-83029476D02*
X180514294Y-83077095D01*
X179038104Y-82791381D02*
X179514294Y-82791381D01*
X179514294Y-82791381D02*
X179561913Y-83267571D01*
X179561913Y-83267571D02*
X179514294Y-83219952D01*
X179514294Y-83219952D02*
X179419056Y-83172333D01*
X179419056Y-83172333D02*
X179180961Y-83172333D01*
X179180961Y-83172333D02*
X179085723Y-83219952D01*
X179085723Y-83219952D02*
X179038104Y-83267571D01*
X179038104Y-83267571D02*
X178990485Y-83362809D01*
X178990485Y-83362809D02*
X178990485Y-83600904D01*
X178990485Y-83600904D02*
X179038104Y-83696142D01*
X179038104Y-83696142D02*
X179085723Y-83743762D01*
X179085723Y-83743762D02*
X179180961Y-83791381D01*
X179180961Y-83791381D02*
X179419056Y-83791381D01*
X179419056Y-83791381D02*
X179514294Y-83743762D01*
X179514294Y-83743762D02*
X179561913Y-83696142D01*
X183942865Y-70139000D02*
X184038103Y-70091381D01*
X184038103Y-70091381D02*
X184180960Y-70091381D01*
X184180960Y-70091381D02*
X184323817Y-70139000D01*
X184323817Y-70139000D02*
X184419055Y-70234238D01*
X184419055Y-70234238D02*
X184466674Y-70329476D01*
X184466674Y-70329476D02*
X184514293Y-70519952D01*
X184514293Y-70519952D02*
X184514293Y-70662809D01*
X184514293Y-70662809D02*
X184466674Y-70853285D01*
X184466674Y-70853285D02*
X184419055Y-70948523D01*
X184419055Y-70948523D02*
X184323817Y-71043762D01*
X184323817Y-71043762D02*
X184180960Y-71091381D01*
X184180960Y-71091381D02*
X184085722Y-71091381D01*
X184085722Y-71091381D02*
X183942865Y-71043762D01*
X183942865Y-71043762D02*
X183895246Y-70996142D01*
X183895246Y-70996142D02*
X183895246Y-70662809D01*
X183895246Y-70662809D02*
X184085722Y-70662809D01*
X183466674Y-71091381D02*
X183466674Y-70091381D01*
X183466674Y-70091381D02*
X182895246Y-71091381D01*
X182895246Y-71091381D02*
X182895246Y-70091381D01*
X182419055Y-71091381D02*
X182419055Y-70091381D01*
X182419055Y-70091381D02*
X182180960Y-70091381D01*
X182180960Y-70091381D02*
X182038103Y-70139000D01*
X182038103Y-70139000D02*
X181942865Y-70234238D01*
X181942865Y-70234238D02*
X181895246Y-70329476D01*
X181895246Y-70329476D02*
X181847627Y-70519952D01*
X181847627Y-70519952D02*
X181847627Y-70662809D01*
X181847627Y-70662809D02*
X181895246Y-70853285D01*
X181895246Y-70853285D02*
X181942865Y-70948523D01*
X181942865Y-70948523D02*
X182038103Y-71043762D01*
X182038103Y-71043762D02*
X182180960Y-71091381D01*
X182180960Y-71091381D02*
X182419055Y-71091381D01*
X181466674Y-78711381D02*
X181466674Y-77711381D01*
X181466674Y-77711381D02*
X181085722Y-77711381D01*
X181085722Y-77711381D02*
X180990484Y-77759000D01*
X180990484Y-77759000D02*
X180942865Y-77806619D01*
X180942865Y-77806619D02*
X180895246Y-77901857D01*
X180895246Y-77901857D02*
X180895246Y-78044714D01*
X180895246Y-78044714D02*
X180942865Y-78139952D01*
X180942865Y-78139952D02*
X180990484Y-78187571D01*
X180990484Y-78187571D02*
X181085722Y-78235190D01*
X181085722Y-78235190D02*
X181466674Y-78235190D01*
X179942865Y-78711381D02*
X180514293Y-78711381D01*
X180228579Y-78711381D02*
X180228579Y-77711381D01*
X180228579Y-77711381D02*
X180323817Y-77854238D01*
X180323817Y-77854238D02*
X180419055Y-77949476D01*
X180419055Y-77949476D02*
X180514293Y-77997095D01*
X179466674Y-78711381D02*
X179276198Y-78711381D01*
X179276198Y-78711381D02*
X179180960Y-78663762D01*
X179180960Y-78663762D02*
X179133341Y-78616142D01*
X179133341Y-78616142D02*
X179038103Y-78473285D01*
X179038103Y-78473285D02*
X178990484Y-78282809D01*
X178990484Y-78282809D02*
X178990484Y-77901857D01*
X178990484Y-77901857D02*
X179038103Y-77806619D01*
X179038103Y-77806619D02*
X179085722Y-77759000D01*
X179085722Y-77759000D02*
X179180960Y-77711381D01*
X179180960Y-77711381D02*
X179371436Y-77711381D01*
X179371436Y-77711381D02*
X179466674Y-77759000D01*
X179466674Y-77759000D02*
X179514293Y-77806619D01*
X179514293Y-77806619D02*
X179561912Y-77901857D01*
X179561912Y-77901857D02*
X179561912Y-78139952D01*
X179561912Y-78139952D02*
X179514293Y-78235190D01*
X179514293Y-78235190D02*
X179466674Y-78282809D01*
X179466674Y-78282809D02*
X179371436Y-78330428D01*
X179371436Y-78330428D02*
X179180960Y-78330428D01*
X179180960Y-78330428D02*
X179085722Y-78282809D01*
X179085722Y-78282809D02*
X179038103Y-78235190D01*
X179038103Y-78235190D02*
X178990484Y-78139952D01*
X181466674Y-86331380D02*
X181466674Y-85331380D01*
X181466674Y-85331380D02*
X181085722Y-85331380D01*
X181085722Y-85331380D02*
X180990484Y-85378999D01*
X180990484Y-85378999D02*
X180942865Y-85426618D01*
X180942865Y-85426618D02*
X180895246Y-85521856D01*
X180895246Y-85521856D02*
X180895246Y-85664713D01*
X180895246Y-85664713D02*
X180942865Y-85759951D01*
X180942865Y-85759951D02*
X180990484Y-85807570D01*
X180990484Y-85807570D02*
X181085722Y-85855189D01*
X181085722Y-85855189D02*
X181466674Y-85855189D01*
X179942865Y-86331380D02*
X180514293Y-86331380D01*
X180228579Y-86331380D02*
X180228579Y-85331380D01*
X180228579Y-85331380D02*
X180323817Y-85474237D01*
X180323817Y-85474237D02*
X180419055Y-85569475D01*
X180419055Y-85569475D02*
X180514293Y-85617094D01*
X179085722Y-85664713D02*
X179085722Y-86331380D01*
X179323817Y-85283761D02*
X179561912Y-85998046D01*
X179561912Y-85998046D02*
X178942865Y-85998046D01*
X181466674Y-76171381D02*
X181466674Y-75171381D01*
X181466674Y-75171381D02*
X181085722Y-75171381D01*
X181085722Y-75171381D02*
X180990484Y-75219000D01*
X180990484Y-75219000D02*
X180942865Y-75266619D01*
X180942865Y-75266619D02*
X180895246Y-75361857D01*
X180895246Y-75361857D02*
X180895246Y-75504714D01*
X180895246Y-75504714D02*
X180942865Y-75599952D01*
X180942865Y-75599952D02*
X180990484Y-75647571D01*
X180990484Y-75647571D02*
X181085722Y-75695190D01*
X181085722Y-75695190D02*
X181466674Y-75695190D01*
X180514293Y-75266619D02*
X180466674Y-75219000D01*
X180466674Y-75219000D02*
X180371436Y-75171381D01*
X180371436Y-75171381D02*
X180133341Y-75171381D01*
X180133341Y-75171381D02*
X180038103Y-75219000D01*
X180038103Y-75219000D02*
X179990484Y-75266619D01*
X179990484Y-75266619D02*
X179942865Y-75361857D01*
X179942865Y-75361857D02*
X179942865Y-75457095D01*
X179942865Y-75457095D02*
X179990484Y-75599952D01*
X179990484Y-75599952D02*
X180561912Y-76171381D01*
X180561912Y-76171381D02*
X179942865Y-76171381D01*
X179323817Y-75171381D02*
X179228579Y-75171381D01*
X179228579Y-75171381D02*
X179133341Y-75219000D01*
X179133341Y-75219000D02*
X179085722Y-75266619D01*
X179085722Y-75266619D02*
X179038103Y-75361857D01*
X179038103Y-75361857D02*
X178990484Y-75552333D01*
X178990484Y-75552333D02*
X178990484Y-75790428D01*
X178990484Y-75790428D02*
X179038103Y-75980904D01*
X179038103Y-75980904D02*
X179085722Y-76076142D01*
X179085722Y-76076142D02*
X179133341Y-76123762D01*
X179133341Y-76123762D02*
X179228579Y-76171381D01*
X179228579Y-76171381D02*
X179323817Y-76171381D01*
X179323817Y-76171381D02*
X179419055Y-76123762D01*
X179419055Y-76123762D02*
X179466674Y-76076142D01*
X179466674Y-76076142D02*
X179514293Y-75980904D01*
X179514293Y-75980904D02*
X179561912Y-75790428D01*
X179561912Y-75790428D02*
X179561912Y-75552333D01*
X179561912Y-75552333D02*
X179514293Y-75361857D01*
X179514293Y-75361857D02*
X179466674Y-75266619D01*
X179466674Y-75266619D02*
X179419055Y-75219000D01*
X179419055Y-75219000D02*
X179323817Y-75171381D01*
X195616423Y-73631381D02*
X195616423Y-72631381D01*
X195616423Y-72631381D02*
X195235471Y-72631381D01*
X195235471Y-72631381D02*
X195140233Y-72679000D01*
X195140233Y-72679000D02*
X195092614Y-72726619D01*
X195092614Y-72726619D02*
X195044995Y-72821857D01*
X195044995Y-72821857D02*
X195044995Y-72964714D01*
X195044995Y-72964714D02*
X195092614Y-73059952D01*
X195092614Y-73059952D02*
X195140233Y-73107571D01*
X195140233Y-73107571D02*
X195235471Y-73155190D01*
X195235471Y-73155190D02*
X195616423Y-73155190D01*
X194664042Y-72726619D02*
X194616423Y-72679000D01*
X194616423Y-72679000D02*
X194521185Y-72631381D01*
X194521185Y-72631381D02*
X194283090Y-72631381D01*
X194283090Y-72631381D02*
X194187852Y-72679000D01*
X194187852Y-72679000D02*
X194140233Y-72726619D01*
X194140233Y-72726619D02*
X194092614Y-72821857D01*
X194092614Y-72821857D02*
X194092614Y-72917095D01*
X194092614Y-72917095D02*
X194140233Y-73059952D01*
X194140233Y-73059952D02*
X194711661Y-73631381D01*
X194711661Y-73631381D02*
X194092614Y-73631381D01*
X195616422Y-91411381D02*
X195616422Y-90411381D01*
X195616422Y-90411381D02*
X195235470Y-90411381D01*
X195235470Y-90411381D02*
X195140232Y-90459000D01*
X195140232Y-90459000D02*
X195092613Y-90506619D01*
X195092613Y-90506619D02*
X195044994Y-90601857D01*
X195044994Y-90601857D02*
X195044994Y-90744714D01*
X195044994Y-90744714D02*
X195092613Y-90839952D01*
X195092613Y-90839952D02*
X195140232Y-90887571D01*
X195140232Y-90887571D02*
X195235470Y-90935190D01*
X195235470Y-90935190D02*
X195616422Y-90935190D01*
X194568803Y-91411381D02*
X194378327Y-91411381D01*
X194378327Y-91411381D02*
X194283089Y-91363762D01*
X194283089Y-91363762D02*
X194235470Y-91316142D01*
X194235470Y-91316142D02*
X194140232Y-91173285D01*
X194140232Y-91173285D02*
X194092613Y-90982809D01*
X194092613Y-90982809D02*
X194092613Y-90601857D01*
X194092613Y-90601857D02*
X194140232Y-90506619D01*
X194140232Y-90506619D02*
X194187851Y-90459000D01*
X194187851Y-90459000D02*
X194283089Y-90411381D01*
X194283089Y-90411381D02*
X194473565Y-90411381D01*
X194473565Y-90411381D02*
X194568803Y-90459000D01*
X194568803Y-90459000D02*
X194616422Y-90506619D01*
X194616422Y-90506619D02*
X194664041Y-90601857D01*
X194664041Y-90601857D02*
X194664041Y-90839952D01*
X194664041Y-90839952D02*
X194616422Y-90935190D01*
X194616422Y-90935190D02*
X194568803Y-90982809D01*
X194568803Y-90982809D02*
X194473565Y-91030428D01*
X194473565Y-91030428D02*
X194283089Y-91030428D01*
X194283089Y-91030428D02*
X194187851Y-90982809D01*
X194187851Y-90982809D02*
X194140232Y-90935190D01*
X194140232Y-90935190D02*
X194092613Y-90839952D01*
X195616423Y-81251381D02*
X195616423Y-80251381D01*
X195616423Y-80251381D02*
X195235471Y-80251381D01*
X195235471Y-80251381D02*
X195140233Y-80299000D01*
X195140233Y-80299000D02*
X195092614Y-80346619D01*
X195092614Y-80346619D02*
X195044995Y-80441857D01*
X195044995Y-80441857D02*
X195044995Y-80584714D01*
X195044995Y-80584714D02*
X195092614Y-80679952D01*
X195092614Y-80679952D02*
X195140233Y-80727571D01*
X195140233Y-80727571D02*
X195235471Y-80775190D01*
X195235471Y-80775190D02*
X195616423Y-80775190D01*
X194140233Y-80251381D02*
X194616423Y-80251381D01*
X194616423Y-80251381D02*
X194664042Y-80727571D01*
X194664042Y-80727571D02*
X194616423Y-80679952D01*
X194616423Y-80679952D02*
X194521185Y-80632333D01*
X194521185Y-80632333D02*
X194283090Y-80632333D01*
X194283090Y-80632333D02*
X194187852Y-80679952D01*
X194187852Y-80679952D02*
X194140233Y-80727571D01*
X194140233Y-80727571D02*
X194092614Y-80822809D01*
X194092614Y-80822809D02*
X194092614Y-81060904D01*
X194092614Y-81060904D02*
X194140233Y-81156142D01*
X194140233Y-81156142D02*
X194187852Y-81203762D01*
X194187852Y-81203762D02*
X194283090Y-81251381D01*
X194283090Y-81251381D02*
X194521185Y-81251381D01*
X194521185Y-81251381D02*
X194616423Y-81203762D01*
X194616423Y-81203762D02*
X194664042Y-81156142D01*
X193187852Y-65059000D02*
X193283090Y-65011381D01*
X193283090Y-65011381D02*
X193425947Y-65011381D01*
X193425947Y-65011381D02*
X193568804Y-65059000D01*
X193568804Y-65059000D02*
X193664042Y-65154238D01*
X193664042Y-65154238D02*
X193711661Y-65249476D01*
X193711661Y-65249476D02*
X193759280Y-65439952D01*
X193759280Y-65439952D02*
X193759280Y-65582809D01*
X193759280Y-65582809D02*
X193711661Y-65773285D01*
X193711661Y-65773285D02*
X193664042Y-65868523D01*
X193664042Y-65868523D02*
X193568804Y-65963762D01*
X193568804Y-65963762D02*
X193425947Y-66011381D01*
X193425947Y-66011381D02*
X193330709Y-66011381D01*
X193330709Y-66011381D02*
X193187852Y-65963762D01*
X193187852Y-65963762D02*
X193140233Y-65916142D01*
X193140233Y-65916142D02*
X193140233Y-65582809D01*
X193140233Y-65582809D02*
X193330709Y-65582809D01*
X192711661Y-66011381D02*
X192711661Y-65011381D01*
X192711661Y-65011381D02*
X192140233Y-66011381D01*
X192140233Y-66011381D02*
X192140233Y-65011381D01*
X191664042Y-66011381D02*
X191664042Y-65011381D01*
X191664042Y-65011381D02*
X191425947Y-65011381D01*
X191425947Y-65011381D02*
X191283090Y-65059000D01*
X191283090Y-65059000D02*
X191187852Y-65154238D01*
X191187852Y-65154238D02*
X191140233Y-65249476D01*
X191140233Y-65249476D02*
X191092614Y-65439952D01*
X191092614Y-65439952D02*
X191092614Y-65582809D01*
X191092614Y-65582809D02*
X191140233Y-65773285D01*
X191140233Y-65773285D02*
X191187852Y-65868523D01*
X191187852Y-65868523D02*
X191283090Y-65963762D01*
X191283090Y-65963762D02*
X191425947Y-66011381D01*
X191425947Y-66011381D02*
X191664042Y-66011381D01*
X181466674Y-73631381D02*
X181466674Y-72631381D01*
X181466674Y-72631381D02*
X181085722Y-72631381D01*
X181085722Y-72631381D02*
X180990484Y-72679000D01*
X180990484Y-72679000D02*
X180942865Y-72726619D01*
X180942865Y-72726619D02*
X180895246Y-72821857D01*
X180895246Y-72821857D02*
X180895246Y-72964714D01*
X180895246Y-72964714D02*
X180942865Y-73059952D01*
X180942865Y-73059952D02*
X180990484Y-73107571D01*
X180990484Y-73107571D02*
X181085722Y-73155190D01*
X181085722Y-73155190D02*
X181466674Y-73155190D01*
X180514293Y-72726619D02*
X180466674Y-72679000D01*
X180466674Y-72679000D02*
X180371436Y-72631381D01*
X180371436Y-72631381D02*
X180133341Y-72631381D01*
X180133341Y-72631381D02*
X180038103Y-72679000D01*
X180038103Y-72679000D02*
X179990484Y-72726619D01*
X179990484Y-72726619D02*
X179942865Y-72821857D01*
X179942865Y-72821857D02*
X179942865Y-72917095D01*
X179942865Y-72917095D02*
X179990484Y-73059952D01*
X179990484Y-73059952D02*
X180561912Y-73631381D01*
X180561912Y-73631381D02*
X179942865Y-73631381D01*
X178990484Y-73631381D02*
X179561912Y-73631381D01*
X179276198Y-73631381D02*
X179276198Y-72631381D01*
X179276198Y-72631381D02*
X179371436Y-72774238D01*
X179371436Y-72774238D02*
X179466674Y-72869476D01*
X179466674Y-72869476D02*
X179561912Y-72917095D01*
X195616423Y-88871381D02*
X195616423Y-87871381D01*
X195616423Y-87871381D02*
X195235471Y-87871381D01*
X195235471Y-87871381D02*
X195140233Y-87919000D01*
X195140233Y-87919000D02*
X195092614Y-87966619D01*
X195092614Y-87966619D02*
X195044995Y-88061857D01*
X195044995Y-88061857D02*
X195044995Y-88204714D01*
X195044995Y-88204714D02*
X195092614Y-88299952D01*
X195092614Y-88299952D02*
X195140233Y-88347571D01*
X195140233Y-88347571D02*
X195235471Y-88395190D01*
X195235471Y-88395190D02*
X195616423Y-88395190D01*
X194473566Y-88299952D02*
X194568804Y-88252333D01*
X194568804Y-88252333D02*
X194616423Y-88204714D01*
X194616423Y-88204714D02*
X194664042Y-88109476D01*
X194664042Y-88109476D02*
X194664042Y-88061857D01*
X194664042Y-88061857D02*
X194616423Y-87966619D01*
X194616423Y-87966619D02*
X194568804Y-87919000D01*
X194568804Y-87919000D02*
X194473566Y-87871381D01*
X194473566Y-87871381D02*
X194283090Y-87871381D01*
X194283090Y-87871381D02*
X194187852Y-87919000D01*
X194187852Y-87919000D02*
X194140233Y-87966619D01*
X194140233Y-87966619D02*
X194092614Y-88061857D01*
X194092614Y-88061857D02*
X194092614Y-88109476D01*
X194092614Y-88109476D02*
X194140233Y-88204714D01*
X194140233Y-88204714D02*
X194187852Y-88252333D01*
X194187852Y-88252333D02*
X194283090Y-88299952D01*
X194283090Y-88299952D02*
X194473566Y-88299952D01*
X194473566Y-88299952D02*
X194568804Y-88347571D01*
X194568804Y-88347571D02*
X194616423Y-88395190D01*
X194616423Y-88395190D02*
X194664042Y-88490428D01*
X194664042Y-88490428D02*
X194664042Y-88680904D01*
X194664042Y-88680904D02*
X194616423Y-88776142D01*
X194616423Y-88776142D02*
X194568804Y-88823762D01*
X194568804Y-88823762D02*
X194473566Y-88871381D01*
X194473566Y-88871381D02*
X194283090Y-88871381D01*
X194283090Y-88871381D02*
X194187852Y-88823762D01*
X194187852Y-88823762D02*
X194140233Y-88776142D01*
X194140233Y-88776142D02*
X194092614Y-88680904D01*
X194092614Y-88680904D02*
X194092614Y-88490428D01*
X194092614Y-88490428D02*
X194140233Y-88395190D01*
X194140233Y-88395190D02*
X194187852Y-88347571D01*
X194187852Y-88347571D02*
X194283090Y-88299952D01*
X183942865Y-67599000D02*
X184038103Y-67551381D01*
X184038103Y-67551381D02*
X184180960Y-67551381D01*
X184180960Y-67551381D02*
X184323817Y-67599000D01*
X184323817Y-67599000D02*
X184419055Y-67694238D01*
X184419055Y-67694238D02*
X184466674Y-67789476D01*
X184466674Y-67789476D02*
X184514293Y-67979952D01*
X184514293Y-67979952D02*
X184514293Y-68122809D01*
X184514293Y-68122809D02*
X184466674Y-68313285D01*
X184466674Y-68313285D02*
X184419055Y-68408523D01*
X184419055Y-68408523D02*
X184323817Y-68503762D01*
X184323817Y-68503762D02*
X184180960Y-68551381D01*
X184180960Y-68551381D02*
X184085722Y-68551381D01*
X184085722Y-68551381D02*
X183942865Y-68503762D01*
X183942865Y-68503762D02*
X183895246Y-68456142D01*
X183895246Y-68456142D02*
X183895246Y-68122809D01*
X183895246Y-68122809D02*
X184085722Y-68122809D01*
X183466674Y-68551381D02*
X183466674Y-67551381D01*
X183466674Y-67551381D02*
X182895246Y-68551381D01*
X182895246Y-68551381D02*
X182895246Y-67551381D01*
X182419055Y-68551381D02*
X182419055Y-67551381D01*
X182419055Y-67551381D02*
X182180960Y-67551381D01*
X182180960Y-67551381D02*
X182038103Y-67599000D01*
X182038103Y-67599000D02*
X181942865Y-67694238D01*
X181942865Y-67694238D02*
X181895246Y-67789476D01*
X181895246Y-67789476D02*
X181847627Y-67979952D01*
X181847627Y-67979952D02*
X181847627Y-68122809D01*
X181847627Y-68122809D02*
X181895246Y-68313285D01*
X181895246Y-68313285D02*
X181942865Y-68408523D01*
X181942865Y-68408523D02*
X182038103Y-68503762D01*
X182038103Y-68503762D02*
X182180960Y-68551381D01*
X182180960Y-68551381D02*
X182419055Y-68551381D01*
X195616423Y-76171381D02*
X195616423Y-75171381D01*
X195616423Y-75171381D02*
X195235471Y-75171381D01*
X195235471Y-75171381D02*
X195140233Y-75219000D01*
X195140233Y-75219000D02*
X195092614Y-75266619D01*
X195092614Y-75266619D02*
X195044995Y-75361857D01*
X195044995Y-75361857D02*
X195044995Y-75504714D01*
X195044995Y-75504714D02*
X195092614Y-75599952D01*
X195092614Y-75599952D02*
X195140233Y-75647571D01*
X195140233Y-75647571D02*
X195235471Y-75695190D01*
X195235471Y-75695190D02*
X195616423Y-75695190D01*
X194711661Y-75171381D02*
X194092614Y-75171381D01*
X194092614Y-75171381D02*
X194425947Y-75552333D01*
X194425947Y-75552333D02*
X194283090Y-75552333D01*
X194283090Y-75552333D02*
X194187852Y-75599952D01*
X194187852Y-75599952D02*
X194140233Y-75647571D01*
X194140233Y-75647571D02*
X194092614Y-75742809D01*
X194092614Y-75742809D02*
X194092614Y-75980904D01*
X194092614Y-75980904D02*
X194140233Y-76076142D01*
X194140233Y-76076142D02*
X194187852Y-76123762D01*
X194187852Y-76123762D02*
X194283090Y-76171381D01*
X194283090Y-76171381D02*
X194568804Y-76171381D01*
X194568804Y-76171381D02*
X194664042Y-76123762D01*
X194664042Y-76123762D02*
X194711661Y-76076142D01*
X181466674Y-88871381D02*
X181466674Y-87871381D01*
X181466674Y-87871381D02*
X181085722Y-87871381D01*
X181085722Y-87871381D02*
X180990484Y-87919000D01*
X180990484Y-87919000D02*
X180942865Y-87966619D01*
X180942865Y-87966619D02*
X180895246Y-88061857D01*
X180895246Y-88061857D02*
X180895246Y-88204714D01*
X180895246Y-88204714D02*
X180942865Y-88299952D01*
X180942865Y-88299952D02*
X180990484Y-88347571D01*
X180990484Y-88347571D02*
X181085722Y-88395190D01*
X181085722Y-88395190D02*
X181466674Y-88395190D01*
X179942865Y-88871381D02*
X180514293Y-88871381D01*
X180228579Y-88871381D02*
X180228579Y-87871381D01*
X180228579Y-87871381D02*
X180323817Y-88014238D01*
X180323817Y-88014238D02*
X180419055Y-88109476D01*
X180419055Y-88109476D02*
X180514293Y-88157095D01*
X179085722Y-87871381D02*
X179276198Y-87871381D01*
X179276198Y-87871381D02*
X179371436Y-87919000D01*
X179371436Y-87919000D02*
X179419055Y-87966619D01*
X179419055Y-87966619D02*
X179514293Y-88109476D01*
X179514293Y-88109476D02*
X179561912Y-88299952D01*
X179561912Y-88299952D02*
X179561912Y-88680904D01*
X179561912Y-88680904D02*
X179514293Y-88776142D01*
X179514293Y-88776142D02*
X179466674Y-88823762D01*
X179466674Y-88823762D02*
X179371436Y-88871381D01*
X179371436Y-88871381D02*
X179180960Y-88871381D01*
X179180960Y-88871381D02*
X179085722Y-88823762D01*
X179085722Y-88823762D02*
X179038103Y-88776142D01*
X179038103Y-88776142D02*
X178990484Y-88680904D01*
X178990484Y-88680904D02*
X178990484Y-88442809D01*
X178990484Y-88442809D02*
X179038103Y-88347571D01*
X179038103Y-88347571D02*
X179085722Y-88299952D01*
X179085722Y-88299952D02*
X179180960Y-88252333D01*
X179180960Y-88252333D02*
X179371436Y-88252333D01*
X179371436Y-88252333D02*
X179466674Y-88299952D01*
X179466674Y-88299952D02*
X179514293Y-88347571D01*
X179514293Y-88347571D02*
X179561912Y-88442809D01*
X195616423Y-78711381D02*
X195616423Y-77711381D01*
X195616423Y-77711381D02*
X195235471Y-77711381D01*
X195235471Y-77711381D02*
X195140233Y-77759000D01*
X195140233Y-77759000D02*
X195092614Y-77806619D01*
X195092614Y-77806619D02*
X195044995Y-77901857D01*
X195044995Y-77901857D02*
X195044995Y-78044714D01*
X195044995Y-78044714D02*
X195092614Y-78139952D01*
X195092614Y-78139952D02*
X195140233Y-78187571D01*
X195140233Y-78187571D02*
X195235471Y-78235190D01*
X195235471Y-78235190D02*
X195616423Y-78235190D01*
X194187852Y-78044714D02*
X194187852Y-78711381D01*
X194425947Y-77663762D02*
X194664042Y-78378047D01*
X194664042Y-78378047D02*
X194044995Y-78378047D01*
X192806900Y-68551381D02*
X193140233Y-68075190D01*
X193378328Y-68551381D02*
X193378328Y-67551381D01*
X193378328Y-67551381D02*
X192997376Y-67551381D01*
X192997376Y-67551381D02*
X192902138Y-67599000D01*
X192902138Y-67599000D02*
X192854519Y-67646619D01*
X192854519Y-67646619D02*
X192806900Y-67741857D01*
X192806900Y-67741857D02*
X192806900Y-67884714D01*
X192806900Y-67884714D02*
X192854519Y-67979952D01*
X192854519Y-67979952D02*
X192902138Y-68027571D01*
X192902138Y-68027571D02*
X192997376Y-68075190D01*
X192997376Y-68075190D02*
X193378328Y-68075190D01*
X192425947Y-68503762D02*
X192283090Y-68551381D01*
X192283090Y-68551381D02*
X192044995Y-68551381D01*
X192044995Y-68551381D02*
X191949757Y-68503762D01*
X191949757Y-68503762D02*
X191902138Y-68456142D01*
X191902138Y-68456142D02*
X191854519Y-68360904D01*
X191854519Y-68360904D02*
X191854519Y-68265666D01*
X191854519Y-68265666D02*
X191902138Y-68170428D01*
X191902138Y-68170428D02*
X191949757Y-68122809D01*
X191949757Y-68122809D02*
X192044995Y-68075190D01*
X192044995Y-68075190D02*
X192235471Y-68027571D01*
X192235471Y-68027571D02*
X192330709Y-67979952D01*
X192330709Y-67979952D02*
X192378328Y-67932333D01*
X192378328Y-67932333D02*
X192425947Y-67837095D01*
X192425947Y-67837095D02*
X192425947Y-67741857D01*
X192425947Y-67741857D02*
X192378328Y-67646619D01*
X192378328Y-67646619D02*
X192330709Y-67599000D01*
X192330709Y-67599000D02*
X192235471Y-67551381D01*
X192235471Y-67551381D02*
X191997376Y-67551381D01*
X191997376Y-67551381D02*
X191854519Y-67599000D01*
X191568804Y-67551381D02*
X190997376Y-67551381D01*
X191283090Y-68551381D02*
X191283090Y-67551381D01*
D11*
%TO.C,PWR1*%
X195628452Y-112607560D02*
X195628452Y-112807560D01*
X195628453Y-109607560D02*
X195628452Y-111307560D01*
X196678452Y-107757560D02*
X197468453Y-107757560D01*
X197468452Y-114657560D02*
X196678452Y-114657560D01*
X198478452Y-108357560D02*
X198478452Y-114057561D01*
D12*
%TO.C,RST1*%
X195303454Y-99107559D02*
X195303454Y-98857558D01*
X195303454Y-103307560D02*
X195303454Y-103557561D01*
X195553454Y-98857560D02*
X195303454Y-98857558D01*
X195553454Y-103557559D02*
X195303454Y-103557561D01*
X198553454Y-98857561D02*
X198803454Y-98857559D01*
X198553454Y-103557560D02*
X198803454Y-103557562D01*
X198803454Y-99107560D02*
X198803454Y-98857559D01*
X198803454Y-103307561D02*
X198803454Y-103557562D01*
D11*
%TO.C,MCU1*%
X178853454Y-61686562D02*
X178853454Y-92286562D01*
X178853454Y-64286562D02*
X181513455Y-64286561D01*
X181513454Y-61686562D02*
X178853454Y-61686562D01*
X181513454Y-61686562D02*
X181513455Y-92286563D01*
X181513455Y-92286563D02*
X178853454Y-92286562D01*
X194093455Y-61686562D02*
X194093454Y-92286563D01*
X196753454Y-61686562D02*
X194093455Y-61686562D01*
X196753454Y-61686562D02*
X196753454Y-92286562D01*
X196753454Y-92286562D02*
X194093454Y-92286563D01*
D13*
%TO.C,G\u002A\u002A\u002A*%
G36*
X109095619Y-114901921D02*
G01*
X109095619Y-115001970D01*
X108995569Y-115001970D01*
X108895520Y-115001970D01*
X108895520Y-114901921D01*
X108895520Y-114801872D01*
X108995569Y-114801872D01*
X109095619Y-114801872D01*
X109095619Y-114901921D01*
G37*
G36*
X109295717Y-114201576D02*
G01*
X109295717Y-114801872D01*
X109195668Y-114801872D01*
X109095619Y-114801872D01*
X109095619Y-114201576D01*
X109095619Y-113601281D01*
X109195668Y-113601281D01*
X109295717Y-113601281D01*
X109295717Y-114201576D01*
G37*
G36*
X110296209Y-114901921D02*
G01*
X110296209Y-115001970D01*
X109996062Y-115001970D01*
X109695914Y-115001970D01*
X109695914Y-114901921D01*
X109695914Y-114801872D01*
X109996062Y-114801872D01*
X110296209Y-114801872D01*
X110296209Y-114901921D01*
G37*
G36*
X112697391Y-114901921D02*
G01*
X112697391Y-115001970D01*
X112397243Y-115001970D01*
X112097096Y-115001970D01*
X112097096Y-114901921D01*
X112097096Y-114801872D01*
X112397243Y-114801872D01*
X112697391Y-114801872D01*
X112697391Y-114901921D01*
G37*
G36*
X113097588Y-110699853D02*
G01*
X113097588Y-110799902D01*
X112897490Y-110799902D01*
X112697391Y-110799902D01*
X112697391Y-110699853D01*
X112697391Y-110599804D01*
X112897490Y-110599804D01*
X113097588Y-110599804D01*
X113097588Y-110699853D01*
G37*
G36*
X113297686Y-113701330D02*
G01*
X113297686Y-113801379D01*
X113197637Y-113801379D01*
X113097588Y-113801379D01*
X113097588Y-113701330D01*
X113097588Y-113601281D01*
X113197637Y-113601281D01*
X113297686Y-113601281D01*
X113297686Y-113701330D01*
G37*
G36*
X114098080Y-114901921D02*
G01*
X114098080Y-115001970D01*
X113897982Y-115001970D01*
X113697883Y-115001970D01*
X113697883Y-114901921D01*
X113697883Y-114801872D01*
X113897982Y-114801872D01*
X114098080Y-114801872D01*
X114098080Y-114901921D01*
G37*
G36*
X115098573Y-110499755D02*
G01*
X115098573Y-110599804D01*
X114998523Y-110599804D01*
X114898474Y-110599804D01*
X114898474Y-110499755D01*
X114898474Y-110399705D01*
X114998523Y-110399705D01*
X115098573Y-110399705D01*
X115098573Y-110499755D01*
G37*
G36*
X115498770Y-114301626D02*
G01*
X115498770Y-114401675D01*
X115198622Y-114401675D01*
X114898474Y-114401675D01*
X114898474Y-114301626D01*
X114898474Y-114201576D01*
X115198622Y-114201576D01*
X115498770Y-114201576D01*
X115498770Y-114301626D01*
G37*
G36*
X116499262Y-114601773D02*
G01*
X116499262Y-115001970D01*
X116399213Y-115001970D01*
X116299164Y-115001970D01*
X116299164Y-114601773D01*
X116299164Y-114201576D01*
X116399213Y-114201576D01*
X116499262Y-114201576D01*
X116499262Y-114601773D01*
G37*
G36*
X118300148Y-114101527D02*
G01*
X118300148Y-114201576D01*
X118000001Y-114201576D01*
X117699853Y-114201576D01*
X117699853Y-114101527D01*
X117699853Y-114001478D01*
X118000001Y-114001478D01*
X118300148Y-114001478D01*
X118300148Y-114101527D01*
G37*
G36*
X119100542Y-114901921D02*
G01*
X119100542Y-115001970D01*
X118900444Y-115001970D01*
X118700345Y-115001970D01*
X118700345Y-114901921D01*
X118700345Y-114801872D01*
X118900444Y-114801872D01*
X119100542Y-114801872D01*
X119100542Y-114901921D01*
G37*
G36*
X120501232Y-114101527D02*
G01*
X120501232Y-114201576D01*
X120201084Y-114201576D01*
X119900936Y-114201576D01*
X119900936Y-114101527D01*
X119900936Y-114001478D01*
X120201084Y-114001478D01*
X120501232Y-114001478D01*
X120501232Y-114101527D01*
G37*
G36*
X121101527Y-114601773D02*
G01*
X121101527Y-115001970D01*
X121001478Y-115001970D01*
X120901428Y-115001970D01*
X120901428Y-114601773D01*
X120901428Y-114201576D01*
X121001478Y-114201576D01*
X121101527Y-114201576D01*
X121101527Y-114601773D01*
G37*
G36*
X124303103Y-113901429D02*
G01*
X124303103Y-114201576D01*
X124203053Y-114201576D01*
X124103004Y-114201576D01*
X124103004Y-113901429D01*
X124103004Y-113601281D01*
X124203053Y-113601281D01*
X124303103Y-113601281D01*
X124303103Y-113901429D01*
G37*
G36*
X111496800Y-109799410D02*
G01*
X111496800Y-109999508D01*
X111596849Y-109999508D01*
X111696899Y-109999508D01*
X111696899Y-110099558D01*
X111696899Y-110199607D01*
X111496800Y-110199607D01*
X111296702Y-110199607D01*
X111296702Y-109899459D01*
X111296702Y-109599311D01*
X111396751Y-109599311D01*
X111496800Y-109599311D01*
X111496800Y-109799410D01*
G37*
G36*
X113497785Y-114101527D02*
G01*
X113497785Y-114201576D01*
X113397736Y-114201576D01*
X113297686Y-114201576D01*
X113297686Y-114601773D01*
X113297686Y-115001970D01*
X113197637Y-115001970D01*
X113097588Y-115001970D01*
X113097588Y-114501724D01*
X113097588Y-114001478D01*
X113297686Y-114001478D01*
X113497785Y-114001478D01*
X113497785Y-114101527D01*
G37*
G36*
X111396751Y-110399705D02*
G01*
X111496800Y-110399705D01*
X111496800Y-110499755D01*
X111496800Y-110599804D01*
X111396751Y-110599804D01*
X111296702Y-110599804D01*
X111296702Y-110499755D01*
X111296702Y-110399705D01*
X111396751Y-110399705D01*
G37*
G36*
X111296702Y-110299656D02*
G01*
X111296702Y-110399705D01*
X111196652Y-110399705D01*
X111096603Y-110399705D01*
X111096603Y-110299656D01*
X111096603Y-110199607D01*
X111196652Y-110199607D01*
X111296702Y-110199607D01*
X111296702Y-110299656D01*
G37*
G36*
X111896997Y-110899952D02*
G01*
X111896997Y-111000001D01*
X111997046Y-111000001D01*
X112097096Y-111000001D01*
X112097096Y-111100050D01*
X112097096Y-111200099D01*
X111696899Y-111200099D01*
X111296702Y-111200099D01*
X111296702Y-111100050D01*
X111296702Y-111000001D01*
X111496800Y-111000001D01*
X111696899Y-111000001D01*
X111696899Y-110899952D01*
X111696899Y-110799902D01*
X111796948Y-110799902D01*
X111896997Y-110799902D01*
X111896997Y-110899952D01*
G37*
G36*
X112697391Y-111600296D02*
G01*
X112697391Y-112200592D01*
X112397243Y-112200592D01*
X112097096Y-112200592D01*
X112097096Y-112100542D01*
X112097096Y-112000493D01*
X112197145Y-112000493D01*
X112297194Y-112000493D01*
X112297194Y-111700345D01*
X112297194Y-111400198D01*
X112397243Y-111400198D01*
X112497293Y-111400198D01*
X112497293Y-111200099D01*
X112497293Y-111000001D01*
X112597342Y-111000001D01*
X112697391Y-111000001D01*
X112697391Y-111600296D01*
G37*
G36*
X115198622Y-109999508D02*
G01*
X115298671Y-109999508D01*
X115298671Y-110199607D01*
X115298671Y-110399705D01*
X115198622Y-110399705D01*
X115098573Y-110399705D01*
X115098573Y-110199607D01*
X115098573Y-109999508D01*
X115198622Y-109999508D01*
G37*
G36*
X115098573Y-109899459D02*
G01*
X115098573Y-109999508D01*
X114898474Y-109999508D01*
X114698376Y-109999508D01*
X114698376Y-109899459D01*
X114698376Y-109799410D01*
X114898474Y-109799410D01*
X115098573Y-109799410D01*
X115098573Y-109899459D01*
G37*
G36*
X115598819Y-113801379D02*
G01*
X115698868Y-113801379D01*
X115698868Y-114001478D01*
X115698868Y-114201576D01*
X115598819Y-114201576D01*
X115498770Y-114201576D01*
X115498770Y-114001478D01*
X115498770Y-113801379D01*
X115598819Y-113801379D01*
G37*
G36*
X115498770Y-113701330D02*
G01*
X115498770Y-113801379D01*
X115098573Y-113801379D01*
X114698376Y-113801379D01*
X114698376Y-113701330D01*
X114698376Y-113601281D01*
X115098573Y-113601281D01*
X115498770Y-113601281D01*
X115498770Y-113701330D01*
G37*
G36*
X115298671Y-114801872D02*
G01*
X115698868Y-114801872D01*
X115698868Y-114901921D01*
X115698868Y-115001970D01*
X115298671Y-115001970D01*
X114898474Y-115001970D01*
X114898474Y-114901921D01*
X114898474Y-114801872D01*
X115298671Y-114801872D01*
G37*
G36*
X114898474Y-114601773D02*
G01*
X114898474Y-114801872D01*
X114798425Y-114801872D01*
X114698376Y-114801872D01*
X114698376Y-114601773D01*
X114698376Y-114401675D01*
X114798425Y-114401675D01*
X114898474Y-114401675D01*
X114898474Y-114601773D01*
G37*
G36*
X124303103Y-110699853D02*
G01*
X124303103Y-111400198D01*
X124203053Y-111400198D01*
X124103004Y-111400198D01*
X124103004Y-111500247D01*
X124103004Y-111600296D01*
X123902906Y-111600296D01*
X123702807Y-111600296D01*
X123702807Y-111500247D01*
X123702807Y-111400198D01*
X123802856Y-111400198D01*
X123902906Y-111400198D01*
X123902906Y-110699853D01*
X123902906Y-109999508D01*
X124103004Y-109999508D01*
X124303103Y-109999508D01*
X124303103Y-110699853D01*
G37*
G36*
X113297686Y-109299164D02*
G01*
X113297686Y-109399213D01*
X113397736Y-109399213D01*
X113497785Y-109399213D01*
X113497785Y-109499262D01*
X113497785Y-109599311D01*
X113197637Y-109599311D01*
X112897490Y-109599311D01*
X112897490Y-109699361D01*
X112897490Y-109799410D01*
X112997539Y-109799410D01*
X113097588Y-109799410D01*
X113097588Y-109899459D01*
X113097588Y-109999508D01*
X112897490Y-109999508D01*
X112697391Y-109999508D01*
X112697391Y-109799410D01*
X112697391Y-109599311D01*
X112597342Y-109599311D01*
X112497293Y-109599311D01*
X112497293Y-109399213D01*
X112497293Y-109199115D01*
X112897490Y-109199115D01*
X113297686Y-109199115D01*
X113297686Y-109299164D01*
G37*
G36*
X114298179Y-113801379D02*
G01*
X114298179Y-114001478D01*
X114398228Y-114001478D01*
X114498277Y-114001478D01*
X114498277Y-114101527D01*
X114498277Y-114201576D01*
X114398228Y-114201576D01*
X114298179Y-114201576D01*
X114298179Y-114501724D01*
X114298179Y-114801872D01*
X114198130Y-114801872D01*
X114098080Y-114801872D01*
X114098080Y-114501724D01*
X114098080Y-114201576D01*
X113897982Y-114201576D01*
X113697883Y-114201576D01*
X113697883Y-114101527D01*
X113697883Y-114001478D01*
X113897982Y-114001478D01*
X114098080Y-114001478D01*
X114098080Y-113801379D01*
X114098080Y-113601281D01*
X114198130Y-113601281D01*
X114298179Y-113601281D01*
X114298179Y-113801379D01*
G37*
G36*
X116899459Y-114101527D02*
G01*
X116899459Y-114201576D01*
X116999508Y-114201576D01*
X117099557Y-114201576D01*
X117099557Y-114101527D01*
X117099557Y-114001478D01*
X117199607Y-114001478D01*
X117299656Y-114001478D01*
X117299656Y-114501724D01*
X117299656Y-115001970D01*
X117199607Y-115001970D01*
X117099557Y-115001970D01*
X117099557Y-114701823D01*
X117099557Y-114401675D01*
X116999508Y-114401675D01*
X116899459Y-114401675D01*
X116899459Y-114301626D01*
X116899459Y-114201576D01*
X116699361Y-114201576D01*
X116499262Y-114201576D01*
X116499262Y-114101527D01*
X116499262Y-114001478D01*
X116699361Y-114001478D01*
X116899459Y-114001478D01*
X116899459Y-114101527D01*
G37*
G36*
X119100542Y-110499755D02*
G01*
X119100542Y-110599804D01*
X119200591Y-110599804D01*
X119300641Y-110599804D01*
X119300641Y-111100050D01*
X119300641Y-111600296D01*
X119100542Y-111600296D01*
X118900444Y-111600296D01*
X118900444Y-111200099D01*
X118900444Y-110799902D01*
X118800394Y-110799902D01*
X118700345Y-110799902D01*
X118700345Y-110899952D01*
X118700345Y-111000001D01*
X118500247Y-111000001D01*
X118300148Y-111000001D01*
X118300148Y-110799902D01*
X118300148Y-110599804D01*
X118400198Y-110599804D01*
X118500247Y-110599804D01*
X118500247Y-110499755D01*
X118500247Y-110399705D01*
X118800394Y-110399705D01*
X119100542Y-110399705D01*
X119100542Y-110499755D01*
G37*
G36*
X119300641Y-113801379D02*
G01*
X119300641Y-114001478D01*
X119400690Y-114001478D01*
X119500739Y-114001478D01*
X119500739Y-114101527D01*
X119500739Y-114201576D01*
X119400690Y-114201576D01*
X119300641Y-114201576D01*
X119300641Y-114501724D01*
X119300641Y-114801872D01*
X119200591Y-114801872D01*
X119100542Y-114801872D01*
X119100542Y-114501724D01*
X119100542Y-114201576D01*
X118900444Y-114201576D01*
X118700345Y-114201576D01*
X118700345Y-114101527D01*
X118700345Y-114001478D01*
X118900444Y-114001478D01*
X119100542Y-114001478D01*
X119100542Y-113801379D01*
X119100542Y-113601281D01*
X119200591Y-113601281D01*
X119300641Y-113601281D01*
X119300641Y-113801379D01*
G37*
G36*
X121501724Y-114101527D02*
G01*
X121501724Y-114201576D01*
X121601773Y-114201576D01*
X121701822Y-114201576D01*
X121701822Y-114101527D01*
X121701822Y-114001478D01*
X121801872Y-114001478D01*
X121901921Y-114001478D01*
X121901921Y-114501724D01*
X121901921Y-115001970D01*
X121801872Y-115001970D01*
X121701822Y-115001970D01*
X121701822Y-114701823D01*
X121701822Y-114401675D01*
X121601773Y-114401675D01*
X121501724Y-114401675D01*
X121501724Y-114301626D01*
X121501724Y-114201576D01*
X121301625Y-114201576D01*
X121101527Y-114201576D01*
X121101527Y-114101527D01*
X121101527Y-114001478D01*
X121301625Y-114001478D01*
X121501724Y-114001478D01*
X121501724Y-114101527D01*
G37*
G36*
X109695914Y-114301626D02*
G01*
X109695914Y-114401675D01*
X109996062Y-114401675D01*
X110296209Y-114401675D01*
X110296209Y-114301626D01*
X110296209Y-114201576D01*
X110396259Y-114201576D01*
X110496308Y-114201576D01*
X110496308Y-114501724D01*
X110496308Y-114801872D01*
X110396259Y-114801872D01*
X110296209Y-114801872D01*
X110296209Y-114701823D01*
X110296209Y-114601773D01*
X109896012Y-114601773D01*
X109495815Y-114601773D01*
X109495815Y-114401675D01*
X109495815Y-114201576D01*
X109595865Y-114201576D01*
X109695914Y-114201576D01*
X109695914Y-114301626D01*
G37*
G36*
X110296209Y-114101527D02*
G01*
X110296209Y-114201576D01*
X109996062Y-114201576D01*
X109695914Y-114201576D01*
X109695914Y-114101527D01*
X109695914Y-114001478D01*
X109996062Y-114001478D01*
X110296209Y-114001478D01*
X110296209Y-114101527D01*
G37*
G36*
X111696899Y-114301626D02*
G01*
X111696899Y-115001970D01*
X111296702Y-115001970D01*
X110896505Y-115001970D01*
X110896505Y-114901921D01*
X110896505Y-114801872D01*
X110796456Y-114801872D01*
X110696406Y-114801872D01*
X110696406Y-114501724D01*
X110696406Y-114201576D01*
X110796456Y-114201576D01*
X110896505Y-114201576D01*
X110896505Y-114501724D01*
X110896505Y-114801872D01*
X111196652Y-114801872D01*
X111496800Y-114801872D01*
X111496800Y-114501724D01*
X111496800Y-114201576D01*
X111196652Y-114201576D01*
X110896505Y-114201576D01*
X110896505Y-114101527D01*
X110896505Y-114001478D01*
X111196652Y-114001478D01*
X111496800Y-114001478D01*
X111496800Y-113801379D01*
X111496800Y-113601281D01*
X111596849Y-113601281D01*
X111696899Y-113601281D01*
X111696899Y-114301626D01*
G37*
G36*
X112097096Y-114301626D02*
G01*
X112097096Y-114401675D01*
X112397243Y-114401675D01*
X112697391Y-114401675D01*
X112697391Y-114301626D01*
X112697391Y-114201576D01*
X112797440Y-114201576D01*
X112897490Y-114201576D01*
X112897490Y-114501724D01*
X112897490Y-114801872D01*
X112797440Y-114801872D01*
X112697391Y-114801872D01*
X112697391Y-114701823D01*
X112697391Y-114601773D01*
X112297194Y-114601773D01*
X111896997Y-114601773D01*
X111896997Y-114401675D01*
X111896997Y-114201576D01*
X111997046Y-114201576D01*
X112097096Y-114201576D01*
X112097096Y-114301626D01*
G37*
G36*
X112697391Y-114101527D02*
G01*
X112697391Y-114201576D01*
X112397243Y-114201576D01*
X112097096Y-114201576D01*
X112097096Y-114101527D01*
X112097096Y-114001478D01*
X112397243Y-114001478D01*
X112697391Y-114001478D01*
X112697391Y-114101527D01*
G37*
G36*
X117499754Y-110099558D02*
G01*
X117499754Y-110199607D01*
X117599804Y-110199607D01*
X117699853Y-110199607D01*
X117699853Y-110299656D01*
X117699853Y-110399705D01*
X117799902Y-110399705D01*
X117899951Y-110399705D01*
X117899951Y-110499755D01*
X117899951Y-110599804D01*
X117699853Y-110599804D01*
X117499754Y-110599804D01*
X117499754Y-110899952D01*
X117499754Y-111200099D01*
X117699853Y-111200099D01*
X117899951Y-111200099D01*
X117899951Y-111400198D01*
X117899951Y-111600296D01*
X117299656Y-111600296D01*
X116699361Y-111600296D01*
X116699361Y-111400198D01*
X116699361Y-111200099D01*
X116899459Y-111200099D01*
X117099557Y-111200099D01*
X117099557Y-110599804D01*
X117099557Y-109999508D01*
X117299656Y-109999508D01*
X117499754Y-109999508D01*
X117499754Y-110099558D01*
G37*
G36*
X117699853Y-114301626D02*
G01*
X117699853Y-114401675D01*
X118000001Y-114401675D01*
X118300148Y-114401675D01*
X118300148Y-114501724D01*
X118300148Y-114601773D01*
X118000001Y-114601773D01*
X117699853Y-114601773D01*
X117699853Y-114701823D01*
X117699853Y-114801872D01*
X118000001Y-114801872D01*
X118300148Y-114801872D01*
X118300148Y-114701823D01*
X118300148Y-114601773D01*
X118400198Y-114601773D01*
X118500247Y-114601773D01*
X118500247Y-114701823D01*
X118500247Y-114801872D01*
X118400198Y-114801872D01*
X118300148Y-114801872D01*
X118300148Y-114901921D01*
X118300148Y-115001970D01*
X117899951Y-115001970D01*
X117499754Y-115001970D01*
X117499754Y-114601773D01*
X117499754Y-114201576D01*
X117599804Y-114201576D01*
X117699853Y-114201576D01*
X117699853Y-114301626D01*
G37*
G36*
X119900936Y-114301626D02*
G01*
X119900936Y-114401675D01*
X120201084Y-114401675D01*
X120501232Y-114401675D01*
X120501232Y-114501724D01*
X120501232Y-114601773D01*
X120201084Y-114601773D01*
X119900936Y-114601773D01*
X119900936Y-114701823D01*
X119900936Y-114801872D01*
X120201084Y-114801872D01*
X120501232Y-114801872D01*
X120501232Y-114701823D01*
X120501232Y-114601773D01*
X120601281Y-114601773D01*
X120701330Y-114601773D01*
X120701330Y-114701823D01*
X120701330Y-114801872D01*
X120601281Y-114801872D01*
X120501232Y-114801872D01*
X120501232Y-114901921D01*
X120501232Y-115001970D01*
X120101035Y-115001970D01*
X119700838Y-115001970D01*
X119700838Y-114601773D01*
X119700838Y-114201576D01*
X119800887Y-114201576D01*
X119900936Y-114201576D01*
X119900936Y-114301626D01*
G37*
G36*
X125703792Y-111200099D02*
G01*
X125703792Y-112000493D01*
X125503693Y-112000493D01*
X125303595Y-112000493D01*
X125303595Y-111700345D01*
X125303595Y-111400198D01*
X125003447Y-111400198D01*
X124703299Y-111400198D01*
X124703299Y-111300149D01*
X124703299Y-111200099D01*
X124603250Y-111200099D01*
X124503201Y-111200099D01*
X124503201Y-111000001D01*
X124903398Y-111000001D01*
X125103496Y-111000001D01*
X125303595Y-111000001D01*
X125303595Y-110899952D01*
X125303595Y-110799902D01*
X125103496Y-110799902D01*
X124903398Y-110799902D01*
X124903398Y-110899952D01*
X124903398Y-111000001D01*
X124503201Y-111000001D01*
X124503201Y-110899952D01*
X124503201Y-110599804D01*
X124603250Y-110599804D01*
X124703299Y-110599804D01*
X124703299Y-110499755D01*
X124703299Y-110399705D01*
X125203546Y-110399705D01*
X125703792Y-110399705D01*
X125703792Y-110799902D01*
X125703792Y-111200099D01*
G37*
G36*
X121301625Y-110699853D02*
G01*
X121301625Y-111000001D01*
X121501724Y-111000001D01*
X121701822Y-111000001D01*
X121701822Y-110699853D01*
X121701822Y-110399705D01*
X121901921Y-110399705D01*
X122102019Y-110399705D01*
X122102019Y-110799902D01*
X122102019Y-111200099D01*
X122001970Y-111200099D01*
X121901921Y-111200099D01*
X121901921Y-111300149D01*
X121901921Y-111400198D01*
X121601773Y-111400198D01*
X121301625Y-111400198D01*
X121301625Y-111500247D01*
X121301625Y-111600296D01*
X121701822Y-111600296D01*
X122102019Y-111600296D01*
X122102019Y-111800395D01*
X122102019Y-112000493D01*
X121601773Y-112000493D01*
X121101527Y-112000493D01*
X121101527Y-111900444D01*
X121101527Y-111800395D01*
X121001478Y-111800395D01*
X120901428Y-111800395D01*
X120901428Y-111100050D01*
X120901428Y-110399705D01*
X121101527Y-110399705D01*
X121301625Y-110399705D01*
X121301625Y-110699853D01*
G37*
G36*
X122302118Y-114501724D02*
G01*
X122302118Y-114801872D01*
X122602265Y-114801872D01*
X122902413Y-114801872D01*
X122902413Y-114501724D01*
X122902413Y-114201576D01*
X123002462Y-114201576D01*
X123102512Y-114201576D01*
X123102512Y-114501724D01*
X123102512Y-114801872D01*
X123002462Y-114801872D01*
X122902413Y-114801872D01*
X122902413Y-114901921D01*
X122902413Y-115001970D01*
X122602265Y-115001970D01*
X122302118Y-115001970D01*
X122302118Y-114901921D01*
X122302118Y-114801872D01*
X122202069Y-114801872D01*
X122102019Y-114801872D01*
X122102019Y-114501724D01*
X122102019Y-114201576D01*
X122202069Y-114201576D01*
X122302118Y-114201576D01*
X122302118Y-114501724D01*
G37*
G36*
X122902413Y-114101527D02*
G01*
X122902413Y-114201576D01*
X122602265Y-114201576D01*
X122302118Y-114201576D01*
X122302118Y-114101527D01*
X122302118Y-114001478D01*
X122602265Y-114001478D01*
X122902413Y-114001478D01*
X122902413Y-114101527D01*
G37*
G36*
X123602758Y-114201576D02*
G01*
X123702807Y-114201576D01*
X123702807Y-114301626D01*
X123702807Y-114401675D01*
X123802856Y-114401675D01*
X123902906Y-114401675D01*
X123902906Y-114301626D01*
X123902906Y-114201576D01*
X124002955Y-114201576D01*
X124103004Y-114201576D01*
X124103004Y-114301626D01*
X124103004Y-114401675D01*
X124002955Y-114401675D01*
X123902906Y-114401675D01*
X123902906Y-114701823D01*
X123902906Y-115001970D01*
X123802856Y-115001970D01*
X123702807Y-115001970D01*
X123702807Y-114701823D01*
X123702807Y-114401675D01*
X123602758Y-114401675D01*
X123502709Y-114401675D01*
X123502709Y-114301626D01*
X123502709Y-114201576D01*
X123602758Y-114201576D01*
G37*
G36*
X123502709Y-113901429D02*
G01*
X123502709Y-114201576D01*
X123402659Y-114201576D01*
X123302610Y-114201576D01*
X123302610Y-113901429D01*
X123302610Y-113601281D01*
X123402659Y-113601281D01*
X123502709Y-113601281D01*
X123502709Y-113901429D01*
G37*
G36*
X125403644Y-115202069D02*
G01*
X125703792Y-115202069D01*
X125703792Y-115302118D01*
X125703792Y-115402167D01*
X125403644Y-115402167D01*
X125103496Y-115402167D01*
X125103496Y-115302118D01*
X125103496Y-115202069D01*
X125403644Y-115202069D01*
G37*
G36*
X125103496Y-114401675D02*
G01*
X125103496Y-114801872D01*
X125403644Y-114801872D01*
X125703792Y-114801872D01*
X125703792Y-114401675D01*
X125703792Y-114001478D01*
X125803841Y-114001478D01*
X125903890Y-114001478D01*
X125903890Y-114401675D01*
X125903890Y-114801872D01*
X125803841Y-114801872D01*
X125703792Y-114801872D01*
X125703792Y-114901921D01*
X125703792Y-115001970D01*
X125403644Y-115001970D01*
X125103496Y-115001970D01*
X125103496Y-115102020D01*
X125103496Y-115202069D01*
X125003447Y-115202069D01*
X124903398Y-115202069D01*
X124903398Y-114601773D01*
X124903398Y-114001478D01*
X125003447Y-114001478D01*
X125103496Y-114001478D01*
X125103496Y-114401675D01*
G37*
G36*
X114798425Y-110799902D02*
G01*
X114898474Y-110799902D01*
X114898474Y-110899952D01*
X114898474Y-111000001D01*
X114998523Y-111000001D01*
X115098573Y-111000001D01*
X115098573Y-111200099D01*
X115098573Y-111400198D01*
X114998523Y-111400198D01*
X114898474Y-111400198D01*
X114898474Y-111800395D01*
X114898474Y-112200592D01*
X114798425Y-112200592D01*
X114698376Y-112200592D01*
X114698376Y-111800395D01*
X114698376Y-111400198D01*
X114598327Y-111400198D01*
X114498277Y-111400198D01*
X114498277Y-111300149D01*
X114498277Y-111200099D01*
X114398228Y-111200099D01*
X114298179Y-111200099D01*
X114298179Y-111100050D01*
X114298179Y-111000001D01*
X114498277Y-111000001D01*
X114698376Y-111000001D01*
X114698376Y-110899952D01*
X114698376Y-110799902D01*
X114798425Y-110799902D01*
G37*
G36*
X114698376Y-110399705D02*
G01*
X114698376Y-110799902D01*
X114598327Y-110799902D01*
X114498277Y-110799902D01*
X114498277Y-110399705D01*
X114498277Y-109999508D01*
X114598327Y-109999508D01*
X114698376Y-109999508D01*
X114698376Y-110399705D01*
G37*
G36*
X126904383Y-110099558D02*
G01*
X126904383Y-110199607D01*
X127004432Y-110199607D01*
X127104481Y-110199607D01*
X127104481Y-110499755D01*
X127104481Y-110799902D01*
X127004432Y-110799902D01*
X126904383Y-110799902D01*
X126904383Y-110899952D01*
X126904383Y-111000001D01*
X126604235Y-111000001D01*
X126304087Y-111000001D01*
X126304087Y-111100050D01*
X126304087Y-111200099D01*
X126704284Y-111200099D01*
X127104481Y-111200099D01*
X127104481Y-111400198D01*
X127104481Y-111600296D01*
X126604235Y-111600296D01*
X126103989Y-111600296D01*
X126103989Y-111500247D01*
X126103989Y-111400198D01*
X126003940Y-111400198D01*
X125903890Y-111400198D01*
X125903890Y-111100050D01*
X125903890Y-110799902D01*
X126003940Y-110799902D01*
X126103989Y-110799902D01*
X126103989Y-110699853D01*
X126103989Y-110599804D01*
X126404136Y-110599804D01*
X126704284Y-110599804D01*
X126704284Y-110499755D01*
X126704284Y-110399705D01*
X126304087Y-110399705D01*
X125903890Y-110399705D01*
X125903890Y-110199607D01*
X125903890Y-109999508D01*
X126404136Y-109999508D01*
X126904383Y-109999508D01*
X126904383Y-110099558D01*
G37*
G36*
X127104481Y-114301626D02*
G01*
X127104481Y-115001970D01*
X126704284Y-115001970D01*
X126304087Y-115001970D01*
X126304087Y-114901921D01*
X126304087Y-114801872D01*
X126204038Y-114801872D01*
X126103989Y-114801872D01*
X126103989Y-114501724D01*
X126103989Y-114201576D01*
X126204038Y-114201576D01*
X126304087Y-114201576D01*
X126304087Y-114501724D01*
X126304087Y-114801872D01*
X126604235Y-114801872D01*
X126904383Y-114801872D01*
X126904383Y-114501724D01*
X126904383Y-114201576D01*
X126604235Y-114201576D01*
X126304087Y-114201576D01*
X126304087Y-114101527D01*
X126304087Y-114001478D01*
X126204038Y-114001478D01*
X126103989Y-114001478D01*
X126103989Y-113901429D01*
X126103989Y-113801379D01*
X126204038Y-113801379D01*
X126304087Y-113801379D01*
X126304087Y-113901429D01*
X126304087Y-114001478D01*
X126604235Y-114001478D01*
X126904383Y-114001478D01*
X126904383Y-113901429D01*
X126904383Y-113801379D01*
X126604235Y-113801379D01*
X126304087Y-113801379D01*
X126304087Y-113701330D01*
X126304087Y-113601281D01*
X126704284Y-113601281D01*
X127104481Y-113601281D01*
X127104481Y-114301626D01*
G37*
G36*
X120601281Y-110599804D02*
G01*
X120701330Y-110599804D01*
X120701330Y-111000001D01*
X120701330Y-111400198D01*
X120601281Y-111400198D01*
X120501232Y-111400198D01*
X120501232Y-111500247D01*
X120501232Y-111600296D01*
X120101035Y-111600296D01*
X119700838Y-111600296D01*
X119700838Y-111500247D01*
X119700838Y-111400198D01*
X119600788Y-111400198D01*
X119500739Y-111400198D01*
X119500739Y-111300149D01*
X119500739Y-111200099D01*
X119900936Y-111200099D01*
X120301133Y-111200099D01*
X120301133Y-111100050D01*
X120301133Y-111000001D01*
X119900936Y-111000001D01*
X119500739Y-111000001D01*
X119500739Y-110799902D01*
X119900936Y-110799902D01*
X120101035Y-110799902D01*
X120301133Y-110799902D01*
X120301133Y-110699853D01*
X120301133Y-110599804D01*
X120101035Y-110599804D01*
X119900936Y-110599804D01*
X119900936Y-110699853D01*
X119900936Y-110799902D01*
X119500739Y-110799902D01*
X119500739Y-110599804D01*
X119600788Y-110599804D01*
X119700838Y-110599804D01*
X119700838Y-110499755D01*
X119700838Y-110399705D01*
X120101035Y-110399705D01*
X120501232Y-110399705D01*
X120501232Y-110499755D01*
X120501232Y-110599804D01*
X120601281Y-110599804D01*
G37*
G36*
X123402659Y-111000001D02*
G01*
X123502709Y-111000001D01*
X123502709Y-111200099D01*
X123502709Y-111400198D01*
X123402659Y-111400198D01*
X123302610Y-111400198D01*
X123302610Y-111500247D01*
X123302610Y-111600296D01*
X122902413Y-111600296D01*
X122502216Y-111600296D01*
X122502216Y-111500247D01*
X122502216Y-111400198D01*
X122402167Y-111400198D01*
X122302118Y-111400198D01*
X122302118Y-111200099D01*
X122702315Y-111200099D01*
X122902413Y-111200099D01*
X123102512Y-111200099D01*
X123102512Y-111100050D01*
X123102512Y-111000001D01*
X122902413Y-111000001D01*
X122702315Y-111000001D01*
X122702315Y-111100050D01*
X122702315Y-111200099D01*
X122302118Y-111200099D01*
X122302118Y-111000001D01*
X122302118Y-110599804D01*
X122402167Y-110599804D01*
X122502216Y-110599804D01*
X122502216Y-110499755D01*
X122502216Y-110399705D01*
X122802364Y-110399705D01*
X123102512Y-110399705D01*
X123102512Y-110499755D01*
X123102512Y-110599804D01*
X123002462Y-110599804D01*
X122902413Y-110599804D01*
X122902413Y-110699853D01*
X122902413Y-110799902D01*
X123102512Y-110799902D01*
X123302610Y-110799902D01*
X123302610Y-110899952D01*
X123302610Y-111000001D01*
X123402659Y-111000001D01*
G37*
G36*
X113497785Y-111100050D02*
G01*
X113497785Y-111200099D01*
X113597834Y-111200099D01*
X113697883Y-111200099D01*
X113697883Y-111600296D01*
X113697883Y-112000493D01*
X113797933Y-112000493D01*
X113897982Y-112000493D01*
X113897982Y-111500247D01*
X113897982Y-111000001D01*
X113998031Y-111000001D01*
X114098080Y-111000001D01*
X114098080Y-111200099D01*
X114098080Y-111400198D01*
X114198130Y-111400198D01*
X114298179Y-111400198D01*
X114298179Y-111700345D01*
X114298179Y-112000493D01*
X114398228Y-112000493D01*
X114498277Y-112000493D01*
X114498277Y-112100542D01*
X114498277Y-112200592D01*
X114298179Y-112200592D01*
X114098080Y-112200592D01*
X114098080Y-112100542D01*
X114098080Y-112000493D01*
X113998031Y-112000493D01*
X113897982Y-112000493D01*
X113897982Y-112100542D01*
X113897982Y-112200592D01*
X113397736Y-112200592D01*
X112897490Y-112200592D01*
X112897490Y-112000493D01*
X112897490Y-111800395D01*
X112997539Y-111800395D01*
X113097588Y-111800395D01*
X113097588Y-111700345D01*
X113097588Y-111600296D01*
X112997539Y-111600296D01*
X112897490Y-111600296D01*
X112897490Y-111500247D01*
X112897490Y-111400198D01*
X112997539Y-111400198D01*
X113097588Y-111400198D01*
X113097588Y-111300149D01*
X113097588Y-111200099D01*
X112997539Y-111200099D01*
X112897490Y-111200099D01*
X112897490Y-111100050D01*
X112897490Y-111000001D01*
X113197637Y-111000001D01*
X113497785Y-111000001D01*
X113497785Y-111100050D01*
G37*
G36*
X113897982Y-110899952D02*
G01*
X113897982Y-111000001D01*
X113697883Y-111000001D01*
X113497785Y-111000001D01*
X113497785Y-110899952D01*
X113497785Y-110799902D01*
X113697883Y-110799902D01*
X113897982Y-110799902D01*
X113897982Y-110899952D01*
G37*
G36*
X114098080Y-107898474D02*
G01*
X114098080Y-107998524D01*
X113197637Y-107998524D01*
X112297194Y-107998524D01*
X112297194Y-107898474D01*
X112297194Y-107798425D01*
X112497293Y-107798425D01*
X112797440Y-107798425D01*
X113097588Y-107798425D01*
X113497785Y-107798425D01*
X113697883Y-107798425D01*
X113897982Y-107798425D01*
X113897982Y-107698376D01*
X113897982Y-107598327D01*
X113697883Y-107598327D01*
X113497785Y-107598327D01*
X113497785Y-107698376D01*
X113497785Y-107798425D01*
X113097588Y-107798425D01*
X113097588Y-107698376D01*
X113097588Y-107598327D01*
X113297686Y-107598327D01*
X113397736Y-107598327D01*
X113497785Y-107598327D01*
X113497785Y-107498278D01*
X113497785Y-107398228D01*
X113697883Y-107398228D01*
X113897982Y-107398228D01*
X113897982Y-107198130D01*
X113897982Y-106998031D01*
X113797933Y-106998031D01*
X113697883Y-106998031D01*
X113697883Y-107098081D01*
X113697883Y-107198130D01*
X113497785Y-107198130D01*
X113297686Y-107198130D01*
X113297686Y-107398228D01*
X113297686Y-107598327D01*
X113097588Y-107598327D01*
X112997539Y-107598327D01*
X112897490Y-107598327D01*
X112897490Y-107398228D01*
X112897490Y-107198130D01*
X112997539Y-107198130D01*
X113097588Y-107198130D01*
X113097588Y-107098081D01*
X113097588Y-106998031D01*
X112997539Y-106998031D01*
X112897490Y-106998031D01*
X112897490Y-106897982D01*
X112897490Y-106797933D01*
X113297686Y-106797933D01*
X113297686Y-106897982D01*
X113297686Y-106998031D01*
X113497785Y-106998031D01*
X113697883Y-106998031D01*
X113697883Y-106897982D01*
X113697883Y-106797933D01*
X113497785Y-106797933D01*
X113297686Y-106797933D01*
X112897490Y-106797933D01*
X112797440Y-106797933D01*
X112697391Y-106797933D01*
X112697391Y-107198130D01*
X112697391Y-107598327D01*
X112597342Y-107598327D01*
X112497293Y-107598327D01*
X112497293Y-107698376D01*
X112497293Y-107798425D01*
X112297194Y-107798425D01*
X112197145Y-107798425D01*
X112097096Y-107798425D01*
X112097096Y-107298179D01*
X112097096Y-106797933D01*
X112197145Y-106797933D01*
X112297194Y-106797933D01*
X112297194Y-106697884D01*
X112297194Y-106597834D01*
X113197637Y-106597834D01*
X114098080Y-106597834D01*
X114098080Y-106697884D01*
X114098080Y-106797933D01*
X114198130Y-106797933D01*
X114298179Y-106797933D01*
X114298179Y-107298179D01*
X114298179Y-107798425D01*
X114198130Y-107798425D01*
X114098080Y-107798425D01*
X114098080Y-107898474D01*
G37*
G36*
X114298179Y-110399705D02*
G01*
X114198130Y-110399705D01*
X114098080Y-110399705D01*
X114098080Y-110499755D01*
X114098080Y-110599804D01*
X113697883Y-110599804D01*
X113297686Y-110599804D01*
X113297686Y-110499755D01*
X113297686Y-110399705D01*
X112897490Y-110399705D01*
X112497293Y-110399705D01*
X112497293Y-110499755D01*
X112497293Y-110599804D01*
X112297194Y-110599804D01*
X112097096Y-110599804D01*
X112097096Y-110399705D01*
X112297194Y-110399705D01*
X112397243Y-110399705D01*
X112497293Y-110399705D01*
X112497293Y-110199607D01*
X112497293Y-109999508D01*
X112597342Y-109999508D01*
X112697391Y-109999508D01*
X112697391Y-110099558D01*
X112697391Y-110199607D01*
X112897490Y-110199607D01*
X113097588Y-110199607D01*
X113097588Y-110099558D01*
X113097588Y-109999508D01*
X113197637Y-109999508D01*
X113297686Y-109999508D01*
X113297686Y-109899459D01*
X113297686Y-109799410D01*
X113397736Y-109799410D01*
X113497785Y-109799410D01*
X113497785Y-109999508D01*
X113497785Y-110199607D01*
X113397736Y-110199607D01*
X113297686Y-110199607D01*
X113297686Y-110299656D01*
X113297686Y-110399705D01*
X113497785Y-110399705D01*
X113697883Y-110399705D01*
X113697883Y-110299656D01*
X113697883Y-110199607D01*
X113797933Y-110199607D01*
X113897982Y-110199607D01*
X113897982Y-109999508D01*
X113897982Y-109799410D01*
X113797933Y-109799410D01*
X113697883Y-109799410D01*
X113697883Y-109599311D01*
X113697883Y-109399213D01*
X113597834Y-109399213D01*
X113497785Y-109399213D01*
X113497785Y-109299164D01*
X113497785Y-109199115D01*
X113397736Y-109199115D01*
X113297686Y-109199115D01*
X113297686Y-109099065D01*
X113297686Y-108999016D01*
X112897490Y-108999016D01*
X112497293Y-108999016D01*
X112497293Y-109099065D01*
X112497293Y-109199115D01*
X112397243Y-109199115D01*
X112297194Y-109199115D01*
X112297194Y-109799410D01*
X112297194Y-110399705D01*
X112097096Y-110399705D01*
X112097096Y-109799410D01*
X112097096Y-108999016D01*
X112197145Y-108999016D01*
X112297194Y-108999016D01*
X112297194Y-108898967D01*
X112297194Y-108798918D01*
X112397243Y-108798918D01*
X112497293Y-108798918D01*
X112497293Y-108698868D01*
X112497293Y-108598819D01*
X113097588Y-108598819D01*
X113697883Y-108598819D01*
X113697883Y-108698868D01*
X113697883Y-108798918D01*
X113797933Y-108798918D01*
X113897982Y-108798918D01*
X113897982Y-108898967D01*
X113897982Y-108999016D01*
X113998031Y-108999016D01*
X114098080Y-108999016D01*
X114098080Y-109199115D01*
X114098080Y-109399213D01*
X114198130Y-109399213D01*
X114298179Y-109399213D01*
X114298179Y-109899459D01*
X114298179Y-110199607D01*
X114298179Y-110399705D01*
G37*
D12*
%TO.C,JST1*%
X179653455Y-94707557D02*
X179653455Y-95707557D01*
X179653455Y-97707556D02*
X179653456Y-96707556D01*
X180153455Y-95207557D02*
X179153455Y-95207557D01*
D11*
X180693453Y-93147557D02*
X181693455Y-93147557D01*
X180693455Y-94067556D02*
X180693453Y-93147557D01*
X180693455Y-98347557D02*
X180693455Y-99267557D01*
X180693455Y-99267557D02*
X181693455Y-99267557D01*
X188513454Y-98347557D02*
X188513455Y-99267557D01*
X188513455Y-93147557D02*
X187513455Y-93147557D01*
X188513455Y-94147557D02*
X188513455Y-93147557D01*
X188513455Y-99267557D02*
X187513455Y-99267557D01*
D10*
%TO.C,S10*%
X147053456Y-90007560D02*
X146553456Y-90507561D01*
X147053456Y-94507560D02*
X146553456Y-94007558D01*
X149353455Y-94507560D02*
X147053456Y-94507560D01*
X150053455Y-90007560D02*
X147053456Y-90007560D01*
X150553456Y-90507560D02*
X150053455Y-90007560D01*
X150553456Y-90507560D02*
X150553458Y-91427561D01*
X151053456Y-96707560D02*
X151053456Y-96007557D01*
X151073453Y-92007560D02*
X155553456Y-92007560D01*
X155553456Y-92007560D02*
X155553456Y-92607560D01*
X155553456Y-96207560D02*
X155553457Y-96707562D01*
X155553457Y-96707562D02*
X151053456Y-96707560D01*
X149353455Y-94507561D02*
G75*
G02*
X151053456Y-95987560I110001J-1589999D01*
G01*
X151073453Y-92007559D02*
G75*
G02*
X150553457Y-91427561I30003J549999D01*
G01*
%TO.C,S14*%
X165053454Y-78007561D02*
X164553454Y-78507562D01*
X165053454Y-82507561D02*
X164553454Y-82007559D01*
X167353453Y-82507561D02*
X165053454Y-82507561D01*
X168053453Y-78007561D02*
X165053454Y-78007561D01*
X168553454Y-78507561D02*
X168053453Y-78007561D01*
X168553454Y-78507561D02*
X168553456Y-79427562D01*
X169053454Y-84707561D02*
X169053454Y-84007558D01*
X169073451Y-80007561D02*
X173553454Y-80007561D01*
X173553454Y-80007561D02*
X173553454Y-80607561D01*
X173553454Y-84207561D02*
X173553455Y-84707563D01*
X173553455Y-84707563D02*
X169053454Y-84707561D01*
X167353453Y-82507562D02*
G75*
G02*
X169053454Y-83987561I110001J-1589999D01*
G01*
X169073451Y-80007560D02*
G75*
G02*
X168553455Y-79427562I30003J549999D01*
G01*
%TO.C,S18*%
X185555780Y-125140805D02*
X185302376Y-124480664D01*
X187386095Y-121029849D02*
X186725954Y-121283255D01*
X187656935Y-126076299D02*
X185555780Y-125140805D01*
X188315142Y-128777551D02*
X188599858Y-128138070D01*
X190126732Y-122250060D02*
X187386095Y-121029849D01*
X190245075Y-124492024D02*
X194337761Y-126314202D01*
X190380135Y-122910201D02*
X190005938Y-123750663D01*
X190380135Y-122910201D02*
X190126732Y-122250060D01*
X192426097Y-130607866D02*
X188315142Y-128777551D01*
X192629464Y-130151094D02*
X192426097Y-130607866D01*
X194337761Y-126314202D02*
X194093716Y-126862328D01*
X187656935Y-126076299D02*
G75*
G02*
X188607992Y-128119799I-546221J-1497278D01*
G01*
X190245075Y-124492024D02*
G75*
G02*
X190005938Y-123750663I251111J490249D01*
G01*
%TO.C,S8*%
X129053455Y-68007560D02*
X128553455Y-68507561D01*
X129053455Y-72507560D02*
X128553455Y-72007558D01*
X131353454Y-72507560D02*
X129053455Y-72507560D01*
X132053454Y-68007560D02*
X129053455Y-68007560D01*
X132553455Y-68507560D02*
X132053454Y-68007560D01*
X132553455Y-68507560D02*
X132553457Y-69427561D01*
X133053455Y-74707560D02*
X133053455Y-74007557D01*
X133073452Y-70007560D02*
X137553455Y-70007560D01*
X137553455Y-70007560D02*
X137553455Y-70607560D01*
X137553455Y-74207560D02*
X137553456Y-74707562D01*
X137553456Y-74707562D02*
X133053455Y-74707560D01*
X131353454Y-72507561D02*
G75*
G02*
X133053455Y-73987560I110001J-1589999D01*
G01*
X133073452Y-70007559D02*
G75*
G02*
X132553456Y-69427561I30003J549999D01*
G01*
%TO.C,S5*%
X109360972Y-73735303D02*
X108878726Y-74252450D01*
X109518020Y-78232563D02*
X109000874Y-77750318D01*
X111816618Y-78152294D02*
X109518020Y-78232563D01*
X112359144Y-73630605D02*
X109360972Y-73735303D01*
X112876290Y-74112853D02*
X112359144Y-73630605D01*
X112876290Y-74112853D02*
X112908397Y-75032290D01*
X113448322Y-75593790D02*
X117925593Y-75437440D01*
X113592362Y-80291625D02*
X113567932Y-79592050D01*
X117925593Y-75437440D02*
X117946532Y-76037076D01*
X118072172Y-79634882D02*
X118089621Y-80134577D01*
X118089621Y-80134577D02*
X113592362Y-80291625D01*
X111816618Y-78152294D02*
G75*
G02*
X113567235Y-79572066I165424J-1585193D01*
G01*
X113448322Y-75593789D02*
G75*
G02*
X112908398Y-75032290I10787J550711D01*
G01*
%TO.C,S13*%
X165053454Y-95007560D02*
X164553454Y-95507561D01*
X165053454Y-99507560D02*
X164553454Y-99007558D01*
X167353453Y-99507560D02*
X165053454Y-99507560D01*
X168053453Y-95007560D02*
X165053454Y-95007560D01*
X168553454Y-95507560D02*
X168053453Y-95007560D01*
X168553454Y-95507560D02*
X168553456Y-96427561D01*
X169053454Y-101707560D02*
X169053454Y-101007557D01*
X169073451Y-97007560D02*
X173553454Y-97007560D01*
X173553454Y-97007560D02*
X173553454Y-97607560D01*
X173553454Y-101207560D02*
X173553455Y-101707562D01*
X173553455Y-101707562D02*
X169053454Y-101707560D01*
X167353453Y-99507561D02*
G75*
G02*
X169053454Y-100987560I110001J-1589999D01*
G01*
X169073451Y-97007559D02*
G75*
G02*
X168553455Y-96427561I30003J549999D01*
G01*
%TO.C,S6*%
X108767680Y-56745659D02*
X108285434Y-57262806D01*
X108924728Y-61242919D02*
X108407582Y-60760674D01*
X111223326Y-61162650D02*
X108924728Y-61242919D01*
X111765852Y-56640961D02*
X108767680Y-56745659D01*
X112282998Y-57123209D02*
X111765852Y-56640961D01*
X112282998Y-57123209D02*
X112315105Y-58042646D01*
X112855030Y-58604146D02*
X117332301Y-58447796D01*
X112999070Y-63301981D02*
X112974640Y-62602406D01*
X117332301Y-58447796D02*
X117353240Y-59047432D01*
X117478880Y-62645238D02*
X117496329Y-63144933D01*
X117496329Y-63144933D02*
X112999070Y-63301981D01*
X111223326Y-61162650D02*
G75*
G02*
X112973943Y-62582422I165424J-1585193D01*
G01*
X112855030Y-58604145D02*
G75*
G02*
X112315106Y-58042646I10787J550711D01*
G01*
%TO.C,S7*%
X129053454Y-85007561D02*
X128553454Y-85507562D01*
X129053454Y-89507561D02*
X128553454Y-89007559D01*
X131353453Y-89507561D02*
X129053454Y-89507561D01*
X132053453Y-85007561D02*
X129053454Y-85007561D01*
X132553454Y-85507561D02*
X132053453Y-85007561D01*
X132553454Y-85507561D02*
X132553456Y-86427562D01*
X133053454Y-91707561D02*
X133053454Y-91007558D01*
X133073451Y-87007561D02*
X137553454Y-87007561D01*
X137553454Y-87007561D02*
X137553454Y-87607561D01*
X137553454Y-91207561D02*
X137553455Y-91707563D01*
X137553455Y-91707563D02*
X133053454Y-91707561D01*
X131353453Y-89507562D02*
G75*
G02*
X133053454Y-90987561I110001J-1589999D01*
G01*
X133073451Y-87007560D02*
G75*
G02*
X132553455Y-86427562I30003J549999D01*
G01*
%TO.C,S1*%
X89489539Y-96495231D02*
X89083961Y-97074461D01*
X90270956Y-100926868D02*
X89691729Y-100521288D01*
X92443964Y-95974288D02*
X89489539Y-96495231D01*
X92536015Y-100527477D02*
X90270956Y-100926868D01*
X93023192Y-96379869D02*
X92443964Y-95974288D01*
X93023192Y-96379869D02*
X93182951Y-97285891D01*
X93795764Y-97766783D02*
X98207703Y-96988839D01*
X94592214Y-102398852D02*
X94470660Y-101709486D01*
X98207703Y-96988839D02*
X98311891Y-97579723D01*
X98937025Y-101125030D02*
X99023850Y-101617435D01*
X99023850Y-101617435D02*
X94592214Y-102398852D01*
X92536015Y-100527477D02*
G75*
G02*
X94467187Y-101689789I384428J-1546746D01*
G01*
X93795764Y-97766782D02*
G75*
G02*
X93182949Y-97285891I-65962J546853D01*
G01*
%TO.C,S17*%
X165374124Y-118856577D02*
X164989007Y-118263548D01*
X166309727Y-114454912D02*
X165716698Y-114840031D01*
X167623864Y-119334774D02*
X165374124Y-118856577D01*
X168829310Y-121840148D02*
X168974848Y-121155446D01*
X169244170Y-115078647D02*
X166309727Y-114454912D01*
X169629288Y-115671677D02*
X169244170Y-115078647D01*
X169629288Y-115671677D02*
X169438009Y-116571573D01*
X169826058Y-117247011D02*
X174208159Y-118178457D01*
X173230974Y-122775750D02*
X168829310Y-121840148D01*
X173334931Y-122286675D02*
X173230974Y-122775750D01*
X174208159Y-118178457D02*
X174083412Y-118765345D01*
X167623864Y-119334774D02*
G75*
G02*
X168979004Y-121135882I-222983J-1578124D01*
G01*
X169826058Y-117247010D02*
G75*
G02*
X169438012Y-116571574I143695J531741D01*
G01*
%TO.C,S2*%
X86537521Y-79753498D02*
X86131943Y-80332728D01*
X87318938Y-84185135D02*
X86739711Y-83779555D01*
X89491946Y-79232555D02*
X86537521Y-79753498D01*
X89583997Y-83785744D02*
X87318938Y-84185135D01*
X90071174Y-79638136D02*
X89491946Y-79232555D01*
X90071174Y-79638136D02*
X90230933Y-80544158D01*
X90843746Y-81025050D02*
X95255685Y-80247106D01*
X91640196Y-85657119D02*
X91518642Y-84967753D01*
X95255685Y-80247106D02*
X95359873Y-80837990D01*
X95985007Y-84383297D02*
X96071832Y-84875702D01*
X96071832Y-84875702D02*
X91640196Y-85657119D01*
X89583997Y-83785744D02*
G75*
G02*
X91515169Y-84948056I384428J-1546746D01*
G01*
X90843746Y-81025049D02*
G75*
G02*
X90230931Y-80544158I-65962J546853D01*
G01*
%TO.C,S12*%
X147053452Y-56007558D02*
X146553452Y-56507559D01*
X147053452Y-60507558D02*
X146553452Y-60007556D01*
X149353451Y-60507558D02*
X147053452Y-60507558D01*
X150053451Y-56007558D02*
X147053452Y-56007558D01*
X150553452Y-56507558D02*
X150053451Y-56007558D01*
X150553452Y-56507558D02*
X150553454Y-57427559D01*
X151053452Y-62707558D02*
X151053452Y-62007555D01*
X151073449Y-58007558D02*
X155553452Y-58007558D01*
X155553452Y-58007558D02*
X155553452Y-58607558D01*
X155553452Y-62207558D02*
X155553453Y-62707560D01*
X155553453Y-62707560D02*
X151053452Y-62707558D01*
X149353451Y-60507559D02*
G75*
G02*
X151053452Y-61987558I110001J-1589999D01*
G01*
X151073449Y-58007557D02*
G75*
G02*
X150553453Y-57427559I30003J549999D01*
G01*
%TO.C,S4*%
X109954266Y-90724949D02*
X109472020Y-91242096D01*
X110111314Y-95222209D02*
X109594168Y-94739964D01*
X112409912Y-95141940D02*
X110111314Y-95222209D01*
X112952438Y-90620251D02*
X109954266Y-90724949D01*
X113469584Y-91102499D02*
X112952438Y-90620251D01*
X113469584Y-91102499D02*
X113501691Y-92021936D01*
X114041616Y-92583436D02*
X118518887Y-92427086D01*
X114185656Y-97281271D02*
X114161226Y-96581696D01*
X118518887Y-92427086D02*
X118539826Y-93026722D01*
X118665466Y-96624528D02*
X118682915Y-97124223D01*
X118682915Y-97124223D02*
X114185656Y-97281271D01*
X112409912Y-95141940D02*
G75*
G02*
X114160529Y-96561712I165424J-1585193D01*
G01*
X114041616Y-92583435D02*
G75*
G02*
X113501692Y-92021936I10787J550711D01*
G01*
%TO.C,S16*%
X144053451Y-112007560D02*
X143553451Y-112507561D01*
X144053451Y-116507560D02*
X143553451Y-116007558D01*
X146353450Y-116507560D02*
X144053451Y-116507560D01*
X147053450Y-112007560D02*
X144053451Y-112007560D01*
X147553451Y-112507560D02*
X147053450Y-112007560D01*
X147553451Y-112507560D02*
X147553453Y-113427561D01*
X148053451Y-118707560D02*
X148053451Y-118007557D01*
X148073448Y-114007560D02*
X152553451Y-114007560D01*
X152553451Y-114007560D02*
X152553451Y-114607560D01*
X152553451Y-118207560D02*
X152553452Y-118707562D01*
X152553452Y-118707562D02*
X148053451Y-118707560D01*
X146353450Y-116507561D02*
G75*
G02*
X148053451Y-117987560I110001J-1589999D01*
G01*
X148073448Y-114007559D02*
G75*
G02*
X147553452Y-113427561I30003J549999D01*
G01*
%TO.C,S9*%
X129053456Y-51007558D02*
X128553456Y-51507559D01*
X129053456Y-55507558D02*
X128553456Y-55007556D01*
X131353455Y-55507558D02*
X129053456Y-55507558D01*
X132053455Y-51007558D02*
X129053456Y-51007558D01*
X132553456Y-51507558D02*
X132053455Y-51007558D01*
X132553456Y-51507558D02*
X132553458Y-52427559D01*
X133053456Y-57707558D02*
X133053456Y-57007555D01*
X133073453Y-53007558D02*
X137553456Y-53007558D01*
X137553456Y-53007558D02*
X137553456Y-53607558D01*
X137553456Y-57207558D02*
X137553457Y-57707560D01*
X137553457Y-57707560D02*
X133053456Y-57707558D01*
X131353455Y-55507559D02*
G75*
G02*
X133053456Y-56987558I110001J-1589999D01*
G01*
X133073453Y-53007557D02*
G75*
G02*
X132553457Y-52427559I30003J549999D01*
G01*
%TO.C,S3*%
X83585500Y-63011769D02*
X83179922Y-63590999D01*
X84366917Y-67443406D02*
X83787690Y-67037826D01*
X86539925Y-62490826D02*
X83585500Y-63011769D01*
X86631976Y-67044015D02*
X84366917Y-67443406D01*
X87119153Y-62896407D02*
X86539925Y-62490826D01*
X87119153Y-62896407D02*
X87278912Y-63802429D01*
X87891725Y-64283321D02*
X92303664Y-63505377D01*
X88688175Y-68915390D02*
X88566621Y-68226024D01*
X92303664Y-63505377D02*
X92407852Y-64096261D01*
X93032986Y-67641568D02*
X93119811Y-68133973D01*
X93119811Y-68133973D02*
X88688175Y-68915390D01*
X86631976Y-67044015D02*
G75*
G02*
X88563148Y-68206327I384428J-1546746D01*
G01*
X87891725Y-64283320D02*
G75*
G02*
X87278910Y-63802429I-65962J546853D01*
G01*
%TO.C,S15*%
X165053453Y-61007561D02*
X164553453Y-61507562D01*
X165053453Y-65507561D02*
X164553453Y-65007559D01*
X167353452Y-65507561D02*
X165053453Y-65507561D01*
X168053452Y-61007561D02*
X165053453Y-61007561D01*
X168553453Y-61507561D02*
X168053452Y-61007561D01*
X168553453Y-61507561D02*
X168553455Y-62427562D01*
X169053453Y-67707561D02*
X169053453Y-67007558D01*
X169073450Y-63007561D02*
X173553453Y-63007561D01*
X173553453Y-63007561D02*
X173553453Y-63607561D01*
X173553453Y-67207561D02*
X173553454Y-67707563D01*
X173553454Y-67707563D02*
X169053453Y-67707561D01*
X167353452Y-65507562D02*
G75*
G02*
X169053453Y-66987561I110001J-1589999D01*
G01*
X169073450Y-63007560D02*
G75*
G02*
X168553454Y-62427562I30003J549999D01*
G01*
%TO.C,S11*%
X147053455Y-73007562D02*
X146553455Y-73507563D01*
X147053455Y-77507562D02*
X146553455Y-77007560D01*
X149353454Y-77507562D02*
X147053455Y-77507562D01*
X150053454Y-73007562D02*
X147053455Y-73007562D01*
X150553455Y-73507562D02*
X150053454Y-73007562D01*
X150553455Y-73507562D02*
X150553457Y-74427563D01*
X151053455Y-79707562D02*
X151053455Y-79007559D01*
X151073452Y-75007562D02*
X155553455Y-75007562D01*
X155553455Y-75007562D02*
X155553455Y-75607562D01*
X155553455Y-79207562D02*
X155553456Y-79707564D01*
X155553456Y-79707564D02*
X151053455Y-79707562D01*
X149353454Y-77507563D02*
G75*
G02*
X151053455Y-78987562I110001J-1589999D01*
G01*
X151073452Y-75007561D02*
G75*
G02*
X150553456Y-74427563I30003J549999D01*
G01*
%TD*%
M02*
