%TF.GenerationSoftware,KiCad,Pcbnew,8.0.1*%
%TF.CreationDate,2024-04-29T16:42:10+03:00*%
%TF.ProjectId,ready_splayer_pcb,72656164-795f-4737-906c-617965725f70,v1.0.0*%
%TF.SameCoordinates,Original*%
%TF.FileFunction,Soldermask,Top*%
%TF.FilePolarity,Negative*%
%FSLAX46Y46*%
G04 Gerber Fmt 4.6, Leading zero omitted, Abs format (unit mm)*
G04 Created by KiCad (PCBNEW 8.0.1) date 2024-04-29 16:42:10*
%MOMM*%
%LPD*%
G01*
G04 APERTURE LIST*
G04 Aperture macros list*
%AMRoundRect*
0 Rectangle with rounded corners*
0 $1 Rounding radius*
0 $2 $3 $4 $5 $6 $7 $8 $9 X,Y pos of 4 corners*
0 Add a 4 corners polygon primitive as box body*
4,1,4,$2,$3,$4,$5,$6,$7,$8,$9,$2,$3,0*
0 Add four circle primitives for the rounded corners*
1,1,$1+$1,$2,$3*
1,1,$1+$1,$4,$5*
1,1,$1+$1,$6,$7*
1,1,$1+$1,$8,$9*
0 Add four rect primitives between the rounded corners*
20,1,$1+$1,$2,$3,$4,$5,0*
20,1,$1+$1,$4,$5,$6,$7,0*
20,1,$1+$1,$6,$7,$8,$9,0*
20,1,$1+$1,$8,$9,$2,$3,0*%
%AMFreePoly0*
4,1,16,0.535355,0.660355,0.550000,0.625000,0.550000,-0.625000,0.535355,-0.660355,0.500000,-0.675000,-0.650000,-0.675000,-0.685355,-0.660355,-0.700000,-0.625000,-0.689043,-0.593765,-0.214031,0.000000,-0.689043,0.593765,-0.699694,0.630522,-0.681235,0.664043,-0.650000,0.675000,0.500000,0.675000,0.535355,0.660355,0.535355,0.660355,$1*%
%AMFreePoly1*
4,1,16,-0.214645,0.660355,-0.210957,0.656235,0.289043,0.031235,0.299694,-0.005522,0.289043,-0.031235,-0.210957,-0.656235,-0.244478,-0.674694,-0.250000,-0.675000,-0.500000,-0.675000,-0.535355,-0.660355,-0.550000,-0.625000,-0.550000,0.625000,-0.535355,0.660355,-0.500000,0.675000,-0.250000,0.675000,-0.214645,0.660355,-0.214645,0.660355,$1*%
%AMFreePoly2*
4,1,16,0.635355,0.285355,0.650000,0.250000,0.650000,-1.000000,0.635355,-1.035355,0.600000,-1.050000,0.564645,-1.035355,0.000000,-0.470710,-0.564645,-1.035355,-0.600000,-1.050000,-0.635355,-1.035355,-0.650000,-1.000000,-0.650000,0.250000,-0.635355,0.285355,-0.600000,0.300000,0.600000,0.300000,0.635355,0.285355,0.635355,0.285355,$1*%
%AMFreePoly3*
4,1,14,0.035355,0.435355,0.635355,-0.164645,0.650000,-0.200000,0.650000,-0.400000,0.635355,-0.435355,0.600000,-0.450000,-0.600000,-0.450000,-0.635355,-0.435355,-0.650000,-0.400000,-0.650000,-0.200000,-0.635355,-0.164645,-0.035355,0.435355,0.000000,0.450000,0.035355,0.435355,0.035355,0.435355,$1*%
%AMFreePoly4*
4,1,15,1.335355,1.335355,1.350000,1.300000,1.350000,-0.250000,1.335355,-0.285355,1.332160,-0.288285,0.082160,-1.338285,0.050000,-1.350000,-1.300000,-1.350000,-1.335355,-1.335355,-1.350000,-1.300000,-1.350000,1.300000,-1.335355,1.335355,-1.300000,1.350000,1.300000,1.350000,1.335355,1.335355,1.335355,1.335355,$1*%
G04 Aperture macros list end*
%ADD10C,5.100000*%
%ADD11RoundRect,0.050000X0.400000X-0.500000X0.400000X0.500000X-0.400000X0.500000X-0.400000X-0.500000X0*%
%ADD12C,1.000000*%
%ADD13RoundRect,0.050000X0.750000X-0.350000X0.750000X0.350000X-0.750000X0.350000X-0.750000X-0.350000X0*%
%ADD14RoundRect,0.050000X0.500000X-0.775000X0.500000X0.775000X-0.500000X0.775000X-0.500000X-0.775000X0*%
%ADD15C,0.900000*%
%ADD16FreePoly0,180.000000*%
%ADD17FreePoly1,180.000000*%
%ADD18C,1.800000*%
%ADD19FreePoly1,0.000000*%
%ADD20FreePoly0,0.000000*%
%ADD21C,2.300000*%
%ADD22FreePoly2,90.000000*%
%ADD23O,1.850000X1.300000*%
%ADD24FreePoly3,90.000000*%
%ADD25C,2.000000*%
%ADD26C,3.100000*%
%ADD27C,2.132000*%
%ADD28FreePoly4,0.000000*%
%ADD29RoundRect,0.050000X-1.300000X-1.300000X1.300000X-1.300000X1.300000X1.300000X-1.300000X1.300000X0*%
%ADD30FreePoly4,336.000000*%
%ADD31RoundRect,0.050000X-1.716367X-0.658851X0.658851X-1.716367X1.716367X0.658851X-0.658851X1.716367X0*%
%ADD32FreePoly4,2.000000*%
%ADD33RoundRect,0.050000X-1.253839X-1.344577X1.344577X-1.253839X1.253839X1.344577X-1.344577X1.253839X0*%
%ADD34FreePoly4,10.000000*%
%ADD35RoundRect,0.050000X-1.054507X-1.505993X1.505993X-1.054507X1.054507X1.505993X-1.505993X1.054507X0*%
%ADD36FreePoly4,348.000000*%
%ADD37RoundRect,0.050000X-1.541877X-1.001307X1.001307X-1.541877X1.541877X1.001307X-1.001307X1.541877X0*%
G04 APERTURE END LIST*
D10*
%TO.C,MH3*%
X98452044Y-68716895D03*
%TD*%
%TO.C,MH4*%
X157553454Y-72707559D03*
%TD*%
D11*
%TO.C,PWR1*%
X195968451Y-107557560D03*
X195968451Y-114857560D03*
D12*
X197078452Y-109707560D03*
X197078452Y-112707560D03*
D11*
X198178452Y-107557561D03*
X198178452Y-114857559D03*
D13*
X195318454Y-113457560D03*
X195318452Y-110457560D03*
X195318452Y-108957560D03*
%TD*%
D10*
%TO.C,MH5*%
X100724305Y-87304712D03*
%TD*%
D14*
%TO.C,RST1*%
X197903454Y-103832561D03*
X196203455Y-103832559D03*
X197903453Y-98582561D03*
X196203454Y-98582559D03*
%TD*%
D10*
%TO.C,MH7*%
X175821660Y-126700141D03*
%TD*%
D15*
%TO.C,MCU1*%
X191203454Y-63016562D03*
D16*
X192578454Y-63016561D03*
D17*
X193303454Y-63016563D03*
D18*
X195423454Y-63016562D03*
D15*
X191203454Y-65556562D03*
D16*
X192578454Y-65556562D03*
D17*
X193303454Y-65556563D03*
D18*
X195423454Y-65556562D03*
D15*
X191203454Y-68096564D03*
D16*
X192578454Y-68096562D03*
D17*
X193303454Y-68096562D03*
D18*
X195423454Y-68096562D03*
D15*
X191203454Y-70636562D03*
D16*
X192578454Y-70636562D03*
D17*
X193303454Y-70636561D03*
D18*
X195423454Y-70636562D03*
X195423452Y-73176562D03*
X195423454Y-75716562D03*
X195423453Y-78256562D03*
X195423454Y-80796562D03*
X195423454Y-83336562D03*
X195423454Y-85876562D03*
X195423453Y-88416561D03*
X195423454Y-90956562D03*
X180183452Y-90956562D03*
X180183454Y-88416562D03*
X180183454Y-85876562D03*
X180183454Y-83336562D03*
X180183454Y-80796562D03*
X180183456Y-78256562D03*
X180183454Y-75716562D03*
X180183455Y-73176562D03*
X180183454Y-70636562D03*
D19*
X182303454Y-70636562D03*
D18*
X180183454Y-68096562D03*
D19*
X182303454Y-68096562D03*
D18*
X180183454Y-65556562D03*
D19*
X182303454Y-65556562D03*
D18*
X180183455Y-63016563D03*
D19*
X182303454Y-63016563D03*
D20*
X183028455Y-70636563D03*
D15*
X184403454Y-70636562D03*
D20*
X183028454Y-68096561D03*
D15*
X184403454Y-68096562D03*
D20*
X183028454Y-65556562D03*
D15*
X184403454Y-65556563D03*
D20*
X183028454Y-63016561D03*
D15*
X184403454Y-63016562D03*
%TD*%
D10*
%TO.C,MH6*%
X130553452Y-111907559D03*
%TD*%
D21*
%TO.C,MH1*%
X195885936Y-118903190D03*
%TD*%
D22*
%TO.C,JST1*%
X184237455Y-95207557D03*
X184237455Y-97207557D03*
D23*
X187053455Y-95207557D03*
X187053455Y-97207557D03*
D24*
X185253455Y-95207558D03*
X185253454Y-97207556D03*
%TD*%
D21*
%TO.C,MH2*%
X179442118Y-111581927D03*
%TD*%
D25*
%TO.C,S10*%
X143053456Y-98207560D03*
D26*
X143553456Y-94457560D03*
D25*
X143553456Y-103357560D03*
D26*
X148553456Y-92257560D03*
D10*
X148553456Y-98207560D03*
D26*
X153553456Y-94457560D03*
D25*
X153553456Y-103357560D03*
X154053456Y-98207560D03*
D27*
X143553454Y-102007559D03*
D28*
X151828456Y-92257560D03*
D27*
X153553457Y-102007559D03*
D29*
X140278456Y-94457560D03*
D27*
X148553456Y-104107560D03*
%TD*%
D25*
%TO.C,S14*%
X161053454Y-86207561D03*
D26*
X161553454Y-82457561D03*
D25*
X161553454Y-91357561D03*
D26*
X166553454Y-80257561D03*
D10*
X166553454Y-86207561D03*
D26*
X171553454Y-82457561D03*
D25*
X171553454Y-91357561D03*
X172053454Y-86207561D03*
D27*
X161553452Y-90007560D03*
D28*
X169828454Y-80257561D03*
D27*
X171553455Y-90007560D03*
D29*
X158278454Y-82457561D03*
D27*
X166553454Y-92107561D03*
%TD*%
D25*
%TO.C,S18*%
X180396673Y-126893976D03*
D26*
X182378707Y-123671549D03*
D25*
X178758752Y-131802104D03*
D26*
X187841256Y-123695433D03*
D10*
X185421173Y-129131028D03*
D25*
X187894207Y-135869470D03*
D26*
X191514164Y-127738916D03*
D25*
X190445673Y-131368080D03*
D27*
X179307846Y-130568818D03*
D30*
X190833117Y-125027495D03*
D27*
X188443303Y-134636184D03*
D31*
X179386848Y-122339486D03*
D27*
X183021427Y-134520946D03*
%TD*%
D25*
%TO.C,S8*%
X125053455Y-76207560D03*
D26*
X125553455Y-72457560D03*
D25*
X125553455Y-81357560D03*
D26*
X130553455Y-70257560D03*
D10*
X130553455Y-76207560D03*
D26*
X135553455Y-72457560D03*
D25*
X135553455Y-81357560D03*
X136053455Y-76207560D03*
D27*
X125553453Y-80007559D03*
D28*
X133828455Y-70257560D03*
D27*
X135553456Y-80007559D03*
D29*
X122278455Y-72457560D03*
D27*
X130553455Y-82107560D03*
%TD*%
D25*
%TO.C,S5*%
X105649584Y-82069906D03*
X106329012Y-87199320D03*
D26*
X106018408Y-78304740D03*
D10*
X111146234Y-81877960D03*
D26*
X110938583Y-75931585D03*
X116012314Y-77955747D03*
D25*
X116322921Y-86850325D03*
X116642884Y-81686014D03*
D27*
X106281898Y-85850143D03*
D32*
X114211587Y-75817287D03*
D27*
X116275805Y-85501148D03*
D33*
X102745402Y-78419038D03*
D27*
X111352141Y-87774366D03*
%TD*%
D25*
%TO.C,S13*%
X161053454Y-103207560D03*
D26*
X161553454Y-99457560D03*
D25*
X161553454Y-108357560D03*
D26*
X166553454Y-97257560D03*
D10*
X166553454Y-103207560D03*
D26*
X171553454Y-99457560D03*
D25*
X171553454Y-108357560D03*
X172053454Y-103207560D03*
D27*
X161553452Y-107007559D03*
D28*
X169828454Y-97257560D03*
D27*
X171553455Y-107007559D03*
D29*
X158278454Y-99457560D03*
D27*
X166553454Y-109107560D03*
%TD*%
D25*
%TO.C,S6*%
X105056292Y-65080262D03*
X105735720Y-70209676D03*
D26*
X105425116Y-61315096D03*
D10*
X110552942Y-64888316D03*
D26*
X110345291Y-58941941D03*
X115419022Y-60966103D03*
D25*
X115729629Y-69860681D03*
X116049592Y-64696370D03*
D27*
X105688606Y-68860499D03*
D32*
X113618295Y-58827643D03*
D27*
X115682513Y-68511504D03*
D33*
X102152110Y-61429394D03*
D27*
X110758849Y-70784722D03*
%TD*%
D25*
%TO.C,S7*%
X125053454Y-93207561D03*
D26*
X125553454Y-89457561D03*
D25*
X125553454Y-98357561D03*
D26*
X130553454Y-87257561D03*
D10*
X130553454Y-93207561D03*
D26*
X135553454Y-89457561D03*
D25*
X135553454Y-98357561D03*
X136053454Y-93207561D03*
D27*
X125553452Y-97007560D03*
D28*
X133828454Y-87257561D03*
D27*
X135553455Y-97007560D03*
D29*
X122278454Y-89457561D03*
D27*
X130553454Y-99107561D03*
%TD*%
D25*
%TO.C,S1*%
X86974224Y-105265249D03*
X88360916Y-110250185D03*
D26*
X86815449Y-101485396D03*
X91357459Y-98450576D03*
D10*
X92390667Y-104310184D03*
D26*
X96663522Y-99748915D03*
D25*
X98208994Y-108513703D03*
X97807110Y-103355119D03*
D27*
X88126491Y-108920694D03*
D34*
X94582706Y-97881880D03*
D27*
X97974569Y-107184213D03*
D35*
X83590202Y-102054094D03*
D27*
X93415191Y-110120550D03*
%TD*%
D25*
%TO.C,S17*%
X160692261Y-121644076D03*
D26*
X161961004Y-118079978D03*
D25*
X160110591Y-126785492D03*
D26*
X167309147Y-116967612D03*
D10*
X166072073Y-122787590D03*
D26*
X171742480Y-120159095D03*
D25*
X169892066Y-128864609D03*
X171451885Y-123931104D03*
D27*
X160391271Y-125464991D03*
D36*
X170512581Y-117648523D03*
D27*
X170172747Y-127544108D03*
D37*
X158757570Y-117399067D03*
D27*
X164845394Y-128558661D03*
%TD*%
D25*
%TO.C,S2*%
X84022206Y-88523516D03*
X85408898Y-93508452D03*
D26*
X83863431Y-84743663D03*
X88405441Y-81708843D03*
D10*
X89438649Y-87568451D03*
D26*
X93711504Y-83007182D03*
D25*
X95256976Y-91771970D03*
X94855092Y-86613386D03*
D27*
X85174473Y-92178961D03*
D34*
X91630688Y-81140147D03*
D27*
X95022551Y-90442480D03*
D35*
X80638184Y-85312361D03*
D27*
X90463173Y-93378817D03*
%TD*%
D25*
%TO.C,S12*%
X143053452Y-64207558D03*
D26*
X143553452Y-60457558D03*
D25*
X143553452Y-69357558D03*
D26*
X148553452Y-58257558D03*
D10*
X148553452Y-64207558D03*
D26*
X153553452Y-60457558D03*
D25*
X153553452Y-69357558D03*
X154053452Y-64207558D03*
D27*
X143553450Y-68007557D03*
D28*
X151828452Y-58257558D03*
D27*
X153553453Y-68007557D03*
D29*
X140278452Y-60457558D03*
D27*
X148553452Y-70107558D03*
%TD*%
D25*
%TO.C,S4*%
X106242878Y-99059552D03*
X106922306Y-104188966D03*
D26*
X106611702Y-95294386D03*
D10*
X111739528Y-98867606D03*
D26*
X111531877Y-92921231D03*
X116605608Y-94945393D03*
D25*
X116916215Y-103839971D03*
X117236178Y-98675660D03*
D27*
X106875192Y-102839789D03*
D32*
X114804881Y-92806933D03*
D27*
X116869099Y-102490794D03*
D33*
X103338696Y-95408684D03*
D27*
X111945435Y-104764012D03*
%TD*%
D25*
%TO.C,S16*%
X140053451Y-120207560D03*
D26*
X140553451Y-116457560D03*
D25*
X140553451Y-125357560D03*
D26*
X145553451Y-114257560D03*
D10*
X145553451Y-120207560D03*
D26*
X150553451Y-116457560D03*
D25*
X150553451Y-125357560D03*
X151053451Y-120207560D03*
D27*
X140553449Y-124007559D03*
D28*
X148828451Y-114257560D03*
D27*
X150553452Y-124007559D03*
D29*
X137278451Y-116457560D03*
D27*
X145553451Y-126107560D03*
%TD*%
D25*
%TO.C,S9*%
X125053456Y-59207558D03*
D26*
X125553456Y-55457558D03*
D25*
X125553456Y-64357558D03*
D26*
X130553456Y-53257558D03*
D10*
X130553456Y-59207558D03*
D26*
X135553456Y-55457558D03*
D25*
X135553456Y-64357558D03*
X136053456Y-59207558D03*
D27*
X125553454Y-63007557D03*
D28*
X133828456Y-53257558D03*
D27*
X135553457Y-63007557D03*
D29*
X122278456Y-55457558D03*
D27*
X130553456Y-65107558D03*
%TD*%
D25*
%TO.C,S3*%
X81070185Y-71781787D03*
X82456877Y-76766723D03*
D26*
X80911410Y-68001934D03*
X85453420Y-64967114D03*
D10*
X86486628Y-70826722D03*
D26*
X90759483Y-66265453D03*
D25*
X92304955Y-75030241D03*
X91903071Y-69871657D03*
D27*
X82222452Y-75437232D03*
D34*
X88678667Y-64398418D03*
D27*
X92070530Y-73700751D03*
D35*
X77686163Y-68570632D03*
D27*
X87511152Y-76637088D03*
%TD*%
D25*
%TO.C,S15*%
X161053453Y-69207561D03*
D26*
X161553453Y-65457561D03*
D25*
X161553453Y-74357561D03*
D26*
X166553453Y-63257561D03*
D10*
X166553453Y-69207561D03*
D26*
X171553453Y-65457561D03*
D25*
X171553453Y-74357561D03*
X172053453Y-69207561D03*
D27*
X161553451Y-73007560D03*
D28*
X169828453Y-63257561D03*
D27*
X171553454Y-73007560D03*
D29*
X158278453Y-65457561D03*
D27*
X166553453Y-75107561D03*
%TD*%
D25*
%TO.C,S11*%
X143053455Y-81207562D03*
D26*
X143553455Y-77457562D03*
D25*
X143553455Y-86357562D03*
D26*
X148553455Y-75257562D03*
D10*
X148553455Y-81207562D03*
D26*
X153553455Y-77457562D03*
D25*
X153553455Y-86357562D03*
X154053455Y-81207562D03*
D27*
X143553453Y-85007561D03*
D28*
X151828455Y-75257562D03*
D27*
X153553456Y-85007561D03*
D29*
X140278455Y-77457562D03*
D27*
X148553455Y-87107562D03*
%TD*%
M02*
