%TF.GenerationSoftware,KiCad,Pcbnew,8.0.1*%
%TF.CreationDate,2024-04-29T16:42:10+03:00*%
%TF.ProjectId,ready_splayer_pcb,72656164-795f-4737-906c-617965725f70,v1.0.0*%
%TF.SameCoordinates,Original*%
%TF.FileFunction,Profile,NP*%
%FSLAX46Y46*%
G04 Gerber Fmt 4.6, Leading zero omitted, Abs format (unit mm)*
G04 Created by KiCad (PCBNEW 8.0.1) date 2024-04-29 16:42:10*
%MOMM*%
%LPD*%
G01*
G04 APERTURE LIST*
%TA.AperFunction,Profile*%
%ADD10C,0.150000*%
%TD*%
G04 APERTURE END LIST*
D10*
X94926449Y-59184289D02*
X76280800Y-62472019D01*
X101609187Y-55194546D02*
X118219762Y-54614493D01*
X136953455Y-130207559D02*
G75*
G02*
X135053441Y-128307560I45J1900059D01*
G01*
X160952498Y-59188403D02*
G75*
G02*
X159053497Y-57288405I1002J1900003D01*
G01*
X159053453Y-57288405D02*
X159053451Y-56107558D01*
X99776653Y-57159695D02*
X99777725Y-57190429D01*
X197203746Y-59206605D02*
G75*
G02*
X199102795Y-61107268I-1046J-1900095D01*
G01*
X157153454Y-54207558D02*
G75*
G02*
X159053442Y-56107558I46J-1899942D01*
G01*
X199102792Y-61107268D02*
X199080907Y-123862798D01*
X172909283Y-134506737D02*
X189210299Y-141764416D01*
X152683247Y-130207561D02*
G75*
G02*
X153078276Y-130249079I53J-1899539D01*
G01*
X99777724Y-57190429D02*
G75*
G02*
X97877929Y-59156684I-1898724J-66371D01*
G01*
X139153452Y-49207560D02*
X121953453Y-49207560D01*
X142953453Y-54207561D02*
G75*
G02*
X141053439Y-52307559I47J1900061D01*
G01*
X153078276Y-130249080D02*
X172531517Y-134383994D01*
X135053454Y-117906596D02*
X135053454Y-128307560D01*
X120053454Y-51107558D02*
X120053452Y-52715645D01*
X99776654Y-57159695D02*
G75*
G02*
X101609187Y-55194555I1898846J66295D01*
G01*
X95257336Y-59155420D02*
X97877929Y-59156736D01*
X191718835Y-140801478D02*
X198916642Y-124634933D01*
X133154419Y-116006598D02*
G75*
G02*
X135053502Y-117906596I-919J-1900002D01*
G01*
X191718834Y-140801478D02*
G75*
G02*
X189210296Y-141764422I-1735734J772778D01*
G01*
X199080907Y-123862798D02*
G75*
G02*
X198916629Y-124634927I-1899507J598D01*
G01*
X74739598Y-64673082D02*
X83509966Y-114412306D01*
X139153452Y-49207560D02*
G75*
G02*
X141053440Y-51107559I48J-1899940D01*
G01*
X141053452Y-52307559D02*
X141053455Y-51107559D01*
X85380138Y-115982372D02*
G75*
G02*
X83509988Y-114412302I962J1899972D01*
G01*
X142953453Y-54207561D02*
X157153454Y-54207558D01*
X133154419Y-116006598D02*
X85380138Y-115982372D01*
X120053454Y-51107558D02*
G75*
G02*
X121953453Y-49207554I1900046J-42D01*
G01*
X172531517Y-134383994D02*
G75*
G02*
X172909282Y-134506740I-395117J-1858706D01*
G01*
X136953455Y-130207559D02*
X152683247Y-130207561D01*
X94926449Y-59184290D02*
G75*
G02*
X95257336Y-59155414I330051J-1871810D01*
G01*
X74739599Y-64673082D02*
G75*
G02*
X76280800Y-62472019I1871201J329882D01*
G01*
X160952498Y-59188403D02*
X197203746Y-59206605D01*
X120053452Y-52715645D02*
G75*
G02*
X118219762Y-54614496I-1899952J-55D01*
G01*
M02*
