M48
; DRILL file {KiCad 8.0.1} date 2024-04-29T16:41:51+0300
; FORMAT={-:-/ absolute / inch / decimal}
; #@! TF.CreationDate,2024-04-29T16:41:51+03:00
; #@! TF.GenerationSoftware,Kicad,Pcbnew,8.0.1
; #@! TF.FileFunction,Plated,1,2,PTH
FMAT,2
INCH
; #@! TA.AperFunction,Plated,PTH,ComponentDrill
T1C0.0118
; #@! TA.AperFunction,Plated,PTH,ComponentDrill
T2C0.0157
; #@! TA.AperFunction,Plated,PTH,ComponentDrill
T3C0.0295
; #@! TA.AperFunction,Plated,PTH,ComponentDrill
T4C0.0394
; #@! TA.AperFunction,Plated,PTH,ComponentDrill
T5C0.0500
; #@! TA.AperFunction,Plated,PTH,ComponentDrill
T6C0.0630
%
G90
G05
T1
X7.2068Y-3.9452
X7.4824Y-3.7877
X7.6005Y-4.2995
X7.6005Y-4.4176
X7.758Y-3.7877
T2
X7.26Y-2.481
X7.26Y-2.581
X7.26Y-2.681
X7.26Y-2.781
X7.5277Y-2.481
X7.5277Y-2.581
X7.5277Y-2.681
X7.5277Y-2.781
T3
X7.3643Y-3.7483
X7.3643Y-3.8271
T4
X7.0938Y-3.581
X7.0938Y-2.581
X7.0938Y-2.681
X7.0938Y-2.781
X7.0938Y-2.981
X7.0938Y-3.181
X7.0938Y-3.281
X7.0938Y-3.381
X7.0938Y-3.481
X7.0938Y-2.481
X7.0938Y-2.881
X7.0938Y-3.081
X7.6938Y-2.881
X7.6938Y-3.081
X7.6938Y-3.481
X7.6938Y-2.481
X7.6938Y-2.581
X7.6938Y-2.681
X7.6938Y-2.781
X7.6938Y-2.981
X7.6938Y-3.181
X7.6938Y-3.281
X7.6938Y-3.381
X7.6938Y-3.581
T5
X3.2371Y-2.97
X3.3533Y-3.6291
X3.4453Y-3.0172
X3.4695Y-4.2882
X3.5615Y-3.6763
X3.6248Y-2.9016
X3.6778Y-4.3355
X3.741Y-3.5607
X3.8573Y-4.2199
X4.161Y-2.711
X4.1843Y-3.3799
X4.2077Y-4.0488
X4.3606Y-2.7868
X4.3839Y-3.4557
X4.4073Y-4.1246
X4.5544Y-2.6973
X4.5778Y-3.3662
X4.6011Y-4.0351
X4.943Y-3.8192
X4.943Y-3.1499
X4.943Y-2.4806
X5.1399Y-3.9019
X5.1399Y-3.2326
X5.1399Y-2.5633
X5.3368Y-3.8192
X5.3368Y-3.1499
X5.3368Y-2.4806
X5.5336Y-4.8822
X5.6517Y-2.6775
X5.6517Y-3.3468
X5.6517Y-4.016
X5.7305Y-4.9649
X5.8486Y-2.7601
X5.8486Y-3.4294
X5.8486Y-4.0987
X5.9273Y-4.8822
X6.0454Y-2.6775
X6.0454Y-3.3468
X6.0454Y-4.016
X6.3146Y-4.9396
X6.3604Y-2.8743
X6.3604Y-3.5436
X6.3604Y-4.2129
X6.49Y-5.0614
X6.5572Y-2.957
X6.5572Y-3.6263
X6.5572Y-4.2956
X6.6997Y-5.0214
X6.7541Y-2.8743
X6.7541Y-3.5436
X6.7541Y-4.2129
X7.0594Y-5.1405
X7.2056Y-5.2961
X7.419Y-5.3006
T6
X3.2463Y-3.0223
X3.3626Y-3.6814
X3.4788Y-4.3406
X3.6341Y-2.9539
X3.7503Y-3.6131
X3.8665Y-4.2722
X4.1628Y-2.7642
X4.1862Y-3.433
X4.2095Y-4.1019
X4.5563Y-2.7504
X4.5796Y-3.4193
X4.603Y-4.0882
X4.943Y-3.8723
X4.943Y-3.2031
X4.943Y-2.5338
X5.3368Y-3.8723
X5.3368Y-3.2031
X5.3368Y-2.5338
X5.5336Y-4.9353
X5.6517Y-2.7306
X5.6517Y-3.3999
X5.6517Y-4.0692
X5.9273Y-4.9353
X6.0454Y-2.7306
X6.0454Y-3.3999
X6.0454Y-4.0692
X6.3036Y-4.9916
X6.3604Y-2.9275
X6.3604Y-3.5968
X6.3604Y-4.266
X6.6887Y-5.0734
X6.7541Y-2.9275
X6.7541Y-3.5968
X6.7541Y-4.266
X7.0377Y-5.1891
X7.3974Y-5.3492
M30
