<?xml version="1.0" encoding="UTF-8" standalone="no"?>
<svg
   version="1.1"
   width="419.9890mm"
   height="297.0022mm"
   viewBox="0.0000 0.0000 419.9890 297.0022"
   id="svg1417"
   sodipodi:docname="case_blueprint-brd_plate_attempt.svg"
   inkscape:version="1.3.2 (091e20e, 2023-11-25, custom)"
   inkscape:export-filename="case_blueprint-brd_plate_attempt.svg"
   inkscape:export-xdpi="96"
   inkscape:export-ydpi="96"
   xmlns:inkscape="http://www.inkscape.org/namespaces/inkscape"
   xmlns:sodipodi="http://sodipodi.sourceforge.net/DTD/sodipodi-0.dtd"
   xmlns="http://www.w3.org/2000/svg"
   xmlns:svg="http://www.w3.org/2000/svg"
   xmlns:rdf="http://www.w3.org/1999/02/22-rdf-syntax-ns#"
   xmlns:cc="http://creativecommons.org/ns#"
   xmlns:dc="http://purl.org/dc/elements/1.1/">
  <defs
     id="defs1417" />
  <sodipodi:namedview
     id="namedview1417"
     pagecolor="#ffffff"
     bordercolor="#000000"
     borderopacity="0.25"
     inkscape:showpageshadow="2"
     inkscape:pageopacity="0.0"
     inkscape:pagecheckerboard="0"
     inkscape:deskcolor="#d1d1d1"
     inkscape:document-units="mm"
     inkscape:zoom="1.0343344"
     inkscape:cx="405.57483"
     inkscape:cy="274.0893"
     inkscape:window-width="1920"
     inkscape:window-height="1017"
     inkscape:window-x="1912"
     inkscape:window-y="-8"
     inkscape:window-maximized="1"
     inkscape:current-layer="svg1417" />
  <title
     id="title1">SVG Image created as case_blueprint-brd.svg date 2024/04/28 13:00:13 </title>
  <desc
     id="desc1">Image generated by PCBNEW </desc>
  <g
     style="fill:#000000; fill-opacity:1.0000;stroke:#000000; stroke-opacity:1.0000; stroke-linecap:round; stroke-linejoin:round;"
     id="g1"
     transform="translate(0 0) scale(1 1)" />
  <g
     style="fill:none;  stroke:#000000; stroke-width:0.1500; stroke-opacity:1;  stroke-linecap:round; stroke-linejoin:round;"
     id="g1260">
    <text
       x="300.9890"
       y="264.7522"
       textLength="0.4500"
       font-size="2.0000"
       lengthAdjust="spacingAndGlyphs"
       text-anchor="start"
       opacity="0"
       id="text1258" />
    <g
       class="stroked-text"
       id="g1259">
      <desc
         id="desc1258" />
    </g>
  </g>
  <g
     style="fill:none;  stroke:#000000; stroke-width:0.1500; stroke-opacity:1;  stroke-linecap:round; stroke-linejoin:round;"
     id="g1262">
    <text
       x="300.9890"
       y="261.7522"
       textLength="0.4500"
       font-size="2.0000"
       lengthAdjust="spacingAndGlyphs"
       text-anchor="start"
       opacity="0"
       id="text1260" />
    <g
       class="stroked-text"
       id="g1261">
      <desc
         id="desc1260" />
    </g>
  </g>
  <g
     style="fill:none;  stroke:#000000; stroke-width:0.1500; stroke-opacity:1;  stroke-linecap:round; stroke-linejoin:round;"
     id="g1264">
    <text
       x="300.9890"
       y="258.7522"
       textLength="0.4500"
       font-size="2.0000"
       lengthAdjust="spacingAndGlyphs"
       text-anchor="start"
       opacity="0"
       id="text1262" />
    <g
       class="stroked-text"
       id="g1263">
      <desc
         id="desc1262" />
    </g>
  </g>
  <g
     style="fill:none;  stroke:#000000; stroke-width:0.1500; stroke-opacity:1;  stroke-linecap:round; stroke-linejoin:round;"
     id="g1266">
    <text
       x="300.9890"
       y="255.7522"
       textLength="0.4500"
       font-size="2.0000"
       lengthAdjust="spacingAndGlyphs"
       text-anchor="start"
       opacity="0"
       id="text1264" />
    <g
       class="stroked-text"
       id="g1265">
      <desc
         id="desc1264" />
    </g>
  </g>
  <g
     style="fill:#FFFFFF; fill-opacity:1.0000; stroke:none;"
     id="g1269">
    <circle
       cx="203.4953"
       cy="114.5930"
       r="1.1000"
       id="circle1268" />
  </g>
  <g
     style="fill:#FFFFFF; fill-opacity:1.0000; stroke:none;"
     id="g1270">
    <circle
       cx="187.0515"
       cy="107.2717"
       r="1.1000"
       id="circle1269" />
  </g>
  <g
     style="fill:#FFFFFF; fill-opacity:1.0000; stroke:none;"
     id="g1271">
    <circle
       cx="106.0614"
       cy="64.4067"
       r="1.1000"
       id="circle1270" />
  </g>
  <g
     style="fill:#FFFFFF; fill-opacity:1.0000; stroke:none;"
     id="g1272">
    <circle
       cx="165.1628"
       cy="68.3974"
       r="1.1000"
       id="circle1271" />
  </g>
  <g
     style="fill:#FFFFFF; fill-opacity:1.0000; stroke:none;"
     id="g1273">
    <circle
       cx="108.3336"
       cy="82.9945"
       r="1.1000"
       id="circle1272" />
  </g>
  <g
     style="fill:#FFFFFF; fill-opacity:1.0000; stroke:none;"
     id="g1274">
    <circle
       cx="138.1628"
       cy="107.5974"
       r="1.1000"
       id="circle1273" />
  </g>
  <g
     style="fill:#FFFFFF; fill-opacity:1.0000; stroke:none;"
     id="g1275">
    <circle
       cx="183.4310"
       cy="122.3900"
       r="1.1000"
       id="circle1274" />
  </g>
  <g
     style="fill:#02FFEE; fill-opacity:0.4000; stroke:none;"
     id="g1276">
    <circle
       cx="203.4953"
       cy="114.5930"
       r="1.1500"
       id="circle1275" />
  </g>
  <g
     style="fill:#02FFEE; fill-opacity:0.4000; stroke:none;"
     id="g1277">
    <circle
       cx="187.0515"
       cy="107.2717"
       r="1.1500"
       id="circle1276" />
  </g>
  <g
     style="fill:#02FFEE; fill-opacity:0.4000; stroke:none;"
     id="g1278">
    <circle
       cx="106.0614"
       cy="64.4067"
       r="1.1500"
       id="circle1277" />
  </g>
  <g
     style="fill:#02FFEE; fill-opacity:0.4000; stroke:none;"
     id="g1279">
    <circle
       cx="165.1628"
       cy="68.3974"
       r="1.1500"
       id="circle1278" />
  </g>
  <g
     style="fill:#02FFEE; fill-opacity:0.4000; stroke:none;"
     id="g1280">
    <circle
       cx="108.3336"
       cy="82.9945"
       r="1.1500"
       id="circle1279" />
  </g>
  <g
     style="fill:#02FFEE; fill-opacity:0.4000; stroke:none;"
     id="g1281">
    <circle
       cx="138.1628"
       cy="107.5974"
       r="1.1500"
       id="circle1280" />
  </g>
  <g
     style="fill:#02FFEE; fill-opacity:0.4000; stroke:none;"
     id="g1282">
    <circle
       cx="183.4310"
       cy="122.3900"
       r="1.1500"
       id="circle1281" />
  </g>
  <g
     style="fill:#FFFFFF; fill-opacity:1.0000; stroke:none;"
     id="g1283">
    <circle
       cx="203.4953"
       cy="114.5930"
       r="1.1000"
       id="circle1282" />
  </g>
  <g
     style="fill:#FFFFFF; fill-opacity:1.0000; stroke:none;"
     id="g1284">
    <circle
       cx="187.0515"
       cy="107.2717"
       r="1.1000"
       id="circle1283" />
  </g>
  <g
     style="fill:#FFFFFF; fill-opacity:1.0000; stroke:none;"
     id="g1285">
    <circle
       cx="106.0614"
       cy="64.4067"
       r="1.1000"
       id="circle1284" />
  </g>
  <g
     style="fill:#FFFFFF; fill-opacity:1.0000; stroke:none;"
     id="g1286">
    <circle
       cx="165.1628"
       cy="68.3974"
       r="1.1000"
       id="circle1285" />
  </g>
  <g
     style="fill:#FFFFFF; fill-opacity:1.0000; stroke:none;"
     id="g1287">
    <circle
       cx="108.3336"
       cy="82.9945"
       r="1.1000"
       id="circle1286" />
  </g>
  <g
     style="fill:#FFFFFF; fill-opacity:1.0000; stroke:none;"
     id="g1288">
    <circle
       cx="138.1628"
       cy="107.5974"
       r="1.1000"
       id="circle1287" />
  </g>
  <g
     style="fill:#FFFFFF; fill-opacity:1.0000; stroke:none;"
     id="g1289">
    <circle
       cx="183.4310"
       cy="122.3900"
       r="1.1000"
       id="circle1288" />
  </g>
  <g
     style="fill:#FFFFFF; fill-opacity:1.0000; stroke:none;"
     id="g1290">
    <circle
       cx="203.4953"
       cy="114.5930"
       r="1.1000"
       id="circle1289" />
  </g>
  <g
     style="fill:#FFFFFF; fill-opacity:1.0000; stroke:none;"
     id="g1291">
    <circle
       cx="187.0515"
       cy="107.2717"
       r="1.1000"
       id="circle1290" />
  </g>
  <g
     style="fill:#FFFFFF; fill-opacity:1.0000; stroke:none;"
     id="g1292">
    <circle
       cx="106.0614"
       cy="64.4067"
       r="1.1000"
       id="circle1291" />
  </g>
  <g
     style="fill:#FFFFFF; fill-opacity:1.0000; stroke:none;"
     id="g1293">
    <circle
       cx="165.1628"
       cy="68.3974"
       r="1.1000"
       id="circle1292" />
  </g>
  <g
     style="fill:#FFFFFF; fill-opacity:1.0000; stroke:none;"
     id="g1294">
    <circle
       cx="108.3336"
       cy="82.9945"
       r="1.1000"
       id="circle1293" />
  </g>
  <g
     style="fill:#FFFFFF; fill-opacity:1.0000; stroke:none;"
     id="g1295">
    <circle
       cx="138.1628"
       cy="107.5974"
       r="1.1000"
       id="circle1294" />
  </g>
  <g
     style="fill:#FFFFFF; fill-opacity:1.0000; stroke:none;"
     id="g1296">
    <circle
       cx="183.4310"
       cy="122.3900"
       r="1.1000"
       id="circle1295" />
  </g>
  <g
     style="fill:#D864FF; fill-opacity:0.4000; stroke:none;"
     id="g1297">
    <circle
       cx="203.4953"
       cy="114.5930"
       r="1.1500"
       id="circle1296" />
  </g>
  <g
     style="fill:#D864FF; fill-opacity:0.4000; stroke:none;"
     id="g1298">
    <circle
       cx="187.0515"
       cy="107.2717"
       r="1.1500"
       id="circle1297" />
  </g>
  <g
     style="fill:#D864FF; fill-opacity:0.4000; stroke:none;"
     id="g1299">
    <circle
       cx="106.0614"
       cy="64.4067"
       r="1.1500"
       id="circle1298" />
  </g>
  <g
     style="fill:#D864FF; fill-opacity:0.4000; stroke:none;"
     id="g1300">
    <circle
       cx="165.1628"
       cy="68.3974"
       r="1.1500"
       id="circle1299" />
  </g>
  <g
     style="fill:#D864FF; fill-opacity:0.4000; stroke:none;"
     id="g1301">
    <circle
       cx="108.3336"
       cy="82.9945"
       r="1.1500"
       id="circle1300" />
  </g>
  <g
     style="fill:#D864FF; fill-opacity:0.4000; stroke:none;"
     id="g1302">
    <circle
       cx="138.1628"
       cy="107.5974"
       r="1.1500"
       id="circle1301" />
  </g>
  <g
     style="fill:#D864FF; fill-opacity:0.4000; stroke:none;"
     id="g1303">
    <circle
       cx="183.4310"
       cy="122.3900"
       r="1.1500"
       id="circle1302" />
  </g>
  <g
     style="fill:#FFFFFF; fill-opacity:1.0000; stroke:none;"
     id="g1304">
    <circle
       cx="203.4953"
       cy="114.5930"
       r="1.1000"
       id="circle1303" />
  </g>
  <g
     style="fill:#FFFFFF; fill-opacity:1.0000; stroke:none;"
     id="g1305">
    <circle
       cx="187.0515"
       cy="107.2717"
       r="1.1000"
       id="circle1304" />
  </g>
  <g
     style="fill:#FFFFFF; fill-opacity:1.0000; stroke:none;"
     id="g1306">
    <circle
       cx="106.0614"
       cy="64.4067"
       r="1.1000"
       id="circle1305" />
  </g>
  <g
     style="fill:#FFFFFF; fill-opacity:1.0000; stroke:none;"
     id="g1307">
    <circle
       cx="165.1628"
       cy="68.3974"
       r="1.1000"
       id="circle1306" />
  </g>
  <g
     style="fill:#FFFFFF; fill-opacity:1.0000; stroke:none;"
     id="g1308">
    <circle
       cx="108.3336"
       cy="82.9945"
       r="1.1000"
       id="circle1307" />
  </g>
  <g
     style="fill:#FFFFFF; fill-opacity:1.0000; stroke:none;"
     id="g1309">
    <circle
       cx="138.1628"
       cy="107.5974"
       r="1.1000"
       id="circle1308" />
  </g>
  <g
     style="fill:#FFFFFF; fill-opacity:1.0000; stroke:none;"
     id="g1310">
    <circle
       cx="183.4310"
       cy="122.3900"
       r="1.1000"
       id="circle1309" />
  </g>
  <g
     style="fill:none;  stroke:#D0D2CD; stroke-width:0.1500; stroke-opacity:1;  stroke-linecap:round; stroke-linejoin:round;"
     id="g1417">
    <path
       d="M82.3489 60.3629 L91.1193 110.1021 "
       id="path1310" />
    <path
       d="M102.5358 54.8741 L83.8901 58.1618 "
       id="path1311" />
    <path
       d="M109.2185 50.8844 L125.8291 50.3043 "
       id="path1312" />
    <path
       d="M107.3860 52.8495 L107.3871 52.8802 "
       id="path1313" />
    <path
       d="M148.6628 47.9974 L148.6628 46.7974 "
       id="path1314" />
    <path
       d="M146.7628 44.8974 L129.5628 44.8974 "
       id="path1315" />
    <path
       d="M127.6628 46.7974 L127.6628 48.4055 "
       id="path1316" />
    <path
       d="M166.6628 52.9782 L166.6628 51.7974 "
       id="path1317" />
    <path
       d="M150.5628 49.8974 L164.7628 49.8974 "
       id="path1318" />
    <path
       d="M144.5628 125.8974 L160.2926 125.8974 "
       id="path1319" />
    <path
       d="M142.6628 113.5964 L142.6628 123.9974 "
       id="path1320" />
    <path
       d="M160.6876 125.9389 L180.1409 130.0738 "
       id="path1321" />
    <path
       d="M180.5186 130.1966 L196.8196 137.4542 "
       id="path1322" />
    <path
       d="M199.3282 136.4913 L206.5260 120.3247 "
       id="path1323" />
    <path
       d="M102.8667 54.8452 L105.4873 54.8466 "
       id="path1324" />
    <path
       d="M168.5618 54.8782 L204.8131 54.8964 "
       id="path1325" />
    <path
       d="M206.7121 56.7971 L206.6902 119.5526 "
       id="path1326" />
    <path
       d="M140.7637 111.6964 L92.9895 111.6722 "
       id="path1327" />
    <path
       d="M91.1193 110.1021 A1.9000 1.9000 0.0 0 0 92.9895 111.6722"
       id="path1328" />
    <path
       d="M142.6628 113.5964 A1.9000 1.9000 0.0 0 0 140.7638 111.6964"
       id="path1329" />
    <path
       d="M142.6628 123.9974 A1.9000 1.9000 0.0 0 0 144.5628 125.8974"
       id="path1330" />
    <path
       d="M160.6876 125.9389 A1.9000 1.9000 0.0 0 0 160.2926 125.8974"
       id="path1331" />
    <path
       d="M180.5186 130.1966 A1.9000 1.9000 0.0 0 0 180.1408 130.0738"
       id="path1332" />
    <path
       d="M196.8196 137.4542 A1.9000 1.9000 0.0 0 0 199.3282 136.4913"
       id="path1333" />
    <path
       d="M206.5260 120.3247 A1.9000 1.9000 0.0 0 0 206.6902 119.5526"
       id="path1334" />
    <path
       d="M206.7121 56.7971 A1.9000 1.9000 0.0 0 0 204.8131 54.8964"
       id="path1335" />
    <path
       d="M166.6628 52.9782 A1.9000 1.9000 0.0 0 0 168.5618 54.8782"
       id="path1336" />
    <path
       d="M166.6628 51.7974 A1.9000 1.9000 0.0 0 0 164.7628 49.8974"
       id="path1337" />
    <path
       d="M148.6628 47.9974 A1.9000 1.9000 0.0 0 0 150.5628 49.8974"
       id="path1338" />
    <path
       d="M148.6628 46.7974 A1.9000 1.9000 0.0 0 0 146.7628 44.8974"
       id="path1339" />
    <path
       d="M129.5628 44.8974 A1.9000 1.9000 0.0 0 0 127.6628 46.7974"
       id="path1340" />
    <path
       d="M125.8291 50.3043 A1.9000 1.9000 0.0 0 0 127.6628 48.4055"
       id="path1341" />
    <path
       d="M109.2185 50.8844 A1.9000 1.9000 0.0 0 0 107.3860 52.8495"
       id="path1342" />
    <path
       d="M105.4873 54.8466 A1.9000 1.9000 0.0 0 0 107.3871 52.8802"
       id="path1343" />
    <path
       d="M102.8667 54.8452 A1.9000 1.9000 0.0 0 0 102.5358 54.8741"
       id="path1344" />
    <path
       d="M83.8901 58.1618 A1.9000 1.9000 0.0 0 0 82.3489 60.3629"
       id="path1345" />
    <path
       d="M94.3422 108.0802 L108.0802 105.6578 "
       id="path1346" />
    <path
       d="M108.0802 105.6578 L105.6578 91.9198 "
       id="path1347" />
    <path
       d="M105.6578 91.9198 L91.9198 94.3422 "
       id="path1348" />
    <path
       d="M91.9198 94.3422 L94.3422 108.0802 "
       id="path1349" />
    <path
       d="M91.3901 91.3385 L105.1282 88.9161 "
       id="path1350" />
    <path
       d="M105.1282 88.9161 L102.7058 75.1780 "
       id="path1351" />
    <path
       d="M102.7058 75.1780 L88.9678 77.6004 "
       id="path1352" />
    <path
       d="M88.9678 77.6004 L91.3901 91.3385 "
       id="path1353" />
    <path
       d="M88.4381 74.5968 L102.1762 72.1744 "
       id="path1354" />
    <path
       d="M102.1762 72.1744 L99.7538 58.4363 "
       id="path1355" />
    <path
       d="M99.7538 58.4363 L86.0157 60.8587 "
       id="path1356" />
    <path
       d="M86.0157 60.8587 L88.4381 74.5968 "
       id="path1357" />
    <path
       d="M112.6215 101.7716 L126.5630 101.2847 "
       id="path1358" />
    <path
       d="M126.5630 101.2847 L126.0762 87.3432 "
       id="path1359" />
    <path
       d="M126.0762 87.3432 L112.1347 87.8301 "
       id="path1360" />
    <path
       d="M112.1347 87.8301 L112.6215 101.7716 "
       id="path1361" />
    <path
       d="M112.0282 84.7820 L125.9697 84.2951 "
       id="path1362" />
    <path
       d="M125.9697 84.2951 L125.4829 70.3536 "
       id="path1363" />
    <path
       d="M125.4829 70.3536 L111.5414 70.8404 "
       id="path1364" />
    <path
       d="M111.5414 70.8404 L112.0282 84.7820 "
       id="path1365" />
    <path
       d="M111.4349 67.7923 L125.3765 67.3055 "
       id="path1366" />
    <path
       d="M125.3765 67.3055 L124.8896 53.3640 "
       id="path1367" />
    <path
       d="M124.8896 53.3640 L110.9481 53.8508 "
       id="path1368" />
    <path
       d="M110.9481 53.8508 L111.4349 67.7923 "
       id="path1369" />
    <path
       d="M131.1878 95.8724 L145.1378 95.8724 "
       id="path1370" />
    <path
       d="M145.1378 95.8724 L145.1378 81.9224 "
       id="path1371" />
    <path
       d="M145.1378 81.9224 L131.1878 81.9224 "
       id="path1372" />
    <path
       d="M131.1878 81.9224 L131.1878 95.8724 "
       id="path1373" />
    <path
       d="M131.1878 78.8724 L145.1378 78.8724 "
       id="path1374" />
    <path
       d="M145.1378 78.8724 L145.1378 64.9224 "
       id="path1375" />
    <path
       d="M145.1378 64.9224 L131.1878 64.9224 "
       id="path1376" />
    <path
       d="M131.1878 64.9224 L131.1878 78.8724 "
       id="path1377" />
    <path
       d="M131.1878 61.8724 L145.1378 61.8724 "
       id="path1378" />
    <path
       d="M145.1378 61.8724 L145.1378 47.9224 "
       id="path1379" />
    <path
       d="M145.1378 47.9224 L131.1878 47.9224 "
       id="path1380" />
    <path
       d="M131.1878 47.9224 L131.1878 61.8724 "
       id="path1381" />
    <path
       d="M149.1878 100.8724 L163.1378 100.8724 "
       id="path1382" />
    <path
       d="M163.1378 100.8724 L163.1378 86.9224 "
       id="path1383" />
    <path
       d="M163.1378 86.9224 L149.1878 86.9224 "
       id="path1384" />
    <path
       d="M149.1878 86.9224 L149.1878 100.8724 "
       id="path1385" />
    <path
       d="M149.1878 83.8724 L163.1378 83.8724 "
       id="path1386" />
    <path
       d="M163.1378 83.8724 L163.1378 69.9224 "
       id="path1387" />
    <path
       d="M163.1378 69.9224 L149.1878 69.9224 "
       id="path1388" />
    <path
       d="M149.1878 69.9224 L149.1878 83.8724 "
       id="path1389" />
    <path
       d="M149.1878 66.8724 L163.1378 66.8724 "
       id="path1390" />
    <path
       d="M163.1378 66.8724 L163.1378 52.9224 "
       id="path1391" />
    <path
       d="M163.1378 52.9224 L149.1878 52.9224 "
       id="path1392" />
    <path
       d="M149.1878 52.9224 L149.1878 66.8724 "
       id="path1393" />
    <path
       d="M167.1878 105.8724 L181.1378 105.8724 "
       id="path1394" />
    <path
       d="M181.1378 105.8724 L181.1378 91.9224 "
       id="path1395" />
    <path
       d="M181.1378 91.9224 L167.1878 91.9224 "
       id="path1396" />
    <path
       d="M167.1878 91.9224 L167.1878 105.8724 "
       id="path1397" />
    <path
       d="M167.1878 88.8724 L181.1378 88.8724 "
       id="path1398" />
    <path
       d="M181.1378 88.8724 L181.1378 74.9224 "
       id="path1399" />
    <path
       d="M181.1378 74.9224 L167.1878 74.9224 "
       id="path1400" />
    <path
       d="M167.1878 74.9224 L167.1878 88.8724 "
       id="path1401" />
    <path
       d="M167.1878 71.8724 L181.1378 71.8724 "
       id="path1402" />
    <path
       d="M181.1378 71.8724 L181.1378 57.9224 "
       id="path1403" />
    <path
       d="M181.1378 57.9224 L167.1878 57.9224 "
       id="path1404" />
    <path
       d="M167.1878 57.9224 L167.1878 71.8724 "
       id="path1405" />
    <path
       d="M146.1878 122.8724 L160.1378 122.8724 "
       id="path1406" />
    <path
       d="M160.1378 122.8724 L160.1378 108.9224 "
       id="path1407" />
    <path
       d="M160.1378 108.9224 L146.1878 108.9224 "
       id="path1408" />
    <path
       d="M146.1878 108.9224 L146.1878 122.8724 "
       id="path1409" />
    <path
       d="M165.4086 123.8498 L179.0538 126.7502 "
       id="path1410" />
    <path
       d="M179.0538 126.7502 L181.9542 113.1050 "
       id="path1411" />
    <path
       d="M181.9542 113.1050 L168.3090 110.2046 "
       id="path1412" />
    <path
       d="M168.3090 110.2046 L165.4086 123.8498 "
       id="path1413" />
    <path
       d="M183.8215 128.3558 L196.5655 134.0298 "
       id="path1414" />
    <path
       d="M196.5655 134.0298 L202.2395 121.2859 "
       id="path1415" />
    <path
       d="M202.2395 121.2859 L189.4955 115.6119 "
       id="path1416" />
    <path
       d="M189.4955 115.6119 L183.8215 128.3558 "
       id="path1417" />
  </g>
  <metadata
     id="metadata1417">
    <rdf:RDF>
      <cc:Work
         rdf:about="">
        <dc:title>SVG Image created as case_blueprint-brd.svg date 2024/04/28 13:00:13 </dc:title>
      </cc:Work>
    </rdf:RDF>
  </metadata>
</svg>
