  0
SECTION
  2
HEADER
  9
$ACADVER
  1
AC1014
  9
$HANDSEED
  5
FFFF
  9
$INSUNITS
 70
     4
  9
$MEASUREMENT
 70
     1
  0
ENDSEC
  0
SECTION
  2
TABLES
  0
TABLE
  2
VPORT
  5
8
330
0
100
AcDbSymbolTable
 70
     4
  0
VPORT
  5
2E
330
8
100
AcDbSymbolTableRecord
100
AcDbViewportTableRecord
  2
*ACTIVE
 70
     0
 10
0.0
 20
0.0
 11
1.0
 21
1.0
 12
210.0
 22
148.5
 13
0.0
 23
0.0
 14
10.0
 24
10.0
 15
10.0
 25
10.0
 16
0.0
 26
0.0
 36
1.0
 17
0.0
 27
0.0
 37
0.0
 40
341.0
 41
1.24
 42
50.0
 43
0.0
 44
0.0
 50
0.0
 51
0.0
 71
     0
 72
   100
 73
     1
 74
     3
 75
     0
 76
     0
 77
     0
 78
     0
  0
ENDTAB
  0
TABLE
  2
LTYPE
  5
5
330
0
100
AcDbSymbolTable
 70
     1
  0
LTYPE
  5
14
330
5
100
AcDbSymbolTableRecord
100
AcDbLinetypeTableRecord
  2
BYBLOCK
 70
     0
  3

 72
    65
 73
     0
 40
0.0
  0
LTYPE
  5
15
330
5
100
AcDbSymbolTableRecord
100
AcDbLinetypeTableRecord
  2
BYLAYER
 70
     0
  3

 72
    65
 73
     0
 40
0.0
  0
LTYPE
  5
16
330
5
100
AcDbSymbolTableRecord
100
AcDbLinetypeTableRecord
  2
CONTINUOUS
 70
     0
  3
Solid line
 72
    65
 73
     0
 40
0.0
  0
ENDTAB
  0
TABLE
  2
LAYER
  5
2
100
AcDbSymbolTable
 70
1
  0
LAYER
  5
50
100
AcDbSymbolTableRecord
100
AcDbLayerTableRecord
  2
0
 70
0
  6
CONTINUOUS
  0
ENDTAB
  0
TABLE
  2
STYLE
  5
3
330
0
100
AcDbSymbolTable
 70
     1
  0
STYLE
  5
11
330
3
100
AcDbSymbolTableRecord
100
AcDbTextStyleTableRecord
  2
STANDARD
 70
     0
 40
0.0
 41
1.0
 50
0.0
 71
     0
 42
2.5
  3
txt
  4

  0
ENDTAB
  0
TABLE
  2
VIEW
  5
6
330
0
100
AcDbSymbolTable
 70
     0
  0
ENDTAB
  0
TABLE
  2
UCS
  5
7
330
0
100
AcDbSymbolTable
 70
     0
  0
ENDTAB
  0
TABLE
  2
APPID
  5
9
330
0
100
AcDbSymbolTable
 70
     2
  0
APPID
  5
12
330
9
100
AcDbSymbolTableRecord
100
AcDbRegAppTableRecord
  2
ACAD
 70
     0
  0
ENDTAB
  0
TABLE
  2
DIMSTYLE
  5
A
330
0
100
AcDbSymbolTable
 70
     1
  0
DIMSTYLE
105
27
330
A
100
AcDbSymbolTableRecord
100
AcDbDimStyleTableRecord
  2
ISO-25
 70
     0
  3

  4

  5

  6

  7

 40
1.0
 41
2.5
 42
0.625
 43
3.75
 44
1.25
 45
0.0
 46
0.0
 47
0.0
 48
0.0
140
2.5
141
2.5
142
0.0
143
0.03937007874016
144
1.0
145
0.0
146
1.0
147
0.625
 71
     0
 72
     0
 73
     0
 74
     0
 75
     0
 76
     0
 77
     1
 78
     8
170
     0
171
     3
172
     1
173
     0
174
     0
175
     0
176
     0
177
     0
178
     0
270
     2
271
     2
272
     2
273
     2
274
     3
340
11
275
     0
280
     0
281
     0
282
     0
283
     0
284
     8
285
     0
286
     0
287
     3
288
     0
  0
ENDTAB
  0
TABLE
  2
BLOCK_RECORD
  5
1
330
0
100
AcDbSymbolTable
 70
     1
  0
BLOCK_RECORD
  5
1F
330
1
100
AcDbSymbolTableRecord
100
AcDbBlockTableRecord
  2
*MODEL_SPACE
  0
BLOCK_RECORD
  5
1B
330
1
100
AcDbSymbolTableRecord
100
AcDbBlockTableRecord
  2
*PAPER_SPACE
  0
ENDTAB
  0
ENDSEC
  0
SECTION
  2
BLOCKS
  0
BLOCK
  5
20
330
1F
100
AcDbEntity
  8
0
100
AcDbBlockBegin
  2
*MODEL_SPACE
 70
     0
 10
0.0
 20
0.0
 30
0.0
  3
*MODEL_SPACE
  1

  0
ENDBLK
  5
21
330
1F
100
AcDbEntity
  8
0
100
AcDbBlockEnd
  0
BLOCK
  5
1C
330
1B
100
AcDbEntity
 67
     1
  8
0
100
AcDbBlockBegin
  2
*PAPER_SPACE
  1

  0
ENDBLK
  5
1D
330
1B
100
AcDbEntity
 67
     1
  8
0
100
AcDbBlockEnd
  0
ENDSEC
  0
SECTION
  2
ENTITIES
  0
SPLINE
  5
100
100
AcDbEntity
  8
0
 62
7
100
AcDbSpline
 70
8
 71
3
 72
8
 73
4
 74
0
 40
0
 40
0
 40
0
 40
0
 40
1
 40
1
 40
1
 40
1
 10
106.061400
 20
235.045500
 30
0.0
 10
105.070468
 20
235.045500
 30
0.0
 10
104.177109
 20
234.448577
 30
0.0
 10
103.797895
 20
233.533074
 30
0.0
  0
SPLINE
  5
101
100
AcDbEntity
  8
0
 62
7
100
AcDbSpline
 70
8
 71
3
 72
8
 73
4
 74
0
 40
0
 40
0
 40
0
 40
0
 40
1
 40
1
 40
1
 40
1
 10
103.797895
 20
233.533074
 30
0.0
 10
103.418682
 20
232.617572
 30
0.0
 10
103.628293
 20
231.563783
 30
0.0
 10
104.328988
 20
230.863088
 30
0.0
  0
SPLINE
  5
102
100
AcDbEntity
  8
0
 62
7
100
AcDbSpline
 70
8
 71
3
 72
8
 73
4
 74
0
 40
0
 40
0
 40
0
 40
0
 40
1
 40
1
 40
1
 40
1
 10
104.328988
 20
230.863088
 30
0.0
 10
105.029683
 20
230.162393
 30
0.0
 10
106.083472
 20
229.952782
 30
0.0
 10
106.998974
 20
230.331995
 30
0.0
  0
SPLINE
  5
103
100
AcDbEntity
  8
0
 62
7
100
AcDbSpline
 70
8
 71
3
 72
8
 73
4
 74
0
 40
0
 40
0
 40
0
 40
0
 40
1
 40
1
 40
1
 40
1
 10
106.998974
 20
230.331995
 30
0.0
 10
107.914477
 20
230.711209
 30
0.0
 10
108.511400
 20
231.604568
 30
0.0
 10
108.511400
 20
232.595500
 30
0.0
  0
SPLINE
  5
104
100
AcDbEntity
  8
0
 62
7
100
AcDbSpline
 70
8
 71
3
 72
8
 73
4
 74
0
 40
0
 40
0
 40
0
 40
0
 40
1
 40
1
 40
1
 40
1
 10
108.511400
 20
232.595500
 30
0.0
 10
108.511400
 20
233.948598
 30
0.0
 10
107.414498
 20
235.045500
 30
0.0
 10
106.061400
 20
235.045500
 30
0.0
  0
SPLINE
  5
105
100
AcDbEntity
  8
0
 62
7
100
AcDbSpline
 70
8
 71
3
 72
8
 73
4
 74
0
 40
0
 40
0
 40
0
 40
0
 40
1
 40
1
 40
1
 40
1
 10
165.162800
 20
231.054800
 30
0.0
 10
164.171868
 20
231.054800
 30
0.0
 10
163.278509
 20
230.457877
 30
0.0
 10
162.899295
 20
229.542374
 30
0.0
  0
SPLINE
  5
106
100
AcDbEntity
  8
0
 62
7
100
AcDbSpline
 70
8
 71
3
 72
8
 73
4
 74
0
 40
0
 40
0
 40
0
 40
0
 40
1
 40
1
 40
1
 40
1
 10
162.899295
 20
229.542374
 30
0.0
 10
162.520082
 20
228.626872
 30
0.0
 10
162.729693
 20
227.573083
 30
0.0
 10
163.430388
 20
226.872388
 30
0.0
  0
SPLINE
  5
107
100
AcDbEntity
  8
0
 62
7
100
AcDbSpline
 70
8
 71
3
 72
8
 73
4
 74
0
 40
0
 40
0
 40
0
 40
0
 40
1
 40
1
 40
1
 40
1
 10
163.430388
 20
226.872388
 30
0.0
 10
164.131083
 20
226.171693
 30
0.0
 10
165.184872
 20
225.962082
 30
0.0
 10
166.100374
 20
226.341295
 30
0.0
  0
SPLINE
  5
108
100
AcDbEntity
  8
0
 62
7
100
AcDbSpline
 70
8
 71
3
 72
8
 73
4
 74
0
 40
0
 40
0
 40
0
 40
0
 40
1
 40
1
 40
1
 40
1
 10
166.100374
 20
226.341295
 30
0.0
 10
167.015877
 20
226.720509
 30
0.0
 10
167.612800
 20
227.613868
 30
0.0
 10
167.612800
 20
228.604800
 30
0.0
  0
SPLINE
  5
109
100
AcDbEntity
  8
0
 62
7
100
AcDbSpline
 70
8
 71
3
 72
8
 73
4
 74
0
 40
0
 40
0
 40
0
 40
0
 40
1
 40
1
 40
1
 40
1
 10
167.612800
 20
228.604800
 30
0.0
 10
167.612800
 20
229.254580
 30
0.0
 10
167.354676
 20
229.877747
 30
0.0
 10
166.895212
 20
230.337212
 30
0.0
  0
SPLINE
  5
10a
100
AcDbEntity
  8
0
 62
7
100
AcDbSpline
 70
8
 71
3
 72
8
 73
4
 74
0
 40
0
 40
0
 40
0
 40
0
 40
1
 40
1
 40
1
 40
1
 10
166.895212
 20
230.337212
 30
0.0
 10
166.435747
 20
230.796676
 30
0.0
 10
165.812580
 20
231.054800
 30
0.0
 10
165.162800
 20
231.054800
 30
0.0
  0
LWPOLYLINE
  5
10b
100
AcDbEntity
  8
0
 62
7
100
AcDbPolyline
 90
1
 70
1
 10
106.061400
 20
235.045500
 30
0.0
  0
SPLINE
  5
10c
100
AcDbEntity
  8
0
 62
7
100
AcDbSpline
 70
8
 71
3
 72
8
 73
4
 74
0
 40
0
 40
0
 40
0
 40
0
 40
1
 40
1
 40
1
 40
1
 10
119.793800
 20
192.152500
 30
0.0
 10
118.802868
 20
192.152500
 30
0.0
 10
117.909509
 20
191.555577
 30
0.0
 10
117.530295
 20
190.640074
 30
0.0
  0
SPLINE
  5
10d
100
AcDbEntity
  8
0
 62
7
100
AcDbSpline
 70
8
 71
3
 72
8
 73
4
 74
0
 40
0
 40
0
 40
0
 40
0
 40
1
 40
1
 40
1
 40
1
 10
117.530295
 20
190.640074
 30
0.0
 10
117.151082
 20
189.724572
 30
0.0
 10
117.360693
 20
188.670783
 30
0.0
 10
118.061388
 20
187.970088
 30
0.0
  0
SPLINE
  5
10e
100
AcDbEntity
  8
0
 62
7
100
AcDbSpline
 70
8
 71
3
 72
8
 73
4
 74
0
 40
0
 40
0
 40
0
 40
0
 40
1
 40
1
 40
1
 40
1
 10
118.061388
 20
187.970088
 30
0.0
 10
118.762083
 20
187.269393
 30
0.0
 10
119.815872
 20
187.059782
 30
0.0
 10
120.731374
 20
187.438995
 30
0.0
  0
SPLINE
  5
10f
100
AcDbEntity
  8
0
 62
7
100
AcDbSpline
 70
8
 71
3
 72
8
 73
4
 74
0
 40
0
 40
0
 40
0
 40
0
 40
1
 40
1
 40
1
 40
1
 10
120.731374
 20
187.438995
 30
0.0
 10
121.646877
 20
187.818209
 30
0.0
 10
122.243800
 20
188.711568
 30
0.0
 10
122.243800
 20
189.702500
 30
0.0
  0
SPLINE
  5
110
100
AcDbEntity
  8
0
 62
7
100
AcDbSpline
 70
8
 71
3
 72
8
 73
4
 74
0
 40
0
 40
0
 40
0
 40
0
 40
1
 40
1
 40
1
 40
1
 10
122.243800
 20
189.702500
 30
0.0
 10
122.243800
 20
190.352280
 30
0.0
 10
121.985676
 20
190.975447
 30
0.0
 10
121.526212
 20
191.434912
 30
0.0
  0
SPLINE
  5
111
100
AcDbEntity
  8
0
 62
7
100
AcDbSpline
 70
8
 71
3
 72
8
 73
4
 74
0
 40
0
 40
0
 40
0
 40
0
 40
1
 40
1
 40
1
 40
1
 10
121.526212
 20
191.434912
 30
0.0
 10
121.066747
 20
191.894376
 30
0.0
 10
120.443580
 20
192.152500
 30
0.0
 10
119.793800
 20
192.152500
 30
0.0
  0
LWPOLYLINE
  5
112
100
AcDbEntity
  8
0
 62
7
100
AcDbPolyline
 90
1
 70
1
 10
165.162800
 20
231.054800
 30
0.0
  0
SPLINE
  5
113
100
AcDbEntity
  8
0
 62
7
100
AcDbSpline
 70
8
 71
3
 72
8
 73
4
 74
0
 40
0
 40
0
 40
0
 40
0
 40
1
 40
1
 40
1
 40
1
 10
156.162800
 20
194.504800
 30
0.0
 10
155.171868
 20
194.504800
 30
0.0
 10
154.278509
 20
193.907877
 30
0.0
 10
153.899295
 20
192.992374
 30
0.0
  0
SPLINE
  5
114
100
AcDbEntity
  8
0
 62
7
100
AcDbSpline
 70
8
 71
3
 72
8
 73
4
 74
0
 40
0
 40
0
 40
0
 40
0
 40
1
 40
1
 40
1
 40
1
 10
153.899295
 20
192.992374
 30
0.0
 10
153.520082
 20
192.076872
 30
0.0
 10
153.729693
 20
191.023083
 30
0.0
 10
154.430388
 20
190.322388
 30
0.0
  0
SPLINE
  5
115
100
AcDbEntity
  8
0
 62
7
100
AcDbSpline
 70
8
 71
3
 72
8
 73
4
 74
0
 40
0
 40
0
 40
0
 40
0
 40
1
 40
1
 40
1
 40
1
 10
154.430388
 20
190.322388
 30
0.0
 10
155.131083
 20
189.621693
 30
0.0
 10
156.184872
 20
189.412082
 30
0.0
 10
157.100374
 20
189.791295
 30
0.0
  0
SPLINE
  5
116
100
AcDbEntity
  8
0
 62
7
100
AcDbSpline
 70
8
 71
3
 72
8
 73
4
 74
0
 40
0
 40
0
 40
0
 40
0
 40
1
 40
1
 40
1
 40
1
 10
157.100374
 20
189.791295
 30
0.0
 10
158.015877
 20
190.170509
 30
0.0
 10
158.612800
 20
191.063868
 30
0.0
 10
158.612800
 20
192.054800
 30
0.0
  0
SPLINE
  5
117
100
AcDbEntity
  8
0
 62
7
100
AcDbSpline
 70
8
 71
3
 72
8
 73
4
 74
0
 40
0
 40
0
 40
0
 40
0
 40
1
 40
1
 40
1
 40
1
 10
158.612800
 20
192.054800
 30
0.0
 10
158.612800
 20
192.704580
 30
0.0
 10
158.354676
 20
193.327747
 30
0.0
 10
157.895212
 20
193.787212
 30
0.0
  0
SPLINE
  5
118
100
AcDbEntity
  8
0
 62
7
100
AcDbSpline
 70
8
 71
3
 72
8
 73
4
 74
0
 40
0
 40
0
 40
0
 40
0
 40
1
 40
1
 40
1
 40
1
 10
157.895212
 20
193.787212
 30
0.0
 10
157.435747
 20
194.246676
 30
0.0
 10
156.812580
 20
194.504800
 30
0.0
 10
156.162800
 20
194.504800
 30
0.0
  0
LWPOLYLINE
  5
119
100
AcDbEntity
  8
0
 62
7
100
AcDbPolyline
 90
1
 70
1
 10
119.793800
 20
192.152500
 30
0.0
  0
SPLINE
  5
11a
100
AcDbEntity
  8
0
 62
7
100
AcDbSpline
 70
8
 71
3
 72
8
 73
4
 74
0
 40
0
 40
0
 40
0
 40
0
 40
1
 40
1
 40
1
 40
1
 10
183.261100
 20
178.427400
 30
0.0
 10
182.270168
 20
178.427400
 30
0.0
 10
181.376809
 20
177.830477
 30
0.0
 10
180.997595
 20
176.914974
 30
0.0
  0
SPLINE
  5
11b
100
AcDbEntity
  8
0
 62
7
100
AcDbSpline
 70
8
 71
3
 72
8
 73
4
 74
0
 40
0
 40
0
 40
0
 40
0
 40
1
 40
1
 40
1
 40
1
 10
180.997595
 20
176.914974
 30
0.0
 10
180.618382
 20
175.999472
 30
0.0
 10
180.827993
 20
174.945683
 30
0.0
 10
181.528688
 20
174.244988
 30
0.0
  0
SPLINE
  5
11c
100
AcDbEntity
  8
0
 62
7
100
AcDbSpline
 70
8
 71
3
 72
8
 73
4
 74
0
 40
0
 40
0
 40
0
 40
0
 40
1
 40
1
 40
1
 40
1
 10
181.528688
 20
174.244988
 30
0.0
 10
182.229383
 20
173.544293
 30
0.0
 10
183.283172
 20
173.334682
 30
0.0
 10
184.198674
 20
173.713895
 30
0.0
  0
SPLINE
  5
11d
100
AcDbEntity
  8
0
 62
7
100
AcDbSpline
 70
8
 71
3
 72
8
 73
4
 74
0
 40
0
 40
0
 40
0
 40
0
 40
1
 40
1
 40
1
 40
1
 10
184.198674
 20
173.713895
 30
0.0
 10
185.114177
 20
174.093109
 30
0.0
 10
185.711100
 20
174.986468
 30
0.0
 10
185.711100
 20
175.977400
 30
0.0
  0
SPLINE
  5
11e
100
AcDbEntity
  8
0
 62
7
100
AcDbSpline
 70
8
 71
3
 72
8
 73
4
 74
0
 40
0
 40
0
 40
0
 40
0
 40
1
 40
1
 40
1
 40
1
 10
185.711100
 20
175.977400
 30
0.0
 10
185.711100
 20
176.627180
 30
0.0
 10
185.452976
 20
177.250347
 30
0.0
 10
184.993512
 20
177.709812
 30
0.0
  0
SPLINE
  5
11f
100
AcDbEntity
  8
0
 62
7
100
AcDbSpline
 70
8
 71
3
 72
8
 73
4
 74
0
 40
0
 40
0
 40
0
 40
0
 40
1
 40
1
 40
1
 40
1
 10
184.993512
 20
177.709812
 30
0.0
 10
184.534047
 20
178.169276
 30
0.0
 10
183.910880
 20
178.427400
 30
0.0
 10
183.261100
 20
178.427400
 30
0.0
  0
LWPOLYLINE
  5
120
100
AcDbEntity
  8
0
 62
7
100
AcDbPolyline
 90
1
 70
1
 10
156.162800
 20
194.504800
 30
0.0
  0
LWPOLYLINE
  5
121
100
AcDbEntity
  8
0
 62
7
100
AcDbPolyline
 90
1
 70
1
 10
183.261100
 20
178.427400
 30
0.0
  0
LWPOLYLINE
  5
122
100
AcDbEntity
  8
0
 62
7
100
AcDbPolyline
 90
2
 70
0
 10
82.348900
 20
236.639300
 30
0.0
 10
91.119300
 20
186.900100
 30
0.0
  0
LWPOLYLINE
  5
123
100
AcDbEntity
  8
0
 62
7
100
AcDbPolyline
 90
2
 70
0
 10
102.535800
 20
242.128100
 30
0.0
 10
83.890100
 20
238.840400
 30
0.0
  0
LWPOLYLINE
  5
124
100
AcDbEntity
  8
0
 62
7
100
AcDbPolyline
 90
2
 70
0
 10
109.218500
 20
246.117800
 30
0.0
 10
125.829100
 20
246.697900
 30
0.0
  0
LWPOLYLINE
  5
125
100
AcDbEntity
  8
0
 62
7
100
AcDbPolyline
 90
2
 70
0
 10
107.386000
 20
244.152700
 30
0.0
 10
107.387100
 20
244.122000
 30
0.0
  0
LWPOLYLINE
  5
126
100
AcDbEntity
  8
0
 62
7
100
AcDbPolyline
 90
2
 70
0
 10
148.662800
 20
249.004800
 30
0.0
 10
148.662800
 20
250.204800
 30
0.0
  0
LWPOLYLINE
  5
127
100
AcDbEntity
  8
0
 62
7
100
AcDbPolyline
 90
2
 70
0
 10
146.762800
 20
252.104800
 30
0.0
 10
129.562800
 20
252.104800
 30
0.0
  0
LWPOLYLINE
  5
128
100
AcDbEntity
  8
0
 62
7
100
AcDbPolyline
 90
2
 70
0
 10
127.662800
 20
250.204800
 30
0.0
 10
127.662800
 20
248.596700
 30
0.0
  0
LWPOLYLINE
  5
129
100
AcDbEntity
  8
0
 62
7
100
AcDbPolyline
 90
2
 70
0
 10
166.662800
 20
244.024000
 30
0.0
 10
166.662800
 20
245.204800
 30
0.0
  0
LWPOLYLINE
  5
12a
100
AcDbEntity
  8
0
 62
7
100
AcDbPolyline
 90
2
 70
0
 10
150.562800
 20
247.104800
 30
0.0
 10
164.762800
 20
247.104800
 30
0.0
  0
LWPOLYLINE
  5
12b
100
AcDbEntity
  8
0
 62
7
100
AcDbPolyline
 90
2
 70
0
 10
144.562800
 20
171.104800
 30
0.0
 10
160.292600
 20
171.104800
 30
0.0
  0
LWPOLYLINE
  5
12c
100
AcDbEntity
  8
0
 62
7
100
AcDbPolyline
 90
2
 70
0
 10
142.662800
 20
183.405800
 30
0.0
 10
142.662800
 20
173.004800
 30
0.0
  0
LWPOLYLINE
  5
12d
100
AcDbEntity
  8
0
 62
7
100
AcDbPolyline
 90
2
 70
0
 10
160.687600
 20
171.063300
 30
0.0
 10
180.140900
 20
166.928400
 30
0.0
  0
LWPOLYLINE
  5
12e
100
AcDbEntity
  8
0
 62
7
100
AcDbPolyline
 90
2
 70
0
 10
180.518600
 20
166.805600
 30
0.0
 10
196.819600
 20
159.548000
 30
0.0
  0
LWPOLYLINE
  5
12f
100
AcDbEntity
  8
0
 62
7
100
AcDbPolyline
 90
2
 70
0
 10
199.328200
 20
160.510900
 30
0.0
 10
206.526000
 20
176.677500
 30
0.0
  0
LWPOLYLINE
  5
130
100
AcDbEntity
  8
0
 62
7
100
AcDbPolyline
 90
2
 70
0
 10
102.866700
 20
242.157000
 30
0.0
 10
105.487300
 20
242.155600
 30
0.0
  0
LWPOLYLINE
  5
131
100
AcDbEntity
  8
0
 62
7
100
AcDbPolyline
 90
2
 70
0
 10
168.561800
 20
242.124000
 30
0.0
 10
204.813100
 20
242.105800
 30
0.0
  0
LWPOLYLINE
  5
132
100
AcDbEntity
  8
0
 62
7
100
AcDbPolyline
 90
2
 70
0
 10
206.712100
 20
240.205100
 30
0.0
 10
206.690200
 20
177.449600
 30
0.0
  0
SPLINE
  5
133
100
AcDbEntity
  8
0
 62
7
100
AcDbSpline
 70
8
 71
3
 72
8
 73
4
 74
0
 40
0
 40
0
 40
0
 40
0
 40
1
 40
1
 40
1
 40
1
 10
91.119300
 20
186.900100
 30
0.0
 10
91.279339
 20
185.992385
 30
0.0
 10
92.067785
 20
185.330456
 30
0.0
 10
92.989500
 20
185.330000
 30
0.0
  0
SPLINE
  5
134
100
AcDbEntity
  8
0
 62
7
100
AcDbSpline
 70
8
 71
3
 72
8
 73
4
 74
0
 40
0
 40
0
 40
0
 40
0
 40
1
 40
1
 40
1
 40
1
 10
142.662800
 20
183.405800
 30
0.0
 10
142.662800
 20
184.454751
 30
0.0
 10
141.812750
 20
185.305248
 30
0.0
 10
140.763800
 20
185.305800
 30
0.0
  0
SPLINE
  5
135
100
AcDbEntity
  8
0
 62
7
100
AcDbSpline
 70
8
 71
3
 72
8
 73
4
 74
0
 40
0
 40
0
 40
0
 40
0
 40
1
 40
1
 40
1
 40
1
 10
142.662800
 20
173.004800
 30
0.0
 10
142.662800
 20
172.500889
 30
0.0
 10
142.862978
 20
172.017616
 30
0.0
 10
143.219297
 20
171.661297
 30
0.0
  0
SPLINE
  5
136
100
AcDbEntity
  8
0
 62
7
100
AcDbSpline
 70
8
 71
3
 72
8
 73
4
 74
0
 40
0
 40
0
 40
0
 40
0
 40
1
 40
1
 40
1
 40
1
 10
143.219297
 20
171.661297
 30
0.0
 10
143.575616
 20
171.304978
 30
0.0
 10
144.058889
 20
171.104800
 30
0.0
 10
144.562800
 20
171.104800
 30
0.0
  0
SPLINE
  5
137
100
AcDbEntity
  8
0
 62
7
100
AcDbSpline
 70
8
 71
3
 72
8
 73
4
 74
0
 40
0
 40
0
 40
0
 40
0
 40
1
 40
1
 40
1
 40
1
 10
160.687600
 20
171.063300
 30
0.0
 10
160.557745
 20
171.090895
 30
0.0
 10
160.425355
 20
171.104804
 30
0.0
 10
160.292600
 20
171.104800
 30
0.0
  0
SPLINE
  5
138
100
AcDbEntity
  8
0
 62
7
100
AcDbSpline
 70
8
 71
3
 72
8
 73
4
 74
0
 40
0
 40
0
 40
0
 40
0
 40
1
 40
1
 40
1
 40
1
 10
180.518600
 20
166.805600
 30
0.0
 10
180.397304
 20
166.859622
 30
0.0
 10
180.270678
 20
166.900781
 30
0.0
 10
180.140800
 20
166.928400
 30
0.0
  0
SPLINE
  5
139
100
AcDbEntity
  8
0
 62
7
100
AcDbSpline
 70
8
 71
3
 72
8
 73
4
 74
0
 40
0
 40
0
 40
0
 40
0
 40
1
 40
1
 40
1
 40
1
 10
196.819600
 20
159.548000
 30
0.0
 10
197.279948
 20
159.343018
 30
0.0
 10
197.802872
 20
159.329309
 30
0.0
 10
198.273328
 20
159.509889
 30
0.0
  0
SPLINE
  5
13a
100
AcDbEntity
  8
0
 62
7
100
AcDbSpline
 70
8
 71
3
 72
8
 73
4
 74
0
 40
0
 40
0
 40
0
 40
0
 40
1
 40
1
 40
1
 40
1
 10
198.273328
 20
159.509889
 30
0.0
 10
198.743784
 20
159.690469
 30
0.0
 10
199.123234
 20
160.050544
 30
0.0
 10
199.328200
 20
160.510900
 30
0.0
  0
SPLINE
  5
13b
100
AcDbEntity
  8
0
 62
7
100
AcDbSpline
 70
8
 71
3
 72
8
 73
4
 74
0
 40
0
 40
0
 40
0
 40
0
 40
1
 40
1
 40
1
 40
1
 10
206.526000
 20
176.677500
 30
0.0
 10
206.634182
 20
176.920534
 30
0.0
 10
206.690122
 20
177.183576
 30
0.0
 10
206.690200
 20
177.449600
 30
0.0
  0
SPLINE
  5
13c
100
AcDbEntity
  8
0
 62
7
100
AcDbSpline
 70
8
 71
3
 72
8
 73
4
 74
0
 40
0
 40
0
 40
0
 40
0
 40
1
 40
1
 40
1
 40
1
 10
206.712100
 20
240.205100
 30
0.0
 10
206.712487
 20
241.254324
 30
0.0
 10
205.862324
 20
242.105248
 30
0.0
 10
204.813100
 20
242.105800
 30
0.0
  0
SPLINE
  5
13d
100
AcDbEntity
  8
0
 62
7
100
AcDbSpline
 70
8
 71
3
 72
8
 73
4
 74
0
 40
0
 40
0
 40
0
 40
0
 40
1
 40
1
 40
1
 40
1
 10
166.662800
 20
244.024000
 30
0.0
 10
166.662800
 20
242.975049
 30
0.0
 10
167.512850
 20
242.124552
 30
0.0
 10
168.561800
 20
242.124000
 30
0.0
  0
SPLINE
  5
13e
100
AcDbEntity
  8
0
 62
7
100
AcDbSpline
 70
8
 71
3
 72
8
 73
4
 74
0
 40
0
 40
0
 40
0
 40
0
 40
1
 40
1
 40
1
 40
1
 10
166.662800
 20
245.204800
 30
0.0
 10
166.662800
 20
245.708711
 30
0.0
 10
166.462622
 20
246.191984
 30
0.0
 10
166.106303
 20
246.548303
 30
0.0
  0
SPLINE
  5
13f
100
AcDbEntity
  8
0
 62
7
100
AcDbSpline
 70
8
 71
3
 72
8
 73
4
 74
0
 40
0
 40
0
 40
0
 40
0
 40
1
 40
1
 40
1
 40
1
 10
166.106303
 20
246.548303
 30
0.0
 10
165.749984
 20
246.904622
 30
0.0
 10
165.266711
 20
247.104800
 30
0.0
 10
164.762800
 20
247.104800
 30
0.0
  0
SPLINE
  5
140
100
AcDbEntity
  8
0
 62
7
100
AcDbSpline
 70
8
 71
3
 72
8
 73
4
 74
0
 40
0
 40
0
 40
0
 40
0
 40
1
 40
1
 40
1
 40
1
 10
148.662800
 20
249.004800
 30
0.0
 10
148.662800
 20
248.500889
 30
0.0
 10
148.862978
 20
248.017616
 30
0.0
 10
149.219297
 20
247.661297
 30
0.0
  0
SPLINE
  5
141
100
AcDbEntity
  8
0
 62
7
100
AcDbSpline
 70
8
 71
3
 72
8
 73
4
 74
0
 40
0
 40
0
 40
0
 40
0
 40
1
 40
1
 40
1
 40
1
 10
149.219297
 20
247.661297
 30
0.0
 10
149.575616
 20
247.304978
 30
0.0
 10
150.058889
 20
247.104800
 30
0.0
 10
150.562800
 20
247.104800
 30
0.0
  0
SPLINE
  5
142
100
AcDbEntity
  8
0
 62
7
100
AcDbSpline
 70
8
 71
3
 72
8
 73
4
 74
0
 40
0
 40
0
 40
0
 40
0
 40
1
 40
1
 40
1
 40
1
 10
148.662800
 20
250.204800
 30
0.0
 10
148.662800
 20
250.708711
 30
0.0
 10
148.462622
 20
251.191984
 30
0.0
 10
148.106303
 20
251.548303
 30
0.0
  0
SPLINE
  5
143
100
AcDbEntity
  8
0
 62
7
100
AcDbSpline
 70
8
 71
3
 72
8
 73
4
 74
0
 40
0
 40
0
 40
0
 40
0
 40
1
 40
1
 40
1
 40
1
 10
148.106303
 20
251.548303
 30
0.0
 10
147.749984
 20
251.904622
 30
0.0
 10
147.266711
 20
252.104800
 30
0.0
 10
146.762800
 20
252.104800
 30
0.0
  0
SPLINE
  5
144
100
AcDbEntity
  8
0
 62
7
100
AcDbSpline
 70
8
 71
3
 72
8
 73
4
 74
0
 40
0
 40
0
 40
0
 40
0
 40
1
 40
1
 40
1
 40
1
 10
129.562800
 20
252.104800
 30
0.0
 10
129.058889
 20
252.104800
 30
0.0
 10
128.575616
 20
251.904622
 30
0.0
 10
128.219297
 20
251.548303
 30
0.0
  0
SPLINE
  5
145
100
AcDbEntity
  8
0
 62
7
100
AcDbSpline
 70
8
 71
3
 72
8
 73
4
 74
0
 40
0
 40
0
 40
0
 40
0
 40
1
 40
1
 40
1
 40
1
 10
128.219297
 20
251.548303
 30
0.0
 10
127.862978
 20
251.191984
 30
0.0
 10
127.662800
 20
250.708711
 30
0.0
 10
127.662800
 20
250.204800
 30
0.0
  0
SPLINE
  5
146
100
AcDbEntity
  8
0
 62
7
100
AcDbSpline
 70
8
 71
3
 72
8
 73
4
 74
0
 40
0
 40
0
 40
0
 40
0
 40
1
 40
1
 40
1
 40
1
 10
125.829100
 20
246.697900
 30
0.0
 10
126.851997
 20
246.733615
 30
0.0
 10
127.662777
 20
247.573180
 30
0.0
 10
127.662800
 20
248.596700
 30
0.0
  0
SPLINE
  5
147
100
AcDbEntity
  8
0
 62
7
100
AcDbSpline
 70
8
 71
3
 72
8
 73
4
 74
0
 40
0
 40
0
 40
0
 40
0
 40
1
 40
1
 40
1
 40
1
 10
109.218500
 20
246.117800
 30
0.0
 10
108.169832
 20
246.081160
 30
0.0
 10
107.349408
 20
245.201369
 30
0.0
 10
107.386000
 20
244.152700
 30
0.0
  0
SPLINE
  5
148
100
AcDbEntity
  8
0
 62
7
100
AcDbSpline
 70
8
 71
3
 72
8
 73
4
 74
0
 40
0
 40
0
 40
0
 40
0
 40
1
 40
1
 40
1
 40
1
 10
105.487300
 20
242.155600
 30
0.0
 10
106.002895
 20
242.155339
 30
0.0
 10
106.496457
 20
242.364630
 30
0.0
 10
106.854704
 20
242.735436
 30
0.0
  0
SPLINE
  5
149
100
AcDbEntity
  8
0
 62
7
100
AcDbSpline
 70
8
 71
3
 72
8
 73
4
 74
0
 40
0
 40
0
 40
0
 40
0
 40
1
 40
1
 40
1
 40
1
 10
106.854704
 20
242.735436
 30
0.0
 10
107.212952
 20
243.106242
 30
0.0
 10
107.405119
 20
243.606720
 30
0.0
 10
107.387100
 20
244.122000
 30
0.0
  0
SPLINE
  5
14a
100
AcDbEntity
  8
0
 62
7
100
AcDbSpline
 70
8
 71
3
 72
8
 73
4
 74
0
 40
0
 40
0
 40
0
 40
0
 40
1
 40
1
 40
1
 40
1
 10
102.866700
 20
242.157000
 30
0.0
 10
102.755768
 20
242.157045
 30
0.0
 10
102.645045
 20
242.147375
 30
0.0
 10
102.535800
 20
242.128100
 30
0.0
  0
SPLINE
  5
14b
100
AcDbEntity
  8
0
 62
7
100
AcDbSpline
 70
8
 71
3
 72
8
 73
4
 74
0
 40
0
 40
0
 40
0
 40
0
 40
1
 40
1
 40
1
 40
1
 10
83.890100
 20
238.840400
 30
0.0
 10
83.393838
 20
238.752896
 30
0.0
 10
82.952663
 20
238.471835
 30
0.0
 10
82.663631
 20
238.059047
 30
0.0
  0
SPLINE
  5
14c
100
AcDbEntity
  8
0
 62
7
100
AcDbSpline
 70
8
 71
3
 72
8
 73
4
 74
0
 40
0
 40
0
 40
0
 40
0
 40
1
 40
1
 40
1
 40
1
 10
82.663631
 20
238.059047
 30
0.0
 10
82.374599
 20
237.646260
 30
0.0
 10
82.261387
 20
237.135560
 30
0.0
 10
82.348900
 20
236.639300
 30
0.0
  0
LWPOLYLINE
  5
14d
100
AcDbEntity
  8
0
 62
7
100
AcDbPolyline
 90
2
 70
0
 10
140.763700
 20
185.305800
 30
0.0
 10
92.989500
 20
185.330000
 30
0.0
  0
LWPOLYLINE
  5
14e
100
AcDbEntity
  8
0
 62
7
100
AcDbPolyline
 90
4
 70
1
 10
94.342200
 20
188.922000
 30
0.0
 10
108.080200
 20
191.344400
 30
0.0
 10
105.657800
 20
205.082400
 30
0.0
 10
91.919800
 20
202.660000
 30
0.0
  0
LWPOLYLINE
  5
14f
100
AcDbEntity
  8
0
 62
7
100
AcDbPolyline
 90
4
 70
1
 10
91.390100
 20
205.663700
 30
0.0
 10
105.128200
 20
208.086100
 30
0.0
 10
102.705800
 20
221.824200
 30
0.0
 10
88.967800
 20
219.401800
 30
0.0
  0
LWPOLYLINE
  5
150
100
AcDbEntity
  8
0
 62
7
100
AcDbPolyline
 90
4
 70
1
 10
88.438100
 20
222.405400
 30
0.0
 10
102.176200
 20
224.827800
 30
0.0
 10
99.753800
 20
238.565900
 30
0.0
 10
86.015700
 20
236.143500
 30
0.0
  0
LWPOLYLINE
  5
151
100
AcDbEntity
  8
0
 62
7
100
AcDbPolyline
 90
4
 70
1
 10
112.621500
 20
195.230600
 30
0.0
 10
126.563000
 20
195.717500
 30
0.0
 10
126.076200
 20
209.659000
 30
0.0
 10
112.134700
 20
209.172100
 30
0.0
  0
LWPOLYLINE
  5
152
100
AcDbEntity
  8
0
 62
7
100
AcDbPolyline
 90
4
 70
1
 10
112.028200
 20
212.220200
 30
0.0
 10
125.969700
 20
212.707100
 30
0.0
 10
125.482900
 20
226.648600
 30
0.0
 10
111.541400
 20
226.161800
 30
0.0
  0
LWPOLYLINE
  5
153
100
AcDbEntity
  8
0
 62
7
100
AcDbPolyline
 90
4
 70
1
 10
111.434900
 20
229.209900
 30
0.0
 10
125.376500
 20
229.696700
 30
0.0
 10
124.889600
 20
243.638200
 30
0.0
 10
110.948100
 20
243.151400
 30
0.0
  0
LWPOLYLINE
  5
154
100
AcDbEntity
  8
0
 62
7
100
AcDbPolyline
 90
4
 70
1
 10
131.187800
 20
201.129800
 30
0.0
 10
145.137800
 20
201.129800
 30
0.0
 10
145.137800
 20
215.079800
 30
0.0
 10
131.187800
 20
215.079800
 30
0.0
  0
LWPOLYLINE
  5
155
100
AcDbEntity
  8
0
 62
7
100
AcDbPolyline
 90
4
 70
1
 10
131.187800
 20
218.129800
 30
0.0
 10
145.137800
 20
218.129800
 30
0.0
 10
145.137800
 20
232.079800
 30
0.0
 10
131.187800
 20
232.079800
 30
0.0
  0
LWPOLYLINE
  5
156
100
AcDbEntity
  8
0
 62
7
100
AcDbPolyline
 90
4
 70
1
 10
131.187800
 20
235.129800
 30
0.0
 10
145.137800
 20
235.129800
 30
0.0
 10
145.137800
 20
249.079800
 30
0.0
 10
131.187800
 20
249.079800
 30
0.0
  0
LWPOLYLINE
  5
157
100
AcDbEntity
  8
0
 62
7
100
AcDbPolyline
 90
4
 70
1
 10
149.187800
 20
196.129800
 30
0.0
 10
163.137800
 20
196.129800
 30
0.0
 10
163.137800
 20
210.079800
 30
0.0
 10
149.187800
 20
210.079800
 30
0.0
  0
LWPOLYLINE
  5
158
100
AcDbEntity
  8
0
 62
7
100
AcDbPolyline
 90
4
 70
1
 10
149.187800
 20
213.129800
 30
0.0
 10
163.137800
 20
213.129800
 30
0.0
 10
163.137800
 20
227.079800
 30
0.0
 10
149.187800
 20
227.079800
 30
0.0
  0
LWPOLYLINE
  5
159
100
AcDbEntity
  8
0
 62
7
100
AcDbPolyline
 90
4
 70
1
 10
149.187800
 20
230.129800
 30
0.0
 10
163.137800
 20
230.129800
 30
0.0
 10
163.137800
 20
244.079800
 30
0.0
 10
149.187800
 20
244.079800
 30
0.0
  0
LWPOLYLINE
  5
15a
100
AcDbEntity
  8
0
 62
7
100
AcDbPolyline
 90
4
 70
1
 10
167.187800
 20
191.129800
 30
0.0
 10
181.137800
 20
191.129800
 30
0.0
 10
181.137800
 20
205.079800
 30
0.0
 10
167.187800
 20
205.079800
 30
0.0
  0
LWPOLYLINE
  5
15b
100
AcDbEntity
  8
0
 62
7
100
AcDbPolyline
 90
4
 70
1
 10
167.187800
 20
208.129800
 30
0.0
 10
181.137800
 20
208.129800
 30
0.0
 10
181.137800
 20
222.079800
 30
0.0
 10
167.187800
 20
222.079800
 30
0.0
  0
LWPOLYLINE
  5
15c
100
AcDbEntity
  8
0
 62
7
100
AcDbPolyline
 90
4
 70
1
 10
167.187800
 20
225.129800
 30
0.0
 10
181.137800
 20
225.129800
 30
0.0
 10
181.137800
 20
239.079800
 30
0.0
 10
167.187800
 20
239.079800
 30
0.0
  0
LWPOLYLINE
  5
15d
100
AcDbEntity
  8
0
 62
7
100
AcDbPolyline
 90
4
 70
1
 10
146.187800
 20
174.129800
 30
0.0
 10
160.137800
 20
174.129800
 30
0.0
 10
160.137800
 20
188.079800
 30
0.0
 10
146.187800
 20
188.079800
 30
0.0
  0
LWPOLYLINE
  5
15e
100
AcDbEntity
  8
0
 62
7
100
AcDbPolyline
 90
4
 70
1
 10
165.408600
 20
173.152400
 30
0.0
 10
179.053800
 20
170.252000
 30
0.0
 10
181.954200
 20
183.897200
 30
0.0
 10
168.309000
 20
186.797600
 30
0.0
  0
LWPOLYLINE
  5
15f
100
AcDbEntity
  8
0
 62
7
100
AcDbPolyline
 90
4
 70
1
 10
183.821500
 20
168.646400
 30
0.0
 10
196.565500
 20
162.972400
 30
0.0
 10
202.239500
 20
175.716300
 30
0.0
 10
189.495500
 20
181.390300
 30
0.0
  0
ENDSEC
  0
SECTION
  2
OBJECTS
  0
DICTIONARY
  5
C
330
0
100
AcDbDictionary
  3
ACAD_GROUP
350
D
  3
ACAD_MLINESTYLE
350
17
  0
DICTIONARY
  5
D
330
C
100
AcDbDictionary
  0
DICTIONARY
  5
1A
330
C
100
AcDbDictionary
  0
DICTIONARY
  5
17
330
C
100
AcDbDictionary
  3
STANDARD
350
18
  0
DICTIONARY
  5
19
330
C
100
AcDbDictionary
  0
ENDSEC
  0
EOF
