  0
SECTION
  2
HEADER
  9
$ACADVER
  1
AC1014
  9
$HANDSEED
  5
FFFF
  9
$INSUNITS
 70
     4
  9
$MEASUREMENT
 70
     1
  0
ENDSEC
  0
SECTION
  2
TABLES
  0
TABLE
  2
VPORT
  5
8
330
0
100
AcDbSymbolTable
 70
     4
  0
VPORT
  5
2E
330
8
100
AcDbSymbolTableRecord
100
AcDbViewportTableRecord
  2
*ACTIVE
 70
     0
 10
0.0
 20
0.0
 11
1.0
 21
1.0
 12
210.0
 22
148.5
 13
0.0
 23
0.0
 14
10.0
 24
10.0
 15
10.0
 25
10.0
 16
0.0
 26
0.0
 36
1.0
 17
0.0
 27
0.0
 37
0.0
 40
341.0
 41
1.24
 42
50.0
 43
0.0
 44
0.0
 50
0.0
 51
0.0
 71
     0
 72
   100
 73
     1
 74
     3
 75
     0
 76
     0
 77
     0
 78
     0
  0
ENDTAB
  0
TABLE
  2
LTYPE
  5
5
330
0
100
AcDbSymbolTable
 70
     1
  0
LTYPE
  5
14
330
5
100
AcDbSymbolTableRecord
100
AcDbLinetypeTableRecord
  2
BYBLOCK
 70
     0
  3

 72
    65
 73
     0
 40
0.0
  0
LTYPE
  5
15
330
5
100
AcDbSymbolTableRecord
100
AcDbLinetypeTableRecord
  2
BYLAYER
 70
     0
  3

 72
    65
 73
     0
 40
0.0
  0
LTYPE
  5
16
330
5
100
AcDbSymbolTableRecord
100
AcDbLinetypeTableRecord
  2
CONTINUOUS
 70
     0
  3
Solid line
 72
    65
 73
     0
 40
0.0
  0
ENDTAB
  0
TABLE
  2
LAYER
  5
2
100
AcDbSymbolTable
 70
1
  0
LAYER
  5
50
100
AcDbSymbolTableRecord
100
AcDbLayerTableRecord
  2
0
 70
0
  6
CONTINUOUS
  0
ENDTAB
  0
TABLE
  2
STYLE
  5
3
330
0
100
AcDbSymbolTable
 70
     1
  0
STYLE
  5
11
330
3
100
AcDbSymbolTableRecord
100
AcDbTextStyleTableRecord
  2
STANDARD
 70
     0
 40
0.0
 41
1.0
 50
0.0
 71
     0
 42
2.5
  3
txt
  4

  0
ENDTAB
  0
TABLE
  2
VIEW
  5
6
330
0
100
AcDbSymbolTable
 70
     0
  0
ENDTAB
  0
TABLE
  2
UCS
  5
7
330
0
100
AcDbSymbolTable
 70
     0
  0
ENDTAB
  0
TABLE
  2
APPID
  5
9
330
0
100
AcDbSymbolTable
 70
     2
  0
APPID
  5
12
330
9
100
AcDbSymbolTableRecord
100
AcDbRegAppTableRecord
  2
ACAD
 70
     0
  0
ENDTAB
  0
TABLE
  2
DIMSTYLE
  5
A
330
0
100
AcDbSymbolTable
 70
     1
  0
DIMSTYLE
105
27
330
A
100
AcDbSymbolTableRecord
100
AcDbDimStyleTableRecord
  2
ISO-25
 70
     0
  3

  4

  5

  6

  7

 40
1.0
 41
2.5
 42
0.625
 43
3.75
 44
1.25
 45
0.0
 46
0.0
 47
0.0
 48
0.0
140
2.5
141
2.5
142
0.0
143
0.03937007874016
144
1.0
145
0.0
146
1.0
147
0.625
 71
     0
 72
     0
 73
     0
 74
     0
 75
     0
 76
     0
 77
     1
 78
     8
170
     0
171
     3
172
     1
173
     0
174
     0
175
     0
176
     0
177
     0
178
     0
270
     2
271
     2
272
     2
273
     2
274
     3
340
11
275
     0
280
     0
281
     0
282
     0
283
     0
284
     8
285
     0
286
     0
287
     3
288
     0
  0
ENDTAB
  0
TABLE
  2
BLOCK_RECORD
  5
1
330
0
100
AcDbSymbolTable
 70
     1
  0
BLOCK_RECORD
  5
1F
330
1
100
AcDbSymbolTableRecord
100
AcDbBlockTableRecord
  2
*MODEL_SPACE
  0
BLOCK_RECORD
  5
1B
330
1
100
AcDbSymbolTableRecord
100
AcDbBlockTableRecord
  2
*PAPER_SPACE
  0
ENDTAB
  0
ENDSEC
  0
SECTION
  2
BLOCKS
  0
BLOCK
  5
20
330
1F
100
AcDbEntity
  8
0
100
AcDbBlockBegin
  2
*MODEL_SPACE
 70
     0
 10
0.0
 20
0.0
 30
0.0
  3
*MODEL_SPACE
  1

  0
ENDBLK
  5
21
330
1F
100
AcDbEntity
  8
0
100
AcDbBlockEnd
  0
BLOCK
  5
1C
330
1B
100
AcDbEntity
 67
     1
  8
0
100
AcDbBlockBegin
  2
*PAPER_SPACE
  1

  0
ENDBLK
  5
1D
330
1B
100
AcDbEntity
 67
     1
  8
0
100
AcDbBlockEnd
  0
ENDSEC
  0
SECTION
  2
ENTITIES
  0
SPLINE
  5
100
100
AcDbEntity
  8
0
 62
7
100
AcDbSpline
 70
8
 71
3
 72
8
 73
4
 74
0
 40
0
 40
0
 40
0
 40
0
 40
1
 40
1
 40
1
 40
1
 10
121.250510
 20
24.200710
 30
0.0
 10
120.805601
 20
24.200710
 30
0.0
 10
120.404501
 20
23.932704
 30
0.0
 10
120.234242
 20
23.521662
 30
0.0
  0
SPLINE
  5
101
100
AcDbEntity
  8
0
 62
7
100
AcDbSpline
 70
8
 71
3
 72
8
 73
4
 74
0
 40
0
 40
0
 40
0
 40
0
 40
1
 40
1
 40
1
 40
1
 10
120.234242
 20
23.521662
 30
0.0
 10
120.063983
 20
23.110620
 30
0.0
 10
120.158094
 20
22.637490
 30
0.0
 10
120.472692
 20
22.322892
 30
0.0
  0
SPLINE
  5
102
100
AcDbEntity
  8
0
 62
7
100
AcDbSpline
 70
8
 71
3
 72
8
 73
4
 74
0
 40
0
 40
0
 40
0
 40
0
 40
1
 40
1
 40
1
 40
1
 10
120.472692
 20
22.322892
 30
0.0
 10
120.787290
 20
22.008295
 30
0.0
 10
121.260420
 20
21.914183
 30
0.0
 10
121.671462
 20
22.084442
 30
0.0
  0
SPLINE
  5
103
100
AcDbEntity
  8
0
 62
7
100
AcDbSpline
 70
8
 71
3
 72
8
 73
4
 74
0
 40
0
 40
0
 40
0
 40
0
 40
1
 40
1
 40
1
 40
1
 10
121.671462
 20
22.084442
 30
0.0
 10
122.082503
 20
22.254701
 30
0.0
 10
122.350510
 20
22.655801
 30
0.0
 10
122.350510
 20
23.100710
 30
0.0
  0
SPLINE
  5
104
100
AcDbEntity
  8
0
 62
7
100
AcDbSpline
 70
8
 71
3
 72
8
 73
4
 74
0
 40
0
 40
0
 40
0
 40
0
 40
1
 40
1
 40
1
 40
1
 10
122.350510
 20
23.100710
 30
0.0
 10
122.350510
 20
23.392448
 30
0.0
 10
122.234617
 20
23.672237
 30
0.0
 10
122.028327
 20
23.878527
 30
0.0
  0
SPLINE
  5
105
100
AcDbEntity
  8
0
 62
7
100
AcDbSpline
 70
8
 71
3
 72
8
 73
4
 74
0
 40
0
 40
0
 40
0
 40
0
 40
1
 40
1
 40
1
 40
1
 10
122.028327
 20
23.878527
 30
0.0
 10
121.822037
 20
24.084817
 30
0.0
 10
121.542248
 20
24.200710
 30
0.0
 10
121.250510
 20
24.200710
 30
0.0
  0
SPLINE
  5
106
100
AcDbEntity
  8
0
 62
7
100
AcDbSpline
 70
8
 71
3
 72
8
 73
4
 74
0
 40
0
 40
0
 40
0
 40
0
 40
1
 40
1
 40
1
 40
1
 10
104.806708
 20
31.522011
 30
0.0
 10
104.361800
 20
31.522011
 30
0.0
 10
103.960700
 20
31.254004
 30
0.0
 10
103.790441
 20
30.842962
 30
0.0
  0
SPLINE
  5
107
100
AcDbEntity
  8
0
 62
7
100
AcDbSpline
 70
8
 71
3
 72
8
 73
4
 74
0
 40
0
 40
0
 40
0
 40
0
 40
1
 40
1
 40
1
 40
1
 10
103.790441
 20
30.842962
 30
0.0
 10
103.620182
 20
30.431920
 30
0.0
 10
103.714293
 20
29.958791
 30
0.0
 10
104.028891
 20
29.644193
 30
0.0
  0
SPLINE
  5
108
100
AcDbEntity
  8
0
 62
7
100
AcDbSpline
 70
8
 71
3
 72
8
 73
4
 74
0
 40
0
 40
0
 40
0
 40
0
 40
1
 40
1
 40
1
 40
1
 10
104.028891
 20
29.644193
 30
0.0
 10
104.343489
 20
29.329595
 30
0.0
 10
104.816618
 20
29.235484
 30
0.0
 10
105.227660
 20
29.405743
 30
0.0
  0
SPLINE
  5
109
100
AcDbEntity
  8
0
 62
7
100
AcDbSpline
 70
8
 71
3
 72
8
 73
4
 74
0
 40
0
 40
0
 40
0
 40
0
 40
1
 40
1
 40
1
 40
1
 10
105.227660
 20
29.405743
 30
0.0
 10
105.638702
 20
29.576002
 30
0.0
 10
105.906709
 20
29.977102
 30
0.0
 10
105.906709
 20
30.422010
 30
0.0
  0
SPLINE
  5
10a
100
AcDbEntity
  8
0
 62
7
100
AcDbSpline
 70
8
 71
3
 72
8
 73
4
 74
0
 40
0
 40
0
 40
0
 40
0
 40
1
 40
1
 40
1
 40
1
 10
105.906709
 20
30.422010
 30
0.0
 10
105.906709
 20
30.713749
 30
0.0
 10
105.790816
 20
30.993538
 30
0.0
 10
105.584526
 20
31.199828
 30
0.0
  0
SPLINE
  5
10b
100
AcDbEntity
  8
0
 62
7
100
AcDbSpline
 70
8
 71
3
 72
8
 73
4
 74
0
 40
0
 40
0
 40
0
 40
0
 40
1
 40
1
 40
1
 40
1
 10
105.584526
 20
31.199828
 30
0.0
 10
105.378236
 20
31.406118
 30
0.0
 10
105.098447
 20
31.522011
 30
0.0
 10
104.806708
 20
31.522011
 30
0.0
  0
LWPOLYLINE
  5
10c
100
AcDbEntity
  8
0
 62
7
100
AcDbPolyline
 90
1
 70
1
 10
121.250510
 20
24.200710
 30
0.0
  0
SPLINE
  5
10d
100
AcDbEntity
  8
0
 62
7
100
AcDbSpline
 70
8
 71
3
 72
8
 73
4
 74
0
 40
0
 40
0
 40
0
 40
0
 40
1
 40
1
 40
1
 40
1
 10
23.816602
 20
74.387014
 30
0.0
 10
23.371693
 20
74.387014
 30
0.0
 10
22.970593
 20
74.119008
 30
0.0
 10
22.800334
 20
73.707966
 30
0.0
  0
SPLINE
  5
10e
100
AcDbEntity
  8
0
 62
7
100
AcDbSpline
 70
8
 71
3
 72
8
 73
4
 74
0
 40
0
 40
0
 40
0
 40
0
 40
1
 40
1
 40
1
 40
1
 10
22.800334
 20
73.707966
 30
0.0
 10
22.630075
 20
73.296924
 30
0.0
 10
22.724187
 20
72.823794
 30
0.0
 10
23.038784
 20
72.509196
 30
0.0
  0
SPLINE
  5
10f
100
AcDbEntity
  8
0
 62
7
100
AcDbSpline
 70
8
 71
3
 72
8
 73
4
 74
0
 40
0
 40
0
 40
0
 40
0
 40
1
 40
1
 40
1
 40
1
 10
23.038784
 20
72.509196
 30
0.0
 10
23.353382
 20
72.194599
 30
0.0
 10
23.826512
 20
72.100487
 30
0.0
 10
24.237554
 20
72.270746
 30
0.0
  0
SPLINE
  5
110
100
AcDbEntity
  8
0
 62
7
100
AcDbSpline
 70
8
 71
3
 72
8
 73
4
 74
0
 40
0
 40
0
 40
0
 40
0
 40
1
 40
1
 40
1
 40
1
 10
24.237554
 20
72.270746
 30
0.0
 10
24.648596
 20
72.441005
 30
0.0
 10
24.916602
 20
72.842105
 30
0.0
 10
24.916602
 20
73.287014
 30
0.0
  0
SPLINE
  5
111
100
AcDbEntity
  8
0
 62
7
100
AcDbSpline
 70
8
 71
3
 72
8
 73
4
 74
0
 40
0
 40
0
 40
0
 40
0
 40
1
 40
1
 40
1
 40
1
 10
24.916602
 20
73.287014
 30
0.0
 10
24.916602
 20
73.578752
 30
0.0
 10
24.800709
 20
73.858541
 30
0.0
 10
24.594419
 20
74.064831
 30
0.0
  0
SPLINE
  5
112
100
AcDbEntity
  8
0
 62
7
100
AcDbSpline
 70
8
 71
3
 72
8
 73
4
 74
0
 40
0
 40
0
 40
0
 40
0
 40
1
 40
1
 40
1
 40
1
 10
24.594419
 20
74.064831
 30
0.0
 10
24.388129
 20
74.271121
 30
0.0
 10
24.108340
 20
74.387014
 30
0.0
 10
23.816602
 20
74.387014
 30
0.0
  0
LWPOLYLINE
  5
113
100
AcDbEntity
  8
0
 62
7
100
AcDbPolyline
 90
1
 70
1
 10
104.806708
 20
31.522011
 30
0.0
  0
SPLINE
  5
114
100
AcDbEntity
  8
0
 62
7
100
AcDbSpline
 70
8
 71
3
 72
8
 73
4
 74
0
 40
0
 40
0
 40
0
 40
0
 40
1
 40
1
 40
1
 40
1
 10
82.918007
 20
70.396314
 30
0.0
 10
82.473098
 20
70.396314
 30
0.0
 10
82.071998
 20
70.128307
 30
0.0
 10
81.901739
 20
69.717265
 30
0.0
  0
SPLINE
  5
115
100
AcDbEntity
  8
0
 62
7
100
AcDbSpline
 70
8
 71
3
 72
8
 73
4
 74
0
 40
0
 40
0
 40
0
 40
0
 40
1
 40
1
 40
1
 40
1
 10
81.901739
 20
69.717265
 30
0.0
 10
81.731480
 20
69.306224
 30
0.0
 10
81.825591
 20
68.833094
 30
0.0
 10
82.140189
 20
68.518496
 30
0.0
  0
SPLINE
  5
116
100
AcDbEntity
  8
0
 62
7
100
AcDbSpline
 70
8
 71
3
 72
8
 73
4
 74
0
 40
0
 40
0
 40
0
 40
0
 40
1
 40
1
 40
1
 40
1
 10
82.140189
 20
68.518496
 30
0.0
 10
82.454787
 20
68.203898
 30
0.0
 10
82.927917
 20
68.109787
 30
0.0
 10
83.338958
 20
68.280046
 30
0.0
  0
SPLINE
  5
117
100
AcDbEntity
  8
0
 62
7
100
AcDbSpline
 70
8
 71
3
 72
8
 73
4
 74
0
 40
0
 40
0
 40
0
 40
0
 40
1
 40
1
 40
1
 40
1
 10
83.338958
 20
68.280046
 30
0.0
 10
83.750000
 20
68.450305
 30
0.0
 10
84.018007
 20
68.851405
 30
0.0
 10
84.018007
 20
69.296314
 30
0.0
  0
SPLINE
  5
118
100
AcDbEntity
  8
0
 62
7
100
AcDbSpline
 70
8
 71
3
 72
8
 73
4
 74
0
 40
0
 40
0
 40
0
 40
0
 40
1
 40
1
 40
1
 40
1
 10
84.018007
 20
69.296314
 30
0.0
 10
84.018007
 20
69.588052
 30
0.0
 10
83.902114
 20
69.867841
 30
0.0
 10
83.695824
 20
70.074131
 30
0.0
  0
SPLINE
  5
119
100
AcDbEntity
  8
0
 62
7
100
AcDbSpline
 70
8
 71
3
 72
8
 73
4
 74
0
 40
0
 40
0
 40
0
 40
0
 40
1
 40
1
 40
1
 40
1
 10
83.695824
 20
70.074131
 30
0.0
 10
83.489534
 20
70.280421
 30
0.0
 10
83.209745
 20
70.396314
 30
0.0
 10
82.918007
 20
70.396314
 30
0.0
  0
LWPOLYLINE
  5
11a
100
AcDbEntity
  8
0
 62
7
100
AcDbPolyline
 90
1
 70
1
 10
23.816602
 20
74.387014
 30
0.0
  0
SPLINE
  5
11b
100
AcDbEntity
  8
0
 62
7
100
AcDbSpline
 70
8
 71
3
 72
8
 73
4
 74
0
 40
0
 40
0
 40
0
 40
0
 40
1
 40
1
 40
1
 40
1
 10
26.088802
 20
55.799213
 30
0.0
 10
25.643894
 20
55.799213
 30
0.0
 10
25.242794
 20
55.531207
 30
0.0
 10
25.072535
 20
55.120165
 30
0.0
  0
SPLINE
  5
11c
100
AcDbEntity
  8
0
 62
7
100
AcDbSpline
 70
8
 71
3
 72
8
 73
4
 74
0
 40
0
 40
0
 40
0
 40
0
 40
1
 40
1
 40
1
 40
1
 10
25.072535
 20
55.120165
 30
0.0
 10
24.902275
 20
54.709123
 30
0.0
 10
24.996387
 20
54.235994
 30
0.0
 10
25.310985
 20
53.921396
 30
0.0
  0
SPLINE
  5
11d
100
AcDbEntity
  8
0
 62
7
100
AcDbSpline
 70
8
 71
3
 72
8
 73
4
 74
0
 40
0
 40
0
 40
0
 40
0
 40
1
 40
1
 40
1
 40
1
 10
25.310985
 20
53.921396
 30
0.0
 10
25.625582
 20
53.606798
 30
0.0
 10
26.098712
 20
53.512687
 30
0.0
 10
26.509754
 20
53.682946
 30
0.0
  0
SPLINE
  5
11e
100
AcDbEntity
  8
0
 62
7
100
AcDbSpline
 70
8
 71
3
 72
8
 73
4
 74
0
 40
0
 40
0
 40
0
 40
0
 40
1
 40
1
 40
1
 40
1
 10
26.509754
 20
53.682946
 30
0.0
 10
26.920796
 20
53.853205
 30
0.0
 10
27.188802
 20
54.254305
 30
0.0
 10
27.188802
 20
54.699213
 30
0.0
  0
SPLINE
  5
11f
100
AcDbEntity
  8
0
 62
7
100
AcDbSpline
 70
8
 71
3
 72
8
 73
4
 74
0
 40
0
 40
0
 40
0
 40
0
 40
1
 40
1
 40
1
 40
1
 10
27.188802
 20
54.699213
 30
0.0
 10
27.188802
 20
55.306727
 30
0.0
 10
26.696315
 20
55.799213
 30
0.0
 10
26.088802
 20
55.799213
 30
0.0
  0
LWPOLYLINE
  5
120
100
AcDbEntity
  8
0
 62
7
100
AcDbPolyline
 90
1
 70
1
 10
82.918007
 20
70.396314
 30
0.0
  0
SPLINE
  5
121
100
AcDbEntity
  8
0
 62
7
100
AcDbSpline
 70
8
 71
3
 72
8
 73
4
 74
0
 40
0
 40
0
 40
0
 40
0
 40
1
 40
1
 40
1
 40
1
 10
55.918004
 20
31.196311
 30
0.0
 10
55.473096
 20
31.196311
 30
0.0
 10
55.071996
 20
30.928304
 30
0.0
 10
54.901737
 20
30.517262
 30
0.0
  0
SPLINE
  5
122
100
AcDbEntity
  8
0
 62
7
100
AcDbSpline
 70
8
 71
3
 72
8
 73
4
 74
0
 40
0
 40
0
 40
0
 40
0
 40
1
 40
1
 40
1
 40
1
 10
54.901737
 20
30.517262
 30
0.0
 10
54.731478
 20
30.106220
 30
0.0
 10
54.825589
 20
29.633091
 30
0.0
 10
55.140187
 20
29.318493
 30
0.0
  0
SPLINE
  5
123
100
AcDbEntity
  8
0
 62
7
100
AcDbSpline
 70
8
 71
3
 72
8
 73
4
 74
0
 40
0
 40
0
 40
0
 40
0
 40
1
 40
1
 40
1
 40
1
 10
55.140187
 20
29.318493
 30
0.0
 10
55.454785
 20
29.003895
 30
0.0
 10
55.927914
 20
28.909784
 30
0.0
 10
56.338956
 20
29.080043
 30
0.0
  0
SPLINE
  5
124
100
AcDbEntity
  8
0
 62
7
100
AcDbSpline
 70
8
 71
3
 72
8
 73
4
 74
0
 40
0
 40
0
 40
0
 40
0
 40
1
 40
1
 40
1
 40
1
 10
56.338956
 20
29.080043
 30
0.0
 10
56.749998
 20
29.250302
 30
0.0
 10
57.018005
 20
29.651402
 30
0.0
 10
57.018005
 20
30.096310
 30
0.0
  0
SPLINE
  5
125
100
AcDbEntity
  8
0
 62
7
100
AcDbSpline
 70
8
 71
3
 72
8
 73
4
 74
0
 40
0
 40
0
 40
0
 40
0
 40
1
 40
1
 40
1
 40
1
 10
57.018005
 20
30.096310
 30
0.0
 10
57.018005
 20
30.388049
 30
0.0
 10
56.902112
 20
30.667838
 30
0.0
 10
56.695822
 20
30.874128
 30
0.0
  0
SPLINE
  5
126
100
AcDbEntity
  8
0
 62
7
100
AcDbSpline
 70
8
 71
3
 72
8
 73
4
 74
0
 40
0
 40
0
 40
0
 40
0
 40
1
 40
1
 40
1
 40
1
 10
56.695822
 20
30.874128
 30
0.0
 10
56.489532
 20
31.080418
 30
0.0
 10
56.209743
 20
31.196311
 30
0.0
 10
55.918004
 20
31.196311
 30
0.0
  0
LWPOLYLINE
  5
127
100
AcDbEntity
  8
0
 62
7
100
AcDbPolyline
 90
1
 70
1
 10
26.088802
 20
55.799213
 30
0.0
  0
SPLINE
  5
128
100
AcDbEntity
  8
0
 62
7
100
AcDbSpline
 70
8
 71
3
 72
8
 73
4
 74
0
 40
0
 40
0
 40
0
 40
0
 40
1
 40
1
 40
1
 40
1
 10
101.186208
 20
16.403709
 30
0.0
 10
100.741300
 20
16.403709
 30
0.0
 10
100.340200
 20
16.135703
 30
0.0
 10
100.169941
 20
15.724661
 30
0.0
  0
SPLINE
  5
129
100
AcDbEntity
  8
0
 62
7
100
AcDbSpline
 70
8
 71
3
 72
8
 73
4
 74
0
 40
0
 40
0
 40
0
 40
0
 40
1
 40
1
 40
1
 40
1
 10
100.169941
 20
15.724661
 30
0.0
 10
99.999681
 20
15.313619
 30
0.0
 10
100.093793
 20
14.840490
 30
0.0
 10
100.408391
 20
14.525892
 30
0.0
  0
SPLINE
  5
12a
100
AcDbEntity
  8
0
 62
7
100
AcDbSpline
 70
8
 71
3
 72
8
 73
4
 74
0
 40
0
 40
0
 40
0
 40
0
 40
1
 40
1
 40
1
 40
1
 10
100.408391
 20
14.525892
 30
0.0
 10
100.722988
 20
14.211294
 30
0.0
 10
101.196118
 20
14.117183
 30
0.0
 10
101.607160
 20
14.287442
 30
0.0
  0
SPLINE
  5
12b
100
AcDbEntity
  8
0
 62
7
100
AcDbSpline
 70
8
 71
3
 72
8
 73
4
 74
0
 40
0
 40
0
 40
0
 40
0
 40
1
 40
1
 40
1
 40
1
 10
101.607160
 20
14.287442
 30
0.0
 10
102.018202
 20
14.457701
 30
0.0
 10
102.286208
 20
14.858801
 30
0.0
 10
102.286208
 20
15.303709
 30
0.0
  0
SPLINE
  5
12c
100
AcDbEntity
  8
0
 62
7
100
AcDbSpline
 70
8
 71
3
 72
8
 73
4
 74
0
 40
0
 40
0
 40
0
 40
0
 40
1
 40
1
 40
1
 40
1
 10
102.286208
 20
15.303709
 30
0.0
 10
102.286208
 20
15.595447
 30
0.0
 10
102.170316
 20
15.875237
 30
0.0
 10
101.964026
 20
16.081527
 30
0.0
  0
SPLINE
  5
12d
100
AcDbEntity
  8
0
 62
7
100
AcDbSpline
 70
8
 71
3
 72
8
 73
4
 74
0
 40
0
 40
0
 40
0
 40
0
 40
1
 40
1
 40
1
 40
1
 10
101.964026
 20
16.081527
 30
0.0
 10
101.757736
 20
16.287817
 30
0.0
 10
101.477946
 20
16.403709
 30
0.0
 10
101.186208
 20
16.403709
 30
0.0
  0
LWPOLYLINE
  5
12e
100
AcDbEntity
  8
0
 62
7
100
AcDbPolyline
 90
1
 70
1
 10
55.918004
 20
31.196311
 30
0.0
  0
SPLINE
  5
12f
100
AcDbEntity
  8
0
 62
7
100
AcDbSpline
 70
8
 71
3
 72
8
 73
4
 74
0
 40
0
 40
0
 40
0
 40
0
 40
1
 40
1
 40
1
 40
1
 10
121.250510
 20
24.250710
 30
0.0
 10
120.785378
 20
24.250710
 30
0.0
 10
120.366046
 20
23.970521
 30
0.0
 10
120.188048
 20
23.540796
 30
0.0
  0
SPLINE
  5
130
100
AcDbEntity
  8
0
 62
7
100
AcDbSpline
 70
8
 71
3
 72
8
 73
4
 74
0
 40
0
 40
0
 40
0
 40
0
 40
1
 40
1
 40
1
 40
1
 10
120.188048
 20
23.540796
 30
0.0
 10
120.010050
 20
23.111070
 30
0.0
 10
120.108439
 20
22.616435
 30
0.0
 10
120.437337
 20
22.287537
 30
0.0
  0
SPLINE
  5
131
100
AcDbEntity
  8
0
 62
7
100
AcDbSpline
 70
8
 71
3
 72
8
 73
4
 74
0
 40
0
 40
0
 40
0
 40
0
 40
1
 40
1
 40
1
 40
1
 10
120.437337
 20
22.287537
 30
0.0
 10
120.766235
 20
21.958639
 30
0.0
 10
121.260870
 20
21.860250
 30
0.0
 10
121.690596
 20
22.038248
 30
0.0
  0
SPLINE
  5
132
100
AcDbEntity
  8
0
 62
7
100
AcDbSpline
 70
8
 71
3
 72
8
 73
4
 74
0
 40
0
 40
0
 40
0
 40
0
 40
1
 40
1
 40
1
 40
1
 10
121.690596
 20
22.038248
 30
0.0
 10
122.120321
 20
22.216246
 30
0.0
 10
122.400510
 20
22.635578
 30
0.0
 10
122.400510
 20
23.100710
 30
0.0
  0
SPLINE
  5
133
100
AcDbEntity
  8
0
 62
7
100
AcDbSpline
 70
8
 71
3
 72
8
 73
4
 74
0
 40
0
 40
0
 40
0
 40
0
 40
1
 40
1
 40
1
 40
1
 10
122.400510
 20
23.100710
 30
0.0
 10
122.400510
 20
23.405709
 30
0.0
 10
122.279349
 20
23.698216
 30
0.0
 10
122.063683
 20
23.913883
 30
0.0
  0
SPLINE
  5
134
100
AcDbEntity
  8
0
 62
7
100
AcDbSpline
 70
8
 71
3
 72
8
 73
4
 74
0
 40
0
 40
0
 40
0
 40
0
 40
1
 40
1
 40
1
 40
1
 10
122.063683
 20
23.913883
 30
0.0
 10
121.848016
 20
24.129550
 30
0.0
 10
121.555509
 20
24.250710
 30
0.0
 10
121.250510
 20
24.250710
 30
0.0
  0
LWPOLYLINE
  5
135
100
AcDbEntity
  8
0
 62
7
100
AcDbPolyline
 90
1
 70
1
 10
101.186208
 20
16.403709
 30
0.0
  0
SPLINE
  5
136
100
AcDbEntity
  8
0
 62
7
100
AcDbSpline
 70
8
 71
3
 72
8
 73
4
 74
0
 40
0
 40
0
 40
0
 40
0
 40
1
 40
1
 40
1
 40
1
 10
104.806708
 20
31.572011
 30
0.0
 10
104.341577
 20
31.572011
 30
0.0
 10
103.922245
 20
31.291822
 30
0.0
 10
103.744247
 20
30.862096
 30
0.0
  0
SPLINE
  5
137
100
AcDbEntity
  8
0
 62
7
100
AcDbSpline
 70
8
 71
3
 72
8
 73
4
 74
0
 40
0
 40
0
 40
0
 40
0
 40
1
 40
1
 40
1
 40
1
 10
103.744247
 20
30.862096
 30
0.0
 10
103.566249
 20
30.432371
 30
0.0
 10
103.664638
 20
29.937735
 30
0.0
 10
103.993536
 20
29.608838
 30
0.0
  0
SPLINE
  5
138
100
AcDbEntity
  8
0
 62
7
100
AcDbSpline
 70
8
 71
3
 72
8
 73
4
 74
0
 40
0
 40
0
 40
0
 40
0
 40
1
 40
1
 40
1
 40
1
 10
103.993536
 20
29.608838
 30
0.0
 10
104.322433
 20
29.279940
 30
0.0
 10
104.817069
 20
29.181551
 30
0.0
 10
105.246794
 20
29.359549
 30
0.0
  0
SPLINE
  5
139
100
AcDbEntity
  8
0
 62
7
100
AcDbSpline
 70
8
 71
3
 72
8
 73
4
 74
0
 40
0
 40
0
 40
0
 40
0
 40
1
 40
1
 40
1
 40
1
 10
105.246794
 20
29.359549
 30
0.0
 10
105.676520
 20
29.537547
 30
0.0
 10
105.956709
 20
29.956879
 30
0.0
 10
105.956709
 20
30.422010
 30
0.0
  0
SPLINE
  5
13a
100
AcDbEntity
  8
0
 62
7
100
AcDbSpline
 70
8
 71
3
 72
8
 73
4
 74
0
 40
0
 40
0
 40
0
 40
0
 40
1
 40
1
 40
1
 40
1
 10
105.956709
 20
30.422010
 30
0.0
 10
105.956709
 20
30.727009
 30
0.0
 10
105.835548
 20
31.019516
 30
0.0
 10
105.619881
 20
31.235183
 30
0.0
  0
SPLINE
  5
13b
100
AcDbEntity
  8
0
 62
7
100
AcDbSpline
 70
8
 71
3
 72
8
 73
4
 74
0
 40
0
 40
0
 40
0
 40
0
 40
1
 40
1
 40
1
 40
1
 10
105.619881
 20
31.235183
 30
0.0
 10
105.404214
 20
31.450850
 30
0.0
 10
105.111707
 20
31.572011
 30
0.0
 10
104.806708
 20
31.572011
 30
0.0
  0
LWPOLYLINE
  5
13c
100
AcDbEntity
  8
0
 62
7
100
AcDbPolyline
 90
1
 70
1
 10
121.250510
 20
24.250710
 30
0.0
  0
SPLINE
  5
13d
100
AcDbEntity
  8
0
 62
7
100
AcDbSpline
 70
8
 71
3
 72
8
 73
4
 74
0
 40
0
 40
0
 40
0
 40
0
 40
1
 40
1
 40
1
 40
1
 10
23.816602
 20
74.437014
 30
0.0
 10
23.351470
 20
74.437014
 30
0.0
 10
22.932139
 20
74.156825
 30
0.0
 10
22.754140
 20
73.727100
 30
0.0
  0
SPLINE
  5
13e
100
AcDbEntity
  8
0
 62
7
100
AcDbSpline
 70
8
 71
3
 72
8
 73
4
 74
0
 40
0
 40
0
 40
0
 40
0
 40
1
 40
1
 40
1
 40
1
 10
22.754140
 20
73.727100
 30
0.0
 10
22.576142
 20
73.297374
 30
0.0
 10
22.674531
 20
72.802739
 30
0.0
 10
23.003429
 20
72.473841
 30
0.0
  0
SPLINE
  5
13f
100
AcDbEntity
  8
0
 62
7
100
AcDbSpline
 70
8
 71
3
 72
8
 73
4
 74
0
 40
0
 40
0
 40
0
 40
0
 40
1
 40
1
 40
1
 40
1
 10
23.003429
 20
72.473841
 30
0.0
 10
23.332327
 20
72.144943
 30
0.0
 10
23.826962
 20
72.046554
 30
0.0
 10
24.256688
 20
72.224552
 30
0.0
  0
SPLINE
  5
140
100
AcDbEntity
  8
0
 62
7
100
AcDbSpline
 70
8
 71
3
 72
8
 73
4
 74
0
 40
0
 40
0
 40
0
 40
0
 40
1
 40
1
 40
1
 40
1
 10
24.256688
 20
72.224552
 30
0.0
 10
24.686413
 20
72.402551
 30
0.0
 10
24.966602
 20
72.821882
 30
0.0
 10
24.966602
 20
73.287014
 30
0.0
  0
SPLINE
  5
141
100
AcDbEntity
  8
0
 62
7
100
AcDbSpline
 70
8
 71
3
 72
8
 73
4
 74
0
 40
0
 40
0
 40
0
 40
0
 40
1
 40
1
 40
1
 40
1
 10
24.966602
 20
73.287014
 30
0.0
 10
24.966602
 20
73.592013
 30
0.0
 10
24.845442
 20
73.884520
 30
0.0
 10
24.629775
 20
74.100187
 30
0.0
  0
SPLINE
  5
142
100
AcDbEntity
  8
0
 62
7
100
AcDbSpline
 70
8
 71
3
 72
8
 73
4
 74
0
 40
0
 40
0
 40
0
 40
0
 40
1
 40
1
 40
1
 40
1
 10
24.629775
 20
74.100187
 30
0.0
 10
24.414108
 20
74.315854
 30
0.0
 10
24.121601
 20
74.437014
 30
0.0
 10
23.816602
 20
74.437014
 30
0.0
  0
LWPOLYLINE
  5
143
100
AcDbEntity
  8
0
 62
7
100
AcDbPolyline
 90
1
 70
1
 10
104.806708
 20
31.572011
 30
0.0
  0
SPLINE
  5
144
100
AcDbEntity
  8
0
 62
7
100
AcDbSpline
 70
8
 71
3
 72
8
 73
4
 74
0
 40
0
 40
0
 40
0
 40
0
 40
1
 40
1
 40
1
 40
1
 10
82.918007
 20
70.446314
 30
0.0
 10
82.452875
 20
70.446314
 30
0.0
 10
82.033543
 20
70.166125
 30
0.0
 10
81.855545
 20
69.736400
 30
0.0
  0
SPLINE
  5
145
100
AcDbEntity
  8
0
 62
7
100
AcDbSpline
 70
8
 71
3
 72
8
 73
4
 74
0
 40
0
 40
0
 40
0
 40
0
 40
1
 40
1
 40
1
 40
1
 10
81.855545
 20
69.736400
 30
0.0
 10
81.677547
 20
69.306674
 30
0.0
 10
81.775936
 20
68.812038
 30
0.0
 10
82.104834
 20
68.483141
 30
0.0
  0
SPLINE
  5
146
100
AcDbEntity
  8
0
 62
7
100
AcDbSpline
 70
8
 71
3
 72
8
 73
4
 74
0
 40
0
 40
0
 40
0
 40
0
 40
1
 40
1
 40
1
 40
1
 10
82.104834
 20
68.483141
 30
0.0
 10
82.433732
 20
68.154243
 30
0.0
 10
82.928367
 20
68.055854
 30
0.0
 10
83.358093
 20
68.233852
 30
0.0
  0
SPLINE
  5
147
100
AcDbEntity
  8
0
 62
7
100
AcDbSpline
 70
8
 71
3
 72
8
 73
4
 74
0
 40
0
 40
0
 40
0
 40
0
 40
1
 40
1
 40
1
 40
1
 10
83.358093
 20
68.233852
 30
0.0
 10
83.787818
 20
68.411850
 30
0.0
 10
84.068007
 20
68.831182
 30
0.0
 10
84.068007
 20
69.296314
 30
0.0
  0
SPLINE
  5
148
100
AcDbEntity
  8
0
 62
7
100
AcDbSpline
 70
8
 71
3
 72
8
 73
4
 74
0
 40
0
 40
0
 40
0
 40
0
 40
1
 40
1
 40
1
 40
1
 10
84.068007
 20
69.296314
 30
0.0
 10
84.068007
 20
69.601313
 30
0.0
 10
83.946846
 20
69.893820
 30
0.0
 10
83.731180
 20
70.109486
 30
0.0
  0
SPLINE
  5
149
100
AcDbEntity
  8
0
 62
7
100
AcDbSpline
 70
8
 71
3
 72
8
 73
4
 74
0
 40
0
 40
0
 40
0
 40
0
 40
1
 40
1
 40
1
 40
1
 10
83.731180
 20
70.109486
 30
0.0
 10
83.515513
 20
70.325153
 30
0.0
 10
83.223006
 20
70.446314
 30
0.0
 10
82.918007
 20
70.446314
 30
0.0
  0
LWPOLYLINE
  5
14a
100
AcDbEntity
  8
0
 62
7
100
AcDbPolyline
 90
1
 70
1
 10
23.816602
 20
74.437014
 30
0.0
  0
SPLINE
  5
14b
100
AcDbEntity
  8
0
 62
7
100
AcDbSpline
 70
8
 71
3
 72
8
 73
4
 74
0
 40
0
 40
0
 40
0
 40
0
 40
1
 40
1
 40
1
 40
1
 10
26.088802
 20
55.849213
 30
0.0
 10
25.623670
 20
55.849213
 30
0.0
 10
25.204339
 20
55.569025
 30
0.0
 10
25.026341
 20
55.139299
 30
0.0
  0
SPLINE
  5
14c
100
AcDbEntity
  8
0
 62
7
100
AcDbSpline
 70
8
 71
3
 72
8
 73
4
 74
0
 40
0
 40
0
 40
0
 40
0
 40
1
 40
1
 40
1
 40
1
 10
25.026341
 20
55.139299
 30
0.0
 10
24.848342
 20
54.709574
 30
0.0
 10
24.946732
 20
54.214938
 30
0.0
 10
25.275629
 20
53.886041
 30
0.0
  0
SPLINE
  5
14d
100
AcDbEntity
  8
0
 62
7
100
AcDbSpline
 70
8
 71
3
 72
8
 73
4
 74
0
 40
0
 40
0
 40
0
 40
0
 40
1
 40
1
 40
1
 40
1
 10
25.275629
 20
53.886041
 30
0.0
 10
25.604527
 20
53.557143
 30
0.0
 10
26.099162
 20
53.458754
 30
0.0
 10
26.528888
 20
53.636752
 30
0.0
  0
SPLINE
  5
14e
100
AcDbEntity
  8
0
 62
7
100
AcDbSpline
 70
8
 71
3
 72
8
 73
4
 74
0
 40
0
 40
0
 40
0
 40
0
 40
1
 40
1
 40
1
 40
1
 10
26.528888
 20
53.636752
 30
0.0
 10
26.958614
 20
53.814750
 30
0.0
 10
27.238802
 20
54.234082
 30
0.0
 10
27.238802
 20
54.699213
 30
0.0
  0
SPLINE
  5
14f
100
AcDbEntity
  8
0
 62
7
100
AcDbSpline
 70
8
 71
3
 72
8
 73
4
 74
0
 40
0
 40
0
 40
0
 40
0
 40
1
 40
1
 40
1
 40
1
 10
27.238802
 20
54.699213
 30
0.0
 10
27.238802
 20
55.004212
 30
0.0
 10
27.117642
 20
55.296719
 30
0.0
 10
26.901975
 20
55.512386
 30
0.0
  0
SPLINE
  5
150
100
AcDbEntity
  8
0
 62
7
100
AcDbSpline
 70
8
 71
3
 72
8
 73
4
 74
0
 40
0
 40
0
 40
0
 40
0
 40
1
 40
1
 40
1
 40
1
 10
26.901975
 20
55.512386
 30
0.0
 10
26.686308
 20
55.728053
 30
0.0
 10
26.393801
 20
55.849213
 30
0.0
 10
26.088802
 20
55.849213
 30
0.0
  0
LWPOLYLINE
  5
151
100
AcDbEntity
  8
0
 62
7
100
AcDbPolyline
 90
1
 70
1
 10
82.918007
 20
70.446314
 30
0.0
  0
SPLINE
  5
152
100
AcDbEntity
  8
0
 62
7
100
AcDbSpline
 70
8
 71
3
 72
8
 73
4
 74
0
 40
0
 40
0
 40
0
 40
0
 40
1
 40
1
 40
1
 40
1
 10
55.918004
 20
31.246311
 30
0.0
 10
55.282877
 20
31.246311
 30
0.0
 10
54.768004
 20
30.731438
 30
0.0
 10
54.768004
 20
30.096310
 30
0.0
  0
SPLINE
  5
153
100
AcDbEntity
  8
0
 62
7
100
AcDbSpline
 70
8
 71
3
 72
8
 73
4
 74
0
 40
0
 40
0
 40
0
 40
0
 40
1
 40
1
 40
1
 40
1
 10
54.768004
 20
30.096310
 30
0.0
 10
54.768004
 20
29.461183
 30
0.0
 10
55.282877
 20
28.946310
 30
0.0
 10
55.918004
 20
28.946310
 30
0.0
  0
SPLINE
  5
154
100
AcDbEntity
  8
0
 62
7
100
AcDbSpline
 70
8
 71
3
 72
8
 73
4
 74
0
 40
0
 40
0
 40
0
 40
0
 40
1
 40
1
 40
1
 40
1
 10
55.918004
 20
28.946310
 30
0.0
 10
56.553132
 20
28.946310
 30
0.0
 10
57.068005
 20
29.461183
 30
0.0
 10
57.068005
 20
30.096310
 30
0.0
  0
SPLINE
  5
155
100
AcDbEntity
  8
0
 62
7
100
AcDbSpline
 70
8
 71
3
 72
8
 73
4
 74
0
 40
0
 40
0
 40
0
 40
0
 40
1
 40
1
 40
1
 40
1
 10
57.068005
 20
30.096310
 30
0.0
 10
57.068005
 20
30.401309
 30
0.0
 10
56.946844
 20
30.693816
 30
0.0
 10
56.731177
 20
30.909483
 30
0.0
  0
SPLINE
  5
156
100
AcDbEntity
  8
0
 62
7
100
AcDbSpline
 70
8
 71
3
 72
8
 73
4
 74
0
 40
0
 40
0
 40
0
 40
0
 40
1
 40
1
 40
1
 40
1
 10
56.731177
 20
30.909483
 30
0.0
 10
56.515511
 20
31.125150
 30
0.0
 10
56.223003
 20
31.246311
 30
0.0
 10
55.918004
 20
31.246311
 30
0.0
  0
LWPOLYLINE
  5
157
100
AcDbEntity
  8
0
 62
7
100
AcDbPolyline
 90
1
 70
1
 10
26.088802
 20
55.849213
 30
0.0
  0
SPLINE
  5
158
100
AcDbEntity
  8
0
 62
7
100
AcDbSpline
 70
8
 71
3
 72
8
 73
4
 74
0
 40
0
 40
0
 40
0
 40
0
 40
1
 40
1
 40
1
 40
1
 10
101.186208
 20
16.453709
 30
0.0
 10
100.721077
 20
16.453709
 30
0.0
 10
100.301745
 20
16.173521
 30
0.0
 10
100.123747
 20
15.743795
 30
0.0
  0
SPLINE
  5
159
100
AcDbEntity
  8
0
 62
7
100
AcDbSpline
 70
8
 71
3
 72
8
 73
4
 74
0
 40
0
 40
0
 40
0
 40
0
 40
1
 40
1
 40
1
 40
1
 10
100.123747
 20
15.743795
 30
0.0
 10
99.945748
 20
15.314070
 30
0.0
 10
100.044138
 20
14.819434
 30
0.0
 10
100.373035
 20
14.490536
 30
0.0
  0
SPLINE
  5
15a
100
AcDbEntity
  8
0
 62
7
100
AcDbSpline
 70
8
 71
3
 72
8
 73
4
 74
0
 40
0
 40
0
 40
0
 40
0
 40
1
 40
1
 40
1
 40
1
 10
100.373035
 20
14.490536
 30
0.0
 10
100.701933
 20
14.161639
 30
0.0
 10
101.196569
 20
14.063250
 30
0.0
 10
101.626294
 20
14.241248
 30
0.0
  0
SPLINE
  5
15b
100
AcDbEntity
  8
0
 62
7
100
AcDbSpline
 70
8
 71
3
 72
8
 73
4
 74
0
 40
0
 40
0
 40
0
 40
0
 40
1
 40
1
 40
1
 40
1
 10
101.626294
 20
14.241248
 30
0.0
 10
102.056020
 20
14.419246
 30
0.0
 10
102.336208
 20
14.838578
 30
0.0
 10
102.336208
 20
15.303709
 30
0.0
  0
SPLINE
  5
15c
100
AcDbEntity
  8
0
 62
7
100
AcDbSpline
 70
8
 71
3
 72
8
 73
4
 74
0
 40
0
 40
0
 40
0
 40
0
 40
1
 40
1
 40
1
 40
1
 10
102.336208
 20
15.303709
 30
0.0
 10
102.336208
 20
15.608708
 30
0.0
 10
102.215048
 20
15.901215
 30
0.0
 10
101.999381
 20
16.116882
 30
0.0
  0
SPLINE
  5
15d
100
AcDbEntity
  8
0
 62
7
100
AcDbSpline
 70
8
 71
3
 72
8
 73
4
 74
0
 40
0
 40
0
 40
0
 40
0
 40
1
 40
1
 40
1
 40
1
 10
101.999381
 20
16.116882
 30
0.0
 10
101.783714
 20
16.332549
 30
0.0
 10
101.491207
 20
16.453709
 30
0.0
 10
101.186208
 20
16.453709
 30
0.0
  0
LWPOLYLINE
  5
15e
100
AcDbEntity
  8
0
 62
7
100
AcDbPolyline
 90
1
 70
1
 10
55.918004
 20
31.246311
 30
0.0
  0
SPLINE
  5
15f
100
AcDbEntity
  8
0
 62
7
100
AcDbSpline
 70
8
 71
3
 72
8
 73
4
 74
0
 40
0
 40
0
 40
0
 40
0
 40
1
 40
1
 40
1
 40
1
 10
121.250510
 20
24.200710
 30
0.0
 10
120.805601
 20
24.200710
 30
0.0
 10
120.404501
 20
23.932704
 30
0.0
 10
120.234242
 20
23.521662
 30
0.0
  0
SPLINE
  5
160
100
AcDbEntity
  8
0
 62
7
100
AcDbSpline
 70
8
 71
3
 72
8
 73
4
 74
0
 40
0
 40
0
 40
0
 40
0
 40
1
 40
1
 40
1
 40
1
 10
120.234242
 20
23.521662
 30
0.0
 10
120.063983
 20
23.110620
 30
0.0
 10
120.158094
 20
22.637490
 30
0.0
 10
120.472692
 20
22.322892
 30
0.0
  0
SPLINE
  5
161
100
AcDbEntity
  8
0
 62
7
100
AcDbSpline
 70
8
 71
3
 72
8
 73
4
 74
0
 40
0
 40
0
 40
0
 40
0
 40
1
 40
1
 40
1
 40
1
 10
120.472692
 20
22.322892
 30
0.0
 10
120.787290
 20
22.008295
 30
0.0
 10
121.260420
 20
21.914183
 30
0.0
 10
121.671462
 20
22.084442
 30
0.0
  0
SPLINE
  5
162
100
AcDbEntity
  8
0
 62
7
100
AcDbSpline
 70
8
 71
3
 72
8
 73
4
 74
0
 40
0
 40
0
 40
0
 40
0
 40
1
 40
1
 40
1
 40
1
 10
121.671462
 20
22.084442
 30
0.0
 10
122.082503
 20
22.254701
 30
0.0
 10
122.350510
 20
22.655801
 30
0.0
 10
122.350510
 20
23.100710
 30
0.0
  0
SPLINE
  5
163
100
AcDbEntity
  8
0
 62
7
100
AcDbSpline
 70
8
 71
3
 72
8
 73
4
 74
0
 40
0
 40
0
 40
0
 40
0
 40
1
 40
1
 40
1
 40
1
 10
122.350510
 20
23.100710
 30
0.0
 10
122.350510
 20
23.392448
 30
0.0
 10
122.234617
 20
23.672237
 30
0.0
 10
122.028327
 20
23.878527
 30
0.0
  0
SPLINE
  5
164
100
AcDbEntity
  8
0
 62
7
100
AcDbSpline
 70
8
 71
3
 72
8
 73
4
 74
0
 40
0
 40
0
 40
0
 40
0
 40
1
 40
1
 40
1
 40
1
 10
122.028327
 20
23.878527
 30
0.0
 10
121.822037
 20
24.084817
 30
0.0
 10
121.542248
 20
24.200710
 30
0.0
 10
121.250510
 20
24.200710
 30
0.0
  0
LWPOLYLINE
  5
165
100
AcDbEntity
  8
0
 62
7
100
AcDbPolyline
 90
1
 70
1
 10
101.186208
 20
16.453709
 30
0.0
  0
SPLINE
  5
166
100
AcDbEntity
  8
0
 62
7
100
AcDbSpline
 70
8
 71
3
 72
8
 73
4
 74
0
 40
0
 40
0
 40
0
 40
0
 40
1
 40
1
 40
1
 40
1
 10
104.806708
 20
31.522011
 30
0.0
 10
104.361800
 20
31.522011
 30
0.0
 10
103.960700
 20
31.254004
 30
0.0
 10
103.790441
 20
30.842962
 30
0.0
  0
SPLINE
  5
167
100
AcDbEntity
  8
0
 62
7
100
AcDbSpline
 70
8
 71
3
 72
8
 73
4
 74
0
 40
0
 40
0
 40
0
 40
0
 40
1
 40
1
 40
1
 40
1
 10
103.790441
 20
30.842962
 30
0.0
 10
103.620182
 20
30.431920
 30
0.0
 10
103.714293
 20
29.958791
 30
0.0
 10
104.028891
 20
29.644193
 30
0.0
  0
SPLINE
  5
168
100
AcDbEntity
  8
0
 62
7
100
AcDbSpline
 70
8
 71
3
 72
8
 73
4
 74
0
 40
0
 40
0
 40
0
 40
0
 40
1
 40
1
 40
1
 40
1
 10
104.028891
 20
29.644193
 30
0.0
 10
104.343489
 20
29.329595
 30
0.0
 10
104.816618
 20
29.235484
 30
0.0
 10
105.227660
 20
29.405743
 30
0.0
  0
SPLINE
  5
169
100
AcDbEntity
  8
0
 62
7
100
AcDbSpline
 70
8
 71
3
 72
8
 73
4
 74
0
 40
0
 40
0
 40
0
 40
0
 40
1
 40
1
 40
1
 40
1
 10
105.227660
 20
29.405743
 30
0.0
 10
105.638702
 20
29.576002
 30
0.0
 10
105.906709
 20
29.977102
 30
0.0
 10
105.906709
 20
30.422010
 30
0.0
  0
SPLINE
  5
16a
100
AcDbEntity
  8
0
 62
7
100
AcDbSpline
 70
8
 71
3
 72
8
 73
4
 74
0
 40
0
 40
0
 40
0
 40
0
 40
1
 40
1
 40
1
 40
1
 10
105.906709
 20
30.422010
 30
0.0
 10
105.906709
 20
30.713749
 30
0.0
 10
105.790816
 20
30.993538
 30
0.0
 10
105.584526
 20
31.199828
 30
0.0
  0
SPLINE
  5
16b
100
AcDbEntity
  8
0
 62
7
100
AcDbSpline
 70
8
 71
3
 72
8
 73
4
 74
0
 40
0
 40
0
 40
0
 40
0
 40
1
 40
1
 40
1
 40
1
 10
105.584526
 20
31.199828
 30
0.0
 10
105.378236
 20
31.406118
 30
0.0
 10
105.098447
 20
31.522011
 30
0.0
 10
104.806708
 20
31.522011
 30
0.0
  0
LWPOLYLINE
  5
16c
100
AcDbEntity
  8
0
 62
7
100
AcDbPolyline
 90
1
 70
1
 10
121.250510
 20
24.200710
 30
0.0
  0
SPLINE
  5
16d
100
AcDbEntity
  8
0
 62
7
100
AcDbSpline
 70
8
 71
3
 72
8
 73
4
 74
0
 40
0
 40
0
 40
0
 40
0
 40
1
 40
1
 40
1
 40
1
 10
23.816602
 20
74.387014
 30
0.0
 10
23.371693
 20
74.387014
 30
0.0
 10
22.970593
 20
74.119008
 30
0.0
 10
22.800334
 20
73.707966
 30
0.0
  0
SPLINE
  5
16e
100
AcDbEntity
  8
0
 62
7
100
AcDbSpline
 70
8
 71
3
 72
8
 73
4
 74
0
 40
0
 40
0
 40
0
 40
0
 40
1
 40
1
 40
1
 40
1
 10
22.800334
 20
73.707966
 30
0.0
 10
22.630075
 20
73.296924
 30
0.0
 10
22.724187
 20
72.823794
 30
0.0
 10
23.038784
 20
72.509196
 30
0.0
  0
SPLINE
  5
16f
100
AcDbEntity
  8
0
 62
7
100
AcDbSpline
 70
8
 71
3
 72
8
 73
4
 74
0
 40
0
 40
0
 40
0
 40
0
 40
1
 40
1
 40
1
 40
1
 10
23.038784
 20
72.509196
 30
0.0
 10
23.353382
 20
72.194599
 30
0.0
 10
23.826512
 20
72.100487
 30
0.0
 10
24.237554
 20
72.270746
 30
0.0
  0
SPLINE
  5
170
100
AcDbEntity
  8
0
 62
7
100
AcDbSpline
 70
8
 71
3
 72
8
 73
4
 74
0
 40
0
 40
0
 40
0
 40
0
 40
1
 40
1
 40
1
 40
1
 10
24.237554
 20
72.270746
 30
0.0
 10
24.648596
 20
72.441005
 30
0.0
 10
24.916602
 20
72.842105
 30
0.0
 10
24.916602
 20
73.287014
 30
0.0
  0
SPLINE
  5
171
100
AcDbEntity
  8
0
 62
7
100
AcDbSpline
 70
8
 71
3
 72
8
 73
4
 74
0
 40
0
 40
0
 40
0
 40
0
 40
1
 40
1
 40
1
 40
1
 10
24.916602
 20
73.287014
 30
0.0
 10
24.916602
 20
73.578752
 30
0.0
 10
24.800709
 20
73.858541
 30
0.0
 10
24.594419
 20
74.064831
 30
0.0
  0
SPLINE
  5
172
100
AcDbEntity
  8
0
 62
7
100
AcDbSpline
 70
8
 71
3
 72
8
 73
4
 74
0
 40
0
 40
0
 40
0
 40
0
 40
1
 40
1
 40
1
 40
1
 10
24.594419
 20
74.064831
 30
0.0
 10
24.388129
 20
74.271121
 30
0.0
 10
24.108340
 20
74.387014
 30
0.0
 10
23.816602
 20
74.387014
 30
0.0
  0
LWPOLYLINE
  5
173
100
AcDbEntity
  8
0
 62
7
100
AcDbPolyline
 90
1
 70
1
 10
104.806708
 20
31.522011
 30
0.0
  0
SPLINE
  5
174
100
AcDbEntity
  8
0
 62
7
100
AcDbSpline
 70
8
 71
3
 72
8
 73
4
 74
0
 40
0
 40
0
 40
0
 40
0
 40
1
 40
1
 40
1
 40
1
 10
82.918007
 20
70.396314
 30
0.0
 10
82.473098
 20
70.396314
 30
0.0
 10
82.071998
 20
70.128307
 30
0.0
 10
81.901739
 20
69.717265
 30
0.0
  0
SPLINE
  5
175
100
AcDbEntity
  8
0
 62
7
100
AcDbSpline
 70
8
 71
3
 72
8
 73
4
 74
0
 40
0
 40
0
 40
0
 40
0
 40
1
 40
1
 40
1
 40
1
 10
81.901739
 20
69.717265
 30
0.0
 10
81.731480
 20
69.306224
 30
0.0
 10
81.825591
 20
68.833094
 30
0.0
 10
82.140189
 20
68.518496
 30
0.0
  0
SPLINE
  5
176
100
AcDbEntity
  8
0
 62
7
100
AcDbSpline
 70
8
 71
3
 72
8
 73
4
 74
0
 40
0
 40
0
 40
0
 40
0
 40
1
 40
1
 40
1
 40
1
 10
82.140189
 20
68.518496
 30
0.0
 10
82.454787
 20
68.203898
 30
0.0
 10
82.927917
 20
68.109787
 30
0.0
 10
83.338958
 20
68.280046
 30
0.0
  0
SPLINE
  5
177
100
AcDbEntity
  8
0
 62
7
100
AcDbSpline
 70
8
 71
3
 72
8
 73
4
 74
0
 40
0
 40
0
 40
0
 40
0
 40
1
 40
1
 40
1
 40
1
 10
83.338958
 20
68.280046
 30
0.0
 10
83.750000
 20
68.450305
 30
0.0
 10
84.018007
 20
68.851405
 30
0.0
 10
84.018007
 20
69.296314
 30
0.0
  0
SPLINE
  5
178
100
AcDbEntity
  8
0
 62
7
100
AcDbSpline
 70
8
 71
3
 72
8
 73
4
 74
0
 40
0
 40
0
 40
0
 40
0
 40
1
 40
1
 40
1
 40
1
 10
84.018007
 20
69.296314
 30
0.0
 10
84.018007
 20
69.588052
 30
0.0
 10
83.902114
 20
69.867841
 30
0.0
 10
83.695824
 20
70.074131
 30
0.0
  0
SPLINE
  5
179
100
AcDbEntity
  8
0
 62
7
100
AcDbSpline
 70
8
 71
3
 72
8
 73
4
 74
0
 40
0
 40
0
 40
0
 40
0
 40
1
 40
1
 40
1
 40
1
 10
83.695824
 20
70.074131
 30
0.0
 10
83.489534
 20
70.280421
 30
0.0
 10
83.209745
 20
70.396314
 30
0.0
 10
82.918007
 20
70.396314
 30
0.0
  0
LWPOLYLINE
  5
17a
100
AcDbEntity
  8
0
 62
7
100
AcDbPolyline
 90
1
 70
1
 10
23.816602
 20
74.387014
 30
0.0
  0
SPLINE
  5
17b
100
AcDbEntity
  8
0
 62
7
100
AcDbSpline
 70
8
 71
3
 72
8
 73
4
 74
0
 40
0
 40
0
 40
0
 40
0
 40
1
 40
1
 40
1
 40
1
 10
26.088802
 20
55.799213
 30
0.0
 10
25.643894
 20
55.799213
 30
0.0
 10
25.242794
 20
55.531207
 30
0.0
 10
25.072535
 20
55.120165
 30
0.0
  0
SPLINE
  5
17c
100
AcDbEntity
  8
0
 62
7
100
AcDbSpline
 70
8
 71
3
 72
8
 73
4
 74
0
 40
0
 40
0
 40
0
 40
0
 40
1
 40
1
 40
1
 40
1
 10
25.072535
 20
55.120165
 30
0.0
 10
24.902275
 20
54.709123
 30
0.0
 10
24.996387
 20
54.235994
 30
0.0
 10
25.310985
 20
53.921396
 30
0.0
  0
SPLINE
  5
17d
100
AcDbEntity
  8
0
 62
7
100
AcDbSpline
 70
8
 71
3
 72
8
 73
4
 74
0
 40
0
 40
0
 40
0
 40
0
 40
1
 40
1
 40
1
 40
1
 10
25.310985
 20
53.921396
 30
0.0
 10
25.625582
 20
53.606798
 30
0.0
 10
26.098712
 20
53.512687
 30
0.0
 10
26.509754
 20
53.682946
 30
0.0
  0
SPLINE
  5
17e
100
AcDbEntity
  8
0
 62
7
100
AcDbSpline
 70
8
 71
3
 72
8
 73
4
 74
0
 40
0
 40
0
 40
0
 40
0
 40
1
 40
1
 40
1
 40
1
 10
26.509754
 20
53.682946
 30
0.0
 10
26.920796
 20
53.853205
 30
0.0
 10
27.188802
 20
54.254305
 30
0.0
 10
27.188802
 20
54.699213
 30
0.0
  0
SPLINE
  5
17f
100
AcDbEntity
  8
0
 62
7
100
AcDbSpline
 70
8
 71
3
 72
8
 73
4
 74
0
 40
0
 40
0
 40
0
 40
0
 40
1
 40
1
 40
1
 40
1
 10
27.188802
 20
54.699213
 30
0.0
 10
27.188802
 20
55.306727
 30
0.0
 10
26.696315
 20
55.799213
 30
0.0
 10
26.088802
 20
55.799213
 30
0.0
  0
LWPOLYLINE
  5
180
100
AcDbEntity
  8
0
 62
7
100
AcDbPolyline
 90
1
 70
1
 10
82.918007
 20
70.396314
 30
0.0
  0
SPLINE
  5
181
100
AcDbEntity
  8
0
 62
7
100
AcDbSpline
 70
8
 71
3
 72
8
 73
4
 74
0
 40
0
 40
0
 40
0
 40
0
 40
1
 40
1
 40
1
 40
1
 10
55.918004
 20
31.196311
 30
0.0
 10
55.473096
 20
31.196311
 30
0.0
 10
55.071996
 20
30.928304
 30
0.0
 10
54.901737
 20
30.517262
 30
0.0
  0
SPLINE
  5
182
100
AcDbEntity
  8
0
 62
7
100
AcDbSpline
 70
8
 71
3
 72
8
 73
4
 74
0
 40
0
 40
0
 40
0
 40
0
 40
1
 40
1
 40
1
 40
1
 10
54.901737
 20
30.517262
 30
0.0
 10
54.731478
 20
30.106220
 30
0.0
 10
54.825589
 20
29.633091
 30
0.0
 10
55.140187
 20
29.318493
 30
0.0
  0
SPLINE
  5
183
100
AcDbEntity
  8
0
 62
7
100
AcDbSpline
 70
8
 71
3
 72
8
 73
4
 74
0
 40
0
 40
0
 40
0
 40
0
 40
1
 40
1
 40
1
 40
1
 10
55.140187
 20
29.318493
 30
0.0
 10
55.454785
 20
29.003895
 30
0.0
 10
55.927914
 20
28.909784
 30
0.0
 10
56.338956
 20
29.080043
 30
0.0
  0
SPLINE
  5
184
100
AcDbEntity
  8
0
 62
7
100
AcDbSpline
 70
8
 71
3
 72
8
 73
4
 74
0
 40
0
 40
0
 40
0
 40
0
 40
1
 40
1
 40
1
 40
1
 10
56.338956
 20
29.080043
 30
0.0
 10
56.749998
 20
29.250302
 30
0.0
 10
57.018005
 20
29.651402
 30
0.0
 10
57.018005
 20
30.096310
 30
0.0
  0
SPLINE
  5
185
100
AcDbEntity
  8
0
 62
7
100
AcDbSpline
 70
8
 71
3
 72
8
 73
4
 74
0
 40
0
 40
0
 40
0
 40
0
 40
1
 40
1
 40
1
 40
1
 10
57.018005
 20
30.096310
 30
0.0
 10
57.018005
 20
30.388049
 30
0.0
 10
56.902112
 20
30.667838
 30
0.0
 10
56.695822
 20
30.874128
 30
0.0
  0
SPLINE
  5
186
100
AcDbEntity
  8
0
 62
7
100
AcDbSpline
 70
8
 71
3
 72
8
 73
4
 74
0
 40
0
 40
0
 40
0
 40
0
 40
1
 40
1
 40
1
 40
1
 10
56.695822
 20
30.874128
 30
0.0
 10
56.489532
 20
31.080418
 30
0.0
 10
56.209743
 20
31.196311
 30
0.0
 10
55.918004
 20
31.196311
 30
0.0
  0
LWPOLYLINE
  5
187
100
AcDbEntity
  8
0
 62
7
100
AcDbPolyline
 90
1
 70
1
 10
26.088802
 20
55.799213
 30
0.0
  0
SPLINE
  5
188
100
AcDbEntity
  8
0
 62
7
100
AcDbSpline
 70
8
 71
3
 72
8
 73
4
 74
0
 40
0
 40
0
 40
0
 40
0
 40
1
 40
1
 40
1
 40
1
 10
101.186208
 20
16.403709
 30
0.0
 10
100.741300
 20
16.403709
 30
0.0
 10
100.340200
 20
16.135703
 30
0.0
 10
100.169941
 20
15.724661
 30
0.0
  0
SPLINE
  5
189
100
AcDbEntity
  8
0
 62
7
100
AcDbSpline
 70
8
 71
3
 72
8
 73
4
 74
0
 40
0
 40
0
 40
0
 40
0
 40
1
 40
1
 40
1
 40
1
 10
100.169941
 20
15.724661
 30
0.0
 10
99.999681
 20
15.313619
 30
0.0
 10
100.093793
 20
14.840490
 30
0.0
 10
100.408391
 20
14.525892
 30
0.0
  0
SPLINE
  5
18a
100
AcDbEntity
  8
0
 62
7
100
AcDbSpline
 70
8
 71
3
 72
8
 73
4
 74
0
 40
0
 40
0
 40
0
 40
0
 40
1
 40
1
 40
1
 40
1
 10
100.408391
 20
14.525892
 30
0.0
 10
100.722988
 20
14.211294
 30
0.0
 10
101.196118
 20
14.117183
 30
0.0
 10
101.607160
 20
14.287442
 30
0.0
  0
SPLINE
  5
18b
100
AcDbEntity
  8
0
 62
7
100
AcDbSpline
 70
8
 71
3
 72
8
 73
4
 74
0
 40
0
 40
0
 40
0
 40
0
 40
1
 40
1
 40
1
 40
1
 10
101.607160
 20
14.287442
 30
0.0
 10
102.018202
 20
14.457701
 30
0.0
 10
102.286208
 20
14.858801
 30
0.0
 10
102.286208
 20
15.303709
 30
0.0
  0
SPLINE
  5
18c
100
AcDbEntity
  8
0
 62
7
100
AcDbSpline
 70
8
 71
3
 72
8
 73
4
 74
0
 40
0
 40
0
 40
0
 40
0
 40
1
 40
1
 40
1
 40
1
 10
102.286208
 20
15.303709
 30
0.0
 10
102.286208
 20
15.595447
 30
0.0
 10
102.170316
 20
15.875237
 30
0.0
 10
101.964026
 20
16.081527
 30
0.0
  0
SPLINE
  5
18d
100
AcDbEntity
  8
0
 62
7
100
AcDbSpline
 70
8
 71
3
 72
8
 73
4
 74
0
 40
0
 40
0
 40
0
 40
0
 40
1
 40
1
 40
1
 40
1
 10
101.964026
 20
16.081527
 30
0.0
 10
101.757736
 20
16.287817
 30
0.0
 10
101.477946
 20
16.403709
 30
0.0
 10
101.186208
 20
16.403709
 30
0.0
  0
LWPOLYLINE
  5
18e
100
AcDbEntity
  8
0
 62
7
100
AcDbPolyline
 90
1
 70
1
 10
55.918004
 20
31.196311
 30
0.0
  0
SPLINE
  5
18f
100
AcDbEntity
  8
0
 62
7
100
AcDbSpline
 70
8
 71
3
 72
8
 73
4
 74
0
 40
0
 40
0
 40
0
 40
0
 40
1
 40
1
 40
1
 40
1
 10
121.250510
 20
24.200710
 30
0.0
 10
120.805601
 20
24.200710
 30
0.0
 10
120.404501
 20
23.932704
 30
0.0
 10
120.234242
 20
23.521662
 30
0.0
  0
SPLINE
  5
190
100
AcDbEntity
  8
0
 62
7
100
AcDbSpline
 70
8
 71
3
 72
8
 73
4
 74
0
 40
0
 40
0
 40
0
 40
0
 40
1
 40
1
 40
1
 40
1
 10
120.234242
 20
23.521662
 30
0.0
 10
120.063983
 20
23.110620
 30
0.0
 10
120.158094
 20
22.637490
 30
0.0
 10
120.472692
 20
22.322892
 30
0.0
  0
SPLINE
  5
191
100
AcDbEntity
  8
0
 62
7
100
AcDbSpline
 70
8
 71
3
 72
8
 73
4
 74
0
 40
0
 40
0
 40
0
 40
0
 40
1
 40
1
 40
1
 40
1
 10
120.472692
 20
22.322892
 30
0.0
 10
120.787290
 20
22.008295
 30
0.0
 10
121.260420
 20
21.914183
 30
0.0
 10
121.671462
 20
22.084442
 30
0.0
  0
SPLINE
  5
192
100
AcDbEntity
  8
0
 62
7
100
AcDbSpline
 70
8
 71
3
 72
8
 73
4
 74
0
 40
0
 40
0
 40
0
 40
0
 40
1
 40
1
 40
1
 40
1
 10
121.671462
 20
22.084442
 30
0.0
 10
122.082503
 20
22.254701
 30
0.0
 10
122.350510
 20
22.655801
 30
0.0
 10
122.350510
 20
23.100710
 30
0.0
  0
SPLINE
  5
193
100
AcDbEntity
  8
0
 62
7
100
AcDbSpline
 70
8
 71
3
 72
8
 73
4
 74
0
 40
0
 40
0
 40
0
 40
0
 40
1
 40
1
 40
1
 40
1
 10
122.350510
 20
23.100710
 30
0.0
 10
122.350510
 20
23.392448
 30
0.0
 10
122.234617
 20
23.672237
 30
0.0
 10
122.028327
 20
23.878527
 30
0.0
  0
SPLINE
  5
194
100
AcDbEntity
  8
0
 62
7
100
AcDbSpline
 70
8
 71
3
 72
8
 73
4
 74
0
 40
0
 40
0
 40
0
 40
0
 40
1
 40
1
 40
1
 40
1
 10
122.028327
 20
23.878527
 30
0.0
 10
121.822037
 20
24.084817
 30
0.0
 10
121.542248
 20
24.200710
 30
0.0
 10
121.250510
 20
24.200710
 30
0.0
  0
LWPOLYLINE
  5
195
100
AcDbEntity
  8
0
 62
7
100
AcDbPolyline
 90
1
 70
1
 10
101.186208
 20
16.403709
 30
0.0
  0
SPLINE
  5
196
100
AcDbEntity
  8
0
 62
7
100
AcDbSpline
 70
8
 71
3
 72
8
 73
4
 74
0
 40
0
 40
0
 40
0
 40
0
 40
1
 40
1
 40
1
 40
1
 10
104.806708
 20
31.522011
 30
0.0
 10
104.361800
 20
31.522011
 30
0.0
 10
103.960700
 20
31.254004
 30
0.0
 10
103.790441
 20
30.842962
 30
0.0
  0
SPLINE
  5
197
100
AcDbEntity
  8
0
 62
7
100
AcDbSpline
 70
8
 71
3
 72
8
 73
4
 74
0
 40
0
 40
0
 40
0
 40
0
 40
1
 40
1
 40
1
 40
1
 10
103.790441
 20
30.842962
 30
0.0
 10
103.620182
 20
30.431920
 30
0.0
 10
103.714293
 20
29.958791
 30
0.0
 10
104.028891
 20
29.644193
 30
0.0
  0
SPLINE
  5
198
100
AcDbEntity
  8
0
 62
7
100
AcDbSpline
 70
8
 71
3
 72
8
 73
4
 74
0
 40
0
 40
0
 40
0
 40
0
 40
1
 40
1
 40
1
 40
1
 10
104.028891
 20
29.644193
 30
0.0
 10
104.343489
 20
29.329595
 30
0.0
 10
104.816618
 20
29.235484
 30
0.0
 10
105.227660
 20
29.405743
 30
0.0
  0
SPLINE
  5
199
100
AcDbEntity
  8
0
 62
7
100
AcDbSpline
 70
8
 71
3
 72
8
 73
4
 74
0
 40
0
 40
0
 40
0
 40
0
 40
1
 40
1
 40
1
 40
1
 10
105.227660
 20
29.405743
 30
0.0
 10
105.638702
 20
29.576002
 30
0.0
 10
105.906709
 20
29.977102
 30
0.0
 10
105.906709
 20
30.422010
 30
0.0
  0
SPLINE
  5
19a
100
AcDbEntity
  8
0
 62
7
100
AcDbSpline
 70
8
 71
3
 72
8
 73
4
 74
0
 40
0
 40
0
 40
0
 40
0
 40
1
 40
1
 40
1
 40
1
 10
105.906709
 20
30.422010
 30
0.0
 10
105.906709
 20
30.713749
 30
0.0
 10
105.790816
 20
30.993538
 30
0.0
 10
105.584526
 20
31.199828
 30
0.0
  0
SPLINE
  5
19b
100
AcDbEntity
  8
0
 62
7
100
AcDbSpline
 70
8
 71
3
 72
8
 73
4
 74
0
 40
0
 40
0
 40
0
 40
0
 40
1
 40
1
 40
1
 40
1
 10
105.584526
 20
31.199828
 30
0.0
 10
105.378236
 20
31.406118
 30
0.0
 10
105.098447
 20
31.522011
 30
0.0
 10
104.806708
 20
31.522011
 30
0.0
  0
LWPOLYLINE
  5
19c
100
AcDbEntity
  8
0
 62
7
100
AcDbPolyline
 90
1
 70
1
 10
121.250510
 20
24.200710
 30
0.0
  0
SPLINE
  5
19d
100
AcDbEntity
  8
0
 62
7
100
AcDbSpline
 70
8
 71
3
 72
8
 73
4
 74
0
 40
0
 40
0
 40
0
 40
0
 40
1
 40
1
 40
1
 40
1
 10
23.816602
 20
74.387014
 30
0.0
 10
23.371693
 20
74.387014
 30
0.0
 10
22.970593
 20
74.119008
 30
0.0
 10
22.800334
 20
73.707966
 30
0.0
  0
SPLINE
  5
19e
100
AcDbEntity
  8
0
 62
7
100
AcDbSpline
 70
8
 71
3
 72
8
 73
4
 74
0
 40
0
 40
0
 40
0
 40
0
 40
1
 40
1
 40
1
 40
1
 10
22.800334
 20
73.707966
 30
0.0
 10
22.630075
 20
73.296924
 30
0.0
 10
22.724187
 20
72.823794
 30
0.0
 10
23.038784
 20
72.509196
 30
0.0
  0
SPLINE
  5
19f
100
AcDbEntity
  8
0
 62
7
100
AcDbSpline
 70
8
 71
3
 72
8
 73
4
 74
0
 40
0
 40
0
 40
0
 40
0
 40
1
 40
1
 40
1
 40
1
 10
23.038784
 20
72.509196
 30
0.0
 10
23.353382
 20
72.194599
 30
0.0
 10
23.826512
 20
72.100487
 30
0.0
 10
24.237554
 20
72.270746
 30
0.0
  0
SPLINE
  5
1a0
100
AcDbEntity
  8
0
 62
7
100
AcDbSpline
 70
8
 71
3
 72
8
 73
4
 74
0
 40
0
 40
0
 40
0
 40
0
 40
1
 40
1
 40
1
 40
1
 10
24.237554
 20
72.270746
 30
0.0
 10
24.648596
 20
72.441005
 30
0.0
 10
24.916602
 20
72.842105
 30
0.0
 10
24.916602
 20
73.287014
 30
0.0
  0
SPLINE
  5
1a1
100
AcDbEntity
  8
0
 62
7
100
AcDbSpline
 70
8
 71
3
 72
8
 73
4
 74
0
 40
0
 40
0
 40
0
 40
0
 40
1
 40
1
 40
1
 40
1
 10
24.916602
 20
73.287014
 30
0.0
 10
24.916602
 20
73.578752
 30
0.0
 10
24.800709
 20
73.858541
 30
0.0
 10
24.594419
 20
74.064831
 30
0.0
  0
SPLINE
  5
1a2
100
AcDbEntity
  8
0
 62
7
100
AcDbSpline
 70
8
 71
3
 72
8
 73
4
 74
0
 40
0
 40
0
 40
0
 40
0
 40
1
 40
1
 40
1
 40
1
 10
24.594419
 20
74.064831
 30
0.0
 10
24.388129
 20
74.271121
 30
0.0
 10
24.108340
 20
74.387014
 30
0.0
 10
23.816602
 20
74.387014
 30
0.0
  0
LWPOLYLINE
  5
1a3
100
AcDbEntity
  8
0
 62
7
100
AcDbPolyline
 90
1
 70
1
 10
104.806708
 20
31.522011
 30
0.0
  0
SPLINE
  5
1a4
100
AcDbEntity
  8
0
 62
7
100
AcDbSpline
 70
8
 71
3
 72
8
 73
4
 74
0
 40
0
 40
0
 40
0
 40
0
 40
1
 40
1
 40
1
 40
1
 10
82.918007
 20
70.396314
 30
0.0
 10
82.473098
 20
70.396314
 30
0.0
 10
82.071998
 20
70.128307
 30
0.0
 10
81.901739
 20
69.717265
 30
0.0
  0
SPLINE
  5
1a5
100
AcDbEntity
  8
0
 62
7
100
AcDbSpline
 70
8
 71
3
 72
8
 73
4
 74
0
 40
0
 40
0
 40
0
 40
0
 40
1
 40
1
 40
1
 40
1
 10
81.901739
 20
69.717265
 30
0.0
 10
81.731480
 20
69.306224
 30
0.0
 10
81.825591
 20
68.833094
 30
0.0
 10
82.140189
 20
68.518496
 30
0.0
  0
SPLINE
  5
1a6
100
AcDbEntity
  8
0
 62
7
100
AcDbSpline
 70
8
 71
3
 72
8
 73
4
 74
0
 40
0
 40
0
 40
0
 40
0
 40
1
 40
1
 40
1
 40
1
 10
82.140189
 20
68.518496
 30
0.0
 10
82.454787
 20
68.203898
 30
0.0
 10
82.927917
 20
68.109787
 30
0.0
 10
83.338958
 20
68.280046
 30
0.0
  0
SPLINE
  5
1a7
100
AcDbEntity
  8
0
 62
7
100
AcDbSpline
 70
8
 71
3
 72
8
 73
4
 74
0
 40
0
 40
0
 40
0
 40
0
 40
1
 40
1
 40
1
 40
1
 10
83.338958
 20
68.280046
 30
0.0
 10
83.750000
 20
68.450305
 30
0.0
 10
84.018007
 20
68.851405
 30
0.0
 10
84.018007
 20
69.296314
 30
0.0
  0
SPLINE
  5
1a8
100
AcDbEntity
  8
0
 62
7
100
AcDbSpline
 70
8
 71
3
 72
8
 73
4
 74
0
 40
0
 40
0
 40
0
 40
0
 40
1
 40
1
 40
1
 40
1
 10
84.018007
 20
69.296314
 30
0.0
 10
84.018007
 20
69.588052
 30
0.0
 10
83.902114
 20
69.867841
 30
0.0
 10
83.695824
 20
70.074131
 30
0.0
  0
SPLINE
  5
1a9
100
AcDbEntity
  8
0
 62
7
100
AcDbSpline
 70
8
 71
3
 72
8
 73
4
 74
0
 40
0
 40
0
 40
0
 40
0
 40
1
 40
1
 40
1
 40
1
 10
83.695824
 20
70.074131
 30
0.0
 10
83.489534
 20
70.280421
 30
0.0
 10
83.209745
 20
70.396314
 30
0.0
 10
82.918007
 20
70.396314
 30
0.0
  0
LWPOLYLINE
  5
1aa
100
AcDbEntity
  8
0
 62
7
100
AcDbPolyline
 90
1
 70
1
 10
23.816602
 20
74.387014
 30
0.0
  0
SPLINE
  5
1ab
100
AcDbEntity
  8
0
 62
7
100
AcDbSpline
 70
8
 71
3
 72
8
 73
4
 74
0
 40
0
 40
0
 40
0
 40
0
 40
1
 40
1
 40
1
 40
1
 10
26.088802
 20
55.799213
 30
0.0
 10
25.643894
 20
55.799213
 30
0.0
 10
25.242794
 20
55.531207
 30
0.0
 10
25.072535
 20
55.120165
 30
0.0
  0
SPLINE
  5
1ac
100
AcDbEntity
  8
0
 62
7
100
AcDbSpline
 70
8
 71
3
 72
8
 73
4
 74
0
 40
0
 40
0
 40
0
 40
0
 40
1
 40
1
 40
1
 40
1
 10
25.072535
 20
55.120165
 30
0.0
 10
24.902275
 20
54.709123
 30
0.0
 10
24.996387
 20
54.235994
 30
0.0
 10
25.310985
 20
53.921396
 30
0.0
  0
SPLINE
  5
1ad
100
AcDbEntity
  8
0
 62
7
100
AcDbSpline
 70
8
 71
3
 72
8
 73
4
 74
0
 40
0
 40
0
 40
0
 40
0
 40
1
 40
1
 40
1
 40
1
 10
25.310985
 20
53.921396
 30
0.0
 10
25.625582
 20
53.606798
 30
0.0
 10
26.098712
 20
53.512687
 30
0.0
 10
26.509754
 20
53.682946
 30
0.0
  0
SPLINE
  5
1ae
100
AcDbEntity
  8
0
 62
7
100
AcDbSpline
 70
8
 71
3
 72
8
 73
4
 74
0
 40
0
 40
0
 40
0
 40
0
 40
1
 40
1
 40
1
 40
1
 10
26.509754
 20
53.682946
 30
0.0
 10
26.920796
 20
53.853205
 30
0.0
 10
27.188802
 20
54.254305
 30
0.0
 10
27.188802
 20
54.699213
 30
0.0
  0
SPLINE
  5
1af
100
AcDbEntity
  8
0
 62
7
100
AcDbSpline
 70
8
 71
3
 72
8
 73
4
 74
0
 40
0
 40
0
 40
0
 40
0
 40
1
 40
1
 40
1
 40
1
 10
27.188802
 20
54.699213
 30
0.0
 10
27.188802
 20
55.306727
 30
0.0
 10
26.696315
 20
55.799213
 30
0.0
 10
26.088802
 20
55.799213
 30
0.0
  0
LWPOLYLINE
  5
1b0
100
AcDbEntity
  8
0
 62
7
100
AcDbPolyline
 90
1
 70
1
 10
82.918007
 20
70.396314
 30
0.0
  0
SPLINE
  5
1b1
100
AcDbEntity
  8
0
 62
7
100
AcDbSpline
 70
8
 71
3
 72
8
 73
4
 74
0
 40
0
 40
0
 40
0
 40
0
 40
1
 40
1
 40
1
 40
1
 10
55.918004
 20
31.196311
 30
0.0
 10
55.473096
 20
31.196311
 30
0.0
 10
55.071996
 20
30.928304
 30
0.0
 10
54.901737
 20
30.517262
 30
0.0
  0
SPLINE
  5
1b2
100
AcDbEntity
  8
0
 62
7
100
AcDbSpline
 70
8
 71
3
 72
8
 73
4
 74
0
 40
0
 40
0
 40
0
 40
0
 40
1
 40
1
 40
1
 40
1
 10
54.901737
 20
30.517262
 30
0.0
 10
54.731478
 20
30.106220
 30
0.0
 10
54.825589
 20
29.633091
 30
0.0
 10
55.140187
 20
29.318493
 30
0.0
  0
SPLINE
  5
1b3
100
AcDbEntity
  8
0
 62
7
100
AcDbSpline
 70
8
 71
3
 72
8
 73
4
 74
0
 40
0
 40
0
 40
0
 40
0
 40
1
 40
1
 40
1
 40
1
 10
55.140187
 20
29.318493
 30
0.0
 10
55.454785
 20
29.003895
 30
0.0
 10
55.927914
 20
28.909784
 30
0.0
 10
56.338956
 20
29.080043
 30
0.0
  0
SPLINE
  5
1b4
100
AcDbEntity
  8
0
 62
7
100
AcDbSpline
 70
8
 71
3
 72
8
 73
4
 74
0
 40
0
 40
0
 40
0
 40
0
 40
1
 40
1
 40
1
 40
1
 10
56.338956
 20
29.080043
 30
0.0
 10
56.749998
 20
29.250302
 30
0.0
 10
57.018005
 20
29.651402
 30
0.0
 10
57.018005
 20
30.096310
 30
0.0
  0
SPLINE
  5
1b5
100
AcDbEntity
  8
0
 62
7
100
AcDbSpline
 70
8
 71
3
 72
8
 73
4
 74
0
 40
0
 40
0
 40
0
 40
0
 40
1
 40
1
 40
1
 40
1
 10
57.018005
 20
30.096310
 30
0.0
 10
57.018005
 20
30.388049
 30
0.0
 10
56.902112
 20
30.667838
 30
0.0
 10
56.695822
 20
30.874128
 30
0.0
  0
SPLINE
  5
1b6
100
AcDbEntity
  8
0
 62
7
100
AcDbSpline
 70
8
 71
3
 72
8
 73
4
 74
0
 40
0
 40
0
 40
0
 40
0
 40
1
 40
1
 40
1
 40
1
 10
56.695822
 20
30.874128
 30
0.0
 10
56.489532
 20
31.080418
 30
0.0
 10
56.209743
 20
31.196311
 30
0.0
 10
55.918004
 20
31.196311
 30
0.0
  0
LWPOLYLINE
  5
1b7
100
AcDbEntity
  8
0
 62
7
100
AcDbPolyline
 90
1
 70
1
 10
26.088802
 20
55.799213
 30
0.0
  0
SPLINE
  5
1b8
100
AcDbEntity
  8
0
 62
7
100
AcDbSpline
 70
8
 71
3
 72
8
 73
4
 74
0
 40
0
 40
0
 40
0
 40
0
 40
1
 40
1
 40
1
 40
1
 10
101.186208
 20
16.403709
 30
0.0
 10
100.741300
 20
16.403709
 30
0.0
 10
100.340200
 20
16.135703
 30
0.0
 10
100.169941
 20
15.724661
 30
0.0
  0
SPLINE
  5
1b9
100
AcDbEntity
  8
0
 62
7
100
AcDbSpline
 70
8
 71
3
 72
8
 73
4
 74
0
 40
0
 40
0
 40
0
 40
0
 40
1
 40
1
 40
1
 40
1
 10
100.169941
 20
15.724661
 30
0.0
 10
99.999681
 20
15.313619
 30
0.0
 10
100.093793
 20
14.840490
 30
0.0
 10
100.408391
 20
14.525892
 30
0.0
  0
SPLINE
  5
1ba
100
AcDbEntity
  8
0
 62
7
100
AcDbSpline
 70
8
 71
3
 72
8
 73
4
 74
0
 40
0
 40
0
 40
0
 40
0
 40
1
 40
1
 40
1
 40
1
 10
100.408391
 20
14.525892
 30
0.0
 10
100.722988
 20
14.211294
 30
0.0
 10
101.196118
 20
14.117183
 30
0.0
 10
101.607160
 20
14.287442
 30
0.0
  0
SPLINE
  5
1bb
100
AcDbEntity
  8
0
 62
7
100
AcDbSpline
 70
8
 71
3
 72
8
 73
4
 74
0
 40
0
 40
0
 40
0
 40
0
 40
1
 40
1
 40
1
 40
1
 10
101.607160
 20
14.287442
 30
0.0
 10
102.018202
 20
14.457701
 30
0.0
 10
102.286208
 20
14.858801
 30
0.0
 10
102.286208
 20
15.303709
 30
0.0
  0
SPLINE
  5
1bc
100
AcDbEntity
  8
0
 62
7
100
AcDbSpline
 70
8
 71
3
 72
8
 73
4
 74
0
 40
0
 40
0
 40
0
 40
0
 40
1
 40
1
 40
1
 40
1
 10
102.286208
 20
15.303709
 30
0.0
 10
102.286208
 20
15.595447
 30
0.0
 10
102.170316
 20
15.875237
 30
0.0
 10
101.964026
 20
16.081527
 30
0.0
  0
SPLINE
  5
1bd
100
AcDbEntity
  8
0
 62
7
100
AcDbSpline
 70
8
 71
3
 72
8
 73
4
 74
0
 40
0
 40
0
 40
0
 40
0
 40
1
 40
1
 40
1
 40
1
 10
101.964026
 20
16.081527
 30
0.0
 10
101.757736
 20
16.287817
 30
0.0
 10
101.477946
 20
16.403709
 30
0.0
 10
101.186208
 20
16.403709
 30
0.0
  0
LWPOLYLINE
  5
1be
100
AcDbEntity
  8
0
 62
7
100
AcDbPolyline
 90
1
 70
1
 10
55.918004
 20
31.196311
 30
0.0
  0
SPLINE
  5
1bf
100
AcDbEntity
  8
0
 62
7
100
AcDbSpline
 70
8
 71
3
 72
8
 73
4
 74
0
 40
0
 40
0
 40
0
 40
0
 40
1
 40
1
 40
1
 40
1
 10
121.250510
 20
24.250710
 30
0.0
 10
120.785378
 20
24.250710
 30
0.0
 10
120.366046
 20
23.970521
 30
0.0
 10
120.188048
 20
23.540796
 30
0.0
  0
SPLINE
  5
1c0
100
AcDbEntity
  8
0
 62
7
100
AcDbSpline
 70
8
 71
3
 72
8
 73
4
 74
0
 40
0
 40
0
 40
0
 40
0
 40
1
 40
1
 40
1
 40
1
 10
120.188048
 20
23.540796
 30
0.0
 10
120.010050
 20
23.111070
 30
0.0
 10
120.108439
 20
22.616435
 30
0.0
 10
120.437337
 20
22.287537
 30
0.0
  0
SPLINE
  5
1c1
100
AcDbEntity
  8
0
 62
7
100
AcDbSpline
 70
8
 71
3
 72
8
 73
4
 74
0
 40
0
 40
0
 40
0
 40
0
 40
1
 40
1
 40
1
 40
1
 10
120.437337
 20
22.287537
 30
0.0
 10
120.766235
 20
21.958639
 30
0.0
 10
121.260870
 20
21.860250
 30
0.0
 10
121.690596
 20
22.038248
 30
0.0
  0
SPLINE
  5
1c2
100
AcDbEntity
  8
0
 62
7
100
AcDbSpline
 70
8
 71
3
 72
8
 73
4
 74
0
 40
0
 40
0
 40
0
 40
0
 40
1
 40
1
 40
1
 40
1
 10
121.690596
 20
22.038248
 30
0.0
 10
122.120321
 20
22.216246
 30
0.0
 10
122.400510
 20
22.635578
 30
0.0
 10
122.400510
 20
23.100710
 30
0.0
  0
SPLINE
  5
1c3
100
AcDbEntity
  8
0
 62
7
100
AcDbSpline
 70
8
 71
3
 72
8
 73
4
 74
0
 40
0
 40
0
 40
0
 40
0
 40
1
 40
1
 40
1
 40
1
 10
122.400510
 20
23.100710
 30
0.0
 10
122.400510
 20
23.405709
 30
0.0
 10
122.279349
 20
23.698216
 30
0.0
 10
122.063683
 20
23.913883
 30
0.0
  0
SPLINE
  5
1c4
100
AcDbEntity
  8
0
 62
7
100
AcDbSpline
 70
8
 71
3
 72
8
 73
4
 74
0
 40
0
 40
0
 40
0
 40
0
 40
1
 40
1
 40
1
 40
1
 10
122.063683
 20
23.913883
 30
0.0
 10
121.848016
 20
24.129550
 30
0.0
 10
121.555509
 20
24.250710
 30
0.0
 10
121.250510
 20
24.250710
 30
0.0
  0
LWPOLYLINE
  5
1c5
100
AcDbEntity
  8
0
 62
7
100
AcDbPolyline
 90
1
 70
1
 10
101.186208
 20
16.403709
 30
0.0
  0
SPLINE
  5
1c6
100
AcDbEntity
  8
0
 62
7
100
AcDbSpline
 70
8
 71
3
 72
8
 73
4
 74
0
 40
0
 40
0
 40
0
 40
0
 40
1
 40
1
 40
1
 40
1
 10
104.806708
 20
31.572011
 30
0.0
 10
104.341577
 20
31.572011
 30
0.0
 10
103.922245
 20
31.291822
 30
0.0
 10
103.744247
 20
30.862096
 30
0.0
  0
SPLINE
  5
1c7
100
AcDbEntity
  8
0
 62
7
100
AcDbSpline
 70
8
 71
3
 72
8
 73
4
 74
0
 40
0
 40
0
 40
0
 40
0
 40
1
 40
1
 40
1
 40
1
 10
103.744247
 20
30.862096
 30
0.0
 10
103.566249
 20
30.432371
 30
0.0
 10
103.664638
 20
29.937735
 30
0.0
 10
103.993536
 20
29.608838
 30
0.0
  0
SPLINE
  5
1c8
100
AcDbEntity
  8
0
 62
7
100
AcDbSpline
 70
8
 71
3
 72
8
 73
4
 74
0
 40
0
 40
0
 40
0
 40
0
 40
1
 40
1
 40
1
 40
1
 10
103.993536
 20
29.608838
 30
0.0
 10
104.322433
 20
29.279940
 30
0.0
 10
104.817069
 20
29.181551
 30
0.0
 10
105.246794
 20
29.359549
 30
0.0
  0
SPLINE
  5
1c9
100
AcDbEntity
  8
0
 62
7
100
AcDbSpline
 70
8
 71
3
 72
8
 73
4
 74
0
 40
0
 40
0
 40
0
 40
0
 40
1
 40
1
 40
1
 40
1
 10
105.246794
 20
29.359549
 30
0.0
 10
105.676520
 20
29.537547
 30
0.0
 10
105.956709
 20
29.956879
 30
0.0
 10
105.956709
 20
30.422010
 30
0.0
  0
SPLINE
  5
1ca
100
AcDbEntity
  8
0
 62
7
100
AcDbSpline
 70
8
 71
3
 72
8
 73
4
 74
0
 40
0
 40
0
 40
0
 40
0
 40
1
 40
1
 40
1
 40
1
 10
105.956709
 20
30.422010
 30
0.0
 10
105.956709
 20
30.727009
 30
0.0
 10
105.835548
 20
31.019516
 30
0.0
 10
105.619881
 20
31.235183
 30
0.0
  0
SPLINE
  5
1cb
100
AcDbEntity
  8
0
 62
7
100
AcDbSpline
 70
8
 71
3
 72
8
 73
4
 74
0
 40
0
 40
0
 40
0
 40
0
 40
1
 40
1
 40
1
 40
1
 10
105.619881
 20
31.235183
 30
0.0
 10
105.404214
 20
31.450850
 30
0.0
 10
105.111707
 20
31.572011
 30
0.0
 10
104.806708
 20
31.572011
 30
0.0
  0
LWPOLYLINE
  5
1cc
100
AcDbEntity
  8
0
 62
7
100
AcDbPolyline
 90
1
 70
1
 10
121.250510
 20
24.250710
 30
0.0
  0
SPLINE
  5
1cd
100
AcDbEntity
  8
0
 62
7
100
AcDbSpline
 70
8
 71
3
 72
8
 73
4
 74
0
 40
0
 40
0
 40
0
 40
0
 40
1
 40
1
 40
1
 40
1
 10
23.816602
 20
74.437014
 30
0.0
 10
23.351470
 20
74.437014
 30
0.0
 10
22.932139
 20
74.156825
 30
0.0
 10
22.754140
 20
73.727100
 30
0.0
  0
SPLINE
  5
1ce
100
AcDbEntity
  8
0
 62
7
100
AcDbSpline
 70
8
 71
3
 72
8
 73
4
 74
0
 40
0
 40
0
 40
0
 40
0
 40
1
 40
1
 40
1
 40
1
 10
22.754140
 20
73.727100
 30
0.0
 10
22.576142
 20
73.297374
 30
0.0
 10
22.674531
 20
72.802739
 30
0.0
 10
23.003429
 20
72.473841
 30
0.0
  0
SPLINE
  5
1cf
100
AcDbEntity
  8
0
 62
7
100
AcDbSpline
 70
8
 71
3
 72
8
 73
4
 74
0
 40
0
 40
0
 40
0
 40
0
 40
1
 40
1
 40
1
 40
1
 10
23.003429
 20
72.473841
 30
0.0
 10
23.332327
 20
72.144943
 30
0.0
 10
23.826962
 20
72.046554
 30
0.0
 10
24.256688
 20
72.224552
 30
0.0
  0
SPLINE
  5
1d0
100
AcDbEntity
  8
0
 62
7
100
AcDbSpline
 70
8
 71
3
 72
8
 73
4
 74
0
 40
0
 40
0
 40
0
 40
0
 40
1
 40
1
 40
1
 40
1
 10
24.256688
 20
72.224552
 30
0.0
 10
24.686413
 20
72.402551
 30
0.0
 10
24.966602
 20
72.821882
 30
0.0
 10
24.966602
 20
73.287014
 30
0.0
  0
SPLINE
  5
1d1
100
AcDbEntity
  8
0
 62
7
100
AcDbSpline
 70
8
 71
3
 72
8
 73
4
 74
0
 40
0
 40
0
 40
0
 40
0
 40
1
 40
1
 40
1
 40
1
 10
24.966602
 20
73.287014
 30
0.0
 10
24.966602
 20
73.592013
 30
0.0
 10
24.845442
 20
73.884520
 30
0.0
 10
24.629775
 20
74.100187
 30
0.0
  0
SPLINE
  5
1d2
100
AcDbEntity
  8
0
 62
7
100
AcDbSpline
 70
8
 71
3
 72
8
 73
4
 74
0
 40
0
 40
0
 40
0
 40
0
 40
1
 40
1
 40
1
 40
1
 10
24.629775
 20
74.100187
 30
0.0
 10
24.414108
 20
74.315854
 30
0.0
 10
24.121601
 20
74.437014
 30
0.0
 10
23.816602
 20
74.437014
 30
0.0
  0
LWPOLYLINE
  5
1d3
100
AcDbEntity
  8
0
 62
7
100
AcDbPolyline
 90
1
 70
1
 10
104.806708
 20
31.572011
 30
0.0
  0
SPLINE
  5
1d4
100
AcDbEntity
  8
0
 62
7
100
AcDbSpline
 70
8
 71
3
 72
8
 73
4
 74
0
 40
0
 40
0
 40
0
 40
0
 40
1
 40
1
 40
1
 40
1
 10
82.918007
 20
70.446314
 30
0.0
 10
82.452875
 20
70.446314
 30
0.0
 10
82.033543
 20
70.166125
 30
0.0
 10
81.855545
 20
69.736400
 30
0.0
  0
SPLINE
  5
1d5
100
AcDbEntity
  8
0
 62
7
100
AcDbSpline
 70
8
 71
3
 72
8
 73
4
 74
0
 40
0
 40
0
 40
0
 40
0
 40
1
 40
1
 40
1
 40
1
 10
81.855545
 20
69.736400
 30
0.0
 10
81.677547
 20
69.306674
 30
0.0
 10
81.775936
 20
68.812038
 30
0.0
 10
82.104834
 20
68.483141
 30
0.0
  0
SPLINE
  5
1d6
100
AcDbEntity
  8
0
 62
7
100
AcDbSpline
 70
8
 71
3
 72
8
 73
4
 74
0
 40
0
 40
0
 40
0
 40
0
 40
1
 40
1
 40
1
 40
1
 10
82.104834
 20
68.483141
 30
0.0
 10
82.433732
 20
68.154243
 30
0.0
 10
82.928367
 20
68.055854
 30
0.0
 10
83.358093
 20
68.233852
 30
0.0
  0
SPLINE
  5
1d7
100
AcDbEntity
  8
0
 62
7
100
AcDbSpline
 70
8
 71
3
 72
8
 73
4
 74
0
 40
0
 40
0
 40
0
 40
0
 40
1
 40
1
 40
1
 40
1
 10
83.358093
 20
68.233852
 30
0.0
 10
83.787818
 20
68.411850
 30
0.0
 10
84.068007
 20
68.831182
 30
0.0
 10
84.068007
 20
69.296314
 30
0.0
  0
SPLINE
  5
1d8
100
AcDbEntity
  8
0
 62
7
100
AcDbSpline
 70
8
 71
3
 72
8
 73
4
 74
0
 40
0
 40
0
 40
0
 40
0
 40
1
 40
1
 40
1
 40
1
 10
84.068007
 20
69.296314
 30
0.0
 10
84.068007
 20
69.601313
 30
0.0
 10
83.946846
 20
69.893820
 30
0.0
 10
83.731180
 20
70.109486
 30
0.0
  0
SPLINE
  5
1d9
100
AcDbEntity
  8
0
 62
7
100
AcDbSpline
 70
8
 71
3
 72
8
 73
4
 74
0
 40
0
 40
0
 40
0
 40
0
 40
1
 40
1
 40
1
 40
1
 10
83.731180
 20
70.109486
 30
0.0
 10
83.515513
 20
70.325153
 30
0.0
 10
83.223006
 20
70.446314
 30
0.0
 10
82.918007
 20
70.446314
 30
0.0
  0
LWPOLYLINE
  5
1da
100
AcDbEntity
  8
0
 62
7
100
AcDbPolyline
 90
1
 70
1
 10
23.816602
 20
74.437014
 30
0.0
  0
SPLINE
  5
1db
100
AcDbEntity
  8
0
 62
7
100
AcDbSpline
 70
8
 71
3
 72
8
 73
4
 74
0
 40
0
 40
0
 40
0
 40
0
 40
1
 40
1
 40
1
 40
1
 10
26.088802
 20
55.849213
 30
0.0
 10
25.623670
 20
55.849213
 30
0.0
 10
25.204339
 20
55.569025
 30
0.0
 10
25.026341
 20
55.139299
 30
0.0
  0
SPLINE
  5
1dc
100
AcDbEntity
  8
0
 62
7
100
AcDbSpline
 70
8
 71
3
 72
8
 73
4
 74
0
 40
0
 40
0
 40
0
 40
0
 40
1
 40
1
 40
1
 40
1
 10
25.026341
 20
55.139299
 30
0.0
 10
24.848342
 20
54.709574
 30
0.0
 10
24.946732
 20
54.214938
 30
0.0
 10
25.275629
 20
53.886041
 30
0.0
  0
SPLINE
  5
1dd
100
AcDbEntity
  8
0
 62
7
100
AcDbSpline
 70
8
 71
3
 72
8
 73
4
 74
0
 40
0
 40
0
 40
0
 40
0
 40
1
 40
1
 40
1
 40
1
 10
25.275629
 20
53.886041
 30
0.0
 10
25.604527
 20
53.557143
 30
0.0
 10
26.099162
 20
53.458754
 30
0.0
 10
26.528888
 20
53.636752
 30
0.0
  0
SPLINE
  5
1de
100
AcDbEntity
  8
0
 62
7
100
AcDbSpline
 70
8
 71
3
 72
8
 73
4
 74
0
 40
0
 40
0
 40
0
 40
0
 40
1
 40
1
 40
1
 40
1
 10
26.528888
 20
53.636752
 30
0.0
 10
26.958614
 20
53.814750
 30
0.0
 10
27.238802
 20
54.234082
 30
0.0
 10
27.238802
 20
54.699213
 30
0.0
  0
SPLINE
  5
1df
100
AcDbEntity
  8
0
 62
7
100
AcDbSpline
 70
8
 71
3
 72
8
 73
4
 74
0
 40
0
 40
0
 40
0
 40
0
 40
1
 40
1
 40
1
 40
1
 10
27.238802
 20
54.699213
 30
0.0
 10
27.238802
 20
55.004212
 30
0.0
 10
27.117642
 20
55.296719
 30
0.0
 10
26.901975
 20
55.512386
 30
0.0
  0
SPLINE
  5
1e0
100
AcDbEntity
  8
0
 62
7
100
AcDbSpline
 70
8
 71
3
 72
8
 73
4
 74
0
 40
0
 40
0
 40
0
 40
0
 40
1
 40
1
 40
1
 40
1
 10
26.901975
 20
55.512386
 30
0.0
 10
26.686308
 20
55.728053
 30
0.0
 10
26.393801
 20
55.849213
 30
0.0
 10
26.088802
 20
55.849213
 30
0.0
  0
LWPOLYLINE
  5
1e1
100
AcDbEntity
  8
0
 62
7
100
AcDbPolyline
 90
1
 70
1
 10
82.918007
 20
70.446314
 30
0.0
  0
SPLINE
  5
1e2
100
AcDbEntity
  8
0
 62
7
100
AcDbSpline
 70
8
 71
3
 72
8
 73
4
 74
0
 40
0
 40
0
 40
0
 40
0
 40
1
 40
1
 40
1
 40
1
 10
55.918004
 20
31.246311
 30
0.0
 10
55.282877
 20
31.246311
 30
0.0
 10
54.768004
 20
30.731438
 30
0.0
 10
54.768004
 20
30.096310
 30
0.0
  0
SPLINE
  5
1e3
100
AcDbEntity
  8
0
 62
7
100
AcDbSpline
 70
8
 71
3
 72
8
 73
4
 74
0
 40
0
 40
0
 40
0
 40
0
 40
1
 40
1
 40
1
 40
1
 10
54.768004
 20
30.096310
 30
0.0
 10
54.768004
 20
29.461183
 30
0.0
 10
55.282877
 20
28.946310
 30
0.0
 10
55.918004
 20
28.946310
 30
0.0
  0
SPLINE
  5
1e4
100
AcDbEntity
  8
0
 62
7
100
AcDbSpline
 70
8
 71
3
 72
8
 73
4
 74
0
 40
0
 40
0
 40
0
 40
0
 40
1
 40
1
 40
1
 40
1
 10
55.918004
 20
28.946310
 30
0.0
 10
56.553132
 20
28.946310
 30
0.0
 10
57.068005
 20
29.461183
 30
0.0
 10
57.068005
 20
30.096310
 30
0.0
  0
SPLINE
  5
1e5
100
AcDbEntity
  8
0
 62
7
100
AcDbSpline
 70
8
 71
3
 72
8
 73
4
 74
0
 40
0
 40
0
 40
0
 40
0
 40
1
 40
1
 40
1
 40
1
 10
57.068005
 20
30.096310
 30
0.0
 10
57.068005
 20
30.401309
 30
0.0
 10
56.946844
 20
30.693816
 30
0.0
 10
56.731177
 20
30.909483
 30
0.0
  0
SPLINE
  5
1e6
100
AcDbEntity
  8
0
 62
7
100
AcDbSpline
 70
8
 71
3
 72
8
 73
4
 74
0
 40
0
 40
0
 40
0
 40
0
 40
1
 40
1
 40
1
 40
1
 10
56.731177
 20
30.909483
 30
0.0
 10
56.515511
 20
31.125150
 30
0.0
 10
56.223003
 20
31.246311
 30
0.0
 10
55.918004
 20
31.246311
 30
0.0
  0
LWPOLYLINE
  5
1e7
100
AcDbEntity
  8
0
 62
7
100
AcDbPolyline
 90
1
 70
1
 10
26.088802
 20
55.849213
 30
0.0
  0
SPLINE
  5
1e8
100
AcDbEntity
  8
0
 62
7
100
AcDbSpline
 70
8
 71
3
 72
8
 73
4
 74
0
 40
0
 40
0
 40
0
 40
0
 40
1
 40
1
 40
1
 40
1
 10
101.186208
 20
16.453709
 30
0.0
 10
100.721077
 20
16.453709
 30
0.0
 10
100.301745
 20
16.173521
 30
0.0
 10
100.123747
 20
15.743795
 30
0.0
  0
SPLINE
  5
1e9
100
AcDbEntity
  8
0
 62
7
100
AcDbSpline
 70
8
 71
3
 72
8
 73
4
 74
0
 40
0
 40
0
 40
0
 40
0
 40
1
 40
1
 40
1
 40
1
 10
100.123747
 20
15.743795
 30
0.0
 10
99.945748
 20
15.314070
 30
0.0
 10
100.044138
 20
14.819434
 30
0.0
 10
100.373035
 20
14.490536
 30
0.0
  0
SPLINE
  5
1ea
100
AcDbEntity
  8
0
 62
7
100
AcDbSpline
 70
8
 71
3
 72
8
 73
4
 74
0
 40
0
 40
0
 40
0
 40
0
 40
1
 40
1
 40
1
 40
1
 10
100.373035
 20
14.490536
 30
0.0
 10
100.701933
 20
14.161639
 30
0.0
 10
101.196569
 20
14.063250
 30
0.0
 10
101.626294
 20
14.241248
 30
0.0
  0
SPLINE
  5
1eb
100
AcDbEntity
  8
0
 62
7
100
AcDbSpline
 70
8
 71
3
 72
8
 73
4
 74
0
 40
0
 40
0
 40
0
 40
0
 40
1
 40
1
 40
1
 40
1
 10
101.626294
 20
14.241248
 30
0.0
 10
102.056020
 20
14.419246
 30
0.0
 10
102.336208
 20
14.838578
 30
0.0
 10
102.336208
 20
15.303709
 30
0.0
  0
SPLINE
  5
1ec
100
AcDbEntity
  8
0
 62
7
100
AcDbSpline
 70
8
 71
3
 72
8
 73
4
 74
0
 40
0
 40
0
 40
0
 40
0
 40
1
 40
1
 40
1
 40
1
 10
102.336208
 20
15.303709
 30
0.0
 10
102.336208
 20
15.608708
 30
0.0
 10
102.215048
 20
15.901215
 30
0.0
 10
101.999381
 20
16.116882
 30
0.0
  0
SPLINE
  5
1ed
100
AcDbEntity
  8
0
 62
7
100
AcDbSpline
 70
8
 71
3
 72
8
 73
4
 74
0
 40
0
 40
0
 40
0
 40
0
 40
1
 40
1
 40
1
 40
1
 10
101.999381
 20
16.116882
 30
0.0
 10
101.783714
 20
16.332549
 30
0.0
 10
101.491207
 20
16.453709
 30
0.0
 10
101.186208
 20
16.453709
 30
0.0
  0
LWPOLYLINE
  5
1ee
100
AcDbEntity
  8
0
 62
7
100
AcDbPolyline
 90
1
 70
1
 10
55.918004
 20
31.246311
 30
0.0
  0
SPLINE
  5
1ef
100
AcDbEntity
  8
0
 62
7
100
AcDbSpline
 70
8
 71
3
 72
8
 73
4
 74
0
 40
0
 40
0
 40
0
 40
0
 40
1
 40
1
 40
1
 40
1
 10
121.250510
 20
24.200710
 30
0.0
 10
120.805601
 20
24.200710
 30
0.0
 10
120.404501
 20
23.932704
 30
0.0
 10
120.234242
 20
23.521662
 30
0.0
  0
SPLINE
  5
1f0
100
AcDbEntity
  8
0
 62
7
100
AcDbSpline
 70
8
 71
3
 72
8
 73
4
 74
0
 40
0
 40
0
 40
0
 40
0
 40
1
 40
1
 40
1
 40
1
 10
120.234242
 20
23.521662
 30
0.0
 10
120.063983
 20
23.110620
 30
0.0
 10
120.158094
 20
22.637490
 30
0.0
 10
120.472692
 20
22.322892
 30
0.0
  0
SPLINE
  5
1f1
100
AcDbEntity
  8
0
 62
7
100
AcDbSpline
 70
8
 71
3
 72
8
 73
4
 74
0
 40
0
 40
0
 40
0
 40
0
 40
1
 40
1
 40
1
 40
1
 10
120.472692
 20
22.322892
 30
0.0
 10
120.787290
 20
22.008295
 30
0.0
 10
121.260420
 20
21.914183
 30
0.0
 10
121.671462
 20
22.084442
 30
0.0
  0
SPLINE
  5
1f2
100
AcDbEntity
  8
0
 62
7
100
AcDbSpline
 70
8
 71
3
 72
8
 73
4
 74
0
 40
0
 40
0
 40
0
 40
0
 40
1
 40
1
 40
1
 40
1
 10
121.671462
 20
22.084442
 30
0.0
 10
122.082503
 20
22.254701
 30
0.0
 10
122.350510
 20
22.655801
 30
0.0
 10
122.350510
 20
23.100710
 30
0.0
  0
SPLINE
  5
1f3
100
AcDbEntity
  8
0
 62
7
100
AcDbSpline
 70
8
 71
3
 72
8
 73
4
 74
0
 40
0
 40
0
 40
0
 40
0
 40
1
 40
1
 40
1
 40
1
 10
122.350510
 20
23.100710
 30
0.0
 10
122.350510
 20
23.392448
 30
0.0
 10
122.234617
 20
23.672237
 30
0.0
 10
122.028327
 20
23.878527
 30
0.0
  0
SPLINE
  5
1f4
100
AcDbEntity
  8
0
 62
7
100
AcDbSpline
 70
8
 71
3
 72
8
 73
4
 74
0
 40
0
 40
0
 40
0
 40
0
 40
1
 40
1
 40
1
 40
1
 10
122.028327
 20
23.878527
 30
0.0
 10
121.822037
 20
24.084817
 30
0.0
 10
121.542248
 20
24.200710
 30
0.0
 10
121.250510
 20
24.200710
 30
0.0
  0
LWPOLYLINE
  5
1f5
100
AcDbEntity
  8
0
 62
7
100
AcDbPolyline
 90
1
 70
1
 10
101.186208
 20
16.453709
 30
0.0
  0
SPLINE
  5
1f6
100
AcDbEntity
  8
0
 62
7
100
AcDbSpline
 70
8
 71
3
 72
8
 73
4
 74
0
 40
0
 40
0
 40
0
 40
0
 40
1
 40
1
 40
1
 40
1
 10
104.806708
 20
31.522011
 30
0.0
 10
104.361800
 20
31.522011
 30
0.0
 10
103.960700
 20
31.254004
 30
0.0
 10
103.790441
 20
30.842962
 30
0.0
  0
SPLINE
  5
1f7
100
AcDbEntity
  8
0
 62
7
100
AcDbSpline
 70
8
 71
3
 72
8
 73
4
 74
0
 40
0
 40
0
 40
0
 40
0
 40
1
 40
1
 40
1
 40
1
 10
103.790441
 20
30.842962
 30
0.0
 10
103.620182
 20
30.431920
 30
0.0
 10
103.714293
 20
29.958791
 30
0.0
 10
104.028891
 20
29.644193
 30
0.0
  0
SPLINE
  5
1f8
100
AcDbEntity
  8
0
 62
7
100
AcDbSpline
 70
8
 71
3
 72
8
 73
4
 74
0
 40
0
 40
0
 40
0
 40
0
 40
1
 40
1
 40
1
 40
1
 10
104.028891
 20
29.644193
 30
0.0
 10
104.343489
 20
29.329595
 30
0.0
 10
104.816618
 20
29.235484
 30
0.0
 10
105.227660
 20
29.405743
 30
0.0
  0
SPLINE
  5
1f9
100
AcDbEntity
  8
0
 62
7
100
AcDbSpline
 70
8
 71
3
 72
8
 73
4
 74
0
 40
0
 40
0
 40
0
 40
0
 40
1
 40
1
 40
1
 40
1
 10
105.227660
 20
29.405743
 30
0.0
 10
105.638702
 20
29.576002
 30
0.0
 10
105.906709
 20
29.977102
 30
0.0
 10
105.906709
 20
30.422010
 30
0.0
  0
SPLINE
  5
1fa
100
AcDbEntity
  8
0
 62
7
100
AcDbSpline
 70
8
 71
3
 72
8
 73
4
 74
0
 40
0
 40
0
 40
0
 40
0
 40
1
 40
1
 40
1
 40
1
 10
105.906709
 20
30.422010
 30
0.0
 10
105.906709
 20
30.713749
 30
0.0
 10
105.790816
 20
30.993538
 30
0.0
 10
105.584526
 20
31.199828
 30
0.0
  0
SPLINE
  5
1fb
100
AcDbEntity
  8
0
 62
7
100
AcDbSpline
 70
8
 71
3
 72
8
 73
4
 74
0
 40
0
 40
0
 40
0
 40
0
 40
1
 40
1
 40
1
 40
1
 10
105.584526
 20
31.199828
 30
0.0
 10
105.378236
 20
31.406118
 30
0.0
 10
105.098447
 20
31.522011
 30
0.0
 10
104.806708
 20
31.522011
 30
0.0
  0
LWPOLYLINE
  5
1fc
100
AcDbEntity
  8
0
 62
7
100
AcDbPolyline
 90
1
 70
1
 10
121.250510
 20
24.200710
 30
0.0
  0
SPLINE
  5
1fd
100
AcDbEntity
  8
0
 62
7
100
AcDbSpline
 70
8
 71
3
 72
8
 73
4
 74
0
 40
0
 40
0
 40
0
 40
0
 40
1
 40
1
 40
1
 40
1
 10
23.816602
 20
74.387014
 30
0.0
 10
23.371693
 20
74.387014
 30
0.0
 10
22.970593
 20
74.119008
 30
0.0
 10
22.800334
 20
73.707966
 30
0.0
  0
SPLINE
  5
1fe
100
AcDbEntity
  8
0
 62
7
100
AcDbSpline
 70
8
 71
3
 72
8
 73
4
 74
0
 40
0
 40
0
 40
0
 40
0
 40
1
 40
1
 40
1
 40
1
 10
22.800334
 20
73.707966
 30
0.0
 10
22.630075
 20
73.296924
 30
0.0
 10
22.724187
 20
72.823794
 30
0.0
 10
23.038784
 20
72.509196
 30
0.0
  0
SPLINE
  5
1ff
100
AcDbEntity
  8
0
 62
7
100
AcDbSpline
 70
8
 71
3
 72
8
 73
4
 74
0
 40
0
 40
0
 40
0
 40
0
 40
1
 40
1
 40
1
 40
1
 10
23.038784
 20
72.509196
 30
0.0
 10
23.353382
 20
72.194599
 30
0.0
 10
23.826512
 20
72.100487
 30
0.0
 10
24.237554
 20
72.270746
 30
0.0
  0
SPLINE
  5
200
100
AcDbEntity
  8
0
 62
7
100
AcDbSpline
 70
8
 71
3
 72
8
 73
4
 74
0
 40
0
 40
0
 40
0
 40
0
 40
1
 40
1
 40
1
 40
1
 10
24.237554
 20
72.270746
 30
0.0
 10
24.648596
 20
72.441005
 30
0.0
 10
24.916602
 20
72.842105
 30
0.0
 10
24.916602
 20
73.287014
 30
0.0
  0
SPLINE
  5
201
100
AcDbEntity
  8
0
 62
7
100
AcDbSpline
 70
8
 71
3
 72
8
 73
4
 74
0
 40
0
 40
0
 40
0
 40
0
 40
1
 40
1
 40
1
 40
1
 10
24.916602
 20
73.287014
 30
0.0
 10
24.916602
 20
73.578752
 30
0.0
 10
24.800709
 20
73.858541
 30
0.0
 10
24.594419
 20
74.064831
 30
0.0
  0
SPLINE
  5
202
100
AcDbEntity
  8
0
 62
7
100
AcDbSpline
 70
8
 71
3
 72
8
 73
4
 74
0
 40
0
 40
0
 40
0
 40
0
 40
1
 40
1
 40
1
 40
1
 10
24.594419
 20
74.064831
 30
0.0
 10
24.388129
 20
74.271121
 30
0.0
 10
24.108340
 20
74.387014
 30
0.0
 10
23.816602
 20
74.387014
 30
0.0
  0
LWPOLYLINE
  5
203
100
AcDbEntity
  8
0
 62
7
100
AcDbPolyline
 90
1
 70
1
 10
104.806708
 20
31.522011
 30
0.0
  0
SPLINE
  5
204
100
AcDbEntity
  8
0
 62
7
100
AcDbSpline
 70
8
 71
3
 72
8
 73
4
 74
0
 40
0
 40
0
 40
0
 40
0
 40
1
 40
1
 40
1
 40
1
 10
82.918007
 20
70.396314
 30
0.0
 10
82.473098
 20
70.396314
 30
0.0
 10
82.071998
 20
70.128307
 30
0.0
 10
81.901739
 20
69.717265
 30
0.0
  0
SPLINE
  5
205
100
AcDbEntity
  8
0
 62
7
100
AcDbSpline
 70
8
 71
3
 72
8
 73
4
 74
0
 40
0
 40
0
 40
0
 40
0
 40
1
 40
1
 40
1
 40
1
 10
81.901739
 20
69.717265
 30
0.0
 10
81.731480
 20
69.306224
 30
0.0
 10
81.825591
 20
68.833094
 30
0.0
 10
82.140189
 20
68.518496
 30
0.0
  0
SPLINE
  5
206
100
AcDbEntity
  8
0
 62
7
100
AcDbSpline
 70
8
 71
3
 72
8
 73
4
 74
0
 40
0
 40
0
 40
0
 40
0
 40
1
 40
1
 40
1
 40
1
 10
82.140189
 20
68.518496
 30
0.0
 10
82.454787
 20
68.203898
 30
0.0
 10
82.927917
 20
68.109787
 30
0.0
 10
83.338958
 20
68.280046
 30
0.0
  0
SPLINE
  5
207
100
AcDbEntity
  8
0
 62
7
100
AcDbSpline
 70
8
 71
3
 72
8
 73
4
 74
0
 40
0
 40
0
 40
0
 40
0
 40
1
 40
1
 40
1
 40
1
 10
83.338958
 20
68.280046
 30
0.0
 10
83.750000
 20
68.450305
 30
0.0
 10
84.018007
 20
68.851405
 30
0.0
 10
84.018007
 20
69.296314
 30
0.0
  0
SPLINE
  5
208
100
AcDbEntity
  8
0
 62
7
100
AcDbSpline
 70
8
 71
3
 72
8
 73
4
 74
0
 40
0
 40
0
 40
0
 40
0
 40
1
 40
1
 40
1
 40
1
 10
84.018007
 20
69.296314
 30
0.0
 10
84.018007
 20
69.588052
 30
0.0
 10
83.902114
 20
69.867841
 30
0.0
 10
83.695824
 20
70.074131
 30
0.0
  0
SPLINE
  5
209
100
AcDbEntity
  8
0
 62
7
100
AcDbSpline
 70
8
 71
3
 72
8
 73
4
 74
0
 40
0
 40
0
 40
0
 40
0
 40
1
 40
1
 40
1
 40
1
 10
83.695824
 20
70.074131
 30
0.0
 10
83.489534
 20
70.280421
 30
0.0
 10
83.209745
 20
70.396314
 30
0.0
 10
82.918007
 20
70.396314
 30
0.0
  0
LWPOLYLINE
  5
20a
100
AcDbEntity
  8
0
 62
7
100
AcDbPolyline
 90
1
 70
1
 10
23.816602
 20
74.387014
 30
0.0
  0
SPLINE
  5
20b
100
AcDbEntity
  8
0
 62
7
100
AcDbSpline
 70
8
 71
3
 72
8
 73
4
 74
0
 40
0
 40
0
 40
0
 40
0
 40
1
 40
1
 40
1
 40
1
 10
26.088802
 20
55.799213
 30
0.0
 10
25.643894
 20
55.799213
 30
0.0
 10
25.242794
 20
55.531207
 30
0.0
 10
25.072535
 20
55.120165
 30
0.0
  0
SPLINE
  5
20c
100
AcDbEntity
  8
0
 62
7
100
AcDbSpline
 70
8
 71
3
 72
8
 73
4
 74
0
 40
0
 40
0
 40
0
 40
0
 40
1
 40
1
 40
1
 40
1
 10
25.072535
 20
55.120165
 30
0.0
 10
24.902275
 20
54.709123
 30
0.0
 10
24.996387
 20
54.235994
 30
0.0
 10
25.310985
 20
53.921396
 30
0.0
  0
SPLINE
  5
20d
100
AcDbEntity
  8
0
 62
7
100
AcDbSpline
 70
8
 71
3
 72
8
 73
4
 74
0
 40
0
 40
0
 40
0
 40
0
 40
1
 40
1
 40
1
 40
1
 10
25.310985
 20
53.921396
 30
0.0
 10
25.625582
 20
53.606798
 30
0.0
 10
26.098712
 20
53.512687
 30
0.0
 10
26.509754
 20
53.682946
 30
0.0
  0
SPLINE
  5
20e
100
AcDbEntity
  8
0
 62
7
100
AcDbSpline
 70
8
 71
3
 72
8
 73
4
 74
0
 40
0
 40
0
 40
0
 40
0
 40
1
 40
1
 40
1
 40
1
 10
26.509754
 20
53.682946
 30
0.0
 10
26.920796
 20
53.853205
 30
0.0
 10
27.188802
 20
54.254305
 30
0.0
 10
27.188802
 20
54.699213
 30
0.0
  0
SPLINE
  5
20f
100
AcDbEntity
  8
0
 62
7
100
AcDbSpline
 70
8
 71
3
 72
8
 73
4
 74
0
 40
0
 40
0
 40
0
 40
0
 40
1
 40
1
 40
1
 40
1
 10
27.188802
 20
54.699213
 30
0.0
 10
27.188802
 20
55.306727
 30
0.0
 10
26.696315
 20
55.799213
 30
0.0
 10
26.088802
 20
55.799213
 30
0.0
  0
LWPOLYLINE
  5
210
100
AcDbEntity
  8
0
 62
7
100
AcDbPolyline
 90
1
 70
1
 10
82.918007
 20
70.396314
 30
0.0
  0
SPLINE
  5
211
100
AcDbEntity
  8
0
 62
7
100
AcDbSpline
 70
8
 71
3
 72
8
 73
4
 74
0
 40
0
 40
0
 40
0
 40
0
 40
1
 40
1
 40
1
 40
1
 10
55.918004
 20
31.196311
 30
0.0
 10
55.473096
 20
31.196311
 30
0.0
 10
55.071996
 20
30.928304
 30
0.0
 10
54.901737
 20
30.517262
 30
0.0
  0
SPLINE
  5
212
100
AcDbEntity
  8
0
 62
7
100
AcDbSpline
 70
8
 71
3
 72
8
 73
4
 74
0
 40
0
 40
0
 40
0
 40
0
 40
1
 40
1
 40
1
 40
1
 10
54.901737
 20
30.517262
 30
0.0
 10
54.731478
 20
30.106220
 30
0.0
 10
54.825589
 20
29.633091
 30
0.0
 10
55.140187
 20
29.318493
 30
0.0
  0
SPLINE
  5
213
100
AcDbEntity
  8
0
 62
7
100
AcDbSpline
 70
8
 71
3
 72
8
 73
4
 74
0
 40
0
 40
0
 40
0
 40
0
 40
1
 40
1
 40
1
 40
1
 10
55.140187
 20
29.318493
 30
0.0
 10
55.454785
 20
29.003895
 30
0.0
 10
55.927914
 20
28.909784
 30
0.0
 10
56.338956
 20
29.080043
 30
0.0
  0
SPLINE
  5
214
100
AcDbEntity
  8
0
 62
7
100
AcDbSpline
 70
8
 71
3
 72
8
 73
4
 74
0
 40
0
 40
0
 40
0
 40
0
 40
1
 40
1
 40
1
 40
1
 10
56.338956
 20
29.080043
 30
0.0
 10
56.749998
 20
29.250302
 30
0.0
 10
57.018005
 20
29.651402
 30
0.0
 10
57.018005
 20
30.096310
 30
0.0
  0
SPLINE
  5
215
100
AcDbEntity
  8
0
 62
7
100
AcDbSpline
 70
8
 71
3
 72
8
 73
4
 74
0
 40
0
 40
0
 40
0
 40
0
 40
1
 40
1
 40
1
 40
1
 10
57.018005
 20
30.096310
 30
0.0
 10
57.018005
 20
30.388049
 30
0.0
 10
56.902112
 20
30.667838
 30
0.0
 10
56.695822
 20
30.874128
 30
0.0
  0
SPLINE
  5
216
100
AcDbEntity
  8
0
 62
7
100
AcDbSpline
 70
8
 71
3
 72
8
 73
4
 74
0
 40
0
 40
0
 40
0
 40
0
 40
1
 40
1
 40
1
 40
1
 10
56.695822
 20
30.874128
 30
0.0
 10
56.489532
 20
31.080418
 30
0.0
 10
56.209743
 20
31.196311
 30
0.0
 10
55.918004
 20
31.196311
 30
0.0
  0
LWPOLYLINE
  5
217
100
AcDbEntity
  8
0
 62
7
100
AcDbPolyline
 90
1
 70
1
 10
26.088802
 20
55.799213
 30
0.0
  0
SPLINE
  5
218
100
AcDbEntity
  8
0
 62
7
100
AcDbSpline
 70
8
 71
3
 72
8
 73
4
 74
0
 40
0
 40
0
 40
0
 40
0
 40
1
 40
1
 40
1
 40
1
 10
101.186208
 20
16.403709
 30
0.0
 10
100.741300
 20
16.403709
 30
0.0
 10
100.340200
 20
16.135703
 30
0.0
 10
100.169941
 20
15.724661
 30
0.0
  0
SPLINE
  5
219
100
AcDbEntity
  8
0
 62
7
100
AcDbSpline
 70
8
 71
3
 72
8
 73
4
 74
0
 40
0
 40
0
 40
0
 40
0
 40
1
 40
1
 40
1
 40
1
 10
100.169941
 20
15.724661
 30
0.0
 10
99.999681
 20
15.313619
 30
0.0
 10
100.093793
 20
14.840490
 30
0.0
 10
100.408391
 20
14.525892
 30
0.0
  0
SPLINE
  5
21a
100
AcDbEntity
  8
0
 62
7
100
AcDbSpline
 70
8
 71
3
 72
8
 73
4
 74
0
 40
0
 40
0
 40
0
 40
0
 40
1
 40
1
 40
1
 40
1
 10
100.408391
 20
14.525892
 30
0.0
 10
100.722988
 20
14.211294
 30
0.0
 10
101.196118
 20
14.117183
 30
0.0
 10
101.607160
 20
14.287442
 30
0.0
  0
SPLINE
  5
21b
100
AcDbEntity
  8
0
 62
7
100
AcDbSpline
 70
8
 71
3
 72
8
 73
4
 74
0
 40
0
 40
0
 40
0
 40
0
 40
1
 40
1
 40
1
 40
1
 10
101.607160
 20
14.287442
 30
0.0
 10
102.018202
 20
14.457701
 30
0.0
 10
102.286208
 20
14.858801
 30
0.0
 10
102.286208
 20
15.303709
 30
0.0
  0
SPLINE
  5
21c
100
AcDbEntity
  8
0
 62
7
100
AcDbSpline
 70
8
 71
3
 72
8
 73
4
 74
0
 40
0
 40
0
 40
0
 40
0
 40
1
 40
1
 40
1
 40
1
 10
102.286208
 20
15.303709
 30
0.0
 10
102.286208
 20
15.595447
 30
0.0
 10
102.170316
 20
15.875237
 30
0.0
 10
101.964026
 20
16.081527
 30
0.0
  0
SPLINE
  5
21d
100
AcDbEntity
  8
0
 62
7
100
AcDbSpline
 70
8
 71
3
 72
8
 73
4
 74
0
 40
0
 40
0
 40
0
 40
0
 40
1
 40
1
 40
1
 40
1
 10
101.964026
 20
16.081527
 30
0.0
 10
101.757736
 20
16.287817
 30
0.0
 10
101.477946
 20
16.403709
 30
0.0
 10
101.186208
 20
16.403709
 30
0.0
  0
LWPOLYLINE
  5
21e
100
AcDbEntity
  8
0
 62
7
100
AcDbPolyline
 90
1
 70
1
 10
55.918004
 20
31.196311
 30
0.0
  0
LWPOLYLINE
  5
21f
100
AcDbEntity
  8
0
 62
7
100
AcDbPolyline
 90
1
 70
1
 10
101.186208
 20
16.403709
 30
0.0
  0
LWPOLYLINE
  5
220
100
AcDbEntity
  8
0
 62
7
100
AcDbPolyline
 90
2
 70
0
 10
0.104100
 20
77.330814
 30
0.0
 10
8.874501
 20
27.591610
 30
0.0
  0
LWPOLYLINE
  5
221
100
AcDbEntity
  8
0
 62
7
100
AcDbPolyline
 90
2
 70
0
 10
20.291002
 20
82.819615
 30
0.0
 10
1.645300
 20
79.531914
 30
0.0
  0
LWPOLYLINE
  5
222
100
AcDbEntity
  8
0
 62
7
100
AcDbPolyline
 90
2
 70
0
 10
26.973702
 20
86.809315
 30
0.0
 10
43.584303
 20
87.389415
 30
0.0
  0
LWPOLYLINE
  5
223
100
AcDbEntity
  8
0
 62
7
100
AcDbPolyline
 90
2
 70
0
 10
25.141202
 20
84.844215
 30
0.0
 10
25.142202
 20
84.813515
 30
0.0
  0
LWPOLYLINE
  5
224
100
AcDbEntity
  8
0
 62
7
100
AcDbPolyline
 90
2
 70
0
 10
66.418005
 20
89.696315
 30
0.0
 10
66.418005
 20
90.896315
 30
0.0
  0
LWPOLYLINE
  5
225
100
AcDbEntity
  8
0
 62
7
100
AcDbPolyline
 90
2
 70
0
 10
64.518005
 20
92.796315
 30
0.0
 10
47.318004
 20
92.796315
 30
0.0
  0
LWPOLYLINE
  5
226
100
AcDbEntity
  8
0
 62
7
100
AcDbPolyline
 90
2
 70
0
 10
45.418004
 20
90.896315
 30
0.0
 10
45.418004
 20
89.288215
 30
0.0
  0
LWPOLYLINE
  5
227
100
AcDbEntity
  8
0
 62
7
100
AcDbPolyline
 90
2
 70
0
 10
84.418007
 20
84.715515
 30
0.0
 10
84.418007
 20
85.896315
 30
0.0
  0
LWPOLYLINE
  5
228
100
AcDbEntity
  8
0
 62
7
100
AcDbPolyline
 90
2
 70
0
 10
68.318005
 20
87.796315
 30
0.0
 10
82.518007
 20
87.796315
 30
0.0
  0
LWPOLYLINE
  5
229
100
AcDbEntity
  8
0
 62
7
100
AcDbPolyline
 90
2
 70
0
 10
62.318005
 20
11.796309
 30
0.0
 10
78.047806
 20
11.796309
 30
0.0
  0
LWPOLYLINE
  5
22a
100
AcDbEntity
  8
0
 62
7
100
AcDbPolyline
 90
2
 70
0
 10
60.418005
 20
24.097310
 30
0.0
 10
60.418005
 20
13.696309
 30
0.0
  0
LWPOLYLINE
  5
22b
100
AcDbEntity
  8
0
 62
7
100
AcDbPolyline
 90
2
 70
0
 10
78.442806
 20
11.754809
 30
0.0
 10
97.896108
 20
7.619909
 30
0.0
  0
LWPOLYLINE
  5
22c
100
AcDbEntity
  8
0
 62
7
100
AcDbPolyline
 90
2
 70
0
 10
98.273808
 20
7.497109
 30
0.0
 10
114.574809
 20
0.239508
 30
0.0
  0
LWPOLYLINE
  5
22d
100
AcDbEntity
  8
0
 62
7
100
AcDbPolyline
 90
2
 70
0
 10
117.083409
 20
1.202408
 30
0.0
 10
124.281210
 20
17.369009
 30
0.0
  0
LWPOLYLINE
  5
22e
100
AcDbEntity
  8
0
 62
7
100
AcDbPolyline
 90
2
 70
0
 10
20.621902
 20
82.848515
 30
0.0
 10
23.242502
 20
82.847115
 30
0.0
  0
LWPOLYLINE
  5
22f
100
AcDbEntity
  8
0
 62
7
100
AcDbPolyline
 90
2
 70
0
 10
86.317007
 20
82.815515
 30
0.0
 10
122.568310
 20
82.797315
 30
0.0
  0
LWPOLYLINE
  5
230
100
AcDbEntity
  8
0
 62
7
100
AcDbPolyline
 90
2
 70
0
 10
124.467310
 20
80.896614
 30
0.0
 10
124.445410
 20
18.141109
 30
0.0
  0
SPLINE
  5
231
100
AcDbEntity
  8
0
 62
7
100
AcDbSpline
 70
8
 71
3
 72
8
 73
4
 74
0
 40
0
 40
0
 40
0
 40
0
 40
1
 40
1
 40
1
 40
1
 10
8.874501
 20
27.591610
 30
0.0
 10
9.034539
 20
26.683895
 30
0.0
 10
9.822986
 20
26.021966
 30
0.0
 10
10.744701
 20
26.021510
 30
0.0
  0
SPLINE
  5
232
100
AcDbEntity
  8
0
 62
7
100
AcDbSpline
 70
8
 71
3
 72
8
 73
4
 74
0
 40
0
 40
0
 40
0
 40
0
 40
1
 40
1
 40
1
 40
1
 10
60.418005
 20
24.097310
 30
0.0
 10
60.418005
 20
25.146261
 30
0.0
 10
59.567955
 20
25.996758
 30
0.0
 10
58.519005
 20
25.997310
 30
0.0
  0
SPLINE
  5
233
100
AcDbEntity
  8
0
 62
7
100
AcDbSpline
 70
8
 71
3
 72
8
 73
4
 74
0
 40
0
 40
0
 40
0
 40
0
 40
1
 40
1
 40
1
 40
1
 10
60.418005
 20
13.696309
 30
0.0
 10
60.418005
 20
13.192398
 30
0.0
 10
60.618183
 20
12.709125
 30
0.0
 10
60.974502
 20
12.352806
 30
0.0
  0
SPLINE
  5
234
100
AcDbEntity
  8
0
 62
7
100
AcDbSpline
 70
8
 71
3
 72
8
 73
4
 74
0
 40
0
 40
0
 40
0
 40
0
 40
1
 40
1
 40
1
 40
1
 10
60.974502
 20
12.352806
 30
0.0
 10
61.330821
 20
11.996487
 30
0.0
 10
61.814094
 20
11.796309
 30
0.0
 10
62.318005
 20
11.796309
 30
0.0
  0
SPLINE
  5
235
100
AcDbEntity
  8
0
 62
7
100
AcDbSpline
 70
8
 71
3
 72
8
 73
4
 74
0
 40
0
 40
0
 40
0
 40
0
 40
1
 40
1
 40
1
 40
1
 10
78.442806
 20
11.754809
 30
0.0
 10
78.312951
 20
11.782404
 30
0.0
 10
78.180561
 20
11.796313
 30
0.0
 10
78.047806
 20
11.796309
 30
0.0
  0
SPLINE
  5
236
100
AcDbEntity
  8
0
 62
7
100
AcDbSpline
 70
8
 71
3
 72
8
 73
4
 74
0
 40
0
 40
0
 40
0
 40
0
 40
1
 40
1
 40
1
 40
1
 10
98.273808
 20
7.497109
 30
0.0
 10
98.152511
 20
7.551131
 30
0.0
 10
98.025886
 20
7.592289
 30
0.0
 10
97.896008
 20
7.619909
 30
0.0
  0
SPLINE
  5
237
100
AcDbEntity
  8
0
 62
7
100
AcDbSpline
 70
8
 71
3
 72
8
 73
4
 74
0
 40
0
 40
0
 40
0
 40
0
 40
1
 40
1
 40
1
 40
1
 10
114.574809
 20
0.239508
 30
0.0
 10
115.035158
 20
0.034526
 30
0.0
 10
115.558081
 20
0.020817
 30
0.0
 10
116.028537
 20
0.201397
 30
0.0
  0
SPLINE
  5
238
100
AcDbEntity
  8
0
 62
7
100
AcDbSpline
 70
8
 71
3
 72
8
 73
4
 74
0
 40
0
 40
0
 40
0
 40
0
 40
1
 40
1
 40
1
 40
1
 10
116.028537
 20
0.201397
 30
0.0
 10
116.498994
 20
0.381977
 30
0.0
 10
116.878444
 20
0.742053
 30
0.0
 10
117.083409
 20
1.202408
 30
0.0
  0
SPLINE
  5
239
100
AcDbEntity
  8
0
 62
7
100
AcDbSpline
 70
8
 71
3
 72
8
 73
4
 74
0
 40
0
 40
0
 40
0
 40
0
 40
1
 40
1
 40
1
 40
1
 10
124.281210
 20
17.369009
 30
0.0
 10
124.389392
 20
17.612043
 30
0.0
 10
124.445332
 20
17.875086
 30
0.0
 10
124.445410
 20
18.141109
 30
0.0
  0
SPLINE
  5
23a
100
AcDbEntity
  8
0
 62
7
100
AcDbSpline
 70
8
 71
3
 72
8
 73
4
 74
0
 40
0
 40
0
 40
0
 40
0
 40
1
 40
1
 40
1
 40
1
 10
124.467310
 20
80.896614
 30
0.0
 10
124.467697
 20
81.945839
 30
0.0
 10
123.617534
 20
82.796762
 30
0.0
 10
122.568310
 20
82.797315
 30
0.0
  0
SPLINE
  5
23b
100
AcDbEntity
  8
0
 62
7
100
AcDbSpline
 70
8
 71
3
 72
8
 73
4
 74
0
 40
0
 40
0
 40
0
 40
0
 40
1
 40
1
 40
1
 40
1
 10
84.418007
 20
84.715515
 30
0.0
 10
84.418007
 20
83.666564
 30
0.0
 10
85.268056
 20
82.816067
 30
0.0
 10
86.317007
 20
82.815515
 30
0.0
  0
SPLINE
  5
23c
100
AcDbEntity
  8
0
 62
7
100
AcDbSpline
 70
8
 71
3
 72
8
 73
4
 74
0
 40
0
 40
0
 40
0
 40
0
 40
1
 40
1
 40
1
 40
1
 10
84.418007
 20
85.896315
 30
0.0
 10
84.418007
 20
86.400226
 30
0.0
 10
84.217829
 20
86.883499
 30
0.0
 10
83.861510
 20
87.239818
 30
0.0
  0
SPLINE
  5
23d
100
AcDbEntity
  8
0
 62
7
100
AcDbSpline
 70
8
 71
3
 72
8
 73
4
 74
0
 40
0
 40
0
 40
0
 40
0
 40
1
 40
1
 40
1
 40
1
 10
83.861510
 20
87.239818
 30
0.0
 10
83.505190
 20
87.596137
 30
0.0
 10
83.021918
 20
87.796315
 30
0.0
 10
82.518007
 20
87.796315
 30
0.0
  0
SPLINE
  5
23e
100
AcDbEntity
  8
0
 62
7
100
AcDbSpline
 70
8
 71
3
 72
8
 73
4
 74
0
 40
0
 40
0
 40
0
 40
0
 40
1
 40
1
 40
1
 40
1
 10
66.418005
 20
89.696315
 30
0.0
 10
66.418005
 20
89.192404
 30
0.0
 10
66.618183
 20
88.709131
 30
0.0
 10
66.974502
 20
88.352812
 30
0.0
  0
SPLINE
  5
23f
100
AcDbEntity
  8
0
 62
7
100
AcDbSpline
 70
8
 71
3
 72
8
 73
4
 74
0
 40
0
 40
0
 40
0
 40
0
 40
1
 40
1
 40
1
 40
1
 10
66.974502
 20
88.352812
 30
0.0
 10
67.330822
 20
87.996493
 30
0.0
 10
67.814094
 20
87.796315
 30
0.0
 10
68.318005
 20
87.796315
 30
0.0
  0
SPLINE
  5
240
100
AcDbEntity
  8
0
 62
7
100
AcDbSpline
 70
8
 71
3
 72
8
 73
4
 74
0
 40
0
 40
0
 40
0
 40
0
 40
1
 40
1
 40
1
 40
1
 10
66.418005
 20
90.896315
 30
0.0
 10
66.418005
 20
91.400227
 30
0.0
 10
66.217827
 20
91.883499
 30
0.0
 10
65.861508
 20
92.239818
 30
0.0
  0
SPLINE
  5
241
100
AcDbEntity
  8
0
 62
7
100
AcDbSpline
 70
8
 71
3
 72
8
 73
4
 74
0
 40
0
 40
0
 40
0
 40
0
 40
1
 40
1
 40
1
 40
1
 10
65.861508
 20
92.239818
 30
0.0
 10
65.505189
 20
92.596137
 30
0.0
 10
65.021917
 20
92.796315
 30
0.0
 10
64.518005
 20
92.796315
 30
0.0
  0
SPLINE
  5
242
100
AcDbEntity
  8
0
 62
7
100
AcDbSpline
 70
8
 71
3
 72
8
 73
4
 74
0
 40
0
 40
0
 40
0
 40
0
 40
1
 40
1
 40
1
 40
1
 10
47.318004
 20
92.796315
 30
0.0
 10
46.814092
 20
92.796315
 30
0.0
 10
46.330820
 20
92.596137
 30
0.0
 10
45.974501
 20
92.239818
 30
0.0
  0
SPLINE
  5
243
100
AcDbEntity
  8
0
 62
7
100
AcDbSpline
 70
8
 71
3
 72
8
 73
4
 74
0
 40
0
 40
0
 40
0
 40
0
 40
1
 40
1
 40
1
 40
1
 10
45.974501
 20
92.239818
 30
0.0
 10
45.618182
 20
91.883499
 30
0.0
 10
45.418004
 20
91.400227
 30
0.0
 10
45.418004
 20
90.896315
 30
0.0
  0
SPLINE
  5
244
100
AcDbEntity
  8
0
 62
7
100
AcDbSpline
 70
8
 71
3
 72
8
 73
4
 74
0
 40
0
 40
0
 40
0
 40
0
 40
1
 40
1
 40
1
 40
1
 10
43.584303
 20
87.389415
 30
0.0
 10
44.607200
 20
87.425130
 30
0.0
 10
45.417981
 20
88.264695
 30
0.0
 10
45.418004
 20
89.288215
 30
0.0
  0
SPLINE
  5
245
100
AcDbEntity
  8
0
 62
7
100
AcDbSpline
 70
8
 71
3
 72
8
 73
4
 74
0
 40
0
 40
0
 40
0
 40
0
 40
1
 40
1
 40
1
 40
1
 10
26.973702
 20
86.809315
 30
0.0
 10
25.925034
 20
86.772675
 30
0.0
 10
25.104610
 20
85.892884
 30
0.0
 10
25.141202
 20
84.844215
 30
0.0
  0
SPLINE
  5
246
100
AcDbEntity
  8
0
 62
7
100
AcDbSpline
 70
8
 71
3
 72
8
 73
4
 74
0
 40
0
 40
0
 40
0
 40
0
 40
1
 40
1
 40
1
 40
1
 10
23.242502
 20
82.847115
 30
0.0
 10
23.758097
 20
82.846854
 30
0.0
 10
24.251659
 20
83.056145
 30
0.0
 10
24.609906
 20
83.426951
 30
0.0
  0
SPLINE
  5
247
100
AcDbEntity
  8
0
 62
7
100
AcDbSpline
 70
8
 71
3
 72
8
 73
4
 74
0
 40
0
 40
0
 40
0
 40
0
 40
1
 40
1
 40
1
 40
1
 10
24.609906
 20
83.426951
 30
0.0
 10
24.968154
 20
83.797757
 30
0.0
 10
25.160321
 20
84.298235
 30
0.0
 10
25.142302
 20
84.813515
 30
0.0
  0
SPLINE
  5
248
100
AcDbEntity
  8
0
 62
7
100
AcDbSpline
 70
8
 71
3
 72
8
 73
4
 74
0
 40
0
 40
0
 40
0
 40
0
 40
1
 40
1
 40
1
 40
1
 10
20.621902
 20
82.848515
 30
0.0
 10
20.510969
 20
82.848560
 30
0.0
 10
20.400246
 20
82.838889
 30
0.0
 10
20.291002
 20
82.819615
 30
0.0
  0
SPLINE
  5
249
100
AcDbEntity
  8
0
 62
7
100
AcDbSpline
 70
8
 71
3
 72
8
 73
4
 74
0
 40
0
 40
0
 40
0
 40
0
 40
1
 40
1
 40
1
 40
1
 10
1.645300
 20
79.531914
 30
0.0
 10
1.149038
 20
79.444411
 30
0.0
 10
0.707863
 20
79.163349
 30
0.0
 10
0.418831
 20
78.750562
 30
0.0
  0
SPLINE
  5
24a
100
AcDbEntity
  8
0
 62
7
100
AcDbSpline
 70
8
 71
3
 72
8
 73
4
 74
0
 40
0
 40
0
 40
0
 40
0
 40
1
 40
1
 40
1
 40
1
 10
0.418831
 20
78.750562
 30
0.0
 10
0.129799
 20
78.337774
 30
0.0
 10
0.016587
 20
77.827075
 30
0.0
 10
0.104100
 20
77.330814
 30
0.0
  0
LWPOLYLINE
  5
24b
100
AcDbEntity
  8
0
 62
7
100
AcDbPolyline
 90
2
 70
0
 10
58.518905
 20
25.997310
 30
0.0
 10
10.744701
 20
26.021510
 30
0.0
  0
LWPOLYLINE
  5
24c
100
AcDbEntity
  8
0
 62
7
100
AcDbPolyline
 90
4
 70
1
 10
12.097401
 20
29.613510
 30
0.0
 10
25.835402
 20
32.035911
 30
0.0
 10
23.413002
 20
45.773912
 30
0.0
 10
9.675001
 20
43.351511
 30
0.0
  0
LWPOLYLINE
  5
24d
100
AcDbEntity
  8
0
 62
7
100
AcDbPolyline
 90
4
 70
1
 10
9.145301
 20
46.355212
 30
0.0
 10
22.883402
 20
48.777612
 30
0.0
 10
20.461002
 20
62.515713
 30
0.0
 10
6.723001
 20
60.093313
 30
0.0
  0
LWPOLYLINE
  5
24e
100
AcDbEntity
  8
0
 62
7
100
AcDbPolyline
 90
4
 70
1
 10
6.193300
 20
63.096913
 30
0.0
 10
19.931402
 20
65.519313
 30
0.0
 10
17.509001
 20
79.257414
 30
0.0
 10
3.770900
 20
76.835014
 30
0.0
  0
LWPOLYLINE
  5
24f
100
AcDbEntity
  8
0
 62
7
100
AcDbPolyline
 90
4
 70
1
 10
30.376702
 20
35.922111
 30
0.0
 10
44.318204
 20
36.409011
 30
0.0
 10
43.831404
 20
50.350512
 30
0.0
 10
29.889902
 20
49.863612
 30
0.0
  0
LWPOLYLINE
  5
250
100
AcDbEntity
  8
0
 62
7
100
AcDbPolyline
 90
4
 70
1
 10
29.783402
 20
52.911712
 30
0.0
 10
43.724904
 20
53.398612
 30
0.0
 10
43.238103
 20
67.340113
 30
0.0
 10
29.296602
 20
66.853313
 30
0.0
  0
LWPOLYLINE
  5
251
100
AcDbEntity
  8
0
 62
7
100
AcDbPolyline
 90
4
 70
1
 10
29.190102
 20
69.901414
 30
0.0
 10
43.131703
 20
70.388214
 30
0.0
 10
42.644803
 20
84.329715
 30
0.0
 10
28.703302
 20
83.842915
 30
0.0
  0
LWPOLYLINE
  5
252
100
AcDbEntity
  8
0
 62
7
100
AcDbPolyline
 90
4
 70
1
 10
48.943004
 20
41.821311
 30
0.0
 10
62.893005
 20
41.821311
 30
0.0
 10
62.893005
 20
55.771312
 30
0.0
 10
48.943004
 20
55.771312
 30
0.0
  0
LWPOLYLINE
  5
253
100
AcDbEntity
  8
0
 62
7
100
AcDbPolyline
 90
4
 70
1
 10
48.943004
 20
58.821313
 30
0.0
 10
62.893005
 20
58.821313
 30
0.0
 10
62.893005
 20
72.771314
 30
0.0
 10
48.943004
 20
72.771314
 30
0.0
  0
LWPOLYLINE
  5
254
100
AcDbEntity
  8
0
 62
7
100
AcDbPolyline
 90
4
 70
1
 10
48.943004
 20
75.821314
 30
0.0
 10
62.893005
 20
75.821314
 30
0.0
 10
62.893005
 20
89.771315
 30
0.0
 10
48.943004
 20
89.771315
 30
0.0
  0
LWPOLYLINE
  5
255
100
AcDbEntity
  8
0
 62
7
100
AcDbPolyline
 90
4
 70
1
 10
66.943005
 20
36.821311
 30
0.0
 10
80.893006
 20
36.821311
 30
0.0
 10
80.893006
 20
50.771312
 30
0.0
 10
66.943005
 20
50.771312
 30
0.0
  0
LWPOLYLINE
  5
256
100
AcDbEntity
  8
0
 62
7
100
AcDbPolyline
 90
4
 70
1
 10
66.943005
 20
53.821312
 30
0.0
 10
80.893006
 20
53.821312
 30
0.0
 10
80.893006
 20
67.771313
 30
0.0
 10
66.943005
 20
67.771313
 30
0.0
  0
LWPOLYLINE
  5
257
100
AcDbEntity
  8
0
 62
7
100
AcDbPolyline
 90
4
 70
1
 10
66.943005
 20
70.821314
 30
0.0
 10
80.893006
 20
70.821314
 30
0.0
 10
80.893006
 20
84.771315
 30
0.0
 10
66.943005
 20
84.771315
 30
0.0
  0
LWPOLYLINE
  5
258
100
AcDbEntity
  8
0
 62
7
100
AcDbPolyline
 90
4
 70
1
 10
84.943007
 20
31.821311
 30
0.0
 10
98.893008
 20
31.821311
 30
0.0
 10
98.893008
 20
45.771312
 30
0.0
 10
84.943007
 20
45.771312
 30
0.0
  0
LWPOLYLINE
  5
259
100
AcDbEntity
  8
0
 62
7
100
AcDbPolyline
 90
4
 70
1
 10
84.943007
 20
48.821312
 30
0.0
 10
98.893008
 20
48.821312
 30
0.0
 10
98.893008
 20
62.771313
 30
0.0
 10
84.943007
 20
62.771313
 30
0.0
  0
LWPOLYLINE
  5
25a
100
AcDbEntity
  8
0
 62
7
100
AcDbPolyline
 90
4
 70
1
 10
84.943007
 20
65.821313
 30
0.0
 10
98.893008
 20
65.821313
 30
0.0
 10
98.893008
 20
79.771314
 30
0.0
 10
84.943007
 20
79.771314
 30
0.0
  0
LWPOLYLINE
  5
25b
100
AcDbEntity
  8
0
 62
7
100
AcDbPolyline
 90
4
 70
1
 10
63.943005
 20
14.821309
 30
0.0
 10
77.893006
 20
14.821309
 30
0.0
 10
77.893006
 20
28.771310
 30
0.0
 10
63.943005
 20
28.771310
 30
0.0
  0
LWPOLYLINE
  5
25c
100
AcDbEntity
  8
0
 62
7
100
AcDbPolyline
 90
4
 70
1
 10
83.163807
 20
13.843909
 30
0.0
 10
96.809008
 20
10.943509
 30
0.0
 10
99.709408
 20
24.588710
 30
0.0
 10
86.064207
 20
27.489110
 30
0.0
  0
LWPOLYLINE
  5
25d
100
AcDbEntity
  8
0
 62
7
100
AcDbPolyline
 90
4
 70
1
 10
101.576708
 20
9.337909
 30
0.0
 10
114.320709
 20
3.663908
 30
0.0
 10
119.994710
 20
16.407809
 30
0.0
 10
107.250709
 20
22.081810
 30
0.0
  0
ENDSEC
  0
SECTION
  2
OBJECTS
  0
DICTIONARY
  5
C
330
0
100
AcDbDictionary
  3
ACAD_GROUP
350
D
  3
ACAD_MLINESTYLE
350
17
  0
DICTIONARY
  5
D
330
C
100
AcDbDictionary
  0
DICTIONARY
  5
1A
330
C
100
AcDbDictionary
  0
DICTIONARY
  5
17
330
C
100
AcDbDictionary
  3
STANDARD
350
18
  0
DICTIONARY
  5
19
330
C
100
AcDbDictionary
  0
ENDSEC
  0
EOF
