<?xml version="1.0" standalone="no"?>
 <!DOCTYPE svg PUBLIC "-//W3C//DTD SVG 1.1//EN" 
 "http://www.w3.org/Graphics/SVG/1.1/DTD/svg11.dtd"> 
<svg
  xmlns:svg="http://www.w3.org/2000/svg"
  xmlns="http://www.w3.org/2000/svg"
  xmlns:xlink="http://www.w3.org/1999/xlink"
  version="1.1"
  width="419.9890mm" height="297.0022mm" viewBox="0.0000 0.0000 419.9890 297.0022">
<title>SVG Image created as case_blueprint-brd.svg date 2024/04/28 13:00:13 </title>
  <desc>Image generated by PCBNEW </desc>
<g style="fill:#000000; fill-opacity:1.0000;stroke:#000000; stroke-opacity:1.0000;
stroke-linecap:round; stroke-linejoin:round;"
 transform="translate(0 0) scale(1 1)">
</g>
<g style="fill:none; 
stroke:#000000; stroke-width:0.1500; stroke-opacity:1; 
stroke-linecap:round; stroke-linejoin:round;">
<path d="M299.9890 253.0022
L407.9890 253.0022
L407.9890 285.0022
L299.9890 285.0022
L299.9890 253.0022
" />
</g>
<g style="fill:none; 
stroke:#000000; stroke-width:0.1500; stroke-opacity:1; 
stroke-linecap:round; stroke-linejoin:round;">
<path d="M10.0000 10.0000
L409.9890 10.0000
L409.9890 287.0022
L10.0000 287.0022
L10.0000 10.0000
" />
</g>
<g style="fill:none; 
stroke:#000000; stroke-width:0.1500; stroke-opacity:1; 
stroke-linecap:round; stroke-linejoin:round;">
<path d="M12.0000 12.0000
L407.9890 12.0000
L407.9890 285.0022
L12.0000 285.0022
L12.0000 12.0000
" />
</g>
<g style="fill:none; 
stroke:#000000; stroke-width:0.1500; stroke-opacity:1; 
stroke-linecap:round; stroke-linejoin:round;">
<path d="M60.0000 12.0000
L60.0000 10.0000
" />
</g>
<g style="fill:none; 
stroke:#000000; stroke-width:0.1500; stroke-opacity:1; 
stroke-linecap:round; stroke-linejoin:round;">
<path d="M110.0000 12.0000
L110.0000 10.0000
" />
</g>
<g style="fill:none; 
stroke:#000000; stroke-width:0.1500; stroke-opacity:1; 
stroke-linecap:round; stroke-linejoin:round;">
<path d="M160.0000 12.0000
L160.0000 10.0000
" />
</g>
<g style="fill:none; 
stroke:#000000; stroke-width:0.1500; stroke-opacity:1; 
stroke-linecap:round; stroke-linejoin:round;">
<path d="M210.0000 12.0000
L210.0000 10.0000
" />
</g>
<g style="fill:none; 
stroke:#000000; stroke-width:0.1500; stroke-opacity:1; 
stroke-linecap:round; stroke-linejoin:round;">
<path d="M260.0000 12.0000
L260.0000 10.0000
" />
</g>
<g style="fill:none; 
stroke:#000000; stroke-width:0.1500; stroke-opacity:1; 
stroke-linecap:round; stroke-linejoin:round;">
<path d="M310.0000 12.0000
L310.0000 10.0000
" />
</g>
<g style="fill:none; 
stroke:#000000; stroke-width:0.1500; stroke-opacity:1; 
stroke-linecap:round; stroke-linejoin:round;">
<path d="M360.0000 12.0000
L360.0000 10.0000
" />
</g>
<g style="fill:none; 
stroke:#000000; stroke-width:0.1500; stroke-opacity:1; 
stroke-linecap:round; stroke-linejoin:round;">
<text x="35.0000" y="11.6500"
textLength="1.4281" font-size="1.7333" lengthAdjust="spacingAndGlyphs"
text-anchor="start" opacity="0">1</text>
<g class="stroked-text"><desc>1</desc>
<path d="M36.0892 11.5936
L35.3463 11.5936
" />
<path d="M35.7177 11.5936
L35.7177 10.2936
" />
<path d="M35.7177 10.2936
L35.5939 10.4793
" />
<path d="M35.5939 10.4793
L35.4701 10.6031
" />
<path d="M35.4701 10.6031
L35.3463 10.6650
" />
</g></g>
<g style="fill:none; 
stroke:#000000; stroke-width:0.1500; stroke-opacity:1; 
stroke-linecap:round; stroke-linejoin:round;">
<text x="85.0000" y="11.6500"
textLength="1.4281" font-size="1.7333" lengthAdjust="spacingAndGlyphs"
text-anchor="start" opacity="0">2</text>
<g class="stroked-text"><desc>2</desc>
<path d="M85.3463 10.4174
L85.4082 10.3555
" />
<path d="M85.4082 10.3555
L85.5320 10.2936
" />
<path d="M85.5320 10.2936
L85.8415 10.2936
" />
<path d="M85.8415 10.2936
L85.9654 10.3555
" />
<path d="M85.9654 10.3555
L86.0273 10.4174
" />
<path d="M86.0273 10.4174
L86.0892 10.5412
" />
<path d="M86.0892 10.5412
L86.0892 10.6650
" />
<path d="M86.0892 10.6650
L86.0273 10.8507
" />
<path d="M86.0273 10.8507
L85.2844 11.5936
" />
<path d="M85.2844 11.5936
L86.0892 11.5936
" />
</g></g>
<g style="fill:none; 
stroke:#000000; stroke-width:0.1500; stroke-opacity:1; 
stroke-linecap:round; stroke-linejoin:round;">
<text x="135.0000" y="11.6500"
textLength="1.4281" font-size="1.7333" lengthAdjust="spacingAndGlyphs"
text-anchor="start" opacity="0">3</text>
<g class="stroked-text"><desc>3</desc>
<path d="M135.2844 10.2936
L136.0892 10.2936
" />
<path d="M136.0892 10.2936
L135.6558 10.7888
" />
<path d="M135.6558 10.7888
L135.8415 10.7888
" />
<path d="M135.8415 10.7888
L135.9654 10.8507
" />
<path d="M135.9654 10.8507
L136.0273 10.9127
" />
<path d="M136.0273 10.9127
L136.0892 11.0365
" />
<path d="M136.0892 11.0365
L136.0892 11.3460
" />
<path d="M136.0892 11.3460
L136.0273 11.4698
" />
<path d="M136.0273 11.4698
L135.9654 11.5317
" />
<path d="M135.9654 11.5317
L135.8415 11.5936
" />
<path d="M135.8415 11.5936
L135.4701 11.5936
" />
<path d="M135.4701 11.5936
L135.3463 11.5317
" />
<path d="M135.3463 11.5317
L135.2844 11.4698
" />
</g></g>
<g style="fill:none; 
stroke:#000000; stroke-width:0.1500; stroke-opacity:1; 
stroke-linecap:round; stroke-linejoin:round;">
<text x="185.0000" y="11.6500"
textLength="1.4281" font-size="1.7333" lengthAdjust="spacingAndGlyphs"
text-anchor="start" opacity="0">4</text>
<g class="stroked-text"><desc>4</desc>
<path d="M185.9654 10.7269
L185.9654 11.5936
" />
<path d="M185.6558 10.2317
L185.3463 11.1603
" />
<path d="M185.3463 11.1603
L186.1511 11.1603
" />
</g></g>
<g style="fill:none; 
stroke:#000000; stroke-width:0.1500; stroke-opacity:1; 
stroke-linecap:round; stroke-linejoin:round;">
<text x="235.0000" y="11.6500"
textLength="1.4281" font-size="1.7333" lengthAdjust="spacingAndGlyphs"
text-anchor="start" opacity="0">5</text>
<g class="stroked-text"><desc>5</desc>
<path d="M236.0273 10.2936
L235.4082 10.2936
" />
<path d="M235.4082 10.2936
L235.3463 10.9127
" />
<path d="M235.3463 10.9127
L235.4082 10.8507
" />
<path d="M235.4082 10.8507
L235.5320 10.7888
" />
<path d="M235.5320 10.7888
L235.8415 10.7888
" />
<path d="M235.8415 10.7888
L235.9654 10.8507
" />
<path d="M235.9654 10.8507
L236.0273 10.9127
" />
<path d="M236.0273 10.9127
L236.0892 11.0365
" />
<path d="M236.0892 11.0365
L236.0892 11.3460
" />
<path d="M236.0892 11.3460
L236.0273 11.4698
" />
<path d="M236.0273 11.4698
L235.9654 11.5317
" />
<path d="M235.9654 11.5317
L235.8415 11.5936
" />
<path d="M235.8415 11.5936
L235.5320 11.5936
" />
<path d="M235.5320 11.5936
L235.4082 11.5317
" />
<path d="M235.4082 11.5317
L235.3463 11.4698
" />
</g></g>
<g style="fill:none; 
stroke:#000000; stroke-width:0.1500; stroke-opacity:1; 
stroke-linecap:round; stroke-linejoin:round;">
<text x="285.0000" y="11.6500"
textLength="1.4281" font-size="1.7333" lengthAdjust="spacingAndGlyphs"
text-anchor="start" opacity="0">6</text>
<g class="stroked-text"><desc>6</desc>
<path d="M285.9654 10.2936
L285.7177 10.2936
" />
<path d="M285.7177 10.2936
L285.5939 10.3555
" />
<path d="M285.5939 10.3555
L285.5320 10.4174
" />
<path d="M285.5320 10.4174
L285.4082 10.6031
" />
<path d="M285.4082 10.6031
L285.3463 10.8507
" />
<path d="M285.3463 10.8507
L285.3463 11.3460
" />
<path d="M285.3463 11.3460
L285.4082 11.4698
" />
<path d="M285.4082 11.4698
L285.4701 11.5317
" />
<path d="M285.4701 11.5317
L285.5939 11.5936
" />
<path d="M285.5939 11.5936
L285.8415 11.5936
" />
<path d="M285.8415 11.5936
L285.9654 11.5317
" />
<path d="M285.9654 11.5317
L286.0273 11.4698
" />
<path d="M286.0273 11.4698
L286.0892 11.3460
" />
<path d="M286.0892 11.3460
L286.0892 11.0365
" />
<path d="M286.0892 11.0365
L286.0273 10.9127
" />
<path d="M286.0273 10.9127
L285.9654 10.8507
" />
<path d="M285.9654 10.8507
L285.8415 10.7888
" />
<path d="M285.8415 10.7888
L285.5939 10.7888
" />
<path d="M285.5939 10.7888
L285.4701 10.8507
" />
<path d="M285.4701 10.8507
L285.4082 10.9127
" />
<path d="M285.4082 10.9127
L285.3463 11.0365
" />
</g></g>
<g style="fill:none; 
stroke:#000000; stroke-width:0.1500; stroke-opacity:1; 
stroke-linecap:round; stroke-linejoin:round;">
<text x="335.0000" y="11.6500"
textLength="1.4281" font-size="1.7333" lengthAdjust="spacingAndGlyphs"
text-anchor="start" opacity="0">7</text>
<g class="stroked-text"><desc>7</desc>
<path d="M335.2844 10.2936
L336.1511 10.2936
" />
<path d="M336.1511 10.2936
L335.5939 11.5936
" />
</g></g>
<g style="fill:none; 
stroke:#000000; stroke-width:0.1500; stroke-opacity:1; 
stroke-linecap:round; stroke-linejoin:round;">
<text x="385.0000" y="11.6500"
textLength="1.4281" font-size="1.7333" lengthAdjust="spacingAndGlyphs"
text-anchor="start" opacity="0">8</text>
<g class="stroked-text"><desc>8</desc>
<path d="M385.5939 10.8507
L385.4701 10.7888
" />
<path d="M385.4701 10.7888
L385.4082 10.7269
" />
<path d="M385.4082 10.7269
L385.3463 10.6031
" />
<path d="M385.3463 10.6031
L385.3463 10.5412
" />
<path d="M385.3463 10.5412
L385.4082 10.4174
" />
<path d="M385.4082 10.4174
L385.4701 10.3555
" />
<path d="M385.4701 10.3555
L385.5939 10.2936
" />
<path d="M385.5939 10.2936
L385.8415 10.2936
" />
<path d="M385.8415 10.2936
L385.9654 10.3555
" />
<path d="M385.9654 10.3555
L386.0273 10.4174
" />
<path d="M386.0273 10.4174
L386.0892 10.5412
" />
<path d="M386.0892 10.5412
L386.0892 10.6031
" />
<path d="M386.0892 10.6031
L386.0273 10.7269
" />
<path d="M386.0273 10.7269
L385.9654 10.7888
" />
<path d="M385.9654 10.7888
L385.8415 10.8507
" />
<path d="M385.8415 10.8507
L385.5939 10.8507
" />
<path d="M385.5939 10.8507
L385.4701 10.9127
" />
<path d="M385.4701 10.9127
L385.4082 10.9746
" />
<path d="M385.4082 10.9746
L385.3463 11.0984
" />
<path d="M385.3463 11.0984
L385.3463 11.3460
" />
<path d="M385.3463 11.3460
L385.4082 11.4698
" />
<path d="M385.4082 11.4698
L385.4701 11.5317
" />
<path d="M385.4701 11.5317
L385.5939 11.5936
" />
<path d="M385.5939 11.5936
L385.8415 11.5936
" />
<path d="M385.8415 11.5936
L385.9654 11.5317
" />
<path d="M385.9654 11.5317
L386.0273 11.4698
" />
<path d="M386.0273 11.4698
L386.0892 11.3460
" />
<path d="M386.0892 11.3460
L386.0892 11.0984
" />
<path d="M386.0892 11.0984
L386.0273 10.9746
" />
<path d="M386.0273 10.9746
L385.9654 10.9127
" />
<path d="M385.9654 10.9127
L385.8415 10.8507
" />
</g></g>
<g style="fill:none; 
stroke:#000000; stroke-width:0.1500; stroke-opacity:1; 
stroke-linecap:round; stroke-linejoin:round;">
<path d="M60.0000 285.0022
L60.0000 287.0022
" />
</g>
<g style="fill:none; 
stroke:#000000; stroke-width:0.1500; stroke-opacity:1; 
stroke-linecap:round; stroke-linejoin:round;">
<path d="M110.0000 285.0022
L110.0000 287.0022
" />
</g>
<g style="fill:none; 
stroke:#000000; stroke-width:0.1500; stroke-opacity:1; 
stroke-linecap:round; stroke-linejoin:round;">
<path d="M160.0000 285.0022
L160.0000 287.0022
" />
</g>
<g style="fill:none; 
stroke:#000000; stroke-width:0.1500; stroke-opacity:1; 
stroke-linecap:round; stroke-linejoin:round;">
<path d="M210.0000 285.0022
L210.0000 287.0022
" />
</g>
<g style="fill:none; 
stroke:#000000; stroke-width:0.1500; stroke-opacity:1; 
stroke-linecap:round; stroke-linejoin:round;">
<path d="M260.0000 285.0022
L260.0000 287.0022
" />
</g>
<g style="fill:none; 
stroke:#000000; stroke-width:0.1500; stroke-opacity:1; 
stroke-linecap:round; stroke-linejoin:round;">
<path d="M310.0000 285.0022
L310.0000 287.0022
" />
</g>
<g style="fill:none; 
stroke:#000000; stroke-width:0.1500; stroke-opacity:1; 
stroke-linecap:round; stroke-linejoin:round;">
<path d="M360.0000 285.0022
L360.0000 287.0022
" />
</g>
<g style="fill:none; 
stroke:#000000; stroke-width:0.1500; stroke-opacity:1; 
stroke-linecap:round; stroke-linejoin:round;">
<text x="35.0000" y="286.6522"
textLength="1.4281" font-size="1.7333" lengthAdjust="spacingAndGlyphs"
text-anchor="start" opacity="0">1</text>
<g class="stroked-text"><desc>1</desc>
<path d="M36.0892 286.5958
L35.3463 286.5958
" />
<path d="M35.7177 286.5958
L35.7177 285.2958
" />
<path d="M35.7177 285.2958
L35.5939 285.4815
" />
<path d="M35.5939 285.4815
L35.4701 285.6053
" />
<path d="M35.4701 285.6053
L35.3463 285.6672
" />
</g></g>
<g style="fill:none; 
stroke:#000000; stroke-width:0.1500; stroke-opacity:1; 
stroke-linecap:round; stroke-linejoin:round;">
<text x="85.0000" y="286.6522"
textLength="1.4281" font-size="1.7333" lengthAdjust="spacingAndGlyphs"
text-anchor="start" opacity="0">2</text>
<g class="stroked-text"><desc>2</desc>
<path d="M85.3463 285.4196
L85.4082 285.3577
" />
<path d="M85.4082 285.3577
L85.5320 285.2958
" />
<path d="M85.5320 285.2958
L85.8415 285.2958
" />
<path d="M85.8415 285.2958
L85.9654 285.3577
" />
<path d="M85.9654 285.3577
L86.0273 285.4196
" />
<path d="M86.0273 285.4196
L86.0892 285.5434
" />
<path d="M86.0892 285.5434
L86.0892 285.6672
" />
<path d="M86.0892 285.6672
L86.0273 285.8529
" />
<path d="M86.0273 285.8529
L85.2844 286.5958
" />
<path d="M85.2844 286.5958
L86.0892 286.5958
" />
</g></g>
<g style="fill:none; 
stroke:#000000; stroke-width:0.1500; stroke-opacity:1; 
stroke-linecap:round; stroke-linejoin:round;">
<text x="135.0000" y="286.6522"
textLength="1.4281" font-size="1.7333" lengthAdjust="spacingAndGlyphs"
text-anchor="start" opacity="0">3</text>
<g class="stroked-text"><desc>3</desc>
<path d="M135.2844 285.2958
L136.0892 285.2958
" />
<path d="M136.0892 285.2958
L135.6558 285.7910
" />
<path d="M135.6558 285.7910
L135.8415 285.7910
" />
<path d="M135.8415 285.7910
L135.9654 285.8529
" />
<path d="M135.9654 285.8529
L136.0273 285.9149
" />
<path d="M136.0273 285.9149
L136.0892 286.0387
" />
<path d="M136.0892 286.0387
L136.0892 286.3482
" />
<path d="M136.0892 286.3482
L136.0273 286.4720
" />
<path d="M136.0273 286.4720
L135.9654 286.5339
" />
<path d="M135.9654 286.5339
L135.8415 286.5958
" />
<path d="M135.8415 286.5958
L135.4701 286.5958
" />
<path d="M135.4701 286.5958
L135.3463 286.5339
" />
<path d="M135.3463 286.5339
L135.2844 286.4720
" />
</g></g>
<g style="fill:none; 
stroke:#000000; stroke-width:0.1500; stroke-opacity:1; 
stroke-linecap:round; stroke-linejoin:round;">
<text x="185.0000" y="286.6522"
textLength="1.4281" font-size="1.7333" lengthAdjust="spacingAndGlyphs"
text-anchor="start" opacity="0">4</text>
<g class="stroked-text"><desc>4</desc>
<path d="M185.9654 285.7291
L185.9654 286.5958
" />
<path d="M185.6558 285.2339
L185.3463 286.1625
" />
<path d="M185.3463 286.1625
L186.1511 286.1625
" />
</g></g>
<g style="fill:none; 
stroke:#000000; stroke-width:0.1500; stroke-opacity:1; 
stroke-linecap:round; stroke-linejoin:round;">
<text x="235.0000" y="286.6522"
textLength="1.4281" font-size="1.7333" lengthAdjust="spacingAndGlyphs"
text-anchor="start" opacity="0">5</text>
<g class="stroked-text"><desc>5</desc>
<path d="M236.0273 285.2958
L235.4082 285.2958
" />
<path d="M235.4082 285.2958
L235.3463 285.9149
" />
<path d="M235.3463 285.9149
L235.4082 285.8529
" />
<path d="M235.4082 285.8529
L235.5320 285.7910
" />
<path d="M235.5320 285.7910
L235.8415 285.7910
" />
<path d="M235.8415 285.7910
L235.9654 285.8529
" />
<path d="M235.9654 285.8529
L236.0273 285.9149
" />
<path d="M236.0273 285.9149
L236.0892 286.0387
" />
<path d="M236.0892 286.0387
L236.0892 286.3482
" />
<path d="M236.0892 286.3482
L236.0273 286.4720
" />
<path d="M236.0273 286.4720
L235.9654 286.5339
" />
<path d="M235.9654 286.5339
L235.8415 286.5958
" />
<path d="M235.8415 286.5958
L235.5320 286.5958
" />
<path d="M235.5320 286.5958
L235.4082 286.5339
" />
<path d="M235.4082 286.5339
L235.3463 286.4720
" />
</g></g>
<g style="fill:none; 
stroke:#000000; stroke-width:0.1500; stroke-opacity:1; 
stroke-linecap:round; stroke-linejoin:round;">
<text x="285.0000" y="286.6522"
textLength="1.4281" font-size="1.7333" lengthAdjust="spacingAndGlyphs"
text-anchor="start" opacity="0">6</text>
<g class="stroked-text"><desc>6</desc>
<path d="M285.9654 285.2958
L285.7177 285.2958
" />
<path d="M285.7177 285.2958
L285.5939 285.3577
" />
<path d="M285.5939 285.3577
L285.5320 285.4196
" />
<path d="M285.5320 285.4196
L285.4082 285.6053
" />
<path d="M285.4082 285.6053
L285.3463 285.8529
" />
<path d="M285.3463 285.8529
L285.3463 286.3482
" />
<path d="M285.3463 286.3482
L285.4082 286.4720
" />
<path d="M285.4082 286.4720
L285.4701 286.5339
" />
<path d="M285.4701 286.5339
L285.5939 286.5958
" />
<path d="M285.5939 286.5958
L285.8415 286.5958
" />
<path d="M285.8415 286.5958
L285.9654 286.5339
" />
<path d="M285.9654 286.5339
L286.0273 286.4720
" />
<path d="M286.0273 286.4720
L286.0892 286.3482
" />
<path d="M286.0892 286.3482
L286.0892 286.0387
" />
<path d="M286.0892 286.0387
L286.0273 285.9149
" />
<path d="M286.0273 285.9149
L285.9654 285.8529
" />
<path d="M285.9654 285.8529
L285.8415 285.7910
" />
<path d="M285.8415 285.7910
L285.5939 285.7910
" />
<path d="M285.5939 285.7910
L285.4701 285.8529
" />
<path d="M285.4701 285.8529
L285.4082 285.9149
" />
<path d="M285.4082 285.9149
L285.3463 286.0387
" />
</g></g>
<g style="fill:none; 
stroke:#000000; stroke-width:0.1500; stroke-opacity:1; 
stroke-linecap:round; stroke-linejoin:round;">
<text x="335.0000" y="286.6522"
textLength="1.4281" font-size="1.7333" lengthAdjust="spacingAndGlyphs"
text-anchor="start" opacity="0">7</text>
<g class="stroked-text"><desc>7</desc>
<path d="M335.2844 285.2958
L336.1511 285.2958
" />
<path d="M336.1511 285.2958
L335.5939 286.5958
" />
</g></g>
<g style="fill:none; 
stroke:#000000; stroke-width:0.1500; stroke-opacity:1; 
stroke-linecap:round; stroke-linejoin:round;">
<text x="385.0000" y="286.6522"
textLength="1.4281" font-size="1.7333" lengthAdjust="spacingAndGlyphs"
text-anchor="start" opacity="0">8</text>
<g class="stroked-text"><desc>8</desc>
<path d="M385.5939 285.8529
L385.4701 285.7910
" />
<path d="M385.4701 285.7910
L385.4082 285.7291
" />
<path d="M385.4082 285.7291
L385.3463 285.6053
" />
<path d="M385.3463 285.6053
L385.3463 285.5434
" />
<path d="M385.3463 285.5434
L385.4082 285.4196
" />
<path d="M385.4082 285.4196
L385.4701 285.3577
" />
<path d="M385.4701 285.3577
L385.5939 285.2958
" />
<path d="M385.5939 285.2958
L385.8415 285.2958
" />
<path d="M385.8415 285.2958
L385.9654 285.3577
" />
<path d="M385.9654 285.3577
L386.0273 285.4196
" />
<path d="M386.0273 285.4196
L386.0892 285.5434
" />
<path d="M386.0892 285.5434
L386.0892 285.6053
" />
<path d="M386.0892 285.6053
L386.0273 285.7291
" />
<path d="M386.0273 285.7291
L385.9654 285.7910
" />
<path d="M385.9654 285.7910
L385.8415 285.8529
" />
<path d="M385.8415 285.8529
L385.5939 285.8529
" />
<path d="M385.5939 285.8529
L385.4701 285.9149
" />
<path d="M385.4701 285.9149
L385.4082 285.9768
" />
<path d="M385.4082 285.9768
L385.3463 286.1006
" />
<path d="M385.3463 286.1006
L385.3463 286.3482
" />
<path d="M385.3463 286.3482
L385.4082 286.4720
" />
<path d="M385.4082 286.4720
L385.4701 286.5339
" />
<path d="M385.4701 286.5339
L385.5939 286.5958
" />
<path d="M385.5939 286.5958
L385.8415 286.5958
" />
<path d="M385.8415 286.5958
L385.9654 286.5339
" />
<path d="M385.9654 286.5339
L386.0273 286.4720
" />
<path d="M386.0273 286.4720
L386.0892 286.3482
" />
<path d="M386.0892 286.3482
L386.0892 286.1006
" />
<path d="M386.0892 286.1006
L386.0273 285.9768
" />
<path d="M386.0273 285.9768
L385.9654 285.9149
" />
<path d="M385.9654 285.9149
L385.8415 285.8529
" />
</g></g>
<g style="fill:none; 
stroke:#000000; stroke-width:0.1500; stroke-opacity:1; 
stroke-linecap:round; stroke-linejoin:round;">
<path d="M10.0000 60.0000
L12.0000 60.0000
" />
</g>
<g style="fill:none; 
stroke:#000000; stroke-width:0.1500; stroke-opacity:1; 
stroke-linecap:round; stroke-linejoin:round;">
<path d="M10.0000 110.0000
L12.0000 110.0000
" />
</g>
<g style="fill:none; 
stroke:#000000; stroke-width:0.1500; stroke-opacity:1; 
stroke-linecap:round; stroke-linejoin:round;">
<path d="M10.0000 160.0000
L12.0000 160.0000
" />
</g>
<g style="fill:none; 
stroke:#000000; stroke-width:0.1500; stroke-opacity:1; 
stroke-linecap:round; stroke-linejoin:round;">
<path d="M10.0000 210.0000
L12.0000 210.0000
" />
</g>
<g style="fill:none; 
stroke:#000000; stroke-width:0.1500; stroke-opacity:1; 
stroke-linecap:round; stroke-linejoin:round;">
<path d="M10.0000 260.0000
L12.0000 260.0000
" />
</g>
<g style="fill:none; 
stroke:#000000; stroke-width:0.1500; stroke-opacity:1; 
stroke-linecap:round; stroke-linejoin:round;">
<text x="11.0000" y="35.6500"
textLength="1.3043" font-size="1.7333" lengthAdjust="spacingAndGlyphs"
text-anchor="middle" opacity="0">A</text>
<g class="stroked-text"><desc>A</desc>
<path d="M10.6905 35.2222
L11.3095 35.2222
" />
<path d="M10.5667 35.5936
L11.0000 34.2936
" />
<path d="M11.0000 34.2936
L11.4333 35.5936
" />
</g></g>
<g style="fill:none; 
stroke:#000000; stroke-width:0.1500; stroke-opacity:1; 
stroke-linecap:round; stroke-linejoin:round;">
<text x="11.0000" y="85.6500"
textLength="1.4900" font-size="1.7333" lengthAdjust="spacingAndGlyphs"
text-anchor="middle" opacity="0">B</text>
<g class="stroked-text"><desc>B</desc>
<path d="M11.0929 84.9127
L11.2786 84.9746
" />
<path d="M11.2786 84.9746
L11.3405 85.0365
" />
<path d="M11.3405 85.0365
L11.4024 85.1603
" />
<path d="M11.4024 85.1603
L11.4024 85.3460
" />
<path d="M11.4024 85.3460
L11.3405 85.4698
" />
<path d="M11.3405 85.4698
L11.2786 85.5317
" />
<path d="M11.2786 85.5317
L11.1548 85.5936
" />
<path d="M11.1548 85.5936
L10.6595 85.5936
" />
<path d="M10.6595 85.5936
L10.6595 84.2936
" />
<path d="M10.6595 84.2936
L11.0929 84.2936
" />
<path d="M11.0929 84.2936
L11.2167 84.3555
" />
<path d="M11.2167 84.3555
L11.2786 84.4174
" />
<path d="M11.2786 84.4174
L11.3405 84.5412
" />
<path d="M11.3405 84.5412
L11.3405 84.6650
" />
<path d="M11.3405 84.6650
L11.2786 84.7888
" />
<path d="M11.2786 84.7888
L11.2167 84.8507
" />
<path d="M11.2167 84.8507
L11.0929 84.9127
" />
<path d="M11.0929 84.9127
L10.6595 84.9127
" />
</g></g>
<g style="fill:none; 
stroke:#000000; stroke-width:0.1500; stroke-opacity:1; 
stroke-linecap:round; stroke-linejoin:round;">
<text x="11.0000" y="135.6500"
textLength="1.4900" font-size="1.7333" lengthAdjust="spacingAndGlyphs"
text-anchor="middle" opacity="0">C</text>
<g class="stroked-text"><desc>C</desc>
<path d="M11.4024 135.4698
L11.3405 135.5317
" />
<path d="M11.3405 135.5317
L11.1548 135.5936
" />
<path d="M11.1548 135.5936
L11.0310 135.5936
" />
<path d="M11.0310 135.5936
L10.8452 135.5317
" />
<path d="M10.8452 135.5317
L10.7214 135.4079
" />
<path d="M10.7214 135.4079
L10.6595 135.2841
" />
<path d="M10.6595 135.2841
L10.5976 135.0365
" />
<path d="M10.5976 135.0365
L10.5976 134.8507
" />
<path d="M10.5976 134.8507
L10.6595 134.6031
" />
<path d="M10.6595 134.6031
L10.7214 134.4793
" />
<path d="M10.7214 134.4793
L10.8452 134.3555
" />
<path d="M10.8452 134.3555
L11.0310 134.2936
" />
<path d="M11.0310 134.2936
L11.1548 134.2936
" />
<path d="M11.1548 134.2936
L11.3405 134.3555
" />
<path d="M11.3405 134.3555
L11.4024 134.4174
" />
</g></g>
<g style="fill:none; 
stroke:#000000; stroke-width:0.1500; stroke-opacity:1; 
stroke-linecap:round; stroke-linejoin:round;">
<text x="11.0000" y="185.6500"
textLength="1.4900" font-size="1.7333" lengthAdjust="spacingAndGlyphs"
text-anchor="middle" opacity="0">D</text>
<g class="stroked-text"><desc>D</desc>
<path d="M10.6595 185.5936
L10.6595 184.2936
" />
<path d="M10.6595 184.2936
L10.9690 184.2936
" />
<path d="M10.9690 184.2936
L11.1548 184.3555
" />
<path d="M11.1548 184.3555
L11.2786 184.4793
" />
<path d="M11.2786 184.4793
L11.3405 184.6031
" />
<path d="M11.3405 184.6031
L11.4024 184.8507
" />
<path d="M11.4024 184.8507
L11.4024 185.0365
" />
<path d="M11.4024 185.0365
L11.3405 185.2841
" />
<path d="M11.3405 185.2841
L11.2786 185.4079
" />
<path d="M11.2786 185.4079
L11.1548 185.5317
" />
<path d="M11.1548 185.5317
L10.9690 185.5936
" />
<path d="M10.9690 185.5936
L10.6595 185.5936
" />
</g></g>
<g style="fill:none; 
stroke:#000000; stroke-width:0.1500; stroke-opacity:1; 
stroke-linecap:round; stroke-linejoin:round;">
<text x="11.0000" y="235.6500"
textLength="1.3662" font-size="1.7333" lengthAdjust="spacingAndGlyphs"
text-anchor="middle" opacity="0">E</text>
<g class="stroked-text"><desc>E</desc>
<path d="M10.7214 234.9127
L11.1548 234.9127
" />
<path d="M11.3405 235.5936
L10.7214 235.5936
" />
<path d="M10.7214 235.5936
L10.7214 234.2936
" />
<path d="M10.7214 234.2936
L11.3405 234.2936
" />
</g></g>
<g style="fill:none; 
stroke:#000000; stroke-width:0.1500; stroke-opacity:1; 
stroke-linecap:round; stroke-linejoin:round;">
<text x="11.0000" y="285.6500"
textLength="1.3043" font-size="1.7333" lengthAdjust="spacingAndGlyphs"
text-anchor="middle" opacity="0">F</text>
<g class="stroked-text"><desc>F</desc>
<path d="M11.1857 284.9127
L10.7524 284.9127
" />
<path d="M10.7524 285.5936
L10.7524 284.2936
" />
<path d="M10.7524 284.2936
L11.3714 284.2936
" />
</g></g>
<g style="fill:none; 
stroke:#000000; stroke-width:0.1500; stroke-opacity:1; 
stroke-linecap:round; stroke-linejoin:round;">
<path d="M409.9890 60.0000
L407.9890 60.0000
" />
</g>
<g style="fill:none; 
stroke:#000000; stroke-width:0.1500; stroke-opacity:1; 
stroke-linecap:round; stroke-linejoin:round;">
<path d="M409.9890 110.0000
L407.9890 110.0000
" />
</g>
<g style="fill:none; 
stroke:#000000; stroke-width:0.1500; stroke-opacity:1; 
stroke-linecap:round; stroke-linejoin:round;">
<path d="M409.9890 160.0000
L407.9890 160.0000
" />
</g>
<g style="fill:none; 
stroke:#000000; stroke-width:0.1500; stroke-opacity:1; 
stroke-linecap:round; stroke-linejoin:round;">
<path d="M409.9890 210.0000
L407.9890 210.0000
" />
</g>
<g style="fill:none; 
stroke:#000000; stroke-width:0.1500; stroke-opacity:1; 
stroke-linecap:round; stroke-linejoin:round;">
<path d="M409.9890 260.0000
L407.9890 260.0000
" />
</g>
<g style="fill:none; 
stroke:#000000; stroke-width:0.1500; stroke-opacity:1; 
stroke-linecap:round; stroke-linejoin:round;">
<text x="408.9890" y="35.6500"
textLength="1.3043" font-size="1.7333" lengthAdjust="spacingAndGlyphs"
text-anchor="middle" opacity="0">A</text>
<g class="stroked-text"><desc>A</desc>
<path d="M408.6795 35.2222
L409.2985 35.2222
" />
<path d="M408.5557 35.5936
L408.9890 34.2936
" />
<path d="M408.9890 34.2936
L409.4223 35.5936
" />
</g></g>
<g style="fill:none; 
stroke:#000000; stroke-width:0.1500; stroke-opacity:1; 
stroke-linecap:round; stroke-linejoin:round;">
<text x="408.9890" y="85.6500"
textLength="1.4900" font-size="1.7333" lengthAdjust="spacingAndGlyphs"
text-anchor="middle" opacity="0">B</text>
<g class="stroked-text"><desc>B</desc>
<path d="M409.0819 84.9127
L409.2676 84.9746
" />
<path d="M409.2676 84.9746
L409.3295 85.0365
" />
<path d="M409.3295 85.0365
L409.3914 85.1603
" />
<path d="M409.3914 85.1603
L409.3914 85.3460
" />
<path d="M409.3914 85.3460
L409.3295 85.4698
" />
<path d="M409.3295 85.4698
L409.2676 85.5317
" />
<path d="M409.2676 85.5317
L409.1438 85.5936
" />
<path d="M409.1438 85.5936
L408.6485 85.5936
" />
<path d="M408.6485 85.5936
L408.6485 84.2936
" />
<path d="M408.6485 84.2936
L409.0819 84.2936
" />
<path d="M409.0819 84.2936
L409.2057 84.3555
" />
<path d="M409.2057 84.3555
L409.2676 84.4174
" />
<path d="M409.2676 84.4174
L409.3295 84.5412
" />
<path d="M409.3295 84.5412
L409.3295 84.6650
" />
<path d="M409.3295 84.6650
L409.2676 84.7888
" />
<path d="M409.2676 84.7888
L409.2057 84.8507
" />
<path d="M409.2057 84.8507
L409.0819 84.9127
" />
<path d="M409.0819 84.9127
L408.6485 84.9127
" />
</g></g>
<g style="fill:none; 
stroke:#000000; stroke-width:0.1500; stroke-opacity:1; 
stroke-linecap:round; stroke-linejoin:round;">
<text x="408.9890" y="135.6500"
textLength="1.4900" font-size="1.7333" lengthAdjust="spacingAndGlyphs"
text-anchor="middle" opacity="0">C</text>
<g class="stroked-text"><desc>C</desc>
<path d="M409.3914 135.4698
L409.3295 135.5317
" />
<path d="M409.3295 135.5317
L409.1438 135.5936
" />
<path d="M409.1438 135.5936
L409.0200 135.5936
" />
<path d="M409.0200 135.5936
L408.8342 135.5317
" />
<path d="M408.8342 135.5317
L408.7104 135.4079
" />
<path d="M408.7104 135.4079
L408.6485 135.2841
" />
<path d="M408.6485 135.2841
L408.5866 135.0365
" />
<path d="M408.5866 135.0365
L408.5866 134.8507
" />
<path d="M408.5866 134.8507
L408.6485 134.6031
" />
<path d="M408.6485 134.6031
L408.7104 134.4793
" />
<path d="M408.7104 134.4793
L408.8342 134.3555
" />
<path d="M408.8342 134.3555
L409.0200 134.2936
" />
<path d="M409.0200 134.2936
L409.1438 134.2936
" />
<path d="M409.1438 134.2936
L409.3295 134.3555
" />
<path d="M409.3295 134.3555
L409.3914 134.4174
" />
</g></g>
<g style="fill:none; 
stroke:#000000; stroke-width:0.1500; stroke-opacity:1; 
stroke-linecap:round; stroke-linejoin:round;">
<text x="408.9890" y="185.6500"
textLength="1.4900" font-size="1.7333" lengthAdjust="spacingAndGlyphs"
text-anchor="middle" opacity="0">D</text>
<g class="stroked-text"><desc>D</desc>
<path d="M408.6485 185.5936
L408.6485 184.2936
" />
<path d="M408.6485 184.2936
L408.9580 184.2936
" />
<path d="M408.9580 184.2936
L409.1438 184.3555
" />
<path d="M409.1438 184.3555
L409.2676 184.4793
" />
<path d="M409.2676 184.4793
L409.3295 184.6031
" />
<path d="M409.3295 184.6031
L409.3914 184.8507
" />
<path d="M409.3914 184.8507
L409.3914 185.0365
" />
<path d="M409.3914 185.0365
L409.3295 185.2841
" />
<path d="M409.3295 185.2841
L409.2676 185.4079
" />
<path d="M409.2676 185.4079
L409.1438 185.5317
" />
<path d="M409.1438 185.5317
L408.9580 185.5936
" />
<path d="M408.9580 185.5936
L408.6485 185.5936
" />
</g></g>
<g style="fill:none; 
stroke:#000000; stroke-width:0.1500; stroke-opacity:1; 
stroke-linecap:round; stroke-linejoin:round;">
<text x="408.9890" y="235.6500"
textLength="1.3662" font-size="1.7333" lengthAdjust="spacingAndGlyphs"
text-anchor="middle" opacity="0">E</text>
<g class="stroked-text"><desc>E</desc>
<path d="M408.7104 234.9127
L409.1438 234.9127
" />
<path d="M409.3295 235.5936
L408.7104 235.5936
" />
<path d="M408.7104 235.5936
L408.7104 234.2936
" />
<path d="M408.7104 234.2936
L409.3295 234.2936
" />
</g></g>
<g style="fill:none; 
stroke:#000000; stroke-width:0.1500; stroke-opacity:1; 
stroke-linecap:round; stroke-linejoin:round;">
<text x="408.9890" y="285.6500"
textLength="1.3043" font-size="1.7333" lengthAdjust="spacingAndGlyphs"
text-anchor="middle" opacity="0">F</text>
<g class="stroked-text"><desc>F</desc>
<path d="M409.1747 284.9127
L408.7414 284.9127
" />
<path d="M408.7414 285.5936
L408.7414 284.2936
" />
<path d="M408.7414 284.2936
L409.3604 284.2936
" />
</g></g>
<g style="fill:none; 
stroke:#000000; stroke-width:0.1500; stroke-opacity:1; 
stroke-linecap:round; stroke-linejoin:round;">
<text x="322.9890" y="280.8522"
textLength="7.0071" font-size="2.0000" lengthAdjust="spacingAndGlyphs"
text-anchor="start" opacity="0">Date: </text>
<g class="stroked-text"><desc>Date: </desc>
<path d="M323.4448 280.7883
L323.4448 279.2883
" />
<path d="M323.4448 279.2883
L323.8020 279.2883
" />
<path d="M323.8020 279.2883
L324.0163 279.3598
" />
<path d="M324.0163 279.3598
L324.1591 279.5026
" />
<path d="M324.1591 279.5026
L324.2305 279.6455
" />
<path d="M324.2305 279.6455
L324.3020 279.9312
" />
<path d="M324.3020 279.9312
L324.3020 280.1455
" />
<path d="M324.3020 280.1455
L324.2305 280.4312
" />
<path d="M324.2305 280.4312
L324.1591 280.5740
" />
<path d="M324.1591 280.5740
L324.0163 280.7169
" />
<path d="M324.0163 280.7169
L323.8020 280.7883
" />
<path d="M323.8020 280.7883
L323.4448 280.7883
" />
<path d="M325.5877 280.7883
L325.5877 280.0026
" />
<path d="M325.5877 280.0026
L325.5163 279.8598
" />
<path d="M325.5163 279.8598
L325.3734 279.7883
" />
<path d="M325.3734 279.7883
L325.0877 279.7883
" />
<path d="M325.0877 279.7883
L324.9448 279.8598
" />
<path d="M325.5877 280.7169
L325.4448 280.7883
" />
<path d="M325.4448 280.7883
L325.0877 280.7883
" />
<path d="M325.0877 280.7883
L324.9448 280.7169
" />
<path d="M324.9448 280.7169
L324.8734 280.5740
" />
<path d="M324.8734 280.5740
L324.8734 280.4312
" />
<path d="M324.8734 280.4312
L324.9448 280.2883
" />
<path d="M324.9448 280.2883
L325.0877 280.2169
" />
<path d="M325.0877 280.2169
L325.4448 280.2169
" />
<path d="M325.4448 280.2169
L325.5877 280.1455
" />
<path d="M326.0877 279.7883
L326.6591 279.7883
" />
<path d="M326.3020 279.2883
L326.3020 280.5740
" />
<path d="M326.3020 280.5740
L326.3734 280.7169
" />
<path d="M326.3734 280.7169
L326.5163 280.7883
" />
<path d="M326.5163 280.7883
L326.6591 280.7883
" />
<path d="M327.7305 280.7169
L327.5877 280.7883
" />
<path d="M327.5877 280.7883
L327.3020 280.7883
" />
<path d="M327.3020 280.7883
L327.1591 280.7169
" />
<path d="M327.1591 280.7169
L327.0877 280.5740
" />
<path d="M327.0877 280.5740
L327.0877 280.0026
" />
<path d="M327.0877 280.0026
L327.1591 279.8598
" />
<path d="M327.1591 279.8598
L327.3020 279.7883
" />
<path d="M327.3020 279.7883
L327.5877 279.7883
" />
<path d="M327.5877 279.7883
L327.7305 279.8598
" />
<path d="M327.7305 279.8598
L327.8020 280.0026
" />
<path d="M327.8020 280.0026
L327.8020 280.1455
" />
<path d="M327.8020 280.1455
L327.0877 280.2883
" />
<path d="M328.4448 280.6455
L328.5163 280.7169
" />
<path d="M328.5163 280.7169
L328.4448 280.7883
" />
<path d="M328.4448 280.7883
L328.3734 280.7169
" />
<path d="M328.3734 280.7169
L328.4448 280.6455
" />
<path d="M328.4448 280.6455
L328.4448 280.7883
" />
<path d="M328.4448 279.8598
L328.5163 279.9312
" />
<path d="M328.5163 279.9312
L328.4448 280.0026
" />
<path d="M328.4448 280.0026
L328.3734 279.9312
" />
<path d="M328.3734 279.9312
L328.4448 279.8598
" />
<path d="M328.4448 279.8598
L328.4448 280.0026
" />
</g></g>
<g style="fill:none; 
stroke:#000000; stroke-width:0.1500; stroke-opacity:1; 
stroke-linecap:round; stroke-linejoin:round;">
<path d="M299.9890 281.5022
L407.9890 281.5022
" />
</g>
<g style="fill:none; 
stroke:#000000; stroke-width:0.1500; stroke-opacity:1; 
stroke-linecap:round; stroke-linejoin:round;">
<text x="300.9890" y="283.6522"
textLength="20.8643" font-size="2.0000" lengthAdjust="spacingAndGlyphs"
text-anchor="start" opacity="0">KiCad E.D.A. 8.0.1</text>
<g class="stroked-text"><desc>KiCad E.D.A. 8.0.1</desc>
<path d="M301.4448 283.5883
L301.4448 282.0883
" />
<path d="M302.3020 283.5883
L301.6591 282.7312
" />
<path d="M302.3020 282.0883
L301.4448 282.9455
" />
<path d="M302.9448 283.5883
L302.9448 282.5883
" />
<path d="M302.9448 282.0883
L302.8734 282.1598
" />
<path d="M302.8734 282.1598
L302.9448 282.2312
" />
<path d="M302.9448 282.2312
L303.0163 282.1598
" />
<path d="M303.0163 282.1598
L302.9448 282.0883
" />
<path d="M302.9448 282.0883
L302.9448 282.2312
" />
<path d="M304.5163 283.4455
L304.4448 283.5169
" />
<path d="M304.4448 283.5169
L304.2305 283.5883
" />
<path d="M304.2305 283.5883
L304.0877 283.5883
" />
<path d="M304.0877 283.5883
L303.8734 283.5169
" />
<path d="M303.8734 283.5169
L303.7305 283.3740
" />
<path d="M303.7305 283.3740
L303.6591 283.2312
" />
<path d="M303.6591 283.2312
L303.5877 282.9455
" />
<path d="M303.5877 282.9455
L303.5877 282.7312
" />
<path d="M303.5877 282.7312
L303.6591 282.4455
" />
<path d="M303.6591 282.4455
L303.7305 282.3026
" />
<path d="M303.7305 282.3026
L303.8734 282.1598
" />
<path d="M303.8734 282.1598
L304.0877 282.0883
" />
<path d="M304.0877 282.0883
L304.2305 282.0883
" />
<path d="M304.2305 282.0883
L304.4448 282.1598
" />
<path d="M304.4448 282.1598
L304.5163 282.2312
" />
<path d="M305.8020 283.5883
L305.8020 282.8026
" />
<path d="M305.8020 282.8026
L305.7305 282.6598
" />
<path d="M305.7305 282.6598
L305.5877 282.5883
" />
<path d="M305.5877 282.5883
L305.3020 282.5883
" />
<path d="M305.3020 282.5883
L305.1591 282.6598
" />
<path d="M305.8020 283.5169
L305.6591 283.5883
" />
<path d="M305.6591 283.5883
L305.3020 283.5883
" />
<path d="M305.3020 283.5883
L305.1591 283.5169
" />
<path d="M305.1591 283.5169
L305.0877 283.3740
" />
<path d="M305.0877 283.3740
L305.0877 283.2312
" />
<path d="M305.0877 283.2312
L305.1591 283.0883
" />
<path d="M305.1591 283.0883
L305.3020 283.0169
" />
<path d="M305.3020 283.0169
L305.6591 283.0169
" />
<path d="M305.6591 283.0169
L305.8020 282.9455
" />
<path d="M307.1591 283.5883
L307.1591 282.0883
" />
<path d="M307.1591 283.5169
L307.0163 283.5883
" />
<path d="M307.0163 283.5883
L306.7305 283.5883
" />
<path d="M306.7305 283.5883
L306.5877 283.5169
" />
<path d="M306.5877 283.5169
L306.5163 283.4455
" />
<path d="M306.5163 283.4455
L306.4448 283.3026
" />
<path d="M306.4448 283.3026
L306.4448 282.8740
" />
<path d="M306.4448 282.8740
L306.5163 282.7312
" />
<path d="M306.5163 282.7312
L306.5877 282.6598
" />
<path d="M306.5877 282.6598
L306.7305 282.5883
" />
<path d="M306.7305 282.5883
L307.0163 282.5883
" />
<path d="M307.0163 282.5883
L307.1591 282.6598
" />
<path d="M309.0163 282.8026
L309.5163 282.8026
" />
<path d="M309.7305 283.5883
L309.0163 283.5883
" />
<path d="M309.0163 283.5883
L309.0163 282.0883
" />
<path d="M309.0163 282.0883
L309.7305 282.0883
" />
<path d="M310.3734 283.4455
L310.4448 283.5169
" />
<path d="M310.4448 283.5169
L310.3734 283.5883
" />
<path d="M310.3734 283.5883
L310.3020 283.5169
" />
<path d="M310.3020 283.5169
L310.3734 283.4455
" />
<path d="M310.3734 283.4455
L310.3734 283.5883
" />
<path d="M311.0877 283.5883
L311.0877 282.0883
" />
<path d="M311.0877 282.0883
L311.4448 282.0883
" />
<path d="M311.4448 282.0883
L311.6591 282.1598
" />
<path d="M311.6591 282.1598
L311.8020 282.3026
" />
<path d="M311.8020 282.3026
L311.8734 282.4455
" />
<path d="M311.8734 282.4455
L311.9448 282.7312
" />
<path d="M311.9448 282.7312
L311.9448 282.9455
" />
<path d="M311.9448 282.9455
L311.8734 283.2312
" />
<path d="M311.8734 283.2312
L311.8020 283.3740
" />
<path d="M311.8020 283.3740
L311.6591 283.5169
" />
<path d="M311.6591 283.5169
L311.4448 283.5883
" />
<path d="M311.4448 283.5883
L311.0877 283.5883
" />
<path d="M312.5877 283.4455
L312.6591 283.5169
" />
<path d="M312.6591 283.5169
L312.5877 283.5883
" />
<path d="M312.5877 283.5883
L312.5163 283.5169
" />
<path d="M312.5163 283.5169
L312.5877 283.4455
" />
<path d="M312.5877 283.4455
L312.5877 283.5883
" />
<path d="M313.2305 283.1598
L313.9448 283.1598
" />
<path d="M313.0877 283.5883
L313.5877 282.0883
" />
<path d="M313.5877 282.0883
L314.0877 283.5883
" />
<path d="M314.5877 283.4455
L314.6591 283.5169
" />
<path d="M314.6591 283.5169
L314.5877 283.5883
" />
<path d="M314.5877 283.5883
L314.5163 283.5169
" />
<path d="M314.5163 283.5169
L314.5877 283.4455
" />
<path d="M314.5877 283.4455
L314.5877 283.5883
" />
<path d="M316.6591 282.7312
L316.5163 282.6598
" />
<path d="M316.5163 282.6598
L316.4448 282.5883
" />
<path d="M316.4448 282.5883
L316.3734 282.4455
" />
<path d="M316.3734 282.4455
L316.3734 282.3740
" />
<path d="M316.3734 282.3740
L316.4448 282.2312
" />
<path d="M316.4448 282.2312
L316.5163 282.1598
" />
<path d="M316.5163 282.1598
L316.6591 282.0883
" />
<path d="M316.6591 282.0883
L316.9448 282.0883
" />
<path d="M316.9448 282.0883
L317.0877 282.1598
" />
<path d="M317.0877 282.1598
L317.1591 282.2312
" />
<path d="M317.1591 282.2312
L317.2305 282.3740
" />
<path d="M317.2305 282.3740
L317.2305 282.4455
" />
<path d="M317.2305 282.4455
L317.1591 282.5883
" />
<path d="M317.1591 282.5883
L317.0877 282.6598
" />
<path d="M317.0877 282.6598
L316.9448 282.7312
" />
<path d="M316.9448 282.7312
L316.6591 282.7312
" />
<path d="M316.6591 282.7312
L316.5163 282.8026
" />
<path d="M316.5163 282.8026
L316.4448 282.8740
" />
<path d="M316.4448 282.8740
L316.3734 283.0169
" />
<path d="M316.3734 283.0169
L316.3734 283.3026
" />
<path d="M316.3734 283.3026
L316.4448 283.4455
" />
<path d="M316.4448 283.4455
L316.5163 283.5169
" />
<path d="M316.5163 283.5169
L316.6591 283.5883
" />
<path d="M316.6591 283.5883
L316.9448 283.5883
" />
<path d="M316.9448 283.5883
L317.0877 283.5169
" />
<path d="M317.0877 283.5169
L317.1591 283.4455
" />
<path d="M317.1591 283.4455
L317.2305 283.3026
" />
<path d="M317.2305 283.3026
L317.2305 283.0169
" />
<path d="M317.2305 283.0169
L317.1591 282.8740
" />
<path d="M317.1591 282.8740
L317.0877 282.8026
" />
<path d="M317.0877 282.8026
L316.9448 282.7312
" />
<path d="M317.8734 283.4455
L317.9448 283.5169
" />
<path d="M317.9448 283.5169
L317.8734 283.5883
" />
<path d="M317.8734 283.5883
L317.8020 283.5169
" />
<path d="M317.8020 283.5169
L317.8734 283.4455
" />
<path d="M317.8734 283.4455
L317.8734 283.5883
" />
<path d="M318.8734 282.0883
L319.0163 282.0883
" />
<path d="M319.0163 282.0883
L319.1591 282.1598
" />
<path d="M319.1591 282.1598
L319.2305 282.2312
" />
<path d="M319.2305 282.2312
L319.3020 282.3740
" />
<path d="M319.3020 282.3740
L319.3734 282.6598
" />
<path d="M319.3734 282.6598
L319.3734 283.0169
" />
<path d="M319.3734 283.0169
L319.3020 283.3026
" />
<path d="M319.3020 283.3026
L319.2305 283.4455
" />
<path d="M319.2305 283.4455
L319.1591 283.5169
" />
<path d="M319.1591 283.5169
L319.0163 283.5883
" />
<path d="M319.0163 283.5883
L318.8734 283.5883
" />
<path d="M318.8734 283.5883
L318.7305 283.5169
" />
<path d="M318.7305 283.5169
L318.6591 283.4455
" />
<path d="M318.6591 283.4455
L318.5877 283.3026
" />
<path d="M318.5877 283.3026
L318.5163 283.0169
" />
<path d="M318.5163 283.0169
L318.5163 282.6598
" />
<path d="M318.5163 282.6598
L318.5877 282.3740
" />
<path d="M318.5877 282.3740
L318.6591 282.2312
" />
<path d="M318.6591 282.2312
L318.7305 282.1598
" />
<path d="M318.7305 282.1598
L318.8734 282.0883
" />
<path d="M320.0163 283.4455
L320.0877 283.5169
" />
<path d="M320.0877 283.5169
L320.0163 283.5883
" />
<path d="M320.0163 283.5883
L319.9448 283.5169
" />
<path d="M319.9448 283.5169
L320.0163 283.4455
" />
<path d="M320.0163 283.4455
L320.0163 283.5883
" />
<path d="M321.5163 283.5883
L320.6591 283.5883
" />
<path d="M321.0877 283.5883
L321.0877 282.0883
" />
<path d="M321.0877 282.0883
L320.9448 282.3026
" />
<path d="M320.9448 282.3026
L320.8020 282.4455
" />
<path d="M320.8020 282.4455
L320.6591 282.5169
" />
</g></g>
<g style="fill:none; 
stroke:#000000; stroke-width:0.1500; stroke-opacity:1; 
stroke-linecap:round; stroke-linejoin:round;">
<path d="M299.9890 278.5022
L407.9890 278.5022
" />
</g>
<g style="fill:none; 
stroke:#000000; stroke-width:0.3000; stroke-opacity:1; 
stroke-linecap:round; stroke-linejoin:round;">
<text x="385.9890" y="280.8522"
textLength="13.2429" font-size="2.0000" lengthAdjust="spacingAndGlyphs"
text-anchor="start" opacity="0">Rev: v1.0.0</text>
<g class="stroked-text"><desc>Rev: v1.0.0</desc>
<path d="M387.4007 280.7805
L386.9007 280.0662
" />
<path d="M386.5435 280.7805
L386.5435 279.2805
" />
<path d="M386.5435 279.2805
L387.1149 279.2805
" />
<path d="M387.1149 279.2805
L387.2578 279.3520
" />
<path d="M387.2578 279.3520
L387.3292 279.4234
" />
<path d="M387.3292 279.4234
L387.4007 279.5662
" />
<path d="M387.4007 279.5662
L387.4007 279.7805
" />
<path d="M387.4007 279.7805
L387.3292 279.9234
" />
<path d="M387.3292 279.9234
L387.2578 279.9948
" />
<path d="M387.2578 279.9948
L387.1149 280.0662
" />
<path d="M387.1149 280.0662
L386.5435 280.0662
" />
<path d="M388.6149 280.7091
L388.4721 280.7805
" />
<path d="M388.4721 280.7805
L388.1864 280.7805
" />
<path d="M388.1864 280.7805
L388.0435 280.7091
" />
<path d="M388.0435 280.7091
L387.9721 280.5662
" />
<path d="M387.9721 280.5662
L387.9721 279.9948
" />
<path d="M387.9721 279.9948
L388.0435 279.8520
" />
<path d="M388.0435 279.8520
L388.1864 279.7805
" />
<path d="M388.1864 279.7805
L388.4721 279.7805
" />
<path d="M388.4721 279.7805
L388.6149 279.8520
" />
<path d="M388.6149 279.8520
L388.6864 279.9948
" />
<path d="M388.6864 279.9948
L388.6864 280.1377
" />
<path d="M388.6864 280.1377
L387.9721 280.2805
" />
<path d="M389.1864 279.7805
L389.5435 280.7805
" />
<path d="M389.5435 280.7805
L389.9007 279.7805
" />
<path d="M390.4721 280.6377
L390.5435 280.7091
" />
<path d="M390.5435 280.7091
L390.4721 280.7805
" />
<path d="M390.4721 280.7805
L390.4007 280.7091
" />
<path d="M390.4007 280.7091
L390.4721 280.6377
" />
<path d="M390.4721 280.6377
L390.4721 280.7805
" />
<path d="M390.4721 279.8520
L390.5435 279.9234
" />
<path d="M390.5435 279.9234
L390.4721 279.9948
" />
<path d="M390.4721 279.9948
L390.4007 279.9234
" />
<path d="M390.4007 279.9234
L390.4721 279.8520
" />
<path d="M390.4721 279.8520
L390.4721 279.9948
" />
<path d="M392.1864 279.7805
L392.5435 280.7805
" />
<path d="M392.5435 280.7805
L392.9007 279.7805
" />
<path d="M394.2578 280.7805
L393.4007 280.7805
" />
<path d="M393.8292 280.7805
L393.8292 279.2805
" />
<path d="M393.8292 279.2805
L393.6864 279.4948
" />
<path d="M393.6864 279.4948
L393.5435 279.6377
" />
<path d="M393.5435 279.6377
L393.4007 279.7091
" />
<path d="M394.9007 280.6377
L394.9721 280.7091
" />
<path d="M394.9721 280.7091
L394.9007 280.7805
" />
<path d="M394.9007 280.7805
L394.8292 280.7091
" />
<path d="M394.8292 280.7091
L394.9007 280.6377
" />
<path d="M394.9007 280.6377
L394.9007 280.7805
" />
<path d="M395.9007 279.2805
L396.0435 279.2805
" />
<path d="M396.0435 279.2805
L396.1864 279.3520
" />
<path d="M396.1864 279.3520
L396.2578 279.4234
" />
<path d="M396.2578 279.4234
L396.3292 279.5662
" />
<path d="M396.3292 279.5662
L396.4007 279.8520
" />
<path d="M396.4007 279.8520
L396.4007 280.2091
" />
<path d="M396.4007 280.2091
L396.3292 280.4948
" />
<path d="M396.3292 280.4948
L396.2578 280.6377
" />
<path d="M396.2578 280.6377
L396.1864 280.7091
" />
<path d="M396.1864 280.7091
L396.0435 280.7805
" />
<path d="M396.0435 280.7805
L395.9007 280.7805
" />
<path d="M395.9007 280.7805
L395.7578 280.7091
" />
<path d="M395.7578 280.7091
L395.6864 280.6377
" />
<path d="M395.6864 280.6377
L395.6149 280.4948
" />
<path d="M395.6149 280.4948
L395.5435 280.2091
" />
<path d="M395.5435 280.2091
L395.5435 279.8520
" />
<path d="M395.5435 279.8520
L395.6149 279.5662
" />
<path d="M395.6149 279.5662
L395.6864 279.4234
" />
<path d="M395.6864 279.4234
L395.7578 279.3520
" />
<path d="M395.7578 279.3520
L395.9007 279.2805
" />
<path d="M397.0435 280.6377
L397.1149 280.7091
" />
<path d="M397.1149 280.7091
L397.0435 280.7805
" />
<path d="M397.0435 280.7805
L396.9721 280.7091
" />
<path d="M396.9721 280.7091
L397.0435 280.6377
" />
<path d="M397.0435 280.6377
L397.0435 280.7805
" />
<path d="M398.0435 279.2805
L398.1864 279.2805
" />
<path d="M398.1864 279.2805
L398.3292 279.3520
" />
<path d="M398.3292 279.3520
L398.4007 279.4234
" />
<path d="M398.4007 279.4234
L398.4721 279.5662
" />
<path d="M398.4721 279.5662
L398.5435 279.8520
" />
<path d="M398.5435 279.8520
L398.5435 280.2091
" />
<path d="M398.5435 280.2091
L398.4721 280.4948
" />
<path d="M398.4721 280.4948
L398.4007 280.6377
" />
<path d="M398.4007 280.6377
L398.3292 280.7091
" />
<path d="M398.3292 280.7091
L398.1864 280.7805
" />
<path d="M398.1864 280.7805
L398.0435 280.7805
" />
<path d="M398.0435 280.7805
L397.9007 280.7091
" />
<path d="M397.9007 280.7091
L397.8292 280.6377
" />
<path d="M397.8292 280.6377
L397.7578 280.4948
" />
<path d="M397.7578 280.4948
L397.6864 280.2091
" />
<path d="M397.6864 280.2091
L397.6864 279.8520
" />
<path d="M397.6864 279.8520
L397.7578 279.5662
" />
<path d="M397.7578 279.5662
L397.8292 279.4234
" />
<path d="M397.8292 279.4234
L397.9007 279.3520
" />
<path d="M397.9007 279.3520
L398.0435 279.2805
" />
</g></g>
<g style="fill:none; 
stroke:#000000; stroke-width:0.1500; stroke-opacity:1; 
stroke-linecap:round; stroke-linejoin:round;">
<text x="300.9890" y="280.8522"
textLength="9.3643" font-size="2.0000" lengthAdjust="spacingAndGlyphs"
text-anchor="start" opacity="0">Size: A3</text>
<g class="stroked-text"><desc>Size: A3</desc>
<path d="M301.3734 280.7169
L301.5877 280.7883
" />
<path d="M301.5877 280.7883
L301.9448 280.7883
" />
<path d="M301.9448 280.7883
L302.0877 280.7169
" />
<path d="M302.0877 280.7169
L302.1591 280.6455
" />
<path d="M302.1591 280.6455
L302.2305 280.5026
" />
<path d="M302.2305 280.5026
L302.2305 280.3598
" />
<path d="M302.2305 280.3598
L302.1591 280.2169
" />
<path d="M302.1591 280.2169
L302.0877 280.1455
" />
<path d="M302.0877 280.1455
L301.9448 280.0740
" />
<path d="M301.9448 280.0740
L301.6591 280.0026
" />
<path d="M301.6591 280.0026
L301.5163 279.9312
" />
<path d="M301.5163 279.9312
L301.4448 279.8598
" />
<path d="M301.4448 279.8598
L301.3734 279.7169
" />
<path d="M301.3734 279.7169
L301.3734 279.5740
" />
<path d="M301.3734 279.5740
L301.4448 279.4312
" />
<path d="M301.4448 279.4312
L301.5163 279.3598
" />
<path d="M301.5163 279.3598
L301.6591 279.2883
" />
<path d="M301.6591 279.2883
L302.0163 279.2883
" />
<path d="M302.0163 279.2883
L302.2305 279.3598
" />
<path d="M302.8734 280.7883
L302.8734 279.7883
" />
<path d="M302.8734 279.2883
L302.8020 279.3598
" />
<path d="M302.8020 279.3598
L302.8734 279.4312
" />
<path d="M302.8734 279.4312
L302.9448 279.3598
" />
<path d="M302.9448 279.3598
L302.8734 279.2883
" />
<path d="M302.8734 279.2883
L302.8734 279.4312
" />
<path d="M303.4448 279.7883
L304.2305 279.7883
" />
<path d="M304.2305 279.7883
L303.4448 280.7883
" />
<path d="M303.4448 280.7883
L304.2305 280.7883
" />
<path d="M305.3734 280.7169
L305.2305 280.7883
" />
<path d="M305.2305 280.7883
L304.9448 280.7883
" />
<path d="M304.9448 280.7883
L304.8020 280.7169
" />
<path d="M304.8020 280.7169
L304.7305 280.5740
" />
<path d="M304.7305 280.5740
L304.7305 280.0026
" />
<path d="M304.7305 280.0026
L304.8020 279.8598
" />
<path d="M304.8020 279.8598
L304.9448 279.7883
" />
<path d="M304.9448 279.7883
L305.2305 279.7883
" />
<path d="M305.2305 279.7883
L305.3734 279.8598
" />
<path d="M305.3734 279.8598
L305.4448 280.0026
" />
<path d="M305.4448 280.0026
L305.4448 280.1455
" />
<path d="M305.4448 280.1455
L304.7305 280.2883
" />
<path d="M306.0877 280.6455
L306.1591 280.7169
" />
<path d="M306.1591 280.7169
L306.0877 280.7883
" />
<path d="M306.0877 280.7883
L306.0163 280.7169
" />
<path d="M306.0163 280.7169
L306.0877 280.6455
" />
<path d="M306.0877 280.6455
L306.0877 280.7883
" />
<path d="M306.0877 279.8598
L306.1591 279.9312
" />
<path d="M306.1591 279.9312
L306.0877 280.0026
" />
<path d="M306.0877 280.0026
L306.0163 279.9312
" />
<path d="M306.0163 279.9312
L306.0877 279.8598
" />
<path d="M306.0877 279.8598
L306.0877 280.0026
" />
<path d="M307.8734 280.3598
L308.5877 280.3598
" />
<path d="M307.7305 280.7883
L308.2305 279.2883
" />
<path d="M308.2305 279.2883
L308.7305 280.7883
" />
<path d="M309.0877 279.2883
L310.0163 279.2883
" />
<path d="M310.0163 279.2883
L309.5163 279.8598
" />
<path d="M309.5163 279.8598
L309.7305 279.8598
" />
<path d="M309.7305 279.8598
L309.8734 279.9312
" />
<path d="M309.8734 279.9312
L309.9448 280.0026
" />
<path d="M309.9448 280.0026
L310.0163 280.1455
" />
<path d="M310.0163 280.1455
L310.0163 280.5026
" />
<path d="M310.0163 280.5026
L309.9448 280.6455
" />
<path d="M309.9448 280.6455
L309.8734 280.7169
" />
<path d="M309.8734 280.7169
L309.7305 280.7883
" />
<path d="M309.7305 280.7883
L309.3020 280.7883
" />
<path d="M309.3020 280.7883
L309.1591 280.7169
" />
<path d="M309.1591 280.7169
L309.0877 280.6455
" />
</g></g>
<g style="fill:none; 
stroke:#000000; stroke-width:0.1500; stroke-opacity:1; 
stroke-linecap:round; stroke-linejoin:round;">
<text x="385.9890" y="283.6522"
textLength="8.5071" font-size="2.0000" lengthAdjust="spacingAndGlyphs"
text-anchor="start" opacity="0">Id: 1/1</text>
<g class="stroked-text"><desc>Id: 1/1</desc>
<path d="M386.4448 283.5883
L386.4448 282.0883
" />
<path d="M387.8020 283.5883
L387.8020 282.0883
" />
<path d="M387.8020 283.5169
L387.6591 283.5883
" />
<path d="M387.6591 283.5883
L387.3734 283.5883
" />
<path d="M387.3734 283.5883
L387.2305 283.5169
" />
<path d="M387.2305 283.5169
L387.1591 283.4455
" />
<path d="M387.1591 283.4455
L387.0877 283.3026
" />
<path d="M387.0877 283.3026
L387.0877 282.8740
" />
<path d="M387.0877 282.8740
L387.1591 282.7312
" />
<path d="M387.1591 282.7312
L387.2305 282.6598
" />
<path d="M387.2305 282.6598
L387.3734 282.5883
" />
<path d="M387.3734 282.5883
L387.6591 282.5883
" />
<path d="M387.6591 282.5883
L387.8020 282.6598
" />
<path d="M388.5163 283.4455
L388.5877 283.5169
" />
<path d="M388.5877 283.5169
L388.5163 283.5883
" />
<path d="M388.5163 283.5883
L388.4448 283.5169
" />
<path d="M388.4448 283.5169
L388.5163 283.4455
" />
<path d="M388.5163 283.4455
L388.5163 283.5883
" />
<path d="M388.5163 282.6598
L388.5877 282.7312
" />
<path d="M388.5877 282.7312
L388.5163 282.8026
" />
<path d="M388.5163 282.8026
L388.4448 282.7312
" />
<path d="M388.4448 282.7312
L388.5163 282.6598
" />
<path d="M388.5163 282.6598
L388.5163 282.8026
" />
<path d="M391.1591 283.5883
L390.3020 283.5883
" />
<path d="M390.7305 283.5883
L390.7305 282.0883
" />
<path d="M390.7305 282.0883
L390.5877 282.3026
" />
<path d="M390.5877 282.3026
L390.4448 282.4455
" />
<path d="M390.4448 282.4455
L390.3020 282.5169
" />
<path d="M392.8734 282.0169
L391.5877 283.9455
" />
<path d="M394.1591 283.5883
L393.3020 283.5883
" />
<path d="M393.7305 283.5883
L393.7305 282.0883
" />
<path d="M393.7305 282.0883
L393.5877 282.3026
" />
<path d="M393.5877 282.3026
L393.4448 282.4455
" />
<path d="M393.4448 282.4455
L393.3020 282.5169
" />
</g></g>
<g style="fill:none; 
stroke:#000000; stroke-width:0.1500; stroke-opacity:1; 
stroke-linecap:round; stroke-linejoin:round;">
<path d="M299.9890 274.5022
L407.9890 274.5022
" />
</g>
<g style="fill:none; 
stroke:#000000; stroke-width:0.4000; stroke-opacity:1; 
stroke-linecap:round; stroke-linejoin:round;">
<text x="300.9890" y="277.3022"
textLength="31.3714" font-size="2.6667" lengthAdjust="spacingAndGlyphs"
text-anchor="start" opacity="0">Title: case_blueprint</text>
<g class="stroked-text"><desc>Title: case_blueprint</desc>
<path d="M301.6807 275.2066
L302.8236 275.2066
" />
<path d="M302.0022 277.2066
L302.2522 275.2066
" />
<path d="M303.2403 277.2066
L303.4069 275.8733
" />
<path d="M303.4903 275.2066
L303.3831 275.3019
" />
<path d="M303.3831 275.3019
L303.4664 275.3971
" />
<path d="M303.4664 275.3971
L303.5736 275.3019
" />
<path d="M303.5736 275.3019
L303.4903 275.2066
" />
<path d="M303.4903 275.2066
L303.4664 275.3971
" />
<path d="M304.0736 275.8733
L304.8355 275.8733
" />
<path d="M304.4426 275.2066
L304.2283 276.9209
" />
<path d="M304.2283 276.9209
L304.2998 277.1114
" />
<path d="M304.2998 277.1114
L304.4783 277.2066
" />
<path d="M304.4783 277.2066
L304.6688 277.2066
" />
<path d="M305.6212 277.2066
L305.4426 277.1114
" />
<path d="M305.4426 277.1114
L305.3712 276.9209
" />
<path d="M305.3712 276.9209
L305.5855 275.2066
" />
<path d="M307.1569 277.1114
L306.9545 277.2066
" />
<path d="M306.9545 277.2066
L306.5736 277.2066
" />
<path d="M306.5736 277.2066
L306.3950 277.1114
" />
<path d="M306.3950 277.1114
L306.3236 276.9209
" />
<path d="M306.3236 276.9209
L306.4188 276.1590
" />
<path d="M306.4188 276.1590
L306.5379 275.9685
" />
<path d="M306.5379 275.9685
L306.7403 275.8733
" />
<path d="M306.7403 275.8733
L307.1212 275.8733
" />
<path d="M307.1212 275.8733
L307.2998 275.9685
" />
<path d="M307.2998 275.9685
L307.3712 276.1590
" />
<path d="M307.3712 276.1590
L307.3474 276.3495
" />
<path d="M307.3474 276.3495
L306.3712 276.5400
" />
<path d="M308.1212 277.0162
L308.2045 277.1114
" />
<path d="M308.2045 277.1114
L308.0974 277.2066
" />
<path d="M308.0974 277.2066
L308.0141 277.1114
" />
<path d="M308.0141 277.1114
L308.1212 277.0162
" />
<path d="M308.1212 277.0162
L308.0974 277.2066
" />
<path d="M308.2522 275.9685
L308.3355 276.0638
" />
<path d="M308.3355 276.0638
L308.2283 276.1590
" />
<path d="M308.2283 276.1590
L308.1450 276.0638
" />
<path d="M308.1450 276.0638
L308.2522 275.9685
" />
<path d="M308.2522 275.9685
L308.2283 276.1590
" />
<path d="M311.4426 277.1114
L311.2403 277.2066
" />
<path d="M311.2403 277.2066
L310.8593 277.2066
" />
<path d="M310.8593 277.2066
L310.6807 277.1114
" />
<path d="M310.6807 277.1114
L310.5974 277.0162
" />
<path d="M310.5974 277.0162
L310.5260 276.8257
" />
<path d="M310.5260 276.8257
L310.5974 276.2543
" />
<path d="M310.5974 276.2543
L310.7164 276.0638
" />
<path d="M310.7164 276.0638
L310.8236 275.9685
" />
<path d="M310.8236 275.9685
L311.0260 275.8733
" />
<path d="M311.0260 275.8733
L311.4069 275.8733
" />
<path d="M311.4069 275.8733
L311.5855 275.9685
" />
<path d="M313.1450 277.2066
L313.2760 276.1590
" />
<path d="M313.2760 276.1590
L313.2045 275.9685
" />
<path d="M313.2045 275.9685
L313.0260 275.8733
" />
<path d="M313.0260 275.8733
L312.6450 275.8733
" />
<path d="M312.6450 275.8733
L312.4426 275.9685
" />
<path d="M313.1569 277.1114
L312.9545 277.2066
" />
<path d="M312.9545 277.2066
L312.4783 277.2066
" />
<path d="M312.4783 277.2066
L312.2998 277.1114
" />
<path d="M312.2998 277.1114
L312.2283 276.9209
" />
<path d="M312.2283 276.9209
L312.2522 276.7304
" />
<path d="M312.2522 276.7304
L312.3712 276.5400
" />
<path d="M312.3712 276.5400
L312.5736 276.4447
" />
<path d="M312.5736 276.4447
L313.0498 276.4447
" />
<path d="M313.0498 276.4447
L313.2522 276.3495
" />
<path d="M314.0141 277.1114
L314.1926 277.2066
" />
<path d="M314.1926 277.2066
L314.5736 277.2066
" />
<path d="M314.5736 277.2066
L314.7760 277.1114
" />
<path d="M314.7760 277.1114
L314.8950 276.9209
" />
<path d="M314.8950 276.9209
L314.9069 276.8257
" />
<path d="M314.9069 276.8257
L314.8355 276.6352
" />
<path d="M314.8355 276.6352
L314.6569 276.5400
" />
<path d="M314.6569 276.5400
L314.3712 276.5400
" />
<path d="M314.3712 276.5400
L314.1926 276.4447
" />
<path d="M314.1926 276.4447
L314.1212 276.2543
" />
<path d="M314.1212 276.2543
L314.1331 276.1590
" />
<path d="M314.1331 276.1590
L314.2522 275.9685
" />
<path d="M314.2522 275.9685
L314.4545 275.8733
" />
<path d="M314.4545 275.8733
L314.7403 275.8733
" />
<path d="M314.7403 275.8733
L314.9188 275.9685
" />
<path d="M316.4903 277.1114
L316.2879 277.2066
" />
<path d="M316.2879 277.2066
L315.9069 277.2066
" />
<path d="M315.9069 277.2066
L315.7283 277.1114
" />
<path d="M315.7283 277.1114
L315.6569 276.9209
" />
<path d="M315.6569 276.9209
L315.7522 276.1590
" />
<path d="M315.7522 276.1590
L315.8712 275.9685
" />
<path d="M315.8712 275.9685
L316.0736 275.8733
" />
<path d="M316.0736 275.8733
L316.4545 275.8733
" />
<path d="M316.4545 275.8733
L316.6331 275.9685
" />
<path d="M316.6331 275.9685
L316.7045 276.1590
" />
<path d="M316.7045 276.1590
L316.6807 276.3495
" />
<path d="M316.6807 276.3495
L315.7045 276.5400
" />
<path d="M316.9307 277.3971
L318.4545 277.3971
" />
<path d="M318.9545 277.2066
L319.2045 275.2066
" />
<path d="M319.1093 275.9685
L319.3117 275.8733
" />
<path d="M319.3117 275.8733
L319.6926 275.8733
" />
<path d="M319.6926 275.8733
L319.8712 275.9685
" />
<path d="M319.8712 275.9685
L319.9545 276.0638
" />
<path d="M319.9545 276.0638
L320.0260 276.2543
" />
<path d="M320.0260 276.2543
L319.9545 276.8257
" />
<path d="M319.9545 276.8257
L319.8355 277.0162
" />
<path d="M319.8355 277.0162
L319.7283 277.1114
" />
<path d="M319.7283 277.1114
L319.5260 277.2066
" />
<path d="M319.5260 277.2066
L319.1450 277.2066
" />
<path d="M319.1450 277.2066
L318.9664 277.1114
" />
<path d="M321.0498 277.2066
L320.8712 277.1114
" />
<path d="M320.8712 277.1114
L320.7998 276.9209
" />
<path d="M320.7998 276.9209
L321.0141 275.2066
" />
<path d="M322.8355 275.8733
L322.6688 277.2066
" />
<path d="M321.9783 275.8733
L321.8474 276.9209
" />
<path d="M321.8474 276.9209
L321.9188 277.1114
" />
<path d="M321.9188 277.1114
L322.0974 277.2066
" />
<path d="M322.0974 277.2066
L322.3831 277.2066
" />
<path d="M322.3831 277.2066
L322.5855 277.1114
" />
<path d="M322.5855 277.1114
L322.6926 277.0162
" />
<path d="M324.3950 277.1114
L324.1926 277.2066
" />
<path d="M324.1926 277.2066
L323.8117 277.2066
" />
<path d="M323.8117 277.2066
L323.6331 277.1114
" />
<path d="M323.6331 277.1114
L323.5617 276.9209
" />
<path d="M323.5617 276.9209
L323.6569 276.1590
" />
<path d="M323.6569 276.1590
L323.7760 275.9685
" />
<path d="M323.7760 275.9685
L323.9783 275.8733
" />
<path d="M323.9783 275.8733
L324.3593 275.8733
" />
<path d="M324.3593 275.8733
L324.5379 275.9685
" />
<path d="M324.5379 275.9685
L324.6093 276.1590
" />
<path d="M324.6093 276.1590
L324.5855 276.3495
" />
<path d="M324.5855 276.3495
L323.6093 276.5400
" />
<path d="M325.5022 275.8733
L325.2522 277.8733
" />
<path d="M325.4903 275.9685
L325.6926 275.8733
" />
<path d="M325.6926 275.8733
L326.0736 275.8733
" />
<path d="M326.0736 275.8733
L326.2522 275.9685
" />
<path d="M326.2522 275.9685
L326.3355 276.0638
" />
<path d="M326.3355 276.0638
L326.4069 276.2543
" />
<path d="M326.4069 276.2543
L326.3355 276.8257
" />
<path d="M326.3355 276.8257
L326.2164 277.0162
" />
<path d="M326.2164 277.0162
L326.1093 277.1114
" />
<path d="M326.1093 277.1114
L325.9069 277.2066
" />
<path d="M325.9069 277.2066
L325.5260 277.2066
" />
<path d="M325.5260 277.2066
L325.3474 277.1114
" />
<path d="M327.1450 277.2066
L327.3117 275.8733
" />
<path d="M327.2641 276.2543
L327.3831 276.0638
" />
<path d="M327.3831 276.0638
L327.4903 275.9685
" />
<path d="M327.4903 275.9685
L327.6926 275.8733
" />
<path d="M327.6926 275.8733
L327.8831 275.8733
" />
<path d="M328.3831 277.2066
L328.5498 275.8733
" />
<path d="M328.6331 275.2066
L328.5260 275.3019
" />
<path d="M328.5260 275.3019
L328.6093 275.3971
" />
<path d="M328.6093 275.3971
L328.7164 275.3019
" />
<path d="M328.7164 275.3019
L328.6331 275.2066
" />
<path d="M328.6331 275.2066
L328.6093 275.3971
" />
<path d="M329.5022 275.8733
L329.3355 277.2066
" />
<path d="M329.4783 276.0638
L329.5855 275.9685
" />
<path d="M329.5855 275.9685
L329.7879 275.8733
" />
<path d="M329.7879 275.8733
L330.0736 275.8733
" />
<path d="M330.0736 275.8733
L330.2522 275.9685
" />
<path d="M330.2522 275.9685
L330.3236 276.1590
" />
<path d="M330.3236 276.1590
L330.1926 277.2066
" />
<path d="M331.0260 275.8733
L331.7879 275.8733
" />
<path d="M331.3950 275.2066
L331.1807 276.9209
" />
<path d="M331.1807 276.9209
L331.2522 277.1114
" />
<path d="M331.2522 277.1114
L331.4307 277.2066
" />
<path d="M331.4307 277.2066
L331.6212 277.2066
" />
</g></g>
<g style="fill:none; 
stroke:#000000; stroke-width:0.1500; stroke-opacity:1; 
stroke-linecap:round; stroke-linejoin:round;">
<text x="300.9890" y="273.4522"
textLength="34.1500" font-size="2.0000" lengthAdjust="spacingAndGlyphs"
text-anchor="start" opacity="0">File: case_blueprint.kicad_pcb</text>
<g class="stroked-text"><desc>File: case_blueprint.kicad_pcb</desc>
<path d="M301.9448 272.6026
L301.4448 272.6026
" />
<path d="M301.4448 273.3883
L301.4448 271.8883
" />
<path d="M301.4448 271.8883
L302.1591 271.8883
" />
<path d="M302.7305 273.3883
L302.7305 272.3883
" />
<path d="M302.7305 271.8883
L302.6591 271.9598
" />
<path d="M302.6591 271.9598
L302.7305 272.0312
" />
<path d="M302.7305 272.0312
L302.8020 271.9598
" />
<path d="M302.8020 271.9598
L302.7305 271.8883
" />
<path d="M302.7305 271.8883
L302.7305 272.0312
" />
<path d="M303.6591 273.3883
L303.5163 273.3169
" />
<path d="M303.5163 273.3169
L303.4448 273.1740
" />
<path d="M303.4448 273.1740
L303.4448 271.8883
" />
<path d="M304.8020 273.3169
L304.6591 273.3883
" />
<path d="M304.6591 273.3883
L304.3734 273.3883
" />
<path d="M304.3734 273.3883
L304.2305 273.3169
" />
<path d="M304.2305 273.3169
L304.1591 273.1740
" />
<path d="M304.1591 273.1740
L304.1591 272.6026
" />
<path d="M304.1591 272.6026
L304.2305 272.4598
" />
<path d="M304.2305 272.4598
L304.3734 272.3883
" />
<path d="M304.3734 272.3883
L304.6591 272.3883
" />
<path d="M304.6591 272.3883
L304.8020 272.4598
" />
<path d="M304.8020 272.4598
L304.8734 272.6026
" />
<path d="M304.8734 272.6026
L304.8734 272.7455
" />
<path d="M304.8734 272.7455
L304.1591 272.8883
" />
<path d="M305.5163 273.2455
L305.5877 273.3169
" />
<path d="M305.5877 273.3169
L305.5163 273.3883
" />
<path d="M305.5163 273.3883
L305.4448 273.3169
" />
<path d="M305.4448 273.3169
L305.5163 273.2455
" />
<path d="M305.5163 273.2455
L305.5163 273.3883
" />
<path d="M305.5163 272.4598
L305.5877 272.5312
" />
<path d="M305.5877 272.5312
L305.5163 272.6026
" />
<path d="M305.5163 272.6026
L305.4448 272.5312
" />
<path d="M305.4448 272.5312
L305.5163 272.4598
" />
<path d="M305.5163 272.4598
L305.5163 272.6026
" />
<path d="M308.0163 273.3169
L307.8734 273.3883
" />
<path d="M307.8734 273.3883
L307.5877 273.3883
" />
<path d="M307.5877 273.3883
L307.4448 273.3169
" />
<path d="M307.4448 273.3169
L307.3734 273.2455
" />
<path d="M307.3734 273.2455
L307.3020 273.1026
" />
<path d="M307.3020 273.1026
L307.3020 272.6740
" />
<path d="M307.3020 272.6740
L307.3734 272.5312
" />
<path d="M307.3734 272.5312
L307.4448 272.4598
" />
<path d="M307.4448 272.4598
L307.5877 272.3883
" />
<path d="M307.5877 272.3883
L307.8734 272.3883
" />
<path d="M307.8734 272.3883
L308.0163 272.4598
" />
<path d="M309.3020 273.3883
L309.3020 272.6026
" />
<path d="M309.3020 272.6026
L309.2305 272.4598
" />
<path d="M309.2305 272.4598
L309.0877 272.3883
" />
<path d="M309.0877 272.3883
L308.8020 272.3883
" />
<path d="M308.8020 272.3883
L308.6591 272.4598
" />
<path d="M309.3020 273.3169
L309.1591 273.3883
" />
<path d="M309.1591 273.3883
L308.8020 273.3883
" />
<path d="M308.8020 273.3883
L308.6591 273.3169
" />
<path d="M308.6591 273.3169
L308.5877 273.1740
" />
<path d="M308.5877 273.1740
L308.5877 273.0312
" />
<path d="M308.5877 273.0312
L308.6591 272.8883
" />
<path d="M308.6591 272.8883
L308.8020 272.8169
" />
<path d="M308.8020 272.8169
L309.1591 272.8169
" />
<path d="M309.1591 272.8169
L309.3020 272.7455
" />
<path d="M309.9448 273.3169
L310.0877 273.3883
" />
<path d="M310.0877 273.3883
L310.3734 273.3883
" />
<path d="M310.3734 273.3883
L310.5163 273.3169
" />
<path d="M310.5163 273.3169
L310.5877 273.1740
" />
<path d="M310.5877 273.1740
L310.5877 273.1026
" />
<path d="M310.5877 273.1026
L310.5163 272.9598
" />
<path d="M310.5163 272.9598
L310.3734 272.8883
" />
<path d="M310.3734 272.8883
L310.1591 272.8883
" />
<path d="M310.1591 272.8883
L310.0163 272.8169
" />
<path d="M310.0163 272.8169
L309.9448 272.6740
" />
<path d="M309.9448 272.6740
L309.9448 272.6026
" />
<path d="M309.9448 272.6026
L310.0163 272.4598
" />
<path d="M310.0163 272.4598
L310.1591 272.3883
" />
<path d="M310.1591 272.3883
L310.3734 272.3883
" />
<path d="M310.3734 272.3883
L310.5163 272.4598
" />
<path d="M311.8020 273.3169
L311.6591 273.3883
" />
<path d="M311.6591 273.3883
L311.3734 273.3883
" />
<path d="M311.3734 273.3883
L311.2305 273.3169
" />
<path d="M311.2305 273.3169
L311.1591 273.1740
" />
<path d="M311.1591 273.1740
L311.1591 272.6026
" />
<path d="M311.1591 272.6026
L311.2305 272.4598
" />
<path d="M311.2305 272.4598
L311.3734 272.3883
" />
<path d="M311.3734 272.3883
L311.6591 272.3883
" />
<path d="M311.6591 272.3883
L311.8020 272.4598
" />
<path d="M311.8020 272.4598
L311.8734 272.6026
" />
<path d="M311.8734 272.6026
L311.8734 272.7455
" />
<path d="M311.8734 272.7455
L311.1591 272.8883
" />
<path d="M312.1591 273.5312
L313.3020 273.5312
" />
<path d="M313.6591 273.3883
L313.6591 271.8883
" />
<path d="M313.6591 272.4598
L313.8020 272.3883
" />
<path d="M313.8020 272.3883
L314.0877 272.3883
" />
<path d="M314.0877 272.3883
L314.2305 272.4598
" />
<path d="M314.2305 272.4598
L314.3020 272.5312
" />
<path d="M314.3020 272.5312
L314.3734 272.6740
" />
<path d="M314.3734 272.6740
L314.3734 273.1026
" />
<path d="M314.3734 273.1026
L314.3020 273.2455
" />
<path d="M314.3020 273.2455
L314.2305 273.3169
" />
<path d="M314.2305 273.3169
L314.0877 273.3883
" />
<path d="M314.0877 273.3883
L313.8020 273.3883
" />
<path d="M313.8020 273.3883
L313.6591 273.3169
" />
<path d="M315.2305 273.3883
L315.0877 273.3169
" />
<path d="M315.0877 273.3169
L315.0163 273.1740
" />
<path d="M315.0163 273.1740
L315.0163 271.8883
" />
<path d="M316.4448 272.3883
L316.4448 273.3883
" />
<path d="M315.8020 272.3883
L315.8020 273.1740
" />
<path d="M315.8020 273.1740
L315.8734 273.3169
" />
<path d="M315.8734 273.3169
L316.0163 273.3883
" />
<path d="M316.0163 273.3883
L316.2305 273.3883
" />
<path d="M316.2305 273.3883
L316.3734 273.3169
" />
<path d="M316.3734 273.3169
L316.4448 273.2455
" />
<path d="M317.7305 273.3169
L317.5877 273.3883
" />
<path d="M317.5877 273.3883
L317.3020 273.3883
" />
<path d="M317.3020 273.3883
L317.1591 273.3169
" />
<path d="M317.1591 273.3169
L317.0877 273.1740
" />
<path d="M317.0877 273.1740
L317.0877 272.6026
" />
<path d="M317.0877 272.6026
L317.1591 272.4598
" />
<path d="M317.1591 272.4598
L317.3020 272.3883
" />
<path d="M317.3020 272.3883
L317.5877 272.3883
" />
<path d="M317.5877 272.3883
L317.7305 272.4598
" />
<path d="M317.7305 272.4598
L317.8020 272.6026
" />
<path d="M317.8020 272.6026
L317.8020 272.7455
" />
<path d="M317.8020 272.7455
L317.0877 272.8883
" />
<path d="M318.4448 272.3883
L318.4448 273.8883
" />
<path d="M318.4448 272.4598
L318.5877 272.3883
" />
<path d="M318.5877 272.3883
L318.8734 272.3883
" />
<path d="M318.8734 272.3883
L319.0163 272.4598
" />
<path d="M319.0163 272.4598
L319.0877 272.5312
" />
<path d="M319.0877 272.5312
L319.1591 272.6740
" />
<path d="M319.1591 272.6740
L319.1591 273.1026
" />
<path d="M319.1591 273.1026
L319.0877 273.2455
" />
<path d="M319.0877 273.2455
L319.0163 273.3169
" />
<path d="M319.0163 273.3169
L318.8734 273.3883
" />
<path d="M318.8734 273.3883
L318.5877 273.3883
" />
<path d="M318.5877 273.3883
L318.4448 273.3169
" />
<path d="M319.8020 273.3883
L319.8020 272.3883
" />
<path d="M319.8020 272.6740
L319.8734 272.5312
" />
<path d="M319.8734 272.5312
L319.9448 272.4598
" />
<path d="M319.9448 272.4598
L320.0877 272.3883
" />
<path d="M320.0877 272.3883
L320.2305 272.3883
" />
<path d="M320.7305 273.3883
L320.7305 272.3883
" />
<path d="M320.7305 271.8883
L320.6591 271.9598
" />
<path d="M320.6591 271.9598
L320.7305 272.0312
" />
<path d="M320.7305 272.0312
L320.8020 271.9598
" />
<path d="M320.8020 271.9598
L320.7305 271.8883
" />
<path d="M320.7305 271.8883
L320.7305 272.0312
" />
<path d="M321.4448 272.3883
L321.4448 273.3883
" />
<path d="M321.4448 272.5312
L321.5163 272.4598
" />
<path d="M321.5163 272.4598
L321.6591 272.3883
" />
<path d="M321.6591 272.3883
L321.8734 272.3883
" />
<path d="M321.8734 272.3883
L322.0163 272.4598
" />
<path d="M322.0163 272.4598
L322.0877 272.6026
" />
<path d="M322.0877 272.6026
L322.0877 273.3883
" />
<path d="M322.5877 272.3883
L323.1591 272.3883
" />
<path d="M322.8020 271.8883
L322.8020 273.1740
" />
<path d="M322.8020 273.1740
L322.8734 273.3169
" />
<path d="M322.8734 273.3169
L323.0163 273.3883
" />
<path d="M323.0163 273.3883
L323.1591 273.3883
" />
<path d="M323.6591 273.2455
L323.7305 273.3169
" />
<path d="M323.7305 273.3169
L323.6591 273.3883
" />
<path d="M323.6591 273.3883
L323.5877 273.3169
" />
<path d="M323.5877 273.3169
L323.6591 273.2455
" />
<path d="M323.6591 273.2455
L323.6591 273.3883
" />
<path d="M324.3734 273.3883
L324.3734 271.8883
" />
<path d="M324.5163 272.8169
L324.9448 273.3883
" />
<path d="M324.9448 272.3883
L324.3734 272.9598
" />
<path d="M325.5877 273.3883
L325.5877 272.3883
" />
<path d="M325.5877 271.8883
L325.5163 271.9598
" />
<path d="M325.5163 271.9598
L325.5877 272.0312
" />
<path d="M325.5877 272.0312
L325.6591 271.9598
" />
<path d="M325.6591 271.9598
L325.5877 271.8883
" />
<path d="M325.5877 271.8883
L325.5877 272.0312
" />
<path d="M326.9448 273.3169
L326.8020 273.3883
" />
<path d="M326.8020 273.3883
L326.5163 273.3883
" />
<path d="M326.5163 273.3883
L326.3734 273.3169
" />
<path d="M326.3734 273.3169
L326.3020 273.2455
" />
<path d="M326.3020 273.2455
L326.2305 273.1026
" />
<path d="M326.2305 273.1026
L326.2305 272.6740
" />
<path d="M326.2305 272.6740
L326.3020 272.5312
" />
<path d="M326.3020 272.5312
L326.3734 272.4598
" />
<path d="M326.3734 272.4598
L326.5163 272.3883
" />
<path d="M326.5163 272.3883
L326.8020 272.3883
" />
<path d="M326.8020 272.3883
L326.9448 272.4598
" />
<path d="M328.2305 273.3883
L328.2305 272.6026
" />
<path d="M328.2305 272.6026
L328.1591 272.4598
" />
<path d="M328.1591 272.4598
L328.0163 272.3883
" />
<path d="M328.0163 272.3883
L327.7305 272.3883
" />
<path d="M327.7305 272.3883
L327.5877 272.4598
" />
<path d="M328.2305 273.3169
L328.0877 273.3883
" />
<path d="M328.0877 273.3883
L327.7305 273.3883
" />
<path d="M327.7305 273.3883
L327.5877 273.3169
" />
<path d="M327.5877 273.3169
L327.5163 273.1740
" />
<path d="M327.5163 273.1740
L327.5163 273.0312
" />
<path d="M327.5163 273.0312
L327.5877 272.8883
" />
<path d="M327.5877 272.8883
L327.7305 272.8169
" />
<path d="M327.7305 272.8169
L328.0877 272.8169
" />
<path d="M328.0877 272.8169
L328.2305 272.7455
" />
<path d="M329.5877 273.3883
L329.5877 271.8883
" />
<path d="M329.5877 273.3169
L329.4448 273.3883
" />
<path d="M329.4448 273.3883
L329.1591 273.3883
" />
<path d="M329.1591 273.3883
L329.0163 273.3169
" />
<path d="M329.0163 273.3169
L328.9448 273.2455
" />
<path d="M328.9448 273.2455
L328.8734 273.1026
" />
<path d="M328.8734 273.1026
L328.8734 272.6740
" />
<path d="M328.8734 272.6740
L328.9448 272.5312
" />
<path d="M328.9448 272.5312
L329.0163 272.4598
" />
<path d="M329.0163 272.4598
L329.1591 272.3883
" />
<path d="M329.1591 272.3883
L329.4448 272.3883
" />
<path d="M329.4448 272.3883
L329.5877 272.4598
" />
<path d="M329.9448 273.5312
L331.0877 273.5312
" />
<path d="M331.4448 272.3883
L331.4448 273.8883
" />
<path d="M331.4448 272.4598
L331.5877 272.3883
" />
<path d="M331.5877 272.3883
L331.8734 272.3883
" />
<path d="M331.8734 272.3883
L332.0163 272.4598
" />
<path d="M332.0163 272.4598
L332.0877 272.5312
" />
<path d="M332.0877 272.5312
L332.1591 272.6740
" />
<path d="M332.1591 272.6740
L332.1591 273.1026
" />
<path d="M332.1591 273.1026
L332.0877 273.2455
" />
<path d="M332.0877 273.2455
L332.0163 273.3169
" />
<path d="M332.0163 273.3169
L331.8734 273.3883
" />
<path d="M331.8734 273.3883
L331.5877 273.3883
" />
<path d="M331.5877 273.3883
L331.4448 273.3169
" />
<path d="M333.4448 273.3169
L333.3020 273.3883
" />
<path d="M333.3020 273.3883
L333.0163 273.3883
" />
<path d="M333.0163 273.3883
L332.8734 273.3169
" />
<path d="M332.8734 273.3169
L332.8020 273.2455
" />
<path d="M332.8020 273.2455
L332.7305 273.1026
" />
<path d="M332.7305 273.1026
L332.7305 272.6740
" />
<path d="M332.7305 272.6740
L332.8020 272.5312
" />
<path d="M332.8020 272.5312
L332.8734 272.4598
" />
<path d="M332.8734 272.4598
L333.0163 272.3883
" />
<path d="M333.0163 272.3883
L333.3020 272.3883
" />
<path d="M333.3020 272.3883
L333.4448 272.4598
" />
<path d="M334.0877 273.3883
L334.0877 271.8883
" />
<path d="M334.0877 272.4598
L334.2305 272.3883
" />
<path d="M334.2305 272.3883
L334.5163 272.3883
" />
<path d="M334.5163 272.3883
L334.6591 272.4598
" />
<path d="M334.6591 272.4598
L334.7305 272.5312
" />
<path d="M334.7305 272.5312
L334.8020 272.6740
" />
<path d="M334.8020 272.6740
L334.8020 273.1026
" />
<path d="M334.8020 273.1026
L334.7305 273.2455
" />
<path d="M334.7305 273.2455
L334.6591 273.3169
" />
<path d="M334.6591 273.3169
L334.5163 273.3883
" />
<path d="M334.5163 273.3883
L334.2305 273.3883
" />
<path d="M334.2305 273.3883
L334.0877 273.3169
" />
</g></g>
<g style="fill:none; 
stroke:#000000; stroke-width:0.1500; stroke-opacity:1; 
stroke-linecap:round; stroke-linejoin:round;">
<path d="M299.9890 268.5022
L407.9890 268.5022
" />
</g>
<g style="fill:none; 
stroke:#000000; stroke-width:0.1500; stroke-opacity:1; 
stroke-linecap:round; stroke-linejoin:round;">
<text x="300.9890" y="270.7522"
textLength="8.2214" font-size="2.0000" lengthAdjust="spacingAndGlyphs"
text-anchor="start" opacity="0">Sheet: </text>
<g class="stroked-text"><desc>Sheet: </desc>
<path d="M301.3734 270.6169
L301.5877 270.6883
" />
<path d="M301.5877 270.6883
L301.9448 270.6883
" />
<path d="M301.9448 270.6883
L302.0877 270.6169
" />
<path d="M302.0877 270.6169
L302.1591 270.5455
" />
<path d="M302.1591 270.5455
L302.2305 270.4026
" />
<path d="M302.2305 270.4026
L302.2305 270.2598
" />
<path d="M302.2305 270.2598
L302.1591 270.1169
" />
<path d="M302.1591 270.1169
L302.0877 270.0455
" />
<path d="M302.0877 270.0455
L301.9448 269.9740
" />
<path d="M301.9448 269.9740
L301.6591 269.9026
" />
<path d="M301.6591 269.9026
L301.5163 269.8312
" />
<path d="M301.5163 269.8312
L301.4448 269.7598
" />
<path d="M301.4448 269.7598
L301.3734 269.6169
" />
<path d="M301.3734 269.6169
L301.3734 269.4740
" />
<path d="M301.3734 269.4740
L301.4448 269.3312
" />
<path d="M301.4448 269.3312
L301.5163 269.2598
" />
<path d="M301.5163 269.2598
L301.6591 269.1883
" />
<path d="M301.6591 269.1883
L302.0163 269.1883
" />
<path d="M302.0163 269.1883
L302.2305 269.2598
" />
<path d="M302.8734 270.6883
L302.8734 269.1883
" />
<path d="M303.5163 270.6883
L303.5163 269.9026
" />
<path d="M303.5163 269.9026
L303.4448 269.7598
" />
<path d="M303.4448 269.7598
L303.3020 269.6883
" />
<path d="M303.3020 269.6883
L303.0877 269.6883
" />
<path d="M303.0877 269.6883
L302.9448 269.7598
" />
<path d="M302.9448 269.7598
L302.8734 269.8312
" />
<path d="M304.8020 270.6169
L304.6591 270.6883
" />
<path d="M304.6591 270.6883
L304.3734 270.6883
" />
<path d="M304.3734 270.6883
L304.2305 270.6169
" />
<path d="M304.2305 270.6169
L304.1591 270.4740
" />
<path d="M304.1591 270.4740
L304.1591 269.9026
" />
<path d="M304.1591 269.9026
L304.2305 269.7598
" />
<path d="M304.2305 269.7598
L304.3734 269.6883
" />
<path d="M304.3734 269.6883
L304.6591 269.6883
" />
<path d="M304.6591 269.6883
L304.8020 269.7598
" />
<path d="M304.8020 269.7598
L304.8734 269.9026
" />
<path d="M304.8734 269.9026
L304.8734 270.0455
" />
<path d="M304.8734 270.0455
L304.1591 270.1883
" />
<path d="M306.0877 270.6169
L305.9448 270.6883
" />
<path d="M305.9448 270.6883
L305.6591 270.6883
" />
<path d="M305.6591 270.6883
L305.5163 270.6169
" />
<path d="M305.5163 270.6169
L305.4448 270.4740
" />
<path d="M305.4448 270.4740
L305.4448 269.9026
" />
<path d="M305.4448 269.9026
L305.5163 269.7598
" />
<path d="M305.5163 269.7598
L305.6591 269.6883
" />
<path d="M305.6591 269.6883
L305.9448 269.6883
" />
<path d="M305.9448 269.6883
L306.0877 269.7598
" />
<path d="M306.0877 269.7598
L306.1591 269.9026
" />
<path d="M306.1591 269.9026
L306.1591 270.0455
" />
<path d="M306.1591 270.0455
L305.4448 270.1883
" />
<path d="M306.5877 269.6883
L307.1591 269.6883
" />
<path d="M306.8020 269.1883
L306.8020 270.4740
" />
<path d="M306.8020 270.4740
L306.8734 270.6169
" />
<path d="M306.8734 270.6169
L307.0163 270.6883
" />
<path d="M307.0163 270.6883
L307.1591 270.6883
" />
<path d="M307.6591 270.5455
L307.7305 270.6169
" />
<path d="M307.7305 270.6169
L307.6591 270.6883
" />
<path d="M307.6591 270.6883
L307.5877 270.6169
" />
<path d="M307.5877 270.6169
L307.6591 270.5455
" />
<path d="M307.6591 270.5455
L307.6591 270.6883
" />
<path d="M307.6591 269.7598
L307.7305 269.8312
" />
<path d="M307.7305 269.8312
L307.6591 269.9026
" />
<path d="M307.6591 269.9026
L307.5877 269.8312
" />
<path d="M307.5877 269.8312
L307.6591 269.7598
" />
<path d="M307.6591 269.7598
L307.6591 269.9026
" />
</g></g>
<g style="fill:none; 
stroke:#000000; stroke-width:0.3000; stroke-opacity:1; 
stroke-linecap:round; stroke-linejoin:round;">
<text x="300.9890" y="267.7522"
textLength="10.3857" font-size="2.0000" lengthAdjust="spacingAndGlyphs"
text-anchor="start" opacity="0">Unknown</text>
<g class="stroked-text"><desc>Unknown</desc>
<path d="M301.5435 266.1805
L301.5435 267.3948
" />
<path d="M301.5435 267.3948
L301.6149 267.5377
" />
<path d="M301.6149 267.5377
L301.6864 267.6091
" />
<path d="M301.6864 267.6091
L301.8292 267.6805
" />
<path d="M301.8292 267.6805
L302.1149 267.6805
" />
<path d="M302.1149 267.6805
L302.2578 267.6091
" />
<path d="M302.2578 267.6091
L302.3292 267.5377
" />
<path d="M302.3292 267.5377
L302.4007 267.3948
" />
<path d="M302.4007 267.3948
L302.4007 266.1805
" />
<path d="M303.1149 266.6805
L303.1149 267.6805
" />
<path d="M303.1149 266.8234
L303.1864 266.7520
" />
<path d="M303.1864 266.7520
L303.3292 266.6805
" />
<path d="M303.3292 266.6805
L303.5435 266.6805
" />
<path d="M303.5435 266.6805
L303.6864 266.7520
" />
<path d="M303.6864 266.7520
L303.7578 266.8948
" />
<path d="M303.7578 266.8948
L303.7578 267.6805
" />
<path d="M304.4721 267.6805
L304.4721 266.1805
" />
<path d="M304.6149 267.1091
L305.0435 267.6805
" />
<path d="M305.0435 266.6805
L304.4721 267.2520
" />
<path d="M305.6864 266.6805
L305.6864 267.6805
" />
<path d="M305.6864 266.8234
L305.7578 266.7520
" />
<path d="M305.7578 266.7520
L305.9007 266.6805
" />
<path d="M305.9007 266.6805
L306.1149 266.6805
" />
<path d="M306.1149 266.6805
L306.2578 266.7520
" />
<path d="M306.2578 266.7520
L306.3292 266.8948
" />
<path d="M306.3292 266.8948
L306.3292 267.6805
" />
<path d="M307.2578 267.6805
L307.1149 267.6091
" />
<path d="M307.1149 267.6091
L307.0435 267.5377
" />
<path d="M307.0435 267.5377
L306.9721 267.3948
" />
<path d="M306.9721 267.3948
L306.9721 266.9662
" />
<path d="M306.9721 266.9662
L307.0435 266.8234
" />
<path d="M307.0435 266.8234
L307.1149 266.7520
" />
<path d="M307.1149 266.7520
L307.2578 266.6805
" />
<path d="M307.2578 266.6805
L307.4721 266.6805
" />
<path d="M307.4721 266.6805
L307.6149 266.7520
" />
<path d="M307.6149 266.7520
L307.6864 266.8234
" />
<path d="M307.6864 266.8234
L307.7578 266.9662
" />
<path d="M307.7578 266.9662
L307.7578 267.3948
" />
<path d="M307.7578 267.3948
L307.6864 267.5377
" />
<path d="M307.6864 267.5377
L307.6149 267.6091
" />
<path d="M307.6149 267.6091
L307.4721 267.6805
" />
<path d="M307.4721 267.6805
L307.2578 267.6805
" />
<path d="M308.2578 266.6805
L308.5435 267.6805
" />
<path d="M308.5435 267.6805
L308.8292 266.9662
" />
<path d="M308.8292 266.9662
L309.1149 267.6805
" />
<path d="M309.1149 267.6805
L309.4007 266.6805
" />
<path d="M309.9721 266.6805
L309.9721 267.6805
" />
<path d="M309.9721 266.8234
L310.0435 266.7520
" />
<path d="M310.0435 266.7520
L310.1864 266.6805
" />
<path d="M310.1864 266.6805
L310.4007 266.6805
" />
<path d="M310.4007 266.6805
L310.5435 266.7520
" />
<path d="M310.5435 266.7520
L310.6149 266.8948
" />
<path d="M310.6149 266.8948
L310.6149 267.6805
" />
</g></g>
<g style="fill:none; 
stroke:#000000; stroke-width:0.1500; stroke-opacity:1; 
stroke-linecap:round; stroke-linejoin:round;">
<text x="300.9890" y="264.7522"
textLength="0.4500" font-size="2.0000" lengthAdjust="spacingAndGlyphs"
text-anchor="start" opacity="0"></text>
<g class="stroked-text"><desc></desc>
</g></g>
<g style="fill:none; 
stroke:#000000; stroke-width:0.1500; stroke-opacity:1; 
stroke-linecap:round; stroke-linejoin:round;">
<text x="300.9890" y="261.7522"
textLength="0.4500" font-size="2.0000" lengthAdjust="spacingAndGlyphs"
text-anchor="start" opacity="0"></text>
<g class="stroked-text"><desc></desc>
</g></g>
<g style="fill:none; 
stroke:#000000; stroke-width:0.1500; stroke-opacity:1; 
stroke-linecap:round; stroke-linejoin:round;">
<text x="300.9890" y="258.7522"
textLength="0.4500" font-size="2.0000" lengthAdjust="spacingAndGlyphs"
text-anchor="start" opacity="0"></text>
<g class="stroked-text"><desc></desc>
</g></g>
<g style="fill:none; 
stroke:#000000; stroke-width:0.1500; stroke-opacity:1; 
stroke-linecap:round; stroke-linejoin:round;">
<text x="300.9890" y="255.7522"
textLength="0.4500" font-size="2.0000" lengthAdjust="spacingAndGlyphs"
text-anchor="start" opacity="0"></text>
<g class="stroked-text"><desc></desc>
</g></g>
<g style="fill:none; 
stroke:#000000; stroke-width:0.1500; stroke-opacity:1; 
stroke-linecap:round; stroke-linejoin:round;">
<path d="M319.9890 278.5022
L319.9890 281.5022
" />
</g>
<g style="fill:none; 
stroke:#000000; stroke-width:0.1500; stroke-opacity:1; 
stroke-linecap:round; stroke-linejoin:round;">
<path d="M383.9890 278.5022
L383.9890 285.0022
" />
</g>
<g style="fill:#FFFFFF; fill-opacity:1.0000; stroke:none;">
<circle cx="203.4953" cy="114.5930" r="1.1000" /> 
</g>
<g style="fill:#FFFFFF; fill-opacity:1.0000; stroke:none;">
<circle cx="187.0515" cy="107.2717" r="1.1000" /> 
</g>
<g style="fill:#FFFFFF; fill-opacity:1.0000; stroke:none;">
<circle cx="106.0614" cy="64.4067" r="1.1000" /> 
</g>
<g style="fill:#FFFFFF; fill-opacity:1.0000; stroke:none;">
<circle cx="165.1628" cy="68.3974" r="1.1000" /> 
</g>
<g style="fill:#FFFFFF; fill-opacity:1.0000; stroke:none;">
<circle cx="108.3336" cy="82.9945" r="1.1000" /> 
</g>
<g style="fill:#FFFFFF; fill-opacity:1.0000; stroke:none;">
<circle cx="138.1628" cy="107.5974" r="1.1000" /> 
</g>
<g style="fill:#FFFFFF; fill-opacity:1.0000; stroke:none;">
<circle cx="183.4310" cy="122.3900" r="1.1000" /> 
</g>
<g style="fill:#02FFEE; fill-opacity:0.4000; stroke:none;">
<circle cx="203.4953" cy="114.5930" r="1.1500" /> 
</g>
<g style="fill:#02FFEE; fill-opacity:0.4000; stroke:none;">
<circle cx="187.0515" cy="107.2717" r="1.1500" /> 
</g>
<g style="fill:#02FFEE; fill-opacity:0.4000; stroke:none;">
<circle cx="106.0614" cy="64.4067" r="1.1500" /> 
</g>
<g style="fill:#02FFEE; fill-opacity:0.4000; stroke:none;">
<circle cx="165.1628" cy="68.3974" r="1.1500" /> 
</g>
<g style="fill:#02FFEE; fill-opacity:0.4000; stroke:none;">
<circle cx="108.3336" cy="82.9945" r="1.1500" /> 
</g>
<g style="fill:#02FFEE; fill-opacity:0.4000; stroke:none;">
<circle cx="138.1628" cy="107.5974" r="1.1500" /> 
</g>
<g style="fill:#02FFEE; fill-opacity:0.4000; stroke:none;">
<circle cx="183.4310" cy="122.3900" r="1.1500" /> 
</g>
<g style="fill:#FFFFFF; fill-opacity:1.0000; stroke:none;">
<circle cx="203.4953" cy="114.5930" r="1.1000" /> 
</g>
<g style="fill:#FFFFFF; fill-opacity:1.0000; stroke:none;">
<circle cx="187.0515" cy="107.2717" r="1.1000" /> 
</g>
<g style="fill:#FFFFFF; fill-opacity:1.0000; stroke:none;">
<circle cx="106.0614" cy="64.4067" r="1.1000" /> 
</g>
<g style="fill:#FFFFFF; fill-opacity:1.0000; stroke:none;">
<circle cx="165.1628" cy="68.3974" r="1.1000" /> 
</g>
<g style="fill:#FFFFFF; fill-opacity:1.0000; stroke:none;">
<circle cx="108.3336" cy="82.9945" r="1.1000" /> 
</g>
<g style="fill:#FFFFFF; fill-opacity:1.0000; stroke:none;">
<circle cx="138.1628" cy="107.5974" r="1.1000" /> 
</g>
<g style="fill:#FFFFFF; fill-opacity:1.0000; stroke:none;">
<circle cx="183.4310" cy="122.3900" r="1.1000" /> 
</g>
<g style="fill:#FFFFFF; fill-opacity:1.0000; stroke:none;">
<circle cx="203.4953" cy="114.5930" r="1.1000" /> 
</g>
<g style="fill:#FFFFFF; fill-opacity:1.0000; stroke:none;">
<circle cx="187.0515" cy="107.2717" r="1.1000" /> 
</g>
<g style="fill:#FFFFFF; fill-opacity:1.0000; stroke:none;">
<circle cx="106.0614" cy="64.4067" r="1.1000" /> 
</g>
<g style="fill:#FFFFFF; fill-opacity:1.0000; stroke:none;">
<circle cx="165.1628" cy="68.3974" r="1.1000" /> 
</g>
<g style="fill:#FFFFFF; fill-opacity:1.0000; stroke:none;">
<circle cx="108.3336" cy="82.9945" r="1.1000" /> 
</g>
<g style="fill:#FFFFFF; fill-opacity:1.0000; stroke:none;">
<circle cx="138.1628" cy="107.5974" r="1.1000" /> 
</g>
<g style="fill:#FFFFFF; fill-opacity:1.0000; stroke:none;">
<circle cx="183.4310" cy="122.3900" r="1.1000" /> 
</g>
<g style="fill:#D864FF; fill-opacity:0.4000; stroke:none;">
<circle cx="203.4953" cy="114.5930" r="1.1500" /> 
</g>
<g style="fill:#D864FF; fill-opacity:0.4000; stroke:none;">
<circle cx="187.0515" cy="107.2717" r="1.1500" /> 
</g>
<g style="fill:#D864FF; fill-opacity:0.4000; stroke:none;">
<circle cx="106.0614" cy="64.4067" r="1.1500" /> 
</g>
<g style="fill:#D864FF; fill-opacity:0.4000; stroke:none;">
<circle cx="165.1628" cy="68.3974" r="1.1500" /> 
</g>
<g style="fill:#D864FF; fill-opacity:0.4000; stroke:none;">
<circle cx="108.3336" cy="82.9945" r="1.1500" /> 
</g>
<g style="fill:#D864FF; fill-opacity:0.4000; stroke:none;">
<circle cx="138.1628" cy="107.5974" r="1.1500" /> 
</g>
<g style="fill:#D864FF; fill-opacity:0.4000; stroke:none;">
<circle cx="183.4310" cy="122.3900" r="1.1500" /> 
</g>
<g style="fill:#FFFFFF; fill-opacity:1.0000; stroke:none;">
<circle cx="203.4953" cy="114.5930" r="1.1000" /> 
</g>
<g style="fill:#FFFFFF; fill-opacity:1.0000; stroke:none;">
<circle cx="187.0515" cy="107.2717" r="1.1000" /> 
</g>
<g style="fill:#FFFFFF; fill-opacity:1.0000; stroke:none;">
<circle cx="106.0614" cy="64.4067" r="1.1000" /> 
</g>
<g style="fill:#FFFFFF; fill-opacity:1.0000; stroke:none;">
<circle cx="165.1628" cy="68.3974" r="1.1000" /> 
</g>
<g style="fill:#FFFFFF; fill-opacity:1.0000; stroke:none;">
<circle cx="108.3336" cy="82.9945" r="1.1000" /> 
</g>
<g style="fill:#FFFFFF; fill-opacity:1.0000; stroke:none;">
<circle cx="138.1628" cy="107.5974" r="1.1000" /> 
</g>
<g style="fill:#FFFFFF; fill-opacity:1.0000; stroke:none;">
<circle cx="183.4310" cy="122.3900" r="1.1000" /> 
</g>
<g style="fill:none; 
stroke:#D0D2CD; stroke-width:0.1500; stroke-opacity:1; 
stroke-linecap:round; stroke-linejoin:round;">
<path d="M82.3489 60.3629
L91.1193 110.1021
" />
<path d="M102.5358 54.8741
L83.8901 58.1618
" />
<path d="M109.2185 50.8844
L125.8291 50.3043
" />
<path d="M107.3860 52.8495
L107.3871 52.8802
" />
<path d="M148.6628 47.9974
L148.6628 46.7974
" />
<path d="M146.7628 44.8974
L129.5628 44.8974
" />
<path d="M127.6628 46.7974
L127.6628 48.4055
" />
<path d="M166.6628 52.9782
L166.6628 51.7974
" />
<path d="M150.5628 49.8974
L164.7628 49.8974
" />
<path d="M144.5628 125.8974
L160.2926 125.8974
" />
<path d="M142.6628 113.5964
L142.6628 123.9974
" />
<path d="M160.6876 125.9389
L180.1409 130.0738
" />
<path d="M180.5186 130.1966
L196.8196 137.4542
" />
<path d="M199.3282 136.4913
L206.5260 120.3247
" />
<path d="M102.8667 54.8452
L105.4873 54.8466
" />
<path d="M168.5618 54.8782
L204.8131 54.8964
" />
<path d="M206.7121 56.7971
L206.6902 119.5526
" />
<path d="M140.7637 111.6964
L92.9895 111.6722
" />
<path d="M91.1193 110.1021 A1.9000 1.9000 0.0 0 0 92.9895 111.6722" />
<path d="M142.6628 113.5964 A1.9000 1.9000 0.0 0 0 140.7638 111.6964" />
<path d="M142.6628 123.9974 A1.9000 1.9000 0.0 0 0 144.5628 125.8974" />
<path d="M160.6876 125.9389 A1.9000 1.9000 0.0 0 0 160.2926 125.8974" />
<path d="M180.5186 130.1966 A1.9000 1.9000 0.0 0 0 180.1408 130.0738" />
<path d="M196.8196 137.4542 A1.9000 1.9000 0.0 0 0 199.3282 136.4913" />
<path d="M206.5260 120.3247 A1.9000 1.9000 0.0 0 0 206.6902 119.5526" />
<path d="M206.7121 56.7971 A1.9000 1.9000 0.0 0 0 204.8131 54.8964" />
<path d="M166.6628 52.9782 A1.9000 1.9000 0.0 0 0 168.5618 54.8782" />
<path d="M166.6628 51.7974 A1.9000 1.9000 0.0 0 0 164.7628 49.8974" />
<path d="M148.6628 47.9974 A1.9000 1.9000 0.0 0 0 150.5628 49.8974" />
<path d="M148.6628 46.7974 A1.9000 1.9000 0.0 0 0 146.7628 44.8974" />
<path d="M129.5628 44.8974 A1.9000 1.9000 0.0 0 0 127.6628 46.7974" />
<path d="M125.8291 50.3043 A1.9000 1.9000 0.0 0 0 127.6628 48.4055" />
<path d="M109.2185 50.8844 A1.9000 1.9000 0.0 0 0 107.3860 52.8495" />
<path d="M105.4873 54.8466 A1.9000 1.9000 0.0 0 0 107.3871 52.8802" />
<path d="M102.8667 54.8452 A1.9000 1.9000 0.0 0 0 102.5358 54.8741" />
<path d="M83.8901 58.1618 A1.9000 1.9000 0.0 0 0 82.3489 60.3629" />
<path d="M94.3422 108.0802
L108.0802 105.6578
" />
<path d="M108.0802 105.6578
L105.6578 91.9198
" />
<path d="M105.6578 91.9198
L91.9198 94.3422
" />
<path d="M91.9198 94.3422
L94.3422 108.0802
" />
<path d="M91.3901 91.3385
L105.1282 88.9161
" />
<path d="M105.1282 88.9161
L102.7058 75.1780
" />
<path d="M102.7058 75.1780
L88.9678 77.6004
" />
<path d="M88.9678 77.6004
L91.3901 91.3385
" />
<path d="M88.4381 74.5968
L102.1762 72.1744
" />
<path d="M102.1762 72.1744
L99.7538 58.4363
" />
<path d="M99.7538 58.4363
L86.0157 60.8587
" />
<path d="M86.0157 60.8587
L88.4381 74.5968
" />
<path d="M112.6215 101.7716
L126.5630 101.2847
" />
<path d="M126.5630 101.2847
L126.0762 87.3432
" />
<path d="M126.0762 87.3432
L112.1347 87.8301
" />
<path d="M112.1347 87.8301
L112.6215 101.7716
" />
<path d="M112.0282 84.7820
L125.9697 84.2951
" />
<path d="M125.9697 84.2951
L125.4829 70.3536
" />
<path d="M125.4829 70.3536
L111.5414 70.8404
" />
<path d="M111.5414 70.8404
L112.0282 84.7820
" />
<path d="M111.4349 67.7923
L125.3765 67.3055
" />
<path d="M125.3765 67.3055
L124.8896 53.3640
" />
<path d="M124.8896 53.3640
L110.9481 53.8508
" />
<path d="M110.9481 53.8508
L111.4349 67.7923
" />
<path d="M131.1878 95.8724
L145.1378 95.8724
" />
<path d="M145.1378 95.8724
L145.1378 81.9224
" />
<path d="M145.1378 81.9224
L131.1878 81.9224
" />
<path d="M131.1878 81.9224
L131.1878 95.8724
" />
<path d="M131.1878 78.8724
L145.1378 78.8724
" />
<path d="M145.1378 78.8724
L145.1378 64.9224
" />
<path d="M145.1378 64.9224
L131.1878 64.9224
" />
<path d="M131.1878 64.9224
L131.1878 78.8724
" />
<path d="M131.1878 61.8724
L145.1378 61.8724
" />
<path d="M145.1378 61.8724
L145.1378 47.9224
" />
<path d="M145.1378 47.9224
L131.1878 47.9224
" />
<path d="M131.1878 47.9224
L131.1878 61.8724
" />
<path d="M149.1878 100.8724
L163.1378 100.8724
" />
<path d="M163.1378 100.8724
L163.1378 86.9224
" />
<path d="M163.1378 86.9224
L149.1878 86.9224
" />
<path d="M149.1878 86.9224
L149.1878 100.8724
" />
<path d="M149.1878 83.8724
L163.1378 83.8724
" />
<path d="M163.1378 83.8724
L163.1378 69.9224
" />
<path d="M163.1378 69.9224
L149.1878 69.9224
" />
<path d="M149.1878 69.9224
L149.1878 83.8724
" />
<path d="M149.1878 66.8724
L163.1378 66.8724
" />
<path d="M163.1378 66.8724
L163.1378 52.9224
" />
<path d="M163.1378 52.9224
L149.1878 52.9224
" />
<path d="M149.1878 52.9224
L149.1878 66.8724
" />
<path d="M167.1878 105.8724
L181.1378 105.8724
" />
<path d="M181.1378 105.8724
L181.1378 91.9224
" />
<path d="M181.1378 91.9224
L167.1878 91.9224
" />
<path d="M167.1878 91.9224
L167.1878 105.8724
" />
<path d="M167.1878 88.8724
L181.1378 88.8724
" />
<path d="M181.1378 88.8724
L181.1378 74.9224
" />
<path d="M181.1378 74.9224
L167.1878 74.9224
" />
<path d="M167.1878 74.9224
L167.1878 88.8724
" />
<path d="M167.1878 71.8724
L181.1378 71.8724
" />
<path d="M181.1378 71.8724
L181.1378 57.9224
" />
<path d="M181.1378 57.9224
L167.1878 57.9224
" />
<path d="M167.1878 57.9224
L167.1878 71.8724
" />
<path d="M146.1878 122.8724
L160.1378 122.8724
" />
<path d="M160.1378 122.8724
L160.1378 108.9224
" />
<path d="M160.1378 108.9224
L146.1878 108.9224
" />
<path d="M146.1878 108.9224
L146.1878 122.8724
" />
<path d="M165.4086 123.8498
L179.0538 126.7502
" />
<path d="M179.0538 126.7502
L181.9542 113.1050
" />
<path d="M181.9542 113.1050
L168.3090 110.2046
" />
<path d="M168.3090 110.2046
L165.4086 123.8498
" />
<path d="M183.8215 128.3558
L196.5655 134.0298
" />
<path d="M196.5655 134.0298
L202.2395 121.2859
" />
<path d="M202.2395 121.2859
L189.4955 115.6119
" />
<path d="M189.4955 115.6119
L183.8215 128.3558
" />
</g> 
</svg>
