<?xml version="1.0" encoding="UTF-8" standalone="no"?>
<svg
   version="1.1"
   width="124.54202mm"
   height="92.87101mm"
   viewBox="0 0 124.54201 92.871011"
   id="svg1417"
   sodipodi:docname="case_blueprint-brd_plate_attempt.svg"
   inkscape:version="1.3.2 (091e20e, 2023-11-25, custom)"
   xmlns:inkscape="http://www.inkscape.org/namespaces/inkscape"
   xmlns:sodipodi="http://sodipodi.sourceforge.net/DTD/sodipodi-0.dtd"
   xmlns="http://www.w3.org/2000/svg"
   xmlns:svg="http://www.w3.org/2000/svg"
   xmlns:rdf="http://www.w3.org/1999/02/22-rdf-syntax-ns#"
   xmlns:cc="http://creativecommons.org/ns#"
   xmlns:dc="http://purl.org/dc/elements/1.1/">
  <defs
     id="defs1417" />
  <sodipodi:namedview
     id="namedview1417"
     pagecolor="#ffffff"
     bordercolor="#000000"
     borderopacity="0.25"
     inkscape:showpageshadow="2"
     inkscape:pageopacity="0.0"
     inkscape:pagecheckerboard="0"
     inkscape:deskcolor="#d1d1d1"
     inkscape:document-units="mm"
     inkscape:zoom="1.0343344"
     inkscape:cx="405.57483"
     inkscape:cy="274.0893"
     inkscape:window-width="1920"
     inkscape:window-height="1017"
     inkscape:window-x="1912"
     inkscape:window-y="-8"
     inkscape:window-maximized="1"
     inkscape:current-layer="svg1417" />
  <title
     id="title1">SVG Image created as case_blueprint-brd.svg date 2024/04/28 13:00:13 </title>
  <desc
     id="desc1">Image generated by PCBNEW </desc>
  <g
     style="fill:#ffffff;fill-opacity:1;stroke:none"
     id="g1269"
     inkscape:export-filename="g1269.svg"
     inkscape:export-xdpi="96"
     inkscape:export-ydpi="96"
     transform="matrix(0.99999748,0,0,0.99999669,-82.244557,-44.822253)">
    <circle
       cx="203.4953"
       cy="114.593"
       r="1.1"
       id="circle1268" />
  </g>
  <g
     style="fill:#ffffff;fill-opacity:1;stroke:none"
     id="g1270"
     transform="matrix(0.99999748,0,0,0.99999669,-82.244557,-44.822253)">
    <circle
       cx="187.0515"
       cy="107.2717"
       r="1.1"
       id="circle1269" />
  </g>
  <g
     style="fill:#ffffff;fill-opacity:1;stroke:none"
     id="g1271"
     transform="matrix(0.99999748,0,0,0.99999669,-82.244557,-44.822253)">
    <circle
       cx="106.0614"
       cy="64.4067"
       r="1.1"
       id="circle1270" />
  </g>
  <g
     style="fill:#ffffff;fill-opacity:1;stroke:none"
     id="g1272"
     transform="matrix(0.99999748,0,0,0.99999669,-82.244557,-44.822253)">
    <circle
       cx="165.1628"
       cy="68.3974"
       r="1.1"
       id="circle1271" />
  </g>
  <g
     style="fill:#ffffff;fill-opacity:1;stroke:none"
     id="g1273"
     transform="matrix(0.99999748,0,0,0.99999669,-82.244557,-44.822253)">
    <circle
       cx="108.3336"
       cy="82.994499"
       r="1.1"
       id="circle1272" />
  </g>
  <g
     style="fill:#ffffff;fill-opacity:1;stroke:none"
     id="g1274"
     transform="matrix(0.99999748,0,0,0.99999669,-82.244557,-44.822253)">
    <circle
       cx="138.1628"
       cy="107.5974"
       r="1.1"
       id="circle1273" />
  </g>
  <g
     style="fill:#ffffff;fill-opacity:1;stroke:none"
     id="g1275"
     transform="matrix(0.99999748,0,0,0.99999669,-82.244557,-44.822253)">
    <circle
       cx="183.431"
       cy="122.39"
       r="1.1"
       id="circle1274" />
  </g>
  <g
     style="fill:#02ffee;fill-opacity:0.4;stroke:none"
     id="g1276"
     transform="matrix(0.99999748,0,0,0.99999669,-82.244557,-44.822253)">
    <circle
       cx="203.4953"
       cy="114.593"
       r="1.15"
       id="circle1275" />
  </g>
  <g
     style="fill:#02ffee;fill-opacity:0.4;stroke:none"
     id="g1277"
     transform="matrix(0.99999748,0,0,0.99999669,-82.244557,-44.822253)">
    <circle
       cx="187.0515"
       cy="107.2717"
       r="1.15"
       id="circle1276" />
  </g>
  <g
     style="fill:#02ffee;fill-opacity:0.4;stroke:none"
     id="g1278"
     transform="matrix(0.99999748,0,0,0.99999669,-82.244557,-44.822253)">
    <circle
       cx="106.0614"
       cy="64.4067"
       r="1.15"
       id="circle1277" />
  </g>
  <g
     style="fill:#02ffee;fill-opacity:0.4;stroke:none"
     id="g1279"
     transform="matrix(0.99999748,0,0,0.99999669,-82.244557,-44.822253)">
    <circle
       cx="165.1628"
       cy="68.3974"
       r="1.15"
       id="circle1278" />
  </g>
  <g
     style="fill:#02ffee;fill-opacity:0.4;stroke:none"
     id="g1280"
     transform="matrix(0.99999748,0,0,0.99999669,-82.244557,-44.822253)">
    <circle
       cx="108.3336"
       cy="82.994499"
       r="1.15"
       id="circle1279" />
  </g>
  <g
     style="fill:#02ffee;fill-opacity:0.4;stroke:none"
     id="g1281"
     transform="matrix(0.99999748,0,0,0.99999669,-82.244557,-44.822253)">
    <circle
       cx="138.1628"
       cy="107.5974"
       r="1.15"
       id="circle1280" />
  </g>
  <g
     style="fill:#02ffee;fill-opacity:0.4;stroke:none"
     id="g1282"
     transform="matrix(0.99999748,0,0,0.99999669,-82.244557,-44.822253)">
    <circle
       cx="183.431"
       cy="122.39"
       r="1.15"
       id="circle1281" />
  </g>
  <g
     style="fill:#ffffff;fill-opacity:1;stroke:none"
     id="g1283"
     transform="matrix(0.99999748,0,0,0.99999669,-82.244557,-44.822253)">
    <circle
       cx="203.4953"
       cy="114.593"
       r="1.1"
       id="circle1282" />
  </g>
  <g
     style="fill:#ffffff;fill-opacity:1;stroke:none"
     id="g1284"
     transform="matrix(0.99999748,0,0,0.99999669,-82.244557,-44.822253)">
    <circle
       cx="187.0515"
       cy="107.2717"
       r="1.1"
       id="circle1283" />
  </g>
  <g
     style="fill:#ffffff;fill-opacity:1;stroke:none"
     id="g1285"
     transform="matrix(0.99999748,0,0,0.99999669,-82.244557,-44.822253)">
    <circle
       cx="106.0614"
       cy="64.4067"
       r="1.1"
       id="circle1284" />
  </g>
  <g
     style="fill:#ffffff;fill-opacity:1;stroke:none"
     id="g1286"
     transform="matrix(0.99999748,0,0,0.99999669,-82.244557,-44.822253)">
    <circle
       cx="165.1628"
       cy="68.3974"
       r="1.1"
       id="circle1285" />
  </g>
  <g
     style="fill:#ffffff;fill-opacity:1;stroke:none"
     id="g1287"
     transform="matrix(0.99999748,0,0,0.99999669,-82.244557,-44.822253)">
    <circle
       cx="108.3336"
       cy="82.994499"
       r="1.1"
       id="circle1286" />
  </g>
  <g
     style="fill:#ffffff;fill-opacity:1;stroke:none"
     id="g1288"
     transform="matrix(0.99999748,0,0,0.99999669,-82.244557,-44.822253)">
    <circle
       cx="138.1628"
       cy="107.5974"
       r="1.1"
       id="circle1287" />
  </g>
  <g
     style="fill:#ffffff;fill-opacity:1;stroke:none"
     id="g1289"
     transform="matrix(0.99999748,0,0,0.99999669,-82.244557,-44.822253)">
    <circle
       cx="183.431"
       cy="122.39"
       r="1.1"
       id="circle1288" />
  </g>
  <g
     style="fill:#ffffff;fill-opacity:1;stroke:none"
     id="g1290"
     transform="matrix(0.99999748,0,0,0.99999669,-82.244557,-44.822253)">
    <circle
       cx="203.4953"
       cy="114.593"
       r="1.1"
       id="circle1289" />
  </g>
  <g
     style="fill:#ffffff;fill-opacity:1;stroke:none"
     id="g1291"
     transform="matrix(0.99999748,0,0,0.99999669,-82.244557,-44.822253)">
    <circle
       cx="187.0515"
       cy="107.2717"
       r="1.1"
       id="circle1290" />
  </g>
  <g
     style="fill:#ffffff;fill-opacity:1;stroke:none"
     id="g1292"
     transform="matrix(0.99999748,0,0,0.99999669,-82.244557,-44.822253)">
    <circle
       cx="106.0614"
       cy="64.4067"
       r="1.1"
       id="circle1291" />
  </g>
  <g
     style="fill:#ffffff;fill-opacity:1;stroke:none"
     id="g1293"
     transform="matrix(0.99999748,0,0,0.99999669,-82.244557,-44.822253)">
    <circle
       cx="165.1628"
       cy="68.3974"
       r="1.1"
       id="circle1292" />
  </g>
  <g
     style="fill:#ffffff;fill-opacity:1;stroke:none"
     id="g1294"
     transform="matrix(0.99999748,0,0,0.99999669,-82.244557,-44.822253)">
    <circle
       cx="108.3336"
       cy="82.994499"
       r="1.1"
       id="circle1293" />
  </g>
  <g
     style="fill:#ffffff;fill-opacity:1;stroke:none"
     id="g1295"
     transform="matrix(0.99999748,0,0,0.99999669,-82.244557,-44.822253)">
    <circle
       cx="138.1628"
       cy="107.5974"
       r="1.1"
       id="circle1294" />
  </g>
  <g
     style="fill:#ffffff;fill-opacity:1;stroke:none"
     id="g1296"
     transform="matrix(0.99999748,0,0,0.99999669,-82.244557,-44.822253)">
    <circle
       cx="183.431"
       cy="122.39"
       r="1.1"
       id="circle1295" />
  </g>
  <g
     style="fill:#d864ff;fill-opacity:0.4;stroke:none"
     id="g1297"
     transform="matrix(0.99999748,0,0,0.99999669,-82.244557,-44.822253)">
    <circle
       cx="203.4953"
       cy="114.593"
       r="1.15"
       id="circle1296" />
  </g>
  <g
     style="fill:#d864ff;fill-opacity:0.4;stroke:none"
     id="g1298"
     transform="matrix(0.99999748,0,0,0.99999669,-82.244557,-44.822253)">
    <circle
       cx="187.0515"
       cy="107.2717"
       r="1.15"
       id="circle1297" />
  </g>
  <g
     style="fill:#d864ff;fill-opacity:0.4;stroke:none"
     id="g1299"
     transform="matrix(0.99999748,0,0,0.99999669,-82.244557,-44.822253)">
    <circle
       cx="106.0614"
       cy="64.4067"
       r="1.15"
       id="circle1298" />
  </g>
  <g
     style="fill:#d864ff;fill-opacity:0.4;stroke:none"
     id="g1300"
     transform="matrix(0.99999748,0,0,0.99999669,-82.244557,-44.822253)">
    <circle
       cx="165.1628"
       cy="68.3974"
       r="1.15"
       id="circle1299" />
  </g>
  <g
     style="fill:#d864ff;fill-opacity:0.4;stroke:none"
     id="g1301"
     transform="matrix(0.99999748,0,0,0.99999669,-82.244557,-44.822253)">
    <circle
       cx="108.3336"
       cy="82.994499"
       r="1.15"
       id="circle1300" />
  </g>
  <g
     style="fill:#d864ff;fill-opacity:0.4;stroke:none"
     id="g1302"
     transform="matrix(0.99999748,0,0,0.99999669,-82.244557,-44.822253)">
    <circle
       cx="138.1628"
       cy="107.5974"
       r="1.15"
       id="circle1301" />
  </g>
  <g
     style="fill:#d864ff;fill-opacity:0.4;stroke:none"
     id="g1303"
     transform="matrix(0.99999748,0,0,0.99999669,-82.244557,-44.822253)">
    <circle
       cx="183.431"
       cy="122.39"
       r="1.15"
       id="circle1302" />
  </g>
  <g
     style="fill:#ffffff;fill-opacity:1;stroke:none"
     id="g1304"
     transform="matrix(0.99999748,0,0,0.99999669,-82.244557,-44.822253)">
    <circle
       cx="203.4953"
       cy="114.593"
       r="1.1"
       id="circle1303" />
  </g>
  <g
     style="fill:#ffffff;fill-opacity:1;stroke:none"
     id="g1305"
     transform="matrix(0.99999748,0,0,0.99999669,-82.244557,-44.822253)">
    <circle
       cx="187.0515"
       cy="107.2717"
       r="1.1"
       id="circle1304" />
  </g>
  <g
     style="fill:#ffffff;fill-opacity:1;stroke:none"
     id="g1306"
     transform="matrix(0.99999748,0,0,0.99999669,-82.244557,-44.822253)">
    <circle
       cx="106.0614"
       cy="64.4067"
       r="1.1"
       id="circle1305" />
  </g>
  <g
     style="fill:#ffffff;fill-opacity:1;stroke:none"
     id="g1307"
     transform="matrix(0.99999748,0,0,0.99999669,-82.244557,-44.822253)">
    <circle
       cx="165.1628"
       cy="68.3974"
       r="1.1"
       id="circle1306" />
  </g>
  <g
     style="fill:#ffffff;fill-opacity:1;stroke:none"
     id="g1308"
     transform="matrix(0.99999748,0,0,0.99999669,-82.244557,-44.822253)">
    <circle
       cx="108.3336"
       cy="82.994499"
       r="1.1"
       id="circle1307" />
  </g>
  <g
     style="fill:#ffffff;fill-opacity:1;stroke:none"
     id="g1309"
     transform="matrix(0.99999748,0,0,0.99999669,-82.244557,-44.822253)">
    <circle
       cx="138.1628"
       cy="107.5974"
       r="1.1"
       id="circle1308" />
  </g>
  <g
     style="fill:#ffffff;fill-opacity:1;stroke:none"
     id="g1310"
     transform="matrix(0.99999748,0,0,0.99999669,-82.244557,-44.822253)">
    <circle
       cx="183.431"
       cy="122.39"
       r="1.1"
       id="circle1309" />
  </g>
  <g
     style="fill:none;stroke:#d0d2cd;stroke-width:0.15;stroke-linecap:round;stroke-linejoin:round;stroke-opacity:1"
     id="g1417"
     transform="matrix(0.99999748,0,0,0.99999669,-82.244557,-44.822253)">
    <path
       d="m 82.3489,60.3629 8.7704,49.7392"
       id="path1310" />
    <path
       d="M 102.5358,54.8741 83.8901,58.1618"
       id="path1311" />
    <path
       d="m 109.2185,50.8844 16.6106,-0.5801"
       id="path1312" />
    <path
       d="m 107.386,52.8495 0.001,0.0307"
       id="path1313" />
    <path
       d="m 148.6628,47.9974 v -1.2"
       id="path1314" />
    <path
       d="m 146.7628,44.8974 h -17.2"
       id="path1315" />
    <path
       d="m 127.6628,46.7974 v 1.6081"
       id="path1316" />
    <path
       d="M 166.6628,52.9782 V 51.7974"
       id="path1317" />
    <path
       d="m 150.5628,49.8974 h 14.2"
       id="path1318" />
    <path
       d="m 144.5628,125.8974 h 15.7298"
       id="path1319" />
    <path
       d="m 142.6628,113.5964 v 10.401"
       id="path1320" />
    <path
       d="m 160.6876,125.9389 19.4533,4.1349"
       id="path1321" />
    <path
       d="m 180.5186,130.1966 16.301,7.2576"
       id="path1322" />
    <path
       d="m 199.3282,136.4913 7.1978,-16.1666"
       id="path1323" />
    <path
       d="m 102.8667,54.8452 2.6206,0.0014"
       id="path1324" />
    <path
       d="m 168.5618,54.8782 36.2513,0.0182"
       id="path1325" />
    <path
       d="m 206.7121,56.7971 -0.0219,62.7555"
       id="path1326" />
    <path
       d="M 140.7637,111.6964 92.9895,111.6722"
       id="path1327" />
    <path
       d="m 91.1193,110.1021 a 1.9,1.9 0 0 0 1.8702,1.5701"
       id="path1328" />
    <path
       d="m 142.6628,113.5964 a 1.9,1.9 0 0 0 -1.899,-1.9"
       id="path1329" />
    <path
       d="m 142.6628,123.9974 a 1.9,1.9 0 0 0 1.9,1.9"
       id="path1330" />
    <path
       d="m 160.6876,125.9389 a 1.9,1.9 0 0 0 -0.395,-0.0415"
       id="path1331" />
    <path
       d="m 180.5186,130.1966 a 1.9,1.9 0 0 0 -0.3778,-0.1228"
       id="path1332" />
    <path
       d="m 196.8196,137.4542 a 1.9,1.9 0 0 0 2.5086,-0.9629"
       id="path1333" />
    <path
       d="m 206.526,120.3247 a 1.9,1.9 0 0 0 0.1642,-0.7721"
       id="path1334" />
    <path
       d="m 206.7121,56.7971 a 1.9,1.9 0 0 0 -1.899,-1.9007"
       id="path1335" />
    <path
       d="m 166.6628,52.9782 a 1.9,1.9 0 0 0 1.899,1.9"
       id="path1336" />
    <path
       d="m 166.6628,51.7974 a 1.9,1.9 0 0 0 -1.9,-1.9"
       id="path1337" />
    <path
       d="m 148.6628,47.9974 a 1.9,1.9 0 0 0 1.9,1.9"
       id="path1338" />
    <path
       d="m 148.6628,46.7974 a 1.9,1.9 0 0 0 -1.9,-1.9"
       id="path1339" />
    <path
       d="m 129.5628,44.8974 a 1.9,1.9 0 0 0 -1.9,1.9"
       id="path1340" />
    <path
       d="m 125.8291,50.3043 a 1.9,1.9 0 0 0 1.8337,-1.8988"
       id="path1341" />
    <path
       d="m 109.2185,50.8844 a 1.9,1.9 0 0 0 -1.8325,1.9651"
       id="path1342" />
    <path
       d="m 105.4873,54.8466 a 1.9,1.9 0 0 0 1.8998,-1.9664"
       id="path1343" />
    <path
       d="m 102.8667,54.8452 a 1.9,1.9 0 0 0 -0.3309,0.0289"
       id="path1344" />
    <path
       d="m 83.8901,58.1618 a 1.9,1.9 0 0 0 -1.5412,2.2011"
       id="path1345" />
    <path
       d="m 94.3422,108.0802 13.738,-2.4224"
       id="path1346" />
    <path
       d="m 108.0802,105.6578 -2.4224,-13.738"
       id="path1347" />
    <path
       d="m 105.6578,91.9198 -13.738,2.4224"
       id="path1348" />
    <path
       d="m 91.9198,94.3422 2.4224,13.738"
       id="path1349" />
    <path
       d="m 91.3901,91.3385 13.7381,-2.4224"
       id="path1350" />
    <path
       d="M 105.1282,88.9161 102.7058,75.178"
       id="path1351" />
    <path
       d="m 102.7058,75.178 -13.738,2.4224"
       id="path1352" />
    <path
       d="m 88.9678,77.6004 2.4223,13.7381"
       id="path1353" />
    <path
       d="m 88.4381,74.5968 13.7381,-2.4224"
       id="path1354" />
    <path
       d="M 102.1762,72.1744 99.7538,58.4363"
       id="path1355" />
    <path
       d="M 99.7538,58.4363 86.0157,60.8587"
       id="path1356" />
    <path
       d="m 86.0157,60.8587 2.4224,13.7381"
       id="path1357" />
    <path
       d="m 112.6215,101.7716 13.9415,-0.4869"
       id="path1358" />
    <path
       d="M 126.563,101.2847 126.0762,87.3432"
       id="path1359" />
    <path
       d="m 126.0762,87.3432 -13.9415,0.4869"
       id="path1360" />
    <path
       d="m 112.1347,87.8301 0.4868,13.9415"
       id="path1361" />
    <path
       d="m 112.0282,84.782 13.9415,-0.4869"
       id="path1362" />
    <path
       d="M 125.9697,84.2951 125.4829,70.3536"
       id="path1363" />
    <path
       d="m 125.4829,70.3536 -13.9415,0.4868"
       id="path1364" />
    <path
       d="m 111.5414,70.8404 0.4868,13.9416"
       id="path1365" />
    <path
       d="m 111.4349,67.7923 13.9416,-0.4868"
       id="path1366" />
    <path
       d="M 125.3765,67.3055 124.8896,53.364"
       id="path1367" />
    <path
       d="m 124.8896,53.364 -13.9415,0.4868"
       id="path1368" />
    <path
       d="m 110.9481,53.8508 0.4868,13.9415"
       id="path1369" />
    <path
       d="m 131.1878,95.8724 h 13.95"
       id="path1370" />
    <path
       d="m 145.1378,95.8724 v -13.95"
       id="path1371" />
    <path
       d="m 145.1378,81.9224 h -13.95"
       id="path1372" />
    <path
       d="m 131.1878,81.9224 v 13.95"
       id="path1373" />
    <path
       d="m 131.1878,78.8724 h 13.95"
       id="path1374" />
    <path
       d="m 145.1378,78.8724 v -13.95"
       id="path1375" />
    <path
       d="m 145.1378,64.9224 h -13.95"
       id="path1376" />
    <path
       d="m 131.1878,64.9224 v 13.95"
       id="path1377" />
    <path
       d="m 131.1878,61.8724 h 13.95"
       id="path1378" />
    <path
       d="m 145.1378,61.8724 v -13.95"
       id="path1379" />
    <path
       d="m 145.1378,47.9224 h -13.95"
       id="path1380" />
    <path
       d="m 131.1878,47.9224 v 13.95"
       id="path1381" />
    <path
       d="m 149.1878,100.8724 h 13.95"
       id="path1382" />
    <path
       d="m 163.1378,100.8724 v -13.95"
       id="path1383" />
    <path
       d="m 163.1378,86.9224 h -13.95"
       id="path1384" />
    <path
       d="m 149.1878,86.9224 v 13.95"
       id="path1385" />
    <path
       d="m 149.1878,83.8724 h 13.95"
       id="path1386" />
    <path
       d="m 163.1378,83.8724 v -13.95"
       id="path1387" />
    <path
       d="m 163.1378,69.9224 h -13.95"
       id="path1388" />
    <path
       d="m 149.1878,69.9224 v 13.95"
       id="path1389" />
    <path
       d="m 149.1878,66.8724 h 13.95"
       id="path1390" />
    <path
       d="m 163.1378,66.8724 v -13.95"
       id="path1391" />
    <path
       d="m 163.1378,52.9224 h -13.95"
       id="path1392" />
    <path
       d="m 149.1878,52.9224 v 13.95"
       id="path1393" />
    <path
       d="m 167.1878,105.8724 h 13.95"
       id="path1394" />
    <path
       d="m 181.1378,105.8724 v -13.95"
       id="path1395" />
    <path
       d="m 181.1378,91.9224 h -13.95"
       id="path1396" />
    <path
       d="m 167.1878,91.9224 v 13.95"
       id="path1397" />
    <path
       d="m 167.1878,88.8724 h 13.95"
       id="path1398" />
    <path
       d="m 181.1378,88.8724 v -13.95"
       id="path1399" />
    <path
       d="m 181.1378,74.9224 h -13.95"
       id="path1400" />
    <path
       d="m 167.1878,74.9224 v 13.95"
       id="path1401" />
    <path
       d="m 167.1878,71.8724 h 13.95"
       id="path1402" />
    <path
       d="m 181.1378,71.8724 v -13.95"
       id="path1403" />
    <path
       d="m 181.1378,57.9224 h -13.95"
       id="path1404" />
    <path
       d="m 167.1878,57.9224 v 13.95"
       id="path1405" />
    <path
       d="m 146.1878,122.8724 h 13.95"
       id="path1406" />
    <path
       d="m 160.1378,122.8724 v -13.95"
       id="path1407" />
    <path
       d="m 160.1378,108.9224 h -13.95"
       id="path1408" />
    <path
       d="m 146.1878,108.9224 v 13.95"
       id="path1409" />
    <path
       d="m 165.4086,123.8498 13.6452,2.9004"
       id="path1410" />
    <path
       d="m 179.0538,126.7502 2.9004,-13.6452"
       id="path1411" />
    <path
       d="M 181.9542,113.105 168.309,110.2046"
       id="path1412" />
    <path
       d="m 168.309,110.2046 -2.9004,13.6452"
       id="path1413" />
    <path
       d="m 183.8215,128.3558 12.744,5.674"
       id="path1414" />
    <path
       d="m 196.5655,134.0298 5.674,-12.7439"
       id="path1415" />
    <path
       d="m 202.2395,121.2859 -12.744,-5.674"
       id="path1416" />
    <path
       d="m 189.4955,115.6119 -5.674,12.7439"
       id="path1417" />
  </g>
  <metadata
     id="metadata1417">
    <rdf:RDF>
      <cc:Work
         rdf:about="">
        <dc:title>SVG Image created as case_blueprint-brd.svg date 2024/04/28 13:00:13 </dc:title>
      </cc:Work>
    </rdf:RDF>
  </metadata>
</svg>
